<svg xmlns="http://www.w3.org/2000/svg" xmlns:xlink="http://www.w3.org/1999/xlink" id="Layer_1" x="0" y="0" version="1.1" viewBox="0 0 120 120" xml:space="preserve" style="enable-background:new 0 0 120 120"><style type="text/css">.st0{fill:#009ade}.st1{fill:#cf3339}.st2{fill:#fff}.st3{fill:#b68400}.st4{fill:none}.st5{fill:#edb458}.st6{fill:#7f5b49}.st7{fill:#d19d50}.st8{fill:#4197cb}.st9{opacity:.3}</style><title>poutine-marker</title><path d="M57.5,92.9l20.8-0.6c4.4-0.1,6.7,4.3,3.6,6.9l-24.4,20.5L33.1,99.2c-3.1-2.6-0.8-7.1,3.6-6.9L57.5,92.9z" class="st0"/><g><g id="Layer_2_1_"><g id="artwork"><g><g><g><g><g><g><g><path d="M80.7,12.9H81l0.4,1.2h0l0.4-1.2h0.4v1.5H82v-1.2h0l-0.4,1.2h-0.2l-0.4-1.2h0v1.2h-0.3V12.9z" class="st1"/></g><g><path d="M82.5,12.9h0.6c0.1,0,0.2,0,0.3,0.1c0.1,0,0.2,0.1,0.2,0.2c0.1,0.1,0.1,0.1,0.1,0.2 c0,0.1,0,0.2,0,0.3c0,0.1,0,0.2,0,0.3c0,0.1-0.1,0.2-0.1,0.2c-0.1,0.1-0.1,0.1-0.2,0.2c-0.1,0-0.2,0.1-0.3,0.1h-0.6V12.9z M82.8,14.2h0.3c0.1,0,0.2,0,0.3,0c0.1,0,0.1-0.1,0.2-0.1c0,0,0.1-0.1,0.1-0.2s0-0.1,0-0.2c0-0.1,0-0.1,0-0.2 s0-0.1-0.1-0.2c0,0-0.1-0.1-0.2-0.1c-0.1,0-0.1,0-0.3,0h-0.3V14.2z" class="st1"/></g><g><path d="M84.4,12.9h0.2l-0.6,1.6h-0.2L84.4,12.9z" class="st1"/></g><g><path d="M86.2,13.7c0,0.1,0,0.2-0.1,0.3c0,0.1-0.1,0.2-0.2,0.2c-0.1,0.1-0.2,0.1-0.2,0.2 c-0.1,0-0.2,0.1-0.3,0.1c-0.1,0-0.2,0-0.3-0.1c-0.1,0-0.2-0.1-0.2-0.2c-0.1-0.1-0.1-0.2-0.2-0.2c0-0.1-0.1-0.2-0.1-0.3 c0-0.1,0-0.2,0.1-0.3c0-0.1,0.1-0.2,0.2-0.2C85,13,85.1,13,85.2,13c0.1,0,0.2-0.1,0.3-0.1c0.1,0,0.2,0,0.3,0.1 c0.1,0,0.2,0.1,0.2,0.2c0.1,0.1,0.1,0.2,0.2,0.2C86.2,13.5,86.2,13.6,86.2,13.7z M86.1,13.7c0-0.1,0-0.2,0-0.3 c0-0.1-0.1-0.1-0.1-0.2c-0.1-0.1-0.1-0.1-0.2-0.1c-0.1,0-0.2,0-0.2,0c-0.1,0-0.2,0-0.2,0c-0.1,0-0.1,0.1-0.2,0.1 c-0.1,0.1-0.1,0.1-0.1,0.2c0,0.1,0,0.2,0,0.3c0,0.1,0,0.2,0,0.3c0,0.1,0.1,0.1,0.1,0.2c0.1,0.1,0.1,0.1,0.2,0.1 c0.1,0,0.2,0.1,0.3,0.1c0.1,0,0.2,0,0.2,0c0.1,0,0.1-0.1,0.2-0.1C86,14.1,86,14,86,13.9C86.1,13.9,86.1,13.8,86.1,13.7z M85.3,14.1h-0.1v-0.9h0.3c0.1,0,0.2,0,0.2,0.1c0.1,0,0.1,0.1,0.1,0.2c0,0.1,0,0.1-0.1,0.2c0,0-0.1,0.1-0.2,0.1l0.2,0.4 h-0.2l-0.2-0.4h-0.1V14.1z M85.5,13.6C85.5,13.6,85.5,13.6,85.5,13.6c0.1,0,0.1,0,0.1,0c0,0,0,0,0,0c0,0,0,0,0-0.1 c0,0,0,0,0-0.1c0,0,0,0,0,0c0,0,0,0-0.1,0c0,0,0,0-0.1,0h-0.2v0.3H85.5z" class="st1"/></g></g></g></g><g><g><path d="M32.3,9.7c0.3,0,0.6,0.1,0.9,0.4c0.2,0.2,0.3,0.5,0.4,0.7c0.1,0.3,0,0.5-0.1,0.8 c-0.1,0.3-0.3,0.5-0.5,0.7l-0.3,0.3l0,0l0.9,0.9L33,14.1l-0.8-0.9l-2-2l1.1-1.1C31.6,9.8,31.9,9.7,32.3,9.7z M32.6,10.8 c-0.2-0.2-0.3-0.2-0.5-0.2c-0.2,0-0.3,0.1-0.5,0.2l-0.3,0.3l1,1.1l0.4-0.4C32.9,11.4,32.9,11.1,32.6,10.8z" class="st1"/><path d="M35.1,8.6l0.5,0.6l-0.1,0.1c-0.1,0-0.1,0.1-0.2,0.1C35.1,9.5,35,9.8,35,10.1l0.2,0.3l0.8,1L35.4,12 l-0.7-1l-1-1.3l0.6-0.5l0.3,0.5l0,0c-0.1-0.4,0-0.7,0.3-0.9C35,8.6,35,8.6,35.1,8.6z" class="st1"/><path d="M38.4,8.4l-1.5,0.9c0.3,0.4,0.7,0.5,1.1,0.3c0.2-0.1,0.4-0.3,0.6-0.6l0.1,0l0.2,0.6 c-0.2,0.3-0.4,0.5-0.7,0.6c-0.4,0.2-0.8,0.3-1.1,0.2c-0.4-0.1-0.7-0.4-0.9-0.8c-0.2-0.4-0.3-0.8-0.2-1.2 c0.1-0.4,0.3-0.7,0.7-0.9c0.3-0.2,0.6-0.3,0.9-0.2c0.3,0.1,0.5,0.3,0.7,0.6c0,0.1,0.1,0.2,0.2,0.3L38.4,8.4z M37.6,8.2 C37.5,8.1,37.4,8,37.3,8c-0.1,0-0.2,0-0.4,0.1c-0.1,0.1-0.2,0.2-0.3,0.3c0,0.1,0,0.3,0,0.5L37.6,8.2L37.6,8.2z" class="st1"/><path d="M40,6l0.2,0.6l-0.1,0.1c-0.1,0-0.3,0-0.4,0c-0.1,0-0.2,0-0.3,0.1c-0.1,0-0.2,0.1-0.2,0.2 c0,0.1,0,0.1,0,0.2c0,0.1,0.1,0.1,0.2,0.1c0.1,0,0.2,0,0.4,0c0.2,0,0.3,0,0.5,0c0.1,0,0.2,0,0.4,0.1 c0.1,0.1,0.2,0.2,0.3,0.3C41,7.9,41,8,41,8.2c0,0.2-0.1,0.3-0.2,0.5c-0.1,0.2-0.3,0.3-0.5,0.4c-0.3,0.1-0.6,0.2-0.9,0.2 l-0.2-0.6l0.1-0.1c0.2,0,0.3,0.1,0.5,0.1c0.2,0,0.3,0,0.4-0.1c0.1,0,0.2-0.1,0.2-0.2c0-0.1,0-0.2,0-0.2 c0-0.1-0.1-0.1-0.2-0.1c-0.1,0-0.2,0-0.4,0c-0.2,0-0.3,0-0.5,0c-0.1,0-0.2,0-0.4-0.1c-0.1-0.1-0.2-0.2-0.3-0.3 c-0.1-0.2-0.1-0.5,0-0.7c0.1-0.2,0.3-0.4,0.6-0.6C39.5,6.1,39.8,6,40,6z" class="st1"/><path d="M43.4,6.2l-1.6,0.6c0.2,0.5,0.6,0.6,1,0.5c0.2-0.1,0.5-0.3,0.7-0.5l0.1,0l0.1,0.6 c-0.3,0.2-0.5,0.4-0.8,0.5c-0.4,0.2-0.8,0.2-1.2,0c-0.3-0.2-0.6-0.5-0.8-0.9c-0.2-0.4-0.2-0.8,0-1.2 c0.1-0.4,0.4-0.6,0.8-0.8c0.4-0.1,0.7-0.1,0.9,0c0.3,0.1,0.5,0.4,0.6,0.7c0,0.1,0.1,0.2,0.1,0.4L43.4,6.2z M42.6,5.9 c-0.1-0.2-0.1-0.3-0.2-0.3c-0.1-0.1-0.2-0.1-0.4,0c-0.2,0.1-0.3,0.2-0.3,0.3c-0.1,0.1-0.1,0.3,0,0.5L42.6,5.9L42.6,5.9z" class="st1"/><path d="M45.7,5.1c0-0.1-0.1-0.2-0.2-0.3c-0.1-0.1-0.2-0.1-0.3,0c-0.2,0.1-0.4,0.2-0.5,0.4l0.2,0.7l0.4,1.2 l-0.8,0.2l-0.3-1.2l-0.5-1.6l0.7-0.3l0.1,0.4l0,0C44.8,4.4,45,4.2,45.2,4c0.3-0.1,0.6-0.1,0.8,0c0.2,0.1,0.3,0.3,0.4,0.5 l0.2,0.8L47,6.6l-0.8,0.2L45.7,5.1z" class="st1"/><path d="M49.1,5.4L49.1,5.4L49.2,6c-0.2,0.2-0.4,0.3-0.6,0.3c-0.6,0.1-0.9-0.1-1-0.6l-0.1-0.5l-0.2-1.1 l-0.4,0.1l0,0l-0.1-0.5l0.4-0.1L47,3.1l0.7-0.4l0.1,0l0.1,0.7l0.7-0.2l0,0l0.1,0.5L48,3.9l0.3,1.4c0,0.1,0.1,0.2,0.1,0.3 c0.1,0,0.2,0.1,0.3,0C48.8,5.6,48.9,5.5,49.1,5.4z" class="st1"/><path d="M51.7,4.3L50,4.6c0.1,0.5,0.4,0.7,0.9,0.7c0.3,0,0.5-0.2,0.8-0.4l0.1,0l0,0.6c-0.3,0.2-0.6,0.3-0.9,0.3 c-0.5,0.1-0.8,0-1.1-0.2c-0.3-0.2-0.5-0.6-0.6-1c-0.1-0.5,0-0.9,0.2-1.2c0.2-0.3,0.5-0.5,1-0.6c0.4-0.1,0.7,0,0.9,0.2 c0.2,0.2,0.4,0.4,0.4,0.8c0,0.1,0,0.2,0,0.4L51.7,4.3z M51,3.9c0-0.2-0.1-0.3-0.2-0.4c-0.1-0.1-0.2-0.1-0.4-0.1 c-0.2,0-0.3,0.1-0.4,0.2s-0.1,0.3-0.1,0.5L51,3.9L51,3.9z" class="st1"/><path d="M54.9,4.1l0.1,0.5c0,0.1,0,0.1,0,0.1c0,0,0.1,0,0.1,0c0,0,0.1,0,0.2,0l0.1,0l0,0.4 c-0.1,0.1-0.3,0.2-0.5,0.2c-0.1,0-0.2,0-0.3-0.1c-0.1-0.1-0.2-0.2-0.2-0.3l-0.1,0c-0.2,0.2-0.4,0.4-0.6,0.5 c-0.4,0-0.7-0.1-1-0.3c-0.3-0.2-0.4-0.6-0.4-1.1c0-0.5,0-0.9,0.3-1.2c0.2-0.3,0.6-0.5,1-0.5c0.1,0,0.3,0,0.4,0l-0.1-1.4 l0.8-0.1L54.9,4.1z M53,3.9c0,0.3,0.1,0.6,0.2,0.7c0.1,0.2,0.3,0.2,0.5,0.2c0.2,0,0.3-0.1,0.5-0.3l0-0.3L54,3.1 c-0.2-0.1-0.3-0.1-0.5-0.1C53.1,3.1,52.9,3.4,53,3.9z" class="st1"/><path d="M59.1,2.6c0.2,0.2,0.3,0.6,0.3,1c0,0.5-0.1,0.9-0.4,1.2c-0.3,0.3-0.6,0.4-1.1,0.4c-0.2,0-0.5,0-0.7-0.1 l-0.4,0.2l-0.1-0.1l0-1.2l-0.1-3.2l0.8-0.1l0,1.9l0,0c0.1-0.1,0.2-0.2,0.3-0.3c0.1-0.1,0.2-0.1,0.4-0.2 C58.7,2.3,58.9,2.4,59.1,2.6z M58.5,4.5c0.1-0.2,0.2-0.4,0.2-0.7c0-0.3-0.1-0.5-0.1-0.7C58.4,3,58.3,2.9,58.1,3 c-0.2,0-0.4,0.1-0.5,0.3l0,0.7l0,0.7c0.2,0.1,0.3,0.1,0.4,0.1C58.2,4.8,58.4,4.7,58.5,4.5z" class="st1"/><path d="M60.5,2.8L61,4.5l0.1,0l0.6-1.6l0.1-0.5l0.7,0l-1.1,2.7c-0.1,0.3-0.2,0.5-0.4,0.7 c-0.1,0.2-0.3,0.3-0.5,0.4c-0.2,0.1-0.4,0.2-0.7,0.3l-0.1,0c-0.1-0.1-0.2-0.3-0.3-0.5l0-0.1c0.3,0,0.5-0.1,0.7-0.2 c0.2-0.1,0.3-0.2,0.5-0.4l-0.9-3l0.8,0L60.5,2.8z" class="st1"/></g><g><ellipse cx="58.4" cy="22.8" class="st1" rx="26" ry="14.6"/></g><g><g><path d="M37.1,23.6c-0.4,1.4,0.2,2.6,1.9,2.6c1,0,1.8-0.6,2-1.4c0.2-0.9-0.3-1.5-0.9-2.1l-0.6-0.6 c-0.7-0.8-1.3-1.4-1-2.6c0.4-1.6,2.1-2.7,4.1-2.7c1,0,1.8,0.3,2.5,0.8c1.3,1.3-0.3,2.1-0.7,2.1c-0.1,0-0.1,0-0.1,0 c0.3-1.1,0-2.2-1.5-2.2c-0.8,0-1.8,0.4-2,1.2c-0.2,0.8,0.4,1.4,1,2l0.5,0.5c0.8,0.8,1.5,1.6,1.2,2.8 c-0.4,1.8-2.2,2.8-4.3,2.8c-1.2,0-2.3-0.3-3-1.1C35,24.3,36.4,23.6,37.1,23.6z" class="st2"/></g><g><path d="M51.7,30.3l2-4.5h0c0.3,0.6,0.8,1,1.7,1c2.6,0,4.5-2.5,4.7-4.4c0,0,0-0.2,0-0.5 c-0.1-0.9-0.7-1.6-2-1.6c-0.9,0-1.8,0.4-2.4,1l0,0l0.2-0.5c-0.3-0.5-0.7-0.9-1.3-1.1l-4.3,9.6 C50.6,29.7,51.1,30.1,51.7,30.3z M58.1,22c-0.1,1.1-1.4,4-3,4c-0.7,0-0.8-0.5-0.8-1c0.1-0.9,1.3-4,3-4 C57.9,21.1,58.2,21.5,58.1,22z" class="st2"/></g><g><path d="M51.2,25.9C51.1,25.9,51,26,50.9,26c-0.3,0-0.3-0.3-0.3-0.5c0-0.2,0.3-0.8,0.4-1.1l1.9-4 c-0.6-0.2-1.3-0.2-1.9,0l-0.5,0.8c-0.3-0.6-0.8-1-1.7-1c-2.6,0-4.7,2.5-5,4.4c-0.1,1.1,0.5,2.1,2,2.1 c1.2,0,2.3-0.7,2.9-1.5l0,0c0,0-0.1,0.3-0.1,0.5c-0.1,0.5,0.4,1,1,1c0.4,0,0.8-0.1,1.2-0.3L51.2,25.9L51.2,25.9z M50,21.9 c-0.1,1.1-1.6,4-3.2,4c-0.6,0-0.8-0.5-0.8-1c0.1-1,1.5-3.9,3.1-3.9C49.8,21.1,50.1,21.4,50,21.9z" class="st2"/></g><g><g><path d="M67.3,23l1.1-2.1c0,0-0.6,0-1-0.1c-0.3,0-0.9-0.1-0.9-0.1l-0.5,1c-0.5,1-2.1,4.1-3.6,4.1 c-0.3,0-0.5-0.1-0.5-0.4c0-0.3,1.2-2.5,1.2-2.5c0.3-0.5,0.6-1.2,0.7-1.7c0.1-0.6-0.4-0.9-1.1-0.9c-0.6,0-1.3,0.3-1.9,0.6 c0.1,0.1,0.1,0.2,0.2,0.4c0.2-0.1,0.4-0.1,0.5-0.1c0.2,0,0.3,0.1,0.3,0.3c0,0.2-1.1,2.4-1.1,2.4c-0.3,0.5-0.7,1.2-0.7,1.8 c-0.1,0.7,0.5,1.2,1.3,1.2c1.4,0,2.6-0.9,3.4-2.1l0,0c-0.1,0.3-0.2,0.6-0.3,1c-0.1,0.6,0.3,1.1,1,1.1 c0.7,0,1.3-0.3,1.8-0.7v0c-0.1-0.1-0.1-0.3-0.1-0.4c0,0,0,0,0-0.1c-0.2,0.1-0.4,0.2-0.5,0.2c-0.3,0-0.3-0.3-0.3-0.5 C66.5,24.8,67,23.6,67.3,23z" class="st2"/></g></g><g><path d="M78.3,20.3c-1-0.7-2.7-1.2-5.7-1.3l0.7-1.5c-0.6-0.2-1.2-0.2-1.8,0L70.7,19c-2,0.1-4.3,0.6-8.6-0.2 L62,19c2.4,1,6,1.2,8.2,1.2l-1.6,3.3c-0.1,0.3-0.3,0.7-0.5,1.1c-0.2,0.5-0.3,0.9-0.3,1.1c-0.1,0.7,0.5,1.1,1.3,1.1 c0.9,0,1.7-0.6,2.3-1.1l0,0c-0.1-0.1-0.1-0.3-0.2-0.4c-0.1,0.1-0.3,0.3-0.4,0.4c-0.2,0.2-0.5,0.3-0.7,0.3 c-0.3,0-0.4-0.2-0.4-0.5c0.1-0.4,0.5-1.3,0.7-1.7l1.6-3.6c1.6-0.2,3.7-0.4,4.7,0.3c-1.6,0.1-3.1,0.6-4.1,1.7 c-0.6,0.7-0.9,1.4-1,2.2c0,0.3,0,0.6,0,0.8c0.2,1.1,1.2,1.8,2.7,1.8c2.5,0,4.7-2,5-4c0-0.1,0.2-0.9-0.4-1.8 c0.8,0.3,1.5,0.8,1.6,1.1c0.4-0.2,0.8-0.5,1-1C81.4,20.8,79.9,20.4,78.3,20.3z M76.2,25.1c-1.2,1.7-3.1,1.7-2.4-0.7 c0.1-0.4,1-3.4,3.6-3.7c0.1,0.2,0.2,0.3,0.2,0.6C77.8,22.3,77.1,24,76.2,25.1z" class="st2"/></g></g></g></g></g><g><g><g><g><path d="M102.3,56.3l-3.3-8c-0.2-0.6-0.9-0.9-1.5-0.8l-4.3,1l1.2-3.1c0.1-0.2,0.1-0.5,0.1-0.8l-0.9-4.5 c-0.1-0.7-0.8-1.2-1.5-1.1L85,40.4L84.2,36c-0.1-0.4-0.3-0.8-0.7-1l-3.9-1.9c-0.4-0.2-0.8-0.2-1.2,0l-4.9,2.7 c-0.5,0.3-0.8,0.9-0.7,1.4l-1.1-0.8c-0.4-0.3-0.9-0.4-1.4-0.1L66,38.4L65,35.2c-0.2-0.6-0.8-1.1-1.5-1l-7.7,1.2 c-0.6,0.1-1,0.5-1.1,1.1l-0.4,1.8l-1.8-5.4c-0.1-0.5-0.5-0.8-1-0.9l-7.8-1.6c-0.4-0.1-0.7,0-1,0.2c-0.3,0.2-0.5,0.5-0.6,0.9 l-0.7,4.6c0,0.3,0,0.5,0.1,0.8l1.2,2.6l0,0.1c0,0,0,0,0,0l-1.9-2.7c-0.3-0.4-0.8-0.6-1.3-0.5l-4.9,1c-0.5,0.1-0.9,0.5-1,0.9 L32,43.9l-1.2-1.9c-0.3-0.4-0.7-0.6-1.1-0.6l-3.9,0.1c-0.5,0-1,0.3-1.2,0.8l-2.5,5.2c-0.2,0.5-0.2,1,0.2,1.4l0.4,0.5 L20,49.3c-0.7,0-1.3,0.5-1.4,1.2l-1,8.3c-0.1,0.5,0.2,1.1,0.7,1.3l2.4,1.4c-0.1,0-0.2,0-0.2,0.1l-0.3,0.1 c-0.2,0.1-0.4,0.2-0.6,0.4l-0.2,0.2c-0.8,1-1,2.6-0.5,5.1l0.2,0.8c0.1,0.6,0.6,1,1.1,1.1l0.4,2.5c-1.4,1.5-2.2,3.3-2.2,5.1 c0,2.6,1.4,4.3,3.8,4.7l0.1,0.9l-1.6,7.4c-0.1,0.6,0,1.3,0.4,1.8c0.4,0.5,1,0.8,1.7,0.8h1.2l1.5,8.5 c0.3,1.7,1.7,2.9,3.3,2.9h58.3c1.7,0,3.1-1.2,3.3-2.9l1.6-9.4c1.2-0.7,2.5-2.1,3-4.7c0.2-0.9-0.2-1.7-0.9-2.2 c1.5-1.4,2.3-3.3,2.3-5.2c0-1.6-0.6-2.8-1.6-3.7l1.1-6.5c0.6-0.1,1-0.5,1.1-1.1l0.2-0.8c0.5-2.6,0.3-4.1-0.5-5.1l-0.1-0.1 l5.2-4.4C102.4,57.4,102.5,56.8,102.3,56.3z" class="st2"/></g></g><g><g><g><path d="M82.4,59.5c0.6,0,3.9,1.1,6.1,1.4c1,0.1,1.8,0.4,3.2,1.6c0.7,0.6-9.1,1-9.1,1L82.4,59.5z" class="st3"/></g></g><g><g><path d="M30.4,60.3c-0.7,0-2.9,0.7-3.3,1.1c-0.4,0.4-1.1,1.2-1.2,1.6c-0.1,0.4,4.1,0.4,4.1,0.4L30.4,60.3z" class="st3"/></g></g><g><g><path d="M32.6,63c4-0.4,8.2-5.9,11.8-3.4c5.4,3.9,2.1,4.8,2.1,4.8L32.6,63" class="st3"/></g></g><g><g><path d="M57.9,60.3c0.4,0.3-1.1,0.9-0.5,1.2c0.6,0.3,0.9-0.1,1.3-0.1c0.4,0.1,0.7,0.8,1.4,0.5 c0.8-0.3,1.3-0.5,0.9-1.3c-0.5-0.9-1.4,0-1.7-0.7C58.7,59.1,57,59.5,57.9,60.3z" class="st2"/></g></g><g><g><g><polygon points="51.5 70.6 51.6 70.7 51.7 70.6" class="st4"/></g></g><g><g><polygon points="64.2 39.9 63.2 36.5 56.9 37.4 58.6 41" class="st5"/></g></g><g><g><path d="M55.4,44.8l1.3-1.6l0.9,0.2l0.4-2l-1.5-3l-1.2,6.4C55.3,44.7,55.3,44.8,55.4,44.8z" class="st5"/></g></g><g><g><polygon points="52.2 68.2 52.3 67.9 52.2 67.8" class="st5"/></g></g><g><g><polygon points="51.8 69.9 51.9 69.5 51 69.6" class="st5"/></g></g><g><g><polygon points="50.6 34 44.2 32.7 43.7 35.9 49.3 37.3" class="st5"/></g></g><g><g><path d="M52.5,44.9c0.4,0,0.8,0.1,1.1-0.2c0.2-0.2,0.4-0.4,0.6-0.4l-3.1-9.4L50,37.7L52.5,44.9z" class="st5"/></g></g><g><g><polygon points="81.8 36.3 79.2 35.1 75.2 37.4 77.8 39.2" class="st5"/></g></g><g><g><polygon points="81.8 53.1 83.9 45.8 82.3 36.8 78.3 39.9" class="st5"/></g></g><g><g><polygon points="92.5 44.5 91.9 41.3 85.7 42.5 87.1 45.7" class="st5"/></g></g><g><g><path d="M84,54l2.4-7.9l-1.2-2.8l-2.9,10.2c0.4,0.2,0.8,0.4,1.3,0.5C83.8,54,83.9,54,84,54z" class="st5"/></g></g><g><g><path d="M81.1,75.1l0.9-2.3l19.1-15.9l-3.3-8l-5.4,1.2L91.7,51c-0.2-0.2-0.4-0.4-0.6-0.5l2.2-5.5l-0.9-4.5 L85,41.9l-0.7,2.5l-1.4-8l-3.9-1.9l-4.9,2.7l2.6,8.8l-1,0.2c0.1-1,0-1.7-0.7-2.3c-0.4-0.3-0.8-0.7-1.2-0.9l0.2-2.9 L71,37.6l-5.2,2.5L66,45c-0.4,0.1-0.8,0.3-1.1,0.8c-0.1,0.2-0.2,0.4-0.2,0.6c0.4,0,0.9,0,1.3,0l0.1,2.4 c-0.2-0.1-0.5-0.1-0.9,0.3c-0.4,0.5-1.3,0-1.6,0.6c-0.3,0.7,0.5,0.8,0.6,1.2c0,0.1,0,0.1,0,0.2l-1.1,0.7l-1.1-5l-0.5-2.4 l-3.3-0.8l0.4-1.8l5.7-1.1l-1.9,6.1c0.3-0.1,0.6-0.2,0.8-0.2l1.9-6l-1.4-4.8L56,36.8l-1.3,6.8l-3.4-10.2l-7.8-1.6 l-0.7,4.6l1.6,3.6L44.3,40l-2.4,2.5l0.3,1.2c-0.6,0.1-1.1,0.2-1.4,0.9c-0.2,0.5-0.2,0.8-0.1,1.2l-1.4,0.7l2.4-5.9 l-1.9-2.7l-4.9,1l-2.5,8.5l-2.8-4.2L25.8,43l-2.5,5.2l3.2,3.9L25,51l-5.1-0.2l-1,8.3l8.7,5l-0.3,1.2l3.2,0.7l4.7,24.8 l5.6-0.5l-1.1-14.5l1.5,9.1l6.7,0.4l-0.3-7.8l2.4,2.8l6.4-5.3l2.3,5.8l4.2,0.3l1.8,4.1l-1.3,3.2l5.3,3l7.4-13.7l3.7-3.1 L81.1,75.1z M80.7,74.3l-0.3-0.1l0.5-0.4L80.7,74.3z M97.4,49.8l2.7,6.6l-4.4,0.2l-2.1-5.9L97.4,49.8z M92.8,50.9l2.1,6 L80.6,69.4l4.8-8.8l-0.1-1.7L88,56c0.1,0.1,0.2,0.2,0.5,0.2c1-0.1,0.9-1.1,1.8-1.3c0.9-0.1,1.5,0.1,1.8-1.2 c0.2-1,0.3-1.6,0-2.1L92.8,50.9z M78.6,60.2l-1.1-3.9l6.8,0l0.3,3.7L78.6,60.2z M77.4,71.9l-1.3,2L49,62.7l0.2-5.9 L77.4,71.9z M69.2,83.9l-1.3,0.4l-4.1-11.9l1.9,0.7L69.2,83.9z M67.8,77.5l-0.1-0.2l0.7-3.1l0.6,0.2L67.8,77.5z M67.3,76 l-0.9-2.6l1.3,0.5L67.3,76z M68.2,78.6l1.6-3.9l1.7,0.7L69,81.1L68.2,78.6z M45.1,64.2l3.4-1l27.1,11.3l-0.9,1.3 L45.1,64.2z M47.3,74.6l-0.1-1.9l1.6,0.9l-1.1,1.2L47.3,74.6z M47.2,71.8l-0.1-3.5l4,3L49.4,73L47.2,71.8z M49.4,66.7 l-1.6,0.7L47,66.7l0-0.6l0.3-0.1L49.4,66.7z M51.6,67.6l0.1,1.3L50.6,69l-0.2-1.8l0,0L51.6,67.6z M50.1,69l-0.5,0.1 l-1.4-1l1.7-0.7L50.1,69z M52.2,68.2l0-0.4l0.1,0L52.2,68.2z M51.9,69.5l-0.1,0.4L51,69.6L51.9,69.5z M51.5,70.6l0.2,0.1 l0,0L51.5,70.6z M52.9,68.1l0.7,0.3l0.1,0.2l-1,1.1L52.9,68.1z M48.5,53.2l-1.1-8.4l1.3-2.1L49.9,53c0.5,0,0.9,0,1.4,0 L51,54.7l1.3,2.8l-2.4-1.3c0-0.1,0-0.3,0-0.4c-0.1-1-1.1-2.5-2.6-1.2c-0.2,0.2-0.5,0.2-0.7,0.2l0-0.9 c0.6-0.2,1.1-0.5,1.5-0.5C48.2,53.2,48.3,53.2,48.5,53.2z M59.6,47.9l0.4,1.6c-0.6-0.3-1.2-0.3-2.2,0.7 c-0.3,0.3-0.7,0.4-1.1,0.5l-1.5-4.6L59.6,47.9z M62.3,62.9L60,61.7l-1.9-5.6l1.1-2.8L62.3,62.9z M53.2,58l-1.4-3.1 l5.7,1.5l1.7,4.8L53.2,58z M52.3,51l6.3,1.4l-1.2,3.3l-5.6-1.5L52.3,51z M55.6,48.9l0.6,1.8c-0.5,0-1,0-1.4,0.1l-3-0.7 l-0.4,2.6l-0.9-0.5l-0.2-1.9L55.6,48.9z M45.4,58.4l3-1.5l-0.4,5.7l-3.5,1.1L45.4,58.4z M68.9,57l0.2-3.3l3.3,1.6 c-0.1,0.9,0.8,1.3,1.4,1.9l0.2,1.6L68.9,57z M71.3,48.5l1.4,2.8l-0.6,2.9l-1.8-0.9L71.3,48.5z M78.2,52.4 c-0.4,0-1,0.2-1.6,0.9c-1,1-2.9-0.1-3.8,1.2l0.6-2.8l5.5-1.4L78.2,52.4z M74.1,60.1c0.1,0.2,0.2,0.4,0.6,0.4l-3,7.5 L70,67.1l0.9-4.3L74.1,60.1z M72.3,68.3l4.5-11.2l0.9,3.3L74,69.2L72.3,68.3z M91.9,41.3l0.7,3.2l-5.4,1.3l-1.4-3.3 L91.9,41.3z M83.9,45.8l-2.1,7.2l-3.6-13.1l4.1-3.1L83.9,45.8z M79.2,35.1l2.6,1.3l-4,2.9l-2.6-1.8L79.2,35.1z M75.1,38.1 l2.4,1.8L81,52.6c0.5,0.3,0.9,0.6,1.4,0.9l2.9-10.2l1.2,2.8L84,54c0.2,0.1,0.4,0.1,0.6,0.2l2.4-7.8l5.5-1.3l-2.1,5.2 c-0.2,0.1-0.5,0.3-0.8,0.6c-0.7,0.8-2-0.1-2.6,1c-0.5,1.1,0.7,1.4,1,2.1c0.1,0.2,0.1,0.4,0,0.7l-1.2,1.3l-1.7,1.8L85,55.4 l-4.2,0c0.1-0.8-0.1-1.4-0.7-1.9c-0.4-0.3-0.7-0.7-1.1-0.9l0.1-0.4c0.1,0,0.2,0,0.3-0.1l-0.1-0.4l0.5-1.7l-1.3-4.6l-1,0.2 L75.1,38.1z M77.9,46.4l0.9,3.2L73.4,51l-1.7-3.3L77.9,46.4z M73,46.6l-2.1,0.4l-1.2,6L69,52.8l-0.1-9.3l4.5-3.1L73,46.6z M71,38.3l2.1,1.6l-4.4,2.8l-2-2.2L71,38.3z M66.5,41.3l1.8,2.1l0.1,9.7l-1.5,1.6L66.5,41.3z M63.7,56.8 c0.2,0.1,0.5,0.3,0.6,0.4l-1-4.7l2.8-1.6l0.1,4.4l-1.9,2c0.2,0.2,0.3,0.3,0.5,0.5l3.6-3.8l-0.3,3.1l-2.1,2.1 c0.2,0.2,0.4,0.3,0.6,0.4l1.9-1.9l5.4,1.7l-3.2,2.7c0.1,0.3,0.1,0.7,0.1,1.1c0,0.4-0.3,0.6-0.8,0.9l-0.6,2.6l-1.5-0.8 l0.1-0.6l1-0.8c-0.4,0.1-0.8,0.2-1.3,0.2l-0.8,0.7l-0.9-0.5l-2.7-1.5l-2-6.3l-0.6-1.7c0.3-0.1,0.5-0.2,0.7-0.5l0.4,1.9 c0.1-0.1,0.3-0.1,0.5-0.1l-0.6-2.6c0-0.1,0-0.1,0.1-0.2c0.4-1.8,0.5-2.7-0.5-3.5c-0.2-0.2-0.4-0.3-0.6-0.5l-0.5-2.3 l1.1-2.2L63.7,56.8z M60.9,44.9l-1.2,2.2l-4.3-1.6l1.4-1.7L60.9,44.9z M63.2,36.5l1,3.4L58.6,41l-1.8-3.5L63.2,36.5z M56.5,38.3l1.5,3l-0.4,2l-0.9-0.2l-1.3,1.6c0,0-0.1-0.1-0.1-0.1L56.5,38.3z M54.2,44.3c-0.2,0.1-0.4,0.2-0.6,0.4 c-0.3,0.3-0.7,0.2-1.1,0.2L50,37.7l1.1-2.9L54.2,44.3z M44.2,32.7l6.4,1.3l-1.2,3.3l-5.6-1.4L44.2,32.7z M43.7,36.6 l5.7,1.4l2.4,6.9c-0.2,0.1-0.3,0.3-0.4,0.6c-0.2,0.6,0.4,1.1,0.4,1.6c0,0.1-0.1,0.2-0.2,0.4c-0.3,0.4-0.8,0.9-0.9,1.7 c0,0,0,0.1,0,0.1l-0.6,0.2l-0.3-2.9l-0.6-5.1l-3.8-1.2L43.7,36.6z M44.4,40.7l4,1.4L47,44.2l-4.2-1.9L44.4,40.7z M42.5,42.8l4.3,2.1l1,7.6c-0.1,0-0.1-0.1-0.2-0.1c-0.6-0.2-0.3-1.2-1.3-1.1l-0.1-2.1L43,44.6l0,0L42.5,42.8z M42.7,45.7 l2.4,3.2l-5.6,2.9l-3.3-3.1L42.7,45.7z M38.6,46.7l-2.9,1.4c-0.2-0.2-0.5-0.5-0.8-0.6l1.6-5.3l4.5-1.6L38.6,46.7z M39.6,38.4l1.3,1.8l-4.3,1.3l-1-2.3L39.6,38.4z M35.2,39.8l0.9,2.2l-1.7,5.5c-0.2,0.1-0.3,0.2-0.5,0.4 c-0.2,0.2-0.4,0.2-0.7,0.2l-0.3-0.4L35.2,39.8z M32.4,48.1c-0.3,0.1-0.6,0.2-0.7,0.7c-0.2,0.6,0.4,1.1,0.4,1.6 c-0.1,0.5-1,1-1.1,2.1c0,0.1,0,0.3,0,0.4l-3.2-4l1.6-5.3L32.4,48.1z M26.2,43.6l2.6-0.1l-1.7,4.9L24.2,48L26.2,43.6z M24.5,48.7l2.7,0.5l4.1,5.2c0.7-0.8,1.4-1.6,2.6-1.9c0.6-0.2,1.2-0.2,1.8-0.2l0.5,3l-0.9-1.2l-3.2,2.1l-1.4-1l-2.1-1.6 L24.5,48.7z M32.7,61.1l-2.8-2.4l5.2-3.5l2.1,2.6L32.7,61.1z M31.5,56.7L29,58.4l0.5,2.6l-2.8-1.7c0-0.6-0.8-0.9-0.7-1.5 c0.1-0.7,0.5-1-0.6-1.7c-0.3-0.2-0.5-0.3-0.7-0.4l0.3-3.9L31.5,56.7z M20.6,51.6l3.6,0.1l-0.3,3.7c-0.3-0.1-0.6-0.1-1,0 c-0.7,0.2-1.6,0.2-0.8,1.5c0.3,0.4,0,0.8-0.1,1.2l-2.3,0.4L20.6,51.6z M20.5,59.1l1.7-0.3c0,0,0.1,0.1,0.1,0.1 c0.9,0.8,1.5,0.1,2.2,0.2c0.2,0,0.3,0.1,0.5,0.2l4.6,2.7l0.5,2.6L20.5,59.1z M27.9,64.8l0.1-0.5l1,0.6l0,0.1L27.9,64.8z M35.7,90l-5.8-30.5l2.4,2.1l4.8,28.3L35.7,90z M37.8,89.9L33,61.7l4.6-3.4l2.4,31.3L37.8,89.9z M41.8,84.2l-2.9-18 l-0.6-8.3l-0.9-1.2l-1.1-6.9l2.8,2.7l4.5,31.8L41.8,84.2z M46.9,84.5l-2.6-0.2l-4.5-31.7l5.7-3l0.2,4.6 c-0.7-0.6-1.3-1.3-2-0.4c-0.4,0.6-1.8-0.4-2,0.9c-0.1,0.6,0.5,1,0.5,1.5c0,0.4-0.8,0.9-0.8,1.9c0,1,1.1,2.1,2,2 c0.4,0,0.7-0.1,0.9-0.2l-0.8,4.5l2.6,1L46.6,76l-0.3,0.3l0.3,0.3L46.9,84.5z M47.3,76.2l7.2-7.5l1.6,0.6l-7.9,7.9 L47.3,76.2z M50,79.4l-1.4-1.6l8.1-8.2l1.1,0.4l0.9,2L50,79.4z M59.5,80.2l-2.4-5.9l1.9-1.6l2.8,7.7L59.5,80.2z M58.7,70.4l4.2,1.6l4.3,12.4l-2,0.6L58.7,70.4z M64.3,88.1l0.9-2.3l2-0.6l-1.5,3.6L64.3,88.1z M68.4,90.4l-2.1-1.1 l1.8-4.3l1.9-0.6l-0.7-2.2l2.8-6.6l3,1.2l3.3-5.2l-3.7-2l3.7-8.7l6.1-0.3L68.4,90.4z M77.1,75.9l2.4-4.4l16.1-14.1 l3.7-0.2L77.1,75.9z" class="st2"/></g></g><g><g><polygon points="100 56.4 97.4 49.8 93.5 50.6 95.6 56.6" class="st5"/></g></g><g><g><path d="M92.2,53.7c-0.3,1.3-0.9,1.1-1.8,1.2c-0.9,0.1-0.8,1.1-1.8,1.3c-0.3,0-0.4,0-0.5-0.2l-2.8,2.9 l0.1,1.7l-4.8,8.8l14.3-12.4l-2.1-6l-0.6,0.6C92.5,52.1,92.4,52.7,92.2,53.7z" class="st5"/></g></g><g><g><polygon points="40.9 40.1 39.6 38.4 35.6 39.2 36.6 41.5" class="st5"/></g></g><g><g><path d="M34.9,47.5c0.3,0.1,0.5,0.3,0.8,0.6l2.9-1.4l2.4-6l-4.5,1.6L34.9,47.5z" class="st5"/></g></g><g><g><polygon points="28.8 43.5 26.2 43.6 24.2 48 27.1 48.4" class="st5"/></g></g><g><g><path d="M31,52.9c0-0.1,0-0.3,0-0.4c0.1-1.1,1-1.6,1.1-2.1c0.1-0.5-0.5-0.9-0.4-1.6c0.1-0.5,0.4-0.7,0.7-0.7 l-3-4.4l-1.6,5.3L31,52.9z" class="st5"/></g></g><g><g><path d="M50.2,50.3l0.2,1.9l0.9,0.5l0.4-2.6l3,0.7c0.4-0.1,0.9-0.1,1.4-0.1l-0.6-1.8L50.2,50.3z" class="st5"/></g></g><g><g><polygon points="47 44.2 48.5 42 44.4 40.7 42.8 42.3" class="st5"/></g></g><g><g><polygon points="49.5 69.1 50.1 69 49.8 67.4 48.2 68.1" class="st5"/></g></g><g><g><path d="M43,44.6l3.3,4.6l0.1,2.1c1-0.1,0.7,0.9,1.3,1.1c0.1,0,0.1,0,0.2,0.1l-1-7.6l-4.3-2.1L43,44.6 L43,44.6z" class="st5"/></g></g><g><g><path d="M66.2,55.4L66.1,51l-2.8,1.6l1,4.7c0,0,0,0,0,0L66.2,55.4z" class="st5"/></g></g><g><g><polygon points="73.1 39.9 71 38.3 66.7 40.5 68.7 42.7" class="st5"/></g></g><g><g><polygon points="69 52.8 69.7 53.1 70.9 47.1 73 46.6 73.4 40.4 68.9 43.5" class="st5"/></g></g><g><g><polygon points="56.8 43.8 55.4 45.6 59.7 47.1 60.9 44.9" class="st5"/></g></g><g><g><path d="M55.2,46.1l1.5,4.6c0.4,0,0.8-0.2,1.1-0.5c1-1,1.7-1,2.2-0.7l-0.4-1.6L55.2,46.1z" class="st5"/></g></g><g><g><path d="M61.3,54.9c-0.2,0.3-0.4,0.4-0.7,0.5l0.6,1.7c0.2-0.1,0.3-0.3,0.6-0.3L61.3,54.9z" class="st5"/></g></g><g><g><path d="M22.2,56.8c-0.8-1.3,0.1-1.3,0.8-1.5c0.3-0.1,0.6-0.1,1,0l0.3-3.7l-3.6-0.1l-0.8,6.8l2.3-0.4 C22.2,57.7,22.5,57.3,22.2,56.8z" class="st5"/></g></g><g><g><polygon points="47.1 68.2 47.2 71.8 49.4 73 51.1 71.2" class="st5"/></g></g><g><g><path d="M25.3,56.1c1.1,0.7,0.7,1,0.6,1.7c-0.1,0.6,0.6,0.9,0.7,1.5l2.8,1.7L29,58.4l2.5-1.7L25,51.9 l-0.3,3.9C24.9,55.9,25.1,56,25.3,56.1z" class="st5"/></g></g><g><g><polygon points="36.3 48.7 39.5 51.9 45.1 48.9 42.7 45.7" class="st5"/></g></g><g><g><path d="M46.6,76l-0.4-10.5l-2.6-1l0.8-4.5c-0.3,0.1-0.5,0.2-0.9,0.2c-0.9,0-2-1-2-2c0-1,0.8-1.5,0.8-1.9 c0-0.4-0.6-0.9-0.5-1.5c0.2-1.3,1.6-0.3,2-0.9c0.7-0.9,1.3-0.2,2,0.4l-0.2-4.6l-5.7,3l4.5,31.7l2.6,0.2l-0.3-7.9l-0.3-0.3 L46.6,76z" class="st5"/></g></g><g><g><polygon points="35.2 55.1 29.9 58.6 32.7 61.1 37.2 57.7" class="st5"/></g></g><g><g><polygon points="37.6 58.3 33 61.7 37.8 89.9 39.9 89.7" class="st5"/></g></g><g><g><polygon points="71.7 47.6 73.4 51 78.8 49.6 77.9 46.4" class="st5"/></g></g><g><g><polygon points="67.3 76 67.8 73.9 66.5 73.4" class="st5"/></g></g><g><g><polygon points="70.3 53.4 72.1 54.3 72.7 51.3 71.3 48.5" class="st5"/></g></g><g><g><path d="M68.9,64.4l-1,0.8l-0.1,0.6l1.5,0.8l0.6-2.6C69.6,64.2,69.3,64.3,68.9,64.4z" class="st5"/></g></g><g><g><path d="M74,58.7l-0.2-1.6c-0.5-0.6-1.5-1-1.4-1.9l-3.3-1.6L68.9,57L74,58.7z" class="st5"/></g></g><g><g><polygon points="58.8 72.1 57.9 70.1 56.7 69.6 48.6 77.8 50 79.4" class="st5"/></g></g><g><g><path d="M65.9,64.8l0.9,0.5l0.8-0.7C67.1,64.7,66.5,64.8,65.9,64.8z" class="st5"/></g></g><g><g><path d="M67.1,59.9c0.9,0.3,2.9,0.5,3.5,2.2l3.2-2.7l-5.4-1.7l-1.9,1.9C66.8,59.8,67,59.8,67.1,59.9z" class="st5"/></g></g><g><g><g><path d="M49.8,46.7l0.3,2.9l0.6-0.2c0,0,0-0.1,0-0.1c0.1-0.8,0.6-1.3,0.9-1.7c-0.2-0.1-0.3-0.2-0.5-0.3 C50.8,47,50.3,46.8,49.8,46.7z" class="st6"/></g></g><g><g><path d="M79.2,52.2c-0.1,0-0.2,0-0.3,0.1l-0.1,0.4c0.4,0.2,0.8,0.6,1.1,0.9c0.6,0.5,0.8,1.1,0.7,1.9l4.2,0 l0.2,2.4l1.7-1.8c-0.7-0.7-1.3-1.4-2.2-1.8c-0.2-0.1-0.4-0.2-0.6-0.2c-0.1,0-0.2,0-0.3-0.1c-0.5-0.1-0.9-0.3-1.3-0.5 c-0.5-0.3-0.9-0.6-1.4-0.9C80.5,52.3,79.9,52.1,79.2,52.2z" class="st6"/></g></g><g><g><path d="M62.1,46.8l1.1,5l1.1-0.7c0-0.1,0-0.1,0-0.2c-0.2-0.4-0.9-0.5-0.6-1.2c0.3-0.7,1.2-0.2,1.6-0.6 c0.4-0.4,0.7-0.5,0.9-0.3L66,46.4c-0.4,0-0.9,0-1.3,0c-0.4,0-0.8,0-1.2,0c-0.1,0-0.2,0-0.3,0c-0.2,0-0.5,0.1-0.8,0.2 C62.3,46.7,62.2,46.8,62.1,46.8z" class="st6"/></g></g><g><g><path d="M46.5,53.8l0,0.9c0.2,0.1,0.5,0,0.7-0.2c1.6-1.3,2.5,0.3,2.6,1.2c0,0.1,0,0.3,0,0.4l2.4,1.3L51,54.7 l0.3-1.7c-0.4,0-0.9,0-1.4,0c-0.5,0-0.9,0.1-1.4,0.1c-0.2,0-0.4,0.1-0.5,0.1C47.6,53.4,47,53.6,46.5,53.8z" class="st6"/></g></g><g><g><path d="M32.2,56.3l3.2-2.1l0.9,1.2l-0.5-3c-0.6,0-1.2,0-1.8,0.2c-1.1,0.3-1.9,1.1-2.6,1.9 c-0.2,0.3-0.4,0.5-0.7,0.8L32.2,56.3z" class="st6"/></g></g><g><g><path d="M62.7,56.6c-0.2,0-0.3,0-0.5,0c-0.2,0-0.4,0.1-0.5,0.1c-0.2,0.1-0.4,0.2-0.6,0.3l2,6.3l2.7,1.5 c0.6,0,1.2-0.1,1.7-0.2c0.5-0.1,0.9-0.1,1.3-0.2c0.4-0.1,0.7-0.2,1-0.3c0.5-0.2,0.8-0.5,0.8-0.9c0-0.4,0-0.8-0.1-1.1 c-0.5-1.8-2.6-2-3.5-2.2c-0.2-0.1-0.4-0.1-0.5-0.2c-0.2-0.1-0.4-0.3-0.6-0.4c-0.5-0.4-0.8-1-1.2-1.4 c-0.1-0.2-0.3-0.4-0.5-0.5c0,0,0,0,0,0c-0.2-0.2-0.4-0.3-0.6-0.4C63.4,56.7,63.1,56.6,62.7,56.6z" class="st6"/></g></g></g><g><g><polygon points="84.2 56.2 77.4 56.2 78.6 60.2 84.6 59.9" class="st5"/></g></g><g><g><polygon points="76.9 57.1 72.3 68.3 74 69.2 77.8 60.4" class="st5"/></g></g><g><g><polygon points="65.2 85.9 64.3 88.1 65.6 88.9 67.2 85.3" class="st5"/></g></g><g><g><polygon points="71.4 75.4 69.7 74.7 68.2 78.6 69 81.1" class="st5"/></g></g><g><g><polygon points="51.8 54.2 57.4 55.7 58.6 52.4 52.3 51" class="st5"/></g></g><g><g><polygon points="59.1 53.3 58.1 56.1 60 61.7 62.3 62.9" class="st5"/></g></g><g><g><polygon points="65.6 73.1 63.7 72.4 67.9 84.3 69.2 83.9" class="st5"/></g></g><g><g><polygon points="44.5 63.7 48.1 62.6 48.5 56.9 45.4 58.4" class="st5"/></g></g><g><g><g><path d="M64.3,40.6l-5.7,1.1l-0.4,1.8l3.3,0.8l0.5,2.4c0.1,0,0.2-0.1,0.3-0.1L64.3,40.6z" class="st7"/></g></g><g><g><polygon points="53.6 68.4 52.9 68.1 52.6 69.6 53.7 68.5" class="st7"/></g></g><g><g><path d="M49.8,46.7c0.5,0.1,1,0.3,1.4,0.6c0.2,0.1,0.3,0.2,0.5,0.3c0.1-0.1,0.2-0.2,0.2-0.4 c0.1-0.5-0.5-0.9-0.4-1.6c0.1-0.3,0.2-0.5,0.4-0.6l-2.4-6.9l-5.7-1.4l1.7,3.7l3.8,1.2L49.8,46.7z" class="st7"/></g></g><g><g><path d="M79.7,50.1l-0.5,1.7l0.1,0.4c0.7-0.1,1.2,0.1,1.8,0.4l-3.4-12.7l-2.4-1.8l2.2,7.7l1-0.2L79.7,50.1z" class="st7"/></g></g><g><g><polygon points="80.7 74.3 81 73.7 80.4 74.1" class="st7"/></g></g><g><g><path d="M86.9,56.1l1.2-1.3c0-0.2,0-0.5,0-0.7c-0.3-0.7-1.5-1-1-2.1c0.5-1.1,1.9-0.2,2.6-1 c0.3-0.3,0.6-0.5,0.8-0.6l2.1-5.2L87,46.4l-2.4,7.8C85.6,54.6,86.2,55.3,86.9,56.1z" class="st7"/></g></g><g><g><polygon points="99.4 57.2 95.7 57.4 79.5 71.4 77.1 75.9" class="st7"/></g></g><g><g><path d="M33.9,47.9c0.2-0.2,0.4-0.4,0.5-0.4l1.7-5.5l-0.9-2.2l-2.3,7.9l0.3,0.4 C33.4,48.1,33.7,48.1,33.9,47.9z" class="st7"/></g></g><g><g><polygon points="28.1 64.3 27.9 64.8 29 65 29 64.9" class="st7"/></g></g><g><g><path d="M30.7,55.2c0.2-0.3,0.4-0.5,0.7-0.8l-4.1-5.2l-2.7-0.5l4.1,4.9L30.7,55.2z" class="st7"/></g></g><g><g><polygon points="57.1 74.3 59.5 80.2 61.9 80.4 59 72.7" class="st7"/></g></g><g><g><polygon points="50.6 69 51.7 68.9 51.6 67.6 50.4 67.1 50.4 67.2" class="st7"/></g></g><g><g><path d="M49.9,53l-1.2-10.4l-1.3,2.1l1.1,8.4C49,53.1,49.4,53.1,49.9,53z" class="st7"/></g></g><g><g><polygon points="47 66.1 47 66.7 47.8 67.4 49.4 66.7 47.3 65.9" class="st7"/></g></g><g><g><polygon points="66.8 54.7 68.4 53.1 68.3 43.4 66.5 41.3" class="st7"/></g></g><g><g><path d="M60.7,49.9c0.2,0.2,0.4,0.3,0.6,0.5c1,0.8,0.9,1.7,0.5,3.5c0,0.1,0,0.1-0.1,0.2l0.6,2.6 c0.2,0,0.3,0,0.5,0c0.4,0,0.7,0.1,0.9,0.2l-2.4-11.3l-1.1,2.2L60.7,49.9z" class="st7"/></g></g><g><g><polygon points="47.3 72.7 47.3 74.6 47.7 74.8 48.8 73.6" class="st7"/></g></g><g><g><path d="M30.1,64.7L29.6,62l-4.6-2.7c-0.2-0.1-0.3-0.1-0.5-0.2c-0.7-0.1-1.3,0.6-2.2-0.2 c-0.1,0-0.1-0.1-0.1-0.1l-1.7,0.3L30.1,64.7z" class="st7"/></g></g><g><g><polygon points="39 52.4 36.2 49.8 37.3 56.7 38.2 57.9 38.9 66.2 41.8 84.2 43.5 84.3" class="st7"/></g></g><g><g><polygon points="32.3 61.7 29.9 59.6 35.7 90 37.1 89.9" class="st7"/></g></g><g><g><polygon points="67.7 77.3 67.8 77.5 69 74.4 68.4 74.2" class="st7"/></g></g><g><g><path d="M73.4,51.7l-0.6,2.8c0.9-1.3,2.8-0.2,3.8-1.2c0.7-0.7,1.2-0.9,1.6-0.9l0.7-2.1L73.4,51.7z" class="st7"/></g></g><g><g><path d="M70.9,62.8L70,67.1l1.7,0.9l3-7.5c-0.3,0-0.5-0.1-0.6-0.4L70.9,62.8z" class="st7"/></g></g><g><g><path d="M66.1,59.3l2.1-2.1l0.3-3.1l-3.6,3.8C65.2,58.3,65.6,58.8,66.1,59.3z" class="st7"/></g></g><g><g><polygon points="56.1 69.3 54.4 68.7 47.3 76.2 48.2 77.3" class="st7"/></g></g><g><g><polygon points="84.5 60.6 78.4 60.9 74.7 69.6 78.4 71.6 75.1 76.8 72.1 75.6 69.3 82.2 70 84.4 68.1 85 66.3 89.3 68.4 90.4" class="st7"/></g></g><g><g><polygon points="57.5 56.4 51.8 54.9 53.2 58 59.2 61.2" class="st7"/></g></g><g><g><polygon points="67.2 84.5 62.9 72 58.7 70.4 65.3 85.1" class="st7"/></g></g><g><g><polygon points="74.8 75.9 75.6 74.5 48.5 63.3 45.1 64.2" class="st7"/></g></g><g><g><polygon points="49.2 56.7 49 62.7 76.1 73.9 77.4 71.9" class="st7"/></g></g></g></g><g><g><g><path d="M80.1,63.3c-7.9-0.1-17-0.2-21.9-0.2H58c-4.9,0-14,0.1-21.9,0.2c-6.9,0.1-14,0.3-14.9,0.6 c-0.1,0.1-0.4,0.7,0,3.2h0.1c0.5,0,0.9,0.4,1,0.9l5.6,32.8c0.1,0.5,0.5,0.9,1,0.9h58.3c0.5,0,0.9-0.4,1-0.9L93.9,68 c0.1-0.5,0.5-0.9,1-0.9H95c0.5-2.5,0.1-3.1,0-3.2C94.1,63.6,86.9,63.4,80.1,63.3z" class="st8"/></g><g><path d="M87.2,103.8H28.9c-1.6,0-2.9-1.1-3.1-2.7l-5.5-31.8h-0.9L19,67.5c-0.5-2.5-0.3-4,0.4-4.9l0.4-0.5 l0.6-0.2c0.9-0.3,3.6-0.5,15.6-0.7c8-0.1,17.1-0.2,22-0.2h0.2c4.9,0,14,0.1,22,0.2h0c12,0.2,14.7,0.4,15.6,0.7l0.6,0.2 l0.4,0.5c0.8,0.9,0.9,2.4,0.4,4.9l-0.3,1.8h-0.9l-5.5,31.8C90.1,102.7,88.8,103.8,87.2,103.8z M29.9,99.5h56.4l5.5-31.8 c0.1-0.7,0.5-1.3,0.9-1.8c-3.3-0.2-10.1-0.3-12.7-0.4c-8-0.1-17-0.2-21.9-0.2H58c-4.9,0-13.9,0.1-21.9,0.2 c-2.6,0-9.3,0.2-12.7,0.4c0.5,0.5,0.8,1.1,0.9,1.8L29.9,99.5z M23.1,64.8L23.1,64.8L23.1,64.8z M93,64.8L93,64.8L93,64.8z" class="st2"/></g></g></g><g><g><g><path d="M80.1,63.3c-7.9-0.1-17-0.2-21.9-0.2H58c-4.9,0-14,0.1-21.9,0.2c-6.9,0.1-14,0.3-14.9,0.6 c-0.1,0.1-0.4,0.7,0,3.2h0.1c0.5,0,0.9,0.4,1,0.9l5.6,32.8c0.1,0.5,0.5,0.9,1,0.9h58.3c0.5,0,0.9-0.4,1-0.9L93.9,68 c0.1-0.5,0.5-0.9,1-0.9H95c0.5-2.5,0.1-3.1,0-3.2C94.1,63.6,86.9,63.4,80.1,63.3z" class="st0"/></g></g></g><g class="st9"><g><path d="M58.4,66.9L58.4,66.9c-0.1,0-0.2,0-0.4,0c-0.1,0-0.2,0-0.4,0v0c-12.6,0-24.8,0.3-33.3,0.7 c0,0,3.5,22,12.1,25.4c4.1,1.6,12.9,2.3,21.6,2.2c8.7,0.1,17.5-0.6,21.6-2.2c8.5-3.4,12.1-25.4,12.1-25.4 C83.3,67.2,71,67,58.4,66.9z" class="st0"/></g></g><g><g><g><g><g><path d="M41.3,74.3c1.1,0.3,2.3,1.4,3.7,1.4c0.3,0,0.6,0,0.9-0.2c-0.1,1.1-0.5,1.7-1.1,1.7c-1.6,0-2.9-2.5-4.8-2.5 c-0.1,0-0.2,0-0.2,0l1.6-7.6c-0.9,0.4-1.5,1.2-1.5,2.4c0,0.6,0.1,0.6,0.2,0.7c-0.7,0-1.2-0.3-1.2-1.1 c0-1.5,2-2.9,3.8-2.9c0.2,0,0.3,0,0.4,0L41.3,74.3z"/></g><g><path d="M44.7,79c-1.3,0-2.3-0.8-3.2-1.5c-0.6-0.5-1.2-1-1.6-1c0,0,0,0-0.1,0c-0.5,0.1-1.1-0.1-1.5-0.5 c-0.4-0.4-0.5-1-0.4-1.5l0.6-2.7c-1-0.4-1.5-1.3-1.5-2.5c0-1.2,0.7-2.5,1.9-3.4c1.1-0.8,2.4-1.2,3.6-1.2 c0.2,0,0.4,0,0.5,0l0,0c0.5,0,0.9,0.3,1.2,0.7c0.3,0.4,0.4,0.9,0.3,1.4l-1.4,6.5c0.1,0.1,0.2,0.1,0.3,0.2 c0.5,0.3,1,0.6,1.4,0.6c0.1,0,0.2,0,0.3,0c0.6-0.2,1.2-0.2,1.7,0.2c0.5,0.4,0.7,1,0.7,1.6C47.3,78.1,45.9,79,44.7,79z" class="st2"/></g></g><g><g><path d="M48,69l-0.8,3.7c0,0.1,0,0.3,0,0.4c0,0.3,0.1,0.4,0.4,0.4c0.1,0,0.2,0,0.2,0c-0.3,0.8-0.5,1.1-1.1,1.1 c-0.6,0-1-0.4-1.1-1c-0.3,0.5-0.8,1-1.6,1c-0.7,0-1.4-0.5-1.4-1.8c0-1.5,0.9-3.8,2.8-3.8c0.6,0,0.9,0.2,0.9,0.6v0.1 l0.1-0.6H48z M44.2,72.7c0,0.8,0.3,0.9,0.5,0.9c0.3,0,0.8-0.3,0.9-1l0.5-2.5c0-0.1-0.1-0.4-0.4-0.4 C44.8,69.7,44.2,71.6,44.2,72.7z"/></g><g><path d="M46.7,76.3c-0.5,0-0.9-0.1-1.3-0.3c-0.4,0.2-0.9,0.3-1.4,0.3c-2.2,0-3.2-1.8-3.2-3.5 c0-2.2,1.4-5.6,4.5-5.6c0.3,0,0.5,0,0.7,0.1c0.1,0,0.2,0,0.3,0H48c0.5,0,1,0.2,1.3,0.6c0.3,0.4,0.5,0.9,0.3,1.4L49,72.3 c0.5,0.5,0.6,1.2,0.4,1.8C49.2,74.8,48.6,76.3,46.7,76.3z" class="st2"/></g></g></g><g><g><path d="M30.6,72.5l-1.9,9.1c2.7-0.2,4.7-3.8,4.7-6.7c0-2-1-3.7-3.4-3.7c-4.4,0-7,2.5-7,6.6c0,1.4,0.4,1.6,0.4,1.9 c-1.9,0-2.9-0.7-2.9-2.7c0-3.6,5-7.1,9.5-7.1c4.4,0,6.4,2.6,6.4,5.4c0,3.5-3,7.3-7.8,7.3h-0.1l-1.7,7.8h-3.9L26.6,73 L30.6,72.5z"/></g><g><path d="M26.8,92.1h-3.9c-0.5,0-1-0.2-1.3-0.6s-0.5-0.9-0.3-1.4l1.8-8.7c-3.7-0.2-4.3-2.8-4.3-4.4 c0-2.3,1.4-4.6,3.8-6.3c2.2-1.6,4.9-2.5,7.5-2.5c2.5,0,4.6,0.7,6,2.1c1.3,1.3,2.1,3,2.1,5c0,4-3.1,8.3-8.3,9l-1.4,6.5 C28.3,91.5,27.6,92.1,26.8,92.1z M25,88.7h0.4l1.4-6.4c0-0.2,0.1-0.3,0.2-0.5c0-0.2,0-0.3,0-0.5l1.4-6.7L28,74.6L25,88.7 z" class="st2"/></g></g><g><g><g><path d="M43.8,81.3c0.1,0.1,0.2,0.1,0.3,0.1c1.2,0,2.9-0.8,4-1.6l0.2,0.7c-1,1.1-2.7,1.8-4.6,2.2 c-0.4,4.8-3,7.8-6.2,7.8c-2.4,0-4.1-1.1-4.1-4.1c0-3,1.8-9.2,7.1-9.2C42.8,77.1,43.8,78.6,43.8,81.3z M41.6,82.7 c-0.5-0.1-0.7-0.6-0.7-1.1c0-0.7,0.3-1.2,0.8-1.4c-0.1-1.1-0.3-1.5-1-1.5c-1.8,0-3.4,4.8-3.4,7.3c0,1.7,0.3,2.1,1.3,2.1 C39.9,88.1,41.2,85.8,41.6,82.7z"/></g><g><path d="M37.6,92.2c-3.7,0-5.8-2.2-5.8-5.8c0-1.7,0.5-4.3,1.8-6.6c1.6-2.8,4.1-4.4,7-4.4 c1.3,0,4.1,0.4,4.8,3.9c0.6-0.2,1.2-0.6,1.7-0.9c0.4-0.3,1-0.4,1.5-0.2c0.5,0.2,0.9,0.6,1.1,1.1L50,80 c0.2,0.6,0.1,1.2-0.4,1.7c-1,1.1-2.5,1.9-4.3,2.4c-0.4,2.1-1.1,4-2.3,5.4C41.6,91.2,39.7,92.2,37.6,92.2z M36.5,81.6 c-1,1.8-1.2,3.9-1.2,4.8c0,1.1,0.3,1.7,0.9,2.1c-0.5-0.9-0.5-1.9-0.5-2.4C35.6,84.8,35.9,83.1,36.5,81.6z M39.6,83.1 c-0.2,0.8-0.4,1.6-0.5,2.4c0.3-0.5,0.5-1.2,0.7-2.1C39.7,83.4,39.6,83.2,39.6,83.1z" class="st2"/></g></g><g><g><path d="M57,77.4l-1.9,8.8c-0.1,0.3-0.1,0.6-0.1,0.8c0,0.7,0.3,1,1.1,1c1,0,1.7-1,2.1-2.3h1.1c-1.5,4.2-3.8,4.8-5.2,4.8 c-1.5,0-2.4-0.9-2.6-2.5c-1.3,2.1-2.7,2.5-3.8,2.5c-1.5,0-2.8-0.9-2.8-3.1c0-0.5,0.1-1.1,0.2-1.7l1.8-8.3h3.7l-1.9,8.8 c-0.1,0.3-0.1,0.5-0.1,0.7c0,0.6,0.2,1.1,0.8,1.1c1,0,1.7-1,2.1-2.3l1.8-8.3H57z"/></g><g><path d="M54.1,92.2c-1.2,0-2.2-0.4-3-1.1c-1,0.7-2.1,1.1-3.4,1.1c-2.7,0-4.5-1.9-4.5-4.8 c0-0.6,0.1-1.3,0.2-2l1.8-8.3c0.2-0.8,0.9-1.4,1.7-1.4h3.7c0.5,0,1,0.2,1.3,0.6c0.3-0.4,0.8-0.6,1.3-0.6H57 c0.5,0,1,0.2,1.3,0.6c0.3,0.4,0.5,0.9,0.3,1.4l-1.4,6.5c0.3-0.2,0.6-0.2,0.9-0.2h1.1c0.6,0,1.1,0.3,1.4,0.7 c0.3,0.5,0.4,1,0.2,1.6C59.2,91.2,56.2,92.2,54.1,92.2z M48.3,79.1l-1.5,7c-0.1,0.5-0.2,1-0.2,1.3 c0,1.2,0.5,1.4,0.9,1.4c-0.4-0.4-0.6-1.1-0.6-1.9c0-0.3,0-0.7,0.1-1.1c0,0,0,0,0,0l1.4-6.8H48.3z M52.9,87 c0.2,0.2,0.3,0.6,0.3,0.9c0.1,0.8,0.3,0.9,0.7,0.9c-0.4-0.5-0.6-1.1-0.6-1.8c0-0.4,0-0.8,0.1-1.2l1.4-6.8h-0.2l-1.5,7 c0,0,0,0.1,0,0.1C53.1,86.5,53,86.8,52.9,87z M56.7,87.1L56.7,87.1L56.7,87.1z" class="st2"/></g></g><g><g><path d="M64.5,73.3l-0.9,4.1h1.5l-0.2,1h-1.5l-1.6,7.8c-0.1,0.3-0.1,0.6-0.1,0.8c0,0.7,0.3,1,1.1,1c1,0,1.9-1,2.3-2.3 h1.1c-1.5,4.2-4,4.8-5.4,4.8c-1.5,0-2.8-0.9-2.8-3.1c0-0.5,0.1-1.1,0.2-1.7l1.5-7.3h-0.9l0.2-1h0.9l0.8-3.6L64.5,73.3z"/></g><g><path d="M60.7,92.2c-2.7,0-4.5-1.9-4.5-4.8c0-0.6,0.1-1.3,0.2-2l1.2-5.7c-0.1-0.1-0.1-0.1-0.2-0.2 c-0.3-0.4-0.5-0.9-0.4-1.4l0.2-1c0.1-0.6,0.6-1.1,1.1-1.3l0.5-2.3c0.2-0.7,0.7-1.2,1.4-1.3l3.8-0.5 c0.6-0.1,1.1,0.1,1.5,0.5c0.4,0.4,0.5,1,0.4,1.5l-0.5,2.1c0.3,0.1,0.6,0.3,0.8,0.5c0.3,0.4,0.5,0.9,0.4,1.4l-0.2,1 c-0.2,0.8-0.9,1.4-1.7,1.4h-0.2l-0.9,4.3c0.3-0.3,0.7-0.4,1.1-0.4h1.1c0.6,0,1.1,0.3,1.4,0.7c0.3,0.5,0.4,1,0.2,1.6 C66,91.5,62.6,92.2,60.7,92.2z M61.4,78.2c0,0.2,0,0.4,0,0.6l-1.5,7.3c-0.1,0.5-0.2,1-0.2,1.3c0,1.2,0.5,1.4,0.8,1.4 c-0.4-0.5-0.6-1.1-0.6-1.8c0-0.4,0-0.8,0.1-1.2l1.6-7.8c0-0.2,0.1-0.3,0.2-0.5c0-0.2,0-0.4,0-0.6l0.4-1.7l-0.2,0 l-0.5,2.4C61.6,77.9,61.5,78.1,61.4,78.2z" class="st2"/></g></g><g><g><path d="M70.5,77.4l-1.9,8.8c-0.1,0.3-0.1,0.6-0.1,0.8c0,0.7,0.3,1,1.1,1c1,0,1.9-1,2.3-2.3H73c-1.5,4.2-4,4.8-5.4,4.8 c-1.5,0-2.8-0.9-2.8-3.1c0-0.5,0.1-1.1,0.2-1.7l1.8-8.3H70.5z M69.3,71.8c1.1,0,2.1,0.9,2.1,2.1c0,1.1-0.9,2.1-2.1,2.1 c-1.1,0-2-0.9-2-2.1C67.3,72.8,68.2,71.8,69.3,71.8z"/></g><g><path d="M67.6,92.2c-2.7,0-4.5-1.9-4.5-4.8c0-0.6,0.1-1.3,0.2-2l1.8-8.3c0.1-0.6,0.5-1,1-1.2 c-0.3-0.6-0.5-1.2-0.5-1.9c0-2.1,1.7-3.8,3.7-3.8c2.1,0,3.8,1.7,3.8,3.8c0,1-0.4,2-1.1,2.7c0.2,0.4,0.2,0.8,0.2,1.2 l-1.4,6.7c0.3-0.3,0.7-0.4,1.1-0.4H73c0.6,0,1.1,0.3,1.4,0.7c0.3,0.5,0.4,1,0.2,1.6C72.8,91.5,69.4,92.2,67.6,92.2z M68.2,79.1l-1.5,7c-0.1,0.5-0.2,1-0.2,1.3c0,1.2,0.5,1.4,0.8,1.4c-0.4-0.5-0.6-1.1-0.6-1.8c0-0.4,0-0.8,0.1-1.2 l1.4-6.8H68.2z M70.3,87.1L70.3,87.1L70.3,87.1z M69.3,73.6c-0.2,0-0.3,0.2-0.3,0.4c0,0.2,0.1,0.3,0.3,0.3 c0.2,0,0.3-0.1,0.3-0.3C69.7,73.7,69.5,73.6,69.3,73.6z" class="st2"/></g></g><g><g><path d="M78.4,79.6c-0.9,0-1.6,1.1-2,2.4l-1.8,8.3h-3.7l2.7-13h3.7l-0.3,1.4c1.1-1.2,2.2-1.5,3-1.5 c1.6,0,2.9,0.9,2.9,2.9c0,2.1-1.2,5.3-1.2,6.7c0,0.7,0.3,1.1,1,1.1c1.1,0,1.6-0.9,2.2-2.3H86c-1.4,4.3-3.4,4.8-4.8,4.8 c-2.2,0-3-1.5-3-2.9c0-1.8,1.2-5,1.2-6.6C79.3,80.1,79,79.6,78.4,79.6z"/></g><g><path d="M81.2,92.2c-2.3,0-4-1.2-4.5-3.1l-0.3,1.6c-0.2,0.8-0.9,1.4-1.7,1.4h-3.7c-0.5,0-1-0.2-1.3-0.6 c-0.3-0.4-0.5-0.9-0.3-1.4L72,77c0.2-0.8,0.9-1.4,1.7-1.4h3.7c0.3,0,0.6,0.1,0.8,0.2c0.6-0.2,1.2-0.3,1.9-0.3 c2.8,0,4.6,1.8,4.6,4.7c0,1.3-0.3,2.7-0.7,4.1c0.3-0.2,0.6-0.3,0.9-0.3H86c0.6,0,1.1,0.3,1.4,0.7c0.3,0.4,0.4,1,0.2,1.5 C86.3,90.2,84.1,92.2,81.2,92.2z M80.1,86.3c-0.1,0.5-0.2,1-0.2,1.3c0,0.7,0.3,1,0.7,1.2c-0.4-0.5-0.6-1.1-0.6-1.8 C80,86.7,80,86.5,80.1,86.3z M73.1,88.7h0.2l1.5-7c0,0,0-0.1,0-0.1c0.2-0.8,0.5-1.4,0.9-1.9c-0.1-0.2-0.2-0.3-0.2-0.5 h-0.4L73.1,88.7z M83.5,87C83.5,87,83.5,87,83.5,87C83.5,87,83.5,87,83.5,87z M80.5,79c0.3,0.5,0.5,1.1,0.5,1.9 c0,0.5-0.1,1.1-0.2,1.8c0.2-0.9,0.4-1.8,0.4-2.5C81.3,79.4,81.1,79.1,80.5,79z M77.6,80.8L77.6,80.8z" class="st2"/></g></g><g><g><path d="M90,88.1c1,0,2.2-0.6,3-1.4c-0.5,3-2.4,3.8-4.5,3.8c-2.4,0-4-1.2-4-4.1c0-3,1.7-9.3,7-9.3 c2.3,0,2.8,1.2,2.8,2.5c0,3-2.8,5.3-5.9,5.5c0,0.3-0.1,0.5-0.1,0.8C88.4,87.5,89.1,88.1,90,88.1z M91.7,78.5 c-1.3,0-2.6,2.9-3.1,5.4c2-0.1,3.8-2.1,3.8-4.3C92.4,78.9,92.2,78.5,91.7,78.5z"/></g><g><path d="M88.6,92.2c-3.6,0-5.7-2.2-5.7-5.8c0-4.6,2.7-11,8.7-11c2.8,0,4.5,1.6,4.5,4.2c0,2.1-1,4-2.7,5.4 c0.2,0,0.3,0.1,0.5,0.2c0.6,0.4,1,1.1,0.8,1.8C94.1,90.4,91.9,92.2,88.6,92.2z M87.4,81.8c-0.8,1.5-1.1,3.4-1.1,4.6 c0,1.3,0.4,2,1.2,2.3c-0.5-0.6-0.9-1.5-0.9-2.8c0-0.3,0-0.7,0.1-0.9c0-0.2,0.1-0.5,0.2-0.7c-0.1-0.2-0.1-0.5,0-0.8 C87,83.2,87.2,82.5,87.4,81.8z" class="st2"/></g></g></g><g><g><g><path d="M67.5,98l2.3-6.7h1.4V98l2.3-6.7h0.8l-3,8.2h-1.6v-5.6l-2.2,5.6H66V92c-1.2,0.4-1.8,1.2-1.8,2.4 c0,0.6,0.1,0.6,0.2,0.7c-0.7,0-1.2-0.3-1.2-1.1c0-1.5,2-2.9,3.8-2.9c0.2,0,0.3,0,0.4,0L67.5,98z"/></g><g><path d="M71.3,101.2h-1.6c-0.4,0-0.8-0.1-1.1-0.4c-0.3,0.2-0.7,0.4-1.1,0.4H66c-0.9,0-1.7-0.8-1.7-1.7v-2.6 c-1.7,0-2.8-1.1-2.8-2.8c0-1.2,0.7-2.5,1.9-3.4c1.1-0.8,2.4-1.2,3.6-1.2c0.2,0,0.4,0,0.5,0c0.4,0,0.8,0.2,1.1,0.5 c0.3-0.3,0.7-0.5,1.2-0.5h1.4c0.5,0,0.9,0.2,1.2,0.5c0.3-0.3,0.7-0.5,1.2-0.5h0.8c0.6,0,1.1,0.3,1.4,0.7 c0.3,0.5,0.4,1,0.2,1.6l-3,8.2C72.7,100.7,72,101.2,71.3,101.2z" class="st2"/></g></g><g><g><path d="M75.2,98.6c0.9,0,1.4-0.5,1.9-1.1h0.4c-0.6,1-1.5,2-3,2c-1,0-1.7-0.5-1.7-1.7c0-1.3,0.7-3.9,2.9-3.9 c1,0,1.2,0.5,1.2,1.1c0,1.3-1.2,2.2-2.5,2.3c0,0.2,0,0.3,0,0.4C74.4,98.4,74.7,98.6,75.2,98.6z M75.8,94.5 c-0.6,0-1.1,1.2-1.3,2.3c0.8-0.1,1.6-0.9,1.6-1.8C76.1,94.6,76,94.5,75.8,94.5z"/></g><g><path d="M74.5,101.2c-2.1,0-3.4-1.4-3.4-3.5c0-2.3,1.4-5.6,4.6-5.6c1.7,0,2.9,1.1,2.9,2.8 c0,0.4-0.1,0.8-0.2,1.2c0.2,0.1,0.4,0.3,0.5,0.6c0.3,0.5,0.3,1.2,0,1.7C77.8,100.3,76.3,101.2,74.5,101.2z" class="st2"/></g></g><g><g><path d="M79.4,98.6c0.9,0,1.4-0.5,1.9-1.1h0.4c-0.6,1-1.5,2-3,2c-1,0-1.7-0.5-1.7-1.7c0-1.3,0.7-3.9,2.9-3.9 c1,0,1.2,0.5,1.2,1.1c0,1.3-1.2,2.2-2.5,2.3c0,0.2,0,0.3,0,0.4C78.6,98.4,78.8,98.6,79.4,98.6z M80,94.5 c-0.6,0-1.1,1.2-1.3,2.3c0.8-0.1,1.6-0.9,1.6-1.8C80.3,94.6,80.2,94.5,80,94.5z"/></g><g><path d="M78.7,101.2c-2.1,0-3.4-1.4-3.4-3.5c0-2.3,1.4-5.6,4.6-5.6c1.7,0,2.9,1.1,2.9,2.8 c0,0.4-0.1,0.8-0.2,1.2c0.2,0.1,0.4,0.3,0.5,0.6c0.3,0.5,0.3,1.2,0,1.7C82,100.3,80.5,101.2,78.7,101.2z" class="st2"/></g></g><g><g><path d="M86.4,94l-2.2,1.5c0.1,0,0.2,0,0.4,0c0.8,0,1.2,0.6,1.2,1.3c0,0.1,0,0.3,0,0.4l-0.1,0.5c0,0.1-0.1,0.2-0.1,0.4 c0,0.2,0.1,0.4,0.4,0.4c0.3,0,0.3,0,0.4-0.1c-0.1,0.8-0.7,1.1-1,1.1c-0.9,0-1.4-0.4-1.4-1.2c0-0.2,0-0.4,0.1-0.6 l0.1-0.4c0-0.1,0-0.3,0-0.4c0-0.3-0.1-0.5-0.4-0.5c-0.3,0-0.5,0.2-0.8,0.4l-0.6,2.7h-1.6l1.6-7.5l1.6-0.2l-0.8,3.9 l2.1-1.7H86.4z"/></g><g><path d="M85.4,101.2c-0.7,0-1.3-0.2-1.8-0.5c-0.3,0.3-0.7,0.4-1.1,0.4h-1.6c-0.5,0-1-0.2-1.3-0.6 c-0.3-0.4-0.5-0.9-0.3-1.4l1.6-7.5c0.1-0.7,0.7-1.2,1.4-1.3l1.6-0.2c0.6-0.1,1.1,0.1,1.5,0.5c0.4,0.4,0.5,1,0.4,1.5 l0,0.1h0.7c0.7,0,1.4,0.5,1.6,1.2c0.2,0.7,0,1.5-0.7,1.9l-0.1,0.1c0.2,0.4,0.2,0.8,0.2,1.3c0,0.1,0,0.2,0,0.4 c0.4,0.4,0.6,0.9,0.6,1.4C88,100.1,86.6,101.2,85.4,101.2z" class="st2"/></g></g></g></g><g><g><g><g><path d="M41.3,74.3c1.1,0.3,2.3,1.4,3.7,1.4c0.3,0,0.6,0,0.9-0.2c-0.1,1.1-0.5,1.7-1.1,1.7c-1.6,0-2.9-2.5-4.8-2.5 c-0.1,0-0.2,0-0.2,0l1.6-7.6c-0.9,0.4-1.5,1.2-1.5,2.4c0,0.6,0.1,0.6,0.2,0.7c-0.7,0-1.2-0.3-1.2-1.1 c0-1.5,2-2.9,3.8-2.9c0.2,0,0.3,0,0.4,0L41.3,74.3z"/></g></g><g><g><path d="M48,69l-0.8,3.7c0,0.1,0,0.3,0,0.4c0,0.3,0.1,0.4,0.4,0.4c0.1,0,0.2,0,0.2,0c-0.3,0.8-0.5,1.1-1.1,1.1 c-0.6,0-1-0.4-1.1-1c-0.3,0.5-0.8,1-1.6,1c-0.7,0-1.4-0.5-1.4-1.8c0-1.5,0.9-3.8,2.8-3.8c0.6,0,0.9,0.2,0.9,0.6v0.1 l0.1-0.6H48z M44.2,72.7c0,0.8,0.3,0.9,0.5,0.9c0.3,0,0.8-0.3,0.9-1l0.5-2.5c0-0.1-0.1-0.4-0.4-0.4 C44.8,69.7,44.2,71.6,44.2,72.7z"/></g></g></g><g><g><path d="M30.6,72.5l-1.9,9.1c2.7-0.2,4.7-3.8,4.7-6.7c0-2-1-3.7-3.4-3.7c-4.4,0-7,2.5-7,6.6c0,1.4,0.4,1.6,0.4,1.9 c-1.9,0-2.9-0.7-2.9-2.7c0-3.6,5-7.1,9.5-7.1c4.4,0,6.4,2.6,6.4,5.4c0,3.5-3,7.3-7.8,7.3h-0.1l-1.7,7.8h-3.9L26.6,73 L30.6,72.5z"/></g></g><g><g><g><path d="M43.8,81.3c0.1,0.1,0.2,0.1,0.3,0.1c1.2,0,2.9-0.8,4-1.6l0.2,0.7c-1,1.1-2.7,1.8-4.6,2.2 c-0.4,4.8-3,7.8-6.2,7.8c-2.4,0-4.1-1.1-4.1-4.1c0-3,1.8-9.2,7.1-9.2C42.8,77.1,43.8,78.6,43.8,81.3z M41.6,82.7 c-0.5-0.1-0.7-0.6-0.7-1.1c0-0.7,0.3-1.2,0.8-1.4c-0.1-1.1-0.3-1.5-1-1.5c-1.8,0-3.4,4.8-3.4,7.3c0,1.7,0.3,2.1,1.3,2.1 C39.9,88.1,41.2,85.8,41.6,82.7z"/></g></g><g><g><path d="M57,77.4l-1.9,8.8c-0.1,0.3-0.1,0.6-0.1,0.8c0,0.7,0.3,1,1.1,1c1,0,1.7-1,2.1-2.3h1.1c-1.5,4.2-3.8,4.8-5.2,4.8 c-1.5,0-2.4-0.9-2.6-2.5c-1.3,2.1-2.7,2.5-3.8,2.5c-1.5,0-2.8-0.9-2.8-3.1c0-0.5,0.1-1.1,0.2-1.7l1.8-8.3h3.7l-1.9,8.8 c-0.1,0.3-0.1,0.5-0.1,0.7c0,0.6,0.2,1.1,0.8,1.1c1,0,1.7-1,2.1-2.3l1.8-8.3H57z"/></g></g><g><g><path d="M64.5,73.3l-0.9,4.1h1.5l-0.2,1h-1.5l-1.6,7.8c-0.1,0.3-0.1,0.6-0.1,0.8c0,0.7,0.3,1,1.1,1c1,0,1.9-1,2.3-2.3 h1.1c-1.5,4.2-4,4.8-5.4,4.8c-1.5,0-2.8-0.9-2.8-3.1c0-0.5,0.1-1.1,0.2-1.7l1.5-7.3h-0.9l0.2-1h0.9l0.8-3.6L64.5,73.3z"/></g></g><g><g><path d="M70.5,77.4l-1.9,8.8c-0.1,0.3-0.1,0.6-0.1,0.8c0,0.7,0.3,1,1.1,1c1,0,1.9-1,2.3-2.3H73c-1.5,4.2-4,4.8-5.4,4.8 c-1.5,0-2.8-0.9-2.8-3.1c0-0.5,0.1-1.1,0.2-1.7l1.8-8.3H70.5z M69.3,71.8c1.1,0,2.1,0.9,2.1,2.1c0,1.1-0.9,2.1-2.1,2.1 c-1.1,0-2-0.9-2-2.1C67.3,72.8,68.2,71.8,69.3,71.8z"/></g></g><g><g><path d="M78.4,79.6c-0.9,0-1.6,1.1-2,2.4l-1.8,8.3h-3.7l2.7-13h3.7l-0.3,1.4c1.1-1.2,2.2-1.5,3-1.5 c1.6,0,2.9,0.9,2.9,2.9c0,2.1-1.2,5.3-1.2,6.7c0,0.7,0.3,1.1,1,1.1c1.1,0,1.6-0.9,2.2-2.3H86c-1.4,4.3-3.4,4.8-4.8,4.8 c-2.2,0-3-1.5-3-2.9c0-1.8,1.2-5,1.2-6.6C79.3,80.1,79,79.6,78.4,79.6z"/></g></g><g><g><path d="M90,88.1c1,0,2.2-0.6,3-1.4c-0.5,3-2.4,3.8-4.5,3.8c-2.4,0-4-1.2-4-4.1c0-3,1.7-9.3,7-9.3 c2.3,0,2.8,1.2,2.8,2.5c0,3-2.8,5.3-5.9,5.5c0,0.3-0.1,0.5-0.1,0.8C88.4,87.5,89.1,88.1,90,88.1z M91.7,78.5 c-1.3,0-2.6,2.9-3.1,5.4c2-0.1,3.8-2.1,3.8-4.3C92.4,78.9,92.2,78.5,91.7,78.5z"/></g></g></g><g><g><g><path d="M67.5,98l2.3-6.7h1.4V98l2.3-6.7h0.8l-3,8.2h-1.6v-5.6l-2.2,5.6H66V92c-1.2,0.4-1.8,1.2-1.8,2.4 c0,0.6,0.1,0.6,0.2,0.7c-0.7,0-1.2-0.3-1.2-1.1c0-1.5,2-2.9,3.8-2.9c0.2,0,0.3,0,0.4,0L67.5,98z"/></g></g><g><g><path d="M75.2,98.6c0.9,0,1.4-0.5,1.9-1.1h0.4c-0.6,1-1.5,2-3,2c-1,0-1.7-0.5-1.7-1.7c0-1.3,0.7-3.9,2.9-3.9 c1,0,1.2,0.5,1.2,1.1c0,1.3-1.2,2.2-2.5,2.3c0,0.2,0,0.3,0,0.4C74.4,98.4,74.7,98.6,75.2,98.6z M75.8,94.5 c-0.6,0-1.1,1.2-1.3,2.3c0.8-0.1,1.6-0.9,1.6-1.8C76.1,94.6,76,94.5,75.8,94.5z"/></g></g><g><g><path d="M79.4,98.6c0.9,0,1.4-0.5,1.9-1.1h0.4c-0.6,1-1.5,2-3,2c-1,0-1.7-0.5-1.7-1.7c0-1.3,0.7-3.9,2.9-3.9 c1,0,1.2,0.5,1.2,1.1c0,1.3-1.2,2.2-2.5,2.3c0,0.2,0,0.3,0,0.4C78.6,98.4,78.8,98.6,79.4,98.6z M80,94.5 c-0.6,0-1.1,1.2-1.3,2.3c0.8-0.1,1.6-0.9,1.6-1.8C80.3,94.6,80.2,94.5,80,94.5z"/></g></g><g><g><path d="M86.4,94l-2.2,1.5c0.1,0,0.2,0,0.4,0c0.8,0,1.2,0.6,1.2,1.3c0,0.1,0,0.3,0,0.4l-0.1,0.5c0,0.1-0.1,0.2-0.1,0.4 c0,0.2,0.1,0.4,0.4,0.4c0.3,0,0.3,0,0.4-0.1c-0.1,0.8-0.7,1.1-1,1.1c-0.9,0-1.4-0.4-1.4-1.2c0-0.2,0-0.4,0.1-0.6 l0.1-0.4c0-0.1,0-0.3,0-0.4c0-0.3-0.1-0.5-0.4-0.5c-0.3,0-0.5,0.2-0.8,0.4l-0.6,2.7h-1.6l1.6-7.5l1.6-0.2l-0.8,3.9 l2.1-1.7H86.4z"/></g></g></g></g></g></g></g></g></g></g></g></g></svg>