<svg xmlns="http://www.w3.org/2000/svg" viewBox="0 0 120 120"><defs><style>.cls-1{isolation:isolate;}.cls-2{fill:none;}.cls-3,.cls-9{fill:#009ade;}.cls-4{fill:#fff;}.cls-5{fill:#e0cc00;}.cls-6{fill:#d0af21;}.cls-7{fill:#b68400;}.cls-8{fill:#4197cb;stroke-miterlimit:10;stroke-width:5.39px;}.cls-10,.cls-8{stroke:#fff;}.cls-9{opacity:0.3;mix-blend-mode:multiply;}.cls-10{stroke-linecap:round;stroke-linejoin:round;stroke-width:4.28px;}.cls-11{fill:#011e41;}</style></defs><title>poutine-marker</title><g class="cls-1"><g id="Layer_2" data-name="Layer 2"><g id="artwork"><rect class="cls-2" width="120" height="120"/><rect class="cls-3" x="34.1" y="63.24" width="46.77" height="46.77" transform="translate(78.09 -15.27) rotate(45)"/><path class="cls-4" d="M112.86,32.61l-4.06-10a1.66,1.66,0,0,0-1.9-1l-5.33,1.2L103.13,19a1.71,1.71,0,0,0,.09-.95l-1.1-5.6a1.65,1.65,0,0,0-1.93-1.32l-9,1.72L90.26,7.3a1.68,1.68,0,0,0-.9-1.21L84.53,3.68a1.63,1.63,0,0,0-1.52,0L76.88,7.05A1.68,1.68,0,0,0,76,8.82l-1.31-1A1.67,1.67,0,0,0,73,7.62l-5.55,2.72L66.29,6.26a1.66,1.66,0,0,0-1.83-1.19L54.79,6.55a1.68,1.68,0,0,0-1.38,1.33L53,10.19,50.73,3.45A1.63,1.63,0,0,0,49.5,2.34l-9.7-2A1.6,1.6,0,0,0,38.53.6a1.62,1.62,0,0,0-.69,1.12L37,7.46a1.79,1.79,0,0,0,.13.94l1.49,3.3-.06.06,0,0L36.14,8.38a1.63,1.63,0,0,0-1.66-.67L28.4,8.9a1.65,1.65,0,0,0-1.27,1.17l-2.07,7.14L23.5,14.87a1.65,1.65,0,0,0-1.4-.73l-4.87.08a1.65,1.65,0,0,0-1.47.94l-3.11,6.51a1.68,1.68,0,0,0,.22,1.8l.52.63L10,24a1.66,1.66,0,0,0-1.71,1.45L7,35.77a1.69,1.69,0,0,0,.82,1.66l3,1.72-.3.09-.35.11a1.73,1.73,0,0,0-.74.51l-.23.28c-1,1.23-1.22,3.21-.63,6.41l.2,1.06A1.65,1.65,0,0,0,10.2,49l.54,3.09a9.58,9.58,0,0,0-2.69,6.33c0,3.31,1.72,5.4,4.79,5.9L13,65.36l-1.95,9.18a2.72,2.72,0,0,0,.54,2.27,2.64,2.64,0,0,0,2.08,1h1.47L17,88.48a4.21,4.21,0,0,0,4.18,3.63H94a4.2,4.2,0,0,0,4.17-3.57l2-11.7A8.16,8.16,0,0,0,103.87,71a2.74,2.74,0,0,0-1.16-2.75,9,9,0,0,0,2.87-6.54,5.53,5.53,0,0,0-2-4.57L105,49a1.65,1.65,0,0,0,1.41-1.35l.2-1.06c.59-3.21.4-5.18-.62-6.41l-.12-.14,6.55-5.47A1.69,1.69,0,0,0,112.86,32.61Z"/><polygon class="cls-5" points="65.29 12.12 58.3 13.51 56.1 9.1 64.04 7.87 65.29 12.12"/><polygon class="cls-5" points="49.79 49.6 48.04 48.95 55.61 10.2 57.48 13.96 49.79 49.6"/><polygon class="cls-6" points="65.39 13.03 53.33 50.92 50.65 49.92 58.31 14.44 65.39 13.03"/><path class="cls-4" d="M64.7,6.85l1.7,6L53.89,52.12,47,49.56,55,8.33ZM50.65,49.92l2.68,1L65.39,13l-7.08,1.41ZM48,49l1.75.65L57.48,14,55.61,10.2ZM58.3,13.51l7-1.39L64,7.87,56.1,9.1Z"/><polygon class="cls-5" points="39.61 7.21 46.66 8.97 48.22 4.79 40.26 3.14 39.61 7.21"/><polygon class="cls-5" points="59.88 44.7 61.51 44.16 48.85 5.89 47.52 9.46 59.88 44.7"/><polygon class="cls-6" points="39.63 8.09 56.59 45.78 59.08 44.96 46.77 9.88 39.63 8.09"/><path class="cls-4" d="M39.47,2.09l-.86,5.74L56.2,46.92l6.42-2.1L49.17,4.1ZM59.08,45l-2.49.82-17-37.69,7.15,1.79Zm2.43-.8-1.63.54L47.52,9.46l1.33-3.57ZM46.66,9l-7-1.76.65-4.07,8,1.65Z"/><path class="cls-7" d="M52.1,24.29c-.24-.75-1.71-2-3.18-3s-5.15-1.24-5.15-1.24L45.09,27Z"/><path class="cls-4" d="M52,18.14c-.67.8-2.22-.51-2.72,1.21-.22.79.52,1.35.45,1.94s-1.22,1.23-1.35,2.6a2.53,2.53,0,0,0,2.31,2.7c1.22,0,1.8-.67,2.7-1.69s1.09-1,2.78-.8,3.46-2,3.48-3.47c0-1.29-1-3.28-3.21-1.57C54.71,20.38,53.75,16,52,18.14Z"/><polygon class="cls-5" points="87.25 7.72 82.24 11.29 78.96 9.01 84.02 6.14 87.25 7.72"/><polygon class="cls-6" points="90.38 43.33 88.7 43.51 78.9 9.89 81.94 12.13 90.38 43.33"/><polygon class="cls-5" points="87.9 8.27 93.75 42.97 91.19 43.24 82.8 12.18 87.9 8.27"/><path class="cls-4" d="M83.8,5.3l4.83,2.41,6.06,36-6.57.7L77.67,8.64Zm7.39,37.94L93.75,43,87.9,8.27l-5.1,3.91Zm-2.49.26,1.68-.17-8.44-31.2-3-2.24ZM82.24,11.29l5-3.57L84,6.14,79,9Z"/><polygon class="cls-5" points="100.6 17.86 93.84 19.45 92.14 15.35 99.78 13.89 100.6 17.86"/><polygon class="cls-5" points="82.66 53.95 81.05 53.4 91.58 16.41 93.03 19.91 82.66 53.95"/><polygon class="cls-6" points="100.62 18.71 85.9 55.06 83.44 54.22 93.78 20.32 100.62 18.71"/><path class="cls-4" d="M100.5,12.89l1.1,5.59L86.33,56.18,80,54,91.2,14.66Zm-17,41.33,2.45.84,14.72-36.35-6.84,1.61Zm-2.4-.82,1.61.55L93,19.91l-1.45-3.5Zm12.8-33.95,6.75-1.59-.82-4-7.64,1.46Z"/><path class="cls-7" d="M95.73,34.18c-2.57-1.49-3.13-4-6.12-4.45-2.58-.37-3.56-3.34-6.74-1.86-1.3.61-1.81,5.77-1.81,5.77l4.87.91L91.32,36Z"/><polygon class="cls-5" points="101.88 25.58 104.5 32.97 109.98 32.75 106.65 24.54 101.88 25.58"/><polygon class="cls-6" points="74.68 59.99 76.3 61.32 109.2 33.8 104.53 33.98 74.68 59.99"/><polygon class="cls-5" points="100.94 25.95 71.41 57.31 73.89 59.34 103.6 33.45 100.94 25.95"/><path class="cls-4" d="M107.26,23.37l-6.7,1.52L69.94,57.41l6.36,5.22,35-29.26Zm-33.37,36-2.48-2L100.94,26l2.66,7.5Zm2.41,2L74.68,60l29.85-26,4.67-.19ZM104.5,33l-2.62-7.39,4.77-1L110,32.75Z"/><path class="cls-7" d="M88,36.68c.79,0,4.87,1.39,7.63,1.76a6.43,6.43,0,0,1,4,2c.89.8-11.41,1.25-11.41,1.25Z"/><path class="cls-4" d="M71,17.81c-1.31,1.33-3.9-.26-4.88,1.72s1.35,2.41,1.84,3.65-1,3.79,1,3.54,1.81-1.95,3.52-2.2,2.94.12,3.43-2.11.65-3.35-.58-4.34S73.15,15.63,71,17.81Z"/><path class="cls-4" d="M74.48,16.79c-1.32,1.33-3.9-.26-4.88,1.72s1.35,2.41,1.84,3.65-1,3.79,1,3.55,1.81-2,3.52-2.21,2.94.12,3.43-2.11S80,18,78.79,17.05,76.64,14.61,74.48,16.79Z"/><path class="cls-4" d="M97,26c-.86,1-2.55-.18-3.19,1.25S94.66,29,95,29.91s-.64,2.74.64,2.57,1.19-1.42,2.31-1.6,1.92.08,2.24-1.53.42-2.42-.38-3.14S98.39,24.44,97,26Z"/><path class="cls-4" d="M40.93,16.23C39.62,17.56,37,16,36.05,18s1.35,2.41,1.84,3.64-1,3.8,1,3.55,1.81-2,3.52-2.2,2.94.11,3.43-2.11.65-3.36-.58-4.35S43.09,14.05,40.93,16.23Z"/><path class="cls-7" d="M58.23,24c.49-1.24,4.41-3.71,6.13-3.71s4.17-.25,5.39.49S71,28.09,71,28.09l-6.62,2.63Z"/><path class="cls-4" d="M66.43,23.7c-.52.57-1.61,0-2,.78s.59,1,.81,1.47-.35,1.58.46,1.44.71-.83,1.41-1,1.21,0,1.37-.92.22-1.39-.3-1.77S67.28,22.77,66.43,23.7Z"/><polygon class="cls-5" points="36.15 12.46 30.77 14.13 29.48 11.32 34.55 10.24 36.15 12.46"/><polygon class="cls-6" points="21.25 43.55 19.95 43.25 29.01 12.05 30.15 14.77 21.25 43.55"/><polygon class="cls-5" points="36.35 13.09 23.88 44.16 21.89 43.7 30.75 15.05 36.35 13.09"/><path class="cls-4" d="M34.8,9.47l2.35,3.35L24.22,45l-5.13-1.18,9.62-33.19ZM21.89,43.7l2,.46L36.35,13.09l-5.6,2ZM20,43.25l1.3.3,8.9-28.78L29,12.05ZM30.77,14.14l5.38-1.68-1.6-2.22-5.07,1.08Z"/><polygon class="cls-5" points="21.08 16.65 18.93 22.82 15.31 22.23 17.83 16.74 21.08 16.65"/><polygon class="cls-6" points="40.62 50.76 39.41 51.8 15.69 23.14 19.11 23.82 40.62 50.76"/><polygon class="cls-5" points="21.84 16.86 43.04 48.66 41.21 50.25 19.79 23.43 21.84 16.86"/><path class="cls-4" d="M17.25,16l4.88-.08,22,33L39.39,53,14.14,22.52Zm24,34.24L43,48.66,21.84,16.87l-2.05,6.56ZM39.42,51.8l1.2-1L19.11,23.82l-3.42-.68Zm-20.49-29,2.15-6.17-3.25.09-2.52,5.49Z"/><polygon class="cls-5" points="60.27 26.57 51.11 29.28 45.08 25.88 55.72 23.11 60.27 26.57"/><polygon class="cls-6" points="62.33 62.74 59.37 62.55 45.09 26.95 50.23 29.85 62.33 62.74"/><polygon class="cls-5" points="61.02 27.34 68.27 63.14 63.77 62.84 51.73 30.09 61.02 27.34"/><path class="cls-4" d="M43,25.43,58.27,63.3l11.6.78L62.34,27,56,22.07Zm8.69,4.66L61,27.34l7.25,35.8-4.5-.3ZM45.09,27l5.14,2.9,12.1,32.89-3-.2Zm0-1.08,10.64-2.76,4.55,3.46-9.16,2.71Z"/><polygon class="cls-5" points="38.53 15.16 43.75 17.5 45.58 14.8 40.56 13.1 38.53 15.16"/><polygon class="cls-6" points="48.26 48.48 49.66 48.33 45.93 15.61 44.27 18.23 48.26 48.48"/><polygon class="cls-5" points="38.2 15.78 45.45 48.78 47.58 48.55 43.61 18.43 38.2 15.78"/><path class="cls-4" d="M40.45,12.29l-3,3.11L45,49.62,50.43,49l-4-34.81Zm7.13,36.26-2.12.23-7.26-33,5.41,2.65Zm2.08-.22-1.4.15-4-30.25,1.66-2.62ZM43.75,17.5l-5.22-2.34,2-2.06,5,1.7Z"/><path class="cls-4" d="M44.61,27.79c-.74-.21-.38-1.52-1.66-1.37-.59.06-.71.67-1.12.79s-1.19-.44-2.12-.16a1.6,1.6,0,0,0-1,2.14c.41.75,1,.95,2,1.24s1,.42,1.4,1.51,2.42,1.62,3.36,1.25,1.83-1.46,0-2.4C44,30.06,46.53,28.32,44.61,27.79Z"/><path class="cls-4" d="M27.37,22.12c-.67.81-2.23-.5-2.72,1.22-.23.79.52,1.35.45,1.94s-1.22,1.23-1.35,2.6a2.53,2.53,0,0,0,2.31,2.7c1.21,0,1.8-.67,2.7-1.7s1.08-1,2.78-.79,3.45-2,3.47-3.47-1-3.28-3.2-1.58C30.07,24.37,29.12,20,27.37,22.12Z"/><polygon class="cls-5" points="72.19 23.77 74.52 30.25 80.07 31.3 77.06 24.02 72.19 23.77"/><polygon class="cls-6" points="43.19 45.1 44.77 46.52 79.24 31.96 74.5 31.06 43.19 45.1"/><polygon class="cls-5" points="71.23 23.86 40.01 42.23 42.42 44.4 73.59 30.43 71.23 23.86"/><path class="cls-4" d="M77.74,23.22l-6.85-.29L38.51,42l6.21,5.59L81.4,32.09ZM42.42,44.4,40,42.23,71.23,23.86l2.36,6.57Zm2.35,2.12L43.19,45.1l31.31-14,4.74.9ZM74.52,30.25l-2.33-6.48,4.88.24,3,7.29Z"/><polygon class="cls-5" points="76.32 12.15 70.85 15.64 68.37 12.91 73.72 10.18 76.32 12.15"/><polygon class="cls-6" points="70.67 51.13 69.09 51.19 68.1 13.87 70.37 16.54 70.67 51.13"/><polygon class="cls-5" points="76.78 12.79 73.86 51 71.44 51.1 71.15 16.66 76.78 12.79"/><path class="cls-4" d="M73.72,9.25l3.87,3-3,39.63-6.23.25L67.27,12.41ZM71.45,51.1l2.41-.1,2.93-38.21-5.64,3.87Zm-2.36.09,1.58-.06-.3-34.6L68.1,13.87Zm1.76-35.55,5.47-3.49-2.6-2-5.35,2.73Z"/><polygon class="cls-5" points="54.27 19.22 59.59 21.17 61.12 18.39 56.06 17.05 54.27 19.22"/><polygon class="cls-6" points="67.02 51.37 68.36 51.13 61.54 19.15 60.18 21.85 67.02 51.37"/><polygon class="cls-5" points="54.01 19.85 64.3 51.85 66.36 51.48 59.55 22.09 54.01 19.85"/><path class="cls-4" d="M55.87,16.26l-2.65,3.27L63.9,52.72l5.29-.94-7.25-34ZM66.36,51.48l-2.06.37L54,19.85l5.54,2.24Zm2-.35L67,51.37,60.18,21.85l1.36-2.7Zm-8.77-30-5.32-2,1.79-2.16,5.06,1.32Z"/><path class="cls-7" d="M39.36,31.09c1.35-.25,4.08-1.89,5.64-2.23a16.7,16.7,0,0,1,8,.37c2,.62.86,4.45.86,4.45l-.61,3.71-10.79-.86Z"/><path class="cls-7" d="M35.22,29.12c-.92-.18-4.17-2.21-7.75-1.25-2.76.74-3.67,3.9-5.7,4.82C20,33.52,26.37,37,26.37,37l8.45-2.78Z"/><polygon class="cls-5" points="15.33 26.93 14.71 34.52 9.74 35.27 10.79 26.77 15.33 26.93"/><polygon class="cls-6" points="47.87 55.35 46.72 56.92 10.68 36.14 14.93 35.5 47.87 55.35"/><polygon class="cls-5" points="16.26 27.13 50.17 52.19 48.43 54.59 15.63 34.82 16.26 27.13"/><path class="cls-4" d="M10,25.75l6.38.28L51.52,52,47,58.19,8.67,36.1ZM48.43,54.59l1.74-2.4L16.26,27.13l-.63,7.69Zm-1.71,2.33,1.15-1.57L14.93,35.5l-4.25.64Zm-32-22.4.62-7.59-4.53-.16-1.06,8.5Z"/><polygon class="cls-5" points="41.42 23.42 34.45 27.09 30.37 23.17 38.43 19.37 41.42 23.42"/><polygon class="cls-6" points="39.36 67.59 37.22 67.46 30.27 24.48 33.75 27.82 39.36 67.59"/><polygon class="cls-5" points="41.88 24.34 43.67 67.85 40.41 67.65 34.82 28.06 41.88 24.34"/><path class="cls-4" d="M38.74,18.08l4.15,5.73,1.85,45.12-8.4-.5L28.92,22.7Zm1.67,49.57,3.26.2L41.89,24.34l-7.07,3.72Zm-3.19-.19,2.14.13L33.75,27.82l-3.48-3.34ZM34.45,27.09l7-3.67-3-4.05-8.06,3.8Z"/><path class="cls-7" d="M23,37.66A10.78,10.78,0,0,0,18.92,39a7.34,7.34,0,0,0-1.5,2c-.12.49,5.15.49,5.15.49Z"/><polygon class="cls-5" points="31.57 34.43 25.94 38.59 22.45 35.53 28.97 31.13 31.57 34.43"/><polygon class="cls-6" points="31.38 74.63 29.61 74.77 22.41 36.73 25.39 39.34 31.38 74.63"/><polygon class="cls-5" points="31.99 35.2 34.95 74.33 32.24 74.56 26.29 39.42 31.99 35.2"/><path class="cls-4" d="M29.18,29.93l3.63,4.67,3.06,40.59-7,.56L21.23,35.29Zm3.06,44.62L35,74.34,32,35.2l-5.71,4.23Zm-2.63.22,1.77-.14-6-35.29-3-2.61ZM25.94,38.59l5.63-4.16L29,31.13l-6.53,4.41Z"/><path class="cls-7" d="M25.73,41c5.05-.55,10.29-7.42,14.7-4.26C47.18,41.6,43,42.71,43,42.71L25.73,41"/><polygon class="cls-5" points="83.48 24.27 76.7 25.97 74.61 21.8 82.3 20.22 83.48 24.27"/><polygon class="cls-5" points="68.21 61.4 66.51 60.85 74.13 22.9 75.91 26.45 68.21 61.4"/><polygon class="cls-6" points="83.57 25.15 71.62 62.49 69.03 61.66 76.71 26.87 83.57 25.15"/><path class="cls-4" d="M83,19.19l1.6,5.71L72.15,63.63,65.5,61.5l8.08-40.39ZM69,61.66l2.59.83L83.57,25.15l-6.86,1.72Zm-2.52-.81,1.7.55,7.7-34.95L74.13,22.9ZM76.7,26l6.78-1.7L82.3,20.22l-7.69,1.59Z"/><polygon class="cls-5" points="77.45 35.7 71.12 33.49 71.39 29.4 77.08 32.04 77.45 35.7"/><polygon class="cls-6" points="45.24 58.87 44.1 57.55 70.5 29.86 70.14 33.73 45.24 58.87"/><polygon class="cls-5" points="77.31 36.56 47.55 61.52 45.8 59.51 70.59 34.48 77.31 36.56"/><path class="cls-4" d="M77.75,31.37l.51,5.48L47.4,62.74l-4.5-5.17L71,28.09ZM45.8,59.51l1.75,2,29.75-25-6.71-2.08Zm-1.7-2,1.14,1.32,24.9-25.14.36-3.87Zm27-24,6.33,2.2L77.07,32,71.39,29.4Z"/><path class="cls-7" d="M59.64,35.2c1.47-.5,1.2-2.13,3.77-2.13s2.94,3.24,5.52,4.08c1.25.4,4.68.64,4.5,4.2-.14,2.73-14.22,2-14.22,2Z"/><path class="cls-4" d="M80.67,28.93c-1.32,1.33-3.91-.25-4.89,1.73s1.35,2.41,1.84,3.64-1,3.8,1,3.55,1.81-2,3.52-2.2,2.94.11,3.43-2.11.65-3.36-.58-4.35S82.82,26.75,80.67,28.93Z"/><path class="cls-4" d="M57.23,25c-1.32,1.33-3.9-.26-4.88,1.72s1.34,2.41,1.83,3.65-1,3.79,1,3.54,1.81-2,3.53-2.2,2.93.12,3.42-2.11.65-3.35-.58-4.34S59.38,22.86,57.23,25Z"/><path class="cls-4" d="M39.62,29.6c-.56.75-2.21-.5-2.5,1.1-.13.74.66,1.27.66,1.82s-1,1.13-1,2.41a2.85,2.85,0,0,0,2.55,2.56c1.18,0,1.67-.59,2.43-1.54s.95-.89,2.61-.71,3.12-1.85,3-3.19S46,29,44,30.53C42.51,31.74,41.08,27.67,39.62,29.6Z"/><polygon class="cls-5" points="90.72 37.08 83.18 37.46 81.79 32.58 90.28 32.52 90.72 37.08"/><polygon class="cls-5" points="67.05 73.35 65.36 72.41 81.06 33.64 82.24 37.8 67.05 73.35"/><polygon class="cls-6" points="90.65 38.04 70.46 75.24 67.88 73.81 83 38.42 90.65 38.04"/><path class="cls-4" d="M91.18,31.56,91.74,38,70.8,76.57l-6.64-3.69L80.83,31.62ZM67.88,73.81l2.58,1.43L90.65,38,83,38.42Zm-2.52-1.4,1.69.94L82.24,37.8l-1.18-4.16ZM83.18,37.46l7.54-.38-.44-4.56-8.49.06Z"/><polygon class="cls-5" points="49.77 30.04 56.76 31.92 58.31 27.81 50.42 26.02 49.77 30.04"/><polygon class="cls-5" points="69.83 67.56 71.45 67.06 58.94 28.91 57.62 32.42 69.83 67.56"/><polygon class="cls-6" points="49.79 30.91 66.57 68.56 69.04 67.8 56.88 32.82 49.79 30.91"/><path class="cls-4" d="M49.64,25l-.86,5.67,17.4,39.05,6.37-2L59.25,27.14ZM69,67.8l-2.47.76L49.79,30.91l7.09,1.91Zm2.41-.74-1.62.5L57.61,32.42l1.33-3.51ZM56.76,31.92l-7-1.88.65-4,7.89,1.79Z"/><polygon class="cls-5" points="45.59 33.4 45.1 40.48 40.69 41.88 41.83 35.26 45.59 33.4"/><polygon class="cls-6" points="79.53 55.43 78.47 57.08 41.43 42.56 45.64 41.34 79.53 55.43"/><polygon class="cls-6" points="46.54 33.19 81.67 52.1 80.05 54.62 46.31 40.59 46.54 33.19"/><path class="cls-4" d="M40.92,34.87l5.66-2.73L83,51.75l-4.17,6.49L39.43,42.81ZM80.05,54.62l1.62-2.52L46.54,33.19l-.23,7.4Zm-1.58,2.46,1.06-1.65L45.64,41.34l-4.21,1.22ZM45.1,40.48l.49-7.08-3.76,1.86-1.14,6.63Z"/><path class="cls-4" d="M57.35,37.66c.52.44-1.39,1.15-.63,1.54s1.08-.13,1.58-.07.83,1,1.78.64,1.67-.64,1.14-1.6c-.63-1.15-1.71-.05-2.16-.83C58.37,36.13,56.21,36.7,57.35,37.66Z"/><path class="cls-4" d="M12.77,33.33c.64,1-.88,1.66.25,2.65s1.84.07,2.75.2,2.33,1.49,2.53.55-1-1.35-.81-2.18.61-1.27-.77-2.11-2.1-1.22-3-.95S11.73,31.77,12.77,33.33Z"/><path class="cls-8" d="M85.05,41.41c-9.9-.17-21.26-.27-27.37-.27h-.19c-6.12,0-17.49.1-27.38.27-8.58.16-17.47.37-18.64.77-.1.12-.56.86,0,4h.11a1.28,1.28,0,0,1,1.27,1.1l7.05,40.93a1.27,1.27,0,0,0,1.27,1.1H94a1.28,1.28,0,0,0,1.27-1.1l7-40.93a1.3,1.3,0,0,1,1.27-1.1h.12c.57-3.1.12-3.84,0-4C102.53,41.78,93.64,41.57,85.05,41.41Z"/><path class="cls-3" d="M85.05,41.41c-9.9-.17-21.26-.27-27.37-.27h-.19c-6.12,0-17.49.1-27.38.27-8.58.16-17.47.37-18.64.77-.1.12-.56.86,0,4h.11a1.28,1.28,0,0,1,1.27,1.1l7.05,40.93a1.27,1.27,0,0,0,1.27,1.1H94a1.28,1.28,0,0,0,1.27-1.1l7-40.93a1.3,1.3,0,0,1,1.27-1.1h.12c.57-3.1.12-3.84,0-4C102.53,41.78,93.64,41.57,85.05,41.41Z"/><path class="cls-9" d="M58,45.92h-.92c-15.73,0-31,.38-41.54.87,0,0,4.41,27.45,15.07,31.72,5.12,2,16.12,2.86,26.93,2.75,10.81.11,21.82-.7,26.93-2.75,10.66-4.27,15.08-31.72,15.08-31.72C89.08,46.3,73.77,46,58,45.92Z"/><path class="cls-10" d="M36.61,55.14c1.41.31,2.84,1.76,4.56,1.76a2.94,2.94,0,0,0,1.14-.21c-.13,1.31-.68,2.15-1.41,2.15-1.94,0-3.65-3.11-6-3.11h-.31l2-9.49a3,3,0,0,0-1.9,3,2,2,0,0,0,.19.93c-.94,0-1.45-.35-1.45-1.33,0-1.82,2.49-3.56,4.76-3.56a4.63,4.63,0,0,1,.54,0Z"/><path class="cls-10" d="M45,48.56l-1,4.66a2,2,0,0,0-.05.44c0,.38.18.51.56.51a.73.73,0,0,0,.3-.06c-.37,1-.63,1.38-1.36,1.38a1.31,1.31,0,0,1-1.33-1.27,2.45,2.45,0,0,1-2,1.27c-.93,0-1.81-.57-1.81-2.2,0-1.85,1.13-4.79,3.49-4.79.77,0,1.1.3,1.1.7v.09l.15-.73ZM40.29,53.1c0,1,.43,1.07.68,1.07A1.4,1.4,0,0,0,42.1,53l.65-3.09a.53.53,0,0,0-.56-.52C41,49.35,40.29,51.81,40.29,53.1Z"/><path class="cls-10" d="M23.31,52.84l-2.4,11.4c3.42-.27,5.92-4.75,5.92-8.4,0-2.52-1.22-4.64-4.2-4.64-5.48,0-8.76,3.1-8.76,8.29a5,5,0,0,0,.47,2.33c-2.33,0-3.62-.86-3.62-3.32,0-4.54,6.23-8.87,11.88-8.87s8,3.21,8,6.72a9.48,9.48,0,0,1-9.77,9.15h-.17l-2.07,9.73H13.7l4.6-21.71Z"/><path class="cls-10" d="M39.83,63.88a.8.8,0,0,0,.35.06,10.18,10.18,0,0,0,5-1.95l.29.88a10.17,10.17,0,0,1-5.7,2.69c-.51,6-3.73,9.77-7.69,9.77-3,0-5.14-1.43-5.14-5.13s2.18-11.52,8.81-11.52C38.48,58.68,39.83,60.47,39.83,63.88Zm-2.77,1.78c-.67-.16-.87-.71-.87-1.36a1.79,1.79,0,0,1,1-1.76c-.06-1.36-.38-1.88-1.22-1.88-2.28,0-4.28,5.94-4.28,9.12,0,2.14.42,2.63,1.64,2.63C34.91,72.41,36.55,69.49,37.06,65.66Z"/><path class="cls-10" d="M56.23,59,53.92,70a4.38,4.38,0,0,0-.13,1c0,.91.42,1.2,1.32,1.2,1.25,0,2.12-1.23,2.6-2.86h1.36c-1.84,5.29-4.73,6-6.47,6s-3-1.07-3.18-3.09C47.81,75,46,75.4,44.65,75.4c-1.93,0-3.44-1.17-3.44-3.9a10.89,10.89,0,0,1,.26-2.11L43.66,59h4.63L46,70a4.92,4.92,0,0,0-.09.91c0,.74.25,1.33,1,1.33,1.26,0,2.09-1.23,2.58-2.86L51.6,59Z"/><path class="cls-10" d="M65.63,53.85,64.53,59h1.93l-.25,1.3H64.28L62.22,70a4.38,4.38,0,0,0-.13,1c0,.91.42,1.2,1.32,1.2,1.25,0,2.41-1.23,2.89-2.86h1.35c-1.83,5.29-5,6-6.75,6-1.93,0-3.44-1.17-3.44-3.9a10.81,10.81,0,0,1,.25-2.11l1.94-9.12H58.58l.26-1.3H59.9l1-4.47Z"/><path class="cls-10" d="M73.12,59,70.8,70a4.87,4.87,0,0,0-.12,1c0,.91.41,1.2,1.32,1.2,1.25,0,2.41-1.23,2.89-2.86h1.35c-1.83,5.29-5,6-6.75,6-1.93,0-3.45-1.17-3.45-3.9a10.89,10.89,0,0,1,.26-2.11L68.49,59Zm-1.45-6.91a2.6,2.6,0,0,1,2.58,2.6,2.57,2.57,0,0,1-2.58,2.56,2.54,2.54,0,0,1-2.54-2.56A2.57,2.57,0,0,1,71.67,52.06Z"/><path class="cls-10" d="M83,61.8c-1.16,0-2,1.36-2.51,3L78.3,75.2H73.67L77.08,59h4.63l-.35,1.69a4.75,4.75,0,0,1,3.76-1.82c2.06,0,3.57,1.07,3.57,3.67s-1.54,6.56-1.54,8.38c0,.81.32,1.36,1.28,1.36,1.42,0,2-1.17,2.7-2.86h1.36c-1.81,5.33-4.28,6-6,6a3.43,3.43,0,0,1-3.79-3.67c0-2.21,1.44-6.2,1.44-8.28C84.15,62.38,83.77,61.8,83,61.8Z"/><path class="cls-10" d="M97.44,72.31a6.53,6.53,0,0,0,3.79-1.72c-.67,3.7-3,4.81-5.56,4.81-3,0-5-1.5-5-5.16s2.1-11.56,8.69-11.56c2.86,0,3.54,1.49,3.54,3.12,0,3.76-3.54,6.62-7.4,6.85,0,.32-.07.68-.07,1C95.44,71.66,96.31,72.31,97.44,72.31ZM99.63,60.4c-1.61,0-3.22,3.6-3.9,6.69a5.38,5.38,0,0,0,4.7-5.36C100.43,60.92,100.24,60.4,99.63,60.4Z"/><path class="cls-10" d="M69.41,84.72l2.85-8.38H74v8.38L77,76.34h1l-3.78,10.2h-2v-7l-2.68,7h-2V77.19a2.94,2.94,0,0,0-2.2,3,1.94,1.94,0,0,0,.19.93c-.93,0-1.45-.34-1.45-1.32,0-1.83,2.5-3.56,4.77-3.56l.54,0Z"/><path class="cls-10" d="M79,85.48a3.1,3.1,0,0,0,2.4-1.38h.46a4.49,4.49,0,0,1-3.73,2.53A1.91,1.91,0,0,1,76,84.45c0-1.57.88-4.87,3.67-4.87,1.21,0,1.49.63,1.49,1.31A3.17,3.17,0,0,1,78,83.78a5.36,5.36,0,0,0,0,.55C78,85.26,78.33,85.48,79,85.48Zm.79-5.18c-.7,0-1.36,1.47-1.63,2.82a2.29,2.29,0,0,0,2-2.26C80.11,80.52,80,80.3,79.77,80.3Z"/><path class="cls-10" d="M84.19,85.48a3.1,3.1,0,0,0,2.4-1.38h.46a4.49,4.49,0,0,1-3.73,2.53,1.92,1.92,0,0,1-2.12-2.18c0-1.57.89-4.87,3.67-4.87,1.21,0,1.49.63,1.49,1.31a3.17,3.17,0,0,1-3.12,2.89c0,.19,0,.38,0,.55C83.21,85.26,83.54,85.48,84.19,85.48ZM85,80.3c-.7,0-1.36,1.47-1.63,2.82a2.29,2.29,0,0,0,2-2.26C85.32,80.52,85.23,80.3,85,80.3Z"/><path class="cls-10" d="M93,79.7l-2.72,1.9a2.3,2.3,0,0,1,.45,0,1.44,1.44,0,0,1,1.49,1.6,2.4,2.4,0,0,1,0,.52l-.15.68a2.13,2.13,0,0,0-.07.44c0,.28.11.51.53.51a.92.92,0,0,0,.48-.08,1.5,1.5,0,0,1-1.27,1.41c-1.11,0-1.71-.56-1.71-1.56a3.22,3.22,0,0,1,.09-.72l.1-.53a2.43,2.43,0,0,0,.06-.51c0-.39-.14-.65-.49-.65a1.71,1.71,0,0,0-1,.5L88,86.54h-2l2-9.31,2-.27-1,4.82,2.62-2.08Z"/><path class="cls-11" d="M36.61,55.14c1.41.31,2.84,1.76,4.56,1.76a2.94,2.94,0,0,0,1.14-.21c-.13,1.31-.68,2.15-1.41,2.15-1.94,0-3.65-3.11-6-3.11h-.31l2-9.49a3,3,0,0,0-1.9,3,2,2,0,0,0,.19.93c-.94,0-1.45-.35-1.45-1.33,0-1.82,2.49-3.56,4.76-3.56a4.63,4.63,0,0,1,.54,0Z"/><path class="cls-11" d="M45,48.56l-1,4.66a2,2,0,0,0-.05.44c0,.38.18.51.56.51a.73.73,0,0,0,.3-.06c-.37,1-.63,1.38-1.36,1.38a1.31,1.31,0,0,1-1.33-1.27,2.45,2.45,0,0,1-2,1.27c-.93,0-1.81-.57-1.81-2.2,0-1.85,1.13-4.79,3.49-4.79.77,0,1.1.3,1.1.7v.09l.15-.73ZM40.29,53.1c0,1,.43,1.07.68,1.07A1.4,1.4,0,0,0,42.1,53l.65-3.09a.53.53,0,0,0-.56-.52C41,49.35,40.29,51.81,40.29,53.1Z"/><path class="cls-11" d="M23.31,52.84l-2.4,11.4c3.42-.27,5.92-4.75,5.92-8.4,0-2.52-1.22-4.64-4.2-4.64-5.48,0-8.76,3.1-8.76,8.29a5,5,0,0,0,.47,2.33c-2.33,0-3.62-.86-3.62-3.32,0-4.54,6.23-8.87,11.88-8.87s8,3.21,8,6.72a9.48,9.48,0,0,1-9.77,9.15h-.17l-2.07,9.73H13.7l4.6-21.71Z"/><path class="cls-11" d="M39.83,63.88a.8.8,0,0,0,.35.06,10.18,10.18,0,0,0,5-1.95l.29.88a10.17,10.17,0,0,1-5.7,2.69c-.51,6-3.73,9.77-7.69,9.77-3,0-5.14-1.43-5.14-5.13s2.18-11.52,8.81-11.52C38.48,58.68,39.83,60.47,39.83,63.88Zm-2.77,1.78c-.67-.16-.87-.71-.87-1.36a1.79,1.79,0,0,1,1-1.76c-.06-1.36-.38-1.88-1.22-1.88-2.28,0-4.28,5.94-4.28,9.12,0,2.14.42,2.63,1.64,2.63C34.91,72.41,36.55,69.49,37.06,65.66Z"/><path class="cls-11" d="M56.23,59,53.92,70a4.38,4.38,0,0,0-.13,1c0,.91.42,1.2,1.32,1.2,1.25,0,2.12-1.23,2.6-2.86h1.36c-1.84,5.29-4.73,6-6.47,6s-3-1.07-3.18-3.09C47.81,75,46,75.4,44.65,75.4c-1.93,0-3.44-1.17-3.44-3.9a10.89,10.89,0,0,1,.26-2.11L43.66,59h4.63L46,70a4.92,4.92,0,0,0-.09.91c0,.74.25,1.33,1,1.33,1.26,0,2.09-1.23,2.58-2.86L51.6,59Z"/><path class="cls-11" d="M65.63,53.85,64.53,59h1.93l-.25,1.3H64.28L62.22,70a4.38,4.38,0,0,0-.13,1c0,.91.42,1.2,1.32,1.2,1.25,0,2.41-1.23,2.89-2.86h1.35c-1.83,5.29-5,6-6.75,6-1.93,0-3.44-1.17-3.44-3.9a10.81,10.81,0,0,1,.25-2.11l1.94-9.12H58.58l.26-1.3H59.9l1-4.47Z"/><path class="cls-11" d="M73.12,59,70.8,70a4.87,4.87,0,0,0-.12,1c0,.91.41,1.2,1.32,1.2,1.25,0,2.41-1.23,2.89-2.86h1.35c-1.83,5.29-5,6-6.75,6-1.93,0-3.45-1.17-3.45-3.9a10.89,10.89,0,0,1,.26-2.11L68.49,59Zm-1.45-6.91a2.6,2.6,0,0,1,2.58,2.6,2.57,2.57,0,0,1-2.58,2.56,2.54,2.54,0,0,1-2.54-2.56A2.57,2.57,0,0,1,71.67,52.06Z"/><path class="cls-11" d="M83,61.8c-1.16,0-2,1.36-2.51,3L78.3,75.2H73.67L77.08,59h4.63l-.35,1.69a4.75,4.75,0,0,1,3.76-1.82c2.06,0,3.57,1.07,3.57,3.67s-1.54,6.56-1.54,8.38c0,.81.32,1.36,1.28,1.36,1.42,0,2-1.17,2.7-2.86h1.36c-1.81,5.33-4.28,6-6,6a3.43,3.43,0,0,1-3.79-3.67c0-2.21,1.44-6.2,1.44-8.28C84.15,62.38,83.77,61.8,83,61.8Z"/><path class="cls-11" d="M97.44,72.31a6.53,6.53,0,0,0,3.79-1.72c-.67,3.7-3,4.81-5.56,4.81-3,0-5-1.5-5-5.16s2.1-11.56,8.69-11.56c2.86,0,3.54,1.49,3.54,3.12,0,3.76-3.54,6.62-7.4,6.85,0,.32-.07.68-.07,1C95.44,71.66,96.31,72.31,97.44,72.31ZM99.63,60.4c-1.61,0-3.22,3.6-3.9,6.69a5.38,5.38,0,0,0,4.7-5.36C100.43,60.92,100.24,60.4,99.63,60.4Z"/><path class="cls-11" d="M69.41,84.72l2.85-8.38H74v8.38L77,76.34h1l-3.78,10.2h-2v-7l-2.68,7h-2V77.19a2.94,2.94,0,0,0-2.2,3,1.94,1.94,0,0,0,.19.93c-.93,0-1.45-.34-1.45-1.32,0-1.83,2.5-3.56,4.77-3.56l.54,0Z"/><path class="cls-11" d="M79,85.48a3.1,3.1,0,0,0,2.4-1.38h.46a4.49,4.49,0,0,1-3.73,2.53A1.91,1.91,0,0,1,76,84.45c0-1.57.88-4.87,3.67-4.87,1.21,0,1.49.63,1.49,1.31A3.17,3.17,0,0,1,78,83.78a5.36,5.36,0,0,0,0,.55C78,85.26,78.33,85.48,79,85.48Zm.79-5.18c-.7,0-1.36,1.47-1.63,2.82a2.29,2.29,0,0,0,2-2.26C80.11,80.52,80,80.3,79.77,80.3Z"/><path class="cls-11" d="M84.19,85.48a3.1,3.1,0,0,0,2.4-1.38h.46a4.49,4.49,0,0,1-3.73,2.53,1.92,1.92,0,0,1-2.12-2.18c0-1.57.89-4.87,3.67-4.87,1.21,0,1.49.63,1.49,1.31a3.17,3.17,0,0,1-3.12,2.89c0,.19,0,.38,0,.55C83.21,85.26,83.54,85.48,84.19,85.48ZM85,80.3c-.7,0-1.36,1.47-1.63,2.82a2.29,2.29,0,0,0,2-2.26C85.32,80.52,85.23,80.3,85,80.3Z"/><path class="cls-11" d="M93,79.7l-2.72,1.9a2.3,2.3,0,0,1,.45,0,1.44,1.44,0,0,1,1.49,1.6,2.4,2.4,0,0,1,0,.52l-.15.68a2.13,2.13,0,0,0-.07.44c0,.28.11.51.53.51a.92.92,0,0,0,.48-.08,1.5,1.5,0,0,1-1.27,1.41c-1.11,0-1.71-.56-1.71-1.56a3.22,3.22,0,0,1,.09-.72l.1-.53a2.43,2.43,0,0,0,.06-.51c0-.39-.14-.65-.49-.65a1.71,1.71,0,0,0-1,.5L88,86.54h-2l2-9.31,2-.27-1,4.82,2.62-2.08Z"/></g></g></g></svg>