<svg xmlns="http://www.w3.org/2000/svg" viewBox="0 0 600 718.48"><defs><style>.cls-1{fill:#cf3339}.cls-2{fill:#fff}.cls-3{fill:#009ade}</style></defs><title>logo-footer-en</title><g id="Layer_2" data-name="Layer 2"><g id="extras"><path d="M459.2,85.48h2.62l2.93,8.3h0l2.86-8.3h2.58v10.6h-1.77V87.9h0l-2.94,8.18H464L461,87.9h0v8.18H459.2Z" class="cls-1"/><path d="M472.46,85.48h4.4a4.9,4.9,0,0,1,2.11.42A3.93,3.93,0,0,1,480.43,87a4.79,4.79,0,0,1,.84,1.69,8,8,0,0,1,0,4.12,4.71,4.71,0,0,1-.84,1.69A3.83,3.83,0,0,1,479,95.66a4.9,4.9,0,0,1-2.11.42h-4.4Zm1.85,9.09h1.83a4.69,4.69,0,0,0,1.78-.29,2.67,2.67,0,0,0,1.09-.8,3,3,0,0,0,.53-1.21,7.48,7.48,0,0,0,0-3,2.85,2.85,0,0,0-.53-1.2,2.59,2.59,0,0,0-1.09-.8,4.51,4.51,0,0,0-1.78-.29h-1.83Z" class="cls-1"/><path d="M486,85.23h1.62l-4.27,11.1h-1.62Z" class="cls-1"/><path d="M498.71,90.78a5.74,5.74,0,0,1-.44,2.27,5.27,5.27,0,0,1-1.19,1.75,5.33,5.33,0,0,1-1.74,1.13,5.41,5.41,0,0,1-2.07.4,5.65,5.65,0,0,1-2.21-.42,5.09,5.09,0,0,1-1.73-1.17A5.33,5.33,0,0,1,488.2,93a6,6,0,0,1-.41-2.21,5.74,5.74,0,0,1,.44-2.27,5.27,5.27,0,0,1,1.19-1.75,5.59,5.59,0,0,1,5.92-1.13,5.5,5.5,0,0,1,1.74,1.13,5.27,5.27,0,0,1,1.19,1.75A5.74,5.74,0,0,1,498.71,90.78Zm-1.19,0a5,5,0,0,0-.33-1.85,4.49,4.49,0,0,0-.9-1.46,4.12,4.12,0,0,0-3-1.27,4.28,4.28,0,0,0-1.69.33,4,4,0,0,0-1.36.94,4.35,4.35,0,0,0-.91,1.46,5,5,0,0,0-.33,1.85,5.2,5.2,0,0,0,.3,1.78,4.42,4.42,0,0,0,.85,1.46,4.15,4.15,0,0,0,3.14,1.35,4.18,4.18,0,0,0,3-1.28,4.45,4.45,0,0,0,.9-1.45A5,5,0,0,0,497.52,90.78ZM492.16,94h-1V87.81h2.34a2.81,2.81,0,0,1,1.68.42,1.56,1.56,0,0,1,.56,1.35,1.51,1.51,0,0,1-.46,1.22,2.13,2.13,0,0,1-1.14.46l1.72,2.7h-1.14l-1.59-2.63h-1Zm1.14-3.49.54,0a1.25,1.25,0,0,0,.45-.13.78.78,0,0,0,.31-.29,1,1,0,0,0,.12-.52.75.75,0,0,0-.12-.45.87.87,0,0,0-.32-.25,1.24,1.24,0,0,0-.43-.11l-.47,0h-1.22v1.8Z" class="cls-1"/><path d="M117.05,62.34a8.55,8.55,0,0,1,6.27,3.06,11,11,0,0,1,2.88,5.13,9.65,9.65,0,0,1-.38,5.56,13.66,13.66,0,0,1-3.61,5.28l-2.09,2,.07.07,6.47,6.44L122.23,94l-5.68-6.45L102.42,73.13l8-7.65C112.62,63.41,114.82,62.36,117.05,62.34Zm2,7.8a4.74,4.74,0,0,0-3.37-1.76,5.58,5.58,0,0,0-3.63,1.68L110,72.28l7,7.66,3.12-2.71Q122.33,73.56,119.1,70.14Z" class="cls-1"/><path d="M137.12,54.6,140.37,59l-.38.55a4.35,4.35,0,0,0-1.52.73q-2.1,1.53-1.82,5.49l1.66,2.27L144,75.3l-4.81,3.52-4.78-7.15L127.2,62.3l4.27-3.73,2.36,3.31.29-.21q-.6-4.55,2-6.48C136.38,55,136.7,54.84,137.12,54.6Z" class="cls-1"/><path d="M160.26,53.62l-10.39,6.22q3.18,4.6,7.74,1.93a15,15,0,0,0,4.54-4.49l.58,0,1.48,4.27a18.55,18.55,0,0,1-4.89,4.33,10.32,10.32,0,0,1-8.12,1.46q-3.87-1-6.43-5.4a11.22,11.22,0,0,1-1.67-8.24A9.64,9.64,0,0,1,148,47.45a8.36,8.36,0,0,1,6.42-1.26,8.21,8.21,0,0,1,4.94,4.12,19.62,19.62,0,0,1,1.12,2.35Zm-5.73-1.25a4,4,0,0,0-2.07-1.92,3,3,0,0,0-2.51.41A4,4,0,0,0,148,53.33a6,6,0,0,0,.31,3.62l6.44-4Z" class="cls-1"/><path d="M172,36.38l1.14,4.31-.55.51a11.92,11.92,0,0,0-2.91-.06,7.09,7.09,0,0,0-2.25.57,2.44,2.44,0,0,0-1.3,1.24,1.75,1.75,0,0,0,0,1.5,1.8,1.8,0,0,0,1.4,1,14,14,0,0,0,2.93.05,23.64,23.64,0,0,1,3.26,0,6.27,6.27,0,0,1,2.6.82,5,5,0,0,1,2,2.3,6.43,6.43,0,0,1,.6,3.4,6.77,6.77,0,0,1-1.47,3.47,10.1,10.1,0,0,1-3.76,2.84A18.31,18.31,0,0,1,167.07,60l-1.38-4.49.37-.57a11.69,11.69,0,0,0,3.59.35,8,8,0,0,0,3-.65,2.77,2.77,0,0,0,1.45-1.36,1.87,1.87,0,0,0,0-1.6,1.79,1.79,0,0,0-1.4-1,13.86,13.86,0,0,0-2.92,0c-1.34,0-2.45,0-3.34,0a5.83,5.83,0,0,1-2.6-.83,5.16,5.16,0,0,1-2-2.35,6,6,0,0,1-.05-5.25,9,9,0,0,1,4.6-4.22A16,16,0,0,1,172,36.38Z" class="cls-1"/><path d="M195.81,38.29l-11.28,4.37q2.35,5.09,7.3,3.21a14.94,14.94,0,0,0,5.23-3.66l.58.12.73,4.46a18.5,18.5,0,0,1-5.56,3.44,10.3,10.3,0,0,1-8.24.07c-2.43-1.12-4.23-3.26-5.43-6.41a11.17,11.17,0,0,1-.25-8.4,9.65,9.65,0,0,1,5.88-5.36A8.34,8.34,0,0,1,191.3,30a8.17,8.17,0,0,1,4.18,4.9,19.18,19.18,0,0,1,.71,2.5Zm-5.43-2.2a3.94,3.94,0,0,0-1.71-2.24,3,3,0,0,0-2.55,0,4,4,0,0,0-2.32,2.1,6,6,0,0,0-.3,3.63l7-2.85Z" class="cls-1"/><path d="M212.18,29.91a3.52,3.52,0,0,0-1.34-2.16,2.65,2.65,0,0,0-2.28-.25,6.92,6.92,0,0,0-3.61,3l1.43,5,2.79,8.74-5.74,1.64-2.06-8.34L197.9,26.28l5.29-2,.84,2.92.3-.08a15.1,15.1,0,0,1,4.29-4.58,7.72,7.72,0,0,1,5.42,0,5.31,5.31,0,0,1,2.86,3.81l1.52,5.75,2.77,8.7-5.78,1.65Z" class="cls-1"/><path d="M235.92,32.35l.58.34.18,3.57a13.54,13.54,0,0,1-4.25,2.39q-6,.68-7.17-4.48l-.57-3.68L223,23l-2.71.59-.29-.25-.39-3.26,2.59-.56-.73-3.37,4.93-2.86.47.27.89,4.75L233,17.15l.24.27.43,3.25-5.21,1.13,1.86,9.85a3,3,0,0,0,1,1.88,2.32,2.32,0,0,0,1.88.2A6.8,6.8,0,0,0,235.92,32.35Z" class="cls-1"/><path d="M254.38,24.71l-11.94,2c.85,3.63,3,5.18,6.51,4.62a15,15,0,0,0,5.86-2.52l.53.23-.18,4.52A18.61,18.61,0,0,1,249,35.8a10.33,10.33,0,0,1-8.09-1.61,10.85,10.85,0,0,1-4-7.37,11.24,11.24,0,0,1,1.45-8.28,9.67,9.67,0,0,1,6.85-4,8.35,8.35,0,0,1,6.43,1.17,8.22,8.22,0,0,1,3.1,5.64,17.9,17.9,0,0,1,.18,2.6Zm-4.87-3.25a4,4,0,0,0-1.23-2.55,3,3,0,0,0-2.49-.53,4,4,0,0,0-2.7,1.59,6,6,0,0,0-1,3.49l7.46-1.37Z" class="cls-1"/><path d="M276.89,22.94l.48,3.73a1.85,1.85,0,0,0,.3,1,.84.84,0,0,0,.76.22,5.33,5.33,0,0,0,1.19-.29l.43.32-.2,3.16a7.71,7.71,0,0,1-3.2,1.42,4,4,0,0,1-2.41-.72,4.28,4.28,0,0,1-1.5-2.06l-.35,0a18.1,18.1,0,0,1-4.18,3.48,8.56,8.56,0,0,1-7-2.15q-2.67-2.57-3.12-7.51-.48-5.25,2-8.32a10.35,10.35,0,0,1,7.42-3.51,17.39,17.39,0,0,1,2.89,0l-1-10,5.85-1Zm-13.38-1.06a10.56,10.56,0,0,0,1.56,5.2,3.43,3.43,0,0,0,3.29,1.5,4.86,4.86,0,0,0,3.45-2.16L271.67,24l-.84-7.65a7.85,7.85,0,0,0-3.38-.49C264.48,16.09,263.16,18.11,263.51,21.88Z" class="cls-1"/><path d="M307.16,12.89q2.1,2.64,2.15,7.38c0,3.67-.85,6.5-2.65,8.5a9.79,9.79,0,0,1-7.55,3.05,14.64,14.64,0,0,1-5-1L291,32l-.72-.57.23-8.5L290,.5l5.91-.5-.05,13.55h.27a15.93,15.93,0,0,1,2.4-2,14.24,14.24,0,0,1,2.59-1.3A7.24,7.24,0,0,1,307.16,12.89Zm-4.61,13.39a7.92,7.92,0,0,0,1.21-4.93,9,9,0,0,0-1.05-4.69,3.35,3.35,0,0,0-3-1.58A5.81,5.81,0,0,0,295.83,17l0,5.1.14,5a7.15,7.15,0,0,0,3.14.78A4.19,4.19,0,0,0,302.55,26.28Z" class="cls-1"/><path d="M317,14l3.13,11.8.36,0,4.27-10.94.95-3.62,5.1.25-7.77,19a19.71,19.71,0,0,1-2.66,4.77,11,11,0,0,1-3.51,2.87,21.29,21.29,0,0,1-5.3,1.77l-.45-.07a12.38,12.38,0,0,1-2.33-3.61l.21-.57a15.94,15.94,0,0,0,4.73-1.22,11.3,11.3,0,0,0,3.64-2.84l-6.58-21,5.66,0Z" class="cls-1"/><ellipse cx="301.9" cy="155.44" class="cls-1" rx="184.08" ry="102.91"/><path d="M151.39,160.88c-2.56,9.7,1.33,18.3,13.7,18.3,6.94,0,13-4,14.41-9.86,1.54-6.5-2.08-10.34-6.36-14.67l-4-4.19c-5.27-5.38-9.31-10.23-7.37-18.27,2.74-11.54,15-18.75,28.71-18.75,7.3,0,13,2.06,17.51,6,9.14,9.18-2.17,15.06-4.69,14.5a2.35,2.35,0,0,1-.85-.27c2.4-7.44-.17-15.69-10.53-15.69-5.81,0-13,3.1-14.24,8.37-1.43,6,2.88,10.11,6.76,14l3.67,3.6c5.85,5.67,10.62,11,8.53,19.79-3,12.58-15.63,20-30.52,20-8.2,0-16.34-2.45-20.89-7.57C136.43,166,146.48,160.79,151.39,160.88Z" class="cls-2"/><path d="M254.73,208.27l14.43-31.87h.24c1.79,4.26,5.85,6.74,11.73,6.74,18.59,0,31.55-17.94,33.17-31.13a18.41,18.41,0,0,0,.08-3.84c-.55-6.38-4.88-11.07-14.12-11.07a24.6,24.6,0,0,0-17,6.83l-.24-.19,1.54-3.6a16,16,0,0,0-9.35-7.87l-30.34,67.56A17,17,0,0,0,254.73,208.27Zm45.19-59c-.93,7.46-10,28.22-21.55,28.22-4.6,0-6-3.52-5.58-6.75.8-6.32,9.47-27.92,20.88-27.92C298.39,142.78,300.33,145.8,299.92,149.23Z" class="cls-2"/><path d="M251,176.87a5.39,5.39,0,0,1-2.28.6c-1.79,0-2.13-2.4-2-3.65.19-1.64,2.12-5.89,3-7.66l13.21-28a18.94,18.94,0,0,0-13.33,0l-3.24,5.66c-1.77-4.38-5.86-6.76-11.87-6.76-18.45,0-33.57,17.65-35.21,31-1,8.1,3.27,15,14,15,8.72,0,16-5.09,20.56-10.89l.24.2a28.58,28.58,0,0,0-.84,3.76c-.5,3.8,2.47,6.93,7.32,6.93a20,20,0,0,0,8.53-2.08l1.87-4.14Zm-8.3-28.17c-.94,7.46-11.31,28.21-23,28.21-4.35,0-5.7-3.74-5.3-6.75.89-7.36,10.91-27.38,22.2-27.38C241.06,142.78,243.06,145.39,242.66,148.7Z" class="cls-2"/><path d="M364.57,156.67l7.77-15s-4.34-.31-6.93-.46c-1.9-.12-6.47-.56-6.47-.56l-3.73,6.7c-3.51,6.74-15,29.07-25.47,29.07-2.2,0-3.62-.85-3.4-2.72.29-2.29,8.79-18,8.79-18,1.83-3.42,4.52-8.59,4.94-12,.51-4.07-3-6.65-7.89-6.65-4.22,0-9.15,1.87-13.39,4.5a10.63,10.63,0,0,1,1.1,2.59,13.54,13.54,0,0,1,3.31-.89,1.74,1.74,0,0,1,1.9,2.19c-.19,1.67-7.88,17.06-7.88,17.06-1.85,3.52-4.68,8.8-5.13,12.45-.61,5.08,3.62,8.2,9.51,8.16,10.24,0,18.39-6.67,24.21-14.6l.23.22a26.18,26.18,0,0,0-1.87,6.83c-.47,3.95,2.15,7.55,7.4,7.55a21.8,21.8,0,0,0,12.87-4.72v0a6.22,6.22,0,0,1-.37-3.11c0-.15,0-.28,0-.42a8.09,8.09,0,0,1-3.76,1.6c-2,0-2.06-2-1.91-3.23C358.94,169.1,362.66,160.81,364.57,156.67Z" class="cls-2"/><path d="M442.37,137.58c-6.89-4.71-19-8.63-40.08-9.13l4.83-10.68a18.1,18.1,0,0,0-13,0l-5.19,10.85c-14,.63-30.55,4.37-60.76-1.68l-.8,1.3c16.84,6.94,42.57,8.43,57.72,8.43l-11,23.07c-1,2.16-2.29,4.92-3.39,7.71a23,23,0,0,0-2.38,7.82c-.56,4.64,3.61,8.06,9.38,8.06,6.65,0,12.25-3.89,16.53-7.85l-.05-.16a13.19,13.19,0,0,1-1.3-3,37.68,37.68,0,0,1-2.93,2.52,8.61,8.61,0,0,1-4.72,1.9c-2.42,0-2.68-1.71-2.49-3.26.37-2.89,3.3-9.11,4.68-12l11.55-25.6c11.55-1.15,26-2.76,33.57,1.84-11,.85-22,4.23-28.82,12.17a28.9,28.9,0,0,0-7.07,15.66,22.4,22.4,0,0,0,.14,5.35c1.45,7.46,8.24,12.45,18.89,12.45,17.9,0,33.55-14.09,35.27-28a15.83,15.83,0,0,0-3.12-12.61c5.94,2.29,10.45,5.93,11.61,7.81a13.94,13.94,0,0,0,7.3-7C464.21,141.08,454.11,138.15,442.37,137.58Zm-14.6,33.68c-8.47,11.75-21.93,12-17.14-4.71.74-2.64,6.87-24.12,25.21-25.78a10.88,10.88,0,0,1,1.64,3.94C438.8,151.28,433.69,163.24,427.77,171.26Z" class="cls-2"/><polygon points="332.48 251.55 325.04 226.21 277.52 233.52 290.65 259.87 332.48 251.55" class="cls-3"/><path d="M276.1,276.3l6.38,1.57,3.3-15.29-11.2-22.47-9.3,47.45c.32.29.63.59,1,.9Z" class="cls-3"/><path d="M287.74,279.16l24.73,6.07,3.88,18.17c.76-.33,1.51-.63,2.24-.91L333.12,257l-42.41,8.44Z" class="cls-3"/><polygon points="230.33 207.8 182.69 197.92 178.8 222.22 221 232.76 230.33 207.8" class="cls-3"/><path d="M244.91,289.08c3.05.12,6.16.69,8.06-1.59a9.42,9.42,0,0,1,4.31-3.23l-23.17-69.87-8,21.3Z" class="cls-3"/><path d="M239.9,290l-18.21-51.8-42.78-10.68L191.31,255l28.6,9.15,4.35,38.22L226.71,324l4.54-1.17c0-.32,0-.63,0-.94.61-6.19,4.69-9.89,6.82-12.85a6.12,6.12,0,0,0,1.28-2.68c.42-3.52-4.06-6.83-2.69-11.56C237.43,292.2,238.56,290.76,239.9,290Z" class="cls-3"/><polygon points="463.96 225.31 444.6 215.87 414.31 232.99 433.95 246.59 463.96 225.31" class="cls-3"/><path d="M438.21,293.79l9.58,34.09-4,12.46.9,3.07c5.18-.82,9.29.57,13.11,2.74l-25.63-94.52L414,238.28l16.69,57.06Z" class="cls-3"/><polygon points="463.86 349.97 479.22 296.04 467.81 228.55 437.29 251.93 463.86 349.97" class="cls-3"/><polygon points="543.83 285.82 538.95 262.12 493.23 270.86 503.42 295.31 543.83 285.82" class="cls-3"/><path d="M478,356.7c.86.12,1.68.28,2.47.46l18.05-59.09-8.69-20.87L468.25,353A26,26,0,0,0,478,356.7Z" class="cls-3"/><path d="M485.25,358.67c7,2.93,11.37,8.21,16.39,13.6l8.9-9.43a12.16,12.16,0,0,0-.31-5c-1.92-5.34-11-7.21-7.2-15.76s14-1.71,19.12-7.47c2.3-2.56,4.24-4,6-4.55L544,290.94l-41,9.62Z" class="cls-3"/><polygon points="600 374.77 580.07 325.75 551.48 331.94 567.19 376.08 600 374.77" class="cls-3"/><path d="M532.42,412.49c10.68.44,18.17.91,23.52,1.4L595.34,381l-28,1.12Z" class="cls-3"/><path d="M541.26,354.47c-1.91,9.63-6.68,8.06-13.4,9.13s-6.12,8.44-13.8,9.52c-2,.28-3.11-.29-3.65-1.36l-20.7,21.92.88,10.06.2,2.26L488,411.16c15.56.36,28,.72,38.11,1.09-.57-.29-1.13-.55-1.69-.79l37.42-32.52-15.94-44.76-4.37,4.63C543.44,342.48,542.74,347.07,541.26,354.47Z" class="cls-3"/><polygon points="158.07 253.6 148.51 240.37 118.15 246.78 125.9 263.6 158.07 253.6" class="cls-3"/><path d="M105.53,311.3a10,10,0,0,1,4-3.13l12.63-40.76-6.83-16.24-17.18,59L100,313C102.18,313.1,104.16,312.94,105.53,311.3Z" class="cls-3"/><path d="M113.58,308.32c2,.82,3.78,2.55,5.63,4.36l22-10.32,18.1-45-33.56,11.66Z" class="cls-3"/><polygon points="67.89 278.64 48.42 279.13 33.34 311.92 55.02 315.43 67.89 278.64" class="cls-3"/><path d="M35.63,317.4l30.61,36.88L82.14,366c1.64-1.89,3.25-3.91,4.91-5.92L56.1,321.41Z" class="cls-3"/><path d="M83.93,348.75a12.85,12.85,0,0,1-.08-3.1c.81-8.18,7.68-12,8.1-15.53s-4-6.83-2.69-11.56c1.1-3.8,3.06-5.13,5.31-5.53L72.42,279.91,60.18,319.08Z" class="cls-3"/><path d="M227.36,329.6l1.58,13.9,7,3.94,2.92-19.14,22.53,5.08c3.21-1.07,7-1,10.66-1l-4.26-13.23Z" class="cls-3"/><polygon points="214.52 267.59 184.5 257.45 172.32 269.72 203.56 283.72 214.52 267.59" class="cls-3"/><path d="M173.58,287.18l24.87,34.17.64,15.58c7.29-.62,5.28,7,9.63,8.19a10.89,10.89,0,0,1,1.47.52l-7.46-56.38-32.36-15.85,3,13.85Z" class="cls-3"/><path d="M333,381.38l.38.36,14-14.7-.88-32.72-20.95,12.3Z" class="cls-3"/><polygon points="398.54 251.76 382.96 239.99 350.94 256.27 365.76 272.58 398.54 251.76" class="cls-3"/><polygon points="363.55 350.14 362.92 277.93 349.35 262 351.99 362.24 363.55 350.14" class="cls-3"/><polygon points="368.16 347.72 373.15 350.13 382.15 305.26 397.74 302.07 401.31 255.58 367.57 278.65 368.16 347.72" class="cls-3"/><polygon points="266.54 293.95 298.41 305.62 307.55 288.98 277.23 281.04 266.54 293.95" class="cls-3"/><path d="M321.25,376.64a16.25,16.25,0,0,1,6.89,1.45l-18.08-84.53-8.16,16.08,4,17c1.37,1.19,2.74,2.45,4.18,3.61,7.33,5.9,6.37,12.64,3.44,25.93-.13.56-.26,1.08-.4,1.58l4.43,19.1A28.48,28.48,0,0,1,321.25,376.64Z" class="cls-3"/><path d="M284.25,328.69c7.4-7.46,12.39-7.78,16.67-5.58l-2.78-12L265,297.71l11.1,34.43C279.15,331.8,282,331,284.25,328.69Z" class="cls-3"/><path d="M310.35,363.71a9.92,9.92,0,0,1-5.45,3.56l4.27,13a14,14,0,0,1,4.45-2.53Z" class="cls-3"/><path d="M225,370.56a12.16,12.16,0,0,1-.07,2.94l18.17,9.76-9.43-21.12,1.88-12.33c-3.31-.18-6.7-.22-10.12-.07l-8.83-77.35L206.7,288l8.3,62.76c-1.33.22-2.65.46-4,.74a65.54,65.54,0,0,0-11.18,4.07l.29,7a5.64,5.64,0,0,0,5.18-1.17C217.14,352.15,224.24,363.35,225,370.56Z" class="cls-3"/><path d="M18.17,378.21c-6.26-9.33.5-9.38,5.77-11a11.5,11.5,0,0,1,7.3.21L33.49,340,6.33,339,0,389.81l17.41-2.62C18.29,384.29,20.37,381.5,18.17,378.21Z" class="cls-3"/><path d="M55.13,412c5.33-.17,11.23-.34,17.77-.51l-1.15-6-3-15.5,19-12.78L39,341.17l-2.35,28.77c1.53.85,3.2,1.84,5.09,3,8.29,5,5.51,7.62,4.61,12.59-.8,4.42,4.61,6.84,5,11.29l16.26,9.78c-2.42.74-4.83,1.58-6.91,2.43L39.81,396.45a13.94,13.94,0,0,0-3.69-1.24c-5.44-.75-9.7,4.71-16.47-1.19a10,10,0,0,1-1-1l-13,2,30.68,17.64C41.66,412.42,47.87,412.19,55.13,412Z" class="cls-3"/><polygon points="189.62 319.04 171.72 294.86 123.51 317.53 147.91 340.97 189.62 319.04" class="cls-3"/><path d="M139.46,404.17a130.72,130.72,0,0,1,11.74-6l-7.47-52.8-20.81-20,8.38,51.76,6.77,8.7Z" class="cls-3"/><path d="M178.88,356c5-6.61,9.92-1.48,15,2.76l-1.41-34.21-42.28,22.24,6.94,49.13a42.76,42.76,0,0,1,6.59-1.62,13.74,13.74,0,0,1-1.92-6.47c-.15-7.64,6.08-11.13,6.09-14.42s-4.72-6.44-3.94-10.85C165.61,353,175.53,360.4,178.88,356Z" class="cls-3"/><polygon points="130.7 384.78 115.1 365.07 76.06 391.39 97.01 409.65 130.7 384.78" class="cls-3"/><path d="M78.26,411.32,90.19,411,75.84,398.53Z" class="cls-3"/><path d="M129,410.29l5.51-3.26L133.2,389.4l-28.91,21.35,17.36-.33Z" class="cls-3"/><polygon points="441.36 324.11 434.34 299.93 388.3 309.4 400.82 334.29 441.36 324.11" class="cls-3"/><polygon points="378.05 352.5 391.28 358.89 396.08 337.16 385.41 315.93 378.05 352.5" class="cls-3"/><path d="M436.85,345.19l5.08-15.84-41.09,10.31-4.68,21.16c6.39-9.56,20.82-1.27,28.37-8.87C429.58,346.86,433.51,345.1,436.85,345.19Z" class="cls-3"/><path d="M404.08,380.69c-4.06-4.37-11.06-7.5-10.1-14.36l-25-11.58-1.57,24.46,37.87,13.17Z" class="cls-3"/><path d="M336.87,385.58c2.88,3.52,5.61,7.47,9.19,10.63l15.48-15.6,2.17-23.11Z" class="cls-3"/><path d="M375,409.34l15.06.17,14.37-12-40.18-12.38-14,14.12a22,22,0,0,0,4,1.78C358.92,402.52,368.58,403.65,375,409.34Z" class="cls-3"/><polygon points="482.09 373.41 431.25 373.73 439.56 402.87 484.7 400.63 482.09 373.41" class="cls-3"/><path d="M434,404.92l-7.1-24.86-12.07,29.78,16.95.25Z" class="cls-3"/><path d="M437.82,410.19l13.27.23h0c11.27.2,21.44.4,30.62.6l2.55-4.7-45.76,2.27Z" class="cls-3"/><polygon points="239.64 358.55 281.46 369.8 290.75 345.25 243.52 334.56 239.64 358.55" class="cls-3"/><path d="M308.15,407.13a10.26,10.26,0,0,1,.74,1.69l4.33,0-18.74-57-7.92,20.94,10.83,31.06C300.53,404.66,305.15,401.71,308.15,407.13Z" class="cls-3"/><path d="M290.23,398.38l-8.09-23.21-42.4-11.41L250.12,387l35.18,18.89a1.32,1.32,0,0,0-.3-1.83C280.11,400,285.34,397.05,290.23,398.38Z" class="cls-3"/><path d="M214.61,378.66l-22.53,11.06-3.4,19.72,23.81-.25Z" class="cls-3"/><path d="M220.3,377.41l-1,31.72c22.74-.21,43.4-.33,59.41-.36Z" class="cls-3"/><path d="M504.2,718.48H68.54A13.94,13.94,0,0,1,54.7,706.62L42.34,634.93H52.89v5.76l3.13-.54,11.13,64.52a1.39,1.39,0,0,0,1.39,1.24H504.2a1.39,1.39,0,0,0,1.39-1.23l0-.14,11-64,12.42,2.13-11,63.94A13.92,13.92,0,0,1,504.2,718.48Z" class="cls-3"/><path d="M550.5,518.47l-12.42-2.14,9.68-56.1a14.14,14.14,0,0,1,9-11c1-6.75,1-10.66.73-12.75-16.06-2.05-83.5-3.27-106.84-3.69-59.57-1.07-127.47-1.64-163.75-1.66H285.8c-36.34,0-104.26.59-163.75,1.66-23.34.42-90.76,1.64-106.84,3.7-.22,2.08-.28,6,.73,12.74a14.14,14.14,0,0,1,9,11l3.38,19.59L15.94,482l-3.41-19.78a1.42,1.42,0,0,0-1.38-1.24H5.22l-1-5.14c-2.78-15-2.37-24.43,1.25-28.77l1.14-1.37,1.69-.57c6.47-2.17,37.23-3.49,113.48-4.87,59.56-1.07,127.57-1.64,164-1.66h1.15c36.34,0,104.33.59,164,1.66,76.25,1.38,107,2.7,113.48,4.87l1.69.57,1.14,1.36c3.58,4.27,4,14,1.25,28.78l-1,5.14h-5.93a1.42,1.42,0,0,0-1.38,1.24l0,.14Z" class="cls-3"/><path d="M137.44,519.69l.59-.19c-.19-.26-.35-.54-.52-.81C137.49,519,137.46,519.36,137.44,519.69Z" class="cls-3"/><path d="M141.61,470.83c0,5.88,3.09,7.92,8.69,7.92-.08-.73-1.13-1.38-1.13-5.55,0-8.75,4.3-14.88,11.37-17.83L148.43,512a14.63,14.63,0,0,1,1.87-.08c14.38,0,24.61,18.56,36.23,18.56,4.39,0,7.63-5,8.45-12.84a17.48,17.48,0,0,1-6.83,1.31c-10.31,0-18.84-8.67-27.29-10.55l12.51-58.71c-1.06-.08-2.11-.17-3.25-.17C156.55,449.56,141.61,460,141.61,470.83Z" class="cls-3"/><path d="M51.27,498.78,23.73,628.43H52.89l12.35-58.1h1c36.46,0,58.52-28.74,58.52-54.64,0-21-14.58-40.15-47.78-40.15-33.82,0-71.08,25.89-71.08,53,0,14.68,7.69,19.77,21.66,19.77-.2-1.83-2.83-3.46-2.83-13.85,0-31,19.65-49.55,52.45-49.55,17.82,0,25.11,12.65,25.11,27.74,0,21.81-15,48.51-35.44,50.14L81.25,494.7Z" class="cls-3"/><path d="M386.12,505.57a15.49,15.49,0,0,0-15.4-15.51,15.33,15.33,0,0,0-15.21,15.51,15.16,15.16,0,0,0,15.21,15.3A15.33,15.33,0,0,0,386.12,505.57Z" class="cls-3"/><path d="M557.65,548.21c0-9.69-4-18.61-21.17-18.61-39.47,0-52,46.71-52,69,0,.33,0,.65,0,1-3.28,6.73-6.85,11-13.49,11-5.78,0-7.7-3.29-7.7-8.14,0-10.85,9.24-34.3,9.24-50,0-15.51-9.05-21.9-21.37-21.9-6,0-14.44,1.55-22.53,10.85l2.12-10.08H403.06l-13.14,62.38c-2.92,9.61-9.81,16.89-17.28,16.89-5.39,0-7.9-1.74-7.9-7.16a27,27,0,0,1,.77-6.21l13.87-65.9H351.66l-13.09,62.22c-2.9,9.69-9.82,17.05-17.34,17.05-5.38,0-7.89-1.74-7.89-7.16a26.5,26.5,0,0,1,.78-6.21l12.31-58.14H338l1.55-7.76H328l6.55-30.62L306,504.6l-5.78,26.74h-6.36l-1.54,7.76h6.37l-11.56,54.46c-2.89,9.69-8.09,17.05-15.6,17.05-5.38,0-7.89-1.74-7.89-7.16a27,27,0,0,1,.77-6.21l13.86-65.9H250.58l-13.09,62.22c-2.89,9.69-7.9,17.05-15.41,17.05-4.23,0-5.78-3.48-5.78-8a27.11,27.11,0,0,1,.59-5.42l13.86-65.9H203l-5.45,25.89c-5.37,2.25-10.83,3.77-15.34,3.77a4.47,4.47,0,0,1-2.12-.39c0-20.35-8.08-31-24.65-31-39.66,0-52.75,46.51-52.75,68.81,0,22.08,12.9,30.61,30.81,30.61,23.68,0,42.93-22.47,46-58.34a77.32,77.32,0,0,0,16.15-4.46l-5.75,27.34a64.11,64.11,0,0,0-1.54,12.59c0,16.29,9.05,23.26,20.6,23.26,8.09,0,18.87-2.52,28.5-18.41,1.15,12,8.08,18.41,19.06,18.41,7.82,0,19.57-2.42,29.58-17.07,2,11.87,10.12,17.07,20.09,17.07,7.87,0,20.72-2.46,31.25-17.37,2,12.09,10.11,17.37,20.15,17.37,6.94,0,17.75-1.91,27.43-12.58l-2.41,11.42h27.73L423.46,566c2.89-9.69,8.09-17.82,15-17.82,4.61,0,6.93,3.49,6.93,9.88,0,12.4-8.66,36.24-8.66,49.43,0,11.05,6,21.89,22.72,21.89,7.66,0,17.92-2.29,27.13-16.88,4.17,11.83,14.26,16.88,27.74,16.88,15.4,0,29.26-6.59,33.3-28.68-6.16,5.42-15.4,10.27-22.71,10.27-6.75,0-11.95-3.87-11.95-16.08,0-1.75.2-3.88.39-5.82C536.48,587.74,557.65,570.68,557.65,548.21ZM538,539.87c3.66,0,4.8,3.1,4.8,7.94,0,16.29-13.08,31.22-28.1,32C518.76,561.38,528.39,539.87,538,539.87ZM163.55,571.28c-3.08,22.86-12.9,40.31-22.33,40.31-7.32,0-9.82-2.92-9.82-15.7,0-19,11.94-54.47,25.61-54.47,5,0,6.93,3.1,7.32,11.25-3.47,1.55-6,5-6,10.46C158.35,567,159.51,570.3,163.55,571.28Z" class="cls-3"/><path d="M374.22,635.07l-17.05,50-.73-50.29c-1.06-.08-2.12-.17-3.25-.17-13.57,0-28.52,10.39-28.52,21.27,0,5.88,3.09,7.93,8.69,7.93-.08-.74-1.13-1.4-1.13-5.56,0-9,4.3-15.37,13.16-18.15V696h11.94l16.08-41.62V696h12L408,635.07h-5.68l-17.46,50v-50Z" class="cls-3"/><path d="M191.73,468.78c-14.14,0-20.88,17.58-20.88,28.62,0,9.73,5.28,13.17,10.81,13.17,5.76,0,9.66-3.85,12.1-7.61.65,4.74,3.57,7.61,8,7.61s5.93-2.54,8.12-8.26a4.18,4.18,0,0,1-1.79.32c-2.27,0-3.32-.73-3.32-3A12.22,12.22,0,0,1,205,497l5.85-27.8H199.2l-.89,4.33V473C198.31,470.58,196.35,468.78,191.73,468.78Zm1.94,26.65c-1,4.75-4.38,7.2-6.74,7.2-1.46,0-4.06-.08-4.06-6.37,0-7.7,4.47-22.4,11.37-22.4a3.16,3.16,0,0,1,3.33,3.1Z" class="cls-3"/><path d="M396.56,683.47c0,9.24,5,13,12.68,13,8.3,0,14.29-4.49,18.72-10,1,7,5.73,10,12.47,10,8.1,0,14-4.27,18.41-9.58L456.91,696h11.7l4.22-20.19c2.28-1.88,4.14-3,6-3,2.12,0,2.93,1.55,2.93,3.93a13.9,13.9,0,0,1-.33,3l-.65,3.2a21.09,21.09,0,0,0-.49,4.25c0,6,3.58,9.32,10.24,9.32,2.11,0,7.15-2.62,7.56-8.42a5.37,5.37,0,0,1-2.85.49c-2.51,0-3.17-1.39-3.17-3a13.68,13.68,0,0,1,.41-2.61l.89-4.09a13.61,13.61,0,0,0,.33-3.11c0-5.23-2.92-9.56-8.94-9.56a15.43,15.43,0,0,0-2.68.32l16.25-11.36h-8l-15.68,12.42,6.09-28.78-12,1.64-8.68,41h0c-4.06,4.66-8,8.25-14.38,8.25-3.89,0-5.84-1.31-5.84-6.87,0-1,.08-2.12.15-3.27,9.75-.57,18.69-7.85,18.69-17.25,0-4.08-1.71-7.85-8.94-7.85-16.1,0-21.57,18.44-21.91,28.16-3.7,4.07-7.47,7.08-13.34,7.08-3.89,0-5.84-1.31-5.84-6.87,0-1,.08-2.12.16-3.27,9.74-.57,18.68-7.85,18.68-17.25,0-4.08-1.7-7.85-8.94-7.85C401.84,654.36,396.56,674.07,396.56,683.47Zm53.77-24.77c1.55,0,2,1.3,2,3.35,0,6.78-5.53,13.08-11.78,13.49C442.21,667.44,446.19,658.7,450.33,658.7Zm-29.15,3.35c0,6.78-5.53,13.08-11.78,13.49,1.62-8.1,5.61-16.84,9.74-16.84C420.69,658.7,421.18,660,421.18,662.05Z" class="cls-3"/></g></g></svg>