<svg xmlns="http://www.w3.org/2000/svg" width="40.459" height="22.278" viewBox="0 0 40.459 22.278"><g transform="translate(882.888 -1017.914)"><g transform="translate(-882.638 1018.164)"><g transform="translate(36.039 3.46)"><path d="M-596.819,1045.816h.276l.309.878h0l.3-.878h.273v1.121h-.187v-.865h0l-.311.865h-.162l-.311-.865h0v.865h-.187Z" transform="translate(596.819 -1045.789)" fill="#cf3339"/><path d="M-585.722,1045.816h.465a.521.521,0,0,1,.223.044.415.415,0,0,1,.154.12.515.515,0,0,1,.089.178.8.8,0,0,1,.029.218.8.8,0,0,1-.029.218.514.514,0,0,1-.089.178.414.414,0,0,1-.154.12.523.523,0,0,1-.223.044h-.465Zm.2.961h.193a.485.485,0,0,0,.188-.031.272.272,0,0,0,.115-.085.307.307,0,0,0,.056-.127.784.784,0,0,0,.015-.158.786.786,0,0,0-.015-.158.309.309,0,0,0-.056-.127.275.275,0,0,0-.115-.085.492.492,0,0,0-.188-.031h-.193Z" transform="translate(587.121 -1045.789)" fill="#cf3339"/><path d="M-577.5,1045.6h.171l-.451,1.175h-.171Z" transform="translate(580.33 -1045.604)" fill="#cf3339"/><path d="M-571.729,1046.191a.6.6,0,0,1-.046.24.56.56,0,0,1-.126.186.569.569,0,0,1-.184.119.577.577,0,0,1-.219.042.592.592,0,0,1-.233-.045.548.548,0,0,1-.182-.123.573.573,0,0,1-.119-.186.622.622,0,0,1-.043-.233.6.6,0,0,1,.046-.24.564.564,0,0,1,.126-.185.57.57,0,0,1,.185-.12.591.591,0,0,1,.221-.042.581.581,0,0,1,.219.042.572.572,0,0,1,.184.12.561.561,0,0,1,.126.185A.6.6,0,0,1-571.729,1046.191Zm-.126,0a.542.542,0,0,0-.035-.2.462.462,0,0,0-.1-.154.434.434,0,0,0-.143-.1.438.438,0,0,0-.176-.035.447.447,0,0,0-.178.035.432.432,0,0,0-.144.1.462.462,0,0,0-.1.154.539.539,0,0,0-.035.2.555.555,0,0,0,.031.188.464.464,0,0,0,.09.154.43.43,0,0,0,.142.1.445.445,0,0,0,.188.038.438.438,0,0,0,.176-.035.438.438,0,0,0,.143-.1.463.463,0,0,0,.1-.153A.542.542,0,0,0-571.855,1046.191Zm-.565.336h-.107v-.65h.247a.3.3,0,0,1,.177.044.166.166,0,0,1,.06.143.159.159,0,0,1-.049.129.218.218,0,0,1-.121.049l.182.286h-.121l-.168-.278h-.1Zm.119-.369.057,0a.123.123,0,0,0,.048-.014.088.088,0,0,0,.033-.031.1.1,0,0,0,.013-.056.075.075,0,0,0-.013-.047.088.088,0,0,0-.034-.027.139.139,0,0,0-.046-.012l-.049,0h-.129v.19Z" transform="translate(575.9 -1045.604)" fill="#cf3339"/></g><g transform="translate(0)"><ellipse cx="19.433" cy="10.889" rx="19.433" ry="10.889" fill="#cf3339" stroke="#fff" stroke-width="0.5"/><g transform="translate(2.524 6.445)"><path d="M-861.6,1074.3a1.389,1.389,0,0,0,1.446,1.937,1.5,1.5,0,0,0,1.522-1.043c.162-.688-.22-1.094-.672-1.552l-.426-.444a1.935,1.935,0,0,1-.778-1.933,2.939,2.939,0,0,1,3.031-1.984,2.693,2.693,0,0,1,1.848.631.847.847,0,0,1-.5,1.535.265.265,0,0,1-.09-.029c.253-.787-.018-1.661-1.111-1.661-.614,0-1.37.328-1.5.886-.151.634.3,1.069.714,1.484l.387.381c.617.6,1.12,1.166.9,2.094a3.078,3.078,0,0,1-3.222,2.117,2.976,2.976,0,0,1-2.2-.8C-863.177,1074.844-862.117,1074.288-861.6,1074.3Z" transform="translate(862.618 -1069.278)" fill="#fff"/><path d="M-775.213,1093.123l1.523-3.373h.026a1.23,1.23,0,0,0,1.238.714,3.845,3.845,0,0,0,3.5-3.294,1.98,1.98,0,0,0,.009-.407c-.059-.676-.516-1.172-1.491-1.172a2.594,2.594,0,0,0-1.793.723l-.025-.021.162-.38a1.691,1.691,0,0,0-.986-.833l-3.2,7.148A1.8,1.8,0,0,0-775.213,1093.123Zm4.771-6.248c-.1.79-1.057,2.986-2.275,2.986a.574.574,0,0,1-.588-.714c.083-.668,1-2.954,2.2-2.954A.586.586,0,0,1-770.442,1086.875Z" transform="translate(787.142 -1083.089)" fill="#fff"/><path d="M-809.1,1093.244a.561.561,0,0,1-.24.064c-.19,0-.225-.254-.208-.386a4.09,4.09,0,0,1,.315-.811l1.394-2.96a2,2,0,0,0-1.408,0l-.342.6a1.222,1.222,0,0,0-1.253-.715,4.075,4.075,0,0,0-3.717,3.283,1.332,1.332,0,0,0,1.482,1.591,2.828,2.828,0,0,0,2.171-1.152l.025.021a3.143,3.143,0,0,0-.089.4c-.052.4.261.733.774.733a2.113,2.113,0,0,0,.9-.22l.2-.438Zm-.877-2.98c-.1.789-1.194,2.985-2.424,2.985a.575.575,0,0,1-.56-.714c.094-.779,1.152-2.9,2.344-2.9C-810.146,1089.637-809.935,1089.913-809.978,1090.264Z" transform="translate(820.632 -1086.532)" fill="#fff"/><g transform="translate(17.978 2.497)"><path d="M-714.488,1091.161l.82-1.59s-.459-.032-.732-.048c-.2-.013-.682-.059-.682-.059l-.394.709c-.37.713-1.581,3.076-2.688,3.076-.232,0-.383-.09-.359-.288a18.773,18.773,0,0,1,.928-1.9,4.6,4.6,0,0,0,.522-1.27c.054-.431-.321-.7-.833-.7a2.866,2.866,0,0,0-1.414.476,1.136,1.136,0,0,1,.116.274,1.464,1.464,0,0,1,.35-.094.185.185,0,0,1,.2.232c-.02.176-.833,1.8-.833,1.8a4.835,4.835,0,0,0-.541,1.318c-.064.537.382.868,1,.864a3.286,3.286,0,0,0,2.555-1.545l.024.023a2.8,2.8,0,0,0-.2.723.709.709,0,0,0,.782.8,2.3,2.3,0,0,0,1.359-.5v-.006a.666.666,0,0,1-.039-.329c0-.016,0-.029,0-.044a.849.849,0,0,1-.4.169c-.214,0-.218-.212-.2-.342A8.464,8.464,0,0,1-714.488,1091.161Z" transform="translate(720.035 -1089.084)" fill="#fff"/></g><path d="M-695.08,1074.1a7.878,7.878,0,0,0-4.231-.966l.51-1.13a1.909,1.909,0,0,0-1.377-.005l-.547,1.148a20.109,20.109,0,0,1-6.414-.178l-.085.138a18.142,18.142,0,0,0,6.093.892l-1.161,2.441c-.1.229-.241.521-.357.816a2.447,2.447,0,0,0-.252.828c-.059.491.382.852.991.852a2.65,2.65,0,0,0,1.744-.831l0-.016a1.432,1.432,0,0,1-.137-.317,3.727,3.727,0,0,1-.31.267.9.9,0,0,1-.5.2c-.256,0-.283-.181-.263-.345a6.149,6.149,0,0,1,.495-1.269l1.219-2.709c1.219-.122,2.74-.292,3.544.195a4.388,4.388,0,0,0-3.043,1.287,3.063,3.063,0,0,0-.746,1.657,2.36,2.36,0,0,0,.015.566,1.8,1.8,0,0,0,1.994,1.318,3.809,3.809,0,0,0,3.723-2.967,1.674,1.674,0,0,0-.329-1.334,2.856,2.856,0,0,1,1.226.827,1.476,1.476,0,0,0,.771-.737A5.234,5.234,0,0,0-695.08,1074.1Zm-1.542,3.564c-.894,1.244-2.315,1.274-1.809-.5.078-.28.725-2.552,2.662-2.729a1.159,1.159,0,0,1,.173.417A4.563,4.563,0,0,1-696.621,1077.659Z" transform="translate(726.817 -1071.541)" fill="#fff"/></g></g></g></g></svg>