<svg xmlns="http://www.w3.org/2000/svg" viewBox="0 0 600 727.39"><defs><style>.cls-1{fill:none;}.cls-2{fill:#cf3339;}.cls-3{fill:#fff;}.cls-4{fill:#edb458;}.cls-5{fill:#7f5b49;}.cls-6{fill:#d19d50;}.cls-7{fill:#009ade;}</style></defs><title>logo-web-en</title><g id="Layer_2" data-name="Layer 2"><g id="extras"><path class="cls-1" d="M177.41,36.71l-.14-.62a4,4,0,0,0-1.71-2.25,3,3,0,0,0-2.55,0,4,4,0,0,0-2.32,2.1,6,6,0,0,0-.3,3.63Z"/><path class="cls-1" d="M252,27.08a3.44,3.44,0,0,0,3.29,1.5,4.86,4.86,0,0,0,3.45-2.16L258.56,24l-.84-7.65a7.83,7.83,0,0,0-3.38-.49c-3,.27-4.29,2.29-3.94,6.06A10.56,10.56,0,0,0,252,27.08Z"/><path class="cls-1" d="M141.66,53l-.24-.59a3.92,3.92,0,0,0-2.07-1.92,3,3,0,0,0-2.51.41,4,4,0,0,0-1.93,2.46,6,6,0,0,0,.31,3.63Z"/><path class="cls-1" d="M107,77.23q2.19-3.67-1-7.09a4.74,4.74,0,0,0-3.37-1.76A5.58,5.58,0,0,0,99,70.06L96.9,72.28l7,7.66Z"/><path class="cls-1" d="M480.73,90.45a1.3,1.3,0,0,0,.46-.13,1,1,0,0,0,.31-.29,1,1,0,0,0,.12-.53.74.74,0,0,0-.13-.44.8.8,0,0,0-.32-.25,1.18,1.18,0,0,0-.43-.11l-.46,0h-1.22v1.8h1.13Z"/><path class="cls-1" d="M260.15,264.62l1.44-7.39c-1.34-.11-2.68-.23-4-.36Z"/><path class="cls-1" d="M465.9,93.47a3,3,0,0,0,.54-1.2,8,8,0,0,0,0-3,3,3,0,0,0-.54-1.2,2.55,2.55,0,0,0-1.08-.8A4.57,4.57,0,0,0,463,87h-1.83v7.56H463a4.78,4.78,0,0,0,1.78-.28A2.57,2.57,0,0,0,465.9,93.47Z"/><path class="cls-1" d="M477,94a4.11,4.11,0,0,0,3.13,1.35,4.18,4.18,0,0,0,3-1.28,4.58,4.58,0,0,0,.91-1.45,5.54,5.54,0,0,0,0-3.71,4.52,4.52,0,0,0-.91-1.46,4.18,4.18,0,0,0-3-1.28,4.29,4.29,0,0,0-1.69.34,4.15,4.15,0,0,0-1.36.94,4.35,4.35,0,0,0-.91,1.46,5,5,0,0,0-.33,1.85,5.2,5.2,0,0,0,.3,1.78A4.44,4.44,0,0,0,477,94Zm1-6.21h2.33a2.77,2.77,0,0,1,1.68.42,1.87,1.87,0,0,1,.11,2.57,2.16,2.16,0,0,1-1.15.46l1.73,2.7H481.6L480,91.33h-.95V94h-1Z"/><path class="cls-1" d="M286,27.93a4.19,4.19,0,0,0,3.49-1.65,7.92,7.92,0,0,0,1.2-4.93,8.9,8.9,0,0,0-1-4.68,3.33,3.33,0,0,0-3-1.59A5.83,5.83,0,0,0,282.72,17l0,5.1.14,5A7.15,7.15,0,0,0,286,27.93Z"/><path class="cls-1" d="M236.4,21.46a4,4,0,0,0-1.22-2.55,3,3,0,0,0-2.5-.53A3.94,3.94,0,0,0,230,20a6,6,0,0,0-1,3.49l7.46-1.37Z"/><polygon class="cls-2" points="447.87 87.9 447.89 87.9 450.84 96.08 452.37 96.08 455.32 87.9 455.35 87.9 455.35 96.08 457.12 96.08 457.12 85.48 454.53 85.48 451.67 93.78 451.64 93.78 448.71 85.48 446.1 85.48 446.1 96.08 447.87 96.08 447.87 87.9"/><path class="cls-2" d="M465.86,95.66a3.83,3.83,0,0,0,1.46-1.13,4.71,4.71,0,0,0,.84-1.69,7.72,7.72,0,0,0,0-4.12,4.71,4.71,0,0,0-.84-1.69,3.83,3.83,0,0,0-1.46-1.13,4.9,4.9,0,0,0-2.11-.42h-4.4v10.6h4.4A4.9,4.9,0,0,0,465.86,95.66Zm-4.65-1.1V87H463a4.57,4.57,0,0,1,1.78.29,2.55,2.55,0,0,1,1.08.8,3,3,0,0,1,.54,1.2,8,8,0,0,1,0,3,3,3,0,0,1-.54,1.2,2.57,2.57,0,0,1-1.08.81,4.78,4.78,0,0,1-1.78.28Z"/><polygon class="cls-2" points="474.52 85.23 472.9 85.23 468.63 96.33 470.25 96.33 474.52 85.23"/><path class="cls-2" d="M476.22,94.74A5.19,5.19,0,0,0,478,95.91a5.69,5.69,0,0,0,2.21.42,5.41,5.41,0,0,0,2.07-.4A5.33,5.33,0,0,0,484,94.8a5.27,5.27,0,0,0,1.19-1.75,6.08,6.08,0,0,0,0-4.54A5.27,5.27,0,0,0,484,86.76a5.33,5.33,0,0,0-1.74-1.13,5.41,5.41,0,0,0-2.07-.4,5.53,5.53,0,0,0-2.1.4,5.28,5.28,0,0,0-2.94,2.88,5.74,5.74,0,0,0-.44,2.27,5.86,5.86,0,0,0,.41,2.2A5.43,5.43,0,0,0,476.22,94.74Zm0-5.81a4.35,4.35,0,0,1,.91-1.46,4.15,4.15,0,0,1,1.36-.94,4.29,4.29,0,0,1,1.69-.34,4.18,4.18,0,0,1,3,1.28,4.52,4.52,0,0,1,.91,1.46,5.54,5.54,0,0,1,0,3.71,4.58,4.58,0,0,1-.91,1.45,4.18,4.18,0,0,1-3,1.28A4.11,4.11,0,0,1,477,94a4.44,4.44,0,0,1-.86-1.46,5.2,5.2,0,0,1-.3-1.78A5,5,0,0,1,476.2,88.93Z"/><path class="cls-2" d="M479.06,91.33H480L481.6,94h1.15L481,91.26a2.16,2.16,0,0,0,1.15-.46,1.87,1.87,0,0,0-.11-2.57,2.77,2.77,0,0,0-1.68-.42h-2.33V94h1Zm0-2.66h1.22l.46,0a1.18,1.18,0,0,1,.43.11.8.8,0,0,1,.32.25.74.74,0,0,1,.13.44,1,1,0,0,1-.12.53,1,1,0,0,1-.31.29,1.3,1.3,0,0,1-.46.13l-.54,0h-1.13Z"/><path class="cls-2" d="M109.12,94l4.43-4.19-6.47-6.44-.06-.07,2.08-2a13.66,13.66,0,0,0,3.61-5.28,9.57,9.57,0,0,0,.38-5.56,11,11,0,0,0-2.88-5.13A8.55,8.55,0,0,0,104,62.34q-3.35,0-6.63,3.14l-8,7.65,14.13,14.46ZM99,70.06a5.58,5.58,0,0,1,3.63-1.68A4.74,4.74,0,0,1,106,70.14q3.24,3.4,1,7.09l-3.12,2.71-7-7.66Z"/><path class="cls-2" d="M126.06,78.82l4.81-3.52-5.67-7.22-1.66-2.27q-.29-4,1.82-5.49a4.53,4.53,0,0,1,1.52-.73l.38-.55L124,54.6c-.42.24-.74.43-1,.59q-2.64,1.94-2,6.48l-.29.21-2.36-3.31-4.27,3.73,7.19,9.37Z"/><path class="cls-2" d="M138.09,67.36a10.36,10.36,0,0,0,8.12-1.46,18.73,18.73,0,0,0,4.89-4.33l-1.47-4.27-.59,0a15,15,0,0,1-4.54,4.49q-4.56,2.68-7.74-1.93l10.39-6.22.22-1a21.3,21.3,0,0,0-1.12-2.35,8.22,8.22,0,0,0-4.95-4.12,8.37,8.37,0,0,0-6.42,1.26A9.65,9.65,0,0,0,130,53.72,11.19,11.19,0,0,0,131.66,62Q134.23,66.32,138.09,67.36Zm-3.18-14a4,4,0,0,1,1.93-2.46,3,3,0,0,1,2.51-.41,3.92,3.92,0,0,1,2.07,1.92l.24.59-6.44,4A6,6,0,0,1,134.91,53.32Z"/><path class="cls-2" d="M150.73,49.73a5.79,5.79,0,0,0,2.59.83c.89.06,2,.07,3.34,0a14,14,0,0,1,2.93,0,1.82,1.82,0,0,1,1.4,1,1.9,1.9,0,0,1,0,1.6,2.71,2.71,0,0,1-1.44,1.36,8.05,8.05,0,0,1-3,.65,11.69,11.69,0,0,1-3.59-.35l-.37.57L154,60a18.26,18.26,0,0,0,6.61-1.64,10.23,10.23,0,0,0,3.77-2.84A6.75,6.75,0,0,0,165.8,52a6.42,6.42,0,0,0-.59-3.4,5,5,0,0,0-2-2.3,6.23,6.23,0,0,0-2.59-.82,23.79,23.79,0,0,0-3.27,0,14,14,0,0,1-2.93-.05,1.82,1.82,0,0,1-1.4-1,1.75,1.75,0,0,1,0-1.5,2.47,2.47,0,0,1,1.3-1.24,7.16,7.16,0,0,1,2.26-.57,11.83,11.83,0,0,1,2.9.06l.56-.51-1.15-4.31a16,16,0,0,0-5.63,1.53,8.9,8.9,0,0,0-4.59,4.22,5.94,5.94,0,0,0,0,5.25A5.11,5.11,0,0,0,150.73,49.73Z"/><path class="cls-2" d="M171.46,50.3a10.33,10.33,0,0,0,8.25-.07,18.38,18.38,0,0,0,5.55-3.44l-.73-4.46-.57-.12a15,15,0,0,1-5.23,3.66q-4.95,1.88-7.31-3.21l11.29-4.37.37-.91a18.31,18.31,0,0,0-.71-2.51A8.15,8.15,0,0,0,178.19,30a8.34,8.34,0,0,0-6.53.15,9.62,9.62,0,0,0-5.88,5.36,11.17,11.17,0,0,0,.26,8.4Q167.83,48.61,171.46,50.3Zm-.77-14.37a4,4,0,0,1,2.32-2.1,3,3,0,0,1,2.55,0,4,4,0,0,1,1.71,2.25l.14.62-7,2.85A6,6,0,0,1,170.69,35.93Z"/><path class="cls-2" d="M190.33,45.91l5.73-1.64-2.79-8.74-1.43-5a7,7,0,0,1,3.61-3,2.64,2.64,0,0,1,2.29.26,3.51,3.51,0,0,1,1.34,2.15l3.23,12.57,5.77-1.66-2.77-8.7-1.51-5.75a5.32,5.32,0,0,0-2.87-3.81,7.72,7.72,0,0,0-5.42,0,15.1,15.1,0,0,0-4.29,4.58l-.3.08-.84-2.92-5.29,2,3.47,11.29Z"/><path class="cls-2" d="M206.9,23.32l.29.25,2.72-.59,1.67,7.51.57,3.68q1.13,5.16,7.17,4.48a13.54,13.54,0,0,0,4.25-2.39l-.18-3.57-.58-.34A6.74,6.74,0,0,1,220,33.73a2.32,2.32,0,0,1-1.88-.2,3.1,3.1,0,0,1-1-1.88l-1.86-9.85,5.21-1.13-.43-3.25-.24-.27-5.21,1.14-.9-4.75-.47-.27-4.93,2.86.73,3.37-2.58.56Z"/><path class="cls-2" d="M227.83,34.19a10.32,10.32,0,0,0,8.09,1.61,18.56,18.56,0,0,0,6.13-2.24l.19-4.52-.54-.23a15,15,0,0,1-5.86,2.52c-3.49.56-5.65-1-6.51-4.62l11.95-2,.55-.81a19.22,19.22,0,0,0-.19-2.6,8.18,8.18,0,0,0-3.1-5.64,8.34,8.34,0,0,0-6.43-1.17,9.67,9.67,0,0,0-6.85,4,11.24,11.24,0,0,0-1.45,8.28Q224.61,31.8,227.83,34.19ZM230,20a3.94,3.94,0,0,1,2.69-1.59,3,3,0,0,1,2.5.53,4,4,0,0,1,1.22,2.55v.63L229,23.46A6,6,0,0,1,230,20Z"/><path class="cls-2" d="M248.06,31.11a8.53,8.53,0,0,0,7,2.15,18.1,18.1,0,0,0,4.18-3.48l.36,0a4.21,4.21,0,0,0,1.49,2.06,4.06,4.06,0,0,0,2.41.72,7.65,7.65,0,0,0,3.2-1.42L267,28l-.44-.32a5.33,5.33,0,0,1-1.19.29.84.84,0,0,1-.76-.22,2,2,0,0,1-.3-1l-.48-3.73L262.1.77l-5.85,1,1,10a17.26,17.26,0,0,0-2.88,0A10.32,10.32,0,0,0,247,15.28c-1.68,2-2.35,4.82-2,8.32Q245.4,28.55,248.06,31.11Zm6.28-15.29a7.83,7.83,0,0,1,3.38.49l.84,7.65.14,2.46a4.86,4.86,0,0,1-3.45,2.16,3.44,3.44,0,0,1-3.29-1.5,10.56,10.56,0,0,1-1.56-5.2C250.05,18.11,251.37,16.09,254.34,15.82Z"/><path class="cls-2" d="M277.12,31.41l.72.57L281,30.84a14.68,14.68,0,0,0,5,1,9.77,9.77,0,0,0,7.55-3.05c1.8-2,2.69-4.83,2.65-8.5,0-3.16-.74-5.62-2.15-7.38A7.24,7.24,0,0,0,288,10.28a14.14,14.14,0,0,0-2.58,1.3,15.49,15.49,0,0,0-2.41,2h-.27L282.79,0l-5.92.5.48,22.41ZM282.72,17a5.83,5.83,0,0,1,3.84-1.92,3.33,3.33,0,0,1,3,1.59,8.9,8.9,0,0,1,1,4.68,7.92,7.92,0,0,1-1.2,4.93A4.19,4.19,0,0,1,286,27.93a7.15,7.15,0,0,1-3.14-.78l-.14-5Z"/><path class="cls-2" d="M300.62,34.52a15.94,15.94,0,0,1-4.73,1.22l-.21.57A12.21,12.21,0,0,0,298,39.92l.44.07a21.15,21.15,0,0,0,5.3-1.77,11,11,0,0,0,3.51-2.87,19.37,19.37,0,0,0,2.66-4.77l7.78-19-5.11-.26-.94,3.63-4.28,10.94-.35,0L303.89,14l-.55-3.34-5.66,0,6.58,21A11.2,11.2,0,0,1,300.62,34.52Z"/><path class="cls-2" d="M206.59,176.91c11.65,0,22-20.75,23-28.21.4-3.31-1.59-5.92-6.06-5.92-11.29,0-21.32,20-22.21,27.38C200.89,173.17,202.23,176.91,206.59,176.91Z"/><path class="cls-2" d="M397.52,166.55c-4.78,16.75,8.68,16.47,17.14,4.71,5.93-8,11-20,9.72-26.55a10.88,10.88,0,0,0-1.64-3.94C404.39,142.43,398.26,163.91,397.52,166.55Z"/><path class="cls-2" d="M178.41,210.48a9.26,9.26,0,0,1,7.24-1.51l54.88,11.32a9.41,9.41,0,0,1,7,6.26l10,30.32c1.33.13,2.67.25,4,.36l1.1-5.63a9.39,9.39,0,0,1,7.79-7.5l54.75-8.37a9.35,9.35,0,0,1,10.4,6.72l3.43,12c77.23-12.23,133.81-51.94,133.81-99,0-56.83-82.41-102.91-184.08-102.91S104.71,98.61,104.71,155.44c0,32,26.11,60.57,67.07,79.45l2.73-18.1A9.35,9.35,0,0,1,178.41,210.48ZM315,126.89c30.2,6,46.77,2.31,60.75,1.68L381,117.72a18.13,18.13,0,0,1,13,0l-4.84,10.68c21.12.5,33.19,4.42,40.09,9.13,11.74.57,21.83,3.5,24.34,5.95a14,14,0,0,1-7.31,7c-1.15-1.88-5.67-5.52-11.61-7.81a15.79,15.79,0,0,1,3.12,12.61c-1.72,14-17.37,28-35.27,28-10.64,0-17.44-5-18.89-12.46a22.4,22.4,0,0,1-.14-5.35,28.9,28.9,0,0,1,7.07-15.66c6.85-7.94,17.84-11.32,28.82-12.17-7.61-4.6-22-3-33.57-1.84l-11.54,25.6c-1.39,2.88-4.32,9.1-4.69,12-.18,1.55.07,3.26,2.5,3.26a8.51,8.51,0,0,0,4.71-1.9,34.3,34.3,0,0,0,2.93-2.52,14,14,0,0,0,1.3,3l0,.15c-4.28,4-9.88,7.85-16.53,7.85-5.76,0-9.94-3.41-9.38-8.06a23.11,23.11,0,0,1,2.39-7.82c1.1-2.78,2.41-5.55,3.38-7.71l11-23.07c-15.15,0-40.88-1.49-57.71-8.43Zm-4.93,16.35a13.59,13.59,0,0,0-3.32.89,10.41,10.41,0,0,0-1.1-2.59c4.24-2.63,9.17-4.5,13.39-4.5,4.85,0,8.41,2.58,7.9,6.65-.43,3.41-3.12,8.59-5,12,0,0-8.5,15.7-8.78,18-.23,1.87,1.2,2.72,3.4,2.72,10.48,0,21.95-22.33,25.46-29.07l3.74-6.7s4.56.44,6.46.56c2.59.15,6.94.46,6.94.46l-7.77,15c-1.92,4.14-5.63,12.43-6.14,16.5-.15,1.23-.12,3.23,1.91,3.23a8,8,0,0,0,3.76-1.6c0,.15,0,.28,0,.42a6.22,6.22,0,0,0,.38,3.11v.06a21.89,21.89,0,0,1-12.87,4.72c-5.25,0-7.88-3.61-7.41-7.56a26.18,26.18,0,0,1,1.87-6.83l-.23-.22c-5.81,7.94-14,14.57-24.2,14.61-5.9,0-10.13-3.09-9.52-8.16.46-3.65,3.28-8.93,5.13-12.46,0,0,7.7-15.39,7.89-17.06A1.75,1.75,0,0,0,310.1,143.24Zm-38.64-3.1-1.53,3.6.23.19a24.63,24.63,0,0,1,17-6.83c9.24,0,13.57,4.69,14.13,11.07a18.92,18.92,0,0,1-.09,3.85c-1.62,13.19-14.58,31.13-33.16,31.13-5.88,0-9.95-2.49-11.73-6.75h-.25l-14.43,31.88a17,17,0,0,1-9.84-8.45l30.34-67.56A16,16,0,0,1,271.46,140.14Zm-38.24,3.69,3.24-5.66a19,19,0,0,1,13.34,0l-13.21,28c-.87,1.77-2.79,6-3,7.66-.17,1.26.17,3.65,2,3.65a5.38,5.38,0,0,0,2.27-.6l0,0L236,181.05a20,20,0,0,1-8.52,2.08c-4.86,0-7.83-3.12-7.33-6.93a28.58,28.58,0,0,1,.84-3.76l-.24-.2c-4.56,5.8-11.83,10.89-20.56,10.89-10.76,0-15-6.93-14-15,1.63-13.38,16.75-31,35.2-31C227.37,137.07,231.45,139.45,233.22,143.83ZM132.08,176.18c-8.76-10.14,1.29-15.39,6.2-15.3-2.56,9.7,1.33,18.31,13.7,18.31,6.94,0,13-4,14.42-9.87,1.53-6.5-2.09-10.34-6.37-14.67l-4-4.19c-5.28-5.38-9.31-10.23-7.38-18.27,2.74-11.54,14.95-18.75,28.72-18.75,7.3,0,13,2.06,17.5,6,9.14,9.18-2.17,15.06-4.69,14.5a2.46,2.46,0,0,1-.85-.27c2.4-7.44-.17-15.69-10.53-15.69-5.81,0-13,3.1-14.24,8.37-1.43,6,2.89,10.11,6.77,14L175,144c5.85,5.67,10.62,11,8.53,19.79-3,12.58-15.63,20-30.52,20C144.77,183.75,136.63,181.29,132.08,176.18Z"/><path class="cls-2" d="M265.26,177.45c11.54,0,20.62-20.76,21.56-28.22.41-3.43-1.54-6.45-6.25-6.45-11.41,0-20.09,21.6-20.88,27.92C259.3,173.93,260.66,177.45,265.26,177.45Z"/><path class="cls-3" d="M183.49,163.74c2.09-8.77-2.68-14.12-8.53-19.79l-3.66-3.6c-3.88-3.92-8.2-8-6.77-14,1.27-5.27,8.43-8.37,14.24-8.37,10.36,0,12.93,8.25,10.53,15.69a2.46,2.46,0,0,0,.85.27c2.52.56,13.83-5.32,4.69-14.5-4.5-3.91-10.2-6-17.5-6-13.77,0-26,7.21-28.72,18.75-1.93,8,2.1,12.89,7.38,18.27l4,4.19c4.28,4.33,7.9,8.17,6.37,14.67-1.41,5.86-7.48,9.87-14.42,9.87-12.37,0-16.26-8.61-13.7-18.31-4.91-.09-15,5.16-6.2,15.3,4.55,5.11,12.69,7.57,20.89,7.57C167.86,183.75,180.5,176.32,183.49,163.74Z"/><path class="cls-3" d="M241.62,208.28l14.43-31.88h.25c1.78,4.26,5.85,6.75,11.73,6.75,18.58,0,31.54-17.94,33.16-31.13a18.92,18.92,0,0,0,.09-3.85c-.56-6.38-4.89-11.07-14.13-11.07a24.63,24.63,0,0,0-17,6.83l-.23-.19,1.53-3.6a16,16,0,0,0-9.34-7.87l-30.34,67.56A17,17,0,0,0,241.62,208.28Zm18.07-37.58c.79-6.32,9.47-27.92,20.88-27.92,4.71,0,6.66,3,6.25,6.45-.94,7.46-10,28.22-21.56,28.22C260.66,177.45,259.3,173.93,259.69,170.7Z"/><path class="cls-3" d="M186.15,168.1c-1,8.1,3.27,15,14,15,8.73,0,16-5.09,20.56-10.89l.24.2a28.58,28.58,0,0,0-.84,3.76c-.5,3.81,2.47,6.93,7.33,6.93a20,20,0,0,0,8.52-2.08l1.88-4.14,0,0a5.38,5.38,0,0,1-2.27.6c-1.8,0-2.14-2.39-2-3.65.19-1.64,2.11-5.89,3-7.66l13.21-28a19,19,0,0,0-13.34,0l-3.24,5.66c-1.77-4.38-5.85-6.76-11.87-6.76C202.9,137.07,187.78,154.72,186.15,168.1Zm15.13,2.06c.89-7.36,10.92-27.38,22.21-27.38,4.47,0,6.46,2.61,6.06,5.92-.93,7.46-11.31,28.21-23,28.21C202.23,176.91,200.89,173.17,201.28,170.16Z"/><path class="cls-3" d="M304.11,162.49C302.26,166,299.44,171.3,299,175c-.61,5.07,3.62,8.2,9.52,8.16,10.23,0,18.39-6.67,24.2-14.61l.23.22a26.18,26.18,0,0,0-1.87,6.83c-.47,3.95,2.16,7.56,7.41,7.56a21.89,21.89,0,0,0,12.87-4.72v-.06a6.22,6.22,0,0,1-.38-3.11c0-.14,0-.27,0-.42a8,8,0,0,1-3.76,1.6c-2,0-2.06-2-1.91-3.23.51-4.07,4.22-12.36,6.14-16.5l7.77-15s-4.35-.31-6.94-.46c-1.9-.12-6.46-.56-6.46-.56l-3.74,6.7c-3.51,6.74-15,29.07-25.46,29.07-2.2,0-3.63-.85-3.4-2.72.28-2.29,8.78-18,8.78-18,1.83-3.41,4.52-8.59,5-12,.51-4.07-3.05-6.65-7.9-6.65-4.22,0-9.15,1.87-13.39,4.5a10.41,10.41,0,0,1,1.1,2.59,13.59,13.59,0,0,1,3.32-.89,1.75,1.75,0,0,1,1.9,2.19C311.81,147.1,304.11,162.49,304.11,162.49Z"/><path class="cls-3" d="M361,159.69c-1,2.16-2.28,4.93-3.38,7.71a23.11,23.11,0,0,0-2.39,7.82c-.56,4.65,3.62,8.06,9.38,8.06,6.65,0,12.25-3.89,16.53-7.85l0-.15a14,14,0,0,1-1.3-3,34.3,34.3,0,0,1-2.93,2.52,8.51,8.51,0,0,1-4.71,1.9c-2.43,0-2.68-1.71-2.5-3.26.37-2.89,3.3-9.11,4.69-12l11.54-25.6c11.55-1.15,26-2.76,33.57,1.84-11,.85-22,4.23-28.82,12.17a28.9,28.9,0,0,0-7.07,15.66,22.4,22.4,0,0,0,.14,5.35c1.45,7.46,8.25,12.46,18.89,12.46,17.9,0,33.55-14.09,35.27-28a15.79,15.79,0,0,0-3.12-12.61c5.94,2.29,10.46,5.93,11.61,7.81a14,14,0,0,0,7.31-7c-2.51-2.45-12.6-5.38-24.34-5.95-6.9-4.71-19-8.63-40.09-9.13L394,117.77a18.13,18.13,0,0,0-13,0l-5.19,10.85c-14,.63-30.55,4.37-60.75-1.68l-.8,1.3c16.83,6.94,42.56,8.43,57.71,8.43Zm63.43-15c1.31,6.57-3.79,18.53-9.72,26.55-8.46,11.76-21.92,12-17.14-4.71.74-2.64,6.87-24.12,25.22-25.78A10.88,10.88,0,0,1,424.38,144.71Z"/><path class="cls-3" d="M599.3,391.29l-23-56.45a9.36,9.36,0,0,0-10.71-5.62L535.41,336l8.79-21.65a9.46,9.46,0,0,0,.51-5.39l-6.21-31.62a9.36,9.36,0,0,0-10.93-7.43l-51,9.69-5.29-31.28a9.44,9.44,0,0,0-5.09-6.87l-27.32-13.59a9.3,9.3,0,0,0-8.6.15l-34.72,18.89a9.45,9.45,0,0,0-4.77,10l-7.44-5.73a9.31,9.31,0,0,0-9.79-1L342.2,265.49l-3.14-11-3.43-12a9.35,9.35,0,0,0-10.4-6.72l-54.75,8.37a9.39,9.39,0,0,0-7.79,7.5l-1.1,5.63-1.44,7.39-2.57-7.75-10-30.32a9.41,9.41,0,0,0-7-6.26L185.65,209a9.38,9.38,0,0,0-11.14,7.82l-2.73,18.1-2.16,14.32a9.49,9.49,0,0,0,.73,5.31l8.4,18.64-.34.35a2.43,2.43,0,0,0-.14-.2l-13.35-18.9a9.33,9.33,0,0,0-9.41-3.78l-34.44,6.71a9.38,9.38,0,0,0-7.21,6.61l-11.72,40.33L93.33,291.1a9.28,9.28,0,0,0-7.92-4.16l-27.6.44a9.35,9.35,0,0,0-8.29,5.33L31.89,329.52a9.47,9.47,0,0,0,1.25,10.14l3,3.58-19-.84a9.43,9.43,0,0,0-9.7,8.24L.08,409.13a9.43,9.43,0,0,0,4.64,9.37l16.93,9.73c-.65.16-1.21.32-1.72.49l-1.95.66a9.3,9.3,0,0,0-4.21,2.88l-1.33,1.58c-5.78,6.94-6.87,18.1-3.51,36.2L10,476a9.4,9.4,0,0,0,2.15,4.46l.44,2.39h2.76a9.17,9.17,0,0,0,2.66.77l3,17.47C11.2,512,5.82,524.57,5.82,536.87c0,18.7,9.78,30.51,27.15,33.31L34,576.32,23,628.18a15.28,15.28,0,0,0,3,12.79,15.06,15.06,0,0,0,11.79,5.67h8.33l10.4,60.26a23.85,23.85,0,0,0,23.67,20.49H492.38A23.72,23.72,0,0,0,516,707.26l11.4-66.12c8.47-5.08,17.62-14.76,21-33.2a15.32,15.32,0,0,0-6.57-15.52c10.37-9.91,16.29-23,16.29-36.94,0-11.17-4-20.11-11.47-25.84l7.93-46a9.26,9.26,0,0,0,2.66-.77H560l.45-2.4a9.4,9.4,0,0,0,2.14-4.45l1.11-6c3.36-18.11,2.27-29.27-3.52-36.21l-.66-.77,37.1-30.93A9.49,9.49,0,0,0,599.3,391.29ZM543,556.18c0,21.26-20,37.4-41.89,38.69-.18,1.83-.37,3.85-.37,5.5,0,11.55,4.92,15.21,11.3,15.21,6.92,0,15.66-4.58,21.49-9.71C529.66,626.77,516.54,633,502,633c-12.75,0-22.3-4.78-26.24-16-8.71,13.8-18.42,16-25.67,16-15.84,0-21.49-10.26-21.49-20.71,0-12.47,8.2-35,8.2-46.76,0-6-2.2-9.35-6.56-9.35-6.56,0-11.48,7.7-14.21,16.86L403.62,631.9H377.39l2.27-10.81C370.5,631.19,360.28,633,353.72,633c-9.51,0-17.22-5-19.06-16.43-10,14.11-22.12,16.43-29.57,16.43-9.43,0-17.08-4.92-19-16.15-9.47,13.86-20.58,16.15-28,16.15-10.38,0-16.94-6-18-17.42-9.11,15-19.31,17.42-27,17.42-10.93,0-19.49-6.6-19.49-22a59.63,59.63,0,0,1,1.46-11.91l5.44-25.87a73.52,73.52,0,0,1-15.28,4.22c-2.92,33.93-21.13,55.19-43.53,55.19-16.94,0-29.14-8.06-29.14-29,0-21.09,12.37-65.09,49.9-65.09,15.67,0,23.31,10.08,23.31,29.33a4.27,4.27,0,0,0,2,.37c4.27,0,9.44-1.43,14.51-3.56l5.16-24.5h26.23l-13.11,62.35a25.39,25.39,0,0,0-.55,5.12c0,4.23,1.46,7.53,5.46,7.53,7.1,0,11.84-7,14.58-16.13l12.38-58.87h26.23l-13.12,62.35a25.28,25.28,0,0,0-.72,5.87c0,5.13,2.37,6.78,7.46,6.78,7.11,0,12-7,14.75-16.13L298,547.56h-6l1.46-7.34h6l5.47-25.3,26.95-3.67-6.2,29H336.6l-1.46,7.34H324.21l-11.65,55a24.9,24.9,0,0,0-.74,5.87c0,5.13,2.37,6.78,7.47,6.78,7.11,0,13.66-7,16.4-16.13l12.39-58.87H374.3l-13.12,62.35a25.36,25.36,0,0,0-.73,5.87c0,5.13,2.37,6.78,7.47,6.78,7.07,0,13.58-6.89,16.35-16l12.43-59h26.23l-2,9.54c7.65-8.8,15.66-10.27,21.31-10.27,11.66,0,20.22,6,20.22,20.72,0,14.85-8.75,37-8.75,47.3,0,4.59,1.83,7.71,7.29,7.71,6.29,0,9.66-4.08,12.76-10.45,0-.31,0-.61,0-.92,0-21.08,11.84-65.27,49.18-65.27C539.12,538.58,543,547,543,556.18ZM492.38,711.32H80.24A7.26,7.26,0,0,1,73,705.09L62.52,644.18h2.91a12.12,12.12,0,0,0,11.85-9.59L87,588.7A69.27,69.27,0,0,0,102.56,585a92.13,92.13,0,0,0-2.11,18.66c0,25.72,15.43,41.07,41.26,41.07,14.73,0,28.41-6.88,38.5-19.37.89-1.11,1.75-2.27,2.59-3.45,3.64,14.38,14.74,23.2,30.31,23.2a38.75,38.75,0,0,0,23.94-7.92c5.23,5.09,12.45,7.92,21.05,7.92a42.54,42.54,0,0,0,25.25-8c5.42,5.14,12.85,8,21.74,8a47.06,47.06,0,0,0,9.65-1,26,26,0,0,0-4.31,14c0,11.67,7.67,19.3,19.6,19.6V696a12.11,12.11,0,0,0,12.11,12.11h11.3a12.08,12.08,0,0,0,7.6-2.69,12.08,12.08,0,0,0,7.61,2.69H380a12.08,12.08,0,0,0,8.4-3.39,25.53,25.53,0,0,0,14.12,3.86,31.76,31.76,0,0,0,15.39-3.86,25.53,25.53,0,0,0,14.12,3.86,32.52,32.52,0,0,0,10.34-1.67,12.1,12.1,0,0,0,5.25,1.2h11.07a12.08,12.08,0,0,0,8-3,23.4,23.4,0,0,0,12.74,3.5c8.64,0,18.43-7.73,19.23-19.24a12.12,12.12,0,0,0-4.23-10.07c.07-.8.11-1.62.11-2.46a23.08,23.08,0,0,0-1.71-8.91l.92-.65a12.11,12.11,0,0,0-6.95-22h-5l.18-.86a11.92,11.92,0,0,0,.23-3.2,46.33,46.33,0,0,0,19.73,4,58,58,0,0,0,8.06-.56l-10.44,60.53A7.27,7.27,0,0,1,492.38,711.32ZM63.9,509.41l28.36-3.85L78.65,570c19.35-1.54,33.53-26.8,33.53-47.43,0-14.28-6.9-26.24-23.76-26.24-31,0-49.62,17.55-49.62,46.87,0,9.83,2.49,11.38,2.68,13.11-13.21,0-20.5-4.82-20.5-18.71,0-25.65,35.26-50.14,67.25-50.14,31.41,0,45.21,18.13,45.21,38,0,24.49-20.88,51.69-55.37,51.69h-1l-11.68,55H37.84ZM188.23,224.79l45.07,9.34-8.83,23.62-39.92-10ZM454.32,250.7l-28.4,20.13L407.34,258,436,241.77Zm3.64,3.07,10.79,63.84-14.53,51-25.14-92.76ZM424.24,275.6,448.49,365c3.33,1.89,6.44,4.38,9.88,6.44l20.46-71.69,8.22,19.74L470,375.46a26,26,0,0,1,4.47,1.43l16.8-55,38.76-9.1-15,37c-1.61.56-3.44,1.85-5.62,4.28-4.89,5.44-14.45-1-18.08,7.06s5,9.86,6.81,14.91a11.62,11.62,0,0,1,.29,4.79L490,389.73,478,402.39l-1.48-17-29.95.16c.51-5.86-.63-9.9-5.18-13.56-2.78-2.24-5.29-4.88-8.09-6.47l.85-2.65c.66-.17,1.31-.33,1.93-.43l-.85-2.92L439,347.74,430,315.48,422.79,317,407,263Zm101,9.92L529.87,308l-38.23,9L482,293.79ZM519.1,427.77l33-28.71L578.6,398l-37.26,31.09C536.29,428.62,529.21,428.19,519.1,427.77Zm-8.34-.32c-9.1-.32-20.18-.63-33.71-.94l2.64-4.87-1-11.65,19.59-20.75c.51,1,1.53,1.56,3.44,1.29,7.26-1,6.7-8,13.05-9s10.87.47,12.68-8.64c1.4-7,2-11.33.23-14.8l4.15-4.39L546.89,396ZM370,424.79c-19.17-.21-37.42-.36-53.29-.45l-8.86-27L303.83,385a9.38,9.38,0,0,0,5.17-3.38l3.09,13.32a18.89,18.89,0,0,1,3.68-.84L311.56,376c.13-.48.27-.94.38-1.47,2.78-12.57,3.69-18.95-3.25-24.53-1.36-1.1-2.66-2.29-4-3.42L301,330.48l7.72-15.21,17.11,80a17.76,17.76,0,0,1,4.59,3.08l-7-32.89,19.82-11.64.84,30.95-13.3,13.92a37.35,37.35,0,0,1,3.32,3.63l25.4-26.57-2.05,21.86-14.64,14.74a22.75,22.75,0,0,0,4,2.84L360,401.88l38,11.71L384.41,425Zm-176.15.09,3.21-18.64,21.32-10.47-2,28.87ZM80.49,406.42,84,425,64,412.93c-.34-4.2-5.43-6.5-4.67-10.68.86-4.69,3.48-7.17-4.36-11.91-1.79-1.08-3.37-2-4.82-2.81l2.23-27.22,46.13,34Zm43.79-23.5L139,401.56,107.17,425.1,87.35,407.82ZM53.09,412.63,77,427c-11.1.31-20,.63-27.22.95l-29-16.68,12.32-1.85a9.93,9.93,0,0,0,.92.91c6.4,5.58,10.43.41,15.58,1.13A13.06,13.06,0,0,1,53.09,412.63Zm36.34,14-2.29-12.08L100.7,426.4C96.75,426.48,93,426.57,89.43,426.66Zm41-.86-16.4.32,27.33-20.18,1.48,19.65ZM146,402.53l-6.41-8.23-7.93-49,19.69,18.92L160,425.33l-12.26.18Zm31.83-86,16.93,22.87-39.46,20.75-23.08-22.18Zm144.82,5.58a13.42,13.42,0,0,1,2-.17c2.64,0,5.6-.1,8.64-.17s6.08-.07,9,.08l.45,16.75c-1.7-.8-3.63-.65-6.42,2.37-2.95,3.21-9.09-.23-11.21,4.45s3.35,5.47,4.6,8.3a4.12,4.12,0,0,1,.29,1.46l-7.89,4.62-7.5-35.18L311,307.39l-23.4-5.74,2.81-13,40.12-8-13.75,43.08A30,30,0,0,1,322.67,322.08Zm-16.33-11.15-8.64,15.75-30.15-11,10.12-12.22Zm-8.9,20.95,2.64,11.35c-4.06-2.08-8.77-1.78-15.78,5.28-2.12,2.13-4.82,2.92-7.72,3.24L266.09,319.2Zm-4.06,92.36H290.3L252,403.68l-9.82-22,40.11,10.79Zm-65.11-36.13c-.74-6.82-7.46-17.41-18.63-8.59a5.31,5.31,0,0,1-4.9,1.11l-.27-6.66a61.6,61.6,0,0,1,10.58-3.86c1.23-.27,2.49-.44,3.75-.65L210.94,310l9.38-14.8,8.36,73.2c3.24-.14,6.44-.11,9.57.06l-1.78,11.65,8.92,20-17.19-9.24A11.86,11.86,0,0,0,228.27,388.11Zm53.4-.72L242.1,376.75l3.67-22.69,44.68,10.11Zm-12.95-47.93,4,12.51c-3.48.06-7,0-10.05,1l-21.35-4.81-2.76,18.1L232,362.51l-1.5-13.15Zm-26.86-12.13a5.81,5.81,0,0,1-1.21,2.54c-2,2.8-5.87,6.29-6.45,12.15,0,.29,0,.58,0,.87L229.87,344l-2.32-20.41-4.11-36.16-27.06-8.67-11.73-26,40.47,10.11,17.23,49a7.14,7.14,0,0,0-3,4.53C238,320.87,242.26,324,241.86,327.33ZM218.34,290.7,208,306l-29.55-13.25,11.52-11.61Zm-11.15,20.5,7.05,53.36a9.23,9.23,0,0,0-1.39-.52c-4.11-1.13-2.24-8.29-9.11-7.72l-.61-14.76-23.52-32.33-.15.08-2.89-13.1Zm-49.76,54.4,40-21,1.33,32.36c-4.75-4-9.41-8.87-14.14-2.61-3.16,4.19-12.55-2.85-14.17,6.21-.74,4.17,3.74,7.16,3.72,10.26s-5.9,6.42-5.76,13.64,7.76,14.52,14.44,14.46a13,13,0,0,0,6.64-1.68L188,425l-22.16.29Zm66.37,29L279,424.24c-15.14,0-34.67.15-56.17.34Zm74.55,29.66-11.86-34,7.49-19.8,17.73,53.89Zm47.54-138.84,12.84,15.07.6,68.31-10.94,11.45Zm80.4,35.89,6.64,22.87-38.35,9.63-11.84-23.54Zm4.94,97.38-7.86-27.57,48.09-.3,2.47,25.75ZM417,370.51c-7.16,7.2-20.83-.65-26.86,8.48l4.45-20.11,38.88-9.75-4.82,15C425.5,364.05,421.79,365.69,417,370.51Zm-26.91-14-4.54,20.56L373,371l7-34.6Zm1.57-33.2-14.75,3-8.52,42.44-4.71-2.27-.57-65.34L395,279.34Zm-27.21,49.83,23.65,11c-.9,6.5,5.72,9.47,9.56,13.61l1.13,11L363,396.29Zm35.25,45.21c.52,1.55,1.69,2.54,4,2.6L402,425.18,391.73,425Zm19.51-21.25,6.71,23.51-2.09,4.88c-5.32-.09-10.68-.17-16-.24Zm11,27L473.52,422l-2.41,4.43c-8.68-.19-18.3-.38-29-.58h0l-12.55-.21Zm-37.8-148.36-31,19.69-14-15.43,30.3-15.4ZM290.36,283.4l-12.42-24.93,44.95-6.92,7,24ZM285.75,286l-3.12,14.46-6-1.48-9.34,11.5c-.29-.29-.59-.56-.89-.84l8.79-44.9Zm-31,23.57c-1.8,2.15-4.73,1.62-7.62,1.5l-17.75-50.51,7.53-20.15,21.94,66.14A8.72,8.72,0,0,0,254.71,309.53ZM149,323.59l-20.82,9.76a18.84,18.84,0,0,0-5.33-4.08l11.52-37.19,31.75-11ZM134.5,286.93,127.17,271,155.9,265l9,12.52Zm-3.53,3.6-12,38.59a9.2,9.2,0,0,0-3.79,2.93c-1.29,1.55-3.17,1.7-5.2,1.63L108.25,331l16.26-55.85Zm-15.16,74a44.06,44.06,0,0,1,12.75-1.4l3.49,21.46-6.56-8.44-22.37,15.05-10-7.38-15-11.09-29-34.9,19.36,3.8,29.29,36.59C102.53,372.42,107.8,366.68,115.81,364.52Zm-16-25.6c-1.29,4.47,3,7.61,2.54,10.94s-6.89,6.95-7.65,14.69a12,12,0,0,0,.07,2.94L72.33,339.41l11.58-37.06,21,31.34C102.74,334.07,100.88,335.32,99.84,338.92ZM79.63,301.15,67.45,336l-20.51-3.33,14.26-31Zm-32.55,58-2.13,26A10.85,10.85,0,0,0,38,385c-5,1.52-11.38,1.57-5.46,10.4,2.09,3.11.13,5.75-.7,8.5L15.4,406.33l6-48ZM25.2,445.33c6.62-2.22,57-3.42,105.56-4.3,56-1,120.37-1.55,155-1.57h1.08c34.59,0,98.94.57,155,1.57,48.59.88,98.93,2.08,105.56,4.3.56.67,3.13,4.85-.11,22.33h-.65a7.31,7.31,0,0,0-7.2,6.24L530.31,527a47,47,0,0,0-7.39-.56c-20.2,0-37.38,10.59-48.53,29.83-1.57-17.7-13.83-28.91-32.16-28.91a38.59,38.59,0,0,0-13.36,2.29,12.08,12.08,0,0,0-5.94-1.56H396.7a12.11,12.11,0,0,0-11.2,7.5,9.64,9.64,0,0,0-.48-1,26.47,26.47,0,0,0,7.77-18.74A26.56,26.56,0,0,0,342,504.69a12,12,0,0,0-11.79-5.44l-27,3.67a12.1,12.1,0,0,0-10.2,9.45l-3.54,16.38a12.1,12.1,0,0,0-3.46,1.88,12.09,12.09,0,0,0-7.39-2.52H252.45a12.07,12.07,0,0,0-9.38,4.45,12.11,12.11,0,0,0-9.38-4.45H218.5c3.86-3.56,5.69-8.34,6.72-11a12.1,12.1,0,0,0-2.73-12.87l4.27-20.29a12.12,12.12,0,0,0-11.85-14.61H203.84a13,13,0,0,0-1.87.14,24.64,24.64,0,0,0-5.19-.53,28,28,0,0,0-6.4.74l.88-4.12a12.13,12.13,0,0,0-10.91-14.6h-.15c-1.06-.09-2.37-.19-3.87-.19a44.28,44.28,0,0,0-25.42,8.52c-8.68,6.32-13.66,15-13.66,23.71,0,8.44,4,14.76,10.72,17.73L144.7,516A46.82,46.82,0,0,0,131,490.2c-10.24-9.73-25-14.88-42.73-14.88s-36.52,6.25-51.88,17.16l-3.2-18.58a7.31,7.31,0,0,0-7.21-6.24H25.3C22.06,450.19,24.63,446,25.2,445.33Zm326.52,70.51a14.51,14.51,0,0,1,14.39-14.67,14.66,14.66,0,0,1,14.56,14.67,14.5,14.5,0,0,1-14.56,14.48A14.35,14.35,0,0,1,351.72,515.84Zm-9.38,13.73a12.13,12.13,0,0,0-1.84-.82l.78-3.63a26.45,26.45,0,0,0,1.89,4C342.88,529.27,342.61,529.43,342.34,529.57Zm-196.87-1.35c.16.26.31.52.48.76l-.54.18C145.43,528.85,145.46,528.54,145.47,528.22Zm12.12-6.34a13,13,0,0,0-1.77.08l11.45-53.61c-6.69,2.79-10.76,8.59-10.76,16.87,0,3.94,1,4.56,1.08,5.25-5.31,0-8.23-1.93-8.23-7.5,0-10.29,14.14-20.12,27-20.12,1.08,0,2.08.09,3.08.17l-11.84,55.54c8,1.77,16.07,10,25.83,10a16.41,16.41,0,0,0,6.45-1.23c-.77,7.43-3.84,12.15-8,12.15C180.87,539.45,171.19,521.88,157.59,521.88Zm46.25-40.46h11.07l-5.54,26.3a11.47,11.47,0,0,0-.3,2.48c0,2.16,1,2.86,3.15,2.86a4.08,4.08,0,0,0,1.69-.3c-2.07,5.41-3.53,7.81-7.68,7.81s-6.92-2.71-7.53-7.2c-2.31,3.56-6,7.2-11.45,7.2-5.23,0-10.23-3.25-10.23-12.46,0-10.44,6.38-27.07,19.76-27.07,4.37,0,6.22,1.7,6.22,3.94v.54ZM352.59,638.11l.7,47.58,16.13-47.34h10.07v47.34L396,638.35h5.38L380,696H368.65V656.6L353.44,696h-11.3V643.15c-8.37,2.63-12.45,8.66-12.45,17.17,0,3.94,1,4.56,1.08,5.26-5.31,0-8.22-1.94-8.22-7.5,0-10.3,14.13-20.12,27-20.12C350.59,638,351.6,638,352.59,638.11ZM474,667.75c5.69,0,8.46,4.1,8.46,9a13.19,13.19,0,0,1-.31,2.94l-.84,3.87a12.35,12.35,0,0,0-.39,2.48c0,1.55.62,2.86,3,2.86a4.88,4.88,0,0,0,2.69-.47c-.39,5.5-5.15,8-7.15,8-6.3,0-9.68-3.17-9.68-8.81a19.46,19.46,0,0,1,.46-4l.61-3a13,13,0,0,0,.31-2.86c0-2.24-.77-3.71-2.77-3.71-1.76,0-3.53,1.09-5.68,2.86l-4,19.11H447.64l1.83-8.6c-4.17,5-9.76,9.06-17.42,9.06-6.38,0-10.83-2.78-11.79-9.44-4.19,5.19-9.86,9.44-17.72,9.44-7.22,0-12-3.56-12-12.29,0-8.9,5-27.55,20.75-27.55,6.85,0,8.45,3.57,8.45,7.43,0,8.9-8.45,15.78-17.67,16.32-.07,1.08-.15,2.17-.15,3.1,0,5.26,1.85,6.5,5.53,6.5,5.55,0,9.11-2.85,12.62-6.71.32-9.19,5.49-26.64,20.73-26.64,6.84,0,8.45,3.57,8.45,7.43,0,8.9-8.45,15.78-17.67,16.32-.08,1.08-.15,2.17-.15,3.1,0,5.26,1.84,6.5,5.53,6.5,6.07,0,9.76-3.41,13.6-7.81h0l8.21-38.76,11.37-1.55-5.76,27.23,14.83-11.76h7.61l-15.37,10.75A14.55,14.55,0,0,1,474,667.75ZM446.06,645a26,26,0,0,0-5.25-.54A28.85,28.85,0,0,0,425.12,649a21.45,21.45,0,0,0-13.1-4.44l.72-2a11.88,11.88,0,0,0,.72-3.61,11.92,11.92,0,0,0,2-4.55l2.43-11.56c3.65,12.52,14,20.77,28.18,22.07ZM552,393.34l-14.87-41.76,27-5.85L583,392.1Z"/><polygon class="cls-4" points="322.89 251.55 277.94 258.47 290.36 283.4 329.93 275.52 322.89 251.55"/><path class="cls-4" d="M267.25,310.44l9.34-11.5,6,1.48L285.75,286l-10.6-21.26-8.79,44.9C266.66,309.88,267,310.15,267.25,310.44Z"/><polygon class="cls-4" points="233.3 234.13 188.23 224.79 184.55 247.78 224.47 257.75 233.3 234.13"/><path class="cls-4" d="M236.87,240.37l-7.53,20.15L247.09,311c2.89.12,5.82.65,7.62-1.5a8.72,8.72,0,0,1,4.1-3Z"/><polygon class="cls-4" points="425.92 270.83 454.32 250.71 436 241.77 407.34 257.97 425.92 270.83"/><polygon class="cls-4" points="454.22 368.64 468.75 317.61 457.96 253.77 429.08 275.88 454.22 368.64"/><polygon class="cls-4" points="529.87 307.95 525.26 285.52 482.01 293.8 491.64 316.93 529.87 307.95"/><path class="cls-4" d="M470,375.46l17.08-55.93-8.22-19.74-20.46,71.69a24.69,24.69,0,0,0,9.26,3.52C468.45,375.12,469.21,375.29,470,375.46Z"/><polygon class="cls-4" points="537.11 351.58 551.98 393.34 583.01 392.1 564.16 345.73 537.11 351.58"/><path class="cls-4" d="M527.67,358.09c1.82,3.47,1.17,7.81-.23,14.8-1.81,9.11-6.32,7.62-12.68,8.64s-5.79,8-13.05,9c-1.91.27-2.93-.28-3.44-1.29L478.68,410l1,11.65-2.64,4.87c13.53.31,24.61.62,33.71.94L546.89,396,531.82,353.7Z"/><polygon class="cls-4" points="127.17 271.01 134.5 286.93 164.93 277.47 155.9 264.95 127.17 271.01"/><path class="cls-4" d="M122.84,329.27a18.84,18.84,0,0,1,5.33,4.08L149,323.59l17.12-42.54-31.75,11Z"/><polygon class="cls-4" points="67.45 335.96 79.63 301.15 61.2 301.62 46.94 332.63 67.45 335.96"/><path class="cls-4" d="M72.33,339.41,94.8,367.49a12,12,0,0,1-.07-2.94c.76-7.74,7.25-11.36,7.65-14.69s-3.83-6.47-2.54-10.94c1-3.6,2.9-4.85,5-5.23l-21-31.34Z"/><path class="cls-4" d="M232,362.51l6.61,3.73,2.76-18.1L262.7,353c3-1,6.57-.92,10.05-1l-4-12.51-38.24,9.9Z"/><polygon class="cls-4" points="178.42 292.71 207.97 305.96 218.34 290.7 189.94 281.1 178.42 292.71"/><path class="cls-4" d="M179.46,309.31l.15-.08,23.52,32.33.61,14.76c6.87-.57,5,6.59,9.11,7.72a9.23,9.23,0,0,1,1.39.52l-7.05-53.36-30.62-15Z"/><path class="cls-4" d="M344.06,384.78l-.84-30.95L323.4,365.47l7,32.89.34.34Z"/><polygon class="cls-4" points="361.42 295.42 392.43 275.73 377.69 264.59 347.39 279.99 361.42 295.42"/><polygon class="cls-4" points="363.69 366.51 368.4 368.79 376.92 326.34 391.67 323.32 395.04 279.34 363.12 301.17 363.69 366.51"/><polygon class="cls-4" points="267.55 315.64 297.7 326.68 306.34 310.93 277.67 303.42 267.55 315.64"/><path class="cls-4" d="M276.58,351.75c2.9-.32,5.6-1.11,7.72-3.24,7-7.06,11.72-7.36,15.78-5.28l-2.64-11.35L266.09,319.2Z"/><path class="cls-4" d="M309,381.62a9.38,9.38,0,0,1-5.17,3.38l4.06,12.34a13.2,13.2,0,0,1,4.2-2.4Z"/><path class="cls-4" d="M31.88,403.85c.83-2.75,2.79-5.39.7-8.5-5.92-8.83.48-8.88,5.46-10.4a10.85,10.85,0,0,1,6.91.22l2.13-26-25.69-.9-6,48Z"/><path class="cls-4" d="M50.1,387.53c1.45.8,3,1.73,4.82,2.81,7.84,4.74,5.22,7.22,4.36,11.91-.76,4.18,4.33,6.48,4.67,10.68L84,425l-3.53-18.57,18-12.09-46.13-34Z"/><polygon class="cls-4" points="155.32 360.12 194.78 339.37 177.85 316.5 132.24 337.94 155.32 360.12"/><path class="cls-4" d="M189.49,417.2a13,13,0,0,1-6.64,1.68c-6.68.06-14.29-7.23-14.44-14.46s5.76-10.52,5.76-13.64-4.46-6.09-3.72-10.26c1.62-9.06,11-2,14.17-6.21,4.73-6.26,9.39-1.4,14.14,2.61l-1.33-32.36-40,21,8.43,59.64L188,425Z"/><polygon class="cls-4" points="139.04 401.56 124.28 382.92 87.35 407.82 107.17 425.1 139.04 401.56"/><path class="cls-4" d="M141.41,405.94l-27.33,20.18,16.4-.32,12.41-.21Z"/><polygon class="cls-4" points="394.58 353.8 432.93 344.17 426.29 321.3 382.74 330.26 394.58 353.8"/><polygon class="cls-4" points="373.05 371.03 385.56 377.08 390.1 356.52 380 336.43 373.05 371.03"/><path class="cls-4" d="M398.8,408.75l-1.13-11c-3.84-4.14-10.46-7.11-9.56-13.61l-23.65-11L363,396.29Z"/><path class="cls-4" d="M360,401.88,346.75,415.2a19.87,19.87,0,0,0,3.79,1.72c4.39,1.42,13.45,2.51,19.5,7.87l14.37.16L398,413.59Z"/><path class="cls-5" d="M227.55,323.61,229.87,344l4.35-1.13c0-.29-.05-.58,0-.87.58-5.86,4.43-9.35,6.45-12.15-1.12-.81-2.26-1.6-3.4-2.37A33.14,33.14,0,0,0,227.55,323.61Z"/><path class="cls-5" d="M436.09,362.44c-.62.1-1.27.26-1.93.43l-.85,2.65c2.8,1.59,5.31,4.23,8.09,6.47,4.55,3.66,5.69,7.7,5.18,13.56l29.95-.16,1.48,17L490,389.73c-4.74-5.09-8.94-10.07-15.52-12.84a26,26,0,0,0-4.47-1.43c-.76-.17-1.52-.34-2.34-.46a24.69,24.69,0,0,1-9.26-3.52c-3.44-2.06-6.55-4.55-9.88-6.44A18.23,18.23,0,0,0,436.09,362.44Z"/><path class="cls-5" d="M322.18,359.77l7.89-4.62a4.12,4.12,0,0,0-.29-1.46c-1.25-2.83-6.7-3.62-4.6-8.3s8.26-1.24,11.21-4.45c2.79-3,4.72-3.17,6.42-2.37l-.45-16.75c-2.95-.15-6-.14-9-.08s-6,.17-8.64.17a13.42,13.42,0,0,0-2,.17,30,30,0,0,0-5.88,1.66c-.7.26-1.4.54-2.11.85Z"/><path class="cls-5" d="M245.39,400.13l-8.92-20,1.78-11.65c-3.13-.17-6.33-.2-9.57-.06a84,84,0,0,0-9.88,1c-1.26.21-2.52.38-3.75.65A61.6,61.6,0,0,0,204.47,374l.27,6.66a5.31,5.31,0,0,0,4.9-1.11c11.17-8.82,17.89,1.77,18.63,8.59a11.86,11.86,0,0,1-.07,2.78Z"/><path class="cls-5" d="M97.75,378.21c-1.58,1.9-3.1,3.81-4.65,5.6l10,7.38,22.37-15.05,6.56,8.44-3.49-21.46a44.06,44.06,0,0,0-12.75,1.4C107.8,366.68,102.53,372.42,97.75,378.21Z"/><path class="cls-5" d="M346.75,415.2a22.75,22.75,0,0,1-4-2.84c-3.38-3-6-6.7-8.71-10a37.35,37.35,0,0,0-3.32-3.63l-.34-.34a17.76,17.76,0,0,0-4.59-3.08,15.2,15.2,0,0,0-6.52-1.42,26.76,26.76,0,0,0-3.54.24,18.89,18.89,0,0,0-3.68.84,13.2,13.2,0,0,0-4.2,2.4l8.86,27c15.87.09,34.12.24,53.29.45-6.05-5.36-15.11-6.45-19.5-7.87A19.87,19.87,0,0,1,346.75,415.2Z"/><polygon class="cls-4" points="423.37 391.11 431.23 418.68 473.93 416.56 471.46 390.81 423.37 391.11"/><path class="cls-4" d="M425.93,420.62l-6.71-23.51L407.8,425.26c5.36.07,10.72.15,16,.24Z"/><polygon class="cls-4" points="245.77 354.06 242.1 376.75 281.67 387.39 290.45 364.17 245.77 354.06"/><path class="cls-4" d="M286.49,390.22l11.86,34,13.36.06L294,370.42Z"/><path class="cls-4" d="M197.1,406.24l-3.21,18.64,22.53-.24,2-28.87Z"/><path class="cls-6" d="M290.42,288.65l-2.81,13,23.4,5.74,3.67,17.2c.71-.31,1.41-.59,2.11-.85l13.75-43.08Z"/><path class="cls-6" d="M242.35,311.87l-17.23-49-40.47-10.11,11.73,26,27.06,8.67,4.11,36.16a33.14,33.14,0,0,1,9.7,3.89c1.14.77,2.28,1.56,3.4,2.37a5.81,5.81,0,0,0,1.21-2.54c.4-3.33-3.83-6.46-2.54-10.93A7.14,7.14,0,0,1,242.35,311.87Z"/><path class="cls-6" d="M430,315.48,439,347.74l-3.78,11.78.85,2.92a18.23,18.23,0,0,1,12.4,2.6L424.24,275.6,407,263l15.79,54Z"/><path class="cls-6" d="M490,389.73l8.42-8.91a11.62,11.62,0,0,0-.29-4.79c-1.82-5-10.44-6.81-6.81-14.91s13.19-1.62,18.08-7.06c2.18-2.43,4-3.72,5.62-4.28l15-37-38.76,9.1-16.8,55C481,379.66,485.22,384.64,490,389.73Z"/><path class="cls-6" d="M578.6,398l-26.48,1.06-33,28.71c10.11.42,17.19.85,22.24,1.32Z"/><path class="cls-6" d="M110,333.68c2,.07,3.91-.08,5.2-1.63a9.2,9.2,0,0,1,3.79-2.93l12-38.59-6.46-15.36L108.25,331Z"/><path class="cls-6" d="M68.46,341.62l-19.36-3.8,29,34.9,15,11.09c1.55-1.79,3.07-3.7,4.65-5.6Z"/><path class="cls-6" d="M220.32,295.24,210.94,310l7.86,59.42a84,84,0,0,1,9.88-1Z"/><polygon class="cls-6" points="358.73 300.48 345.89 285.41 348.39 380.24 359.32 368.79 358.73 300.48"/><path class="cls-6" d="M325.83,395.28l-17.11-80L301,330.48l3.73,16.09c1.3,1.13,2.6,2.32,4,3.42,6.94,5.58,6,12,3.25,24.53-.11.53-.25,1-.38,1.47l4.21,18.11a26.76,26.76,0,0,1,3.54-.24A15.2,15.2,0,0,1,325.83,395.28Z"/><path class="cls-6" d="M34,410.31a9.93,9.93,0,0,1-.92-.91l-12.32,1.85,29,16.68c7.2-.32,16.12-.64,27.22-.95L53.09,412.63a13.06,13.06,0,0,0-3.52-1.19C44.42,410.72,40.39,415.89,34,410.31Z"/><path class="cls-6" d="M151.37,364.26l-19.69-18.92,7.93,49,6.41,8.23,1.73,23,12.26-.18Z"/><path class="cls-6" d="M87.14,414.58l2.29,12.08c3.57-.09,7.32-.18,11.27-.26Z"/><path class="cls-6" d="M394.6,358.88,390.15,379c6-9.13,19.7-1.28,26.86-8.48,4.78-4.82,8.49-6.46,11.65-6.38l4.82-15Z"/><path class="cls-6" d="M403.69,421c-2.29-.06-3.46-1-4-2.6l-8,6.68,10.25.14Z"/><path class="cls-6" d="M342.79,412.36l14.64-14.74,2.05-21.86-25.4,26.57C336.81,405.66,339.41,409.37,342.79,412.36Z"/><path class="cls-6" d="M442.14,425.8c10.67.2,20.29.39,29,.58l2.41-4.43-43.29,2.14-.64,1.5,12.55.21Z"/><path class="cls-6" d="M242.2,381.68l9.82,22,38.28,20.56h3.08l-11.07-31.77Z"/><path class="cls-6" d="M223.8,394.59l-1,30c21.5-.19,41-.31,56.17-.34Z"/><path class="cls-7" d="M502,645.12a46.33,46.33,0,0,1-19.73-4,11.92,11.92,0,0,1-.23,3.2l-.18.86h5a12.11,12.11,0,0,1,6.95,22l-.92.65a23.08,23.08,0,0,1,1.71,8.91c0,.84,0,1.66-.11,2.46a12.12,12.12,0,0,1,4.23,10.07c-.8,11.51-10.59,19.24-19.23,19.24a23.4,23.4,0,0,1-12.74-3.5,12.08,12.08,0,0,1-8,3H447.64a12.1,12.1,0,0,1-5.25-1.2,32.52,32.52,0,0,1-10.34,1.67,25.53,25.53,0,0,1-14.12-3.86,31.76,31.76,0,0,1-15.39,3.86,25.53,25.53,0,0,1-14.12-3.86,12.08,12.08,0,0,1-8.4,3.39H368.65A12.08,12.08,0,0,1,361,705.4a12.08,12.08,0,0,1-7.6,2.69h-11.3A12.11,12.11,0,0,1,330,696v-18.3c-11.93-.3-19.6-7.93-19.6-19.6a26,26,0,0,1,4.31-14,47.06,47.06,0,0,1-9.65,1c-8.89,0-16.32-2.88-21.74-8a42.54,42.54,0,0,1-25.25,8c-8.6,0-15.82-2.83-21.05-7.92a38.75,38.75,0,0,1-23.94,7.92c-15.57,0-26.67-8.82-30.31-23.2-.84,1.18-1.7,2.34-2.59,3.45-10.09,12.49-23.77,19.37-38.5,19.37-25.83,0-41.26-15.35-41.26-41.07A92.13,92.13,0,0,1,102.56,585,69.27,69.27,0,0,1,87,588.7l-9.75,45.89a12.12,12.12,0,0,1-11.85,9.59H62.52L73,705.09a7.26,7.26,0,0,0,7.21,6.23H492.38a7.27,7.27,0,0,0,7.21-6.23L510,644.56A58,58,0,0,1,502,645.12Z"/><path class="cls-7" d="M25.94,467.66a7.31,7.31,0,0,1,7.21,6.24l3.2,18.58c15.36-10.91,34.2-17.16,51.88-17.16s32.49,5.15,42.73,14.88A46.82,46.82,0,0,1,144.7,516L148,500.7c-6.72-3-10.72-9.29-10.72-17.73,0-8.75,5-17.39,13.66-23.71a44.28,44.28,0,0,1,25.42-8.52c1.5,0,2.81.1,3.87.19h.15a12.13,12.13,0,0,1,10.91,14.6l-.88,4.12a28,28,0,0,1,6.4-.74,24.64,24.64,0,0,1,5.19.53,13,13,0,0,1,1.87-.14h11.07a12.12,12.12,0,0,1,11.85,14.61l-4.27,20.29a12.1,12.1,0,0,1,2.73,12.87c-1,2.69-2.86,7.47-6.72,11h15.19a12.11,12.11,0,0,1,9.38,4.45,12.07,12.07,0,0,1,9.38-4.45h26.23a12.09,12.09,0,0,1,7.39,2.52,12.1,12.1,0,0,1,3.46-1.88l3.54-16.38a12.1,12.1,0,0,1,10.2-9.45l27-3.67A12,12,0,0,1,342,504.69a26.6,26.6,0,1,1,43,29.89,9.64,9.64,0,0,1,.48,1,12.11,12.11,0,0,1,11.2-7.5h26.23a12.08,12.08,0,0,1,5.94,1.56,38.59,38.59,0,0,1,13.36-2.29c18.33,0,30.59,11.21,32.16,28.91,11.15-19.24,28.33-29.83,48.53-29.83a47,47,0,0,1,7.39.56l9.16-53.12a7.31,7.31,0,0,1,7.2-6.24h.65c3.24-17.48.67-21.66.11-22.33-6.63-2.22-57-3.42-105.56-4.3-56.08-1-120.43-1.55-155-1.57h-1.08c-34.64,0-99,.57-155,1.57-48.59.88-98.94,2.08-105.56,4.3-.57.68-3.14,4.86.1,22.33Z"/><path class="cls-7" d="M417.9,622.84l-2.43,11.56a11.92,11.92,0,0,1-2,4.55,11.88,11.88,0,0,1-.72,3.61l-.72,2a21.45,21.45,0,0,1,13.1,4.44,28.85,28.85,0,0,1,15.69-4.47,26,26,0,0,1,5.25.54l0-.12C431.89,643.61,421.55,635.36,417.9,622.84Z"/><path class="cls-7" d="M155.47,580.77A77.73,77.73,0,0,0,152,597.92a64.43,64.43,0,0,0,5-14.8A17.16,17.16,0,0,1,155.47,580.77Z"/><path class="cls-7" d="M145.47,528.22c0,.32,0,.63-.06.94L146,529C145.78,528.74,145.63,528.48,145.47,528.22Z"/><path class="cls-7" d="M340.5,528.75a12.13,12.13,0,0,1,1.84.82c.27-.14.54-.3.83-.42a26.45,26.45,0,0,1-1.89-4Z"/><path class="cls-3" d="M199.16,485.84c-6.54,0-10.76,13.91-10.76,21.19,0,6,2.46,6,3.84,6,2.23,0,5.46-2.32,6.38-6.81l3.69-17.47A3,3,0,0,0,199.16,485.84Z"/><path class="cls-3" d="M170.12,578c-3.82-.92-4.92-4-4.92-7.71,0-5.13,2.37-8.43,5.65-9.89-.37-7.71-2.18-10.64-6.92-10.64-12.93,0-24.22,33.55-24.22,51.53,0,12.09,2.36,14.85,9.28,14.85C157.92,616.14,167.21,599.63,170.12,578ZM152,597.92a77.73,77.73,0,0,1,3.52-17.15,17.16,17.16,0,0,0,1.47,2.35A64.43,64.43,0,0,1,152,597.92Z"/><path class="cls-3" d="M524.37,548.29c-9.11,0-18.21,20.35-22,37.77,14.2-.73,26.58-14.85,26.58-30.25C528.92,551.22,527.83,548.29,524.37,548.29Z"/><path class="cls-3" d="M411.92,660.71c-3.92,0-7.68,8.27-9.23,15.93,5.92-.39,11.15-6.34,11.15-12.76C413.84,661.94,413.38,660.71,411.92,660.71Z"/><path class="cls-3" d="M432.2,676.64c5.92-.39,11.15-6.34,11.15-12.76,0-1.94-.46-3.17-1.93-3.17C437.51,660.71,433.74,669,432.2,676.64Z"/><path d="M191.86,539.45c4.15,0,7.22-4.72,8-12.15a16.41,16.41,0,0,1-6.45,1.23c-9.76,0-17.83-8.2-25.83-10L179.41,463c-1-.08-2-.17-3.08-.17-12.83,0-27,9.83-27,20.12,0,5.57,2.92,7.5,8.23,7.5-.08-.69-1.08-1.31-1.08-5.25,0-8.28,4.07-14.08,10.76-16.87L155.82,522a13,13,0,0,1,1.77-.08C171.19,521.88,180.87,539.45,191.86,539.45Z"/><path d="M196.78,481C183.4,481,177,497.67,177,508.11c0,9.21,5,12.46,10.23,12.46,5.45,0,9.14-3.64,11.45-7.2.61,4.49,3.38,7.2,7.53,7.2s5.61-2.4,7.68-7.81a4.08,4.08,0,0,1-1.69.3c-2.15,0-3.15-.7-3.15-2.86a11.47,11.47,0,0,1,.3-2.48l5.54-26.3H203.84l-.84,4.1V485C203,482.74,201.15,481,196.78,481Zm1.84,25.21c-.92,4.49-4.15,6.81-6.38,6.81-1.38,0-3.84-.08-3.84-6,0-7.28,4.22-21.19,10.76-21.19a3,3,0,0,1,3.15,2.94Z"/><path d="M65.43,632.07l11.68-55h1c34.49,0,55.37-27.2,55.37-51.69,0-19.86-13.8-38-45.21-38-32,0-67.25,24.49-67.25,50.14,0,13.89,7.29,18.71,20.5,18.71-.19-1.73-2.68-3.28-2.68-13.11,0-29.32,18.59-46.87,49.62-46.87,16.86,0,23.76,12,23.76,26.24,0,20.63-14.18,45.89-33.53,47.43l13.61-64.41L63.9,509.41,37.84,632.07Z"/><path d="M366.11,530.32a14.5,14.5,0,0,0,14.56-14.48,14.66,14.66,0,0,0-14.56-14.67,14.51,14.51,0,0,0-14.39,14.67A14.35,14.35,0,0,0,366.11,530.32Z"/><path d="M522.92,538.58c-37.34,0-49.18,44.19-49.18,65.27,0,.31,0,.61,0,.92-3.1,6.37-6.47,10.45-12.76,10.45-5.46,0-7.29-3.12-7.29-7.71,0-10.26,8.75-32.45,8.75-47.3,0-14.67-8.56-20.72-20.22-20.72-5.65,0-13.66,1.47-21.31,10.27l2-9.54H396.7l-12.43,59c-2.77,9.09-9.28,16-16.35,16-5.1,0-7.47-1.65-7.47-6.78a25.36,25.36,0,0,1,.73-5.87l13.12-62.35H348.08l-12.39,58.87c-2.74,9.16-9.29,16.13-16.4,16.13-5.1,0-7.47-1.65-7.47-6.78a24.9,24.9,0,0,1,.74-5.87l11.65-55h10.93l1.46-7.34H325.66l6.2-29-26.95,3.67-5.47,25.3h-6L292,547.56h6l-10.94,51.53c-2.72,9.16-7.64,16.13-14.75,16.13-5.09,0-7.46-1.65-7.46-6.78a25.28,25.28,0,0,1,.72-5.87l13.12-62.35H252.45l-12.38,58.87c-2.74,9.16-7.48,16.13-14.58,16.13-4,0-5.46-3.3-5.46-7.53a25.39,25.39,0,0,1,.55-5.12l13.11-62.35H207.46l-5.16,24.5c-5.07,2.13-10.24,3.56-14.51,3.56a4.27,4.27,0,0,1-2-.37c0-19.25-7.64-29.33-23.31-29.33-37.53,0-49.9,44-49.9,65.09,0,20.9,12.2,29,29.14,29,22.4,0,40.61-21.26,43.53-55.19a73.52,73.52,0,0,0,15.28-4.22l-5.44,25.87A59.63,59.63,0,0,0,193.62,611c0,15.4,8.56,22,19.49,22,7.65,0,17.85-2.38,27-17.42,1.09,11.37,7.65,17.42,18,17.42,7.4,0,18.51-2.29,28-16.15,1.93,11.23,9.58,16.15,19,16.15,7.45,0,19.6-2.32,29.57-16.43C336.5,628,344.21,633,353.72,633c6.56,0,16.78-1.81,25.94-11.91l-2.27,10.81h26.23L416,573c2.73-9.16,7.65-16.86,14.21-16.86,4.36,0,6.56,3.3,6.56,9.35,0,11.73-8.2,34.29-8.2,46.76,0,10.45,5.65,20.71,21.49,20.71,7.25,0,17-2.17,25.67-16,3.94,11.19,13.49,16,26.24,16,14.57,0,27.69-6.23,31.51-27.13-5.83,5.13-14.57,9.71-21.49,9.71-6.38,0-11.3-3.66-11.3-15.21,0-1.65.19-3.67.37-5.5,21.86-1.29,41.89-17.43,41.89-38.69C543,547,539.12,538.58,522.92,538.58ZM149,616.14c-6.92,0-9.28-2.76-9.28-14.85,0-18,11.29-51.53,24.22-51.53,4.74,0,6.55,2.93,6.92,10.64-3.28,1.46-5.65,4.76-5.65,9.89,0,3.67,1.1,6.79,4.92,7.71C167.21,599.63,157.92,616.14,149,616.14Zm353.35-30.08c3.82-17.42,12.92-37.77,22-37.77,3.46,0,4.55,2.93,4.55,7.52C528.92,571.21,516.54,585.33,502.34,586.06Z"/><path d="M322.55,658.08c0,5.56,2.91,7.5,8.22,7.5-.08-.7-1.08-1.32-1.08-5.26,0-8.51,4.08-14.54,12.45-17.17V696h11.3l15.21-39.38V696H380l21.37-57.63H396l-16.52,47.34V638.35H369.42l-16.13,47.34-.7-47.58c-1-.07-2-.15-3.07-.15C336.68,638,322.55,647.78,322.55,658.08Z"/><path d="M479.23,657.3,464.4,669.06l5.76-27.23-11.37,1.55-8.21,38.76h0C446.73,686.54,443,690,437,690c-3.69,0-5.53-1.24-5.53-6.5,0-.93.07-2,.15-3.1,9.22-.54,17.67-7.42,17.67-16.32,0-3.86-1.61-7.43-8.45-7.43-15.24,0-20.41,17.45-20.73,26.64C416.57,687.1,413,690,407.46,690c-3.68,0-5.53-1.24-5.53-6.5,0-.93.08-2,.15-3.1,9.22-.54,17.67-7.42,17.67-16.32,0-3.86-1.6-7.43-8.45-7.43-15.75,0-20.75,18.65-20.75,27.55,0,8.73,4.77,12.29,12,12.29,7.86,0,13.53-4.25,17.72-9.44,1,6.66,5.41,9.44,11.79,9.44,7.66,0,13.25-4,17.42-9.06l-1.83,8.6h11.07l4-19.11c2.15-1.77,3.92-2.86,5.68-2.86,2,0,2.77,1.47,2.77,3.71a13,13,0,0,1-.31,2.86l-.61,3a19.46,19.46,0,0,0-.46,4c0,5.64,3.38,8.81,9.68,8.81,2,0,6.76-2.47,7.15-8a4.88,4.88,0,0,1-2.69.47c-2.38,0-3-1.31-3-2.86a12.35,12.35,0,0,1,.39-2.48l.84-3.87a13.19,13.19,0,0,0,.31-2.94c0-4.94-2.77-9-8.46-9a14.55,14.55,0,0,0-2.53.3l15.37-10.75Zm-76.54,19.34c1.55-7.66,5.31-15.93,9.23-15.93,1.46,0,1.92,1.23,1.92,3.17C413.84,670.3,408.61,676.25,402.69,676.64Zm38.73-15.93c1.47,0,1.93,1.23,1.93,3.17,0,6.42-5.23,12.37-11.15,12.76C433.74,669,437.51,660.71,441.42,660.71Z"/></g></g></svg>