<svg xmlns="http://www.w3.org/2000/svg" viewBox="0 0 948.58 178.56"><defs><style>.cls-1{fill:#cf3339;}.cls-2{fill:#fff;}.cls-3{fill:#009ade;}.cls-4{fill:#edb458;}.cls-5{fill:#7f5b49;}.cls-6{fill:#d19d50;}</style></defs><title>logo-full-web-fr</title><g id="Layer_2" data-name="Layer 2"><g id="extras"><path class="cls-1" d="M107.36,20.28H108l.72,2h0l.7-2h.64v2.6h-.43v-2h0l-.72,2h-.38l-.72-2h0v2h-.43Z"/><path class="cls-1" d="M110.61,20.28h1.08a1.16,1.16,0,0,1,.51.1.92.92,0,0,1,.36.28,1.22,1.22,0,0,1,.21.41,2.1,2.1,0,0,1,.06.51,2,2,0,0,1-.06.5,1.38,1.38,0,0,1-.21.42.92.92,0,0,1-.36.28,1.32,1.32,0,0,1-.51.1h-1.08Zm.45,2.23h.45a1.35,1.35,0,0,0,.44-.07.67.67,0,0,0,.26-.2.63.63,0,0,0,.13-.3,1.37,1.37,0,0,0,0-.36,1.45,1.45,0,0,0,0-.37.66.66,0,0,0-.39-.49,1.13,1.13,0,0,0-.44-.07h-.45Z"/><path class="cls-1" d="M113.93,20.21h.4l-1,2.73h-.4Z"/><path class="cls-1" d="M117,21.58a1.23,1.23,0,0,1-.11.55,1.09,1.09,0,0,1-.29.43,1.19,1.19,0,0,1-.42.28,1.43,1.43,0,0,1-1,0,1.3,1.3,0,0,1-.43-.29,1.21,1.21,0,0,1-.27-.43,1.4,1.4,0,0,1-.1-.54,1.43,1.43,0,0,1,.1-.56,1.3,1.3,0,0,1,.29-.43,1.52,1.52,0,0,1,.43-.28,1.38,1.38,0,0,1,1,0,1.34,1.34,0,0,1,.42.28,1.17,1.17,0,0,1,.29.43A1.27,1.27,0,0,1,117,21.58Zm-.29,0a1.34,1.34,0,0,0-.08-.46,1.09,1.09,0,0,0-.22-.36,1.23,1.23,0,0,0-.33-.23,1.15,1.15,0,0,0-.41-.08,1.16,1.16,0,0,0-.42.08,1.09,1.09,0,0,0-.33.23,1,1,0,0,0-.22.36,1.14,1.14,0,0,0-.08.46,1.21,1.21,0,0,0,.07.43,1.07,1.07,0,0,0,.21.36,1,1,0,0,0,.33.24,1,1,0,0,0,.44.09,1,1,0,0,0,.41-.08,1,1,0,0,0,.33-.23,1.09,1.09,0,0,0,.22-.36A1.29,1.29,0,0,0,116.75,21.58Zm-1.31.78h-.25V20.85h.57a.67.67,0,0,1,.41.1.37.37,0,0,1,.14.33.38.38,0,0,1-.11.3.54.54,0,0,1-.28.11l.42.67h-.28l-.39-.65h-.23Zm.27-.86h.14a.2.2,0,0,0,.11,0,.18.18,0,0,0,.08-.07.39.39,0,0,0,0-.13.2.2,0,0,0,0-.11l-.07-.06-.11,0h-.41v.44Z"/><path class="cls-1" d="M23.48,14.6a2,2,0,0,1,1.53.75,2.68,2.68,0,0,1,.71,1.26A2.27,2.27,0,0,1,25.63,18a3.41,3.41,0,0,1-.88,1.3l-.51.48v0l1.6,1.58-1.09,1-1.39-1.59-3.48-3.54,2-1.88A2.4,2.4,0,0,1,23.48,14.6Zm.5,1.91a1.19,1.19,0,0,0-.83-.43,1.37,1.37,0,0,0-.89.41l-.51.55,1.73,1.88.76-.67A1.33,1.33,0,0,0,24,16.51Z"/><path class="cls-1" d="M28.39,12.7l.8,1.09-.09.13a1.27,1.27,0,0,0-.37.18,1.43,1.43,0,0,0-.45,1.35l.41.56,1.39,1.77-1.17.86-1.18-1.75L26,14.59,27,13.67l.58.82.07-.06a1.57,1.57,0,0,1,.5-1.59Z"/><path class="cls-1" d="M30.5,8.11l.85.41.06.14-.2.37c-.51,1-.83,1.56-1,1.83l-.13.06-.58-.29c.39-1,.67-1.84.86-2.46Zm3.57,4.35L31.52,14a1.29,1.29,0,0,0,1.9.48,3.68,3.68,0,0,0,1.12-1.11h.14L35,14.41a4.36,4.36,0,0,1-1.2,1.06,2.52,2.52,0,0,1-2,.36,2.68,2.68,0,0,1-1.58-1.33,2.78,2.78,0,0,1-.41-2,2.35,2.35,0,0,1,1.2-1.54,2.07,2.07,0,0,1,1.57-.31,2,2,0,0,1,1.22,1c.08.15.17.34.27.58Zm-1.41-.31a.93.93,0,0,0-.5-.47.75.75,0,0,0-.62.1,1,1,0,0,0-.47.6,1.41,1.41,0,0,0,.08.89l1.57-1Z"/><path class="cls-1" d="M36.94,8.22l.28,1.06-.13.12a3.49,3.49,0,0,0-.72,0,1.58,1.58,0,0,0-.55.14.63.63,0,0,0-.32.3.43.43,0,0,0,0,.37.43.43,0,0,0,.34.25,3.1,3.1,0,0,0,.72,0,7.34,7.34,0,0,1,.8,0,1.47,1.47,0,0,1,.63.21,1.2,1.2,0,0,1,.5.56,1.57,1.57,0,0,1,.14.83,1.54,1.54,0,0,1-.35.85,2.38,2.38,0,0,1-.93.7,4.49,4.49,0,0,1-1.62.41l-.34-1.11.09-.14a2.65,2.65,0,0,0,.89.09,2,2,0,0,0,.73-.16.73.73,0,0,0,.36-.33.5.5,0,0,0,0-.4.43.43,0,0,0-.34-.25,4,4,0,0,0-.72,0,7.09,7.09,0,0,1-.82,0,1.37,1.37,0,0,1-.63-.2,1.2,1.2,0,0,1-.5-.58,1.46,1.46,0,0,1,0-1.29,2.22,2.22,0,0,1,1.13-1A3.85,3.85,0,0,1,36.94,8.22Z"/><path class="cls-1" d="M42.78,8.69,40,9.76a1.28,1.28,0,0,0,1.79.79,3.59,3.59,0,0,0,1.28-.9l.14,0,.18,1.1a4.34,4.34,0,0,1-1.36.84,2.53,2.53,0,0,1-2,0,2.67,2.67,0,0,1-1.33-1.58A2.79,2.79,0,0,1,38.63,8a2.38,2.38,0,0,1,1.44-1.31,2,2,0,0,1,1.6,0,2,2,0,0,1,1,1.2,5.24,5.24,0,0,1,.18.61Zm-1.33-.54A.92.92,0,0,0,41,7.6a.7.7,0,0,0-.62,0,1,1,0,0,0-.57.52,1.44,1.44,0,0,0-.07.89l1.72-.7Z"/><path class="cls-1" d="M46.8,6.63a.9.9,0,0,0-.33-.53A.67.67,0,0,0,45.91,6a1.69,1.69,0,0,0-.89.74L45.38,8l.68,2.15-1.4.4-.51-2.05-.86-2.77,1.3-.5L44.8,6l.07,0a3.81,3.81,0,0,1,1.05-1.13,1.93,1.93,0,0,1,1.33,0,1.32,1.32,0,0,1,.7.94l.37,1.41L49,9.31l-1.42.41Z"/><path class="cls-1" d="M52.62,7.23l.14.08,0,.88a3.49,3.49,0,0,1-1,.59c-1,.11-1.57-.26-1.76-1.11l-.14-.9-.41-1.84-.67.14L48.71,5l-.09-.8.63-.14-.18-.83,1.21-.7.12.07.22,1.16,1.27-.27.06.06.11.8-1.28.28.46,2.42a.74.74,0,0,0,.24.46.61.61,0,0,0,.46.05A1.81,1.81,0,0,0,52.62,7.23Z"/><path class="cls-1" d="M57.14,5.35l-2.93.49A1.28,1.28,0,0,0,55.8,7a3.67,3.67,0,0,0,1.44-.62l.13.06,0,1.1a4.66,4.66,0,0,1-1.51.56,2.56,2.56,0,0,1-2-.4,2.67,2.67,0,0,1-1-1.81,2.76,2.76,0,0,1,.35-2,2.34,2.34,0,0,1,1.68-1,2,2,0,0,1,1.57.29,2,2,0,0,1,.77,1.38,5.31,5.31,0,0,1,0,.64ZM55.4,0l.65.7V.84a4.19,4.19,0,0,1-.33.28c-.81.7-1.34,1.15-1.58,1.34H54L53.56,2c.73-.81,1.3-1.47,1.7-2Zm.54,4.55a1,1,0,0,0-.3-.62A.72.72,0,0,0,55,3.8a1,1,0,0,0-.66.39,1.46,1.46,0,0,0-.25.86l1.82-.34Z"/><path class="cls-1" d="M64.06,2.56a2.84,2.84,0,0,1,.65,1.79,2.92,2.92,0,0,1-.51,2.11,2.39,2.39,0,0,1-1.81.87,6.14,6.14,0,0,1-.74,0l.18,2-1.45.1-.23-4.13-.28-2.89,1.39-.22,0,.74h.08a3.26,3.26,0,0,1,.55-.52A2.88,2.88,0,0,1,62.55,2,1.74,1.74,0,0,1,64.06,2.56Zm-.9,3.34a2,2,0,0,0,.21-1.21A2.27,2.27,0,0,0,63,3.55a.79.79,0,0,0-.76-.33,1.39,1.39,0,0,0-.92.54L61.45,5l.11,1.23a1.94,1.94,0,0,0,.77.11A1,1,0,0,0,63.16,5.9Z"/><path class="cls-1" d="M69.08,2.14a1.31,1.31,0,0,1,.49,1.06c0,.13,0,.55-.06,1.25,0,.21,0,.42,0,.63s0,.41,0,.56a.52.52,0,0,0,.06.26.28.28,0,0,0,.2.07,1.35,1.35,0,0,0,.29,0l.11.09L70,6.78a1.78,1.78,0,0,1-.8.28,1,1,0,0,1-.55-.23,1,1,0,0,1-.3-.56h-.08a3.07,3.07,0,0,1-1.12.82,1.82,1.82,0,0,1-1.25-.4,1.44,1.44,0,0,1-.46-1.1,1.29,1.29,0,0,1,.27-.87,1.49,1.49,0,0,1,.85-.43L68.23,4V3.5a.63.63,0,0,0-.71-.71A2,2,0,0,0,66.8,3a4.62,4.62,0,0,0-.85.49l-.11-.06-.17-1a4,4,0,0,1,1-.47,4.05,4.05,0,0,1,1.08-.17A2.14,2.14,0,0,1,69.08,2.14ZM67.07,5a.47.47,0,0,0-.26.15.56.56,0,0,0-.08.32.65.65,0,0,0,.16.44.57.57,0,0,0,.43.16,1.34,1.34,0,0,0,.9-.52V4.69Z"/><path class="cls-1" d="M74.22,2l0,1.35-.16,0a1.24,1.24,0,0,0-.4-.09,1.42,1.42,0,0,0-1.19.78l0,.69V7.06L70.93,7l.17-2.11,0-2.9,1.39-.06,0,1h.09A1.55,1.55,0,0,1,74,2Z"/><ellipse class="cls-1" cx="68.8" cy="37.46" rx="45.12" ry="25.27"/><path class="cls-2" d="M31.91,38.79c-.63,2.39.32,4.5,3.36,4.5a3.49,3.49,0,0,0,3.53-2.42c.38-1.6-.51-2.54-1.56-3.61l-1-1C35,34.91,34,33.72,34.44,31.75c.67-2.84,3.67-4.61,7-4.61a6.25,6.25,0,0,1,4.29,1.47,2,2,0,0,1-1.15,3.56.64.64,0,0,1-.21-.07c.59-1.82,0-3.85-2.58-3.85-1.42,0-3.18.76-3.49,2.06-.35,1.47.71,2.48,1.66,3.44l.9.88C42.33,36,43.5,37.34,43,39.5c-.74,3.09-3.83,4.91-7.48,4.91a6.89,6.89,0,0,1-5.12-1.86C28.24,40.06,30.7,38.77,31.91,38.79Z"/><path class="cls-2" d="M57.24,50.43l3.53-7.83h.07a2.84,2.84,0,0,0,2.87,1.66c4.56,0,7.73-4.4,8.13-7.64a5,5,0,0,0,0-.95C71.72,34.1,70.66,33,68.4,33a6,6,0,0,0-4.17,1.68l0-.05.37-.88a3.89,3.89,0,0,0-2.29-1.93L54.82,48.36A4.2,4.2,0,0,0,57.24,50.43Zm11.08-14.5c-.23,1.83-2.46,6.93-5.29,6.93a1.32,1.32,0,0,1-1.36-1.65c.19-1.56,2.32-6.86,5.11-6.86A1.36,1.36,0,0,1,68.32,35.93Z"/><path class="cls-2" d="M56.31,42.72a1.34,1.34,0,0,1-.55.15c-.44,0-.53-.59-.49-.9A9.82,9.82,0,0,1,56,40.09l3.24-6.87a4.72,4.72,0,0,0-3.27,0l-.79,1.4A2.84,2.84,0,0,0,52.27,33c-4.52,0-8.23,4.33-8.63,7.62-.24,2,.8,3.69,3.44,3.69a6.56,6.56,0,0,0,5-2.68l.06.05a7.9,7.9,0,0,0-.21.93c-.12.93.61,1.7,1.8,1.7a5,5,0,0,0,2.09-.51l.46-1Zm-2-6.92c-.23,1.83-2.77,6.93-5.63,6.93a1.33,1.33,0,0,1-1.3-1.66c.22-1.8,2.68-6.72,5.44-6.72C53.89,34.35,54.38,35,54.28,35.8Z"/><path class="cls-2" d="M84.16,37.76l1.91-3.69L84.37,34c-.47,0-1.59-.14-1.59-.14l-.91,1.65C81,37.12,78.2,42.6,75.63,42.6c-.54,0-.89-.2-.84-.66A43.83,43.83,0,0,1,77,37.52a11.15,11.15,0,0,0,1.21-3c.12-1-.75-1.63-1.94-1.63A6.71,6.71,0,0,0,72.94,34a2.42,2.42,0,0,1,.27.64,3.43,3.43,0,0,1,.81-.22.43.43,0,0,1,.47.54c0,.41-1.94,4.19-1.94,4.19a11.1,11.1,0,0,0-1.25,3.06c-.15,1.24.88,2,2.33,2,2.51,0,4.51-1.64,5.93-3.58l.06,0a6.5,6.5,0,0,0-.46,1.68A1.65,1.65,0,0,0,81,44.25a5.34,5.34,0,0,0,3.15-1.16h0a1.48,1.48,0,0,1-.09-.76s0-.07,0-.11a1.87,1.87,0,0,1-.92.39c-.5,0-.51-.49-.47-.79A19.4,19.4,0,0,1,84.16,37.76Z"/><path class="cls-2" d="M103.23,33.07c-1.69-1.16-4.65-2.12-9.82-2.24l1.18-2.63a4.47,4.47,0,0,0-3.2,0l-1.27,2.67c-3.42.15-7.49,1.07-14.89-.42l-.2.33c4.13,1.7,10.44,2.07,14.15,2.07L86.49,38.5c-.24.53-.56,1.21-.83,1.9a5.66,5.66,0,0,0-.59,1.92c-.13,1.14.89,2,2.3,2a6.14,6.14,0,0,0,4-1.92v0a3.52,3.52,0,0,1-.32-.74,9,9,0,0,1-.71.62,2.11,2.11,0,0,1-1.16.47c-.59,0-.66-.42-.61-.8a14.38,14.38,0,0,1,1.15-3l2.83-6.28c2.83-.29,6.36-.68,8.22.45-2.69.21-5.38,1-7.06,3A7,7,0,0,0,92,39.93a5.8,5.8,0,0,0,0,1.32c.36,1.83,2,3.06,4.63,3.06,4.39,0,8.23-3.46,8.65-6.89a3.91,3.91,0,0,0-.77-3.1,6.69,6.69,0,0,1,2.85,1.92,3.43,3.43,0,0,0,1.79-1.71C108.58,33.93,106.11,33.21,103.23,33.07Zm-3.58,8.27c-2.07,2.89-5.37,3-4.2-1.15.18-.65,1.69-5.93,6.18-6.34a2.62,2.62,0,0,1,.4,1C102.36,36.44,101.1,39.37,99.65,41.34Z"/><path class="cls-2" d="M131.8,105.63l11-9.2-5.64-13.86-9.31,2.1-1.41,1.5a6.51,6.51,0,0,0-1-.86l3.86-9.53L127.78,68l-12.91,2.46-1.22,4.29L111.3,60.83l-6.7-3.34-8.51,4.64,4.45,15.22-1.69.35c.26-1.77.06-2.89-1.2-3.91a14.73,14.73,0,0,0-2.06-1.62l.39-5L90.61,63l-9,4.39.22,8.47a2.52,2.52,0,0,0-1.83,1.41,2.71,2.71,0,0,0-.31,1.06c.73,0,1.49,0,2.21,0l.11,4.12c-.42-.2-.89-.17-1.57.58s-2.23-.06-2.75,1.09.82,1.34,1.13,2a1.21,1.21,0,0,1,.07.36L77,87.64,75.16,79l-.9-4.22-5.73-1.41.69-3.2,9.83-2L75.68,78.79a8.47,8.47,0,0,1,1.44-.41l3.33-10.45L78.1,59.64l-13.43,2L62.37,73.5,56.53,55.83,43.08,53l-1.2,8,2.82,6.27-.27-.09L40.24,71.5l.46,2.07a2.68,2.68,0,0,0-2.37,1.48,2.26,2.26,0,0,0-.16,2L35.73,78.2l4.13-10.28-3.27-4.64-8.45,1.65L23.9,79.57,19,72.24l-6.76.11-4.32,9,5.55,6.7L11,86.25l-8.85-.39L.33,100.23l7.3,4.2a17.7,17.7,0,0,0-4.5.61L2,105.43l-.75.92C-.09,108-.35,110.76.45,115.17l.61,3.4H2.63L4.71,131A13.5,13.5,0,0,0,.2,140.47c0,4.66,2.58,7.48,7.13,7.84l-3,14.76a3.28,3.28,0,0,0,3.21,4h3.24l1.09,6.53a5.84,5.84,0,0,0,5.79,5H116a5.85,5.85,0,0,0,5.8-5l1.21-7.23c3.17-1.39,5.3-4.31,6-8.46a3.3,3.3,0,0,0-1.64-3.45,2.72,2.72,0,0,0-.35-.16l.19-.17a12.17,12.17,0,0,0,4.11-9c0-3.16-1.32-5.47-3.68-6.67L131,118.57h1.57l.61-3.4c.8-4.42.54-7.14-.83-8.82Zm-1.46-.65a23.88,23.88,0,0,0-5.11-.6l8.14-7.09,6.49-.26Zm6-20.79,4.62,11.39-7.61.31-3.64-10.26Zm-9,6.67c.34-1.71.5-2.78.05-3.63l1-1.08,3.69,10.4-8.87,7.73-3.2-.13c-3-.1-6.91-.21-12-.31l-3.92-.08h-.69l.13-.31,4.46-.22,0-1.32-4.18.21-1.92-6.77,11.79-.08.6,6.33-4.1.2c1.47.4,3.42,1,5.31,1.42l.2-.37-.25-2.86,4.81-5.1c.12.25.37.38.84.32,1.78-.25,1.64-2,3.2-2.22S126.87,93.1,127.32,90.86ZM93.16,93.62c-.22,1.6,1.41,2.32,2.35,3.34l.27,2.71L87,96.61l.37-5.68Zm-3.69-3.21,1.71-8.5,2.47,4.93-1.11,5Zm4.19,2,1.09-4.94L104.28,85l-1.18,3.68c-.77,0-1.68.39-2.85,1.57C98.49,92.05,95.14,90.12,93.66,92.36ZM96,102a.92.92,0,0,0,1,.64l-.39,1-2.46,0Zm4.78-5.22,1.64,5.78-.48,1.13L98,103.66Zm26-27.4,1.13,5.5-9.37,2.21-2.36-5.68Zm-13.85,7.88-3.56,12.53L103.21,67l7.08-5.43Zm-8-18.63,4.49,2.19-7,4.95-4.55-3.16Zm-7.1,5.21L102,67l5.94,22c.82.46,1.58,1.07,2.43,1.58l5-17.61,2,4.85-4.19,13.73a5.91,5.91,0,0,1,1.1.36l4.11-13.51,9.5-2.24-3.68,9.09a3.49,3.49,0,0,0-1.38,1c-1.19,1.34-3.54-.25-4.43,1.73s1.23,2.42,1.67,3.66a2.83,2.83,0,0,1,.07,1.18L118.13,95l-2.93,3.11-.36-4.18-7.34,0a3.41,3.41,0,0,0-1.27-3.33,16.49,16.49,0,0,0-2-1.59l.21-.65a4.1,4.1,0,0,1,.48-.1l-.21-.72.92-2.89-2.22-7.93-1.76.36Zm4.72,14.32,1.63,5.62-9.4,2.36-2.9-5.78Zm-8.48.5-3.62.74L88.33,89.85l-1.15-.55-.14-16,7.82-5.36ZM90.61,64.26,94.22,67l-7.6,4.84-3.44-3.79ZM86,73.08l.15,16.78-2.68,2.81-.62-23.29ZM77.9,96.36a4.1,4.1,0,0,1,1.12.76L77.3,89l4.86-2.86.21,7.6L79.11,97.2a10,10,0,0,1,.81.89l6.23-6.52-.51,5.37-3.58,3.62a5.87,5.87,0,0,0,1,.7L86.27,98l9.31,2.88-3.24,2.72-3.69,0-13-.12L73.5,96.87l-1-3A2.29,2.29,0,0,0,73.77,93l.76,3.27a5,5,0,0,1,.9-.21l-1-4.45a3.15,3.15,0,0,0,.09-.36c.68-3.08.91-4.65-.79-6-.34-.27-.65-.56-1-.84l-.92-4,1.9-3.74Zm-31.7,7.16c-4.67,0-9.56.12-14.27.2l-2.32,0-3.47.07L32.69,99l.31,4.09c.38-.23.76-.46,1.14-.67l-.32-4.26-1.57-2-1.94-12,4.83,4.64L36.87,101a11.11,11.11,0,0,1,1.37-.47l-1.62-11.5,9.81-5.17.32,7.95c-1.16-1-2.31-2.17-3.46-.64-.78,1-3.08-.7-3.48,1.53-.18,1,.92,1.75.91,2.52s-1.44,1.57-1.41,3.35a3.3,3.3,0,0,0,.56,1.68,5.64,5.64,0,0,1,3.77,1.14l.59.44.25-.12,0,.27c.45.36.86.69,1.23,1l.69-4,5.22-2.57-.48,7Zm-21.9.16-4.86-4.24,9.06-6.11,3.61,4.58ZM49.74,75.43,52,71.79l2.05,18c.79,0,1.57,0,2.34,0L56,92.65l2.18,4.9L54,95.28a2.59,2.59,0,0,0,0-.68c-.18-1.67-1.82-4.28-4.56-2.11a1.29,1.29,0,0,1-1.2.27l-.07-1.63a15.63,15.63,0,0,1,2.59-.95l.92-.16Zm19.09,26.79c-.71-1.28-2.55-1.13-2.73-.41l-6.29-3.38L57.4,93l9.83,2.65,2.43,7A.84.84,0,0,1,68.83,102.22Zm-1.76-7.8-9.7-2.61.9-5.57,11,2.48ZM52.89,96.19l13.35,7.18c-3.53,0-8.28,0-13.58.08Zm18.86,7.2h0a1.31,1.31,0,0,0-.88-.75l-2.61-7.51,1.83-4.86,4.32,13.14Zm1.37-27.74L71,79.51,63.61,76.8l2.48-3Zm4.06-14.59L78.9,67l-9.7,1.93-3-6.12Zm-11.7,3.23,2.6,5.22-.77,3.56-1.48-.37-2.29,2.83c-.07-.08-.15-.14-.22-.21Zm5.46,16.5.65,2.79c-1-.51-2.15-.44-3.87,1.29a3,3,0,0,1-1.89.8l-2.58-8Zm-7,1.86,1,3.07a8.6,8.6,0,0,0-2.47.25l-5.23-1.19-.67,4.45-1.63-.92-.36-3.22Zm-2.43-8.09a2.1,2.1,0,0,0-1,.74c-.45.53-1.16.4-1.87.37l-4.35-12.4,1.84-5ZM44.17,54.49l11,2.29-2.17,5.81-9.78-2.45Zm-.88,6.87,9.92,2.48,4.23,12A1.7,1.7,0,0,0,56.69,77c-.31,1.1.73,1.87.63,2.68a1.5,1.5,0,0,1-.3.63,5.76,5.76,0,0,0-1.58,3c0,.07,0,.14,0,.22l-1.06.27-.57-5-1-8.88-6.63-2.13Zm1.3,7,7,2.36L49,74.42l-7.24-3.25Zm4.23,7.39,1.73,13.11a2.34,2.34,0,0,0-.35-.13c-1-.28-.54-2-2.23-1.9l-.15-3.62-5.76-7.94,0,0L41.31,72ZM41.63,77l4.15,5.62-9.68,5.1-5.65-5.45Zm-7.08,1.75-5.1,2.39a4.67,4.67,0,0,0-1.31-1L31,71l7.78-2.71Zm1.69-14.41,2.22,3.08L31,69.75l-1.8-3.91Zm-7.69,2.51,1.59,3.78-2.93,9.47a2.28,2.28,0,0,0-.93.72,1.46,1.46,0,0,1-1.28.4l-.43-.65ZM23.74,81.23c-.53.1-1,.41-1.24,1.29-.31,1.1.73,1.87.63,2.69s-1.69,1.7-1.88,3.6a3.55,3.55,0,0,0,0,.73l-5.51-6.9,2.84-9.1ZM13,73.36l4.52-.12-3,8.55-5-.81Zm-3,8.89,4.74.93,7.18,9a8.91,8.91,0,0,1,4.43-3.36,10.67,10.67,0,0,1,3.13-.35l.85,5.27-1.61-2.07-5.48,3.7-2.46-1.82-3.68-2.72Zm-6.8,5,6.3.22-.52,6.38a2.58,2.58,0,0,0-1.69,0c-1.22.37-2.79.38-1.34,2.55.51.76,0,1.41-.17,2.09l-4,.61Zm-.15,13,3-.46a2.28,2.28,0,0,0,.22.22c1.57,1.37,2.56.1,3.82.28a3.41,3.41,0,0,1,.87.29l5.09,3.07c.51-.19,1.07-.39,1.62-.55l-4.05-2.44c-.09-1-1.33-1.6-1.15-2.62s.86-1.77-1.07-2.93c-.44-.27-.82-.49-1.18-.69l.55-6.69,11.31,8.36-4.41,3,.73,3.84a9.25,9.25,0,0,1,1.2-.25l-.3-1.59,3.21,2.8-2.66.07-4.72.13c-2.06.06-3.75.13-5.14.2ZM7.5,163.73l6.22-30.2,6.77-.94-3.24,15.86c4.62-.38,8-6.6,8-11.68,0-3.52-1.65-6.47-5.67-6.47-7.41,0-11.85,4.33-11.85,11.55a6.82,6.82,0,0,0,.64,3.22c-3.16,0-4.89-1.18-4.89-4.6,0-6.32,8.41-12.35,16.05-12.35s10.8,4.47,10.8,9.35A13,13,0,0,1,17.11,150.2h-.23l-2.79,13.53Zm21.44-39.07c-.77,0-1.68.37-1.68,1.4a1.34,1.34,0,0,0,1.38,1.44c1,0,1.67-.73,1.67-2,0-2.55-2.95-3.47-2.95-5.66,0-1.55,1.47-2.67,3.32-2.67.68,0,2.32.14,2.32,1.79,0,.86-.46,1.51-1.18,1.51a.8.8,0,0,1-.66-.32,1.58,1.58,0,0,0,.65-1.28.94.94,0,0,0-1.07-1,1.23,1.23,0,0,0-1.32,1.36c0,1.91,2.45,2.38,3.08,4.6a8.34,8.34,0,0,0-.33,2.25,5.09,5.09,0,0,0,0,.69,4,4,0,0,1-3.61,1.91c-1.64,0-3.05-.74-3.05-2.57a2.24,2.24,0,0,1,2.12-2.45A1.12,1.12,0,0,1,28.94,124.66Zm-.67,1.4c0-.32.52-.35.67-.35h.35c-.05.49-.27.73-.65.73C28.5,126.44,28.27,126.44,28.27,126.06Zm2.52-7.13a.6.6,0,0,1-.15.33l-.2.12a.66.66,0,0,1,0-.14c0-.25,0-.31.31-.31Zm2.4,7.16c0-1.71.93-5.31,3.88-5.31,1.11,0,1.49.51,1.57,1.13l-.34,1.65a3.65,3.65,0,0,1-2.95,1.8c0,.21,0,.42,0,.6,0,1,.34,1.25,1,1.25a2.45,2.45,0,0,0,1.27-.33l-.2,1a3.72,3.72,0,0,1-2,.58C34.08,128.47,33.19,127.78,33.19,126.09Zm6.69-5.18H42l-.16.78a2.19,2.19,0,0,1,1.76-.85A1.37,1.37,0,0,1,45,122.12a2.26,2.26,0,0,1,2-1.27,1.48,1.48,0,0,1,1.6,1.69c0,1.21-.69,3-.69,3.85,0,.38.14.63.57.63h.1a3.16,3.16,0,0,0,.34,1,2,2,0,0,1-1.3.45,1.56,1.56,0,0,1-1.7-1.69c0-1,.65-2.85.65-3.81,0-.49-.17-.76-.52-.76-.52,0-.91.63-1.12,1.37l-1,4.8H41.91L43,123.23a1.53,1.53,0,0,0,0-.38c0-.33-.11-.66-.43-.66-.56,0-1,.65-1.17,1.39l-1,4.8H38.35Zm14.68,0h2.07l-1,5.08a2.23,2.23,0,0,0-.05.48c0,.41.18.64.59.64h.06a2.9,2.9,0,0,0,.23.91,2.34,2.34,0,0,1-1.42.46,1.35,1.35,0,0,1-1.41-1.38,2.58,2.58,0,0,1-2.14,1.38c-1,0-1.91-.63-1.91-2.41,0-2,1.19-5.22,3.69-5.22.82,0,1.17.32,1.17.76v.1Zm4-2a1.16,1.16,0,0,1,1.14-1.19,1.18,1.18,0,0,1,1.15,1.19,1.16,1.16,0,0,1-1.15,1.18A1.15,1.15,0,0,1,58.56,118.92Zm5.63,2-.16.78a2.09,2.09,0,0,1,1.68-.84,1.48,1.48,0,0,1,1.6,1.69c0,1.21-.69,3-.69,3.85,0,.38.14.63.57.63h.08a3.35,3.35,0,0,0,.36,1,2,2,0,0,1-1.3.45,1.56,1.56,0,0,1-1.7-1.69c0-1,.65-2.85.65-3.81,0-.49-.17-.76-.52-.76-.52,0-.91.63-1.12,1.37l-1,4.8H60.59l1.52-7.47Zm7.9-.13c1.28,0,1.58.68,1.58,1.43a3.38,3.38,0,0,1-3.31,3.15c0,.15,0,.31,0,.45,0,.94.39,1.24.89,1.24a2.87,2.87,0,0,0,1.7-.79,2.34,2.34,0,0,1-2.49,2.21c-1.34,0-2.23-.69-2.23-2.38S69.14,120.78,72.09,120.78Zm-13.37,7.69c-.87,0-1.54-.54-1.54-1.79a5.24,5.24,0,0,1,.11-1l1-4.79h2.07l-1,5.08a1.79,1.79,0,0,0-.06.48c0,.41.18.55.58.55l-.27,1.31A2.57,2.57,0,0,1,58.72,128.47Zm59,44.43a1.75,1.75,0,0,1-1.73,1.53H17.62a1.75,1.75,0,0,1-1.72-1.53l-1-6a3.27,3.27,0,0,0,2.4-2.51l2.29-11.09a16.68,16.68,0,0,0,2.89-.67,22.34,22.34,0,0,0-.42,4.1c0,3.4,1,6.06,3,7.91a10.28,10.28,0,0,0,7.22,2.5,12,12,0,0,0,9.53-4.92l.13-.17a7.76,7.76,0,0,0,1.71,2.88,7.61,7.61,0,0,0,5.68,2.31,9.51,9.51,0,0,0,5.71-1.83,7.38,7.38,0,0,0,5,1.83,10.4,10.4,0,0,0,6-1.86,7.71,7.71,0,0,0,5.21,1.86,11.23,11.23,0,0,0,6.32-1.94,7.67,7.67,0,0,0,5.3,1.94,11.26,11.26,0,0,0,4-.73,3.31,3.31,0,0,0,1.66.45h6.26a3.27,3.27,0,0,0,3.21-2.62l.31-1.51a8,8,0,0,0,7.57,4.41,9.34,9.34,0,0,0,5.89-2,10.29,10.29,0,0,0,6.5,2h.38Zm10.35-27.85c0,5.23-4.78,9.21-10,9.52a13.29,13.29,0,0,0-.09,1.36c0,2.84,1.17,3.75,2.7,3.75a8.71,8.71,0,0,0,5.13-2.4c-.91,5.15-4,6.68-7.53,6.68-3,0-5.32-1.17-6.26-3.93-2.08,3.4-4.4,3.93-6.13,3.93-3.78,0-5.13-2.52-5.13-5.1,0-3.07,2-8.62,2-11.51,0-1.49-.53-2.3-1.57-2.3-1.57,0-2.74,1.89-3.39,4.15l-3,14.49H88.58l.54-2.66A8,8,0,0,1,82.93,164a4.35,4.35,0,0,1-4.56-4,8.33,8.33,0,0,1-7.06,4,4.32,4.32,0,0,1-4.53-4c-2.27,3.41-4.92,4-6.69,4-2.48,0-4-1.48-4.3-4.28-2.18,3.7-4.61,4.28-6.44,4.28-2.61,0-4.65-1.62-4.65-5.41a15.25,15.25,0,0,1,.35-2.94l1.29-6.37a16.85,16.85,0,0,1-3.64,1c-.7,8.36-5.05,13.59-10.4,13.59-4,0-7-2-7-7.13s3-16,11.92-16c3.74,0,5.57,2.48,5.57,7.22a1,1,0,0,0,.48.09,9.2,9.2,0,0,0,3.46-.88l1.23-6h6.26l-3.13,15.35a7.19,7.19,0,0,0-.13,1.26c0,1,.35,1.86,1.31,1.86,1.69,0,2.82-1.72,3.48-4l3-14.49H65l-3.13,15.35a6.06,6.06,0,0,0-.18,1.45c0,1.26.57,1.67,1.79,1.67,1.69,0,2.87-1.72,3.52-4l2.61-12.68H68.18l.35-1.81H70l1.31-6.23,6.44-.9-1.48,7.13h2.61l-.35,1.81H75.88L73.1,156.47a6.61,6.61,0,0,0-.18,1.45c0,1.26.57,1.67,1.78,1.67,1.7,0,3.27-1.72,3.92-4l3-14.49h6.26l-3.13,15.35a6.61,6.61,0,0,0-.18,1.45c0,1.26.57,1.67,1.79,1.67,1.68,0,3.24-1.7,3.9-3.94l3-14.53h6.26L99,143.47a6.36,6.36,0,0,1,5.09-2.53c2.78,0,4.83,1.49,4.83,5.1s-2.09,9.12-2.09,11.65c0,1.13.44,1.9,1.74,1.9,1.5,0,2.31-1,3-2.58,0-.07,0-.15,0-.22,0-5.2,2.83-16.07,11.75-16.07C127.2,140.72,128.11,142.79,128.11,145.05ZM80.3,120.84c.82,0,1.17.32,1.17.76v.06l.7-3.44,2.13-.3L82.65,126a2.32,2.32,0,0,0-.06.48c0,.41.19.55.59.55h0a3.55,3.55,0,0,0,.3.92,2.43,2.43,0,0,1-1.46.45,1.34,1.34,0,0,1-1.41-1.29,2.55,2.55,0,0,1-2.13,1.38c-1,0-1.92-.63-1.92-2.41C76.6,124.05,77.8,120.84,80.3,120.84Zm9.31,1.37a3.38,3.38,0,0,1-3.31,3.15c0,.15,0,.31,0,.45,0,.94.38,1.24.89,1.24a2.9,2.9,0,0,0,1.7-.79,2.34,2.34,0,0,1-2.49,2.21c-1.34,0-2.23-.69-2.23-2.38s.93-5.31,3.88-5.31C89.31,120.78,89.61,121.46,89.61,122.21Zm-3.73,9.29a3.56,3.56,0,0,1,3.48,3.62,3.51,3.51,0,0,1-3.48,3.56,3.48,3.48,0,0,1-3.43-3.56A3.52,3.52,0,0,1,85.88,131.5Zm43.27-17.06H129a1.77,1.77,0,0,0-1.72,1.54l-3.59,21.46h-.36c-4.64,0-8.62,2.32-11.35,6.55-.76-3.9-3.7-6.32-7.92-6.32a9.48,9.48,0,0,0-3.16.52,3.26,3.26,0,0,0-1.45-.34H93.19a3.22,3.22,0,0,0-1.21.23,6.94,6.94,0,0,0-3.38-9.26,3.77,3.77,0,0,0,1.26-2.36l.51-2.84a3.87,3.87,0,0,0,.26-1.4,2.34,2.34,0,0,0-2.6-2.49,4.17,4.17,0,0,0-3.42,1.78l1-4.82-4.27.6-.52,2.54a2.78,2.78,0,0,0-.51,0c-3.21,0-4.71,3.75-4.71,6.28s1.58,3.46,2.93,3.46a3.17,3.17,0,0,0,1.93-.66,2.34,2.34,0,0,0,1.61.57h0a7.06,7.06,0,0,0-2,2.27,3.25,3.25,0,0,0-2.8-1l-6.44.9a3.26,3.26,0,0,0-2.75,2.58l-.81,3.88a2.77,2.77,0,0,0-.48.26,3.21,3.21,0,0,0-1.76-.52H58.74a3.31,3.31,0,0,0-2.24.88,3.28,3.28,0,0,0-2.24-.88H48a3.28,3.28,0,0,0-3.21,2.62l-.19.92a9.68,9.68,0,0,0-.54-.82,8.12,8.12,0,0,0-6.8-3.13,13.67,13.67,0,0,0-3.66.49c0-.15,0-.3,0-.45a12.45,12.45,0,0,0-2.89-8.11A4.47,4.47,0,0,0,32.61,128a3,3,0,0,0,2.82,1.5,4.54,4.54,0,0,0,1.72-.33l0,.24h7.7l.32-1.57a2.51,2.51,0,0,0,2.53,1.66,3,3,0,0,0,1.93-.68,2.85,2.85,0,0,0,1.87.68,3.09,3.09,0,0,0,1.89-.64,2.32,2.32,0,0,0,1.66.64,3.41,3.41,0,0,0,2-.64,2.42,2.42,0,0,0,1.71.64,3.49,3.49,0,0,0,.8-.09h4l.32-1.57a2.51,2.51,0,0,0,2.53,1.66,3,3,0,0,0,2-.69,3.28,3.28,0,0,0,2.15.69,3.34,3.34,0,0,0,3.49-3.07l.5-2.84a3.87,3.87,0,0,0,.26-1.4,2.34,2.34,0,0,0-2.59-2.49,4.37,4.37,0,0,0-3.8,2.33,2.45,2.45,0,0,0-2.58-2.25,3.18,3.18,0,0,0-.62.06H61.66a2.26,2.26,0,0,0,.2-.94,2.16,2.16,0,1,0-4.32,0,2.43,2.43,0,0,0,.2.94H54a3.17,3.17,0,0,0-.72-.08,4.19,4.19,0,0,0-3.62,2.3A2.45,2.45,0,0,0,47,119.8a3,3,0,0,0-1.8.58,2.43,2.43,0,0,0-1.68-.6,3.29,3.29,0,0,0-.71.08H39.06l-.11.5a2.69,2.69,0,0,0-1.88-.64,4.52,4.52,0,0,0-4,2.77,5.68,5.68,0,0,0-.76-1A2.39,2.39,0,0,0,34,119c0-1.76-1.27-2.85-3.33-2.85-2.47,0-4.33,1.6-4.33,3.73a4.22,4.22,0,0,0,1.18,2.77,3.2,3.2,0,0,0-2.94,2.89,18.18,18.18,0,0,0-5.06-.67,21.7,21.7,0,0,0-11.12,3.28L6.38,116a1.77,1.77,0,0,0-1.72-1.54H4.51c-.78-4.3-.16-5.33,0-5.5,1.58-.54,13.6-.84,25.21-1.06,13.37-.24,28.74-.38,37-.38H67c8.26,0,23.62.14,37,.38,11.61.22,23.63.52,25.21,1.06C129.31,109.11,129.93,110.14,129.15,114.44Z"/><path class="cls-3" d="M104,107.88c-13.39-.24-28.75-.38-37-.38H66.7c-8.27,0-23.64.14-37,.38-11.61.22-23.63.52-25.21,1.06-.13.17-.75,1.2,0,5.5h.15A1.77,1.77,0,0,1,6.38,116l2,12.14a21.7,21.7,0,0,1,11.12-3.28,18.18,18.18,0,0,1,5.06.67,3.2,3.2,0,0,1,2.94-2.89,4.22,4.22,0,0,1-1.18-2.77c0-2.13,1.86-3.73,4.33-3.73,2.06,0,3.33,1.09,3.33,2.85a2.39,2.39,0,0,1-1.74,2.51,5.68,5.68,0,0,1,.76,1,4.52,4.52,0,0,1,4-2.77,2.69,2.69,0,0,1,1.88.64l.11-.5h3.78a3.29,3.29,0,0,1,.71-.08,2.43,2.43,0,0,1,1.68.6,3,3,0,0,1,1.8-.58,2.45,2.45,0,0,1,2.58,2.28,4.19,4.19,0,0,1,3.62-2.3,3.17,3.17,0,0,1,.72.08h3.79a2.43,2.43,0,0,1-.2-.94,2.16,2.16,0,1,1,4.32,0,2.26,2.26,0,0,1-.2.94h3.43a3.18,3.18,0,0,1,.62-.06,2.45,2.45,0,0,1,2.58,2.25,4.37,4.37,0,0,1,3.8-2.33,2.34,2.34,0,0,1,2.59,2.49,3.87,3.87,0,0,1-.26,1.4l-.5,2.84a3.34,3.34,0,0,1-3.49,3.07,3.28,3.28,0,0,1-2.15-.69,3,3,0,0,1-2,.69,2.51,2.51,0,0,1-2.53-1.66l-.32,1.57h-4a3.49,3.49,0,0,1-.8.09,2.42,2.42,0,0,1-1.71-.64,3.41,3.41,0,0,1-2,.64,2.32,2.32,0,0,1-1.66-.64,3.09,3.09,0,0,1-1.89.64,2.85,2.85,0,0,1-1.87-.68,3,3,0,0,1-1.93.68,2.51,2.51,0,0,1-2.53-1.66l-.32,1.57H37.1l0-.24a4.54,4.54,0,0,1-1.72.33,3,3,0,0,1-2.82-1.5,4.47,4.47,0,0,1-1.89,1.34,12.45,12.45,0,0,1,2.89,8.11c0,.15,0,.3,0,.45a13.67,13.67,0,0,1,3.66-.49,8.12,8.12,0,0,1,6.8,3.13,9.68,9.68,0,0,1,.54.82l.19-.92A3.28,3.28,0,0,1,48,137.84h6.26a3.28,3.28,0,0,1,2.24.88,3.31,3.31,0,0,1,2.24-.88H65a3.21,3.21,0,0,1,1.76.52,2.77,2.77,0,0,1,.48-.26l.81-3.88a3.26,3.26,0,0,1,2.75-2.58l6.44-.9a3.25,3.25,0,0,1,2.8,1,7.06,7.06,0,0,1,2-2.27h0a2.34,2.34,0,0,1-1.61-.57,3.17,3.17,0,0,1-1.93.66c-1.35,0-2.93-.9-2.93-3.46s1.5-6.28,4.71-6.28a2.78,2.78,0,0,1,.51,0l.52-2.54,4.27-.6-1,4.82A4.17,4.17,0,0,1,88,119.72a2.34,2.34,0,0,1,2.6,2.49,3.87,3.87,0,0,1-.26,1.4l-.51,2.84a3.77,3.77,0,0,1-1.26,2.36A6.94,6.94,0,0,1,92,138.07a3.22,3.22,0,0,1,1.21-.23h6.26a3.26,3.26,0,0,1,1.45.34,9.48,9.48,0,0,1,3.16-.52c4.22,0,7.16,2.42,7.92,6.32,2.73-4.23,6.71-6.55,11.35-6.55h.36L127.28,116a1.77,1.77,0,0,1,1.72-1.54h.15c.78-4.3.16-5.33,0-5.5C127.6,108.4,115.58,108.1,104,107.88Zm-5.66,21.64a2.82,2.82,0,0,1-2-.75,3.55,3.55,0,0,1-2.2.75,2.56,2.56,0,0,1-2.55-2.84,6.14,6.14,0,0,1,.13-1.19l1.69-8.21,4.27-.6-1,5.1a4.12,4.12,0,0,1,3.44-2,3,3,0,0,1,.71.08h3.94l-1.19,5.84,1.56-.7-.86,2.34c-.33.87-.81,2.18-2.39,2.18a2.27,2.27,0,0,1-1.64-.65A3.13,3.13,0,0,1,98.31,129.52Z"/><path class="cls-3" d="M111.82,165.24a9.34,9.34,0,0,1-5.89,2,8,8,0,0,1-7.57-4.41l-.31,1.51A3.27,3.27,0,0,1,94.84,167H88.58a3.31,3.31,0,0,1-1.66-.45,11.26,11.26,0,0,1-4,.73,7.67,7.67,0,0,1-5.3-1.94,11.23,11.23,0,0,1-6.32,1.94,7.71,7.71,0,0,1-5.21-1.86,10.4,10.4,0,0,1-6,1.86,7.38,7.38,0,0,1-5-1.83,9.51,9.51,0,0,1-5.71,1.83,7.61,7.61,0,0,1-5.68-2.31A7.76,7.76,0,0,1,42,162.06l-.13.17a12,12,0,0,1-9.53,4.92,10.28,10.28,0,0,1-7.22-2.5c-2-1.85-3-4.51-3-7.91a22.34,22.34,0,0,1,.42-4.1,16.68,16.68,0,0,1-2.89.67L17.3,164.4a3.27,3.27,0,0,1-2.4,2.51l1,6a1.75,1.75,0,0,0,1.72,1.53H116a1.75,1.75,0,0,0,1.73-1.53l.94-5.66h-.38A10.29,10.29,0,0,1,111.82,165.24Z"/><path class="cls-3" d="M30.43,119.24a.66.66,0,0,0,0,.14l.2-.12a.6.6,0,0,0,.15-.33h-.05C30.44,118.93,30.43,119,30.43,119.24Z"/><path class="cls-3" d="M29.29,125.71h-.35c-.15,0-.67,0-.67.35s.23.38.37.38C29,126.44,29.24,126.2,29.29,125.71Z"/><path class="cls-2" d="M39.26,146.09c-.09-1.9-.52-2.62-1.65-2.62-3.09,0-5.79,8.26-5.79,12.69,0,3,.57,3.65,2.22,3.65,2.13,0,4.35-4.06,5.05-9.39-.92-.23-1.18-1-1.18-1.9A2.49,2.49,0,0,1,39.26,146.09Z"/><path class="cls-2" d="M123.67,143.11c-2.17,0-4.35,5-5.26,9.3,3.39-.18,6.35-3.66,6.35-7.45C124.76,143.83,124.5,143.11,123.67,143.11Z"/><path d="M16.88,150.2h.23a13,13,0,0,0,13.22-12.73c0-4.88-3.3-9.35-10.8-9.35s-16,6-16,12.35c0,3.42,1.73,4.6,4.89,4.6a6.82,6.82,0,0,1-.64-3.22c0-7.22,4.44-11.55,11.85-11.55,4,0,5.67,2.95,5.67,6.47,0,5.08-3.38,11.3-8,11.68l3.24-15.86-6.77.94L7.5,163.73h6.59Z"/><path d="M85.88,138.68a3.51,3.51,0,0,0,3.48-3.56,3.46,3.46,0,1,0-6.91,0A3.48,3.48,0,0,0,85.88,138.68Z"/><path d="M123.33,140.72c-8.92,0-11.75,10.87-11.75,16.07,0,.07,0,.15,0,.22-.74,1.57-1.55,2.58-3,2.58-1.3,0-1.74-.77-1.74-1.9,0-2.53,2.09-8,2.09-11.65s-2-5.1-4.83-5.1A6.36,6.36,0,0,0,99,143.47l.48-2.35H93.19l-3,14.53c-.66,2.24-2.22,3.94-3.9,3.94-1.22,0-1.79-.41-1.79-1.67a6.61,6.61,0,0,1,.18-1.45l3.13-15.35H81.58l-3,14.49c-.65,2.26-2.22,4-3.92,4-1.21,0-1.78-.41-1.78-1.67a6.61,6.61,0,0,1,.18-1.45l2.78-13.54h2.61l.35-1.81H76.23L77.71,134l-6.44.9L70,141.12H68.53l-.35,1.81h1.44L67,155.61c-.65,2.26-1.83,4-3.52,4-1.22,0-1.79-.41-1.79-1.67a6.06,6.06,0,0,1,.18-1.45L65,141.12H58.74l-3,14.49c-.66,2.26-1.79,4-3.48,4-1,0-1.31-.82-1.31-1.86a7.19,7.19,0,0,1,.13-1.26l3.13-15.35H48l-1.23,6a9.2,9.2,0,0,1-3.46.88,1,1,0,0,1-.48-.09c0-4.74-1.83-7.22-5.57-7.22-9,0-11.92,10.83-11.92,16s2.92,7.13,7,7.13c5.35,0,9.7-5.23,10.4-13.59a16.85,16.85,0,0,0,3.64-1l-1.29,6.37a15.25,15.25,0,0,0-.35,2.94c0,3.79,2,5.41,4.65,5.41,1.83,0,4.26-.58,6.44-4.28.26,2.8,1.82,4.28,4.3,4.28,1.77,0,4.42-.56,6.69-4a4.32,4.32,0,0,0,4.53,4,8.33,8.33,0,0,0,7.06-4,4.35,4.35,0,0,0,4.56,4A8,8,0,0,0,89.12,161l-.54,2.66h6.26l3-14.49c.65-2.26,1.82-4.15,3.39-4.15,1,0,1.57.81,1.57,2.3,0,2.89-2,8.44-2,11.51,0,2.58,1.35,5.1,5.13,5.1,1.73,0,4-.53,6.13-3.93.94,2.76,3.22,3.93,6.26,3.93,3.48,0,6.62-1.53,7.53-6.68a8.71,8.71,0,0,1-5.13,2.4c-1.53,0-2.7-.91-2.7-3.75a13.29,13.29,0,0,1,.09-1.36c5.22-.31,10-4.29,10-9.52C128.11,142.79,127.2,140.72,123.33,140.72Zm-84.24,9.7c-.7,5.33-2.92,9.39-5.05,9.39-1.65,0-2.22-.68-2.22-3.65,0-4.43,2.7-12.69,5.79-12.69,1.13,0,1.56.72,1.65,2.62a2.49,2.49,0,0,0-1.35,2.43C37.91,149.43,38.17,150.19,39.09,150.42Zm79.32,2c.91-4.29,3.09-9.3,5.26-9.3.83,0,1.09.72,1.09,1.85C124.76,148.75,121.8,152.23,118.41,152.41Z"/><path d="M25.56,126.12c0,1.83,1.41,2.57,3.05,2.57a4,4,0,0,0,3.61-1.91,5.09,5.09,0,0,1,0-.69,8.34,8.34,0,0,1,.33-2.25c-.63-2.22-3.08-2.69-3.08-4.6a1.23,1.23,0,0,1,1.32-1.36.94.94,0,0,1,1.07,1,1.58,1.58,0,0,1-.65,1.28.8.8,0,0,0,.66.32c.72,0,1.18-.65,1.18-1.51,0-1.65-1.64-1.79-2.32-1.79-1.85,0-3.32,1.12-3.32,2.67,0,2.19,2.95,3.11,2.95,5.66,0,1.26-.71,2-1.67,2a1.34,1.34,0,0,1-1.38-1.44c0-1,.91-1.4,1.68-1.4a1.12,1.12,0,0,0-1.26-1A2.24,2.24,0,0,0,25.56,126.12Z"/><path class="cls-2" d="M37.55,122.18c0-.37-.09-.61-.36-.61-.74,0-1.44,1.6-1.73,3.07A2.46,2.46,0,0,0,37.55,122.18Z"/><path d="M35.43,128.47a3.72,3.72,0,0,0,2-.58l.2-1a2.45,2.45,0,0,1-1.27.33c-.69,0-1-.24-1-1.25,0-.18,0-.39,0-.6a3.65,3.65,0,0,0,2.95-1.8l.34-1.65c-.08-.62-.46-1.13-1.57-1.13-3,0-3.88,3.6-3.88,5.31S34.08,128.47,35.43,128.47Zm1.76-6.9c.27,0,.36.24.36.61a2.46,2.46,0,0,1-2.09,2.46C35.75,123.17,36.45,121.57,37.19,121.57Z"/><path d="M38.35,128.38h2.08l1-4.8c.22-.74.61-1.39,1.17-1.39.32,0,.43.33.43.66a1.53,1.53,0,0,1,0,.38l-1.05,5.15H44l1-4.8c.21-.74.6-1.37,1.12-1.37.35,0,.52.27.52.76,0,1-.65,2.79-.65,3.81a1.56,1.56,0,0,0,1.7,1.69A2,2,0,0,0,49,128a3.16,3.16,0,0,1-.34-1h-.1c-.43,0-.57-.25-.57-.63,0-.83.69-2.64.69-3.85a1.48,1.48,0,0,0-1.6-1.69,2.26,2.26,0,0,0-2,1.27,1.37,1.37,0,0,0-1.48-1.28,2.19,2.19,0,0,0-1.76.85l.16-.78H39.88Z"/><path class="cls-2" d="M54.27,122.33a.57.57,0,0,0-.59-.57c-1.22,0-2,2.69-2,4.09,0,1.15.46,1.17.71,1.17a1.48,1.48,0,0,0,1.2-1.32Z"/><path d="M53.23,120.84c-2.5,0-3.69,3.21-3.69,5.22,0,1.78.93,2.41,1.91,2.41a2.58,2.58,0,0,0,2.14-1.38A1.35,1.35,0,0,0,55,128.47a2.34,2.34,0,0,0,1.42-.46,2.9,2.9,0,0,1-.23-.91h-.06c-.41,0-.59-.23-.59-.64a2.23,2.23,0,0,1,.05-.48l1-5.08H54.56l-.16.79v-.1C54.4,121.16,54.05,120.84,53.23,120.84Zm.35,4.86a1.48,1.48,0,0,1-1.2,1.32c-.25,0-.71,0-.71-1.17,0-1.4.79-4.09,2-4.09a.57.57,0,0,1,.59.57Z"/><path d="M59.25,126.47a1.79,1.79,0,0,1,.06-.48l1-5.08H58.27l-1,4.79a5.24,5.24,0,0,0-.11,1c0,1.25.67,1.79,1.54,1.79a2.57,2.57,0,0,0,.84-.14l.27-1.31C59.43,127,59.25,126.88,59.25,126.47Z"/><path d="M60.85,118.92a1.18,1.18,0,0,0-1.15-1.19,1.16,1.16,0,0,0-1.14,1.19,1.15,1.15,0,0,0,1.14,1.18A1.16,1.16,0,0,0,60.85,118.92Z"/><path d="M60.59,128.38h2.07l1-4.8c.21-.74.6-1.37,1.12-1.37.35,0,.52.27.52.76,0,1-.65,2.79-.65,3.81a1.56,1.56,0,0,0,1.7,1.69,2,2,0,0,0,1.3-.45,3.35,3.35,0,0,1-.36-1h-.08c-.43,0-.57-.25-.57-.63,0-.83.69-2.64.69-3.85a1.48,1.48,0,0,0-1.6-1.69,2.09,2.09,0,0,0-1.68.84l.16-.78H62.11Z"/><path class="cls-2" d="M72.56,122.18c0-.37-.09-.61-.36-.61-.72,0-1.44,1.66-1.74,3.07A2.45,2.45,0,0,0,72.56,122.18Z"/><path d="M68.2,126.09c0,1.69.89,2.38,2.23,2.38a2.34,2.34,0,0,0,2.49-2.21,2.87,2.87,0,0,1-1.7.79c-.5,0-.89-.3-.89-1.24,0-.14,0-.3,0-.45a3.38,3.38,0,0,0,3.31-3.15c0-.75-.3-1.43-1.58-1.43C69.14,120.78,68.2,124.38,68.2,126.09Zm4-4.52c.27,0,.36.24.36.61a2.45,2.45,0,0,1-2.1,2.46C70.76,123.23,71.48,121.57,72.2,121.57Z"/><path class="cls-2" d="M78.73,125.85c0,1.15.47,1.17.72,1.17a1.43,1.43,0,0,0,1.18-1.24v-.08l.71-3.42a.58.58,0,0,0-.59-.52C79.53,121.76,78.73,124.45,78.73,125.85Z"/><path d="M78.52,128.47a2.55,2.55,0,0,0,2.13-1.38,1.34,1.34,0,0,0,1.41,1.29,2.43,2.43,0,0,0,1.46-.45,3.55,3.55,0,0,1-.3-.92h0c-.4,0-.59-.14-.59-.55a2.32,2.32,0,0,1,.06-.48l1.65-8.07-2.13.3-.7,3.44v-.06c0-.44-.35-.76-1.17-.76-2.5,0-3.7,3.21-3.7,5.22C76.6,127.84,77.54,128.47,78.52,128.47Zm2.23-6.71a.58.58,0,0,1,.59.52l-.71,3.42v.08A1.43,1.43,0,0,1,79.45,127c-.25,0-.72,0-.72-1.17C78.73,124.45,79.53,121.76,80.75,121.76Z"/><path class="cls-2" d="M88.15,121.57c-.72,0-1.44,1.66-1.74,3.07a2.45,2.45,0,0,0,2.1-2.46C88.51,121.81,88.42,121.57,88.15,121.57Z"/><path d="M88,120.78c-3,0-3.88,3.6-3.88,5.31s.89,2.38,2.23,2.38a2.34,2.34,0,0,0,2.49-2.21,2.9,2.9,0,0,1-1.7.79c-.51,0-.89-.3-.89-1.24,0-.14,0-.3,0-.45a3.38,3.38,0,0,0,3.31-3.15C89.61,121.46,89.31,120.78,88,120.78Zm-1.62,3.86c.3-1.41,1-3.07,1.74-3.07.27,0,.36.24.36.61A2.45,2.45,0,0,1,86.41,124.64Z"/><path d="M95.46,127l-.18,0c-.4,0-.59-.14-.59-.55a2.32,2.32,0,0,1,.06-.48l1.66-8.07-2.13.3-1.54,7.48a5.32,5.32,0,0,0-.12,1c0,1.25.68,1.79,1.54,1.79a2.58,2.58,0,0,0,1.59-.55A3.32,3.32,0,0,1,95.46,127Z"/><path class="cls-2" d="M101.86,129.52c1.58,0,2.06-1.31,2.39-2.18l.86-2.34-1.56.7,1.19-5.84H100.8a3,3,0,0,0-.71-.08,4.12,4.12,0,0,0-3.44,2l1-5.1-4.27.6-1.69,8.21a6.14,6.14,0,0,0-.13,1.19,2.56,2.56,0,0,0,2.55,2.84,3.55,3.55,0,0,0,2.2-.75,2.82,2.82,0,0,0,2,.75,3.13,3.13,0,0,0,1.91-.65A2.27,2.27,0,0,0,101.86,129.52Zm-7.7-1.05c-.86,0-1.54-.54-1.54-1.79a5.32,5.32,0,0,1,.12-1l1.54-7.48,2.13-.3L94.75,126a2.32,2.32,0,0,0-.06.48c0,.41.19.55.59.55l.18,0a3.32,3.32,0,0,0,.29.92A2.58,2.58,0,0,1,94.16,128.47Zm6.29-1.39a2.58,2.58,0,0,1-2.14,1.39c-1,0-1.92-.63-1.92-2.41,0-2,1.2-5.22,3.7-5.22.82,0,1.17.32,1.17.76v.1l.15-.79h2.08l-1,5.08a2.32,2.32,0,0,0-.06.48c0,.41.19.55.59.55a.79.79,0,0,0,.32-.06c-.39,1-.66,1.51-1.44,1.51A1.41,1.41,0,0,1,100.45,127.08Z"/><path class="cls-2" d="M100.44,125.7l.69-3.37a.57.57,0,0,0-.59-.57c-1.23,0-2,2.69-2,4.09,0,1.15.46,1.17.72,1.17A1.49,1.49,0,0,0,100.44,125.7Z"/><path d="M101.86,128.47c.78,0,1-.46,1.44-1.51a.79.79,0,0,1-.32.06c-.4,0-.59-.14-.59-.55a2.32,2.32,0,0,1,.06-.48l1-5.08h-2.08l-.15.79v-.1c0-.44-.35-.76-1.17-.76-2.5,0-3.7,3.21-3.7,5.22,0,1.78.94,2.41,1.92,2.41a2.58,2.58,0,0,0,2.14-1.39A1.41,1.41,0,0,0,101.86,128.47Zm-3.34-2.62c0-1.4.79-4.09,2-4.09a.57.57,0,0,1,.59.57l-.69,3.37a1.49,1.49,0,0,1-1.2,1.32C99,127,98.52,127,98.52,125.85Z"/><polygon class="cls-4" points="77.09 61.13 66.07 62.83 69.11 68.94 78.81 67.01 77.09 61.13"/><path class="cls-4" d="M63.45,75.57l2.29-2.82,1.48.36L68,69.57l-2.6-5.22-2.16,11A2.18,2.18,0,0,1,63.45,75.57Z"/><path class="cls-4" d="M56,58.39l-1.85,4.94,4.35,12.38c.71,0,1.43.16,1.87-.37a2.14,2.14,0,0,1,1-.74Z"/><polygon class="cls-4" points="102.34 65.86 109.31 60.92 104.81 58.73 97.79 62.7 102.34 65.86"/><polygon class="cls-4" points="109.28 89.83 112.84 77.32 110.2 61.67 103.12 67.09 109.28 89.83"/><polygon class="cls-4" points="127.82 74.95 126.69 69.46 116.09 71.49 118.45 77.16 127.82 74.95"/><polygon class="cls-4" points="129.6 85.65 133.24 95.89 140.85 95.58 136.23 84.22 129.6 85.65"/><path class="cls-4" d="M127.28,87.25c.45.85.29,1.91,0,3.62-.45,2.24-1.55,1.87-3.11,2.12s-1.42,2-3.2,2.21c-.47.06-.72-.07-.84-.32l-4.8,5.09.24,2.85-.64,1.2c3.31.07,6,.15,8.26.23l8.86-7.7-3.7-10.38Z"/><polygon class="cls-4" points="29.12 65.9 30.91 69.8 38.37 67.48 36.16 64.42 29.12 65.9"/><path class="cls-4" d="M28.05,80.18a4.67,4.67,0,0,1,1.31,1l5.1-2.39,4.2-10.43-7.78,2.7Z"/><polygon class="cls-4" points="14.48 81.82 17.46 73.29 12.95 73.4 9.45 81.01 14.48 81.82"/><path class="cls-4" d="M15.67,82.67l5.51,6.88a3.47,3.47,0,0,1,0-.72c.19-1.9,1.78-2.79,1.88-3.6s-.94-1.59-.62-2.68a1.54,1.54,0,0,1,1.23-1.29l-5.14-7.68Z"/><path class="cls-4" d="M54.81,88.33l1.62.91.67-4.43L62.34,86a8.53,8.53,0,0,1,2.46-.25l-1-3.06-9.37,2.43Z"/><polygon class="cls-4" points="41.68 71.22 48.92 74.47 51.46 70.73 44.5 68.37 41.68 71.22"/><path class="cls-4" d="M41.93,75.29l0,0,5.77,7.92.14,3.62c1.69-.14,1.23,1.62,2.24,1.89l.34.13L48.73,75.75l-7.51-3.67Z"/><path class="cls-4" d="M82.28,93.79l-.21-7.59-4.86,2.85,1.72,8.07.09.08Z"/><polygon class="cls-4" points="86.53 71.88 94.14 67.06 90.52 64.33 83.09 68.1 86.53 71.88"/><polygon class="cls-4" points="87.09 89.31 88.25 89.87 90.33 79.46 93.95 78.72 94.78 67.94 86.95 73.29 87.09 89.31"/><polygon class="cls-4" points="63.52 76.84 70.91 79.55 73.03 75.69 66 73.85 63.52 76.84"/><path class="cls-4" d="M65.74,85.69a3,3,0,0,0,1.89-.79c1.72-1.73,2.87-1.81,3.87-1.3l-.65-2.78-7.68-3.11Z"/><path class="cls-4" d="M73.68,93a2.29,2.29,0,0,1-1.26.83l1,3a3.2,3.2,0,0,1,1-.59Z"/><path class="cls-4" d="M5.76,98.46c.2-.67.68-1.32.17-2.08-1.45-2.17.12-2.18,1.34-2.55a2.72,2.72,0,0,1,1.69,0l.52-6.36-6.29-.23L1.72,99.07Z"/><path class="cls-4" d="M10.22,94.46l1.19.69c1.92,1.16,1.27,1.77,1.06,2.92s1.06,1.59,1.15,2.62l4.92,3-.87-4.55,4.41-3L10.77,87.79Z"/><polygon class="cls-4" points="36.02 87.74 45.69 82.66 41.54 77.05 30.36 82.31 36.02 87.74"/><path class="cls-4" d="M44.39,101.74a3.17,3.17,0,0,1-1.63.4,3.94,3.94,0,0,1-3.54-3.54c0-1.77,1.42-2.58,1.42-3.34s-1.1-1.49-.92-2.52c.4-2.22,2.7-.49,3.48-1.52,1.16-1.53,2.3-.34,3.46.64l-.32-7.93-9.81,5.16,2.07,14.62,5.43-.08Z"/><polygon class="cls-4" points="32.02 97.9 28.41 93.33 19.36 99.43 24.21 103.67 32.02 97.9"/><polygon class="cls-4" points="94.66 86.19 104.06 83.83 102.43 78.23 91.76 80.42 94.66 86.19"/><polygon class="cls-4" points="89.38 90.42 92.45 91.9 93.56 86.86 91.09 81.94 89.38 90.42"/><path class="cls-4" d="M95.7,99.66,95.42,97c-.94-1-2.57-1.74-2.34-3.34l-5.8-2.68-.37,5.67Z"/><path class="cls-4" d="M86.18,98l-3.24,3.27a5,5,0,0,0,.93.42c1.07.34,3.29.61,4.78,1.92l3.52,0,3.33-2.78Z"/><path class="cls-5" d="M53.72,78.79l.57,5,1.07-.28a1.48,1.48,0,0,1,0-.21,5.76,5.76,0,0,1,1.58-3c-.27-.2-.55-.39-.83-.58A8.49,8.49,0,0,0,53.72,78.79Z"/><path class="cls-5" d="M104.84,88.31l-.48.11-.2.65a17.11,17.11,0,0,1,2,1.58A3.41,3.41,0,0,1,107.41,94l7.34,0,.36,4.16L118,95a11.32,11.32,0,0,0-3.8-3.15,6.75,6.75,0,0,0-1.1-.35l-.57-.11a6.09,6.09,0,0,1-2.27-.86c-.85-.51-1.61-1.12-2.42-1.58A4.49,4.49,0,0,0,104.84,88.31Z"/><path class="cls-5" d="M76.92,87.66l1.93-1.14a1.21,1.21,0,0,0-.07-.35c-.31-.7-1.64-.89-1.13-2s2-.3,2.75-1.09,1.16-.78,1.57-.58l-.11-4.11c-.72,0-1.47,0-2.21,0s-1.47,0-2.12,0a2.85,2.85,0,0,0-.49,0,7,7,0,0,0-1.45.41l-.51.2Z"/><path class="cls-5" d="M58.09,97.55l-2.18-4.9.43-2.85a22.76,22.76,0,0,0-2.34,0,22.23,22.23,0,0,0-2.43.25l-.91.16a15.38,15.38,0,0,0-2.6,1l.07,1.63a1.31,1.31,0,0,0,1.2-.27c2.74-2.16,4.39.43,4.57,2.1a3.22,3.22,0,0,1,0,.69Z"/><path class="cls-5" d="M21.9,92.18c-.38.46-.76.93-1.14,1.37l2.46,1.81,5.48-3.69,1.61,2.07-.85-5.26a10.66,10.66,0,0,0-3.13.34A9,9,0,0,0,21.9,92.18Z"/><path class="cls-5" d="M82.94,101.25a5.87,5.87,0,0,1-1-.7,19.74,19.74,0,0,1-2.14-2.46A10,10,0,0,0,79,97.2l-.09-.08a4.1,4.1,0,0,0-1.12-.76,3.77,3.77,0,0,0-1.6-.35,7.59,7.59,0,0,0-.87.06,5,5,0,0,0-.9.21,3.2,3.2,0,0,0-1,.59l2.17,6.61c3.89,0,8.37.06,13.07.11-1.49-1.31-3.71-1.58-4.78-1.92A5,5,0,0,1,82.94,101.25Z"/><polygon class="cls-4" points="101.72 95.34 103.65 102.1 114.11 101.58 113.51 95.27 101.72 95.34"/><path class="cls-4" d="M102.35,102.57l-1.65-5.76-2.8,6.9,3.93.06Z"/><polygon class="cls-4" points="58.19 86.26 57.29 91.82 66.98 94.43 69.14 88.73 58.19 86.26"/><path class="cls-4" d="M68.17,95.12l2.91,8.34,3.27,0L70,90.27Z"/><path class="cls-4" d="M46.26,99.05l-.79,4.57,5.52-.06.49-7.08Z"/><path class="cls-6" d="M69.13,70.22l-.69,3.19,5.74,1.41.9,4.21.51-.2L79,68.27Z"/><path class="cls-6" d="M57.35,75.92l-4.23-12L43.2,61.43l2.88,6.38,6.63,2.12,1,8.86a8.49,8.49,0,0,1,2.38,1c.28.19.56.38.83.58a1.53,1.53,0,0,0,.3-.62c.1-.82-.94-1.59-.63-2.68A1.77,1.77,0,0,1,57.35,75.92Z"/><path class="cls-6" d="M103.33,76.8l2.22,7.91-.92,2.89.21.71a4.49,4.49,0,0,1,3,.64L101.93,67l-4.22-3.09,3.87,13.23Z"/><path class="cls-6" d="M118,95l2.06-2.18a2.82,2.82,0,0,0-.07-1.18c-.44-1.24-2.56-1.67-1.67-3.65s3.24-.4,4.44-1.73a3.45,3.45,0,0,1,1.38-1.05l3.68-9.07-9.5,2.23-4.12,13.48A11.32,11.32,0,0,1,118,95Z"/><path class="cls-6" d="M139.77,97l-6.49.26-8.1,7c2.48.11,4.22.21,5.46.33Z"/><path class="cls-6" d="M24.91,81.26a1.46,1.46,0,0,0,1.28-.4,2.28,2.28,0,0,1,.93-.72l2.93-9.45-1.59-3.77-4,13.69Z"/><path class="cls-6" d="M14.73,83.21,10,82.28l7.1,8.55,3.68,2.72c.38-.44.76-.91,1.14-1.37Z"/><path class="cls-6" d="M52,71.84l-2.3,3.63L51.57,90A22.23,22.23,0,0,1,54,89.78Z"/><polygon class="cls-6" points="85.88 73.13 82.73 69.43 83.34 92.67 86.02 89.87 85.88 73.13"/><path class="cls-6" d="M77.81,96.36,73.62,76.75l-1.9,3.73.92,3.94c.32.28.63.57,1,.84,1.7,1.37,1.48,2.93.8,6,0,.13-.07.25-.1.36l1,4.44a7.59,7.59,0,0,1,.87-.06A3.77,3.77,0,0,1,77.81,96.36Z"/><path class="cls-6" d="M35.05,88.76l-4.83-4.64,1.94,12,1.57,2,.43,5.63,3,0Z"/><path class="cls-6" d="M94.67,87.44l-1.09,4.93c1.47-2.24,4.83-.32,6.58-2.08,1.17-1.18,2.08-1.58,2.86-1.56l1.18-3.68Z"/><path class="cls-6" d="M82,100.55l3.58-3.61.51-5.36-6.23,6.51A19.74,19.74,0,0,0,82,100.55Z"/><path class="cls-6" d="M57.31,93l2.41,5.39,9.38,5h.76l-2.72-7.79Z"/><path class="cls-6" d="M52.8,96.19l-.23,7.35c5.27,0,10-.07,13.77-.08Z"/><path d="M172.69,130.74a40.72,40.72,0,0,1-5.81-1.66,14.62,14.62,0,0,1-2.31-1l-.86-1.36c.06-.4.2-1.29.43-2.66s.47-3.17.73-5.42.41-4.35.47-6.29l8.63-.6q0,6,2,8.3c1.31,1.54,3.53,2.3,6.67,2.3a9.5,9.5,0,0,0,5.47-1.41,4.45,4.45,0,0,0,2-3.89,5.06,5.06,0,0,0-2.44-4.27,48.57,48.57,0,0,0-7.56-4l-1.33-.64-1.15-.56a35.59,35.59,0,0,1-9.75-6.41A12.24,12.24,0,0,1,164.31,92a14.67,14.67,0,0,1,3.08-9.15A20,20,0,0,1,176,76.62a33.57,33.57,0,0,1,12.61-2.22A52.26,52.26,0,0,1,201.42,76c1.37.37,2.22.61,2.56.73l.77,1.45c-.06.34-.21,1.17-.47,2.48s-.55,3.12-.89,5.43-.6,4.6-.77,6.88l-8,.6-.85-.68.08-2.31c0-2.28-.59-3.93-1.79-5s-3.08-1.54-5.64-1.54a8.47,8.47,0,0,0-5.05,1.41,4.37,4.37,0,0,0-2,3.72,4.58,4.58,0,0,0,1.45,3.34,14.71,14.71,0,0,0,3.42,2.52q2,1.07,6.16,3a67.48,67.48,0,0,1,7.69,3.93,17.15,17.15,0,0,1,5.17,4.87,12.2,12.2,0,0,1,2.1,7.19,14.72,14.72,0,0,1-3.08,9.27,19.42,19.42,0,0,1-8.72,6.12,37.48,37.48,0,0,1-13.26,2.13A35.46,35.46,0,0,1,172.69,130.74Z"/><path d="M214,126.17q-5.26-5.34-5.26-14.83a23.31,23.31,0,0,1,2.65-11.2,19.36,19.36,0,0,1,7.4-7.74,21,21,0,0,1,10.81-2.78q15.23,0,15.22,15.64a22.84,22.84,0,0,1-.6,5.22l-1,.94H221.94q.17,5.13,2.78,7.82a9.47,9.47,0,0,0,7.14,2.7,24.55,24.55,0,0,0,10-2.48l.77.34,1.54,5.13a42.27,42.27,0,0,1-7.61,4.53,18.61,18.61,0,0,1-7.78,2Q219.28,131.51,214,126.17Zm17.4-20.82a2,2,0,0,0,1.11-.47,2.26,2.26,0,0,0,.26-1.33c0-4-1.54-6-4.62-6q-6.08,0-6.41,8.38Z"/><path d="M276.7,123.35a5.11,5.11,0,0,0,.9-3l.26-13.51q0-3.58-1.16-5.17a4.2,4.2,0,0,0-3.63-1.58q-2.4,0-5.9,2.65-.85,15.83-.86,18.21a5.14,5.14,0,0,0,.47,2.65,2.09,2.09,0,0,0,1.84.69l1.88-.09.26.43-.94,6.24c-.69-.06-2-.13-3.85-.21s-3.82-.13-5.81-.13-4.23,0-6.54.13-3.81.15-4.49.21l.85-6.24a5.36,5.36,0,0,0,3.51-1.16,4.85,4.85,0,0,0,.94-3.37V103.47c0-2-.29-3.33-.86-4s-1.68-1-3.33-1H249l-.42-.51.59-5.38q5.47-.78,10.82-1.71l6.88-1.2.86.94a21.59,21.59,0,0,0-.52,2.35q-.35,1.84-.51,3.63l.34.26q2.91-2.56,6.07-4.87t4.36-2.31q10.44,0,12.66,7.27A66.6,66.6,0,0,1,296.24,92q3.33-2.39,4.53-2.39,6.5,0,10,2.91a10.1,10.1,0,0,1,3.46,8.2q0,1.63-.85,9.49-.85,8.55-.86,10.61a5.14,5.14,0,0,0,.56,2.82,2.33,2.33,0,0,0,2,.77l2.39-.09.17.34-.85,6.16c-.74-.06-2.13-.13-4.15-.21s-4-.13-6-.13-3.77,0-5.68.13-3.21.15-3.89.21l.6-6.24a3.36,3.36,0,0,0,2.43-1.11,5.56,5.56,0,0,0,.81-3.17l.26-13.51q0-3.58-1.11-5.17a4.19,4.19,0,0,0-3.68-1.58q-2.22,0-5.81,2.48l-1.11,18.3a5.48,5.48,0,0,0,.51,2.77,2,2,0,0,0,1.88.82l2.14-.09.17.34-1,6.16c-.68-.06-2-.13-3.89-.21s-3.83-.13-5.77-.13c-1.37,0-3.17.07-5.43.21s-3.75.24-4.49.3l.6-6.24A4.72,4.72,0,0,0,276.7,123.35Z"/><path d="M345.91,129.89a6.37,6.37,0,0,1-2.65-4.79l-.85-.34a42.9,42.9,0,0,1-5.26,4.53q-2.61,1.88-4.23,1.88a11.22,11.22,0,0,1-6.12-1.75,12.22,12.22,0,0,1-4.36-4.83,14.63,14.63,0,0,1-1.58-6.76,7.86,7.86,0,0,1,1.45-4.74,6.18,6.18,0,0,1,3.77-2.52l16.58-3.51v-1.2a6.92,6.92,0,0,0-1.88-5.17,7.28,7.28,0,0,0-5.3-1.84,13,13,0,0,0-5,1.16,27.23,27.23,0,0,0-5,2.69l-.85-.43-1.8-5.9q4.71-2.57,9.58-4.66c3.25-1.39,5.58-2.09,7-2.09q8,0,11.76,3.33a11.08,11.08,0,0,1,3.71,8.64q0,1.2-.85,7.86c-.06.69-.23,2.09-.51,4.19a38,38,0,0,0-.43,4.45,3.5,3.5,0,0,0,.77,2.35,2.56,2.56,0,0,0,2.05.9,7.43,7.43,0,0,0,3.59-1.11l1.37,2a32.5,32.5,0,0,1-4.19,6q-2.47,2.82-4.53,3.33A10.86,10.86,0,0,1,345.91,129.89Zm-6.28-8.59a13.79,13.79,0,0,0,2.69-1.16l.17-7.69-7.78,2a2.53,2.53,0,0,0-1.45.82,2.5,2.5,0,0,0-.43,1.58,5.43,5.43,0,0,0,1.16,3.55,3.71,3.71,0,0,0,3,1.41A9,9,0,0,0,339.63,121.3Z"/><path d="M363.61,125a6.08,6.08,0,0,0,3.68-1.58,5,5,0,0,0,1.19-3.63V103a6.56,6.56,0,0,0-.81-3.85,3.7,3.7,0,0,0-3-1,5.44,5.44,0,0,0-1.2.13,3.47,3.47,0,0,0-.77.21l.6-5.9q5.55-.67,11.11-1.67c3.71-.65,6.1-1.09,7.19-1.32l.93,1.62q-.93,1.89-1.49,9.88t-.56,20a4.49,4.49,0,0,0,.52,2.52,2.15,2.15,0,0,0,1.88.73,10.35,10.35,0,0,0,1.36-.09,7.94,7.94,0,0,1,1-.08l.17.34-.86,6.24q-1.11-.09-4.14-.21c-2-.09-4.12-.13-6.29-.13a65.08,65.08,0,0,0-6.5.38c-2.45.26-4.05.44-4.78.56Zm5-43a7,7,0,0,1-1.8-5.09,7.68,7.68,0,0,1,2.1-5.64,7.34,7.34,0,0,1,5.51-2.14A6.67,6.67,0,0,1,379.43,71a7.14,7.14,0,0,1,1.79,5.13,7.65,7.65,0,0,1-2.05,5.6,7.29,7.29,0,0,1-5.47,2.09A6.86,6.86,0,0,1,368.57,82Z"/><path d="M416.32,123.35a5.11,5.11,0,0,0,.9-3l.17-13.51c.05-2.39-.3-4.11-1.07-5.17a4.2,4.2,0,0,0-3.63-1.58q-2.4,0-5.9,2.56l-.26,5.3q-.69,11.13-.68,13a4.81,4.81,0,0,0,.51,2.61,2.16,2.16,0,0,0,1.88.73l1.88-.09.17.43-.94,6.24c-.68-.06-2-.13-3.85-.21s-3.79-.13-5.72-.13-4.24,0-6.55.17-3.8.2-4.48.25l.85-6.24a3.85,3.85,0,0,0,4.36-4.61V103.47c0-2-.27-3.33-.81-4s-1.64-1-3.29-1h-1.29l-.34-.51.6-5.38q5.39-.78,10.73-1.71l6.88-1.2.94.94c-.11.34-.28,1.13-.51,2.35s-.4,2.44-.51,3.63l.43.35a67.9,67.9,0,0,1,5.9-5q3.07-2.31,4.36-2.31,6.49,0,10,2.91a10.13,10.13,0,0,1,3.46,8.2q0,2.4-.77,9.49-.85,8.55-.86,10.61a5.1,5.1,0,0,0,.56,2.77,2.14,2.14,0,0,0,1.92.82l2.4-.09.17.34-.86,6.16c-.74-.06-2.09-.13-4.06-.21s-4-.13-5.94-.13c-1.37,0-3.19.07-5.47.21s-3.79.24-4.53.3l.6-6.24A4.8,4.8,0,0,0,416.32,123.35Z"/><path d="M442.48,126.17q-5.25-5.34-5.26-14.83a23.42,23.42,0,0,1,2.65-11.2,19.36,19.36,0,0,1,7.4-7.74,21,21,0,0,1,10.81-2.78q15.23,0,15.22,15.64a22.84,22.84,0,0,1-.6,5.22l-1,.94H450.39q.17,5.13,2.78,7.82a9.47,9.47,0,0,0,7.14,2.7,24.55,24.55,0,0,0,10-2.48l.77.34,1.54,5.13a42.27,42.27,0,0,1-7.61,4.53,18.61,18.61,0,0,1-7.78,2Q447.73,131.51,442.48,126.17Zm17.4-20.82a2,2,0,0,0,1.11-.47,2.26,2.26,0,0,0,.26-1.33c0-4-1.54-6-4.62-6q-6.08,0-6.41,8.38Z"/><path d="M520.07,129.93a6.37,6.37,0,0,1-2.74-4.57l-.6-.26c-5.35,4.05-8.52,6.07-9.48,6.07q-7.53,0-11.85-5.09t-4.32-14a23.79,23.79,0,0,1,2.74-11.58,19.48,19.48,0,0,1,7.65-7.78A22.68,22.68,0,0,1,512.8,90q2.4,0,3.51.09V80.81a6.86,6.86,0,0,0-.77-3.85c-.52-.68-1.51-1-3-1a9.64,9.64,0,0,0-1.19.08,6.69,6.69,0,0,1-.86.09l.69-6.07q5.73-.69,11.58-1.67c3.91-.65,6.43-1.1,7.57-1.32l.86,1.62q-1.2,1.71-2,15.9t-.82,33.52a4,4,0,0,0,.64,2.35,2.06,2.06,0,0,0,1.76.9,4.81,4.81,0,0,0,2.09-.47,12.71,12.71,0,0,0,1.24-.64l1.37,2a15.55,15.55,0,0,1-1.41,2.27,31.49,31.49,0,0,1-3.42,4.19,10.63,10.63,0,0,1-4.32,2.86A10.84,10.84,0,0,1,520.07,129.93Zm-6.5-8.42a9.57,9.57,0,0,0,1.84-.9,7,7,0,0,0,.9-.64V99.36l-.86-.38a10.85,10.85,0,0,0-1.84-.56,11.64,11.64,0,0,0-2.52-.25,5.71,5.71,0,0,0-5,2.73q-1.8,2.75-1.8,7.87,0,6.33,1.84,9.75t5.17,3.42A6.27,6.27,0,0,0,513.57,121.51Z"/><path d="M542.17,126.17q-5.25-5.34-5.26-14.83a23.42,23.42,0,0,1,2.65-11.2A19.36,19.36,0,0,1,547,92.4a21,21,0,0,1,10.81-2.78q15.22,0,15.22,15.64a22.84,22.84,0,0,1-.6,5.22l-1,.94H550.08q.17,5.13,2.78,7.82a9.45,9.45,0,0,0,7.14,2.7,24.55,24.55,0,0,0,10-2.48l.77.34,1.54,5.13a42.27,42.27,0,0,1-7.61,4.53,18.61,18.61,0,0,1-7.78,2Q547.43,131.51,542.17,126.17Zm17.4-20.82a2,2,0,0,0,1.11-.47,2.26,2.26,0,0,0,.26-1.33c0-4-1.54-6-4.62-6q-6.08,0-6.41,8.38Z"/><path d="M590.6,124.93c1.66-.34,2.72-.9,3.21-1.67a8.66,8.66,0,0,0,.73-4.23V80.56a9.89,9.89,0,0,0-.39-3.3A2.11,2.11,0,0,0,592.61,76a15.39,15.39,0,0,0-3.89-.21l-.42-.52.59-5.3q11.37-1.44,19.84-2.9l.68,1.88q-2.82,7.44-2.82,52.24a4.73,4.73,0,0,0,.52,2.61,2,2,0,0,0,1.71.72l2.82-.08.25.51-.94,5.9q-7.35-.35-10.94-.34-3.85,0-10.18.6Z"/><path d="M639.17,129.89a6.34,6.34,0,0,1-2.65-4.79l-.86-.34a42.17,42.17,0,0,1-5.26,4.53q-2.61,1.88-4.23,1.88a11.21,11.21,0,0,1-6.11-1.75,12.07,12.07,0,0,1-4.36-4.83,14.51,14.51,0,0,1-1.58-6.76,7.86,7.86,0,0,1,1.45-4.74,6.16,6.16,0,0,1,3.76-2.52l16.59-3.51v-1.2a6.92,6.92,0,0,0-1.88-5.17,7.31,7.31,0,0,0-5.3-1.84,12.88,12.88,0,0,0-5,1.16,26.9,26.9,0,0,0-5,2.69l-.86-.43-1.79-5.9c3.13-1.71,6.33-3.26,9.57-4.66s5.59-2.09,7-2.09q8,0,11.75,3.33a11.09,11.09,0,0,1,3.72,8.64q0,1.2-.85,7.86c-.06.69-.23,2.09-.52,4.19a40.38,40.38,0,0,0-.43,4.45,3.5,3.5,0,0,0,.77,2.35,2.58,2.58,0,0,0,2.06.9,7.43,7.43,0,0,0,3.59-1.11l1.37,2a33,33,0,0,1-4.19,6q-2.49,2.82-4.54,3.33A10.83,10.83,0,0,1,639.17,129.89Zm-6.29-8.59a13.89,13.89,0,0,0,2.7-1.16l.17-7.69-7.78,2a2.13,2.13,0,0,0-1.88,2.4,5.43,5.43,0,0,0,1.15,3.55,3.73,3.73,0,0,0,3,1.41A9,9,0,0,0,632.88,121.3Z"/><path class="cls-3" d="M671.31,124.59q3.35-.6,4.54-2.1c.79-1,1.19-2.69,1.19-5.08l.09-31a8.11,8.11,0,0,0-.56-3.63,2.1,2.1,0,0,0-2-1,17,17,0,0,0-1.79.09c-.57.06-.94.08-1.11.08l-.69-.77.77-5.81,11.37.09q3.67,0,8-.18c2.88-.11,4.88-.19,6-.25q12.06,0,16.89,5A16.61,16.61,0,0,1,718.85,92a17.8,17.8,0,0,1-2.91,9.71,21.74,21.74,0,0,1-7.69,7.31A20.37,20.37,0,0,1,698,111.76h-7.27l-.08,5.39a22.5,22.5,0,0,0,.3,4.36,2.86,2.86,0,0,0,1.19,2,5,5,0,0,0,2.61.55c.74,0,1.44,0,2.09-.08s1.1-.09,1.33-.09l.34.6-.85,6.33q-1.46-.09-5.13-.21c-2.46-.09-4.76-.13-6.93-.13q-2.82,0-8,.3c-3.45.2-5.77.35-7,.47ZM704.4,93c0-3.25-.88-5.61-2.65-7.1s-4.56-2.22-8.38-2.22A2.19,2.19,0,0,0,692,84a2.52,2.52,0,0,0-.34,1.36q-.51,7.62-.77,17.62l6.84.94Q704.41,102.1,704.4,93Z"/><path class="cls-3" d="M723.77,126.13q-5.1-5.38-5.09-14.45A24.86,24.86,0,0,1,721.29,100a18.4,18.4,0,0,1,7.35-7.7,22.08,22.08,0,0,1,11.07-2.69q8.81,0,13.77,5.21t5,14.62a25.22,25.22,0,0,1-2.57,11.67,18.1,18.1,0,0,1-7.35,7.7,22.28,22.28,0,0,1-11.12,2.69Q728.85,131.51,723.77,126.13Zm19.58-4.62q1.41-2.4,1.41-7.78,0-8.13-1.67-11.84T738,98.17a4.84,4.84,0,0,0-4.49,2.39q-1.41,2.4-1.41,7.61,0,8.3,1.67,12t5.09,3.72A4.83,4.83,0,0,0,743.35,121.51Z"/><path class="cls-3" d="M766.13,99.11a2.33,2.33,0,0,0-2-.86,10,10,0,0,0-1.41.09,7,7,0,0,1-.82.08l.6-5.89q5-.69,10.35-1.63c3.53-.63,5.81-1.05,6.84-1.28l.94,1.62q-.95,2.06-1.63,8.94t-.68,14.58q0,6.24,4.62,6.24a6.59,6.59,0,0,0,2.65-.6,25.29,25.29,0,0,0,3.25-1.8V102.27a5.19,5.19,0,0,0-.64-3.12,4.06,4.06,0,0,0-2.78-.81h-1.2l.85-5.81q5.06-.6,10.39-1.5l6.89-1.16,1,1.63q-1.11,2-1.84,9.62t-.72,17a3.45,3.45,0,0,0,.77,2.35,2.55,2.55,0,0,0,2.05.9,5.9,5.9,0,0,0,2.31-.51,5.26,5.26,0,0,0,1.19-.6l1.37,2c-.23.4-.83,1.26-1.79,2.57a32.73,32.73,0,0,1-3.59,4,11.44,11.44,0,0,1-4.19,2.73c-5.48,0-8.55-2.13-9.24-6.41l-.77-.43a57.26,57.26,0,0,1-5.3,4.92c-1.54,1.22-2.59,1.84-3.16,1.84q-7,0-10.65-2.87t-3.63-8.25l.6-18.21A5.46,5.46,0,0,0,766.13,99.11Z"/><path class="cls-3" d="M813.33,120.91v-18c0-1.88-.31-3.13-.9-3.76s-1.81-1-3.64-1l-1-.68.6-5a74.37,74.37,0,0,0,7.31-3.93c2.42-1.48,4.43-2.77,6-3.85s2.6-1.8,3-2.14l2.73,1.54c0,.34-.2,1.24-.43,2.69s-.45,3.21-.68,5.26l8.81-.25.42.42-.94,6.5-8.89-.26c-.28,5.13-.43,10.84-.43,17.1a8,8,0,0,0,1.16,4.79,4.34,4.34,0,0,0,3.72,1.54,9.81,9.81,0,0,0,2.82-.43c1-.28,1.6-.48,1.88-.59l1.2,3.07c-.4.4-1.26,1.2-2.57,2.4a55.09,55.09,0,0,1-4.27,3.5,7,7,0,0,1-3.68,1.71Q813.33,131.51,813.33,120.91Z"/><path class="cls-3" d="M838.89,125a6.08,6.08,0,0,0,3.68-1.58,5,5,0,0,0,1.19-3.63V103a6.56,6.56,0,0,0-.81-3.85,3.71,3.71,0,0,0-3-1,5.36,5.36,0,0,0-1.19.13,3.47,3.47,0,0,0-.77.21l.6-5.9q5.55-.67,11.11-1.67t7.18-1.32l.94,1.62q-.93,1.89-1.49,9.88t-.56,20a4.49,4.49,0,0,0,.52,2.52,2.15,2.15,0,0,0,1.88.73,10.35,10.35,0,0,0,1.36-.09,7.94,7.94,0,0,1,1-.08l.16.34-.85,6.24c-.74-.06-2.12-.13-4.15-.21s-4.12-.13-6.28-.13a65.08,65.08,0,0,0-6.5.38c-2.45.26-4.05.44-4.79.56Zm5-43a7,7,0,0,1-1.8-5.09,7.68,7.68,0,0,1,2.1-5.64,7.34,7.34,0,0,1,5.51-2.14A6.67,6.67,0,0,1,854.71,71a7.14,7.14,0,0,1,1.79,5.13,7.65,7.65,0,0,1-2,5.6A7.29,7.29,0,0,1,849,83.8,6.86,6.86,0,0,1,843.85,82Z"/><path class="cls-3" d="M891.6,123.35a5.11,5.11,0,0,0,.9-3l.17-13.51c.05-2.39-.3-4.11-1.07-5.17a4.21,4.21,0,0,0-3.64-1.58c-1.59,0-3.56.85-5.89,2.56l-.26,5.3q-.69,11.13-.69,13a4.7,4.7,0,0,0,.52,2.61,2.16,2.16,0,0,0,1.88.73l1.88-.09.17.43-.94,6.24c-.68-.06-2-.13-3.85-.21s-3.79-.13-5.73-.13-4.23,0-6.54.17-3.8.2-4.49.25l.86-6.24a3.85,3.85,0,0,0,4.36-4.61V103.47c0-2-.27-3.33-.81-4s-1.64-1-3.29-1h-1.29l-.34-.51.6-5.38q5.39-.78,10.73-1.71l6.88-1.2.94.94c-.11.34-.28,1.13-.51,2.35s-.4,2.44-.51,3.63l.43.35a69.3,69.3,0,0,1,5.89-5q3.09-2.31,4.36-2.31,6.51,0,10,2.91a10.13,10.13,0,0,1,3.46,8.2q0,2.4-.77,9.49-.86,8.55-.86,10.61a5.1,5.1,0,0,0,.56,2.77,2.14,2.14,0,0,0,1.92.82l2.4-.09.17.34-.86,6.16c-.74-.06-2.09-.13-4.06-.21s-4-.13-5.94-.13c-1.37,0-3.19.07-5.47.21s-3.79.24-4.53.3l.6-6.24A4.8,4.8,0,0,0,891.6,123.35Z"/><path class="cls-3" d="M917.76,126.17q-5.26-5.34-5.26-14.83a23.31,23.31,0,0,1,2.65-11.2,19.36,19.36,0,0,1,7.4-7.74,21,21,0,0,1,10.81-2.78q15.23,0,15.22,15.64a22.84,22.84,0,0,1-.6,5.22l-1,.94H925.67q.17,5.13,2.78,7.82a9.47,9.47,0,0,0,7.14,2.7,24.55,24.55,0,0,0,10-2.48l.77.34,1.54,5.13a42.27,42.27,0,0,1-7.61,4.53,18.61,18.61,0,0,1-7.78,2Q923,131.51,917.76,126.17Zm17.4-20.82a2,2,0,0,0,1.11-.47,2.26,2.26,0,0,0,.26-1.33c0-4-1.54-6-4.62-6q-6.07,0-6.41,8.38Z"/></g></g></svg>