<svg xmlns="http://www.w3.org/2000/svg" viewBox="0 0 765.1 178.29"><defs><style>.cls-1{fill:none;}.cls-2{fill:#cf3339;}.cls-3{fill:#fff;}.cls-4{fill:#edb458;}.cls-5{fill:#7f5b49;}.cls-6{fill:#d19d50;}.cls-7{fill:#009ade;}</style></defs><title>logo-full-web-en</title><g id="Layer_2" data-name="Layer 2"><g id="extras"><path class="cls-1" d="M43.49,9l0-.15A.92.92,0,0,0,43,8.3a.7.7,0,0,0-.62,0,1,1,0,0,0-.57.52,1.44,1.44,0,0,0-.07.89Z"/><path class="cls-1" d="M61.76,6.64a.83.83,0,0,0,.81.36,1.15,1.15,0,0,0,.84-.52l0-.61L63.17,4a1.77,1.77,0,0,0-.83-.12c-.73.06-1.05.56-1,1.48A2.59,2.59,0,0,0,61.76,6.64Z"/><path class="cls-1" d="M34.72,13l-.06-.14a.93.93,0,0,0-.5-.47.72.72,0,0,0-.62.1,1,1,0,0,0-.47.6,1.41,1.41,0,0,0,.08.89Z"/><path class="cls-1" d="M26.23,18.93A1.33,1.33,0,0,0,26,17.19a1.19,1.19,0,0,0-.83-.43,1.43,1.43,0,0,0-.89.41l-.51.55,1.72,1.87Z"/><path class="cls-1" d="M117.84,22.17a.2.2,0,0,0,.11,0,.23.23,0,0,0,.07-.07.25.25,0,0,0,0-.13.18.18,0,0,0,0-.11.16.16,0,0,0-.08-.06.17.17,0,0,0-.1,0h-.41v.44h.41Z"/><path class="cls-1" d="M63.77,64.86l.35-1.81-1-.09Z"/><path class="cls-1" d="M114.2,22.91a.7.7,0,0,0,.13-.29,2.21,2.21,0,0,0,0-.37,2,2,0,0,0,0-.36.74.74,0,0,0-.13-.3.55.55,0,0,0-.27-.19,1,1,0,0,0-.43-.08h-.45v1.86h.45a1,1,0,0,0,.43-.07A.57.57,0,0,0,114.2,22.91Z"/><path class="cls-1" d="M116.93,23a.9.9,0,0,0,.33.25,1,1,0,0,0,.43.09.91.91,0,0,0,.41-.09,1,1,0,0,0,.34-.23,1.23,1.23,0,0,0,.22-.35,1.34,1.34,0,0,0,.08-.46,1.33,1.33,0,0,0-.08-.45,1.28,1.28,0,0,0-.22-.36,1,1,0,0,0-.34-.23,1.07,1.07,0,0,0-.41-.08,1.15,1.15,0,0,0-.41.08.86.86,0,0,0-.33.23,1,1,0,0,0-.22.36,1.13,1.13,0,0,0-.09.45,1.27,1.27,0,0,0,.08.44A1.13,1.13,0,0,0,116.93,23Zm.25-1.52h.57a.67.67,0,0,1,.41.11.37.37,0,0,1,.14.33.41.41,0,0,1-.11.3.54.54,0,0,1-.28.11l.42.66h-.28l-.39-.64h-.23V23h-.25Z"/><path class="cls-1" d="M70.09,6.85A1,1,0,0,0,71,6.44a1.93,1.93,0,0,0,.29-1.21A2.26,2.26,0,0,0,71,4.08a.81.81,0,0,0-.75-.38,1.43,1.43,0,0,0-.94.47V5.42l0,1.24A2,2,0,0,0,70.09,6.85Z"/><path class="cls-1" d="M58,5.26a1,1,0,0,0-.3-.62A.75.75,0,0,0,57,4.51a1,1,0,0,0-.66.38,1.49,1.49,0,0,0-.25.86L58,5.41Z"/><polygon class="cls-2" points="109.78 21.55 109.79 21.55 110.51 23.55 110.88 23.55 111.61 21.55 111.61 21.55 111.61 23.55 112.05 23.55 112.05 20.95 111.41 20.95 110.71 22.99 110.7 22.99 109.99 20.95 109.34 20.95 109.34 23.55 109.78 23.55 109.78 21.55"/><path class="cls-2" d="M114.19,23.45a.92.92,0,0,0,.36-.28,1.12,1.12,0,0,0,.2-.41,1.7,1.7,0,0,0,.07-.51,1.59,1.59,0,0,0-.07-.5,1.17,1.17,0,0,0-.2-.42,1,1,0,0,0-.36-.28,1.34,1.34,0,0,0-.52-.1h-1.08v2.6h1.08A1.18,1.18,0,0,0,114.19,23.45Zm-1.14-.27V21.32h.45a1,1,0,0,1,.43.08.55.55,0,0,1,.27.19.74.74,0,0,1,.13.3,2,2,0,0,1,0,.36,2.21,2.21,0,0,1,0,.37.7.7,0,0,1-.13.29.57.57,0,0,1-.27.2,1,1,0,0,1-.43.07Z"/><polygon class="cls-2" points="116.31 20.89 115.92 20.89 114.87 23.61 115.27 23.61 116.31 20.89"/><path class="cls-2" d="M116.73,23.22a1.37,1.37,0,0,0,.42.29,1.4,1.4,0,0,0,.54.1,1.25,1.25,0,0,0,.51-.1,1.12,1.12,0,0,0,.43-.27,1.3,1.3,0,0,0,.29-.43,1.43,1.43,0,0,0,.11-.56,1.38,1.38,0,0,0-.11-.55,1.21,1.21,0,0,0-.29-.43,1.15,1.15,0,0,0-.43-.28,1.25,1.25,0,0,0-.51-.1,1.29,1.29,0,0,0-.51.1,1.33,1.33,0,0,0-.43.28,1.21,1.21,0,0,0-.29.43,1.38,1.38,0,0,0-.11.55,1.53,1.53,0,0,0,.1.54A1.28,1.28,0,0,0,116.73,23.22Zm0-1.42a1,1,0,0,1,.22-.36.86.86,0,0,1,.33-.23,1.15,1.15,0,0,1,.41-.08,1.07,1.07,0,0,1,.41.08,1,1,0,0,1,.34.23,1.28,1.28,0,0,1,.22.36,1.33,1.33,0,0,1,.08.45,1.34,1.34,0,0,1-.08.46,1.23,1.23,0,0,1-.22.35,1,1,0,0,1-.34.23.91.91,0,0,1-.41.09,1,1,0,0,1-.43-.09.9.9,0,0,1-.33-.25,1.13,1.13,0,0,1-.21-.35,1.27,1.27,0,0,1-.08-.44A1.13,1.13,0,0,1,116.73,21.8Z"/><path class="cls-2" d="M117.43,22.39h.23l.39.64h.28l-.42-.66a.54.54,0,0,0,.28-.11.41.41,0,0,0,.11-.3.37.37,0,0,0-.14-.33.67.67,0,0,0-.41-.11h-.57V23h.25Zm0-.65h.41a.17.17,0,0,1,.1,0,.16.16,0,0,1,.08.06.18.18,0,0,1,0,.11.25.25,0,0,1,0,.13.23.23,0,0,1-.07.07.2.2,0,0,1-.11,0h-.41Z"/><path class="cls-2" d="M26.75,23.05l1.08-1-1.58-1.57,0,0,.51-.48a3.44,3.44,0,0,0,.89-1.3,2.44,2.44,0,0,0,.09-1.36A2.68,2.68,0,0,0,27,16a2.1,2.1,0,0,0-1.53-.75,2.44,2.44,0,0,0-1.63.77l-2,1.88,3.47,3.54Zm-2.49-5.88a1.43,1.43,0,0,1,.89-.41,1.19,1.19,0,0,1,.83.43,1.33,1.33,0,0,1,.25,1.74l-.76.66-1.72-1.87Z"/><path class="cls-2" d="M30.9,19.32l1.18-.86-1.39-1.77-.41-.56a1.41,1.41,0,0,1,.45-1.34,1,1,0,0,1,.37-.18l.09-.14-.79-1.09-.24.15a1.56,1.56,0,0,0-.5,1.59l-.07.05L29,14.36l-1,.91,1.76,2.3Z"/><path class="cls-2" d="M33.85,16.51a2.54,2.54,0,0,0,2-.36A4.49,4.49,0,0,0,37,15.09l-.36-1h-.15a3.72,3.72,0,0,1-1.11,1.1,1.28,1.28,0,0,1-1.9-.47l2.55-1.53,0-.23c-.1-.24-.19-.43-.27-.58a2,2,0,0,0-1.22-1,2.07,2.07,0,0,0-1.57.31,2.42,2.42,0,0,0-1.2,1.54,2.78,2.78,0,0,0,.41,2A2.67,2.67,0,0,0,33.85,16.51Zm-.78-3.44a1,1,0,0,1,.47-.6.72.72,0,0,1,.62-.1.93.93,0,0,1,.5.47l.06.14-1.57,1A1.41,1.41,0,0,1,33.07,13.07Z"/><path class="cls-2" d="M37,12.19a1.33,1.33,0,0,0,.63.2,7.09,7.09,0,0,0,.82,0,4,4,0,0,1,.72,0,.44.44,0,0,1,.34.25.47.47,0,0,1,0,.4.67.67,0,0,1-.35.33,2.08,2.08,0,0,1-.74.16,2.9,2.9,0,0,1-.88-.09l-.09.14.34,1.1a4.39,4.39,0,0,0,1.62-.4,2.41,2.41,0,0,0,.92-.7,1.63,1.63,0,0,0,.36-.85,1.49,1.49,0,0,0-.15-.83,1.14,1.14,0,0,0-.49-.56,1.47,1.47,0,0,0-.63-.21,7.34,7.34,0,0,0-.8,0,4,4,0,0,1-.72,0,.45.45,0,0,1-.34-.25.44.44,0,0,1,0-.37.64.64,0,0,1,.32-.31,2.31,2.31,0,0,1,.55-.14,2.92,2.92,0,0,1,.72,0l.13-.13-.28-1.05a3.83,3.83,0,0,0-1.38.37,2.17,2.17,0,0,0-1.12,1,1.44,1.44,0,0,0,0,1.28A1.2,1.2,0,0,0,37,12.19Z"/><path class="cls-2" d="M42,12.33a2.53,2.53,0,0,0,2,0,4.45,4.45,0,0,0,1.36-.84l-.18-1.09-.14,0a3.77,3.77,0,0,1-1.28.89A1.27,1.27,0,0,1,42,10.46l2.76-1.08.1-.22a5.24,5.24,0,0,0-.18-.61,2,2,0,0,0-1-1.2,2,2,0,0,0-1.6,0A2.3,2.3,0,0,0,40.64,8.7a2.74,2.74,0,0,0,.06,2.06A2.65,2.65,0,0,0,42,12.33Zm-.19-3.52a1,1,0,0,1,.57-.52.7.7,0,0,1,.62,0,.92.92,0,0,1,.42.55l0,.15-1.72.7A1.44,1.44,0,0,1,41.84,8.81Z"/><path class="cls-2" d="M46.65,11.25l1.41-.4-.69-2.14L47,7.49a1.7,1.7,0,0,1,.89-.75.67.67,0,0,1,.56.06.93.93,0,0,1,.33.53l.79,3.08L51,10l-.68-2.14L50,6.46a1.28,1.28,0,0,0-.7-.93,1.88,1.88,0,0,0-1.33,0,3.77,3.77,0,0,0-1.05,1.12l-.07,0-.21-.72-1.29.5.85,2.77Z"/><path class="cls-2" d="M50.72,5.72l.07.06.66-.15.41,1.84.14.9c.19.85.77,1.21,1.76,1.1a3.25,3.25,0,0,0,1-.58l0-.88-.14-.08a1.74,1.74,0,0,1-.68.34.59.59,0,0,1-.47,0,.79.79,0,0,1-.23-.46l-.46-2.42,1.28-.27-.1-.8L53.9,4.2l-1.28.28L52.4,3.32l-.12-.07-1.2.7.17.83-.63.14Z"/><path class="cls-2" d="M55.84,8.38a2.58,2.58,0,0,0,2,.4,4.91,4.91,0,0,0,1.5-.55l.05-1.11-.13-.06a3.67,3.67,0,0,1-1.44.62,1.28,1.28,0,0,1-1.6-1.13l2.93-.49.14-.2a5,5,0,0,0-.05-.64,2,2,0,0,0-.76-1.38,2,2,0,0,0-1.58-.29,2.32,2.32,0,0,0-1.67,1,2.69,2.69,0,0,0-.36,2A2.67,2.67,0,0,0,55.84,8.38Zm.53-3.49A1,1,0,0,1,57,4.51a.75.75,0,0,1,.62.13,1,1,0,0,1,.3.62v.15l-1.83.34A1.49,1.49,0,0,1,56.37,4.89Z"/><path class="cls-2" d="M60.8,7.62a2.08,2.08,0,0,0,1.73.53,4.39,4.39,0,0,0,1-.85h.09a1,1,0,0,0,1,.68,1.83,1.83,0,0,0,.78-.34l.05-.78-.1-.08a1.05,1.05,0,0,1-.3.07.2.2,0,0,1-.18,0,.52.52,0,0,1-.08-.25l-.11-.92L64.24.19,62.81.43l.25,2.46a5.73,5.73,0,0,0-.71,0,2.57,2.57,0,0,0-1.82.87,2.69,2.69,0,0,0-.49,2A2.79,2.79,0,0,0,60.8,7.62Zm1.54-3.74a1.77,1.77,0,0,1,.83.12l.21,1.87,0,.61a1.15,1.15,0,0,1-.84.52.83.83,0,0,1-.81-.36,2.59,2.59,0,0,1-.38-1.28C61.29,4.44,61.61,3.94,62.34,3.88Z"/><path class="cls-2" d="M67.93,7.7l.17.14.77-.28a3.7,3.7,0,0,0,1.23.24A2.39,2.39,0,0,0,72,7.05,2.91,2.91,0,0,0,72.6,5a2.85,2.85,0,0,0-.52-1.81,1.77,1.77,0,0,0-1.49-.64,3.72,3.72,0,0,0-.63.32,3.46,3.46,0,0,0-.59.48H69.3l0-3.32L67.87.12,68,5.62ZM69.3,4.17a1.43,1.43,0,0,1,.94-.47.81.81,0,0,1,.75.38,2.26,2.26,0,0,1,.25,1.15A1.93,1.93,0,0,1,71,6.44a1,1,0,0,1-.86.41,2,2,0,0,1-.77-.19l0-1.24Z"/><path class="cls-2" d="M73.69,8.46a4.16,4.16,0,0,1-1.16.3l0,.14a3,3,0,0,0,.57.89h.11a5.49,5.49,0,0,0,1.3-.43,2.68,2.68,0,0,0,.86-.71A4.83,4.83,0,0,0,76,7.49l1.91-4.66-1.26-.07-.23.89-1,2.68h-.09l-.77-2.89-.14-.82H73l1.61,5.16A2.75,2.75,0,0,1,73.69,8.46Z"/><path class="cls-2" d="M50.64,43.36c2.85,0,5.4-5.08,5.63-6.91.09-.81-.39-1.45-1.49-1.45-2.77,0-5.22,4.91-5.44,6.71A1.32,1.32,0,0,0,50.64,43.36Z"/><path class="cls-2" d="M97.44,40.83c-1.17,4.1,2.13,4,4.2,1.15,1.45-2,2.7-4.9,2.38-6.51a2.62,2.62,0,0,0-.4-1C99.12,34.91,97.62,40.18,97.44,40.83Z"/><path class="cls-2" d="M43.73,51.59a2.3,2.3,0,0,1,1.78-.37L59,54a2.3,2.3,0,0,1,1.72,1.53L63.14,63l1,.09.27-1.38a2.32,2.32,0,0,1,1.91-1.84l13.42-2a2.3,2.3,0,0,1,2.55,1.65l.84,2.94c18.93-3,32.8-12.73,32.8-24.27,0-13.93-20.2-25.22-45.12-25.22S25.67,24.17,25.67,38.1c0,7.84,6.4,14.85,16.44,19.47l.66-4.43A2.31,2.31,0,0,1,43.73,51.59ZM77.22,31.1c7.4,1.48,11.46.57,14.89.41l1.27-2.66a4.47,4.47,0,0,1,3.2,0L95.4,31.49c5.17.12,8.13,1.08,9.82,2.23,2.88.14,5.35.86,6,1.46a3.47,3.47,0,0,1-1.79,1.71A6.67,6.67,0,0,0,106.55,35a3.83,3.83,0,0,1,.76,3.09c-.42,3.42-4.25,6.88-8.64,6.88-2.61,0-4.27-1.23-4.63-3.06a5.18,5.18,0,0,1,0-1.31,7.06,7.06,0,0,1,1.73-3.84c1.68-1.94,4.37-2.77,7.06-3-1.86-1.13-5.39-.73-8.23-.45l-2.83,6.28a14.18,14.18,0,0,0-1.14,2.93c0,.38,0,.8.61.8a2.11,2.11,0,0,0,1.15-.46,9.27,9.27,0,0,0,.72-.62,3.23,3.23,0,0,0,.32.73v0a6.16,6.16,0,0,1-4,1.92c-1.41,0-2.44-.83-2.3-2A5.55,5.55,0,0,1,87.65,41c.27-.68.59-1.36.82-1.89l2.7-5.65c-3.71,0-10-.37-14.15-2.07Zm-1.21,4a3.43,3.43,0,0,0-.81.22,2.8,2.8,0,0,0-.27-.64,6.71,6.71,0,0,1,3.28-1.1c1.19,0,2.06.63,1.93,1.63a10.34,10.34,0,0,1-1.21,2.94,43.71,43.71,0,0,0-2.15,4.41c-.06.46.29.67.83.67,2.57,0,5.39-5.48,6.24-7.13l.92-1.64s1.12.11,1.58.14l1.71.11L86.15,38.4a19.4,19.4,0,0,0-1.5,4.05c0,.3,0,.79.46.79a2,2,0,0,0,.93-.39.31.31,0,0,0,0,.1,1.48,1.48,0,0,0,.09.76v0A5.41,5.41,0,0,1,83,44.88,1.64,1.64,0,0,1,81.15,43a6.43,6.43,0,0,1,.46-1.67l-.06-.06c-1.42,2-3.42,3.57-5.93,3.58-1.45,0-2.48-.75-2.33-2a11.17,11.17,0,0,1,1.25-3.05s1.89-3.77,1.94-4.18A.43.43,0,0,0,76,35.11Zm-9.47-.76-.38.88.06.05a6,6,0,0,1,4.17-1.67c2.26,0,3.32,1.14,3.46,2.71a4.8,4.8,0,0,1,0,.94c-.4,3.23-3.58,7.63-8.13,7.63a2.87,2.87,0,0,1-2.88-1.65h-.06l-3.53,7.81A4.17,4.17,0,0,1,56.81,49l7.44-16.56A3.92,3.92,0,0,1,66.54,34.35Zm-9.37.9L58,33.87a4.66,4.66,0,0,1,3.27,0L58,40.73a9.57,9.57,0,0,0-.73,1.88c0,.3,0,.89.48.89a1.21,1.21,0,0,0,.56-.15h0l-.46,1a5,5,0,0,1-2.09.51c-1.19,0-1.92-.77-1.8-1.7a8.07,8.07,0,0,1,.21-.92l-.06-.05a6.58,6.58,0,0,1-5,2.67c-2.64,0-3.69-1.7-3.44-3.69.4-3.28,4.11-7.6,8.63-7.6A2.85,2.85,0,0,1,57.17,35.25ZM32.38,43.18c-2.15-2.48.31-3.77,1.52-3.75-.63,2.38.32,4.49,3.35,4.49a3.49,3.49,0,0,0,3.54-2.42c.37-1.59-.51-2.53-1.56-3.59l-1-1c-1.3-1.32-2.28-2.51-1.81-4.48.67-2.83,3.66-4.59,7-4.59a6.25,6.25,0,0,1,4.29,1.46,2,2,0,0,1-1.15,3.55.54.54,0,0,1-.21-.06c.59-1.83,0-3.85-2.58-3.85-1.42,0-3.18.76-3.49,2.05C40,32.43,41,33.44,42,34.4l.9.88c1.43,1.39,2.6,2.71,2.09,4.86-.74,3.08-3.83,4.9-7.48,4.9A6.89,6.89,0,0,1,32.38,43.18Z"/><path class="cls-2" d="M65,43.5c2.83,0,5.06-5.09,5.28-6.92A1.36,1.36,0,0,0,68.77,35c-2.8,0-4.92,5.29-5.12,6.84A1.34,1.34,0,0,0,65,43.5Z"/><path class="cls-3" d="M45,40.14c.51-2.15-.66-3.47-2.09-4.86L42,34.4c-1-1-2-2-1.66-3.44.31-1.29,2.07-2.05,3.49-2.05,2.54,0,3.17,2,2.58,3.85a.54.54,0,0,0,.21.06,2,2,0,0,0,1.15-3.55,6.25,6.25,0,0,0-4.29-1.46c-3.38,0-6.37,1.76-7,4.59-.47,2,.51,3.16,1.81,4.48l1,1c1.05,1.06,1.93,2,1.56,3.59a3.49,3.49,0,0,1-3.54,2.42c-3,0-4-2.11-3.35-4.49-1.21,0-3.67,1.27-1.52,3.75A6.89,6.89,0,0,0,37.5,45C41.15,45,44.24,43.22,45,40.14Z"/><path class="cls-3" d="M59.23,51.05l3.53-7.81h.06a2.87,2.87,0,0,0,2.88,1.65c4.55,0,7.73-4.4,8.13-7.63a4.8,4.8,0,0,0,0-.94c-.14-1.57-1.2-2.71-3.46-2.71a6,6,0,0,0-4.17,1.67l-.06-.05.38-.88a3.92,3.92,0,0,0-2.29-1.93L56.81,49A4.17,4.17,0,0,0,59.23,51.05Zm4.42-9.21C63.85,40.29,66,35,68.77,35a1.36,1.36,0,0,1,1.53,1.58c-.22,1.83-2.45,6.92-5.28,6.92A1.34,1.34,0,0,1,63.65,41.84Z"/><path class="cls-3" d="M45.63,41.2c-.25,2,.8,3.69,3.44,3.69a6.58,6.58,0,0,0,5-2.67l.06.05a8.07,8.07,0,0,0-.21.92c-.12.93.61,1.7,1.8,1.7a5,5,0,0,0,2.09-.51l.46-1h0a1.21,1.21,0,0,1-.56.15c-.44,0-.52-.59-.48-.89A9.57,9.57,0,0,1,58,40.73l3.24-6.86a4.66,4.66,0,0,0-3.27,0l-.79,1.38a2.85,2.85,0,0,0-2.91-1.65C49.74,33.6,46,37.92,45.63,41.2Zm3.71.51C49.56,39.91,52,35,54.78,35c1.1,0,1.58.64,1.49,1.45-.23,1.83-2.78,6.91-5.63,6.91A1.32,1.32,0,0,1,49.34,41.71Z"/><path class="cls-3" d="M74.54,39.83a11.17,11.17,0,0,0-1.25,3.05c-.15,1.25.88,2,2.33,2,2.51,0,4.51-1.63,5.93-3.58l.06.06A6.43,6.43,0,0,0,81.15,43,1.64,1.64,0,0,0,83,44.88a5.41,5.41,0,0,0,3.16-1.15v0A1.48,1.48,0,0,1,86,43a.31.31,0,0,1,0-.1,2,2,0,0,1-.93.39c-.49,0-.5-.49-.46-.79a19.4,19.4,0,0,1,1.5-4.05l1.91-3.68-1.71-.11c-.46,0-1.58-.14-1.58-.14l-.92,1.64c-.85,1.65-3.67,7.13-6.24,7.13-.54,0-.89-.21-.83-.67a43.71,43.71,0,0,1,2.15-4.41,10.34,10.34,0,0,0,1.21-2.94c.13-1-.74-1.63-1.93-1.63a6.71,6.71,0,0,0-3.28,1.1,2.8,2.8,0,0,1,.27.64,3.43,3.43,0,0,1,.81-.22.43.43,0,0,1,.47.54C76.43,36.06,74.54,39.83,74.54,39.83Z"/><path class="cls-3" d="M88.47,39.14c-.23.53-.55,1.21-.82,1.89A5.55,5.55,0,0,0,87.06,43c-.14,1.14.89,2,2.3,2a6.16,6.16,0,0,0,4-1.92v0a3.23,3.23,0,0,1-.32-.73,9.27,9.27,0,0,1-.72.62,2.11,2.11,0,0,1-1.15.46c-.6,0-.66-.42-.61-.8a14.18,14.18,0,0,1,1.14-2.93l2.83-6.28c2.84-.28,6.37-.68,8.23.45-2.69.21-5.38,1-7.06,3A7.06,7.06,0,0,0,94,40.57a5.18,5.18,0,0,0,0,1.31c.36,1.83,2,3.06,4.63,3.06,4.39,0,8.22-3.46,8.64-6.88a3.83,3.83,0,0,0-.76-3.09,6.67,6.67,0,0,1,2.85,1.92,3.47,3.47,0,0,0,1.79-1.71c-.62-.6-3.09-1.32-6-1.46-1.69-1.15-4.65-2.11-9.82-2.23l1.18-2.62a4.47,4.47,0,0,0-3.2,0l-1.27,2.66c-3.43.16-7.49,1.07-14.89-.41l-.2.32c4.13,1.7,10.44,2.07,14.15,2.07ZM104,35.47c.32,1.61-.93,4.54-2.38,6.51-2.07,2.88-5.37,3-4.2-1.15.18-.65,1.68-5.92,6.18-6.33A2.62,2.62,0,0,1,104,35.47Z"/><path class="cls-3" d="M146.9,95.91l-5.64-13.83a2.29,2.29,0,0,0-2.63-1.38l-7.39,1.66,2.15-5.3a2.32,2.32,0,0,0,.13-1.33L132,68a2.31,2.31,0,0,0-2.68-1.82l-12.5,2.38-1.29-7.67a2.31,2.31,0,0,0-1.25-1.68l-6.7-3.34a2.29,2.29,0,0,0-2.1,0L97,60.52A2.3,2.3,0,0,0,95.8,63L94,61.56a2.27,2.27,0,0,0-2.4-.24l-7.69,3.76-.77-2.71-.84-2.94a2.3,2.3,0,0,0-2.55-1.65l-13.42,2a2.32,2.32,0,0,0-1.91,1.84l-.27,1.38-.35,1.81L63.14,63l-2.46-7.43A2.3,2.3,0,0,0,59,54L45.51,51.22a2.31,2.31,0,0,0-2.74,1.92l-.66,4.43-.53,3.52a2.24,2.24,0,0,0,.18,1.3L43.82,67l-.09.08,0-.05-3.27-4.63a2.3,2.3,0,0,0-2.31-.93l-8.44,1.65a2.29,2.29,0,0,0-1.77,1.62L25,74.58l-2.16-3.23a2.31,2.31,0,0,0-1.94-1l-6.77.11a2.29,2.29,0,0,0-2,1.31l-4.32,9a2.31,2.31,0,0,0,.3,2.49l.73.87-4.65-.2a2.31,2.31,0,0,0-2.38,2L0,100.28a2.3,2.3,0,0,0,1.14,2.3L5.31,105l-.42.12-.48.16a2.29,2.29,0,0,0-1,.7l-.33.39c-1.42,1.7-1.68,4.44-.86,8.88l.27,1.46a2.41,2.41,0,0,0,.53,1.1l.11.59h.67a2.41,2.41,0,0,0,.65.18l.74,4.28a13.24,13.24,0,0,0-3.73,8.77c0,4.58,2.39,7.48,6.65,8.16l.26,1.51L5.64,154a3.75,3.75,0,0,0,.75,3.13,3.65,3.65,0,0,0,2.89,1.39h2l2.55,14.77a5.83,5.83,0,0,0,5.8,5h101a5.8,5.8,0,0,0,5.79-4.93l2.79-16.2c2.08-1.25,4.32-3.62,5.15-8.14a3.76,3.76,0,0,0-1.61-3.81,12.52,12.52,0,0,0,4-9.05,7.64,7.64,0,0,0-2.81-6.34l1.94-11.27a2.48,2.48,0,0,0,.66-.18h.67l.11-.59a2.41,2.41,0,0,0,.53-1.1l.27-1.46c.82-4.44.56-7.18-.86-8.88l-.16-.19,9.09-7.58A2.33,2.33,0,0,0,146.9,95.91Zm-13.81,40.42c0,5.21-4.91,9.17-10.27,9.48a13.1,13.1,0,0,0-.09,1.35c0,2.83,1.2,3.73,2.77,3.73a9.1,9.1,0,0,0,5.27-2.38c-.94,5.12-4.16,6.65-7.73,6.65-3.12,0-5.46-1.17-6.43-3.92-2.14,3.39-4.52,3.92-6.29,3.92-3.89,0-5.27-2.52-5.27-5.08,0-3.05,2-8.58,2-11.46,0-1.48-.54-2.29-1.61-2.29-1.61,0-2.81,1.89-3.48,4.13l-3,14.43H92.5l.56-2.65a8.35,8.35,0,0,1-6.36,2.92,4.41,4.41,0,0,1-4.67-4,8.62,8.62,0,0,1-7.25,4,4.41,4.41,0,0,1-4.66-4c-2.32,3.4-5,4-6.85,4-2.55,0-4.16-1.48-4.43-4.27-2.23,3.69-4.73,4.27-6.6,4.27-2.68,0-4.78-1.62-4.78-5.39a14.23,14.23,0,0,1,.36-2.92l1.33-6.34a18.28,18.28,0,0,1-3.75,1c-.71,8.32-5.17,13.53-10.66,13.53-4.16,0-7.15-2-7.15-7.1s3-16,12.23-16c3.84,0,5.72,2.48,5.72,7.2a1.16,1.16,0,0,0,.49.08,9.83,9.83,0,0,0,3.56-.87l1.26-6h6.43L54.07,147.7a6.31,6.31,0,0,0-.14,1.26c0,1,.36,1.84,1.34,1.84,1.74,0,2.9-1.71,3.57-4l3-14.43h6.43L65.09,147.7a6.38,6.38,0,0,0-.17,1.44c0,1.26.58,1.66,1.83,1.66,1.74,0,2.94-1.71,3.61-4L73,134.22H71.57l.35-1.8H73.4l1.34-6.2,6.6-.9-1.51,7.1h2.68l-.36,1.8H79.47L76.61,147.7a6.47,6.47,0,0,0-.18,1.44c0,1.26.58,1.66,1.83,1.66,1.75,0,3.35-1.71,4-4l3-14.43h6.43L88.53,147.7a6.47,6.47,0,0,0-.18,1.44c0,1.26.58,1.66,1.83,1.66,1.74,0,3.33-1.69,4-3.92l3-14.46h6.43l-.5,2.34a6.62,6.62,0,0,1,5.23-2.52c2.86,0,4.95,1.48,4.95,5.08s-2.14,9.08-2.14,11.59c0,1.13.45,1.89,1.79,1.89,1.54,0,2.36-1,3.12-2.56V148c0-5.16,2.9-16,12.06-16C132.15,132,133.09,134.08,133.09,136.33Zm-12.4,38h-101a1.79,1.79,0,0,1-1.77-1.53L15.33,157.9H16a3,3,0,0,0,2.9-2.35l2.39-11.25a16.85,16.85,0,0,0,3.81-.9,22.74,22.74,0,0,0-.52,4.57c0,6.3,3.78,10.07,10.12,10.07a12.05,12.05,0,0,0,9.43-4.75c.22-.27.43-.56.64-.85a7.23,7.23,0,0,0,7.43,5.69,9.5,9.5,0,0,0,5.87-1.94,7.19,7.19,0,0,0,5.16,1.94,10.39,10.39,0,0,0,6.18-2,7.55,7.55,0,0,0,5.33,2,11.18,11.18,0,0,0,2.37-.25,6.36,6.36,0,0,0-1.06,3.43,4.56,4.56,0,0,0,4.81,4.8v4.49a3,3,0,0,0,3,3h2.77a3,3,0,0,0,1.87-.65,3,3,0,0,0,1.86.65h2.79a3,3,0,0,0,2.06-.83,6.28,6.28,0,0,0,3.46,1,7.73,7.73,0,0,0,3.77-1,6.28,6.28,0,0,0,3.46,1,7.91,7.91,0,0,0,2.54-.41,2.94,2.94,0,0,0,1.29.29h2.71a2.94,2.94,0,0,0,2-.74,5.73,5.73,0,0,0,3.12.86,5,5,0,0,0,4.72-4.72,3,3,0,0,0-1-2.46,6.08,6.08,0,0,0,0-.61,5.68,5.68,0,0,0-.42-2.18l.22-.16a3,3,0,0,0-1.7-5.4H118.1l.05-.21a3,3,0,0,0,0-.79,11.39,11.39,0,0,0,4.84,1,14,14,0,0,0,2-.14l-2.56,14.84A1.79,1.79,0,0,1,120.69,174.36Zm-105-49.49,7-1-3.33,15.79c4.74-.38,8.22-6.57,8.22-11.63,0-3.5-1.69-6.43-5.83-6.43-7.6,0-12.16,4.3-12.16,11.49a6.52,6.52,0,0,0,.66,3.21c-3.24,0-5-1.18-5-4.58,0-6.29,8.64-12.29,16.49-12.29s11.08,4.44,11.08,9.31a13.16,13.16,0,0,1-13.57,12.67H18.9L16,154.93H9.28ZM46.14,55.1l11,2.29L55,63.18l-9.78-2.45Zm65.22,6.35-7,4.93-4.55-3.15,7-4Zm.89.75,2.65,15.65-3.56,12.51-6.16-22.74ZM104,67.55l5.94,21.93c.82.46,1.58,1.07,2.42,1.58l5-17.58,2,4.84L115.2,92a6.63,6.63,0,0,1,1.09.35l4.12-13.48,9.5-2.23-3.68,9.07a3.49,3.49,0,0,0-1.38,1.05c-1.2,1.33-3.54-.26-4.43,1.73s1.23,2.41,1.67,3.65a2.79,2.79,0,0,1,.07,1.17l-2.06,2.19-2.93,3.1-.36-4.16-7.35,0a3.38,3.38,0,0,0-1.26-3.33,17.18,17.18,0,0,0-2-1.58l.21-.65a2.89,2.89,0,0,1,.47-.11l-.21-.72.93-2.88-2.22-7.91-1.76.36L99.76,64.46ZM128.75,70l1.13,5.49-9.37,2.2L118.15,72Zm-1.51,34.86,8.09-7,6.5-.26-9.14,7.62C131.45,105.06,129.72,105,127.24,104.85Zm-2-.07c-2.23-.08-4.94-.16-8.26-.24l.65-1.19-.25-2.85,4.8-5.09c.13.25.38.38.85.32,1.78-.25,1.64-2,3.2-2.21s2.66.11,3.11-2.12c.34-1.71.5-2.78.05-3.63l1-1.07,3.69,10.38Zm-34.49-.66c-4.69-.05-9.17-.09-13.06-.11l-2.17-6.62-1-3a2.28,2.28,0,0,0,1.27-.83l.76,3.27a5,5,0,0,1,.9-.21l-1-4.44c0-.12.06-.23.09-.36.68-3.08.91-4.64-.79-6-.34-.27-.66-.56-1-.84L73.78,81l1.89-3.73,4.2,19.61a4.67,4.67,0,0,1,1.12.75l-1.72-8.06,4.86-2.85.2,7.59-3.25,3.41a10,10,0,0,1,.81.89l6.22-6.52-.5,5.36L84,101.08a6.08,6.08,0,0,0,1,.69l3.25-3.26,9.31,2.87-3.32,2.78Zm-43.17,0,.78-4.57L53.54,97l-.49,7.08Zm-27.8-4.53.87,4.55-4.92-3c-.09-1-1.33-1.6-1.15-2.62s.85-1.76-1.07-2.92c-.44-.27-.82-.49-1.18-.69l.55-6.67,11.3,8.34Zm10.73-5.76,3.62,4.57-7.81,5.77L21.41,100ZM13,101.14l5.86,3.52c-2.72.08-4.91.15-6.68.23l-7.1-4.08,3-.46a1.52,1.52,0,0,0,.22.22c1.57,1.37,2.56.1,3.82.28A3.35,3.35,0,0,1,13,101.14Zm8.91,3.44-.56-3,3.32,2.9ZM32,104.37l-4,.08,6.7-5,.37,4.82Zm3.81-5.7-1.57-2-1.94-12,4.82,4.64,2.12,15-3,0Zm7.8-21.09,4.15,5.61-9.67,5.08-5.66-5.43ZM79.09,79a3,3,0,0,1,.5,0c.64,0,1.37,0,2.11,0s1.49,0,2.22,0L84,83c-.42-.2-.89-.16-1.57.58s-2.23-.06-2.75,1.09.82,1.34,1.12,2a1,1,0,0,1,.08.35L79,88.19l-1.84-8.63-.9-4.21L70.5,73.94l.69-3.19,9.83-2L77.65,79.35A7.35,7.35,0,0,1,79.09,79Zm-4-2.73L73,80.07l-7.39-2.7,2.48-3Zm-2.18,5.13.64,2.78c-1-.51-2.14-.44-3.86,1.29a3,3,0,0,1-1.9.8l-2.57-8Zm-1,22.64h-.75l-9.39-5-2.4-5.39L69.2,96.2ZM56,95.13c-.18-1.67-1.82-4.27-4.56-2.1a1.31,1.31,0,0,1-1.2.27l-.07-1.63a15.63,15.63,0,0,1,2.59-1l.92-.16L51.71,76,54,72.37l2,17.94a23,23,0,0,1,2.35,0L58,93.18l2.19,4.9-4.21-2.27A2.59,2.59,0,0,0,56,95.13ZM69,95l-9.7-2.61.9-5.56,10.95,2.47ZM65.87,83.21l1,3.06a9,9,0,0,0-2.47.24l-5.23-1.18-.68,4.44-1.62-.91-.36-3.22Zm-6.59-3a1.36,1.36,0,0,1-.29.63,5.69,5.69,0,0,0-1.58,3,1.61,1.61,0,0,0,0,.22l-1.06.27-.57-5-1-8.86-6.63-2.13L45.26,62l9.92,2.47,4.22,12a1.73,1.73,0,0,0-.74,1.1C58.34,78.65,59.38,79.42,59.28,80.23Zm-5.76-9L51,75l-7.25-3.25,2.83-2.85Zm-2.74,5,1.73,13.08a2.2,2.2,0,0,0-.34-.13c-1-.27-.55-2-2.23-1.89l-.15-3.62L44,75.8l0,0-.71-3.21ZM38.59,89.61l9.8-5.15.33,7.93c-1.17-1-2.31-2.17-3.47-.64-.77,1-3.07-.7-3.47,1.52-.18,1,.92,1.76.91,2.52s-1.44,1.57-1.41,3.34a3.93,3.93,0,0,0,3.54,3.54,3.12,3.12,0,0,0,1.63-.41l-.36,1.9-5.43.07Zm16.27,7.11L68.39,104c-3.71,0-8.5,0-13.77.08ZM73.13,104l-2.91-8.34,1.84-4.85L76.4,104ZM84.78,70l3.15,3.69.15,16.75L85.4,93.2Zm19.71,8.8,1.63,5.6-9.4,2.36L93.82,81Zm1.21,23.87-1.92-6.76,11.78-.08.61,6.32Zm-3.48-11.81c-1.76,1.76-5.11-.16-6.59,2.08L96.72,88l9.53-2.39-1.18,3.67C104.3,89.23,103.39,89.64,102.22,90.82Zm-6.6-3.43-1.11,5L91.44,91l1.7-8.48ZM96,79.25,92.39,80,90.3,90.4l-1.15-.56-.14-16,7.82-5.35ZM89.34,91.47l5.79,2.68c-.22,1.6,1.4,2.32,2.35,3.34l.27,2.7-8.78-3ZM98,102.55a.92.92,0,0,0,1,.64l-.42,1-2.51,0Zm4.78-5.21,1.64,5.76-.51,1.2-3.93-.06Zm2.7,6.61,10.61-.52-.59,1.08-7.1-.14h0l-3.08-.05ZM96.19,67.59l-7.6,4.82-3.44-3.78,7.43-3.77Zm-25,1.88-3-6.11,11-1.7,1.72,5.88ZM70,70.09l-.76,3.55-1.48-.36-2.29,2.81-.22-.2,2.15-11Zm-7.61,5.78c-.44.53-1.16.4-1.86.37L56.21,63.86l1.85-4.94,5.38,16.21A2.16,2.16,0,0,0,62.43,75.87ZM36.52,79.32l-5.1,2.39a4.67,4.67,0,0,0-1.31-1l2.82-9.12,7.79-2.7Zm-3.55-9-1.8-3.9,7-1.49L40.43,68Zm-.87.88-2.93,9.46a2.26,2.26,0,0,0-.92.72,1.46,1.46,0,0,1-1.28.4l-.44-.65,4-13.69ZM28.39,89.35A10.62,10.62,0,0,1,31.51,89l.86,5.26L30.76,92.2l-5.48,3.69-2.46-1.81-3.69-2.72L12,82.81l4.74.93,7.18,9A8.9,8.9,0,0,1,28.39,89.35Zm-3.92-6.27c-.31,1.09.73,1.86.63,2.68s-1.69,1.7-1.88,3.6a2.89,2.89,0,0,0,0,.72l-5.51-6.89,2.84-9.08,5.13,7.68C25.18,81.89,24.73,82.19,24.47,83.08Zm-4.95-9.26-3,8.53-5-.82L15,73.93ZM11.54,88,11,94.41a2.68,2.68,0,0,0-1.7,0c-1.22.37-2.78.38-1.33,2.55.51.76,0,1.41-.18,2.08l-4,.61L5.24,87.82ZM6.18,109.16c1.62-.55,14-.84,25.87-1.06,13.73-.24,29.51-.38,38-.38h.26c8.48,0,24.25.14,38,.38,11.91.22,24.25.51,25.87,1.06.14.16.77,1.19,0,5.47H134a1.8,1.8,0,0,0-1.77,1.53l-2.24,13a11.68,11.68,0,0,0-1.81-.13c-5,0-9.17,2.59-11.9,7.31-.38-4.34-3.39-7.09-7.88-7.09a9.62,9.62,0,0,0-3.28.56,2.93,2.93,0,0,0-1.45-.38H97.24a3,3,0,0,0-2.75,1.84c0-.09-.07-.17-.11-.26a6.53,6.53,0,1,0-10.55-7.32,2.45,2.45,0,0,0-.31-.41,3,3,0,0,0-2.58-.93l-6.6.9a3,3,0,0,0-2.5,2.32l-.87,4a2.81,2.81,0,0,0-.85.46,2.94,2.94,0,0,0-1.81-.62H61.88a3,3,0,0,0-2.3,1.09,3,3,0,0,0-2.3-1.09H53.56a6.94,6.94,0,0,0,1.65-2.7,3,3,0,0,0-.67-3.16l1-5a3,3,0,0,0-2.9-3.58H50a3.44,3.44,0,0,0-.46,0,6.3,6.3,0,0,0-1.28-.13,7.26,7.26,0,0,0-1.57.18l.22-1a3,3,0,0,0-.52-2.39,3,3,0,0,0-2.15-1.19h0c-.26,0-.58,0-1,0A10.89,10.89,0,0,0,37,112.57a7.38,7.38,0,0,0-3.35,5.81,4.48,4.48,0,0,0,2.63,4.35l-.8,3.75a11.48,11.48,0,0,0-3.37-6.32c-2.51-2.39-6.13-3.65-10.47-3.65a22.48,22.48,0,0,0-12.72,4.21l-.79-4.56a1.78,1.78,0,0,0-1.76-1.53H6.2C5.41,110.35,6,109.32,6.18,109.16Zm80,17.28a3.56,3.56,0,0,1,3.53-3.6,3.6,3.6,0,0,1,3.57,3.6A3.56,3.56,0,0,1,89.74,130,3.51,3.51,0,0,1,86.21,126.44Zm-2.3,3.37a2.28,2.28,0,0,0-.45-.2l.19-.89a5.88,5.88,0,0,0,.47,1Zm-48.25-.33a1.88,1.88,0,0,0,.12.18l-.14.05C35.65,129.63,35.65,129.55,35.66,129.48Zm3-1.56a3.24,3.24,0,0,0-.44,0L41,114.8a4.2,4.2,0,0,0-2.64,4.13,2.59,2.59,0,0,0,.27,1.29c-1.3,0-2-.47-2-1.84,0-2.52,3.47-4.93,6.61-4.93.27,0,.51,0,.76,0l-2.91,13.62c2,.43,3.94,2.44,6.33,2.44a4,4,0,0,0,1.59-.3c-.19,1.82-1,3-2,3C44.33,132.23,42,127.92,38.63,127.92ZM50,118h2.71l-1.36,6.45a3.07,3.07,0,0,0-.07.61c0,.53.24.7.77.7a1,1,0,0,0,.41-.07c-.5,1.32-.86,1.91-1.88,1.91a1.82,1.82,0,0,1-1.85-1.76,3.39,3.39,0,0,1-2.8,1.76c-1.28,0-2.51-.8-2.51-3,0-2.56,1.57-6.64,4.84-6.64,1.08,0,1.53.42,1.53,1V119Zm36.46,38.41.17,11.66,4-11.6H93v11.6l4-11.6h1.32L93.15,170.6H90.36v-9.66l-3.73,9.66H83.86V157.65a4.06,4.06,0,0,0-3,4.21,2.67,2.67,0,0,0,.27,1.29c-1.3,0-2-.48-2-1.84,0-2.53,3.47-4.93,6.61-4.93C85.94,156.38,86.18,156.39,86.43,156.41Zm29.76,7.27a2,2,0,0,1,2.07,2.21,3,3,0,0,1-.08.72l-.2.95a3,3,0,0,0-.1.61c0,.38.15.7.74.7a1.35,1.35,0,0,0,.66-.11,2.09,2.09,0,0,1-1.76,2c-1.54,0-2.37-.78-2.37-2.16a5.25,5.25,0,0,1,.11-1l.15-.74a3,3,0,0,0,.08-.7c0-.55-.19-.91-.68-.91a2.38,2.38,0,0,0-1.39.7l-1,4.69h-2.71l.44-2.11a5.46,5.46,0,0,1-4.27,2.22A2.57,2.57,0,0,1,103,168.4a5.5,5.5,0,0,1-4.34,2.31c-1.77,0-2.94-.87-2.94-3s1.23-6.76,5.09-6.76c1.67,0,2.07.88,2.07,1.82,0,2.19-2.07,3.87-4.33,4,0,.26,0,.53,0,.75,0,1.29.45,1.6,1.36,1.6a4,4,0,0,0,3.09-1.65c.08-2.25,1.34-6.53,5.08-6.53,1.68,0,2.07.88,2.07,1.82,0,2.19-2.07,3.87-4.33,4,0,.26,0,.53,0,.75,0,1.29.45,1.6,1.36,1.6,1.49,0,2.39-.84,3.33-1.92h0l2-9.5,2.78-.38L113.83,164l3.64-2.88h1.86l-3.77,2.63A3.38,3.38,0,0,1,116.19,163.68Zm-6.85-5.57a6,6,0,0,0-1.29-.13,7.06,7.06,0,0,0-3.85,1.09A5.25,5.25,0,0,0,101,158l.18-.48a3,3,0,0,0,.18-.88,3.14,3.14,0,0,0,.49-1.12l.59-2.83a7.53,7.53,0,0,0,6.91,5.41Zm26-61.7-3.65-10.23,6.64-1.44,4.62,11.37Z"/><polygon class="cls-4" points="79.15 61.66 68.13 63.35 71.17 69.47 80.87 67.53 79.15 61.66"/><path class="cls-4" d="M65.51,76.09l2.29-2.81,1.48.36L70,70.09l-2.6-5.21-2.15,11Z"/><polygon class="cls-4" points="57.19 57.39 46.14 55.1 45.24 60.73 55.02 63.18 57.19 57.39"/><path class="cls-4" d="M58.06,58.92l-1.85,4.94,4.36,12.38c.7,0,1.42.16,1.86-.37a2.16,2.16,0,0,1,1-.74Z"/><polygon class="cls-4" points="104.4 66.38 111.36 61.45 106.87 59.26 99.85 63.23 104.4 66.38"/><polygon class="cls-4" points="111.34 90.36 114.9 77.85 112.25 62.2 105.18 67.62 111.34 90.36"/><polygon class="cls-4" points="129.88 75.48 128.75 69.99 118.15 72.01 120.51 77.68 129.88 75.48"/><path class="cls-4" d="M115.2,92l4.18-13.71-2-4.84-5,17.58a6.07,6.07,0,0,0,2.28.86Z"/><polygon class="cls-4" points="131.66 86.18 135.3 96.42 142.91 96.11 138.28 84.74 131.66 86.18"/><path class="cls-4" d="M129.34,87.77c.45.85.29,1.92-.05,3.63-.45,2.23-1.55,1.87-3.11,2.12s-1.42,2-3.2,2.21c-.47.06-.72-.07-.85-.32l-4.8,5.09.25,2.85-.65,1.19c3.32.08,6,.16,8.26.24l8.86-7.7L130.36,86.7Z"/><polygon class="cls-4" points="31.17 66.43 32.97 70.33 40.43 68.01 38.21 64.94 31.17 66.43"/><path class="cls-4" d="M30.11,80.71a4.67,4.67,0,0,1,1.31,1l5.1-2.39,4.2-10.43-7.79,2.7Z"/><polygon class="cls-4" points="16.53 82.35 19.52 73.82 15 73.93 11.51 81.53 16.53 82.35"/><path class="cls-4" d="M17.73,83.19l5.51,6.89a2.89,2.89,0,0,1,0-.72c.19-1.9,1.78-2.79,1.88-3.6s-.94-1.59-.63-2.68c.26-.89.71-1.19,1.23-1.29l-5.13-7.68Z"/><path class="cls-4" d="M56.86,88.86l1.62.91.68-4.44,5.23,1.18a9,9,0,0,1,2.47-.24l-1-3.06L56.5,85.64Z"/><polygon class="cls-4" points="43.73 71.75 50.98 75 53.52 71.25 46.56 68.9 43.73 71.75"/><path class="cls-4" d="M44,75.82l0,0,5.76,7.92.15,3.62c1.68-.14,1.23,1.62,2.23,1.89a2.2,2.2,0,0,1,.34.13L50.78,76.28l-7.5-3.67Z"/><path class="cls-4" d="M84.33,94.32l-.2-7.59-4.86,2.85L81,97.64l.09.09Z"/><polygon class="cls-4" points="88.59 72.41 96.19 67.58 92.58 64.86 85.15 68.63 88.59 72.41"/><polygon class="cls-4" points="89.15 89.84 90.3 90.39 92.39 79.99 96 79.25 96.83 68.47 89.01 73.82 89.15 89.84"/><polygon class="cls-4" points="65.58 77.37 72.97 80.07 75.09 76.22 68.06 74.37 65.58 77.37"/><path class="cls-4" d="M67.79,86.22a3,3,0,0,0,1.9-.8c1.72-1.73,2.87-1.8,3.86-1.29l-.64-2.78-7.69-3.11Z"/><path class="cls-4" d="M75.74,93.54a2.28,2.28,0,0,1-1.27.83l1,3a3.16,3.16,0,0,1,1-.58Z"/><path class="cls-4" d="M7.81,99c.21-.67.69-1.32.18-2.08-1.45-2.17.11-2.18,1.33-2.55a2.68,2.68,0,0,1,1.7,0L11.54,88l-6.3-.22L3.77,99.6Z"/><path class="cls-4" d="M12.28,95c.36.2.74.42,1.18.69,1.92,1.16,1.28,1.77,1.07,2.92s1.06,1.59,1.15,2.62l4.92,3-.87-4.55,4.4-3-11.3-8.34Z"/><polygon class="cls-4" points="38.07 88.27 47.74 83.19 43.59 77.58 32.41 82.84 38.07 88.27"/><path class="cls-4" d="M46.45,102.26a3.12,3.12,0,0,1-1.63.41,3.93,3.93,0,0,1-3.54-3.54c0-1.77,1.41-2.58,1.41-3.34s-1.09-1.5-.91-2.52c.4-2.22,2.7-.49,3.47-1.52,1.16-1.53,2.3-.34,3.47.64l-.33-7.93-9.8,5.15,2.07,14.62,5.43-.07Z"/><polygon class="cls-4" points="34.08 98.43 30.46 93.86 21.41 99.96 26.27 104.2 34.08 98.43"/><path class="cls-4" d="M34.66,99.5l-6.7,5,4-.08,3.05-.05Z"/><polygon class="cls-4" points="96.72 86.72 106.12 84.36 104.49 78.75 93.82 80.95 96.72 86.72"/><polygon class="cls-4" points="91.44 90.94 94.51 92.43 95.62 87.39 93.14 82.47 91.44 90.94"/><path class="cls-4" d="M97.75,100.19l-.27-2.7c-1-1-2.57-1.74-2.35-3.34l-5.79-2.68L89,97.14Z"/><path class="cls-4" d="M88.24,98.51,85,101.77a4.62,4.62,0,0,0,.93.42c1.08.35,3.3.62,4.78,1.93l3.53,0,3.32-2.78Z"/><path class="cls-5" d="M55.78,79.32l.57,5,1.06-.27a1.61,1.61,0,0,1,0-.22,5.69,5.69,0,0,1,1.58-3c-.28-.2-.56-.4-.84-.58A7.86,7.86,0,0,0,55.78,79.32Z"/><path class="cls-5" d="M106.89,88.84a2.89,2.89,0,0,0-.47.11l-.21.65a17.18,17.18,0,0,1,2,1.58,3.38,3.38,0,0,1,1.26,3.33l7.35,0,.36,4.16,2.93-3.1a11.36,11.36,0,0,0-3.81-3.15A6.63,6.63,0,0,0,115.2,92l-.57-.11a6.07,6.07,0,0,1-2.28-.86c-.84-.51-1.6-1.12-2.42-1.58A4.42,4.42,0,0,0,106.89,88.84Z"/><path class="cls-5" d="M79,88.19l1.94-1.14a1,1,0,0,0-.08-.35c-.3-.7-1.64-.89-1.12-2s2-.3,2.75-1.09S83.61,82.79,84,83l-.11-4.11c-.73,0-1.48,0-2.22,0s-1.47,0-2.11,0a3,3,0,0,0-.5,0,7.35,7.35,0,0,0-1.44.4l-.52.21Z"/><path class="cls-5" d="M60.15,98.08,58,93.18l.44-2.85a23,23,0,0,0-2.35,0,21.81,21.81,0,0,0-2.42.25l-.92.16a15.63,15.63,0,0,0-2.59,1l.07,1.63a1.31,1.31,0,0,0,1.2-.27c2.74-2.17,4.38.43,4.56,2.1a2.59,2.59,0,0,1,0,.68Z"/><path class="cls-5" d="M24,92.7c-.39.47-.76.94-1.14,1.38l2.46,1.81,5.48-3.69,1.61,2.07L31.51,89a10.62,10.62,0,0,0-3.12.34A8.9,8.9,0,0,0,24,92.7Z"/><path class="cls-5" d="M85,101.77a6.08,6.08,0,0,1-1-.69,21.19,21.19,0,0,1-2.13-2.46,10,10,0,0,0-.81-.89L81,97.64a4.67,4.67,0,0,0-1.12-.75,3.81,3.81,0,0,0-1.6-.35,7.28,7.28,0,0,0-.87.06,5,5,0,0,0-.9.21,3.16,3.16,0,0,0-1,.58L77.64,104c3.89,0,8.37.06,13.06.11-1.48-1.31-3.7-1.58-4.78-1.93A4.62,4.62,0,0,1,85,101.77Z"/><polygon class="cls-4" points="103.78 95.87 105.7 102.63 116.17 102.11 115.56 95.79 103.78 95.87"/><path class="cls-4" d="M104.4,103.1l-1.64-5.76-2.8,6.9,3.93.06Z"/><polygon class="cls-4" points="60.24 86.78 59.34 92.35 69.04 94.96 71.19 89.26 60.24 86.78"/><path class="cls-4" d="M70.22,95.65,73.13,104l3.27,0L72.06,90.8Z"/><path class="cls-4" d="M48.31,99.58l-.78,4.57,5.52-.06L53.54,97Z"/><path class="cls-6" d="M71.19,70.75l-.69,3.19,5.73,1.41.9,4.21.52-.21L81,68.79Z"/><path class="cls-6" d="M59.4,76.45l-4.22-12L45.26,62l2.88,6.37,6.63,2.13,1,8.86a7.86,7.86,0,0,1,2.37,1c.28.18.56.38.84.58a1.36,1.36,0,0,0,.29-.63c.1-.81-.94-1.58-.62-2.68A1.73,1.73,0,0,1,59.4,76.45Z"/><path class="cls-6" d="M105.39,77.33l2.22,7.91-.93,2.88.21.72a4.42,4.42,0,0,1,3,.64L104,67.55l-4.23-3.09,3.87,13.23Z"/><path class="cls-6" d="M120.1,95.53l2.06-2.19a2.79,2.79,0,0,0-.07-1.17c-.44-1.24-2.56-1.67-1.67-3.65s3.23-.4,4.43-1.73a3.49,3.49,0,0,1,1.38-1.05l3.68-9.07-9.5,2.23-4.12,13.48A11.36,11.36,0,0,1,120.1,95.53Z"/><path class="cls-6" d="M141.83,97.56l-6.5.26-8.09,7c2.48.11,4.21.21,5.45.33Z"/><path class="cls-6" d="M27,81.79a1.46,1.46,0,0,0,1.28-.4,2.26,2.26,0,0,1,.92-.72l2.93-9.46-1.58-3.76-4,13.69Z"/><path class="cls-6" d="M16.78,83.74,12,82.81l7.09,8.55,3.69,2.72c.38-.44.75-.91,1.14-1.38Z"/><path class="cls-6" d="M54,72.37,51.71,76l1.92,14.56a21.81,21.81,0,0,1,2.42-.25Z"/><polygon class="cls-6" points="87.93 73.65 84.78 69.96 85.4 93.2 88.08 90.4 87.93 73.65"/><path class="cls-6" d="M79.87,96.89l-4.2-19.61L73.78,81,74.7,85c.31.28.63.57,1,.84,1.7,1.37,1.47,2.93.79,6,0,.13-.06.24-.09.36l1,4.44a7.28,7.28,0,0,1,.87-.06A3.81,3.81,0,0,1,79.87,96.89Z"/><path class="cls-6" d="M8.33,100.57a1.52,1.52,0,0,1-.22-.22l-3,.46,7.1,4.08c1.77-.08,4-.15,6.68-.23L13,101.14a3.35,3.35,0,0,0-.86-.29C10.89,100.67,9.9,101.94,8.33,100.57Z"/><path class="cls-6" d="M37.1,89.29l-4.82-4.64,1.94,12,1.57,2,.43,5.63,3,0Z"/><path class="cls-6" d="M21.36,101.62l.56,3,2.76-.06Z"/><path class="cls-6" d="M96.72,88,95.63,92.9c1.48-2.24,4.83-.32,6.59-2.08,1.17-1.18,2.08-1.59,2.85-1.57l1.18-3.67Z"/><path class="cls-6" d="M99,103.19a.92.92,0,0,1-1-.64l-2,1.63,2.51,0Z"/><path class="cls-6" d="M84,101.08l3.59-3.62.5-5.36-6.22,6.52A21.19,21.19,0,0,0,84,101.08Z"/><path class="cls-6" d="M108.38,104.37l7.1.14.59-1.08-10.61.52-.16.37,3.08.05Z"/><path class="cls-6" d="M59.37,93.56,61.77,99l9.39,5h.75L69.2,96.2Z"/><path class="cls-6" d="M54.86,96.72l-.24,7.35c5.27,0,10.06-.07,13.77-.08Z"/><path class="cls-7" d="M123,158.13a11.39,11.39,0,0,1-4.84-1,3,3,0,0,1,0,.79l-.05.21h1.23a3,3,0,0,1,1.7,5.4l-.22.16a5.68,5.68,0,0,1,.42,2.18,6.08,6.08,0,0,1,0,.61,3,3,0,0,1,1,2.46,5,5,0,0,1-4.72,4.72,5.73,5.73,0,0,1-3.12-.86,2.94,2.94,0,0,1-2,.74h-2.71a2.94,2.94,0,0,1-1.29-.29,7.91,7.91,0,0,1-2.54.41,6.28,6.28,0,0,1-3.46-1,7.73,7.73,0,0,1-3.77,1,6.28,6.28,0,0,1-3.46-1,3,3,0,0,1-2.06.83H90.36a3,3,0,0,1-1.86-.65,3,3,0,0,1-1.87.65H83.86a3,3,0,0,1-3-3v-4.49a4.56,4.56,0,0,1-4.81-4.8,6.36,6.36,0,0,1,1.06-3.43,11.18,11.18,0,0,1-2.37.25,7.55,7.55,0,0,1-5.33-2,10.39,10.39,0,0,1-6.18,2,7.19,7.19,0,0,1-5.16-1.94,9.5,9.5,0,0,1-5.87,1.94,7.23,7.23,0,0,1-7.43-5.69c-.21.29-.42.58-.64.85A12.05,12.05,0,0,1,34.74,158c-6.34,0-10.12-3.77-10.12-10.07a22.74,22.74,0,0,1,.52-4.57,16.85,16.85,0,0,1-3.81.9l-2.39,11.25A3,3,0,0,1,16,157.9h-.71l2.57,14.93a1.79,1.79,0,0,0,1.77,1.53h101a1.79,1.79,0,0,0,1.77-1.53L125,158A14,14,0,0,1,123,158.13Z"/><path class="cls-7" d="M6.36,114.63a1.78,1.78,0,0,1,1.76,1.53l.79,4.56a22.48,22.48,0,0,1,12.72-4.21c4.34,0,8,1.26,10.47,3.65a11.48,11.48,0,0,1,3.37,6.32l.8-3.75a4.48,4.48,0,0,1-2.63-4.35A7.38,7.38,0,0,1,37,112.57a10.89,10.89,0,0,1,6.23-2.09c.37,0,.69,0,1,0h0a3,3,0,0,1,2.15,1.19,3,3,0,0,1,.52,2.39l-.22,1a7.26,7.26,0,0,1,1.57-.18,6.3,6.3,0,0,1,1.28.13,3.44,3.44,0,0,1,.46,0h2.71a3,3,0,0,1,2.9,3.58l-1,5a3,3,0,0,1,.67,3.16,6.94,6.94,0,0,1-1.65,2.7h3.72a3,3,0,0,1,2.3,1.09,3,3,0,0,1,2.3-1.09h6.43a2.94,2.94,0,0,1,1.81.62,2.81,2.81,0,0,1,.85-.46l.87-4a3,3,0,0,1,2.5-2.32l6.6-.9a3,3,0,0,1,2.58.93,2.45,2.45,0,0,1,.31.41A6.52,6.52,0,1,1,94.38,131c0,.09.08.17.11.26a3,3,0,0,1,2.75-1.84h6.43a2.93,2.93,0,0,1,1.45.38,9.62,9.62,0,0,1,3.28-.56c4.49,0,7.5,2.75,7.88,7.09,2.73-4.72,7-7.31,11.9-7.31a11.68,11.68,0,0,1,1.81.13l2.24-13a1.8,1.8,0,0,1,1.77-1.53h.16c.79-4.28.16-5.31,0-5.47-1.62-.55-14-.84-25.87-1.06-13.75-.24-29.52-.38-38-.38h-.26c-8.49,0-24.27.14-38,.38-11.91.22-24.25.51-25.87,1.06-.14.16-.77,1.19,0,5.47Z"/><path class="cls-7" d="M102.43,152.67l-.59,2.83a3.14,3.14,0,0,1-.49,1.12,3,3,0,0,1-.18.88L101,158a5.25,5.25,0,0,1,3.21,1.09,7.06,7.06,0,0,1,3.85-1.09,6,6,0,0,1,1.29.13v0A7.53,7.53,0,0,1,102.43,152.67Z"/><path class="cls-7" d="M38.11,142.36a19,19,0,0,0-.86,4.2,16,16,0,0,0,1.22-3.63A3.41,3.41,0,0,1,38.11,142.36Z"/><path class="cls-7" d="M35.66,129.48c0,.07,0,.15,0,.23l.14-.05A1.88,1.88,0,0,1,35.66,129.48Z"/><path class="cls-7" d="M83.46,129.61a2.28,2.28,0,0,1,.45.2l.21-.11a5.88,5.88,0,0,1-.47-1Z"/><path class="cls-3" d="M48.82,119.09c-1.6,0-2.64,3.41-2.64,5.19,0,1.46.6,1.48.94,1.48a1.89,1.89,0,0,0,1.56-1.67l.91-4.28A.73.73,0,0,0,48.82,119.09Z"/><path class="cls-3" d="M41.7,141.68c-.94-.23-1.21-1-1.21-1.89a2.47,2.47,0,0,1,1.39-2.43c-.09-1.89-.54-2.6-1.7-2.6-3.17,0-5.94,8.22-5.94,12.63,0,3,.58,3.64,2.28,3.64C38.71,151,41,147,41.7,141.68Zm-4.45,4.88a19,19,0,0,1,.86-4.2,3.41,3.41,0,0,0,.36.57A16,16,0,0,1,37.25,146.56Z"/><path class="cls-3" d="M128.53,134.4c-2.23,0-4.46,5-5.4,9.25,3.48-.17,6.52-3.64,6.52-7.41C129.65,135.11,129.38,134.4,128.53,134.4Z"/><path class="cls-3" d="M101,162c-1,0-1.89,2-2.26,3.91a3.18,3.18,0,0,0,2.73-3.13C101.44,162.25,101.33,162,101,162Z"/><path class="cls-3" d="M105.94,165.86a3.18,3.18,0,0,0,2.73-3.13c0-.48-.11-.78-.47-.78C107.24,162,106.32,164,105.94,165.86Z"/><path d="M47,132.23c1,0,1.77-1.16,2-3a4,4,0,0,1-1.59.3c-2.39,0-4.37-2-6.33-2.44L44,113.49c-.25,0-.49,0-.76,0-3.14,0-6.61,2.41-6.61,4.93,0,1.37.72,1.84,2,1.84a2.59,2.59,0,0,1-.27-1.29A4.2,4.2,0,0,1,41,114.8l-2.81,13.14a3.24,3.24,0,0,1,.44,0C42,127.92,44.33,132.23,47,132.23Z"/><path d="M48.23,117.91c-3.27,0-4.84,4.08-4.84,6.64,0,2.25,1.23,3,2.51,3a3.39,3.39,0,0,0,2.8-1.76,1.82,1.82,0,0,0,1.85,1.76c1,0,1.38-.59,1.88-1.91a1,1,0,0,1-.41.07c-.53,0-.77-.17-.77-.7a3.07,3.07,0,0,1,.07-.61L52.68,118H50l-.21,1v-.13C49.76,118.33,49.31,117.91,48.23,117.91Zm.45,6.18a1.89,1.89,0,0,1-1.56,1.67c-.34,0-.94,0-.94-1.48,0-1.78,1-5.19,2.64-5.19a.73.73,0,0,1,.77.72Z"/><path d="M16,154.93l2.86-13.47h.24a13.16,13.16,0,0,0,13.57-12.67c0-4.87-3.38-9.31-11.08-9.31-7.85,0-16.49,6-16.49,12.29,0,3.4,1.79,4.58,5,4.58a6.52,6.52,0,0,1-.66-3.21c0-7.19,4.56-11.49,12.16-11.49,4.14,0,5.83,2.93,5.83,6.43,0,5.06-3.48,11.25-8.22,11.63l3.33-15.79-6.95,1L9.28,154.93Z"/><path d="M89.74,130a3.56,3.56,0,0,0,3.57-3.55,3.6,3.6,0,0,0-3.57-3.6,3.56,3.56,0,0,0-3.53,3.6A3.51,3.51,0,0,0,89.74,130Z"/><path d="M128.18,132c-9.16,0-12.06,10.84-12.06,16v.23c-.76,1.56-1.58,2.56-3.12,2.56-1.34,0-1.79-.76-1.79-1.89,0-2.51,2.14-7.95,2.14-11.59s-2.09-5.08-4.95-5.08a6.62,6.62,0,0,0-5.23,2.52l.5-2.34H97.24l-3,14.46c-.68,2.23-2.27,3.92-4,3.92-1.25,0-1.83-.4-1.83-1.66a6.47,6.47,0,0,1,.18-1.44l3.22-15.28H85.32l-3,14.43c-.67,2.24-2.27,4-4,4-1.25,0-1.83-.4-1.83-1.66a6.47,6.47,0,0,1,.18-1.44l2.86-13.48h2.68l.36-1.8H79.83l1.51-7.1-6.6.9-1.34,6.2H71.92l-.35,1.8H73l-2.68,12.63c-.67,2.24-1.87,4-3.61,4-1.25,0-1.83-.4-1.83-1.66a6.38,6.38,0,0,1,.17-1.44l3.22-15.28H61.88l-3,14.43c-.67,2.24-1.83,4-3.57,4-1,0-1.34-.81-1.34-1.84a6.31,6.31,0,0,1,.14-1.26l3.21-15.28H50.85l-1.26,6a9.83,9.83,0,0,1-3.56.87,1.16,1.16,0,0,1-.49-.08c0-4.72-1.88-7.2-5.72-7.2-9.19,0-12.23,10.79-12.23,16s3,7.1,7.15,7.1c5.49,0,9.95-5.21,10.66-13.53a18.28,18.28,0,0,0,3.75-1l-1.33,6.34a14.23,14.23,0,0,0-.36,2.92c0,3.77,2.1,5.39,4.78,5.39,1.87,0,4.37-.58,6.6-4.27.27,2.79,1.88,4.27,4.43,4.27,1.81,0,4.53-.56,6.85-4a4.41,4.41,0,0,0,4.66,4,8.62,8.62,0,0,0,7.25-4,4.41,4.41,0,0,0,4.67,4,8.35,8.35,0,0,0,6.36-2.92l-.56,2.65h6.43l3-14.43c.67-2.24,1.87-4.13,3.48-4.13,1.07,0,1.61.81,1.61,2.29,0,2.88-2,8.41-2,11.46,0,2.56,1.38,5.08,5.27,5.08,1.77,0,4.15-.53,6.29-3.92,1,2.75,3.31,3.92,6.43,3.92,3.57,0,6.79-1.53,7.73-6.65a9.1,9.1,0,0,1-5.27,2.38c-1.57,0-2.77-.9-2.77-3.73a13.1,13.1,0,0,1,.09-1.35c5.36-.31,10.27-4.27,10.27-9.48C133.09,134.08,132.15,132,128.18,132ZM36.52,151c-1.7,0-2.28-.68-2.28-3.64,0-4.41,2.77-12.63,5.94-12.63,1.16,0,1.61.71,1.7,2.6a2.47,2.47,0,0,0-1.39,2.43c0,.9.27,1.66,1.21,1.89C41,147,38.71,151,36.52,151Zm86.61-7.38c.94-4.27,3.17-9.25,5.4-9.25.85,0,1.12.71,1.12,1.84C129.65,140,126.61,143.48,123.13,143.65Z"/><path d="M79.06,161.31c0,1.36.72,1.84,2,1.84a2.67,2.67,0,0,1-.27-1.29,4.06,4.06,0,0,1,3-4.21V170.6h2.77l3.73-9.66v9.66h2.79l5.24-14.13H97.07l-4,11.6v-11.6H90.55l-4,11.6-.17-11.66c-.25,0-.49,0-.76,0C82.53,156.38,79.06,158.78,79.06,161.31Z"/><path d="M117.47,161.12,113.83,164l1.41-6.68-2.78.38-2,9.5h0c-.94,1.08-1.84,1.92-3.33,1.92-.91,0-1.36-.31-1.36-1.6,0-.22,0-.49,0-.75,2.26-.14,4.33-1.82,4.33-4,0-.94-.39-1.82-2.07-1.82-3.74,0-5,4.28-5.08,6.53a4,4,0,0,1-3.09,1.65c-.91,0-1.36-.31-1.36-1.6,0-.22,0-.49,0-.75,2.26-.14,4.33-1.82,4.33-4,0-.94-.4-1.82-2.07-1.82-3.86,0-5.09,4.58-5.09,6.76s1.17,3,2.94,3A5.5,5.5,0,0,0,103,168.4a2.57,2.57,0,0,0,2.89,2.31,5.46,5.46,0,0,0,4.27-2.22l-.44,2.11h2.71l1-4.69a2.38,2.38,0,0,1,1.39-.7c.49,0,.68.36.68.91a3,3,0,0,1-.08.7l-.15.74a5.25,5.25,0,0,0-.11,1c0,1.38.83,2.16,2.37,2.16a2.09,2.09,0,0,0,1.76-2,1.35,1.35,0,0,1-.66.11c-.59,0-.74-.32-.74-.7a3,3,0,0,1,.1-.61l.2-.95a3,3,0,0,0,.08-.72,2,2,0,0,0-2.07-2.21,3.38,3.38,0,0,0-.63.07l3.77-2.63Zm-18.76,4.74C99.08,164,100,162,101,162c.36,0,.47.3.47.78A3.18,3.18,0,0,1,98.71,165.86ZM108.2,162c.36,0,.47.3.47.78a3.18,3.18,0,0,1-2.73,3.13C106.32,164,107.24,162,108.2,162Z"/><path d="M166.87,124.46c2.17-.35,3.65-1,4.45-2.1s1.19-2.83,1.19-5.34V86a7.22,7.22,0,0,0-.59-3.55,2.81,2.81,0,0,0-2.48-.89,11.28,11.28,0,0,0-1.46.08,8.54,8.54,0,0,1-.94.09l-.6-.95.69-5.64,12.48.09q2.47,0,7.91-.22t7.22-.3l-.77,7a20.58,20.58,0,0,0-4.4.85,3.25,3.25,0,0,0-1.92,1.54,9,9,0,0,0-.69,3.08q-.86,12.31-.85,30.52c0,1.83.28,3,.85,3.63s1.74.9,3.51.9a12.17,12.17,0,0,0,5.64-1,6.32,6.32,0,0,0,2.78-3.81,41.82,41.82,0,0,0,1.41-8.51l8.81-.94.77,1c-.17,1.14-.49,3.78-.94,7.91s-.86,8.45-1.2,13l-1,1.11-10-.38q-7.65-.3-14.57-.3-5.06,0-9.84.34t-6.15.51Z"/><path d="M236.72,129.67a6.37,6.37,0,0,1-2.65-4.79l-.85-.34a42.9,42.9,0,0,1-5.26,4.53,8,8,0,0,1-4.23,1.88,11.26,11.26,0,0,1-6.12-1.75,12.22,12.22,0,0,1-4.36-4.83,14.59,14.59,0,0,1-1.58-6.75,7.88,7.88,0,0,1,1.46-4.75,6.14,6.14,0,0,1,3.76-2.52l16.58-3.51v-1.19a6.89,6.89,0,0,0-1.88-5.18,7.28,7.28,0,0,0-5.3-1.83,12.93,12.93,0,0,0-5,1.15,28.2,28.2,0,0,0-5,2.69l-.85-.43-1.8-5.89q4.71-2.56,9.58-4.66t7-2.1q8,0,11.76,3.34a11.05,11.05,0,0,1,3.72,8.63q0,1.2-.86,7.87c-.06.68-.23,2.08-.51,4.19a37.86,37.86,0,0,0-.43,4.44,3.5,3.5,0,0,0,.77,2.35,2.56,2.56,0,0,0,2.05.9A7.43,7.43,0,0,0,250.4,120l1.37,2a32.43,32.43,0,0,1-4.19,6q-2.47,2.82-4.53,3.34A10.86,10.86,0,0,1,236.72,129.67Zm-6.28-8.59a13.21,13.21,0,0,0,2.69-1.16l.17-7.69-7.78,2a2.13,2.13,0,0,0-1.88,2.39,5.41,5.41,0,0,0,1.16,3.55,3.73,3.73,0,0,0,3,1.41A9,9,0,0,0,230.44,121.08Z"/><path d="M268.87,124.37q3.33-.6,4.53-2.1c.8-1,1.2-2.69,1.2-5.08l.08-31a8.17,8.17,0,0,0-.55-3.63,2.1,2.1,0,0,0-2-1,17.29,17.29,0,0,0-1.8.08q-.85.09-1.11.09l-.68-.77.77-5.82,11.37.09q3.68,0,8-.17c2.88-.12,4.89-.2,6-.26q12.06,0,16.89,5a16.63,16.63,0,0,1,4.83,12.05,17.8,17.8,0,0,1-2.91,9.71,21.68,21.68,0,0,1-7.7,7.31,20.38,20.38,0,0,1-10.26,2.74h-7.26l-.09,5.38a23.34,23.34,0,0,0,.3,4.36,2.9,2.9,0,0,0,1.2,2,5,5,0,0,0,2.61.56c.74,0,1.44,0,2.09-.09s1.1-.08,1.33-.08l.34.59-.86,6.33q-1.45-.09-5.13-.21t-6.92-.13q-2.82,0-8,.3c-3.45.2-5.77.35-7,.47ZM302,92.82c0-3.25-.89-5.61-2.65-7.1s-4.56-2.22-8.38-2.22a2.24,2.24,0,0,0-1.37.26,2.47,2.47,0,0,0-.34,1.37q-.51,7.61-.77,17.61l6.84.94Q302,101.88,302,92.82Z"/><path d="M321.32,125.91q-5.08-5.39-5.08-14.45a24.85,24.85,0,0,1,2.6-11.67,18.42,18.42,0,0,1,7.36-7.7,22.08,22.08,0,0,1,11.07-2.69q8.81,0,13.76,5.22t5,14.62a25.27,25.27,0,0,1-2.56,11.67,18,18,0,0,1-7.36,7.69A22.21,22.21,0,0,1,335,131.3Q326.41,131.3,321.32,125.91Zm19.58-4.62c.94-1.59,1.41-4.19,1.41-7.78q0-8.12-1.66-11.84c-1.12-2.48-2.81-3.72-5.09-3.72a4.84,4.84,0,0,0-4.49,2.39q-1.41,2.4-1.41,7.61,0,8.3,1.66,12c1.12,2.48,2.81,3.72,5.09,3.72A4.81,4.81,0,0,0,340.9,121.29Z"/><path d="M363.69,98.89a2.34,2.34,0,0,0-2.06-.85,12.2,12.2,0,0,0-1.41.08,7.7,7.7,0,0,1-.81.09l.6-5.9q5-.69,10.34-1.63t6.85-1.28l.94,1.63q-.94,2-1.63,8.93t-.68,14.58q0,6.24,4.62,6.24a6.54,6.54,0,0,0,2.64-.6,24,24,0,0,0,3.25-1.8V102.05a5.11,5.11,0,0,0-.64-3.12,4,4,0,0,0-2.78-.81h-1.19l.85-5.81c3.36-.4,6.83-.9,10.39-1.5l6.88-1.15,1,1.62c-.74,1.31-1.36,4.52-1.84,9.62s-.73,10.76-.73,17a3.5,3.5,0,0,0,.77,2.35,2.58,2.58,0,0,0,2.06.9,5.89,5.89,0,0,0,2.3-.51,4.39,4.39,0,0,0,1.2-.6l1.37,2c-.23.39-.83,1.25-1.8,2.56a31.92,31.92,0,0,1-3.59,4,11.44,11.44,0,0,1-4.19,2.74q-8.21,0-9.23-6.42l-.77-.42a58.27,58.27,0,0,1-5.3,4.91c-1.54,1.23-2.6,1.84-3.16,1.84q-7,0-10.65-2.86t-3.63-8.25l.59-18.22A5.57,5.57,0,0,0,363.69,98.89Z"/><path d="M410.88,120.69v-18c0-1.88-.3-3.13-.9-3.76s-1.81-1-3.63-1l-1-.68.6-5a73.25,73.25,0,0,0,7.31-3.93q3.64-2.22,6-3.85c1.6-1.08,2.59-1.79,3-2.14L425,83.84c-.06.35-.2,1.24-.43,2.7s-.45,3.2-.68,5.25l8.8-.25.43.43-.94,6.49-8.89-.25q-.43,7.7-.43,17.1A8,8,0,0,0,424,120.1a4.35,4.35,0,0,0,3.71,1.53,10.16,10.16,0,0,0,2.83-.42c1-.29,1.59-.49,1.88-.6l1.2,3.08c-.41.4-1.26,1.19-2.57,2.39a54.76,54.76,0,0,1-4.27,3.51,7.11,7.11,0,0,1-3.68,1.71Q410.89,131.3,410.88,120.69Z"/><path d="M436.45,124.8a6.17,6.17,0,0,0,3.67-1.58,5,5,0,0,0,1.2-3.64V102.82q0-2.82-.81-3.84a3.7,3.7,0,0,0-3-1,5.44,5.44,0,0,0-1.2.13,4.23,4.23,0,0,0-.76.21l.59-5.9q5.56-.67,11.12-1.66c3.7-.66,6.1-1.1,7.18-1.33l.94,1.63c-.63,1.25-1.12,4.54-1.5,9.87s-.55,12-.55,20a4.56,4.56,0,0,0,.51,2.52,2.14,2.14,0,0,0,1.88.73,10.39,10.39,0,0,0,1.37-.09c.46,0,.77-.08.94-.08l.17.34-.85,6.24c-.74-.06-2.13-.13-4.15-.21s-4.12-.13-6.28-.13a65.08,65.08,0,0,0-6.5.38c-2.45.26-4.05.45-4.79.56Zm5-43a7,7,0,0,1-1.8-5.09A7.72,7.72,0,0,1,441.7,71a7.37,7.37,0,0,1,5.52-2.14,6.63,6.63,0,0,1,5,1.88,7.13,7.13,0,0,1,1.8,5.13,7.67,7.67,0,0,1-2.05,5.6,7.32,7.32,0,0,1-5.48,2.1A6.84,6.84,0,0,1,441.41,81.75Z"/><path d="M489.15,123.13a4.94,4.94,0,0,0,.9-3l.17-13.51c.06-2.4-.3-4.12-1.07-5.18a4.19,4.19,0,0,0-3.63-1.58q-2.38,0-5.9,2.57l-.26,5.3q-.67,11.11-.68,13a4.68,4.68,0,0,0,.52,2.61,2.13,2.13,0,0,0,1.88.73l1.88-.09.17.43-.94,6.24c-.69-.06-2-.13-3.85-.21s-3.79-.13-5.73-.13-4.23.06-6.54.17-3.81.2-4.49.26l.86-6.24a3.86,3.86,0,0,0,4.36-4.62V103.25c0-2-.27-3.33-.82-4s-1.63-1-3.29-1h-1.28l-.34-.52.6-5.38c3.59-.52,7.16-1.08,10.73-1.71l6.88-1.2.94.94a22.53,22.53,0,0,0-.51,2.35c-.23,1.23-.4,2.44-.51,3.64l.42.34a69.43,69.43,0,0,1,5.9-5c2.05-1.54,3.51-2.31,4.36-2.31q6.5,0,10,2.91a10.12,10.12,0,0,1,3.46,8.21c0,1.59-.25,4.76-.76,9.49-.58,5.7-.86,9.23-.86,10.6a5,5,0,0,0,.56,2.78,2.16,2.16,0,0,0,1.92.81l2.39-.09.18.35-.86,6.15c-.74-.06-2.09-.13-4.06-.21s-3.95-.13-5.94-.13c-1.37,0-3.2.07-5.48.21s-3.79.24-4.53.3l.6-6.24A4.69,4.69,0,0,0,489.15,123.13Z"/><path d="M515.32,126q-5.27-5.34-5.26-14.83a23.33,23.33,0,0,1,2.65-11.2,19.27,19.27,0,0,1,7.39-7.74,21.05,21.05,0,0,1,10.82-2.78q15.23,0,15.22,15.65a22.82,22.82,0,0,1-.6,5.21l-1,.94H523.22c.12,3.42,1,6,2.78,7.83a9.5,9.5,0,0,0,7.14,2.69,24.59,24.59,0,0,0,10-2.48l.77.34,1.54,5.13a41.24,41.24,0,0,1-7.62,4.53,18.6,18.6,0,0,1-7.77,2.06Q520.58,131.3,515.32,126Zm17.4-20.82a2,2,0,0,0,1.11-.47,2.26,2.26,0,0,0,.25-1.32c0-4-1.53-6-4.61-6q-6.08,0-6.42,8.38Z"/><path class="cls-7" d="M573.67,110.78Q569.91,95.21,567.6,87a9.29,9.29,0,0,0-2-4,5.13,5.13,0,0,0-3.46-1.45l-.52-.69L562.3,75c.74,0,2.16,0,4.27.08s4.28.09,6.5.09q4.53,0,9-.26l5.73-.34.51.77-.43,6c-1.94.23-3.29.43-4.06.6a2.6,2.6,0,0,0-1.54.77,2.88,2.88,0,0,0-.38,1.71q0,2.15,2.65,15.39t3.67,18h1.37q.85-2.31,3.63-12.44t4.58-17.49c0-.45-.09-1.45-.26-3a3.25,3.25,0,0,0-1.45-2.57,10,10,0,0,0-4.28-.76l-.42-.69.68-5.81c.91,0,2.61,0,5.09.08s5,.09,7.48.09q4.36,0,8.89-.26t5.81-.34l.52.77-.52,6c-1.93.23-3.29.43-4.06.6a2.35,2.35,0,0,0-1.49.77,3.18,3.18,0,0,0-.34,1.71q0,2.06,2.6,15.31t3.64,18h1.45q1.11-3.09,5-17.66T630,83.67a1.71,1.71,0,0,0-.72-1.62,6.08,6.08,0,0,0-2.78-.43h-2.83l-.42-.68.6-6.07c.79,0,2.53.12,5.21.21s5.07.13,7.18.13q3.42,0,6.16-.09c1.82-.05,3.05-.08,3.68-.08l-.6,6.41A4.87,4.87,0,0,0,643,82.73,9.59,9.59,0,0,0,641.47,86l-13.68,44-17.44,1.54q-1.29-8.64-5.82-28h-1l-7.44,26.42-17.44,1.54Q577.43,126.34,573.67,110.78Z"/><path class="cls-7" d="M647.24,126Q642,120.61,642,111.12a23.45,23.45,0,0,1,2.65-11.2,19.36,19.36,0,0,1,7.4-7.74,21,21,0,0,1,10.82-2.78q15.21,0,15.22,15.65a22.82,22.82,0,0,1-.6,5.21l-1,.94H655.15q.17,5.13,2.78,7.83a9.5,9.5,0,0,0,7.14,2.69,24.55,24.55,0,0,0,10-2.48l.77.34,1.54,5.13a41.14,41.14,0,0,1-7.61,4.53A18.64,18.64,0,0,1,662,131.3Q652.49,131.3,647.24,126Zm17.4-20.82a2,2,0,0,0,1.11-.47,2.24,2.24,0,0,0,.26-1.32q0-6-4.62-6-6.07,0-6.41,8.38Z"/><path class="cls-7" d="M687.43,126q-5.26-5.34-5.26-14.83a23.33,23.33,0,0,1,2.65-11.2,19.27,19.27,0,0,1,7.39-7.74A21.05,21.05,0,0,1,703,89.4q15.21,0,15.22,15.65a22.82,22.82,0,0,1-.6,5.21l-1,.94H695.33c.12,3.42,1,6,2.78,7.83a9.5,9.5,0,0,0,7.14,2.69,24.51,24.51,0,0,0,10-2.48l.77.34,1.54,5.13a40.81,40.81,0,0,1-7.61,4.53,18.6,18.6,0,0,1-7.78,2.06Q692.69,131.3,687.43,126Zm17.39-20.82a2,2,0,0,0,1.12-.47,2.26,2.26,0,0,0,.25-1.32q0-6-4.61-6-6.08,0-6.42,8.38Z"/><path class="cls-7" d="M724.79,123.05a8.73,8.73,0,0,0,.73-4.24V80.34a9.21,9.21,0,0,0-.43-3.21,2.33,2.33,0,0,0-1.54-1.41,12.06,12.06,0,0,0-2.22-.17h-1.72a1.87,1.87,0,0,1-.12-.43,1.56,1.56,0,0,0-.13-.43l.51-5q5.48-.69,11.72-1.63c4.16-.63,6.86-1,8.12-1.28l.68,1.88Q739,70.08,738.3,84.14T737.57,121a4.83,4.83,0,0,0,.51,2.61,2.07,2.07,0,0,0,1.8.72l1.88-.08.17.51-1,6c-.68-.06-2.15-.15-4.4-.26s-4.09-.17-5.51-.17q-2.82,0-6,.17c-2.11.11-3.48.2-4.1.26l.77-6.16C723.26,124.31,724.3,123.81,724.79,123.05Zm14-15,7.18-7.7a7.09,7.09,0,0,0,1.28-1.58,2.58,2.58,0,0,0,.34-1.24,1.34,1.34,0,0,0-1-1.32,10.2,10.2,0,0,0-3.38-.39l-.25-.42.77-5.13c.68,0,2.08,0,4.19.08s4.44.09,7,.09c1.76,0,3.66-.05,5.68-.13s3.35-.16,4-.21l.25.42-.76,5.9a23,23,0,0,0-5.82,3.68c-1.88,1.59-4,3.65-6.5,6.15l-1.36,1.37,6.41,11a13.35,13.35,0,0,0,3.55,4.23,9.46,9.46,0,0,0,4.31,1.75l.43.86-.68,5.13c-.4.05-1.29.19-2.65.42a34.46,34.46,0,0,1-3.51.43l-2,.09a13.54,13.54,0,0,1-2.14-.17,8.41,8.41,0,0,1-4.23-1.89,18,18,0,0,1-3.55-4.87l-7.78-14.19Z"/></g></g></svg>