<?xml version="1.0" encoding="utf-8"?>
<!-- Generator: Adobe Illustrator 24.0.3, SVG Export Plug-In . SVG Version: 6.00 Build 0)  -->
<svg version="1.1" id="Layer_1" xmlns="http://www.w3.org/2000/svg" xmlns:xlink="http://www.w3.org/1999/xlink" x="0px" y="0px"
	 viewBox="0 0 40.5 22.3" style="enable-background:new 0 0 40.5 22.3;" xml:space="preserve">
<style type="text/css">
	.st0{fill:#E1202C;}
	.st1{fill:#E1202C;stroke:#FFFFFF;stroke-width:0.5;}
	.st2{fill:#FFFFFF;}
</style>
<g transform="translate(882.888 -1017.914)">
	<g transform="translate(-882.638 1018.164)">
		<g transform="translate(36.039 3.46)">
			<path class="st0" d="M0,0h0.3l0.3,0.9l0,0L0.9,0h0.3v1.1H1V0.3l0,0L0.7,1.1H0.5L0.2,0.3l0,0v0.9H0L0,0z"/>
			<path class="st0" d="M1.4,0h0.5c0.1,0,0.2,0,0.2,0c0.1,0,0.1,0.1,0.2,0.1c0,0.1,0.1,0.1,0.1,0.2c0,0.1,0,0.1,0,0.2
				c0,0.1,0,0.1,0,0.2c0,0.1,0,0.1-0.1,0.2c0,0.1-0.1,0.1-0.2,0.1c-0.1,0-0.1,0-0.2,0H1.4V0z M1.6,1h0.2C1.9,1,1.9,1,2,1
				c0,0,0.1,0,0.1-0.1c0,0,0-0.1,0.1-0.1c0-0.1,0-0.1,0-0.2c0-0.1,0-0.1,0-0.2c0,0,0-0.1-0.1-0.1c0,0-0.1-0.1-0.1-0.1
				c-0.1,0-0.1,0-0.2,0H1.6V1z"/>
			<path class="st0" d="M2.8,0H3L2.6,1.2H2.4L2.8,0z"/>
			<path class="st0" d="M4.2,0.6c0,0.1,0,0.2,0,0.2C4.1,0.9,4.1,1,4,1C3.9,1.1,3.9,1.1,3.8,1.1c-0.1,0-0.1,0-0.2,0
				c-0.1,0-0.2,0-0.2,0C3.3,1.1,3.2,1.1,3.2,1C3.1,1,3.1,0.9,3.1,0.8c0-0.1,0-0.2,0-0.2c0-0.1,0-0.2,0-0.2c0-0.1,0.1-0.1,0.1-0.2
				C3.2,0.1,3.3,0.1,3.4,0c0.1,0,0.1,0,0.2,0c0.1,0,0.1,0,0.2,0c0.1,0,0.1,0.1,0.2,0.1c0.1,0.1,0.1,0.1,0.1,0.2
				C4.2,0.4,4.2,0.5,4.2,0.6z M4,0.6c0-0.1,0-0.1,0-0.2C4,0.3,4,0.3,3.9,0.2c0,0-0.1-0.1-0.1-0.1c-0.1,0-0.1,0-0.2,0
				c-0.1,0-0.1,0-0.2,0c-0.1,0-0.1,0.1-0.1,0.1c0,0-0.1,0.1-0.1,0.2c0,0.1,0,0.1,0,0.2c0,0.1,0,0.1,0,0.2c0,0.1,0.1,0.1,0.1,0.2
				C3.3,1,3.3,1,3.4,1c0.1,0,0.1,0,0.2,0c0.1,0,0.1,0,0.2,0C3.8,1,3.9,1,3.9,0.9c0,0,0.1-0.1,0.1-0.2C4,0.7,4,0.7,4,0.6z M3.5,0.9
				H3.4V0.3h0.2c0.1,0,0.1,0,0.2,0c0,0,0.1,0.1,0.1,0.1c0,0,0,0.1,0,0.1c0,0-0.1,0-0.1,0l0.2,0.3H3.7L3.6,0.6H3.5L3.5,0.9z M3.6,0.6
				L3.6,0.6c0.1,0,0.1,0,0.1,0c0,0,0,0,0,0c0,0,0,0,0-0.1c0,0,0,0,0,0c0,0,0,0,0,0c0,0,0,0,0,0h0H3.5v0.2L3.6,0.6z"/>
		</g>
		<g transform="translate(0)">
			<ellipse class="st1" cx="19.4" cy="10.9" rx="19.4" ry="10.9"/>
			<g transform="translate(2.524 6.445)">
				<path class="st2" d="M1,5C0.7,5.7,1,6.5,1.7,6.9C2,7,2.2,7,2.5,7c0.7,0,1.3-0.4,1.5-1c0.2-0.7-0.2-1.1-0.7-1.6L2.9,3.9
					C2.3,3.5,2,2.7,2.1,2c0.4-1.3,1.7-2.1,3-2C5.8,0,6.5,0.2,7,0.6c0.4,0.3,0.5,0.8,0.2,1.2C7,2,6.8,2.2,6.5,2.2c0,0-0.1,0-0.1,0
					c0.3-0.8,0-1.7-1.1-1.7c-0.6,0-1.4,0.3-1.5,0.9C3.6,2,4.1,2.4,4.5,2.8l0.4,0.4C5.5,3.8,6,4.4,5.8,5.3C5.3,6.7,4,7.6,2.6,7.4
					C1.8,7.5,1,7.2,0.4,6.6C-0.6,5.6,0.5,5,1,5z"/>
				<path class="st2" d="M11.9,10l1.5-3.4h0c0.2,0.5,0.7,0.8,1.2,0.7c1.8-0.1,3.2-1.5,3.5-3.3c0-0.1,0-0.3,0-0.4
					c-0.1-0.7-0.5-1.2-1.5-1.2c-0.7,0-1.3,0.3-1.8,0.7l0,0l0.2-0.4c-0.2-0.4-0.6-0.7-1-0.8l-3.2,7.1C11.1,9.6,11.5,9.9,11.9,10z
					 M16.7,3.8c-0.1,0.8-1.1,3-2.3,3c-0.3,0-0.6-0.2-0.6-0.5c0-0.1,0-0.1,0-0.2c0.1-0.7,1-3,2.2-3c0.3,0,0.6,0.2,0.7,0.5
					C16.7,3.7,16.7,3.7,16.7,3.8z"/>
				<path class="st2" d="M11.5,6.7c-0.1,0-0.2,0.1-0.2,0.1c-0.2,0-0.2-0.3-0.2-0.4c0.1-0.3,0.2-0.6,0.3-0.8l1.4-3
					c-0.5-0.2-1-0.2-1.4,0L11,3.2c-0.2-0.5-0.7-0.8-1.3-0.7C8,2.6,6.4,4,6.1,5.8c-0.1,0.7,0.3,1.4,1,1.6c0.1,0,0.3,0,0.4,0
					c0.9,0,1.7-0.5,2.2-1.2l0,0c0,0.1-0.1,0.3-0.1,0.4C9.6,7,9.9,7.4,10.4,7.4c0.3,0,0.6-0.1,0.9-0.2L11.5,6.7L11.5,6.7z M10.7,3.7
					c-0.1,0.8-1.2,3-2.4,3c-0.3,0-0.6-0.3-0.6-0.6c0,0,0-0.1,0-0.1C7.8,5.2,8.8,3.1,10,3.1C10.5,3.1,10.7,3.4,10.7,3.7L10.7,3.7z"/>
				<g transform="translate(17.978 2.497)">
					<path class="st2" d="M5.5,2.1l0.8-1.6c0,0-0.5,0-0.7,0C5.4,0.4,5,0.4,5,0.4L4.6,1.1C4.2,1.8,3,4.2,1.9,4.2
						c-0.2,0-0.4-0.1-0.4-0.3C1.8,3.2,2.1,2.6,2.4,2C2.7,1.6,2.9,1.2,3,0.7C3,0.3,2.6,0,2.1,0c-0.5,0-1,0.2-1.4,0.5
						c0.1,0.1,0.1,0.2,0.1,0.3c0.1,0,0.2-0.1,0.3-0.1c0.1,0,0.2,0.1,0.2,0.2c0,0,0,0,0,0.1c0,0.2-0.8,1.8-0.8,1.8
						C0.3,3.1,0.1,3.5,0,4c-0.1,0.5,0.4,0.9,1,0.9c1-0.1,2-0.7,2.6-1.5l0,0C3.5,3.6,3.4,3.8,3.4,4.1C3.3,4.5,3.6,4.8,4,4.9
						c0.1,0,0.1,0,0.2,0c0.5,0,1-0.2,1.4-0.5v0c0-0.1-0.1-0.2,0-0.3c0,0,0,0,0,0C5.4,4.1,5.2,4.1,5.1,4.2C4.9,4.2,4.9,4,4.9,3.8
						C5,3.2,5.3,2.6,5.5,2.1z"/>
				</g>
				<path class="st2" d="M31.7,2.6c-1.3-0.7-2.8-1-4.2-1L28,0.5c-0.4-0.2-0.9-0.2-1.4,0l-0.5,1.1c-2.1,0.3-4.3,0.2-6.4-0.2l-0.1,0.1
					c2,0.6,4,0.9,6.1,0.9l-1.2,2.4c-0.1,0.2-0.2,0.5-0.4,0.8C24,6,24,6.3,23.9,6.5c-0.1,0.5,0.4,0.9,1,0.9c0.7,0,1.3-0.3,1.7-0.8v0
					c-0.1-0.1-0.1-0.2-0.1-0.3c-0.1,0.1-0.2,0.2-0.3,0.3c-0.1,0.1-0.3,0.2-0.5,0.2c-0.3,0-0.3-0.2-0.3-0.3c0.1-0.4,0.3-0.9,0.5-1.3
					l1.2-2.7c1.2-0.1,2.7-0.3,3.5,0.2c-1.1,0-2.2,0.5-3,1.3c-0.4,0.5-0.7,1-0.7,1.7c0,0.2,0,0.4,0,0.6c0.2,0.9,1.1,1.4,2,1.3
					c1.8,0,3.3-1.2,3.7-3c0.1-0.5,0-1-0.3-1.3c0.5,0.2,0.9,0.4,1.2,0.8c0.3-0.1,0.6-0.4,0.8-0.7C33.5,2.8,32.6,2.5,31.7,2.6z
					 M30.2,6.1c-0.9,1.2-2.3,1.3-1.8-0.5c0.1-0.3,0.7-2.6,2.7-2.7c0.1,0.1,0.1,0.3,0.2,0.4C31.2,4.3,30.8,5.3,30.2,6.1L30.2,6.1z"/>
			</g>
		</g>
	</g>
</g>
</svg>
