<?xml version="1.0" encoding="utf-8"?>
<!-- Generator: Adobe Illustrator 24.0.3, SVG Export Plug-In . SVG Version: 6.00 Build 0)  -->
<svg version="1.1" id="Layer_1" xmlns="http://www.w3.org/2000/svg" xmlns:xlink="http://www.w3.org/1999/xlink" x="0px" y="0px"
	 viewBox="0 0 948.6 178.6" style="enable-background:new 0 0 948.6 178.6;" xml:space="preserve">
<style type="text/css">
	.st0{fill:#CF3339;}
	.st1{fill:#FFFFFF;}
	.st2{fill:#009ADE;}
	.st3{fill:#EDB458;}
	.st4{fill:#7F5B49;}
	.st5{fill:#D19D50;}
	.st6{enable-background:new    ;}
</style>
<title>logo-full-web-fr</title>
<g id="Layer_2_1_">
	<g id="extras">
		<path class="st0" d="M107.4,20.3h0.6l0.7,2l0,0l0.7-2h0.6v2.6h-0.4v-2l0,0l-0.7,2h-0.4l-0.7-2l0,0v2h-0.4L107.4,20.3z"/>
		<path class="st0" d="M110.6,20.3h1.1c0.2,0,0.3,0,0.5,0.1c0.1,0.1,0.3,0.2,0.4,0.3c0.1,0.1,0.2,0.3,0.2,0.4c0,0.2,0.1,0.3,0.1,0.5
			s0,0.3-0.1,0.5c0,0.2-0.1,0.3-0.2,0.4s-0.2,0.2-0.4,0.3c-0.2,0.1-0.3,0.1-0.5,0.1h-1.1V20.3z M111.1,22.5h0.4c0.1,0,0.3,0,0.4-0.1
			c0.1,0,0.2-0.1,0.3-0.2c0.1-0.1,0.1-0.2,0.1-0.3c0-0.1,0-0.2,0-0.4c0-0.1,0-0.2,0-0.4c0-0.2-0.2-0.4-0.4-0.5
			c-0.1-0.1-0.3-0.1-0.4-0.1h-0.4V22.5z"/>
		<path class="st0" d="M113.9,20.2h0.4l-1,2.7h-0.4L113.9,20.2z"/>
		<path class="st0" d="M117,21.6c0,0.2,0,0.4-0.1,0.5c-0.1,0.2-0.2,0.3-0.3,0.4c-0.1,0.1-0.3,0.2-0.4,0.3c-0.3,0.1-0.7,0.1-1,0
			c-0.2-0.1-0.3-0.2-0.4-0.3c-0.1-0.1-0.2-0.3-0.3-0.4c-0.1-0.2-0.1-0.4-0.1-0.5c0-0.2,0-0.4,0.1-0.6s0.2-0.3,0.3-0.4
			c0.1-0.1,0.3-0.2,0.4-0.3c0.3-0.1,0.7-0.1,1,0c0.2,0.1,0.3,0.2,0.4,0.3c0.1,0.1,0.2,0.3,0.3,0.4C117,21.2,117,21.4,117,21.6z
			 M116.7,21.6c0-0.2,0-0.3-0.1-0.5c0-0.1-0.1-0.3-0.2-0.4s-0.2-0.2-0.3-0.2c-0.1-0.1-0.3-0.1-0.4-0.1s-0.3,0-0.4,0.1
			s-0.2,0.1-0.3,0.2c-0.1,0.1-0.2,0.2-0.2,0.4c-0.1,0.1-0.1,0.3-0.1,0.5c0,0.1,0,0.3,0.1,0.4c0,0.1,0.1,0.3,0.2,0.4s0.2,0.2,0.3,0.2
			c0.1,0.1,0.3,0.1,0.4,0.1s0.3,0,0.4-0.1s0.2-0.1,0.3-0.2c0.1-0.1,0.2-0.2,0.2-0.4C116.7,21.9,116.7,21.7,116.7,21.6L116.7,21.6z
			 M115.4,22.4h-0.2v-1.5h0.6c0.1,0,0.3,0,0.4,0.1s0.2,0.2,0.1,0.3c0,0.1,0,0.2-0.1,0.3c-0.1,0.1-0.2,0.1-0.3,0.1l0.4,0.7H116
			l-0.4-0.6h-0.2V22.4z M115.7,21.5L115.7,21.5h0.2c0,0,0.1,0,0.1-0.1v-0.1v-0.1l-0.1-0.1h-0.1h-0.4v0.4L115.7,21.5z"/>
		<path class="st0" d="M23.5,14.6c0.6,0,1.2,0.3,1.5,0.8c0.3,0.3,0.6,0.8,0.7,1.3s0.1,0.9-0.1,1.4s-0.5,0.9-0.9,1.3l-0.5,0.5l0,0
			l1.6,1.6l-1.1,1l-1.4-1.6l-3.5-3.5l2-1.9C22.3,14.9,22.9,14.6,23.5,14.6z M24,16.5c-0.2-0.3-0.5-0.4-0.8-0.4s-0.7,0.2-0.9,0.4
			L21.8,17l1.7,1.9l0.8-0.7C24.6,17.7,24.5,16.9,24,16.5L24,16.5z"/>
		<path class="st0" d="M28.4,12.7l0.8,1.1l-0.1,0.1c-0.1,0-0.3,0.1-0.4,0.2c-0.4,0.3-0.6,0.9-0.5,1.4l0.4,0.6l1.4,1.8l-1.2,0.9
			L27.6,17L26,14.6l1-0.9l0.6,0.8l0.1-0.1c-0.2-0.6,0-1.2,0.5-1.6L28.4,12.7z"/>
		<path class="st0" d="M30.5,8.1l0.9,0.4l0.1,0.1L31.2,9c-0.5,1-0.8,1.6-1,1.8l-0.1,0.1l-0.6-0.3c0.4-1,0.7-1.8,0.9-2.5H30.5z
			 M34.1,12.5L31.5,14c0.3,0.6,1.1,0.9,1.7,0.6c0.1,0,0.1-0.1,0.2-0.1c0.4-0.3,0.8-0.7,1.1-1.1h0.1l0.3,1c-0.3,0.4-0.7,0.8-1.2,1.1
			c-0.6,0.4-1.3,0.5-2,0.4c-0.7-0.2-1.3-0.7-1.6-1.3c-0.4-0.6-0.5-1.3-0.4-2c0.2-0.7,0.6-1.2,1.2-1.5c0.5-0.3,1-0.4,1.6-0.3
			c0.5,0.2,1,0.5,1.2,1c0.1,0.1,0.2,0.3,0.3,0.6L34.1,12.5z M32.7,12.1c-0.1-0.2-0.3-0.4-0.5-0.5s-0.4,0-0.6,0.1s-0.4,0.3-0.5,0.6
			s0,0.6,0.1,0.9l1.6-1L32.7,12.1z"/>
		<path class="st0" d="M36.9,8.2l0.3,1.1l-0.1,0.1c-0.2,0-0.5,0-0.7,0S36,9.5,35.9,9.5c-0.1,0.1-0.3,0.2-0.3,0.3
			c-0.1,0.1-0.1,0.3,0,0.4c0.1,0.1,0.2,0.2,0.3,0.2c0.2,0,0.5,0,0.7,0c0.3,0,0.5,0,0.8,0c0.2,0,0.4,0.1,0.6,0.2
			c0.2,0.1,0.4,0.3,0.5,0.6s0.2,0.5,0.1,0.8c0,0.3-0.1,0.6-0.3,0.9c-0.2,0.3-0.6,0.5-0.9,0.7c-0.5,0.2-1.1,0.4-1.6,0.4l-0.3-1.1
			l0.1-0.1c0.3,0.1,0.6,0.1,0.9,0.1c0.3,0,0.5-0.1,0.7-0.2c0.2-0.1,0.3-0.2,0.4-0.3c0.1-0.1,0.1-0.3,0-0.4c-0.1-0.1-0.2-0.2-0.3-0.2
			c-0.2,0-0.5,0-0.7,0c-0.3,0-0.5,0-0.8,0c-0.2,0-0.4-0.1-0.6-0.2c-0.2-0.1-0.4-0.3-0.5-0.6c-0.2-0.4-0.2-0.9,0-1.3
			c0.2-0.5,0.6-0.8,1.1-1C36,8.4,36.5,8.3,36.9,8.2z"/>
		<path class="st0" d="M42.8,8.7L40,9.8c0.2,0.7,0.9,1.1,1.6,0.9c0.1,0,0.1,0,0.2-0.1c0.5-0.2,0.9-0.5,1.3-0.9h0.1l0.2,1.1
			c-0.4,0.4-0.9,0.6-1.4,0.8c-0.6,0.3-1.4,0.3-2,0s-1.1-0.9-1.3-1.6c-0.3-0.6-0.3-1.4-0.1-2c0.3-0.6,0.8-1.1,1.4-1.3
			c0.5-0.2,1.1-0.2,1.6,0s0.8,0.7,1,1.2c0.1,0.2,0.1,0.4,0.2,0.6V8.7z M41.4,8.1c-0.1-0.2-0.2-0.4-0.4-0.5s-0.4-0.1-0.6,0
			c-0.3,0.1-0.5,0.3-0.6,0.5c-0.1,0.3-0.1,0.6-0.1,0.9l1.7-0.7L41.4,8.1z"/>
		<path class="st0" d="M46.8,6.6c0-0.2-0.2-0.4-0.3-0.5C46.3,6,46.1,5.9,45.9,6c-0.4,0.1-0.7,0.4-0.9,0.7L45.4,8l0.7,2.1l-1.4,0.4
			l-0.5-2.1l-0.9-2.8l1.3-0.5L44.8,6h0.1c0.3-0.4,0.6-0.8,1-1.1c0.4-0.2,0.9-0.2,1.3,0c0.4,0.2,0.6,0.5,0.7,0.9l0.4,1.4L49,9.3
			l-1.4,0.4L46.8,6.6z"/>
		<path class="st0" d="M52.6,7.2L52.6,7.2l0.1,1c-0.3,0.3-0.6,0.5-1,0.6c-1,0.1-1.6-0.3-1.8-1.1l-0.1-0.9L49.4,5l-0.7,0.1l0-0.1
			l-0.1-0.8l0.6-0.1L49,3.3l1.2-0.7l0.1,0.1l0.2,1.2l1.3-0.3L52,3.5l0.1,0.8l-1.3,0.3L51.3,7c0,0.2,0.1,0.3,0.2,0.5
			c0.1,0.1,0.3,0.1,0.5,0.1C52.2,7.5,52.4,7.4,52.6,7.2z"/>
		<path class="st0" d="M57.1,5.3l-2.9,0.5c0,0.7,0.7,1.2,1.4,1.2c0.1,0,0.2,0,0.2,0c0.5-0.1,1-0.3,1.4-0.6l0.1,0.1v1.1
			c-0.5,0.3-1,0.5-1.5,0.6c-0.7,0.1-1.4,0-2-0.4s-0.9-1.1-1-1.8s0-1.4,0.3-2c0.4-0.6,1-0.9,1.7-1c0.5-0.1,1.1,0,1.6,0.3
			c0.4,0.3,0.7,0.8,0.8,1.4C57.2,4.9,57.2,5.1,57.1,5.3L57.1,5.3z M55.4,0l0.7,0.7v0.1C56,0.9,55.9,1,55.8,1.1
			c-0.8,0.7-1.3,1.1-1.6,1.3H54L53.6,2c0.7-0.8,1.3-1.5,1.7-2H55.4z M55.9,4.6c0-0.2-0.1-0.5-0.3-0.6S55.2,3.8,55,3.9
			c-0.3,0-0.5,0.2-0.7,0.4c-0.2,0.3-0.3,0.6-0.2,0.9l1.8-0.3V4.6z"/>
		<path class="st0" d="M64.1,2.6c0.4,0.5,0.6,1.1,0.7,1.8s-0.1,1.5-0.5,2.1c-0.4,0.5-1.1,0.9-1.8,0.9c-0.2,0-0.5,0-0.7,0l0.2,2
			l-1.5,0.1l-0.2-4.1L60,2.5l1.4-0.2V3h0.1c0.2-0.2,0.3-0.4,0.5-0.5c0.2-0.2,0.4-0.3,0.7-0.4C63.1,1.9,63.7,2.1,64.1,2.6z M63.2,5.9
			c0.2-0.4,0.3-0.8,0.2-1.2c0-0.4-0.1-0.8-0.4-1.1c-0.2-0.2-0.5-0.4-0.8-0.3c-0.4,0.1-0.7,0.2-0.9,0.5L61.5,5l0.1,1.2
			c0.2,0.1,0.5,0.1,0.8,0.1C62.7,6.3,63,6.2,63.2,5.9z"/>
		<path class="st0" d="M69.1,2.1c0.3,0.3,0.5,0.6,0.5,1.1c0,0.1,0,0.5-0.1,1.2c0,0.2,0,0.4,0,0.6s0,0.4,0,0.6c0,0.1,0,0.2,0.1,0.3
			c0.1,0,0.1,0.1,0.2,0.1s0.2,0,0.3,0l0.1,0.1L70,6.8c-0.2,0.2-0.5,0.3-0.8,0.3C69,7,68.8,7,68.6,6.8c-0.2-0.1-0.3-0.3-0.3-0.6h-0.1
			c-0.3,0.4-0.7,0.6-1.1,0.8c-0.5,0-0.9-0.1-1.2-0.4c-0.3-0.3-0.5-0.7-0.5-1.1c0-0.3,0.1-0.6,0.3-0.9c0.2-0.2,0.5-0.4,0.8-0.4
			L68.2,4V3.5c0-0.3-0.2-0.7-0.5-0.7c-0.1,0-0.1,0-0.2,0c-0.3,0-0.5,0.1-0.7,0.2c-0.3,0.1-0.6,0.3-0.8,0.5l-0.1-0.1l-0.2-1
			c0.3-0.2,0.6-0.4,1-0.5c0.4-0.1,0.7-0.2,1.1-0.2C68.2,1.8,68.7,1.9,69.1,2.1z M67.1,5c-0.1,0-0.2,0.1-0.3,0.2
			c-0.1,0.1-0.1,0.2-0.1,0.3c0,0.2,0.1,0.3,0.2,0.4C67,6,67.2,6.1,67.3,6.1c0.4,0,0.7-0.2,0.9-0.5V4.7L67.1,5z"/>
		<path class="st0" d="M74.2,2v1.3H74c-0.1-0.1-0.3-0.1-0.4-0.1c-0.5,0-1,0.3-1.2,0.8v0.7V7h-1.5l0.2-2.1V2l1.4-0.1v1h0.1
			C72.8,2.4,73.4,2,74,2H74.2z"/>
		<ellipse class="st0" cx="68.8" cy="37.5" rx="45.1" ry="25.3"/>
		<path class="st1" d="M31.9,38.8c-0.6,2.4,0.3,4.5,3.4,4.5c1.6,0.1,3-0.9,3.5-2.4c0.4-1.6-0.5-2.5-1.6-3.6l-1-1
			c-1.2-1.4-2.2-2.5-1.8-4.5c0.7-2.8,3.7-4.6,7-4.6c1.6-0.1,3.1,0.5,4.3,1.5c0.9,0.7,1,1.9,0.3,2.8c-0.4,0.4-0.9,0.7-1.5,0.7
			c-0.1,0-0.1,0-0.2-0.1c0.6-1.8,0-3.9-2.6-3.9c-1.4,0-3.2,0.8-3.5,2.1C38,31.8,39,32.8,40,33.7l0.9,0.9c1.5,1.4,2.6,2.7,2.1,4.9
			c-0.7,3.1-3.8,4.9-7.5,4.9c-1.9,0.1-3.7-0.6-5.1-1.9C28.2,40.1,30.7,38.8,31.9,38.8z"/>
		<path class="st1" d="M57.2,50.4l3.5-7.8h0.1c0.5,1.1,1.7,1.8,2.9,1.7c4.6,0,7.7-4.4,8.1-7.6c0-0.3,0-0.6,0-1
			c-0.1-1.6-1.2-2.7-3.4-2.7c-1.6,0-3.1,0.6-4.2,1.7l0,0l0.4-0.9c-0.5-0.9-1.3-1.6-2.3-1.9l-7.5,16.5C55.3,49.3,56.2,50.1,57.2,50.4
			z M68.3,35.9c-0.2,1.8-2.5,6.9-5.3,6.9c-0.7,0-1.4-0.5-1.4-1.2c0-0.1,0-0.3,0-0.4c0.2-1.6,2.3-6.9,5.1-6.9
			c0.7-0.1,1.4,0.4,1.5,1.1C68.3,35.6,68.3,35.8,68.3,35.9z"/>
		<path class="st1" d="M56.3,42.7c-0.2,0.1-0.4,0.1-0.5,0.2c-0.4,0-0.5-0.6-0.5-0.9c0.2-0.7,0.4-1.3,0.7-1.9l3.2-6.9
			c-1.1-0.4-2.2-0.4-3.3,0l-0.8,1.4c-0.5-1.1-1.7-1.8-2.9-1.6c-4.5,0-8.2,4.3-8.6,7.6c-0.2,2,0.8,3.7,3.4,3.7c2-0.1,3.8-1.1,5-2.7
			h0.1c-0.1,0.3-0.2,0.6-0.2,0.9c-0.1,0.9,0.6,1.7,1.8,1.7c0.7,0,1.4-0.2,2.1-0.5L56.3,42.7L56.3,42.7z M54.3,35.8
			c-0.2,1.8-2.8,6.9-5.6,6.9c-0.7,0-1.3-0.6-1.3-1.3c0-0.1,0-0.2,0-0.3c0.2-1.8,2.7-6.7,5.4-6.7C53.9,34.3,54.4,35,54.3,35.8
			L54.3,35.8z"/>
		<path class="st1" d="M84.2,37.8l1.9-3.7L84.4,34c-0.5,0-1.6-0.1-1.6-0.1l-0.9,1.7c-0.9,1.6-3.7,7.1-6.2,7.1
			c-0.5,0-0.9-0.2-0.8-0.7c0.7-1.5,1.4-3,2.2-4.4c0.5-0.9,1-1.9,1.2-3c0.1-1-0.8-1.6-1.9-1.6c-1.2,0.1-2.3,0.5-3.3,1.1
			c0.1,0.2,0.2,0.4,0.3,0.6c0.3-0.1,0.5-0.2,0.8-0.2c0.2,0,0.5,0.1,0.5,0.4c0,0.1,0,0.1,0,0.2c0,0.4-1.9,4.2-1.9,4.2
			c-0.6,1-1,2-1.2,3.1c-0.2,1.2,0.9,2,2.3,2c2.5,0,4.5-1.6,5.9-3.6h0.1c-0.2,0.5-0.4,1.1-0.5,1.7c-0.2,0.9,0.4,1.8,1.3,1.9
			c0.2,0,0.3,0,0.5,0c1.1,0,2.3-0.4,3.2-1.2l0,0c-0.1-0.2-0.1-0.5-0.1-0.8v-0.1c-0.3,0.2-0.6,0.3-0.9,0.4c-0.5,0-0.5-0.5-0.5-0.8
			C83,40.4,83.5,39.1,84.2,37.8z"/>
		<path class="st1" d="M103.2,33.1c-1.7-1.2-4.7-2.1-9.8-2.2l1.2-2.6c-1-0.4-2.2-0.4-3.2,0L90.1,31c-3.4,0.1-7.5,1.1-14.9-0.4
			L75,30.8c4.1,1.7,10.4,2.1,14.2,2.1l-2.7,5.6c-0.2,0.5-0.6,1.2-0.8,1.9c-0.3,0.6-0.5,1.2-0.6,1.9c-0.1,1.1,0.9,2,2.3,2
			c1.5-0.1,3-0.8,4-1.9l0,0c-0.1-0.2-0.2-0.5-0.3-0.7c-0.2,0.2-0.5,0.4-0.7,0.6c-0.3,0.3-0.7,0.4-1.2,0.5c-0.6,0-0.7-0.4-0.6-0.8
			c0.3-1,0.7-2,1.2-3l2.8-6.3c2.8-0.3,6.4-0.7,8.2,0.5c-2.7,0.2-5.4,1-7.1,3c-0.9,1.1-1.5,2.4-1.7,3.8c-0.1,0.4-0.1,0.9,0,1.3
			c0.4,1.8,2,3.1,4.6,3.1c4.4,0,8.2-3.5,8.7-6.9c0.2-1.1-0.1-2.2-0.8-3.1c1.1,0.4,2.1,1,2.8,1.9c0.8-0.3,1.4-0.9,1.8-1.7
			C108.6,33.9,106.1,33.2,103.2,33.1z M99.7,41.3c-2.1,2.9-5.4,3-4.2-1.2c0.2-0.7,1.7-5.9,6.2-6.3c0.2,0.3,0.3,0.6,0.4,1
			C102.4,36.4,101.1,39.4,99.7,41.3z"/>
		<path class="st1" d="M131.8,105.6l11-9.2l-5.6-13.9l-9.3,2.1l-1.4,1.5c-0.3-0.3-0.6-0.6-1-0.9l3.9-9.5l-1.5-7.8L115,70.4l-1.2,4.3
			l-2.3-13.9l-6.7-3.3l-8.5,4.6l4.4,15.2L99,77.6c0.3-1.8,0.1-2.9-1.2-3.9c-0.6-0.6-1.3-1.1-2.1-1.6l0.4-5L90.6,63l-9,4.4l0.2,8.5
			C81,76,80.3,76.5,80,77.3c-0.2,0.3-0.3,0.7-0.3,1.1c0.7,0,1.5,0,2.2,0l0.1,4.1c-0.4-0.2-0.9-0.2-1.6,0.6s-2.2-0.1-2.8,1.1
			s0.8,1.3,1.1,2c0,0.1,0.1,0.2,0.1,0.4l-1.8,1L75.2,79l-0.9-4.2l-5.7-1.4l0.7-3.2l9.8-2l-3.4,10.6c0.5-0.2,0.9-0.3,1.4-0.4L80.4,68
			L78,59.7l-13.4,2l-2.3,11.9l-5.8-17.7L43.1,53l-1.2,8l2.8,6.3l-0.3-0.1l-4.2,4.3l0.5,2.1c-1,0-1.9,0.6-2.4,1.5
			c-0.4,0.6-0.4,1.3-0.2,2l-2.4,1.1l4.1-10.3l-3.3-4.6L28,65l-4.2,14.6L19,72.2l-6.8,0.1l-4.3,9l5.5,6.7L11,86.2l-8.9-0.4l-1.8,14.4
			l7.3,4.2c-1.5,0-3,0.2-4.5,0.6L2,105.4l-0.8,0.9c-1.3,1.7-1.6,4.4-0.8,8.8l0.6,3.4h1.6L4.7,131c-2.7,2.4-4.3,5.8-4.5,9.5
			c0,4.7,2.6,7.5,7.1,7.8l-3,14.8c-0.4,1.8,0.7,3.5,2.5,3.9c0.2,0.1,0.5,0.1,0.7,0.1h3.2l1.1,6.5c0.4,2.9,2.9,5,5.8,5H116
			c2.9,0,5.4-2.1,5.8-5l1.2-7.2c3.2-1.4,5.3-4.3,6-8.5c0.2-1.4-0.4-2.8-1.6-3.4c-0.1-0.1-0.2-0.1-0.3-0.2l0.2-0.2
			c2.6-2.3,4.1-5.6,4.1-9c0-3.2-1.3-5.5-3.7-6.7l3.4-19.9h1.6l0.6-3.4c0.8-4.4,0.5-7.1-0.8-8.8L131.8,105.6z M130.3,105
			c-1.7-0.4-3.4-0.6-5.1-0.6l8.1-7.1l6.5-0.3L130.3,105z M136.3,84.2l4.6,11.4l-7.6,0.3l-3.6-10.3L136.3,84.2z M127.3,90.9
			c0.3-1.7,0.5-2.8,0.1-3.6l1-1.1l3.7,10.4l-8.9,7.7l-3.2-0.1c-3-0.1-6.9-0.2-12-0.3l-3.9-0.1h-0.7l0.1-0.3l4.5-0.2V102l-4.2,0.2
			l-1.9-6.8l11.8-0.1l0.6,6.3l-4.1,0.2c1.5,0.4,3.4,1,5.3,1.4l0.2-0.4l-0.2-2.9l4.8-5.1c0.1,0.2,0.4,0.4,0.8,0.3
			c1.8-0.2,1.6-2,3.2-2.2S126.9,93.1,127.3,90.9L127.3,90.9z M93.2,93.6c-0.2,1.6,1.4,2.3,2.3,3.3l0.3,2.7l-8.8-3l0.4-5.7L93.2,93.6
			z M89.5,90.4l1.7-8.5l2.5,4.9l-1.1,5L89.5,90.4z M93.7,92.4l1.1-4.9l9.5-2.5l-1.2,3.7c-0.8,0-1.7,0.4-2.8,1.6
			C98.5,92.1,95.1,90.1,93.7,92.4L93.7,92.4z M96,102c0.1,0.4,0.6,0.7,1,0.6l-0.4,1h-2.5L96,102z M100.8,96.8l1.6,5.8l-0.5,1.1H98
			L100.8,96.8z M126.8,69.4l1.1,5.5l-9.4,2.2l-2.4-5.7L126.8,69.4z M112.9,77.3l-3.6,12.5L103.2,67l7.1-5.4L112.9,77.3z M104.9,58.6
			l4.5,2.2l-7,5l-4.6-3.2L104.9,58.6z M97.8,63.8L102,67l5.9,22c0.8,0.5,1.6,1.1,2.4,1.6l5-17.6l2,4.8l-4.2,13.7
			c0.4,0.1,0.7,0.2,1.1,0.4l4.1-13.5l9.5-2.2l-3.7,9.1c-0.5,0.2-1,0.6-1.4,1c-1.2,1.3-3.5-0.2-4.4,1.7s1.2,2.4,1.7,3.7
			c0.1,0.4,0.1,0.8,0.1,1.2l-2,2.2l-2.9,3.1l-0.4-4.2h-7.3c0.2-1.3-0.3-2.5-1.3-3.3c-0.6-0.6-1.3-1.1-2-1.6l0.2-0.7
			c0.2,0,0.3-0.1,0.5-0.1l-0.2-0.7l0.9-2.9l-2.2-7.9l-1.8,0.4L97.8,63.8z M102.6,78.2l1.6,5.6l-9.4,2.4l-2.9-5.8L102.6,78.2z
			 M94.1,78.7l-3.6,0.7l-2.1,10.5l-1.2-0.6l-0.1-16l7.8-5.4L94.1,78.7z M90.6,64.3l3.6,2.7l-7.6,4.8L83.2,68L90.6,64.3z M86,73.1
			l0.2,16.8l-2.7,2.8l-0.6-23.3L86,73.1z M77.9,96.4c0.4,0.2,0.8,0.4,1.1,0.8L77.3,89l4.9-2.9l0.2,7.6l-3.3,3.5
			c0.3,0.3,0.6,0.6,0.8,0.9l6.2-6.5L85.6,97l-3.6,3.6c0.3,0.3,0.6,0.5,1,0.7l3.2-3.3l9.3,2.9l-3.2,2.7h-3.7l-13-0.1l-2.1-6.6l-1-3
			c0.5-0.1,1-0.4,1.3-0.9l0.8,3.3c0.3-0.1,0.6-0.2,0.9-0.2l-1-4.4c0-0.1,0.1-0.2,0.1-0.4c0.7-3.1,0.9-4.7-0.8-6
			c-0.3-0.3-0.7-0.6-1-0.8l-0.9-4l1.9-3.7L77.9,96.4z M46.2,103.5c-4.7,0-9.6,0.1-14.3,0.2h-2.3l-3.5,0.1l6.5-4.8l0.3,4.1
			c0.4-0.2,0.8-0.5,1.1-0.7l-0.3-4.3l-1.6-2l-1.9-12l4.8,4.6l1.7,12.2c0.4-0.2,0.9-0.3,1.4-0.5L36.6,89l9.8-5.2l0.3,7.9
			c-1.2-1-2.3-2.2-3.5-0.6c-0.8,1-3.1-0.7-3.5,1.5c-0.2,1,0.9,1.8,0.9,2.5s-1.4,1.6-1.4,3.3c0,0.6,0.2,1.2,0.6,1.7
			c1.4-0.1,2.7,0.3,3.8,1.1l0.6,0.4l0.2-0.1v0.3c0.5,0.4,0.9,0.7,1.2,1l0.7-4l5.2-2.6l-0.5,7L46.2,103.5z M24.3,103.7l-4.9-4.2
			l9.1-6.1l3.6,4.6L24.3,103.7z M49.7,75.4l2.3-3.6l2,18c0.8,0,1.6,0,2.3,0L56,92.7l2.2,4.9L54,95.3c0-0.2,0-0.5,0-0.7
			c-0.2-1.7-1.8-4.3-4.6-2.1c-0.3,0.3-0.8,0.4-1.2,0.3l-0.1-1.6c0.8-0.4,1.7-0.7,2.6-0.9l0.9-0.2L49.7,75.4z M68.8,102.2
			c-0.7-1.3-2.6-1.1-2.7-0.4l-6.3-3.4L57.4,93l9.8,2.7l2.4,7C69.3,102.7,69,102.5,68.8,102.2z M67.1,94.4l-9.7-2.6l0.9-5.6l11,2.5
			L67.1,94.4z M52.9,96.2l13.3,7.2c-3.5,0-8.3,0-13.6,0.1L52.9,96.2z M71.8,103.4L71.8,103.4c-0.2-0.4-0.5-0.6-0.9-0.8l-2.6-7.5
			l1.8-4.9l4.3,13.1L71.8,103.4z M73.1,75.7L71,79.5l-7.4-2.7l2.5-3L73.1,75.7z M77.2,61.1l1.7,5.9l-9.7,1.9l-3-6.1L77.2,61.1z
			 M65.5,64.3l2.6,5.2l-0.8,3.6l-1.5-0.4l-2.3,2.8c-0.1-0.1-0.2-0.1-0.2-0.2L65.5,64.3z M70.9,80.8l0.7,2.8c-1-0.5-2.2-0.4-3.9,1.3
			c-0.5,0.5-1.2,0.8-1.9,0.8l-2.6-8L70.9,80.8z M63.9,82.7l1,3.1c-0.8,0-1.7,0-2.5,0.2l-5.2-1.2l-0.7,4.4l-1.6-0.9l-0.4-3.2
			L63.9,82.7z M61.5,74.6c-0.4,0.1-0.7,0.4-1,0.7c-0.5,0.5-1.2,0.4-1.9,0.4l-4.3-12.4l1.8-5L61.5,74.6z M44.2,54.5l11,2.3L53,62.6
			l-9.8-2.5L44.2,54.5z M43.3,61.4l9.9,2.5l4.2,12c-0.4,0.3-0.7,0.7-0.8,1.2c-0.3,1.1,0.7,1.9,0.6,2.7c0,0.2-0.2,0.4-0.3,0.6
			c-0.8,0.8-1.4,1.9-1.6,3c0,0.1,0,0.1,0,0.2l-1.1,0.3l-0.6-5l-1-8.9L46,67.9L43.3,61.4z M44.6,68.4l7,2.4L49,74.4l-7.2-3.2
			L44.6,68.4z M48.8,75.8l1.7,13.1c-0.1-0.1-0.2-0.1-0.3-0.1c-1-0.3-0.5-2-2.2-1.9l-0.2-3.6L42,75.4l0,0L41.3,72L48.8,75.8z
			 M41.6,77l4.2,5.6l-9.7,5.1l-5.6-5.4L41.6,77z M34.6,78.8l-5.1,2.4c-0.4-0.4-0.8-0.7-1.3-1L31,71l7.8-2.7L34.6,78.8z M36.2,64.3
			l2.2,3.1L31,69.8l-1.8-3.9L36.2,64.3z M28.6,66.8l1.6,3.8l-2.9,9.5c-0.4,0.2-0.7,0.4-0.9,0.7c-0.3,0.3-0.8,0.5-1.3,0.4l-0.4-0.7
			L28.6,66.8z M23.7,81.2c-0.5,0.1-1,0.4-1.2,1.3c-0.3,1.1,0.7,1.9,0.6,2.7s-1.7,1.7-1.9,3.6c0,0.2,0,0.5,0,0.7l-5.5-6.9l2.8-9.1
			L23.7,81.2z M13,73.4l4.5-0.1l-3,8.6l-5-0.8L13,73.4z M10,82.2l4.7,0.9l7.2,9c1.1-1.6,2.6-2.7,4.4-3.4c1-0.3,2.1-0.4,3.1-0.3
			l0.9,5.3l-1.6-2.1l-5.5,3.7l-2.5-1.8L17,90.8L10,82.2z M3.2,87.2l6.3,0.2L9,93.8c-0.5-0.2-1.1-0.2-1.7,0c-1.2,0.4-2.8,0.4-1.3,2.6
			c0.5,0.8,0,1.4-0.2,2.1l-4,0.6L3.2,87.2z M3,100.2l3-0.5c0.1,0.1,0.1,0.2,0.2,0.2c1.6,1.4,2.6,0.1,3.8,0.3
			c0.3,0.1,0.6,0.2,0.9,0.3l5.1,3.1c0.5-0.2,1.1-0.4,1.6-0.6l-4.1-2.4c-0.1-1-1.3-1.6-1.1-2.6s0.9-1.8-1.1-2.9
			c-0.4-0.3-0.8-0.5-1.2-0.7l0.6-6.7L22,96.1l-4.4,3l0.7,3.8c0.4-0.1,0.8-0.2,1.2-0.2l-0.3-1.6l3.2,2.8l-2.7,0.1l-4.7,0.1
			c-2.1,0.1-3.8,0.1-5.1,0.2L3,100.2z M7.5,163.7l6.2-30.2l6.8-0.9l-3.2,15.9c4.6-0.4,8-6.6,8-11.7c0-3.5-1.6-6.5-5.7-6.5
			c-7.4,0-11.9,4.3-11.9,11.6c-0.1,1.1,0.2,2.2,0.6,3.2c-3.2,0-4.9-1.2-4.9-4.6c0-6.3,8.4-12.4,16-12.4s10.8,4.5,10.8,9.4
			c-0.1,7.2-6.1,12.9-13.2,12.7h-0.2L14,163.7H7.5z M28.9,124.7c-0.8,0-1.7,0.4-1.7,1.4c-0.1,0.7,0.5,1.4,1.2,1.4h0.1
			c1,0,1.7-0.7,1.7-2c0-2.6-3-3.5-3-5.7c0-1.6,1.5-2.7,3.3-2.7c0.7,0,2.3,0.1,2.3,1.8c0,0.9-0.5,1.5-1.2,1.5c-0.3,0-0.5-0.1-0.7-0.3
			c0.4-0.3,0.7-0.8,0.6-1.3c0-0.5-0.4-1-0.9-1c-0.1,0-0.1,0-0.2,0c-0.7-0.1-1.3,0.5-1.3,1.1c0,0.1,0,0.2,0,0.2
			c0,1.9,2.5,2.4,3.1,4.6c-0.2,0.7-0.3,1.5-0.3,2.2c0,0.2,0,0.5,0,0.7c-0.8,1.2-2.1,2-3.6,1.9c-1.6,0-3-0.7-3-2.6
			c-0.1-1.2,0.8-2.3,2-2.4h0.1C28.2,123.6,28.8,124,28.9,124.7C28.9,124.6,28.9,124.6,28.9,124.7z M28.3,126.1
			c0-0.3,0.5-0.3,0.7-0.3h0.4c0,0.5-0.3,0.7-0.6,0.7C28.5,126.4,28.3,126.4,28.3,126.1z M30.8,118.9c0,0.1-0.1,0.2-0.1,0.3l-0.2,0.1
			v-0.1C30.4,119,30.4,118.9,30.8,118.9L30.8,118.9z M33.2,126.1c0-1.7,0.9-5.3,3.9-5.3c1.1,0,1.5,0.5,1.6,1.1l-0.3,1.7
			c-0.6,1.1-1.7,1.7-3,1.8c0,0.2,0,0.4,0,0.6c0,1,0.3,1.2,1,1.2c0.4,0,0.9-0.1,1.3-0.3l-0.2,1c-0.6,0.4-1.3,0.6-2,0.6
			C34.1,128.5,33.2,127.8,33.2,126.1z M39.9,120.9H42l-0.2,0.8c0.4-0.5,1.1-0.9,1.8-0.8c0.7,0,1.4,0.5,1.4,1.3
			c0.4-0.8,1.1-1.3,2-1.3c0.8-0.1,1.5,0.5,1.6,1.3c0,0.1,0,0.2,0,0.4c0,1.2-0.7,3-0.7,3.8c0,0.4,0.1,0.6,0.6,0.6h0.1
			c0.1,0.4,0.2,0.7,0.3,1c-0.4,0.3-0.8,0.5-1.3,0.4c-0.9,0.1-1.6-0.5-1.7-1.4c0-0.1,0-0.2,0-0.3c0-1,0.7-2.8,0.7-3.8
			c0-0.5-0.2-0.8-0.5-0.8c-0.5,0-0.9,0.6-1.1,1.4l-1,4.8h-2l1.1-5.2c0-0.1,0-0.3,0-0.4c0-0.3-0.1-0.7-0.4-0.7c-0.6,0-1,0.7-1.2,1.4
			l-1,4.8h-2.1L39.9,120.9z M54.6,120.9h2.1l-1,5.1c0,0.2-0.1,0.3,0,0.5c0,0.4,0.2,0.6,0.6,0.6h0.1c0,0.3,0.1,0.6,0.2,0.9
			c-0.4,0.3-0.9,0.5-1.4,0.5c-0.7,0-1.4-0.5-1.4-1.3v-0.1c-0.4,0.8-1.2,1.3-2.1,1.4c-1,0-1.9-0.6-1.9-2.4c0-2,1.2-5.2,3.7-5.2
			c0.8,0,1.2,0.3,1.2,0.8v0.1L54.6,120.9z M58.6,118.9c0-0.6,0.5-1.2,1.1-1.2l0,0c0.6,0,1.2,0.5,1.2,1.2c0,0.6-0.5,1.2-1.1,1.2l0,0
			C59.1,120.1,58.6,119.6,58.6,118.9L58.6,118.9L58.6,118.9z M64.2,120.9l-0.2,0.8c0.4-0.5,1-0.8,1.7-0.8c0.8-0.1,1.5,0.5,1.6,1.3
			c0,0.1,0,0.2,0,0.4c0,1.2-0.7,3-0.7,3.8c0,0.4,0.1,0.6,0.6,0.6h0.1c0.1,0.4,0.2,0.7,0.4,1c-0.4,0.3-0.8,0.5-1.3,0.4
			c-0.9,0.1-1.6-0.5-1.7-1.4c0-0.1,0-0.2,0-0.3c0-1,0.7-2.8,0.7-3.8c0-0.5-0.2-0.8-0.5-0.8c-0.5,0-0.9,0.6-1.1,1.4l-1,4.8h-2.1
			l1.5-7.5L64.2,120.9z M72.1,120.8c1.3,0,1.6,0.7,1.6,1.4c-0.1,1.7-1.6,3.1-3.3,3.2c0,0.2,0,0.3,0,0.4c0,0.9,0.4,1.2,0.9,1.2
			c0.6-0.1,1.2-0.3,1.7-0.8c-0.1,1.3-1.2,2.3-2.5,2.2l0,0c-1.3,0-2.2-0.7-2.2-2.4S69.1,120.8,72.1,120.8z M58.7,128.5
			c-0.9,0-1.5-0.5-1.5-1.8c0-0.3,0-0.7,0.1-1l1-4.8h2.1l-1,5.1c0,0.2-0.1,0.3-0.1,0.5c0,0.4,0.2,0.6,0.6,0.6l-0.3,1.3
			C59.3,128.4,59,128.5,58.7,128.5z M117.7,172.9c-0.1,0.9-0.9,1.5-1.7,1.5H17.6c-0.9,0-1.6-0.7-1.7-1.5l-1-6
			c1.2-0.3,2.1-1.3,2.4-2.5l2.3-11.1c1-0.1,1.9-0.4,2.9-0.7c-0.3,1.4-0.4,2.7-0.4,4.1c0,3.4,1,6.1,3,7.9c2,1.7,4.6,2.6,7.2,2.5
			c3.8-0.1,7.3-1.9,9.5-4.9l0.1-0.2c0.4,1.1,0.9,2.1,1.7,2.9c1.5,1.5,3.5,2.4,5.7,2.3c2.1,0,4.1-0.6,5.7-1.8c1.4,1.2,3.2,1.9,5,1.8
			c2.1,0,4.2-0.6,6-1.9c1.4,1.2,3.3,1.9,5.2,1.9c2.3,0,4.5-0.7,6.3-1.9c1.5,1.3,3.4,2,5.3,1.9c1.4,0,2.7-0.2,4-0.7
			c0.5,0.3,1.1,0.4,1.7,0.4h6.3c1.6,0,2.9-1.1,3.2-2.6l0.3-1.5c1.4,2.8,4.4,4.6,7.6,4.4c2.1,0,4.2-0.7,5.9-2c1.9,1.4,4.2,2.1,6.5,2
			h0.4L117.7,172.9z M128.1,145c0,5.2-4.8,9.2-10,9.5c-0.1,0.5-0.1,0.9-0.1,1.4c0,2.8,1.2,3.8,2.7,3.8c1.9-0.2,3.7-1.1,5.1-2.4
			c-0.9,5.1-4,6.7-7.5,6.7c-3,0-5.3-1.2-6.3-3.9c-2.1,3.4-4.4,3.9-6.1,3.9c-3.8,0-5.1-2.5-5.1-5.1c0-3.1,2-8.6,2-11.5
			c0-1.5-0.5-2.3-1.6-2.3c-1.6,0-2.7,1.9-3.4,4.1l-3,14.5h-6.2l0.5-2.7c-1.5,1.9-3.8,3-6.2,3c-2.4,0.1-4.4-1.7-4.6-4
			c-1.5,2.5-4.2,4-7.1,4c-2.3,0.1-4.4-1.7-4.5-4c-2.3,3.4-4.9,4-6.7,4c-2.5,0-4-1.5-4.3-4.3c-2.2,3.7-4.6,4.3-6.4,4.3
			c-2.6,0-4.7-1.6-4.7-5.4c0-1,0.1-2,0.3-2.9l1.3-6.4c-1.2,0.5-2.4,0.8-3.6,1c-0.7,8.4-5,13.6-10.4,13.6c-4,0-7-2-7-7.1
			s3-16,11.9-16c3.7,0,5.6,2.5,5.6,7.2c0.2,0.1,0.3,0.1,0.5,0.1c1.2-0.1,2.4-0.4,3.5-0.9l1.2-6h6.3l-3.1,15.4
			c-0.1,0.4-0.1,0.8-0.1,1.3c0,1,0.3,1.9,1.3,1.9c1.7,0,2.8-1.7,3.5-4l3-14.5H65l-3.1,15.4c-0.1,0.5-0.2,1-0.2,1.4
			c0,1.3,0.6,1.7,1.8,1.7c1.7,0,2.9-1.7,3.5-4l2.6-12.7h-1.4l0.3-1.8H70l1.3-6.2l6.4-0.9l-1.5,7.1h2.6l-0.3,1.8h-2.7L73,156.6
			c-0.1,0.5-0.2,1-0.2,1.4c0,1.3,0.6,1.7,1.8,1.7c1.7,0,3.3-1.7,3.9-4l3-14.5h6.3l-3.1,15.4c-0.1,0.5-0.2,1-0.2,1.4
			c0,1.3,0.6,1.7,1.8,1.7c1.7,0,3.2-1.7,3.9-3.9l3-14.5h6.3l-0.5,2.4c1.2-1.6,3.1-2.5,5.1-2.5c2.8,0,4.8,1.5,4.8,5.1
			s-2.1,9.1-2.1,11.6c0,1.1,0.4,1.9,1.7,1.9c1.5,0,2.3-1,3-2.6c0-0.1,0-0.1,0-0.2c0-5.2,2.8-16.1,11.8-16.1
			C127.2,140.7,128.1,142.8,128.1,145L128.1,145z M80.3,120.8c0.8,0,1.2,0.3,1.2,0.8v0.1l0.7-3.4l2.1-0.3l-1.6,8.1
			c0,0.2-0.1,0.3-0.1,0.5c0,0.4,0.2,0.6,0.6,0.6l0,0c0.1,0.3,0.2,0.6,0.3,0.9c-0.4,0.3-0.9,0.5-1.5,0.5c-0.7,0-1.4-0.5-1.4-1.3l0,0
			c-0.4,0.8-1.2,1.3-2.1,1.4c-1,0-1.9-0.6-1.9-2.4C76.6,124.1,77.8,120.8,80.3,120.8z M89.6,122.2c-0.1,1.7-1.6,3.1-3.3,3.2
			c0,0.2,0,0.3,0,0.4c0,0.9,0.4,1.2,0.9,1.2c0.6-0.1,1.2-0.3,1.7-0.8c-0.1,1.3-1.2,2.3-2.5,2.2l0,0c-1.3,0-2.2-0.7-2.2-2.4
			s0.9-5.3,3.9-5.3C89.3,120.8,89.6,121.5,89.6,122.2z M85.9,131.5c2,0,3.5,1.7,3.5,3.6c0,1.9-1.5,3.5-3.5,3.6l0,0
			c-1.9,0-3.5-1.6-3.4-3.5l0,0C82.4,133.2,83.9,131.6,85.9,131.5L85.9,131.5z M129.1,114.4H129c-0.9,0-1.6,0.7-1.7,1.5l-3.6,21.5
			h-0.4c-4.6,0-8.6,2.3-11.3,6.6c-0.8-3.9-3.7-6.3-7.9-6.3c-1.1,0-2.1,0.2-3.2,0.5c-0.5-0.2-0.9-0.3-1.4-0.3h-6.3
			c-0.4,0-0.8,0.1-1.2,0.2c1.6-3.5,0.1-7.6-3.3-9.2c0,0,0,0-0.1,0c0.7-0.6,1.1-1.4,1.3-2.4l0.5-2.8c0.2-0.4,0.3-0.9,0.3-1.4
			c0.1-1.3-0.9-2.4-2.2-2.5c-0.1,0-0.3,0-0.4,0c-1.4,0-2.6,0.7-3.4,1.8l1-4.8l-4.3,0.6l-0.5,2.5c-0.2,0-0.3,0-0.5,0
			c-3.2,0-4.7,3.8-4.7,6.3c0,2.5,1.6,3.5,2.9,3.5c0.7,0,1.4-0.2,1.9-0.7c0.4,0.4,1,0.6,1.6,0.6l0,0c-0.8,0.6-1.5,1.4-2,2.3
			c-0.7-0.8-1.8-1.1-2.8-1l-6.4,0.9c-1.4,0.2-2.5,1.2-2.8,2.6l-0.8,3.9c-0.2,0.1-0.3,0.2-0.5,0.3c-0.5-0.3-1.1-0.5-1.8-0.5h-6.3
			c-0.8,0-1.6,0.3-2.2,0.9c-0.6-0.6-1.4-0.9-2.2-0.9H48c-1.6,0-2.9,1.1-3.2,2.6l-0.2,0.9c-0.2-0.3-0.3-0.6-0.5-0.8
			c-1.6-2.1-4.2-3.3-6.8-3.1c-1.2,0-2.5,0.2-3.7,0.5c0-0.1,0-0.3,0-0.4c0-3-1-5.8-2.9-8.1c0.7-0.3,1.4-0.8,1.9-1.4
			c0.6,1,1.7,1.6,2.8,1.5c0.6,0,1.2-0.1,1.7-0.3v0.2h7.7l0.3-1.6c0.4,1.1,1.4,1.7,2.5,1.7c0.7,0,1.4-0.2,1.9-0.7
			c0.5,0.4,1.2,0.7,1.9,0.7s1.3-0.2,1.9-0.6c0.4,0.4,1,0.7,1.7,0.6c0.7,0,1.4-0.2,2-0.6c0.5,0.4,1.1,0.7,1.7,0.6
			c0.3,0,0.5,0,0.8-0.1h4l0.3-1.6c0.4,1.1,1.4,1.7,2.5,1.7c0.7,0,1.4-0.2,2-0.7c0.6,0.5,1.4,0.7,2.2,0.7c1.8,0.1,3.3-1.3,3.5-3.1
			l0.5-2.8c0.2-0.4,0.3-0.9,0.3-1.4c0.1-1.3-0.9-2.4-2.2-2.5c-0.1,0-0.3,0-0.4,0c-1.6,0-3.1,0.9-3.8,2.3c-0.1-1.3-1.3-2.3-2.6-2.2
			c-0.2,0-0.4,0-0.6,0.1h-3.6c0.1-0.3,0.2-0.6,0.2-0.9c0-1.2-1-2.2-2.2-2.2s-2.2,1-2.2,2.2l0,0c0,0.3,0.1,0.6,0.2,0.9H54
			c-0.2-0.1-0.5-0.1-0.7-0.1c-1.5,0-2.9,0.9-3.6,2.3c-0.1-1.3-1.3-2.4-2.6-2.3l0,0c-0.6,0-1.3,0.2-1.8,0.6c-0.5-0.4-1.1-0.6-1.7-0.6
			c-0.2,0-0.5,0-0.7,0.1h-3.8l-0.1,0.5c-0.5-0.4-1.2-0.7-1.9-0.6c-1.8,0.1-3.3,1.1-4,2.8c-0.2-0.4-0.5-0.7-0.8-1
			c1.1-0.3,1.8-1.4,1.7-2.5c0-1.8-1.3-2.8-3.3-2.8c-2.5,0-4.3,1.6-4.3,3.7c0,1,0.5,2,1.2,2.8c-1.6,0.1-2.8,1.3-2.9,2.9
			c-1.6-0.5-3.4-0.7-5.1-0.7c-3.9,0.1-7.8,1.2-11.1,3.3l-2-12.2c-0.1-0.9-0.8-1.5-1.7-1.5H4.5c-0.8-4.3-0.2-5.3,0-5.5
			c1.6-0.5,13.6-0.8,25.2-1.1c13.4-0.2,28.7-0.4,37-0.4H67c8.3,0,23.6,0.1,37,0.4c11.6,0.2,23.6,0.5,25.2,1.1
			C129.3,109.1,129.9,110.1,129.1,114.4z"/>
		<path class="st2" d="M104,107.9c-13.4-0.2-28.8-0.4-37-0.4h-0.3c-8.3,0-23.6,0.1-37,0.4c-11.6,0.2-23.6,0.5-25.2,1.1
			c-0.1,0.2-0.8,1.2,0,5.5h0.2c0.9,0,1.6,0.7,1.7,1.6l2,12.1c3.3-2.1,7.2-3.2,11.1-3.3c1.7,0,3.4,0.2,5.1,0.7
			c0.1-1.6,1.4-2.8,2.9-2.9c-0.7-0.7-1.1-1.7-1.2-2.8c0-2.1,1.9-3.7,4.3-3.7c2.1,0,3.3,1.1,3.3,2.8c0.1,1.1-0.6,2.2-1.7,2.5
			c0.3,0.3,0.5,0.6,0.8,1c0.7-1.6,2.2-2.7,4-2.8c0.7,0,1.4,0.2,1.9,0.6l0.1-0.5h3.8c0.2-0.1,0.5-0.1,0.7-0.1c0.6,0,1.2,0.2,1.7,0.6
			c0.5-0.4,1.2-0.6,1.8-0.6c1.3-0.1,2.5,0.9,2.6,2.3c0.7-1.4,2.1-2.3,3.6-2.3c0.2,0,0.5,0,0.7,0.1h3.8c-0.1-0.3-0.2-0.6-0.2-0.9
			c0-1.2,1-2.2,2.2-2.2s2.2,1,2.2,2.2l0,0c0,0.3-0.1,0.6-0.2,0.9H65c0.2,0,0.4-0.1,0.6-0.1c1.3-0.1,2.5,0.9,2.6,2.2
			c0.7-1.4,2.2-2.3,3.8-2.3c1.3-0.1,2.4,0.8,2.6,2.1c0,0.1,0,0.3,0,0.4c0,0.5-0.1,1-0.3,1.4l-0.5,2.8c-0.1,1.8-1.7,3.2-3.5,3.1
			c-0.8,0-1.5-0.2-2.2-0.7c-0.6,0.5-1.3,0.7-2,0.7c-1.1,0.1-2.2-0.6-2.5-1.7l-0.3,1.6h-4c-0.3,0.1-0.5,0.1-0.8,0.1
			c-0.6,0-1.2-0.2-1.7-0.6c-0.6,0.4-1.3,0.6-2,0.6c-0.6,0-1.2-0.2-1.7-0.6c-0.5,0.4-1.2,0.6-1.9,0.6s-1.3-0.2-1.9-0.7
			c-0.5,0.4-1.2,0.7-1.9,0.7c-1.1,0.1-2.2-0.6-2.5-1.7l-0.3,1.6h-7.5v-0.2c-0.5,0.2-1.1,0.3-1.7,0.3c-1.2,0.1-2.2-0.5-2.8-1.5
			c-0.5,0.6-1.2,1.1-1.9,1.3c1.9,2.3,2.9,5.1,2.9,8.1c0,0.1,0,0.3,0,0.4c1.2-0.3,2.4-0.5,3.7-0.5c2.6-0.1,5.2,1,6.8,3.1
			c0.2,0.3,0.4,0.5,0.5,0.8l0.2-0.9c0.3-1.5,1.7-2.6,3.3-2.6h6.3c0.8,0,1.6,0.3,2.2,0.9c0.6-0.6,1.4-0.9,2.2-0.9H65
			c0.6,0,1.2,0.2,1.8,0.5c0.2-0.1,0.3-0.2,0.5-0.3l0.8-3.9c0.3-1.4,1.4-2.4,2.8-2.6l6.4-0.9c1-0.1,2.1,0.2,2.8,1
			c0.5-0.9,1.2-1.7,2-2.3l0,0c-0.6,0-1.2-0.2-1.6-0.6c-0.6,0.4-1.2,0.7-1.9,0.7c-1.3,0-2.9-0.9-2.9-3.5s1.5-6.3,4.7-6.3
			c0.2,0,0.3,0,0.5,0l0.5-2.5l4.3-0.6l-1,4.8c0.8-1.1,2.1-1.8,3.4-1.8c1.3-0.1,2.4,0.8,2.6,2.1c0,0.1,0,0.3,0,0.4
			c0,0.5-0.1,1-0.3,1.4l-0.5,2.8c-0.1,0.9-0.6,1.8-1.3,2.4c3.5,1.6,5,5.7,3.5,9.2v0.1c0.4-0.2,0.8-0.2,1.2-0.2h6.3
			c0.5,0,1,0.1,1.4,0.3c1-0.4,2.1-0.5,3.2-0.5c4.2,0,7.2,2.4,7.9,6.3c2.7-4.2,6.7-6.6,11.3-6.6h0.4l3.6-21.4
			c0.1-0.9,0.8-1.5,1.7-1.5h0.1c0.8-4.3,0.2-5.3,0-5.5C127.6,108.4,115.6,108.1,104,107.9z M98.3,129.5c-0.7,0-1.5-0.2-2-0.8
			c-0.6,0.5-1.4,0.8-2.2,0.8c-1.4,0-2.6-1.1-2.6-2.6c0-0.1,0-0.2,0-0.3c0-0.4,0-0.8,0.1-1.2l1.7-8.2l4.3-0.6l-1,5.1
			c0.7-1.2,2-2,3.4-2c0.2,0,0.5,0,0.7,0.1h3.9l-1.2,5.8l1.6-0.7l-0.9,2.3c-0.3,0.9-0.8,2.2-2.4,2.2c-0.6,0-1.2-0.2-1.6-0.6
			C99.7,129.3,99,129.5,98.3,129.5L98.3,129.5z"/>
		<path class="st2" d="M111.8,165.2c-1.7,1.3-3.8,2-5.9,2c-3.2,0.2-6.1-1.6-7.6-4.4l-0.3,1.5c-0.3,1.5-1.6,2.7-3.2,2.7h-6.3
			c-0.6,0-1.2-0.2-1.7-0.4c-1.3,0.5-2.6,0.7-4,0.7c-1.9,0.1-3.8-0.6-5.3-1.9c-1.9,1.3-4.1,1.9-6.3,1.9c-1.9,0-3.8-0.6-5.2-1.9
			c-1.8,1.2-3.9,1.9-6,1.9c-1.8,0-3.6-0.6-5-1.8c-1.7,1.2-3.7,1.9-5.7,1.8c-2.1,0.1-4.2-0.8-5.7-2.3c-0.8-0.8-1.4-1.8-1.7-2.9
			l-0.1,0.2c-2.2,3-5.8,4.9-9.5,4.9c-2.6,0.1-5.2-0.8-7.2-2.5c-2-1.9-3-4.5-3-7.9c0-1.4,0.2-2.7,0.4-4.1c-0.9,0.3-1.9,0.5-2.9,0.7
			l-2.4,11.1c-0.3,1.2-1.2,2.2-2.4,2.5l1,6c0.1,0.9,0.8,1.5,1.7,1.5H116c0.9,0,1.6-0.7,1.7-1.5l0.9-5.7h-0.4
			C116,167.3,113.7,166.6,111.8,165.2z"/>
		<path class="st2" d="M30.4,119.2L30.4,119.2h0.2c0.1-0.1,0.1-0.2,0.1-0.3l0,0C30.4,118.9,30.4,119,30.4,119.2z"/>
		<path class="st2" d="M29.3,125.7h-0.4c-0.1,0-0.7,0-0.7,0.3s0.2,0.4,0.4,0.4C29,126.4,29.2,126.2,29.3,125.7z"/>
		<path class="st1" d="M39.3,146.1c-0.1-1.9-0.5-2.6-1.7-2.6c-3.1,0-5.8,8.3-5.8,12.7c0,3,0.6,3.6,2.2,3.6c2.1,0,4.3-4.1,5-9.4
			c-0.9-0.2-1.2-1-1.2-1.9C37.8,147.5,38.4,146.6,39.3,146.1z"/>
		<path class="st1" d="M123.7,143.1c-2.2,0-4.3,5-5.3,9.3c3.4-0.2,6.3-3.7,6.3-7.4C124.8,143.8,124.5,143.1,123.7,143.1z"/>
		<path d="M16.9,150.2h0.2c7.2,0.1,13.1-5.6,13.2-12.7c0-4.9-3.3-9.4-10.8-9.4s-16,6-16,12.4c0,3.4,1.7,4.6,4.9,4.6
			c-0.5-1-0.7-2.1-0.6-3.2c0-7.2,4.4-11.6,11.9-11.6c4,0,5.7,2.9,5.7,6.5c0,5.1-3.4,11.3-8,11.7l3.2-15.9l-6.8,0.9l-6.3,30.2h6.6
			L16.9,150.2z"/>
		<path d="M85.9,138.7c1.9,0,3.5-1.6,3.5-3.5l0,0c0.1-1.9-1.4-3.5-3.3-3.6s-3.5,1.4-3.6,3.3c0,0.1,0,0.2,0,0.4
			C82.4,137,83.9,138.6,85.9,138.7L85.9,138.7z"/>
		<path d="M123.3,140.7c-8.9,0-11.8,10.9-11.8,16.1c0,0.1,0,0.1,0,0.2c-0.7,1.6-1.6,2.6-3,2.6c-1.3,0-1.7-0.8-1.7-1.9
			c0-2.5,2.1-8,2.1-11.6s-2-5.1-4.8-5.1c-2,0-3.9,0.9-5.1,2.5l0.5-2.4h-6.3l-3,14.5c-0.7,2.2-2.2,3.9-3.9,3.9
			c-1.2,0-1.8-0.4-1.8-1.7c0-0.5,0.1-1,0.2-1.4l3.1-15.4h-6.2l-3,14.5c-0.7,2.3-2.2,4-3.9,4c-1.2,0-1.8-0.4-1.8-1.7
			c0-0.5,0.1-1,0.2-1.4l2.8-13.5h2.6l0.3-1.8h-2.6l1.5-7.1l-6.4,0.9l-1.3,6.2h-1.5l-0.3,1.8h1.4L67,155.6c-0.7,2.3-1.8,4-3.5,4
			c-1.2,0-1.8-0.4-1.8-1.7c0-0.5,0.1-1,0.2-1.4l3.1-15.4h-6.3l-3,14.5c-0.7,2.3-1.8,4-3.5,4c-1,0-1.3-0.8-1.3-1.9
			c0-0.4,0-0.8,0.1-1.3l3.1-15.4H48l-1.2,6c-1.1,0.5-2.3,0.8-3.5,0.9c-0.2,0-0.3,0-0.5-0.1c0-4.7-1.8-7.2-5.6-7.2
			c-9,0-11.9,10.8-11.9,16s2.9,7.1,7,7.1c5.3,0,9.7-5.2,10.4-13.6c1.2-0.2,2.5-0.5,3.6-1l-1.3,6.4c-0.2,1-0.3,2-0.3,2.9
			c0,3.8,2,5.4,4.7,5.4c1.8,0,4.3-0.6,6.4-4.3c0.3,2.8,1.8,4.3,4.3,4.3c1.8,0,4.4-0.6,6.7-4c0.2,2.3,2.2,4.1,4.5,4
			c2.9,0,5.6-1.5,7.1-4c0.2,2.3,2.2,4.1,4.6,4c2.4,0,4.6-1.1,6.2-3l-0.5,2.7H95l3-14.5c0.7-2.3,1.8-4.1,3.4-4.1c1,0,1.6,0.8,1.6,2.3
			c0,2.9-2,8.4-2,11.5c0,2.6,1.3,5.1,5.1,5.1c1.7,0,4-0.5,6.1-3.9c0.9,2.8,3.2,3.9,6.3,3.9c3.5,0,6.6-1.5,7.5-6.7
			c-1.4,1.3-3.2,2.2-5.1,2.4c-1.5,0-2.7-0.9-2.7-3.8c0-0.5,0-0.9,0.1-1.4c5.2-0.3,10-4.3,10-9.5
			C128.1,142.8,127.2,140.7,123.3,140.7z M39.1,150.4c-0.7,5.3-2.9,9.4-5,9.4c-1.7,0-2.2-0.7-2.2-3.6c0-4.4,2.7-12.7,5.8-12.7
			c1.1,0,1.6,0.7,1.7,2.6c-0.9,0.5-1.4,1.4-1.3,2.4C37.9,149.4,38.2,150.2,39.1,150.4z M118.4,152.4c0.9-4.3,3.1-9.3,5.3-9.3
			c0.8,0,1.1,0.7,1.1,1.9C124.8,148.8,121.8,152.2,118.4,152.4L118.4,152.4z"/>
		<path d="M25.6,126.1c0,1.8,1.4,2.6,3,2.6c1.5,0.1,2.8-0.7,3.6-1.9c0-0.2,0-0.5,0-0.7c0-0.8,0.1-1.5,0.3-2.2
			c-0.6-2.2-3.1-2.7-3.1-4.6c-0.1-0.7,0.4-1.3,1.1-1.4c0.1,0,0.2,0,0.2,0c0.5-0.1,1,0.3,1.1,0.8c0,0.1,0,0.1,0,0.2
			c0,0.5-0.2,1-0.6,1.3c0.2,0.2,0.4,0.3,0.7,0.3c0.7,0,1.2-0.7,1.2-1.5c0-1.7-1.6-1.8-2.3-1.8c-1.9,0-3.3,1.1-3.3,2.7
			c0,2.2,3,3.1,3,5.7c0,1.3-0.7,2-1.7,2c-0.7,0-1.4-0.6-1.4-1.3v-0.1c0-1,0.9-1.4,1.7-1.4c-0.1-0.6-0.6-1.1-1.2-1l0,0
			c-1.2,0-2.2,1.1-2.2,2.3C25.6,126,25.6,126.1,25.6,126.1z"/>
		<path class="st1" d="M37.5,122.2c0-0.4-0.1-0.6-0.4-0.6c-0.7,0-1.4,1.6-1.7,3.1C36.7,124.5,37.6,123.4,37.5,122.2z"/>
		<path d="M35.4,128.5c0.7,0,1.4-0.2,2-0.6l0.2-1c-0.4,0.2-0.8,0.3-1.3,0.3c-0.7,0-1-0.2-1-1.2c0-0.2,0-0.4,0-0.6
			c1.2-0.1,2.3-0.7,3-1.8l0.3-1.7c-0.1-0.6-0.5-1.1-1.6-1.1c-3,0-3.9,3.6-3.9,5.3S34.1,128.5,35.4,128.5z M37.2,121.6
			c0.3,0,0.4,0.2,0.4,0.6c0,1.2-0.9,2.3-2.1,2.5C35.8,123.2,36.5,121.6,37.2,121.6z"/>
		<path d="M38.3,128.4h2.1l1-4.8c0.2-0.7,0.6-1.4,1.2-1.4c0.3,0,0.4,0.3,0.4,0.7c0,0.1,0,0.3,0,0.4l-1,5.2h2l1-4.8
			c0.2-0.7,0.6-1.4,1.1-1.4c0.3,0,0.5,0.3,0.5,0.8c0,1-0.7,2.8-0.7,3.8c-0.1,0.9,0.6,1.6,1.4,1.7c0.1,0,0.2,0,0.3,0
			c0.5,0,0.9-0.2,1.3-0.5c-0.2-0.3-0.3-0.6-0.3-1h-0.1c-0.4,0-0.6-0.2-0.6-0.6c0-0.8,0.7-2.6,0.7-3.8c0.1-0.8-0.4-1.6-1.2-1.7
			c-0.1,0-0.2,0-0.4,0c-0.9,0-1.6,0.5-2,1.3c0-0.8-0.7-1.3-1.5-1.3l0,0c-0.7,0-1.3,0.3-1.8,0.8l0.2-0.8h-2.1L38.3,128.4z"/>
		<path class="st1" d="M54.3,122.3c0-0.3-0.3-0.6-0.6-0.6l0,0c-1.2,0-2,2.7-2,4.1c0,1.2,0.5,1.2,0.7,1.2c0.7-0.1,1.1-0.7,1.2-1.3
			L54.3,122.3z"/>
		<path d="M53.2,120.8c-2.5,0-3.7,3.2-3.7,5.2c0,1.8,0.9,2.4,1.9,2.4c0.9-0.1,1.7-0.6,2.1-1.4c0,0.7,0.6,1.4,1.3,1.4h0.1
			c0.5,0,1-0.2,1.4-0.5c-0.1-0.3-0.2-0.6-0.2-0.9H56c-0.4,0-0.6-0.2-0.6-0.6c0-0.2,0-0.3,0-0.5l1-5.1h-2l-0.2,0.8v-0.1
			C54.4,121.2,54,120.8,53.2,120.8z M53.6,125.7c-0.1,0.7-0.5,1.2-1.2,1.3c-0.2,0-0.7,0-0.7-1.2c0-1.4,0.8-4.1,2-4.1
			c0.3,0,0.6,0.2,0.6,0.5l0,0L53.6,125.7z"/>
		<path d="M59.2,126.5c0-0.2,0-0.3,0.1-0.5l1-5.1h-2l-1,4.8c-0.1,0.3-0.1,0.7-0.1,1c0,1.2,0.7,1.8,1.5,1.8c0.3,0,0.6,0,0.8-0.1
			l0.3-1.3C59.4,127,59.2,126.9,59.2,126.5z"/>
		<path d="M60.8,118.9c0-0.6-0.5-1.2-1.2-1.2c-0.6,0-1.2,0.5-1.1,1.2l0,0c0,0.6,0.5,1.2,1.1,1.2l0,0
			C60.3,120.1,60.9,119.6,60.8,118.9C60.9,118.9,60.9,118.9,60.8,118.9z"/>
		<path d="M60.6,128.4h2.1l1-4.8c0.2-0.7,0.6-1.4,1.1-1.4c0.3,0,0.5,0.3,0.5,0.8c0,1-0.7,2.8-0.7,3.8c-0.1,0.9,0.6,1.6,1.4,1.7
			c0.1,0,0.2,0,0.3,0c0.5,0,0.9-0.2,1.3-0.4c-0.2-0.3-0.3-0.6-0.4-1h-0.1c-0.4,0-0.6-0.2-0.6-0.6c0-0.8,0.7-2.6,0.7-3.8
			c0.1-0.8-0.4-1.6-1.2-1.7c-0.1,0-0.2,0-0.4,0c-0.7,0-1.3,0.3-1.7,0.8l0.2-0.8H62L60.6,128.4z"/>
		<path class="st1" d="M72.6,122.2c0-0.4-0.1-0.6-0.4-0.6c-0.7,0-1.4,1.7-1.7,3.1C71.7,124.5,72.6,123.4,72.6,122.2z"/>
		<path d="M68.2,126.1c0,1.7,0.9,2.4,2.2,2.4c1.3,0.1,2.4-0.9,2.5-2.2l0,0c-0.5,0.4-1.1,0.7-1.7,0.8c-0.5,0-0.9-0.3-0.9-1.2
			c0-0.1,0-0.3,0-0.4c1.8,0,3.2-1.4,3.3-3.2c0-0.8-0.3-1.4-1.6-1.4C69.1,120.8,68.2,124.4,68.2,126.1z M72.2,121.6
			c0.3,0,0.4,0.2,0.4,0.6c0,1.2-0.9,2.3-2.1,2.5C70.8,123.2,71.5,121.6,72.2,121.6z"/>
		<path class="st1" d="M78.7,125.8c0,1.2,0.5,1.2,0.7,1.2c0.6-0.1,1.1-0.6,1.2-1.2v-0.1l0.7-3.4c0-0.3-0.3-0.5-0.6-0.5
			C79.5,121.8,78.7,124.4,78.7,125.8z"/>
		<path d="M78.5,128.5c0.9,0,1.7-0.6,2.1-1.4c0,0.7,0.6,1.3,1.4,1.3l0,0c0.5,0,1-0.1,1.5-0.4c-0.1-0.3-0.2-0.6-0.3-0.9l0,0
			c-0.4,0-0.6-0.1-0.6-0.6c0-0.2,0-0.3,0.1-0.5l1.7-8.1l-2.1,0.3l-0.7,3.4v-0.1c0-0.4-0.3-0.8-1.2-0.8c-2.5,0-3.7,3.2-3.7,5.2
			C76.6,127.8,77.5,128.5,78.5,128.5z M80.8,121.8c0.3,0,0.6,0.2,0.6,0.5l-0.7,3.4v0.1c-0.1,0.6-0.6,1.1-1.2,1.2
			c-0.2,0-0.7,0-0.7-1.2C78.7,124.4,79.5,121.8,80.8,121.8z"/>
		<path class="st1" d="M88.2,121.6c-0.7,0-1.4,1.7-1.7,3.1c1.2-0.2,2.1-1.2,2.1-2.5C88.5,121.8,88.4,121.6,88.2,121.6z"/>
		<path d="M88,120.8c-3,0-3.9,3.6-3.9,5.3s0.9,2.4,2.2,2.4c1.3,0.1,2.4-0.9,2.5-2.2l0,0c-0.5,0.4-1.1,0.7-1.7,0.8
			c-0.5,0-0.9-0.3-0.9-1.2c0-0.1,0-0.3,0-0.4c1.8,0,3.2-1.4,3.3-3.2C89.6,121.5,89.3,120.8,88,120.8z M86.4,124.6
			c0.3-1.4,1-3.1,1.7-3.1c0.3,0,0.4,0.2,0.4,0.6C88.5,123.4,87.6,124.5,86.4,124.6L86.4,124.6z"/>
		<path d="M95.5,127h-0.2c-0.4,0-0.6-0.1-0.6-0.6c0-0.2,0-0.3,0.1-0.5l1.7-8.1l-2.1,0.3l-1.5,7.5c-0.1,0.3-0.1,0.7-0.1,1
			c0,1.2,0.7,1.8,1.5,1.8c0.6,0,1.1-0.2,1.6-0.6C95.6,127.6,95.5,127.3,95.5,127z"/>
		<path class="st1" d="M101.9,129.5c1.6,0,2.1-1.3,2.4-2.2l0.9-2.3l-1.6,0.7l1.2-5.8h-3.9c-0.2-0.1-0.5-0.1-0.7-0.1
			c-1.4,0-2.7,0.8-3.4,2l1-5.1l-4.3,0.6l-1.7,8.2c-0.1,0.4-0.1,0.8-0.1,1.2c-0.2,1.4,0.9,2.7,2.3,2.8c0.1,0,0.2,0,0.3,0
			c0.8,0,1.6-0.3,2.2-0.8c0.5,0.5,1.3,0.8,2,0.8s1.4-0.2,1.9-0.6C100.7,129.3,101.2,129.5,101.9,129.5z M94.2,128.5
			c-0.9,0-1.5-0.5-1.5-1.8c0-0.3,0-0.7,0.1-1l1.5-7.5l2.1-0.3l-1.7,8.1c0,0.2-0.1,0.3-0.1,0.5c0,0.4,0.2,0.6,0.6,0.6h0.2
			c0.1,0.3,0.1,0.6,0.3,0.9C95.3,128.3,94.7,128.5,94.2,128.5z M100.5,127.1c-0.4,0.8-1.2,1.3-2.1,1.4c-1,0-1.9-0.6-1.9-2.4
			c0-2,1.2-5.2,3.7-5.2c0.8,0,1.2,0.3,1.2,0.8v0.1l0.2-0.8h2.1l-1,5.1c0,0.2-0.1,0.3-0.1,0.5c0,0.4,0.2,0.6,0.6,0.6
			c0.1,0,0.2,0,0.3-0.1c-0.4,1-0.7,1.5-1.4,1.5C101.1,128.5,100.5,127.9,100.5,127.1L100.5,127.1z"/>
		<path class="st1" d="M100.4,125.7l0.7-3.4c0-0.3-0.3-0.6-0.6-0.6l0,0c-1.2,0-2,2.7-2,4.1c0,1.2,0.5,1.2,0.7,1.2
			C99.9,126.9,100.4,126.4,100.4,125.7z"/>
		<path d="M101.9,128.5c0.8,0,1-0.5,1.4-1.5c-0.1,0-0.2,0.1-0.3,0.1c-0.4,0-0.6-0.1-0.6-0.6c0-0.2,0-0.3,0.1-0.5l1-5.1h-2.1
			l-0.2,0.8v-0.1c0-0.4-0.3-0.8-1.2-0.8c-2.5,0-3.7,3.2-3.7,5.2c0,1.8,0.9,2.4,1.9,2.4c0.9-0.1,1.7-0.6,2.1-1.4
			C100.4,127.9,101.1,128.5,101.9,128.5C101.8,128.5,101.9,128.5,101.9,128.5z M98.5,125.8c0-1.4,0.8-4.1,2-4.1
			c0.3,0,0.6,0.2,0.6,0.5l0,0l-0.7,3.4c-0.1,0.7-0.6,1.2-1.2,1.3C99,127,98.5,127,98.5,125.8z"/>
		<polygon class="st3" points="77.1,61.1 66.1,62.8 69.1,68.9 78.8,67 		"/>
		<path class="st3" d="M63.5,75.6l2.3-2.8l1.5,0.4l0.8-3.5l-2.6-5.2l-2.2,11C63.3,75.4,63.4,75.5,63.5,75.6z"/>
		<path class="st3" d="M56,58.4l-1.8,4.9l4.3,12.4c0.7,0,1.4,0.2,1.9-0.4c0.3-0.3,0.6-0.6,1-0.7L56,58.4z"/>
		<polygon class="st3" points="102.3,65.9 109.3,60.9 104.8,58.7 97.8,62.7 		"/>
		<polygon class="st3" points="109.3,89.8 112.8,77.3 110.2,61.7 103.1,67.1 		"/>
		<polygon class="st3" points="127.8,74.9 126.7,69.5 116.1,71.5 118.4,77.2 		"/>
		<polygon class="st3" points="129.6,85.7 133.2,95.9 140.9,95.6 136.2,84.2 		"/>
		<path class="st3" d="M127.3,87.2c0.4,0.8,0.3,1.9,0,3.6c-0.4,2.2-1.6,1.9-3.1,2.1s-1.4,2-3.2,2.2c-0.5,0.1-0.7-0.1-0.8-0.3
			l-4.8,5.1l0.2,2.8l-0.6,1.2c3.3,0.1,6,0.2,8.3,0.2l8.9-7.7L128.5,86L127.3,87.2z"/>
		<polygon class="st3" points="29.1,65.9 30.9,69.8 38.4,67.5 36.2,64.4 		"/>
		<path class="st3" d="M28,80.2c0.5,0.3,0.9,0.6,1.3,1l5.1-2.4l4.2-10.4l-7.8,2.7L28,80.2z"/>
		<polygon class="st3" points="14.5,81.8 17.5,73.3 12.9,73.4 9.4,81 		"/>
		<path class="st3" d="M15.7,82.7l5.5,6.9c0-0.2,0-0.5,0-0.7c0.2-1.9,1.8-2.8,1.9-3.6s-0.9-1.6-0.6-2.7c0.1-0.6,0.6-1.2,1.2-1.3
			l-5.1-7.7L15.7,82.7z"/>
		<path class="st3" d="M54.8,88.3l1.6,0.9l0.7-4.4l5.2,1.2c0.8-0.2,1.6-0.3,2.5-0.2l-1-3.1l-9.4,2.4L54.8,88.3z"/>
		<polygon class="st3" points="41.7,71.2 48.9,74.5 51.5,70.7 44.5,68.4 		"/>
		<path class="st3" d="M41.9,75.3L41.9,75.3l5.8,7.9l0.1,3.6c1.7-0.1,1.2,1.6,2.2,1.9l0.3,0.1l-1.7-13.1L41.1,72L41.9,75.3z"/>
		<path class="st3" d="M82.3,93.8l-0.2-7.6L77.2,89l1.7,8.1l0.1,0.1L82.3,93.8z"/>
		<polygon class="st3" points="86.5,71.9 94.1,67.1 90.5,64.3 83.1,68.1 		"/>
		<polygon class="st3" points="87.1,89.3 88.2,89.9 90.3,79.5 93.9,78.7 94.8,67.9 86.9,73.3 		"/>
		<polygon class="st3" points="63.5,76.8 70.9,79.6 73,75.7 66,73.8 		"/>
		<path class="st3" d="M65.7,85.7c0.7,0,1.4-0.3,1.9-0.8c1.7-1.7,2.9-1.8,3.9-1.3l-0.7-2.8l-7.7-3.1L65.7,85.7z"/>
		<path class="st3" d="M73.7,93c-0.3,0.4-0.8,0.7-1.3,0.8l1,3c0.3-0.3,0.6-0.5,1-0.6L73.7,93z"/>
		<path class="st3" d="M5.8,98.5C6,97.8,6.5,97.2,6,96.4c-1.4-2.2,0.1-2.2,1.3-2.6c0.5-0.2,1.1-0.2,1.7,0l0.5-6.4l-6.3-0.2L1.7,99.1
			L5.8,98.5z"/>
		<path class="st3" d="M10.2,94.5l1.2,0.7c1.9,1.2,1.3,1.8,1.1,2.9s1.1,1.6,1.1,2.6l4.9,3l-0.9-4.6l4.4-3l-11.3-8.3L10.2,94.5z"/>
		<polygon class="st3" points="36,87.7 45.7,82.7 41.5,77.1 30.4,82.3 		"/>
		<path class="st3" d="M44.4,101.7c-0.5,0.3-1.1,0.4-1.6,0.4c-1.9-0.2-3.4-1.7-3.5-3.5c0-1.8,1.4-2.6,1.4-3.3s-1.1-1.5-0.9-2.5
			c0.4-2.2,2.7-0.5,3.5-1.5c1.2-1.5,2.3-0.3,3.5,0.6L46.5,84l-9.8,5.2l2.1,14.6l5.4-0.1L44.4,101.7z"/>
		<polygon class="st3" points="32,97.9 28.4,93.3 19.4,99.4 24.2,103.7 		"/>
		<polygon class="st3" points="94.7,86.2 104.1,83.8 102.4,78.2 91.8,80.4 		"/>
		<polygon class="st3" points="89.4,90.4 92.4,91.9 93.6,86.9 91.1,81.9 		"/>
		<path class="st3" d="M95.7,99.7L95.4,97c-0.9-1-2.6-1.7-2.3-3.3L87.3,91l-0.4,5.7L95.7,99.7z"/>
		<path class="st3" d="M86.2,98l-3.2,3.3c0.3,0.2,0.6,0.3,0.9,0.4c1.1,0.3,3.3,0.6,4.8,1.9h3.5l3.3-2.8L86.2,98z"/>
		<path class="st4" d="M53.7,78.8l0.6,5l1.1-0.3c0-0.1,0-0.1,0-0.2c0.2-1.1,0.8-2.2,1.6-3c-0.3-0.2-0.5-0.4-0.8-0.6
			C55.4,79.3,54.6,79,53.7,78.8z"/>
		<path class="st4" d="M104.8,88.3l-0.5,0.1l-0.2,0.7c0.7,0.5,1.4,1,2,1.6c1,0.8,1.5,2.1,1.3,3.3h7.3l0.4,4.2L118,95
			c-1-1.3-2.3-2.4-3.8-3.2c-0.4-0.1-0.7-0.3-1.1-0.3l-0.6-0.1c-0.8-0.1-1.6-0.4-2.3-0.9c-0.8-0.5-1.6-1.1-2.4-1.6
			C106.9,88.4,105.9,88.2,104.8,88.3z"/>
		<path class="st4" d="M76.9,87.7l1.9-1.1c0-0.1,0-0.2-0.1-0.3c-0.3-0.7-1.6-0.9-1.1-2s2-0.3,2.8-1.1s1.2-0.8,1.6-0.6l-0.1-4.1
			c-0.7,0-1.5,0-2.2,0s-1.5,0-2.1,0c-0.2,0-0.3,0-0.5,0c-0.5,0.1-1,0.2-1.4,0.4L75.1,79L76.9,87.7z"/>
		<path class="st4" d="M58.1,97.6l-2.2-4.9l0.4-2.8c-0.8,0-1.6,0-2.3,0c-0.8,0-1.6,0.1-2.4,0.2l-0.9,0.2c-0.9,0.3-1.8,0.6-2.6,1
			l0.1,1.6c0.4,0.1,0.9,0,1.2-0.3c2.7-2.2,4.4,0.4,4.6,2.1c0,0.2,0,0.5,0,0.7L58.1,97.6z"/>
		<path class="st4" d="M21.9,92.2c-0.4,0.5-0.8,0.9-1.1,1.4l2.5,1.8l5.5-3.7l1.6,2.1l-0.9-5.3c-1.1,0-2.1,0.1-3.1,0.3
			C24.5,89.4,23,90.6,21.9,92.2z"/>
		<path class="st4" d="M82.9,101.2c-0.4-0.2-0.7-0.4-1-0.7c-0.8-0.8-1.5-1.6-2.1-2.5c-0.2-0.3-0.5-0.6-0.8-0.9L78.9,97
			c-0.3-0.3-0.7-0.6-1.1-0.8c-0.5-0.2-1-0.4-1.6-0.3c-0.3,0-0.6,0-0.9,0.1c-0.3,0-0.6,0.1-0.9,0.2c-0.4,0.1-0.7,0.3-1,0.6l2.2,6.6
			c3.9,0,8.4,0.1,13.1,0.1c-1.5-1.3-3.7-1.6-4.8-1.9C83.6,101.6,83.2,101.4,82.9,101.2z"/>
		<polygon class="st3" points="101.7,95.3 103.7,102.1 114.1,101.6 113.5,95.3 		"/>
		<path class="st3" d="M102.3,102.6l-1.7-5.8l-2.8,6.9l3.9,0.1L102.3,102.6z"/>
		<polygon class="st3" points="58.2,86.3 57.3,91.8 67,94.4 69.1,88.7 		"/>
		<path class="st3" d="M68.2,95.1l2.9,8.3h3.3L70,90.3L68.2,95.1z"/>
		<path class="st3" d="M46.3,99.1l-0.8,4.6l5.5-0.1l0.5-7.1L46.3,99.1z"/>
		<path class="st5" d="M69.1,70.2l-0.7,3.2l5.7,1.4L75,79l0.5-0.2L79,68.3L69.1,70.2z"/>
		<path class="st5" d="M57.3,75.9l-4.2-12l-9.9-2.5l2.9,6.4l6.6,2.1l1,8.9c0.8,0.2,1.6,0.5,2.4,1c0.3,0.2,0.6,0.4,0.8,0.6
			c0.1-0.2,0.2-0.4,0.3-0.6c0.1-0.8-0.9-1.6-0.6-2.7C56.7,76.6,57,76.2,57.3,75.9z"/>
		<path class="st5" d="M103.3,76.8l2.2,7.9l-0.9,2.9l0.2,0.7c1-0.1,2.1,0.1,3,0.6l-5.9-22l-4.2-3.1l3.9,13.2L103.3,76.8z"/>
		<path class="st5" d="M118,95l2.1-2.2c0.1-0.4,0-0.8-0.1-1.2c-0.4-1.2-2.6-1.7-1.7-3.7s3.2-0.4,4.4-1.7c0.4-0.5,0.8-0.8,1.4-1.1
			l3.7-9.1l-9.5,2.2l-4.1,13.5C115.7,92.6,117,93.7,118,95z"/>
		<path class="st5" d="M139.8,97l-6.5,0.3l-8.1,7c2.5,0.1,4.2,0.2,5.5,0.3L139.8,97z"/>
		<path class="st5" d="M24.9,81.3c0.5,0.1,0.9-0.1,1.3-0.4c0.2-0.3,0.6-0.6,0.9-0.7l2.9-9.4L28.4,67l-4,13.7L24.9,81.3z"/>
		<path class="st5" d="M14.7,83.2L10,82.3l7.1,8.6l3.7,2.7c0.4-0.4,0.8-0.9,1.1-1.4L14.7,83.2z"/>
		<path class="st5" d="M52,71.8l-2.3,3.6L51.6,90c0.8-0.1,1.6-0.2,2.4-0.2L52,71.8z"/>
		<polygon class="st5" points="85.9,73.1 82.7,69.4 83.3,92.7 86,89.9 		"/>
		<path class="st5" d="M77.8,96.4l-4.2-19.6l-1.9,3.7l0.9,3.9c0.3,0.3,0.6,0.6,1,0.8c1.7,1.4,1.5,2.9,0.8,6c0,0.1-0.1,0.2-0.1,0.4
			l1,4.4c0.3,0,0.6-0.1,0.9-0.1C76.8,96,77.3,96.1,77.8,96.4z"/>
		<path class="st5" d="M35,88.8l-4.8-4.6l1.9,12l1.6,2l0.4,5.6h3L35,88.8z"/>
		<path class="st5" d="M94.7,87.4l-1.1,4.9c1.5-2.2,4.8-0.3,6.6-2.1c1.2-1.2,2.1-1.6,2.9-1.6l1.2-3.7L94.7,87.4z"/>
		<path class="st5" d="M82,100.6l3.6-3.6l0.5-5.4l-6.2,6.5C80.5,99,81.2,99.8,82,100.6z"/>
		<path class="st5" d="M57.3,93l2.4,5.4l9.4,5h0.8l-2.7-7.8L57.3,93z"/>
		<path class="st5" d="M52.8,96.2l-0.2,7.3c5.3,0,10-0.1,13.8-0.1L52.8,96.2z"/>
	</g>
</g>
<g class="st6">
	<path d="M150,120.6c2.1-0.3,3.5-1,4.3-2c0.8-1,1.2-2.7,1.2-5.2v-30c0-1.7-0.2-2.9-0.6-3.4c-0.4-0.6-1.2-0.9-2.4-0.9
		c-0.5,0-1,0-1.4,0.1c-0.4,0.1-0.7,0.1-0.9,0.1l-0.6-0.9l0.7-5.5l12.1,0.1c1.6,0,4.1-0.1,7.6-0.2c3.5-0.1,5.8-0.2,7-0.3l-0.7,6.8
		c-1.9,0.2-3.3,0.5-4.3,0.8c-0.9,0.3-1.5,0.8-1.9,1.5c-0.3,0.7-0.6,1.7-0.7,3c-0.6,7.9-0.8,17.8-0.8,29.5c0,1.8,0.3,2.9,0.8,3.5
		c0.5,0.6,1.7,0.9,3.4,0.9c2.4,0,4.2-0.3,5.5-1c1.2-0.7,2.1-1.9,2.7-3.7c0.6-1.8,1-4.5,1.4-8.2l8.5-0.9l0.7,1
		c-0.2,1.1-0.5,3.6-0.9,7.6c-0.4,4-0.8,8.2-1.2,12.5l-1,1.1c-1.5-0.1-4.7-0.2-9.6-0.4c-4.9-0.2-9.6-0.3-14.1-0.3
		c-3.2,0-6.4,0.1-9.5,0.3c-3.1,0.2-5.1,0.4-5.9,0.5L150,120.6z"/>
	<path d="M217.5,125.6c-1.5-1-2.3-2.6-2.6-4.6l-0.8-0.3c-1.7,1.7-3.4,3.2-5.1,4.4c-1.7,1.2-3,1.8-4.1,1.8c-2.1,0-4.1-0.6-5.9-1.7
		c-1.8-1.1-3.2-2.7-4.2-4.7c-1-2-1.5-4.2-1.5-6.5c0-1.8,0.5-3.3,1.4-4.6c0.9-1.3,2.1-2.1,3.6-2.4l16-3.4v-1.2c0-2.1-0.6-3.8-1.8-5
		c-1.2-1.2-2.9-1.8-5.1-1.8c-1.4,0-3,0.4-4.8,1.1c-1.8,0.7-3.4,1.6-4.8,2.6l-0.8-0.4l-1.7-5.7c3-1.7,6.1-3.2,9.3-4.5
		c3.1-1.3,5.4-2,6.8-2c5.2,0,9,1.1,11.4,3.2s3.6,4.9,3.6,8.3c0,0.8-0.3,3.3-0.8,7.6c-0.1,0.7-0.2,2-0.5,4c-0.3,2-0.4,3.5-0.4,4.3
		c0,0.9,0.2,1.7,0.7,2.3s1.2,0.9,2,0.9c1,0,2.2-0.4,3.5-1.1l1.3,1.9c-1.1,2-2.5,4-4,5.8c-1.6,1.8-3.1,2.9-4.4,3.2
		C221,127.2,219,126.7,217.5,125.6z M211.4,117.3c1-0.3,1.8-0.7,2.6-1.1l0.2-7.4l-7.5,1.9c-0.7,0.2-1.1,0.4-1.4,0.8
		c-0.3,0.4-0.4,0.9-0.4,1.5c0,1.4,0.4,2.5,1.1,3.4c0.7,0.9,1.7,1.4,2.9,1.4C209.6,117.8,210.5,117.6,211.4,117.3z"/>
</g>
<g>
	<path d="M253.2,126.4c-1.8-0.4-3.5-0.9-5.2-1.5c-0.7-0.3-1.4-0.5-2.1-0.9l-0.8-1.3c0.1-0.4,0.2-1.2,0.4-2.4s0.4-2.9,0.6-4.8
		c0.2-2,0.4-3.9,0.4-5.6l7.7-0.5c0,3.6,0.6,6.1,1.8,7.4c1.2,1.3,3.1,2.1,6,2.1c1.7,0.1,3.4-0.4,4.9-1.3c1.2-0.8,1.9-2.1,1.8-3.5
		c0-1.5-0.8-3-2.2-3.9c-2.2-1.4-4.4-2.6-6.8-3.6l-1.2-0.5l-1-0.5c-3.2-1.4-6.2-3.4-8.8-5.7c-2.2-2.2-3.3-5.1-3.2-8.2
		c0-3,1-5.8,2.8-8.2c2.1-2.5,4.7-4.5,7.7-5.6c3.6-1.3,7.4-2.1,11.3-2c3.9,0,7.7,0.4,11.5,1.4c1.3,0.4,2,0.5,2.3,0.6l0.7,1.3
		c-0.1,0.3-0.2,1.1-0.4,2.2c-0.3,1.2-0.5,2.8-0.8,4.8c-0.3,2.1-0.5,4.1-0.7,6.2l-7.2,0.5l-0.8-0.6l0.1-2.1c0-2.1-0.5-3.5-1.6-4.5
		c-1.1-1-2.7-1.2-5-1.2c-1.6-0.1-3.2,0.4-4.6,1.3c-1.2,0.7-1.8,2-1.8,3.3c0,1.2,0.4,2.2,1.3,3c0.9,0.9,2,1.6,3,2.2
		c1.2,0.6,3,1.5,5.6,2.7c2.3,1,4.7,2.2,6.9,3.5c1.8,1.1,3.4,2.6,4.7,4.4c1.3,1.9,2,4.1,1.9,6.5c0.1,3-0.9,5.9-2.8,8.3
		c-2.1,2.5-4.8,4.4-7.8,5.5c-3.9,1.3-7.8,2-11.9,1.9C257.6,127.2,255.4,127,253.2,126.4z"/>
	<path d="M290.2,122.4c-3.1-3.2-4.8-7.6-4.8-13.3c-0.1-3.5,0.7-6.9,2.3-10c1.5-2.9,3.9-5.3,6.6-6.9c3-1.7,6.3-2.5,9.7-2.5
		c9.1,0,13.6,4.7,13.6,14c0,1.6-0.2,3.1-0.5,4.7l-0.9,0.8h-19.1c0.1,3,0.9,5.4,2.5,7c1.7,1.7,4,2.5,6.4,2.4c3.1-0.1,6.2-0.9,9-2.2
		l0.7,0.3l1.3,4.6c-2.2,1.6-4.4,3-6.8,4c-2.2,1.1-4.6,1.7-7,1.8C297.7,127.2,293.3,125.6,290.2,122.4z M305.8,103.7
		c0.4,0,0.7-0.2,1-0.4c0.2-0.4,0.3-0.8,0.3-1.2c0-3.6-1.3-5.4-4.1-5.4c-3.7,0-5.6,2.5-5.7,7.5L305.8,103.7z"/>
	<path d="M346.4,119.8c0.5-0.8,0.8-1.7,0.8-2.7l0.3-12.1c0-2.2-0.4-3.7-1.1-4.7c-0.8-1-2-1.5-3.2-1.4c-1.4,0-3.2,0.8-5.3,2.4
		c-0.5,9.5-0.8,14.9-0.8,16.3c-0.1,0.8,0.1,1.6,0.4,2.4c0.4,0.4,1.1,0.7,1.6,0.6l1.7-0.1l0.3,0.4l-0.8,5.6c-0.6-0.1-1.8-0.1-3.5-0.2
		s-3.4-0.1-5.2-0.1s-3.8,0-5.8,0.1s-3.4,0.1-4,0.2l0.8-5.6c1.2,0,2.2-0.4,3.1-1.1c0.6-0.9,1-2,0.8-3V102c0-1.8-0.3-3-0.8-3.6
		c-0.5-0.6-1.5-0.9-3-0.9h-1.2l-0.4-0.4l0.5-4.8c3.2-0.4,6.5-1,9.7-1.5l6.2-1.1l0.8,0.8c-0.2,0.7-0.4,1.4-0.4,2.1
		c-0.2,1.1-0.4,2.2-0.4,3.2l0.3,0.3c1.7-1.5,3.6-3,5.5-4.4c1.9-1.3,3.2-2.1,3.9-2.1c6.3,0,10,2.2,11.4,6.5c1.7-1.6,3.6-3,5.5-4.4
		c2-1.4,3.3-2.2,4-2.2c3.9,0,6.9,0.9,9,2.6c2.2,1.9,3.2,4.6,3.1,7.3c0,1-0.3,3.8-0.8,8.5c-0.5,5.1-0.8,8.2-0.8,9.5
		c-0.1,0.9,0.1,1.8,0.5,2.5c0.4,0.5,1.1,0.8,1.8,0.7l2.2-0.1l0.2,0.3l-0.8,5.6c-0.6-0.1-1.9-0.1-3.7-0.2c-1.8-0.1-3.6-0.1-5.4-0.1
		s-3.4,0-5.1,0.1s-2.9,0.1-3.5,0.2l0.5-5.6c0.8,0,1.6-0.4,2.2-1c0.5-0.9,0.8-1.9,0.7-2.9l0.3-12.1c0-2.2-0.4-3.7-1-4.7
		c-0.8-1-2.1-1.5-3.3-1.4c-1.3,0-3,0.7-5.2,2.2l-1,16.4c-0.1,0.9,0.1,1.7,0.4,2.5c0.4,0.5,1.1,0.8,1.7,0.7l1.9-0.1l0.2,0.3l-0.9,5.6
		c-0.6-0.1-1.8-0.1-3.5-0.2s-3.4-0.1-5.2-0.1c-1.3,0-2.9,0.1-4.8,0.2c-2,0.1-3.4,0.2-4,0.3l0.5-5.6
		C344.9,121,345.7,120.5,346.4,119.8z"/>
	<path d="M408.4,125.7c-1.4-1-2.2-2.6-2.3-4.3l-0.8-0.3c-1.4,1.4-3,2.9-4.8,4c-1.5,1.2-2.8,1.7-3.8,1.7c-2,0-3.9-0.5-5.5-1.6
		c-1.7-1.1-3-2.6-3.9-4.3c-1-1.9-1.4-3.9-1.4-6.1c0-1.5,0.4-3,1.3-4.2c0.8-1.2,2-2,3.4-2.2l14.9-3.1v-1.1c0.1-1.7-0.5-3.4-1.7-4.7
		c-1.3-1.2-3-1.8-4.8-1.6c-1.5,0.1-3,0.4-4.5,1.1c-1.6,0.6-3,1.4-4.5,2.4l-0.8-0.4l-1.6-5.3c2.8-1.5,5.6-3,8.6-4.2
		c2.9-1.3,5-1.9,6.3-1.9c4.8,0,8.3,1,10.6,3c2.2,2,3.4,4.8,3.3,7.7c0,0.7-0.3,3-0.8,7.1c-0.1,0.6-0.2,1.9-0.4,3.8
		c-0.2,1.3-0.4,2.7-0.4,3.9c0,0.8,0.2,1.5,0.7,2.1c0.4,0.5,1.2,0.8,1.8,0.8c1.2-0.1,2.2-0.4,3.2-1l1.3,1.8c-1.1,2-2.3,3.8-3.8,5.4
		c-1.4,1.7-2.9,2.7-4,3C412,127.3,410.1,126.8,408.4,125.7z M402.8,118c0.8-0.3,1.6-0.6,2.4-1.1l0.2-6.9l-7,1.8
		c-0.5,0.1-1,0.4-1.3,0.7c-0.3,0.4-0.4,0.9-0.4,1.4c0,1.2,0.4,2.2,1.1,3.2c0.6,0.8,1.6,1.3,2.7,1.3C401.2,118.5,402,118.3,402.8,118
		z"/>
	<path d="M424.3,121.3c1.3-0.1,2.4-0.6,3.3-1.4c0.8-0.9,1.2-2.1,1.1-3.2v-15.1c0.1-1.2-0.2-2.4-0.7-3.4c-0.7-0.7-1.7-1-2.7-0.9
		c-0.4,0-0.7,0-1.1,0.1c-0.3,0-0.4,0.1-0.7,0.2l0.5-5.3c3.3-0.4,6.6-0.9,9.9-1.5s5.5-1,6.5-1.2l0.8,1.4c-0.5,1.2-1,4.1-1.3,8.9
		s-0.5,10.8-0.5,17.9c-0.1,0.8,0.1,1.5,0.4,2.2c0.4,0.4,1.1,0.7,1.7,0.6c0.4,0,0.8,0,1.3-0.1c0.3,0,0.6-0.1,0.9-0.1l0.2,0.3
		l-0.8,5.6c-0.6-0.1-1.9-0.1-3.7-0.2c-1.8-0.1-3.7-0.1-5.6-0.1s-3.9,0.1-5.8,0.4c-2.2,0.3-3.6,0.4-4.3,0.5L424.3,121.3z M428.7,82.8
		c-1.2-1.3-1.7-2.9-1.6-4.6c-0.1-1.9,0.6-3.7,1.9-5c1.3-1.3,3.1-2,4.9-1.9c1.7-0.1,3.3,0.5,4.5,1.7c1.1,1.3,1.7,3,1.6,4.6
		c0.1,1.9-0.5,3.7-1.8,5c-1.3,1.3-3,2-4.9,1.9C431.6,84.5,430,84,428.7,82.8L428.7,82.8z"/>
	<path d="M471.5,119.8c0.5-0.8,0.8-1.7,0.8-2.7l0.2-12.1c0-2.2-0.3-3.7-1-4.7c-0.8-1-2-1.5-3.2-1.4c-1.4,0-3.2,0.8-5.3,2.3l-0.3,4.8
		c-0.4,6.6-0.6,10.6-0.6,11.7c-0.1,0.8,0.1,1.6,0.4,2.3c0.4,0.4,1.1,0.7,1.7,0.6l1.7-0.1l0.2,0.4l-0.8,5.6c-0.6-0.1-1.8-0.1-3.5-0.2
		s-3.4-0.1-5.1-0.1s-3.8,0-5.8,0.2c-2.1,0.2-3.4,0.2-4,0.2l0.8-5.6c1.9,0.3,3.7-1,3.9-2.9c0.1-0.4,0.1-0.8,0-1.3V102
		c0-1.8-0.3-3-0.7-3.6c-0.4-0.6-1.4-0.9-3-0.9h-1.2l-0.3-0.4l0.5-4.8c3.2-0.4,6.5-1,9.6-1.5l6.2-1.1l0.8,0.8c-0.1,0.3-0.3,1-0.4,2.1
		c-0.2,1.1-0.4,2.2-0.4,3.2l0.4,0.3c1.7-1.6,3.4-3,5.3-4.5c1.8-1.3,3.1-2.1,3.9-2.1c3.9,0,6.9,0.9,9,2.6c2.2,1.9,3.2,4.6,3.1,7.3
		c0,1.4-0.3,4.3-0.7,8.5c-0.5,5.1-0.8,8.2-0.8,9.5c-0.1,0.9,0.1,1.7,0.5,2.5c0.4,0.5,1.1,0.8,1.7,0.7l2.2-0.1l0.2,0.3l-0.8,5.6
		c-0.6-0.1-1.9-0.1-3.7-0.2s-3.6-0.1-5.3-0.1c-1.3,0-2.9,0.1-4.9,0.2s-3.4,0.2-4,0.3l0.5-5.6C470.1,121,470.9,120.5,471.5,119.8z"/>
	<path d="M495,122.4c-3.1-3.2-4.8-7.6-4.8-13.3c-0.1-3.5,0.7-6.9,2.3-10c1.5-2.9,3.9-5.3,6.6-6.9c3-1.7,6.3-2.5,9.7-2.5
		c9.1,0,13.6,4.7,13.6,14c0,1.6-0.2,3.1-0.5,4.7l-0.9,0.8H502c0.1,3,0.9,5.4,2.5,7c1.7,1.7,4,2.5,6.4,2.4c3.1-0.1,6.2-0.9,9-2.2
		l0.7,0.3l1.3,4.6c-2.2,1.6-4.4,3-6.8,4c-2.2,1.1-4.6,1.7-7,1.8C502.5,127.2,498.1,125.6,495,122.4z M510.6,103.7
		c0.4,0,0.7-0.2,1-0.4c0.2-0.4,0.3-0.8,0.3-1.2c0-3.6-1.3-5.4-4.1-5.4c-3.7,0-5.6,2.5-5.7,7.5L510.6,103.7z"/>
	<path d="M564.5,125.7c-1.3-0.9-2.2-2.4-2.4-4.1l-0.5-0.3c-4.8,3.7-7.6,5.5-8.5,5.5c-4.5,0-8.1-1.5-10.7-4.6
		c-2.6-3-3.9-7.3-3.9-12.5c-0.1-3.6,0.8-7.2,2.4-10.4c1.6-3,3.9-5.4,6.8-7c3.1-1.7,6.6-2.5,10.1-2.4c1.4,0,2.5,0,3.1,0.1v-8.3
		c0.1-1.2-0.1-2.4-0.7-3.4c-0.4-0.6-1.3-0.9-2.7-0.9c-0.4,0-0.7,0-1.1,0.1c-0.3,0-0.5,0.1-0.8,0.1l0.6-5.5c3.4-0.4,6.9-0.9,10.4-1.5
		c3.5-0.6,5.7-1,6.8-1.2l0.8,1.4c-0.7,1-1.3,5.7-1.8,14.3c-0.4,8.5-0.7,18.5-0.7,30c0,0.7,0.2,1.5,0.5,2.1c0.4,0.5,1,0.8,1.6,0.8
		s1.3-0.2,1.9-0.4c0.4-0.2,0.7-0.4,1.1-0.5l1.3,1.8c-0.4,0.7-0.8,1.4-1.3,2.1c-0.9,1.3-2,2.6-3,3.8c-1.1,1.2-2.4,2.1-3.9,2.6
		C568.1,127.3,566.1,126.8,564.5,125.7z M558.7,118.2c0.5-0.2,1.2-0.4,1.6-0.8c0.3-0.2,0.5-0.4,0.8-0.5V98.4l-0.8-0.4
		c-0.5-0.2-1.1-0.4-1.6-0.5c-0.7-0.2-1.5-0.3-2.2-0.2c-1.8,0-3.5,0.9-4.5,2.4c-1.1,1.6-1.6,4-1.6,7.1c0,3.8,0.5,6.7,1.6,8.8
		c1.1,2.1,2.7,3,4.7,3C557.4,118.6,558,118.5,558.7,118.2z"/>
	<path d="M584.3,122.4c-3.1-3.2-4.8-7.6-4.8-13.3c-0.1-3.5,0.7-6.9,2.4-10c1.5-2.9,3.9-5.3,6.6-6.9c3-1.7,6.3-2.5,9.7-2.5
		c9.1,0,13.6,4.7,13.6,14c0,1.6-0.2,3.1-0.5,4.7l-0.9,0.8h-19.1c0.1,3,0.9,5.4,2.5,7c1.7,1.7,4,2.5,6.4,2.4c3.1-0.1,6.2-0.9,9-2.2
		l0.7,0.3l1.3,4.6c-2.2,1.6-4.4,3-6.8,4c-2.2,1.1-4.6,1.7-7,1.8C591.9,127.2,587.5,125.6,584.3,122.4z M599.9,103.7
		c0.4,0,0.7-0.2,1-0.4c0.2-0.4,0.3-0.8,0.3-1.2c0-3.6-1.3-5.4-4.1-5.4c-3.7,0-5.6,2.5-5.7,7.5L599.9,103.7z"/>
	<path d="M627.7,121.3c1.5-0.3,2.4-0.8,2.9-1.5c0.5-1.2,0.7-2.5,0.6-3.8V81.5c0.1-1-0.1-2-0.4-3c-0.3-0.6-0.7-1-1.3-1.2
		c-1.2-0.2-2.3-0.3-3.5-0.2l-0.4-0.4l0.5-4.8c6.8-0.9,12.7-1.7,17.7-2.6l0.6,1.7c-1.7,4.5-2.5,20.1-2.5,46.8
		c-0.1,0.8,0.1,1.6,0.4,2.3c0.4,0.4,1,0.7,1.5,0.6l2.5-0.1l0.2,0.4l-0.8,5.3c-4.4-0.2-7.6-0.3-9.8-0.3c-2.3,0-5.4,0.2-9.1,0.5
		L627.7,121.3z"/>
	<path d="M671.3,125.7c-1.4-1-2.2-2.6-2.4-4.3l-0.8-0.3c-1.4,1.5-3,2.9-4.8,4c-1.5,1.2-2.8,1.7-3.8,1.7c-2,0-3.9-0.5-5.5-1.6
		c-1.7-1.1-3-2.6-3.9-4.3c-1-1.9-1.4-3.9-1.4-6.1c0-1.5,0.4-3,1.3-4.2c0.8-1.2,2-2,3.4-2.2l14.9-3.1v-1.1c0.1-1.7-0.5-3.4-1.7-4.7
		c-1.3-1.2-3-1.8-4.8-1.6c-1.5,0-3,0.4-4.5,1.1c-1.6,0.6-3,1.4-4.5,2.4l-0.8-0.4l-1.6-5.3c2.8-1.5,5.6-3,8.6-4.2
		c3-1.3,5-1.9,6.3-1.9c4.8,0,8.2,1,10.6,3c2.2,2,3.4,4.8,3.3,7.7c0,0.7-0.3,3-0.7,7.1c-0.1,0.6-0.2,1.9-0.4,3.8
		c-0.2,1.3-0.4,2.7-0.4,3.9c0,0.8,0.2,1.5,0.7,2.1c0.4,0.5,1.2,0.8,1.9,0.8c1.2-0.1,2.2-0.4,3.2-1l1.3,1.8c-1.1,1.9-2.3,3.8-3.8,5.4
		c-1.5,1.7-2.9,2.7-4,3C674.9,127.3,672.9,126.8,671.3,125.7z M665.6,118c0.8-0.3,1.6-0.6,2.4-1.1l0.2-6.9l-7,1.8
		c-1.1,0.1-1.8,1.1-1.7,2.1c0,0,0,0,0,0.1c0,1.2,0.4,2.2,1.1,3.2c0.6,0.8,1.6,1.3,2.7,1.3C664,118.5,664.8,118.3,665.6,118z"/>
	<path class="st2" d="M700.1,121c2-0.4,3.3-1,4-1.9c0.7-0.9,1.1-2.4,1.1-4.6l0.1-27.8c0.1-1.1-0.1-2.2-0.5-3.2
		c-0.4-0.6-1.1-1-1.8-0.9c-0.5,0-1.1,0-1.6,0.1c-0.5,0.1-0.8,0.1-1,0.1l-0.6-0.7l0.7-5.2l10.2,0.1c2.2,0,4.6-0.1,7.2-0.2
		s4.4-0.2,5.4-0.2c7.2,0,12.3,1.5,15.1,4.5c2.9,2.9,4.4,6.7,4.3,10.8c0,3.1-0.9,6.1-2.6,8.7c-1.7,2.7-4.1,4.9-6.9,6.5
		c-2.8,1.6-6,2.4-9.1,2.4h-6.5l-0.1,4.8c0,1.3,0.1,2.6,0.3,3.9c0.1,0.7,0.4,1.3,1.1,1.8c0.7,0.4,1.5,0.5,2.3,0.5
		c0.6,0,1.3,0,1.9-0.1c0.6-0.1,1-0.1,1.2-0.1l0.3,0.5l-0.7,5.6c-0.9-0.1-2.4-0.1-4.6-0.2c-2.2-0.1-4.3-0.1-6.2-0.1
		c-1.7,0-4,0.1-7.2,0.3c-3.1,0.2-5.2,0.4-6.3,0.4L700.1,121z M729.7,92.7c0-2.9-0.8-5-2.4-6.4c-1.6-1.3-4.1-2-7.5-2
		c-0.4,0-0.9,0.1-1.3,0.3c-0.2,0.4-0.4,0.8-0.3,1.3c-0.3,4.6-0.5,9.9-0.7,15.8l6.1,0.8C727.8,101.4,729.7,98.1,729.7,92.7z"/>
	<path class="st2" d="M747.1,122.3c-3-3.2-4.6-7.5-4.6-12.9c-0.1-3.6,0.7-7.3,2.3-10.5c1.4-2.9,3.8-5.3,6.5-6.9
		c3-1.6,6.5-2.5,9.9-2.4c5.3,0,9.4,1.5,12.4,4.7c3,3.1,4.5,7.4,4.5,13.1c0.1,3.6-0.7,7.2-2.3,10.5c-1.4,2.9-3.8,5.3-6.5,6.9
		c-3,1.6-6.5,2.5-9.9,2.4C754.2,127.2,750.2,125.6,747.1,122.3z M764.7,118.2c0.8-1.4,1.3-3.8,1.3-7c0-4.8-0.5-8.4-1.5-10.6
		c-1-2.2-2.5-3.3-4.6-3.3c-1.6-0.1-3.2,0.7-4,2.2c-0.8,1.4-1.3,3.7-1.3,6.8c0,4.9,0.5,8.5,1.5,10.8c1,2.2,2.5,3.3,4.6,3.3
		C762.3,120.4,763.8,119.6,764.7,118.2L764.7,118.2z"/>
	<path class="st2" d="M785,98.1c-0.4-0.5-1.1-0.8-1.8-0.8c-0.4,0-0.8,0-1.3,0.1c-0.3,0-0.4,0.1-0.7,0.1l0.5-5.3
		c3-0.4,6.1-0.9,9.2-1.4s5.2-1,6.1-1.2l0.8,1.4c-0.5,1.3-1.1,3.9-1.4,8c-0.4,4.1-0.6,8.4-0.6,13.1c0,3.8,1.3,5.6,4.1,5.6
		c0.8,0,1.6-0.2,2.4-0.5c1-0.4,2-1,2.9-1.6v-14.6c0.1-1-0.1-2-0.5-2.8c-0.7-0.5-1.6-0.8-2.5-0.7h-1.1l0.7-5.2c3-0.4,6.1-0.8,9.3-1.3
		l6.2-1.1l0.9,1.4c-0.6,1.2-1.3,4-1.6,8.6c-0.4,4.6-0.6,9.6-0.6,15.2c0,0.8,0.2,1.5,0.7,2.1c0.4,0.5,1.2,0.8,1.8,0.8
		c0.7,0,1.4-0.2,2.1-0.4c0.4-0.1,0.7-0.4,1.1-0.5l1.3,1.8c-0.2,0.4-0.7,1.2-1.6,2.3c-1,1.3-2.1,2.5-3.2,3.6
		c-1.1,1.1-2.3,1.9-3.8,2.4c-4.9,0-7.6-1.9-8.2-5.7l-0.7-0.4c-1.5,1.6-3,3-4.8,4.4c-1.3,1.1-2.3,1.6-2.9,1.6c-4.2,0-7.3-0.9-9.6-2.6
		c-2.2-1.7-3.2-4.2-3.2-7.3l0.5-16.3C785.7,99.9,785.5,98.9,785,98.1z"/>
	<path class="st2" d="M827.3,117.7v-16.1c0-1.7-0.3-2.8-0.8-3.4c-0.5-0.6-1.6-0.9-3.2-0.9l-0.9-0.6l0.5-4.5c2.2-1.1,4.4-2.2,6.5-3.5
		c2.2-1.3,3.9-2.5,5.4-3.4c1.4-0.9,2.3-1.6,2.7-1.9l2.4,1.3c0,0.3-0.2,1.1-0.4,2.4c-0.2,1.3-0.4,2.9-0.6,4.8l7.9-0.2l0.4,0.4
		l-0.8,5.8l-8-0.3c-0.3,4.6-0.4,9.7-0.4,15.3c-0.1,1.5,0.3,3,1.1,4.3c0.8,1,2.1,1.5,3.3,1.3c0.9,0,1.7-0.2,2.5-0.4
		c0.9-0.3,1.4-0.4,1.7-0.5l1.1,2.8c-0.4,0.4-1.2,1.1-2.3,2.2c-1.3,1.1-2.5,2.2-3.9,3.1c-0.9,0.8-2.1,1.3-3.3,1.5
		C831,127.2,827.3,124,827.3,117.7z"/>
	<path class="st2" d="M850.3,121.3c1.3-0.1,2.4-0.6,3.3-1.4c0.8-0.9,1.2-2.1,1.1-3.2v-15.1c0.1-1.2-0.2-2.4-0.7-3.4
		c-0.7-0.7-1.7-1-2.7-0.9c-0.4,0-0.7,0-1.1,0.1c-0.3,0-0.4,0.1-0.7,0.2l0.5-5.3c3.3-0.4,6.6-0.9,9.9-1.5c3.3-0.6,5.5-1,6.5-1.2
		l0.8,1.4c-0.5,1.2-1,4.1-1.3,8.9c-0.4,4.8-0.5,10.8-0.5,17.9c-0.1,0.8,0.1,1.5,0.4,2.2c0.4,0.4,1.1,0.7,1.7,0.6
		c0.4,0,0.8,0,1.3-0.1c0.3,0,0.6-0.1,0.9-0.1l0.2,0.3l-0.7,5.6c-0.6-0.1-1.9-0.1-3.8-0.2s-3.7-0.1-5.6-0.1c-2,0-3.9,0.1-5.8,0.4
		c-2.2,0.3-3.6,0.4-4.3,0.5L850.3,121.3z M854.8,82.8c-1.2-1.3-1.7-2.9-1.6-4.6c-0.1-1.9,0.6-3.7,1.9-5c1.3-1.3,3.1-2,4.9-1.9
		c1.7-0.1,3.3,0.5,4.5,1.7c1.1,1.3,1.7,3,1.6,4.6c0.1,1.9-0.5,3.7-1.8,5c-1.3,1.3-3.1,2-4.9,1.9C857.6,84.5,855.9,84,854.8,82.8
		L854.8,82.8z"/>
	<path class="st2" d="M897.5,119.8c0.5-0.8,0.8-1.7,0.8-2.7l0.2-12.1c0-2.2-0.3-3.7-1-4.7c-0.8-1-2-1.5-3.2-1.4
		c-1.4,0-3.2,0.7-5.3,2.3l-0.3,4.8c-0.4,6.6-0.6,10.6-0.6,11.7c-0.1,0.8,0.1,1.6,0.4,2.3c0.4,0.4,1.1,0.7,1.7,0.6l1.7-0.1l0.2,0.4
		l-0.8,5.6c-0.6-0.1-1.8-0.1-3.4-0.2s-3.4-0.1-5.1-0.1s-3.8,0-5.8,0.2c-2.1,0.2-3.4,0.2-4,0.2l0.8-5.6c1.9,0.3,3.7-1,3.9-2.9
		c0.1-0.4,0.1-0.8,0-1.3V102c0-1.8-0.3-3-0.7-3.6c-0.4-0.6-1.4-0.9-3-0.9h-1.2l-0.3-0.4l0.5-4.8c3.2-0.4,6.5-1,9.6-1.5l6.2-1.1
		l0.8,0.8c-0.1,0.3-0.3,1-0.4,2.1s-0.4,2.2-0.4,3.2l0.4,0.3c1.7-1.6,3.4-3,5.3-4.5c1.9-1.3,3.1-2.1,3.9-2.1c3.9,0,6.9,0.9,9,2.6
		c2.2,1.9,3.2,4.6,3.1,7.3c0,1.4-0.3,4.3-0.7,8.5c-0.5,5.1-0.8,8.2-0.8,9.5c-0.1,0.9,0.1,1.7,0.5,2.5c0.4,0.5,1.1,0.8,1.7,0.7
		l2.2-0.1l0.2,0.3l-0.8,5.6c-0.6-0.1-1.9-0.1-3.7-0.2s-3.6-0.1-5.3-0.1c-1.3,0-2.9,0.1-4.9,0.2c-2.1,0.1-3.4,0.2-4,0.3l0.5-5.6
		C896.1,121,896.9,120.5,897.5,119.8z"/>
	<path class="st2" d="M921,122.4c-3.1-3.2-4.8-7.6-4.8-13.3c-0.1-3.5,0.7-6.9,2.4-10c1.5-2.9,3.9-5.3,6.6-6.9c3-1.7,6.3-2.5,9.7-2.5
		c9.1,0,13.6,4.7,13.6,14c0,1.6-0.2,3.1-0.5,4.7l-0.9,0.8h-19.1c0.1,3,0.9,5.4,2.5,7c1.7,1.7,4,2.5,6.4,2.4c3.1-0.1,6.2-0.9,9-2.2
		l0.7,0.3l1.3,4.6c-2.2,1.6-4.4,3-6.8,4c-2.2,1.1-4.6,1.7-7,1.8C928.5,127.2,924.1,125.6,921,122.4z M936.6,103.7
		c0.4,0,0.7-0.2,1-0.4c0.2-0.4,0.3-0.8,0.3-1.2c0-3.6-1.3-5.4-4.1-5.4c-3.6,0-5.6,2.5-5.7,7.5L936.6,103.7z"/>
</g>
</svg>
