<svg xmlns="http://www.w3.org/2000/svg" viewBox="0 0 600 718.47"><defs><style>.cls-1{fill:#cf3339;}.cls-2{fill:#fff;}.cls-3{fill:#009ade;}</style></defs><title>logo-footer-fr</title><g id="Layer_2" data-name="Layer 2"><g id="extras"><path class="cls-1" d="M465.63,85.48l-2.86,8.3h0l-2.94-8.3H457.2v10.6H459V87.89h0l3,8.19h1.53l2.94-8.19h0v8.19h1.78V85.48Z"/><path class="cls-1" d="M479.27,88.71a4.79,4.79,0,0,0-.85-1.67A3.73,3.73,0,0,0,477,85.9a4.81,4.81,0,0,0-2.12-.42h-4.39v10.6h4.39a4.81,4.81,0,0,0,2.12-.42,3.92,3.92,0,0,0,1.45-1.14,4.84,4.84,0,0,0,.85-1.68,7.58,7.58,0,0,0,.27-2A7.75,7.75,0,0,0,479.27,88.71Zm-1.73,3.56a2.86,2.86,0,0,1-.54,1.2,2.62,2.62,0,0,1-1.08.8,4.69,4.69,0,0,1-1.78.29h-1.83V87h1.83a4.69,4.69,0,0,1,1.78.29,2.6,2.6,0,0,1,1.08.79,3,3,0,0,1,.54,1.2,7.87,7.87,0,0,1,.13,1.51A7.62,7.62,0,0,1,477.54,92.27Z"/><path class="cls-1" d="M484,85.23l-4.28,11.1h1.62l4.28-11.1Z"/><path class="cls-1" d="M492.13,91.24a2,2,0,0,0,1.15-.45,1.53,1.53,0,0,0,.46-1.22,1.58,1.58,0,0,0-.58-1.35,2.87,2.87,0,0,0-1.68-.4h-2.32V94h1V91.32h.95L492.71,94h1.14Zm-.84-.78h-1.12V88.67h1.22a3.94,3.94,0,0,1,.46,0,1.37,1.37,0,0,1,.42.12.66.66,0,0,1,.32.25.61.61,0,0,1,.13.43,1,1,0,0,1-.11.54.84.84,0,0,1-.32.28,1,1,0,0,1-.46.13A4.7,4.7,0,0,1,491.29,90.46Zm.84.78a2,2,0,0,0,1.15-.45,1.53,1.53,0,0,0,.46-1.22,1.58,1.58,0,0,0-.58-1.35,2.87,2.87,0,0,0-1.68-.4h-2.32V94h1V91.32h.95L492.71,94h1.14Zm-.84-.78h-1.12V88.67h1.22a3.94,3.94,0,0,1,.46,0,1.37,1.37,0,0,1,.42.12.66.66,0,0,1,.32.25.61.61,0,0,1,.13.43,1,1,0,0,1-.11.54.84.84,0,0,1-.32.28,1,1,0,0,1-.46.13A4.7,4.7,0,0,1,491.29,90.46Zm5-2a5.35,5.35,0,0,0-1.2-1.75,5.53,5.53,0,0,0-1.74-1.12,5.34,5.34,0,0,0-2.07-.4,5.53,5.53,0,0,0-2.1.4,5.77,5.77,0,0,0-1.74,1.12,5.68,5.68,0,0,0-1.2,1.75,6,6,0,0,0,0,4.48,5.42,5.42,0,0,0,1.13,1.77,5.06,5.06,0,0,0,1.73,1.16,5.6,5.6,0,0,0,2.2.42,5.53,5.53,0,0,0,2.07-.4,5.39,5.39,0,0,0,1.74-1.13,5.15,5.15,0,0,0,1.2-1.75,5.73,5.73,0,0,0,.44-2.26A5.84,5.84,0,0,0,496.27,88.5Zm-1.08,4.13a4.19,4.19,0,0,1-.9,1.45,4.13,4.13,0,0,1-1.36,1,4,4,0,0,1-1.67.33,4.11,4.11,0,0,1-1.78-.37,3.78,3.78,0,0,1-1.35-1,4.41,4.41,0,0,1-.86-1.44,5.39,5.39,0,0,1-.29-1.77,4.9,4.9,0,0,1,.33-1.87,4.12,4.12,0,0,1,.89-1.44,4.07,4.07,0,0,1,3.06-1.28,4.16,4.16,0,0,1,3.93,2.72,5.1,5.1,0,0,1,.32,1.87A5,5,0,0,1,495.19,92.63Zm-1.91-1.84a1.53,1.53,0,0,0,.46-1.22,1.58,1.58,0,0,0-.58-1.35,2.87,2.87,0,0,0-1.68-.4h-2.32V94h1V91.32h.95L492.71,94h1.14l-1.72-2.71A2,2,0,0,0,493.28,90.79Zm-2-.33h-1.12V88.67h1.22a3.94,3.94,0,0,1,.46,0,1.37,1.37,0,0,1,.42.12.66.66,0,0,1,.32.25.61.61,0,0,1,.13.43,1,1,0,0,1-.11.54.84.84,0,0,1-.32.28,1,1,0,0,1-.46.13A4.7,4.7,0,0,1,491.29,90.46Z"/><path class="cls-1" d="M115.05,62.34a8.52,8.52,0,0,1,6.26,3.06,11.09,11.09,0,0,1,2.89,5.13,9.74,9.74,0,0,1-.38,5.56,13.76,13.76,0,0,1-3.62,5.28l-2.08,2,.06.07,6.47,6.44L120.23,94l-5.68-6.45L100.41,73.13l8-7.65Q111.71,62.37,115.05,62.34Zm2,7.8a4.76,4.76,0,0,0-3.38-1.76,5.54,5.54,0,0,0-3.62,1.68L108,72.28l7,7.66,3.12-2.71Q120.32,73.56,117.1,70.14Z"/><path class="cls-1" d="M135.12,54.6,138.36,59l-.37.55a4.39,4.39,0,0,0-1.53.73c-1.4,1-2,2.85-1.82,5.48l1.67,2.28L142,75.3l-4.81,3.52-4.78-7.15-7.19-9.37,4.27-3.73,2.37,3.31.29-.21q-.6-4.55,2-6.48A8.25,8.25,0,0,1,135.12,54.6Z"/><path class="cls-1" d="M158.25,53.62l-10.38,6.22q3.18,4.6,7.74,1.93a15,15,0,0,0,4.54-4.49l.58,0,1.47,4.27a18.42,18.42,0,0,1-4.89,4.33,10.29,10.29,0,0,1-8.11,1.46,10.82,10.82,0,0,1-6.43-5.4,11.17,11.17,0,0,1-1.67-8.24A9.64,9.64,0,0,1,146,47.45a8.35,8.35,0,0,1,6.41-1.26,8.23,8.23,0,0,1,4.95,4.12,19.62,19.62,0,0,1,1.12,2.35Zm-5.72-1.25a4,4,0,0,0-2.07-1.92,3,3,0,0,0-2.51.41A4.05,4.05,0,0,0,146,53.33a6,6,0,0,0,.32,3.62l6.44-4Z"/><path class="cls-1" d="M170,36.38l1.15,4.31-.55.51a11.92,11.92,0,0,0-2.91-.06,7.23,7.23,0,0,0-2.26.57A2.47,2.47,0,0,0,164.1,43a1.81,1.81,0,0,0,1.42,2.52,13.86,13.86,0,0,0,2.92.05,23.79,23.79,0,0,1,3.27,0,6.32,6.32,0,0,1,2.6.82,5.07,5.07,0,0,1,2,2.3,6.42,6.42,0,0,1,.59,3.4,6.66,6.66,0,0,1-1.46,3.47,10.18,10.18,0,0,1-3.76,2.84A18.37,18.37,0,0,1,165.06,60l-1.38-4.49.38-.57a11.63,11.63,0,0,0,3.59.35,8,8,0,0,0,3-.65,2.71,2.71,0,0,0,1.44-1.36,1.87,1.87,0,0,0,0-1.6,1.82,1.82,0,0,0-1.4-1,14,14,0,0,0-2.93,0c-1.33,0-2.45,0-3.33,0a5.79,5.79,0,0,1-2.6-.83,5.16,5.16,0,0,1-2-2.35,5.94,5.94,0,0,1-.05-5.25,8.93,8.93,0,0,1,4.6-4.22A15.93,15.93,0,0,1,170,36.38Z"/><path class="cls-1" d="M193.83,38.28l-11.29,4.37q2.36,5.09,7.31,3.22a15.16,15.16,0,0,0,5.23-3.66l.57.12.73,4.46a18.79,18.79,0,0,1-5.55,3.44,10.36,10.36,0,0,1-8.25.06q-3.63-1.68-5.42-6.41a11.15,11.15,0,0,1-.26-8.39,9.62,9.62,0,0,1,5.88-5.36,8.31,8.31,0,0,1,6.53-.16,8.17,8.17,0,0,1,4.18,4.9,18.12,18.12,0,0,1,.71,2.5Zm-5.44-2.2a4,4,0,0,0-1.71-2.24,3,3,0,0,0-2.55,0,4.05,4.05,0,0,0-2.32,2.1,6,6,0,0,0-.3,3.63l7-2.85Z"/><path class="cls-1" d="M210.18,29.91a3.56,3.56,0,0,0-1.34-2.16,2.67,2.67,0,0,0-2.29-.25,7,7,0,0,0-3.61,3l1.43,5,2.79,8.74-5.73,1.64-2.07-8.34-3.47-11.29,5.3-2,.84,2.92.3-.08a15.07,15.07,0,0,1,4.28-4.58,7.75,7.75,0,0,1,5.43,0,5.33,5.33,0,0,1,2.86,3.81l1.51,5.75,2.77,8.7-5.77,1.65Z"/><path class="cls-1" d="M233.92,32.35l.57.34.19,3.57a13.7,13.7,0,0,1-4.26,2.39q-6,.68-7.17-4.48l-.57-3.68L221,23l-2.72.59-.28-.25-.39-3.26,2.58-.56-.73-3.37,4.93-2.86.47.27.9,4.75L231,17.15l.24.27.43,3.25-5.21,1.13,1.87,9.85a3.1,3.1,0,0,0,.95,1.88,2.33,2.33,0,0,0,1.88.2A6.84,6.84,0,0,0,233.92,32.35Z"/><path class="cls-1" d="M252.4,24.71l-11.94,2q1.28,5.46,6.5,4.63a15,15,0,0,0,5.86-2.52l.54.23-.19,4.51A18.37,18.37,0,0,1,247,35.8,10.32,10.32,0,0,1,239,34.19c-2.15-1.59-3.48-4-4-7.38a11.17,11.17,0,0,1,1.46-8.27,9.6,9.6,0,0,1,6.84-4,8.34,8.34,0,0,1,6.43,1.17,8.18,8.18,0,0,1,3.1,5.64,19.09,19.09,0,0,1,.19,2.6Zm-4.88-3.25a4,4,0,0,0-1.22-2.55,3,3,0,0,0-2.49-.53,4,4,0,0,0-2.7,1.58,6,6,0,0,0-1,3.5l7.45-1.37Z"/><path class="cls-1" d="M274.88,22.94l.48,3.73a2,2,0,0,0,.3,1,.85.85,0,0,0,.76.22,5.2,5.2,0,0,0,1.19-.29l.44.32-.21,3.16a7.65,7.65,0,0,1-3.2,1.42,4.06,4.06,0,0,1-2.41-.72,4.21,4.21,0,0,1-1.49-2.06l-.36,0a17.9,17.9,0,0,1-4.18,3.48,8.54,8.54,0,0,1-7-2.15q-2.67-2.57-3.13-7.51-.48-5.25,2-8.32a10.34,10.34,0,0,1,7.42-3.51,17.26,17.26,0,0,1,2.88,0l-1-10,5.85-1ZM261.5,21.88a10.56,10.56,0,0,0,1.56,5.2,3.44,3.44,0,0,0,3.29,1.5,4.86,4.86,0,0,0,3.45-2.16L269.67,24l-.85-7.65a7.8,7.8,0,0,0-3.37-.49C262.47,16.09,261.16,18.11,261.5,21.88Z"/><path class="cls-1" d="M305.15,12.89q2.12,2.64,2.16,7.38c0,3.67-.85,6.5-2.66,8.5a9.77,9.77,0,0,1-7.55,3.05,14.68,14.68,0,0,1-5-1L289,32l-.73-.57.24-8.5L288,.5l5.92-.5-.05,13.55h.27a15.45,15.45,0,0,1,2.4-2,13.92,13.92,0,0,1,2.59-1.3A7.2,7.2,0,0,1,305.15,12.89Zm-4.6,13.39a8,8,0,0,0,1.21-4.93,8.87,8.87,0,0,0-1.06-4.69,3.34,3.34,0,0,0-3-1.58A5.85,5.85,0,0,0,293.82,17l0,5.1.14,5a7.16,7.16,0,0,0,3.15.78A4.22,4.22,0,0,0,300.55,26.28Z"/><path class="cls-1" d="M315,14l3.14,11.8.36,0,4.27-10.94.94-3.62,5.11.25-7.78,19a19.06,19.06,0,0,1-2.66,4.77,11,11,0,0,1-3.51,2.87A21.2,21.2,0,0,1,309.57,40l-.45-.07a12.18,12.18,0,0,1-2.33-3.61l.2-.57a15.85,15.85,0,0,0,4.73-1.22,11.33,11.33,0,0,0,3.65-2.84l-6.58-21,5.65,0Z"/><ellipse class="cls-1" cx="299.89" cy="155.44" rx="184.08" ry="102.91"/><path class="cls-2" d="M149.39,160.87c-2.57,9.71,1.32,18.31,13.7,18.31,6.94,0,13-4,14.41-9.86,1.54-6.5-2.09-10.34-6.36-14.67l-4-4.2c-5.28-5.37-9.31-10.22-7.37-18.26,2.73-11.54,14.94-18.75,28.71-18.75,7.3,0,13,2,17.51,6,9.13,9.19-2.18,15.06-4.69,14.51a2.47,2.47,0,0,1-.86-.27c2.4-7.44-.17-15.69-10.53-15.69-5.81,0-13,3.1-14.23,8.37-1.44,6,2.88,10.1,6.76,14l3.67,3.59c5.84,5.68,10.61,11,8.52,19.8-3,12.58-15.63,20-30.52,20-8.2,0-16.34-2.45-20.88-7.57C134.43,166,144.47,160.78,149.39,160.87Z"/><path class="cls-2" d="M312.38,148.17c-.56-6.39-4.89-11.07-14.12-11.07a24.58,24.58,0,0,0-17,6.83l-.23-.19,1.53-3.6a16,16,0,0,0-9.33-7.88l-30.35,67.57a17.1,17.1,0,0,0,9.84,8.45l14.42-31.88h.25c1.79,4.26,5.86,6.74,11.73,6.74,18.59,0,31.56-17.93,33.18-31.12A19.51,19.51,0,0,0,312.38,148.17Zm-14.46,1.05c-.94,7.46-10,28.23-21.56,28.23-4.6,0-5.95-3.52-5.57-6.76.8-6.32,9.46-27.9,20.87-27.9C296.39,142.79,298.34,145.79,297.92,149.22Z"/><path class="cls-2" d="M244.71,173.81c.19-1.64,2.11-5.88,3-7.65l13.22-28a19,19,0,0,0-13.33,0l-3.24,5.65c-1.78-4.37-5.86-6.75-11.87-6.75-18.45,0-33.58,17.66-35.22,31-1,8.09,3.28,15,14,15,8.72,0,16-5.1,20.57-10.91l.23.21a30.59,30.59,0,0,0-.84,3.75c-.5,3.81,2.48,6.95,7.32,6.95a19.77,19.77,0,0,0,8.53-2.1l1.87-4.13v0a5.2,5.2,0,0,1-2.29.61C244.88,177.47,244.55,175.07,244.71,173.81Zm-4.07-25.1c-.91,7.44-11.29,28.2-22.95,28.2-4.35,0-5.7-3.75-5.3-6.75.88-7.37,10.91-27.37,22.21-27.37C239.06,142.79,241,145.38,240.64,148.71Z"/><path class="cls-2" d="M362.57,156.67l7.77-15s-4.35-.3-6.94-.46c-1.89-.11-6.46-.56-6.46-.56l-3.74,6.71c-3.5,6.73-15,29.06-25.46,29.06-2.2,0-3.63-.85-3.4-2.72.28-2.28,8.79-18,8.79-18,1.82-3.41,4.52-8.59,4.94-12,.51-4.07-3-6.64-7.89-6.64-4.22,0-9.16,1.87-13.39,4.49a10.77,10.77,0,0,1,1.09,2.59,13.9,13.9,0,0,1,3.32-.88,1.75,1.75,0,0,1,1.9,2.19c-.19,1.66-7.89,17-7.89,17-1.84,3.53-4.67,8.81-5.12,12.46-.61,5.08,3.61,8.2,9.51,8.16,10.24,0,18.39-6.67,24.2-14.6l.23.22a27,27,0,0,0-1.87,6.82c-.47,4,2.16,7.56,7.41,7.56a21.86,21.86,0,0,0,12.87-4.72v0a6.34,6.34,0,0,1-.38-3.11c0-.15,0-.28,0-.42a7.92,7.92,0,0,1-3.76,1.59c-2,0-2.06-2-1.91-3.22C356.94,169.1,360.65,160.81,362.57,156.67Z"/><path class="cls-2" d="M440.37,137.57c-6.9-4.7-19-8.62-40.08-9.12l4.83-10.69a18.13,18.13,0,0,0-13.05,0l-5.19,10.85c-14,.63-30.55,4.36-60.75-1.7l-.8,1.32c16.83,6.95,42.57,8.43,57.71,8.43l-11,23.07c-1,2.15-2.28,4.93-3.37,7.71a23.11,23.11,0,0,0-2.41,7.82c-.55,4.64,3.63,8.05,9.39,8.05,6.66,0,12.25-3.88,16.52-7.84l0-.15a14.45,14.45,0,0,1-1.29-3,35.91,35.91,0,0,1-2.94,2.53,8.61,8.61,0,0,1-4.71,1.9c-2.43,0-2.67-1.71-2.5-3.27.38-2.87,3.3-9.1,4.69-12l11.54-25.6c11.54-1.16,26-2.76,33.58,1.83-11,.85-22,4.22-28.83,12.16a29,29,0,0,0-7.06,15.66,21.35,21.35,0,0,0,.14,5.35c1.45,7.46,8.24,12.47,18.89,12.47,17.89,0,33.55-14.11,35.27-28a15.84,15.84,0,0,0-3.13-12.62c5.95,2.29,10.46,5.94,11.62,7.83a14.12,14.12,0,0,0,7.31-7C462.2,141.07,452.11,138.14,440.37,137.57Zm-14.61,33.69c-8.45,11.74-21.92,12-17.13-4.7.72-2.65,6.87-24.13,25.2-25.79a10.41,10.41,0,0,1,1.64,3.94C436.79,151.28,431.69,163.25,425.76,171.26Z"/><polygon class="cls-3" points="332.48 251.54 325.04 226.21 277.52 233.52 290.65 259.87 332.48 251.54"/><path class="cls-3" d="M276.1,276.3l6.38,1.57,3.3-15.29-11.2-22.48-9.3,47.45,1,.9Z"/><path class="cls-3" d="M287.74,279.16l24.74,6.07,3.87,18.16c.76-.32,1.51-.63,2.24-.9L333.12,257l-42.41,8.44Z"/><polygon class="cls-3" points="230.33 207.79 182.7 197.92 178.8 222.22 221 232.76 230.33 207.79"/><path class="cls-3" d="M244.91,289.07c3.05.12,6.16.7,8.06-1.58a9.46,9.46,0,0,1,4.31-3.24l-23.17-69.86-8,21.3Z"/><path class="cls-3" d="M239.9,290l-18.21-51.8-42.78-10.68,12.4,27.5,28.6,9.16,4.35,38.21,2.45,21.58,4.54-1.17c0-.31,0-.62,0-.94.61-6.19,4.69-9.88,6.82-12.84a6.17,6.17,0,0,0,1.28-2.68c.42-3.52-4.06-6.83-2.69-11.56C237.43,292.2,238.56,290.76,239.9,290Z"/><polygon class="cls-3" points="463.97 225.31 444.6 215.87 414.31 232.99 433.95 246.58 463.97 225.31"/><path class="cls-3" d="M438.21,293.78l9.58,34.1-4,12.45.9,3.07c5.18-.81,9.29.58,13.11,2.75l-25.63-94.53L414,238.28l16.69,57.06Z"/><polygon class="cls-3" points="463.86 349.97 479.22 296.04 467.81 228.55 437.29 251.93 463.86 349.97"/><polygon class="cls-3" points="543.83 285.82 538.95 262.12 493.23 270.86 503.42 295.31 543.83 285.82"/><path class="cls-3" d="M478,356.7c.86.12,1.68.28,2.47.46l18.05-59.1-8.69-20.86L468.25,353A26.32,26.32,0,0,0,478,356.7Z"/><path class="cls-3" d="M485.25,358.66c7,2.93,11.37,8.22,16.39,13.61l8.9-9.43a12.21,12.21,0,0,0-.31-5.06c-1.92-5.34-11-7.2-7.19-15.76s13.94-1.71,19.11-7.46c2.3-2.56,4.24-4,6-4.55L544,290.93l-41,9.63Z"/><polygon class="cls-3" points="600 374.77 580.08 325.75 551.48 331.94 567.19 376.08 600 374.77"/><path class="cls-3" d="M532.42,412.49c10.68.44,18.17.9,23.52,1.4L595.34,381l-28,1.12Z"/><path class="cls-3" d="M541.26,354.47c-1.91,9.62-6.68,8-13.4,9.12s-6.12,8.45-13.8,9.52c-2,.28-3.11-.28-3.65-1.36l-20.7,21.93.88,10.06.2,2.25L488,411.16c15.56.36,28,.72,38.11,1.08-.57-.28-1.13-.54-1.69-.78l37.42-32.53-15.94-44.75-4.37,4.63C543.44,342.48,542.74,347.07,541.26,354.47Z"/><polygon class="cls-3" points="158.07 253.6 148.51 240.37 118.15 246.77 125.9 263.6 158.07 253.6"/><path class="cls-3" d="M105.53,311.3a9.81,9.81,0,0,1,4-3.13l12.63-40.76-6.83-16.24-17.18,59L100,313C102.18,313.1,104.17,312.93,105.53,311.3Z"/><path class="cls-3" d="M113.58,308.32a20.41,20.41,0,0,1,5.63,4.35l22-10.31,18.1-45L125.75,269Z"/><polygon class="cls-3" points="67.89 278.63 48.42 279.13 33.34 311.91 55.02 315.43 67.89 278.63"/><path class="cls-3" d="M82.14,366c1.64-1.89,3.25-3.9,4.91-5.92L56.1,321.41l-20.47-4,30.61,36.88Z"/><path class="cls-3" d="M83.93,348.75a13.38,13.38,0,0,1-.08-3.1c.81-8.18,7.68-12,8.1-15.53s-4-6.83-2.69-11.56c1.1-3.81,3.06-5.13,5.31-5.54L72.42,279.9,60.18,319.07Z"/><path class="cls-3" d="M227.36,329.6l1.58,13.9,7,3.93,2.92-19.13,22.53,5.08c3.21-1.08,7-1,10.66-1l-4.26-13.22Z"/><polygon class="cls-3" points="214.52 267.59 184.5 257.44 172.32 269.71 203.56 283.72 214.52 267.59"/><path class="cls-3" d="M173.58,287.18l24.87,34.16.64,15.59c7.29-.62,5.28,7,9.63,8.18a12.46,12.46,0,0,1,1.47.52l-7.46-56.38-32.36-15.84,3,13.84Z"/><path class="cls-3" d="M333,381.38l.38.35,14-14.7-.88-32.71-20.95,12.3Z"/><polygon class="cls-3" points="398.54 251.76 382.96 239.99 350.94 256.26 365.76 272.57 398.54 251.76"/><polygon class="cls-3" points="363.55 350.13 362.92 277.93 349.35 261.99 351.99 362.24 363.55 350.13"/><polygon class="cls-3" points="368.17 347.72 373.15 350.13 382.15 305.26 397.74 302.07 401.31 255.58 367.57 278.65 368.17 347.72"/><polygon class="cls-3" points="266.54 293.95 298.41 305.61 307.55 288.98 277.23 281.04 266.54 293.95"/><path class="cls-3" d="M321.25,376.64a16.25,16.25,0,0,1,6.89,1.45l-18.08-84.53-8.16,16.08,4,17c1.37,1.18,2.74,2.45,4.18,3.61,7.33,5.9,6.37,12.64,3.44,25.93-.13.56-.26,1.08-.4,1.58l4.43,19.09A30.42,30.42,0,0,1,321.25,376.64Z"/><path class="cls-3" d="M284.25,328.69c7.4-7.46,12.39-7.78,16.67-5.58l-2.78-12L265,297.71l11.1,34.42C279.15,331.8,282,330.94,284.25,328.69Z"/><path class="cls-3" d="M310.35,363.71a10,10,0,0,1-5.45,3.56l4.27,13a14,14,0,0,1,4.45-2.53Z"/><path class="cls-3" d="M225,370.55a12.23,12.23,0,0,1-.07,2.95l18.17,9.75-9.43-21.11,1.88-12.34c-3.31-.18-6.7-.21-10.12-.06l-8.83-77.35L206.7,288l8.3,62.76c-1.33.22-2.65.45-4,.74a64.69,64.69,0,0,0-11.18,4.07l.29,7a5.62,5.62,0,0,0,5.18-1.18C217.14,352.15,224.24,363.35,225,370.55Z"/><path class="cls-3" d="M18.17,378.2c-6.26-9.33.5-9.38,5.77-11a11.36,11.36,0,0,1,7.3.21L33.49,340,6.33,339,0,389.81l17.42-2.62C18.29,384.29,20.37,381.49,18.17,378.2Z"/><path class="cls-3" d="M39,341.17l-2.35,28.77c1.53.84,3.2,1.83,5.09,3,8.29,5,5.51,7.63,4.61,12.59-.8,4.43,4.61,6.85,5,11.3l16.26,9.78c-2.42.74-4.83,1.58-6.91,2.42L39.81,396.45a13.59,13.59,0,0,0-3.69-1.24c-5.44-.76-9.7,4.7-16.47-1.19a12.87,12.87,0,0,1-1-1l-13,2,30.68,17.64c5.32-.24,11.53-.47,18.79-.71,5.33-.17,11.23-.33,17.77-.5l-1.15-6-3-15.51,19-12.78Z"/><polygon class="cls-3" points="189.62 319.03 171.72 294.86 123.51 317.52 147.91 340.96 189.62 319.03"/><path class="cls-3" d="M139.46,404.17a130.72,130.72,0,0,1,11.74-6l-7.47-52.81-20.81-20,8.38,51.75,6.77,8.71Z"/><path class="cls-3" d="M178.88,356c5-6.62,9.92-1.48,15,2.76l-1.41-34.21-42.28,22.24,6.94,49.13a41.91,41.91,0,0,1,6.59-1.62,13.86,13.86,0,0,1-1.92-6.48c-.15-7.63,6.08-11.12,6.09-14.41s-4.72-6.44-3.94-10.85C165.61,353,175.53,360.39,178.88,356Z"/><polygon class="cls-3" points="130.7 384.77 115.1 365.06 76.06 391.38 97.01 409.65 130.7 384.77"/><path class="cls-3" d="M78.26,411.31,90.19,411,75.84,398.53Z"/><path class="cls-3" d="M129,410.29l5.51-3.26L133.2,389.4l-28.91,21.34,17.36-.33Z"/><polygon class="cls-3" points="441.36 324.11 434.34 299.93 388.3 309.4 400.82 334.28 441.36 324.11"/><polygon class="cls-3" points="378.05 352.5 391.28 358.89 396.08 337.16 385.41 315.93 378.05 352.5"/><path class="cls-3" d="M436.85,345.19l5.09-15.84-41.1,10.31-4.68,21.16c6.39-9.56,20.82-1.28,28.37-8.88C429.58,346.86,433.51,345.1,436.85,345.19Z"/><path class="cls-3" d="M404.08,380.68C400,376.32,393,373.19,394,366.33l-25-11.59-1.57,24.46,37.87,13.17Z"/><path class="cls-3" d="M336.87,385.57c2.88,3.53,5.61,7.47,9.19,10.64l15.48-15.6,2.17-23.12Z"/><path class="cls-3" d="M375,409.34l15.06.17,14.37-12-40.18-12.38-14,14.11a20.76,20.76,0,0,0,4,1.78C358.92,402.51,368.58,403.64,375,409.34Z"/><polygon class="cls-3" points="482.09 373.4 431.25 373.73 439.56 402.87 484.7 400.63 482.09 373.4"/><path class="cls-3" d="M434,404.92l-7.1-24.86-12.07,29.78,16.95.25Z"/><path class="cls-3" d="M437.82,410.19l13.27.22h0c11.27.21,21.44.41,30.62.61l2.55-4.7-45.76,2.27Z"/><polygon class="cls-3" points="239.64 358.55 281.46 369.79 290.75 345.24 243.52 334.56 239.64 358.55"/><path class="cls-3" d="M308.15,407.13a10.18,10.18,0,0,1,.74,1.68l4.33,0-18.74-57-7.92,20.94,10.83,31.06C300.53,404.65,305.15,401.71,308.15,407.13Z"/><path class="cls-3" d="M290.23,398.38l-8.09-23.21-42.4-11.41L250.12,387,285.3,405.9a1.32,1.32,0,0,0-.3-1.83C280.11,400,285.34,397,290.23,398.38Z"/><path class="cls-3" d="M214.61,378.65l-22.53,11.07-3.4,19.72c8.08-.09,16-.18,23.81-.25Z"/><path class="cls-3" d="M220.3,377.41l-1,31.71c22.74-.2,43.4-.32,59.41-.36Z"/><path class="cls-3" d="M505.6,704.54l0,.13a1.38,1.38,0,0,1-1.39,1.24H68.54a1.38,1.38,0,0,1-1.39-1.24l-4.83-28H49.56l5.15,29.9a13.91,13.91,0,0,0,13.83,11.86H504.19A13.94,13.94,0,0,0,518,706.61l5.42-31.4h-12.8Z"/><path class="cls-3" d="M566.08,425.64l-1.68-.57c-6.48-2.17-37.24-3.48-113.49-4.85-59.64-1.09-127.64-1.66-164-1.68H285.8c-36.4,0-104.41.59-164,1.68-76.23,1.37-107,2.68-113.47,4.85l-1.68.57L5.52,427c-3.62,4.34-4,13.76-1.26,28.78l1,5.14h5.93a1.4,1.4,0,0,1,1.37,1.24l2,11.61.32,1.88,11.68,69.11,12.76,0-10.93-65h0L25,460.22a14.16,14.16,0,0,0-9-11c-1-6.75-.95-10.67-.72-12.75,16.08-2.05,83.5-3.27,106.83-3.69,59.49-1.07,127.41-1.64,163.75-1.66H287c36.26,0,104.16.59,163.74,1.66,23.34.42,90.78,1.64,106.84,3.69a52.75,52.75,0,0,1-.72,12.75,14.14,14.14,0,0,0-9,11L540.38,503l-2.31,13.37h0L529.69,565h12.78l11-63.88h0l6.7-38.81v-.13a1.45,1.45,0,0,1,1.4-1.24h5.91l1-5.14c2.75-14.83,2.33-24.51-1.23-28.78Z"/><path class="cls-3" d="M138,519.5c-.19-.26-.35-.54-.52-.81,0,.33,0,.66-.07,1Z"/><path class="cls-3" d="M54.55,577.41c0-28.34,17.46-45.32,46.61-45.32,15.84,0,22.32,11.58,22.32,25.38,0,19.94-13.31,44.36-31.49,45.85l12.78-62.26-26.65,3.71L53.66,663.35H79.57l11-53.14h.89c32.4,0,52-26.29,52-50,0-19.19-12.95-36.72-42.47-36.72-30,0-63.15,23.68-63.15,48.46,0,13.44,6.83,18.08,19.25,18.08C56.9,588.41,54.55,586.91,54.55,577.41Z"/><path class="cls-3" d="M362,536.81c-7.52,0-13.51,6.38-13.51,14.18A13.68,13.68,0,0,0,362,565a13.82,13.82,0,0,0,13.7-14A14,14,0,0,0,362,536.81Z"/><path class="cls-3" d="M133,506.06c-4,0-8.33,3.29-8.33,9.63,0,7.14,5.55,10.09,12,10.09,5.89,0,11.5-2.48,14.21-7.48a15.08,15.08,0,0,0,1.7-7.2,15.33,15.33,0,0,0-.59-4.36c-2.48-8.72-12.14-10.58-12.14-18.1,0-3.52,2.08-5.33,5.19-5.33s4.2,1.87,4.2,3.92a6.2,6.2,0,0,1-2.54,5,3.2,3.2,0,0,0,2.6,1.23c2.82,0,4.63-2.51,4.63-5.92,0-6.45-6.45-7-9.1-7-7.3,0-13.09,4.4-13.09,10.51,0,8.6,11.62,12.18,11.62,22.21,0,4.93-2.78,7.8-6.58,7.8-3.62,0-5.42-2.7-5.42-5.63,0-4,3.55-5.5,6.62-5.5C137.83,506.88,135,506.06,133,506.06Z"/><path class="cls-3" d="M263.5,487.42a4.51,4.51,0,1,0-9,0,4.51,4.51,0,1,0,9,0Z"/><path class="cls-3" d="M488.41,632.71c0-1.6.17-3.55.34-5.33a45.33,45.33,0,0,0,13.43-2.94c14.63-5.59,25.91-18.55,25.91-34.46,0-8.86-3.59-17-18.81-17-35.07,0-46.19,42.71-46.19,63.08,0,.3,0,.59,0,.87-2.9,6.17-6.09,10.13-12,10.13-5.13,0-6.85-3-6.85-7.45,0-9.93,8.22-31.36,8.22-45.73,0-14.18-8.05-20-19-20-5.32,0-12.84,1.41-20,9.92l1.88-9.21H390.73l-11.68,57c-2.6,8.79-8.72,15.46-15.36,15.46-4.79,0-7-1.6-7-6.57a25.16,25.16,0,0,1,.69-5.67l12.32-60.26H345.05l-11.64,56.91c-2.57,8.85-8.72,15.59-15.41,15.59-4.77,0-7-1.6-7-6.57a25.66,25.66,0,0,1,.68-5.67l10.95-53.16H332.9l1.37-7.1H324l5.82-28-25.32,3.54-5.13,24.46h-5.65l-1.35,7.1H298l-10.28,49.81c-2.56,8.85-7.17,15.59-13.85,15.59-4.79,0-7-1.6-7-6.57a25,25,0,0,1,.67-5.67l12.32-60.26H255.23l-11.64,56.91c-2.57,8.85-7,15.59-13.68,15.59-3.77,0-5.15-3.2-5.15-7.27a25.48,25.48,0,0,1,.54-5l12.3-60.26H213l-4.84,23.68c-4.77,2-9.64,3.44-13.64,3.44a3.84,3.84,0,0,1-1.89-.36c0-18.6-7.18-28.34-21.89-28.34-35.25,0-46.87,42.52-46.87,62.9,0,20.22,11.45,28,27.36,28,21.06,0,38.15-20.55,40.9-53.35a67.3,67.3,0,0,0,14.35-4.07l-5.12,25A60.33,60.33,0,0,0,200,643c0,14.89,8,21.26,18.32,21.26,7.17,0,16.77-2.3,25.31-16.84,1,11,7.2,16.84,16.94,16.84,7,0,17.38-2.2,26.28-15.6,1.81,10.86,9,15.6,17.85,15.6,7,0,18.41-2.24,27.78-15.87,1.74,11.06,9,15.87,17.92,15.87,6.16,0,15.77-1.75,24.36-11.51l-2.14,10.45h24.63l11.64-56.89C411.42,597.42,416,590,422.18,590c4.13,0,6.19,3.19,6.19,9,0,11.34-7.71,33.15-7.71,45.2,0,10.11,5.3,20,20.18,20,6.81,0,15.93-2.09,24.12-15.43,3.53,10.31,11.85,15,23,15.41l1.64,0c10.19,0,19.63-3.35,25.26-13.42a37.54,37.54,0,0,0,3.72-9.93c.23-.93.44-1.88.61-2.87-5.48,5-13.68,9.38-20.19,9.38C493,647.4,488.41,643.86,488.41,632.71Zm22.24-50.35c3.24,0,4.27,2.84,4.27,7.25,0,14.91-11.63,28.55-25,29.26C493.54,602,502.08,582.36,510.65,582.36ZM177.89,611.08C175.16,632,166.44,648,158.05,648c-6.51,0-8.72-2.66-8.72-14.37,0-17.38,10.61-49.81,22.76-49.81,4.44,0,6.14,2.84,6.48,10.3-3.07,1.41-5.3,4.58-5.3,9.55C173.27,607.18,174.3,610.19,177.89,611.08Z"/><path class="cls-3" d="M174.82,505.58a10.78,10.78,0,0,0,1.38-5.27,7.28,7.28,0,0,0-.08-1.14c-.3-2.46-1.77-4.48-6.14-4.48-7.61,0-11.81,6.09-13.81,12.17v0a29.23,29.23,0,0,0-1.47,8.67,13.68,13.68,0,0,0,.36,3.34c1,4.22,4.14,6,8.47,6a14.39,14.39,0,0,0,7.8-2.26,20.89,20.89,0,0,0,5-4.59L175,524.54h8.17l2.92-14.35.06-.29.85-4.19c.86-2.93,2.39-5.46,4.6-5.46,1.24,0,1.7,1.3,1.7,2.59a6.37,6.37,0,0,1-.17,1.47L189,524.54h8.15L201,505.71c.86-2.93,2.38-5.4,4.42-5.4,1.36,0,2,1.06,2,3,0,3.77-2.54,11-2.54,15,0,3.35,1.75,6.62,6.68,6.62a7.81,7.81,0,0,0,5.09-1.73,12.84,12.84,0,0,0,2.92-3.41,7.37,7.37,0,0,0,2.39,3.64,7.06,7.06,0,0,0,4.55,1.5c4,0,6.68-2.68,8.44-5.39.32,3.53,2.36,5.39,5.53,5.39a9.28,9.28,0,0,0,5.57-1.79,13.1,13.1,0,0,0,3.15-3.37,5.94,5.94,0,0,0,2.12,3.94,5.81,5.81,0,0,0,3.77,1.22,10,10,0,0,0,3.34-.55,10.76,10.76,0,0,0,4.73-3.26l-.7,3.47h8.14l3.86-18.83c.84-2.93,2.36-5.4,4.41-5.4,1.35,0,2,1.06,2,3,0,3.77-2.54,11-2.54,15,0,3.35,1.76,6.62,6.68,6.62a7.74,7.74,0,0,0,5.09-1.73,12.49,12.49,0,0,0,2.88-3.37,7.11,7.11,0,0,0,2.48,3.5,9.21,9.21,0,0,0,5.67,1.6c4.54,0,8.6-2,9.8-8.68-1.81,1.66-4.54,3.12-6.67,3.12s-3.51-1.18-3.51-4.87c0-.53.05-1.18.11-1.77,6.79-.4,13-5.56,13-12.37,0-2.93-1.18-5.62-6.22-5.62-8.91,0-13.14,8.3-14.63,15.21a27.11,27.11,0,0,0-.65,5.65v.27c-.91,1.94-1.91,3.24-3.66,3.35a1.62,1.62,0,0,1-.31,0c-1.7,0-2.27-1-2.27-2.46,0-3.29,2.71-10.37,2.71-15.13s-2.65-6.62-6.28-6.62a8.33,8.33,0,0,0-6.62,3.29l.63-3.06h-8.16l-3,14.69-.85,4.13c-.84,2.93-2.89,5.16-5.1,5.16h0c-1.56,0-2.29-.51-2.29-2.17a8.56,8.56,0,0,1,.23-1.87l4.06-19.94h-8.14l-3,14.69-.84,4.13c-.8,2.82-2.25,5.33-4.35,5.5a.82.82,0,0,1-.22,0c-1.59,0-2.33-.87-2.33-2.53a8.56,8.56,0,0,1,.23-1.87l4.08-19.94h-8.17l-.61,3.12v-.42c0-1.69-1.35-3-4.59-3-7.75,0-12.31,7.81-13.87,15a24.37,24.37,0,0,0-.67,5.54v.25c-.9,2-1.89,3.33-3.66,3.48a2.3,2.3,0,0,1-.37,0c-1.69,0-2.27-1-2.27-2.46,0-3.29,2.73-10.37,2.73-15.13s-2.67-6.62-6.29-6.62c-2.08,0-5.16.65-7.87,5-.62-3.64-2.82-5.05-5.83-5.05a8.64,8.64,0,0,0-6.91,3.35l.63-3.06H181l-.85,4.17L178.62,507,178,509.9l-.84,4.13a19.6,19.6,0,0,1-5,4.63,9.76,9.76,0,0,1-5,1.31c-2.72,0-4.08-1-4.08-4.93,0-.7.06-1.52.12-2.36A14.26,14.26,0,0,0,174.82,505.58Zm-4.38-7.78c1.06,0,1.41.93,1.41,2.39,0,4.88-3.86,9.39-8.21,9.69C164.77,504.08,167.55,497.8,170.44,497.8Zm137.72,0c1.09,0,1.41.93,1.41,2.39,0,4.93-3.83,9.45-8.26,9.69C302.51,504.31,305.34,497.8,308.16,497.8Zm-72.86.76a2.24,2.24,0,0,1,2.33,2.22L234.92,514c-.69,3.41-3.07,5.16-4.71,5.16-1,0-2.83-.06-2.83-4.57C227.38,509.1,230.49,498.56,235.3,498.56Z"/><path class="cls-3" d="M340,494.92c-9.84,0-14.56,12.6-14.56,20.52,0,7,3.69,9.44,7.54,9.44,4,0,6.68-2.68,8.38-5.39.45,3.28,2.49,5,5.55,5a9.6,9.6,0,0,0,5.76-1.75,12.23,12.23,0,0,0,3-3.22,7.28,7.28,0,0,0,2.39,3.6,9.21,9.21,0,0,0,5.84,1.71c4.54,0,8.6-2,9.78-8.68-1.79,1.66-4.52,3.12-6.67,3.12-2,0-3.51-1.18-3.51-4.87,0-.53.05-1.18.11-1.77,6.79-.4,13-5.56,13-12.37,0-2.93-1.2-5.62-6.24-5.62-8.89,0-13.12,8.3-14.61,15.21a26,26,0,0,0-.67,5.65,5.24,5.24,0,0,0,0,.56c-.88,1.79-2.08,3-3.66,3.08h-.16c-1.58,0-2.3-.51-2.3-2.17a8.46,8.46,0,0,1,.22-1.87l6.51-31.67-8.37,1.18-2.79,13.48v-.23C344.62,496.22,343.27,494.92,340,494.92Zm30.85,2.88c1.07,0,1.41.93,1.41,2.39,0,4.93-3.83,9.45-8.26,9.69C365.22,504.31,368.07,497.8,370.89,497.8ZM341.34,514v.31c-.73,3.21-3,4.85-4.64,4.85-1,0-2.82-.06-2.82-4.57,0-5.52,3.11-16.06,7.92-16.06a2.25,2.25,0,0,1,2.3,2.05Z"/><path class="cls-3" d="M426.93,517a8.41,8.41,0,0,1,.23-1.86l4.07-19.95h-8.15l-.63,3.12v-.42c0-1.69-1.35-3-4.58-3-7.74,0-12.3,7.81-13.89,15a24.9,24.9,0,0,0-.66,5.54,2.68,2.68,0,0,0,0,.4,5.83,5.83,0,0,1-3.69,3.27,2.68,2.68,0,0,1-.68.08c-1.59,0-2.33-.51-2.33-2.17a8.41,8.41,0,0,1,.23-1.86l6.5-31.68L395,484.66,389,514a19.55,19.55,0,0,0-.46,3.83c0,4.91,2.67,7,6.05,7a10.2,10.2,0,0,0,6.26-2.11,12.84,12.84,0,0,0,3-3.29,7.54,7.54,0,0,0,2.29,3.75,7,7,0,0,0,4.73,1.65c4,0,6.74-2.74,8.43-5.44.46,3.39,2.5,5.44,5.56,5.44s4.14-1.81,5.66-5.92a2.92,2.92,0,0,1-1.26.23C427.66,519.19,426.93,518.68,426.93,517Zm-7.7-3c-.67,3.41-3.05,5.16-4.7,5.16-1,0-2.82-.06-2.82-4.57,0-5.52,3.11-16.06,7.92-16.06a2.25,2.25,0,0,1,2.33,2.23Z"/></g></g></svg>