<svg xmlns="http://www.w3.org/2000/svg" viewBox="0 0 582.6 728.47"><defs><style>.cls-1{fill:#cf3339;}.cls-2{fill:#fff;}.cls-3{fill:#009ade;}.cls-4{fill:#edb458;}.cls-5{fill:#7f5b49;}.cls-6{fill:#d19d50;}</style></defs><title>logo-web-fr</title><g id="Layer_2" data-name="Layer 2"><g id="extras"><path class="cls-1" d="M438,82.72h2.62L443.53,91h0l2.86-8.31H449V93.34h-1.77v-8.2h0l-2.95,8.2h-1.53l-3-8.2h0v8.2H438Z"/><path class="cls-1" d="M451.24,82.72h4.4a5.06,5.06,0,0,1,2.11.41,4,4,0,0,1,1.46,1.14,4.79,4.79,0,0,1,.84,1.69,7.75,7.75,0,0,1,0,4.13,4.71,4.71,0,0,1-.84,1.69,4,4,0,0,1-1.46,1.14,4.9,4.9,0,0,1-2.11.42h-4.4Zm1.86,9.1h1.83a4.77,4.77,0,0,0,1.78-.29,2.55,2.55,0,0,0,1.08-.8,3.1,3.1,0,0,0,.54-1.21,8.05,8.05,0,0,0,0-3,3,3,0,0,0-.54-1.2,2.55,2.55,0,0,0-1.08-.8,4.57,4.57,0,0,0-1.78-.29H453.1Z"/><path class="cls-1" d="M464.79,82.47h1.62l-4.27,11.12h-1.62Z"/><path class="cls-1" d="M477.49,88a5.57,5.57,0,0,1-.44,2.27,5.31,5.31,0,0,1-1.19,1.76,5.5,5.5,0,0,1-1.74,1.13,5.61,5.61,0,0,1-2.07.4,5.51,5.51,0,0,1-2.21-.43A5.32,5.32,0,0,1,468.11,92,5.65,5.65,0,0,1,467,90.24a6,6,0,0,1-.41-2.21,5.79,5.79,0,0,1,.44-2.28A5.42,5.42,0,0,1,468.2,84,5.22,5.22,0,0,1,470,82.87a5.53,5.53,0,0,1,2.1-.4,5.41,5.41,0,0,1,2.07.4A5.18,5.18,0,0,1,475.86,84a5.27,5.27,0,0,1,1.19,1.75A5.62,5.62,0,0,1,477.49,88Zm-1.19,0a5.26,5.26,0,0,0-.32-1.86,4.52,4.52,0,0,0-.91-1.46,4.18,4.18,0,0,0-3-1.28,4.12,4.12,0,0,0-1.69.34,4,4,0,0,0-1.36.94,4.35,4.35,0,0,0-.91,1.46,5,5,0,0,0-.33,1.86,5.2,5.2,0,0,0,.3,1.78,4.44,4.44,0,0,0,.86,1.46,4,4,0,0,0,1.34,1,4.27,4.27,0,0,0,1.79.36,4.08,4.08,0,0,0,3-1.28,4.47,4.47,0,0,0,.91-1.45A5.26,5.26,0,0,0,476.3,88ZM471,91.21h-1V85.05h2.33a2.77,2.77,0,0,1,1.68.42,1.57,1.57,0,0,1,.57,1.35,1.53,1.53,0,0,1-.46,1.22,2.08,2.08,0,0,1-1.15.46l1.73,2.71h-1.15l-1.59-2.63H471Zm1.13-3.5a4.7,4.7,0,0,0,.54,0,1.12,1.12,0,0,0,.46-.12,1,1,0,0,0,.31-.29,1,1,0,0,0,.12-.53.75.75,0,0,0-.13-.45.8.8,0,0,0-.32-.25,1.18,1.18,0,0,0-.43-.11,3.62,3.62,0,0,0-.46,0H471v1.79Z"/><path class="cls-1" d="M95.77,59.56a8.5,8.5,0,0,1,6.28,3.06,11.11,11.11,0,0,1,2.9,5.13,9.77,9.77,0,0,1-.37,5.57A13.66,13.66,0,0,1,101,78.6l-2.08,2,.06.07,6.49,6.44L101,91.29l-5.7-6.46L81.15,70.36l8-7.66C91.33,60.62,93.54,59.58,95.77,59.56Zm2.07,7.8a4.76,4.76,0,0,0-3.38-1.76,5.58,5.58,0,0,0-3.63,1.68l-2.08,2.23,7,7.66,3.11-2.71Q101.08,70.77,97.84,67.36Z"/><path class="cls-1" d="M115.83,51.81l3.26,4.44-.38.56a4.32,4.32,0,0,0-1.52.72q-2.1,1.55-1.81,5.5l1.67,2.28,5.69,7.22-4.81,3.52-4.8-7.15-7.21-9.38,4.26-3.74,2.38,3.32.29-.21q-.61-4.56,2-6.49A9.22,9.22,0,0,1,115.83,51.81Z"/><path class="cls-1" d="M124.42,33.08l3.49,1.69.22.54c-.35.7-.62,1.21-.82,1.53q-3.07,5.82-4,7.47l-.53.26-2.37-1.2q2.35-6.24,3.51-10ZM139,50.82,128.61,57q3.19,4.62,7.75,1.93a14.79,14.79,0,0,0,4.53-4.49l.59,0L143,58.78a18.64,18.64,0,0,1-4.89,4.34A10.3,10.3,0,0,1,130,64.57c-2.58-.69-4.72-2.5-6.44-5.41a11.18,11.18,0,0,1-1.68-8.24,9.57,9.57,0,0,1,4.88-6.28,8.3,8.3,0,0,1,6.41-1.26,8.17,8.17,0,0,1,5,4.12,20.54,20.54,0,0,1,1.13,2.36Zm-5.73-1.25a4,4,0,0,0-2.07-1.93,3,3,0,0,0-2.52.42,4,4,0,0,0-1.93,2.46,6.09,6.09,0,0,0,.32,3.63l6.44-4Z"/><path class="cls-1" d="M150.7,33.54l1.15,4.32-.55.51a11.92,11.92,0,0,0-2.91-.06,7.16,7.16,0,0,0-2.26.57,2.47,2.47,0,0,0-1.3,1.24,1.75,1.75,0,0,0,0,1.5,1.78,1.78,0,0,0,1.4,1,13.17,13.17,0,0,0,2.93.06,24,24,0,0,1,3.27,0,6.34,6.34,0,0,1,2.6.83,5,5,0,0,1,2,2.3,6.46,6.46,0,0,1,.6,3.41,6.7,6.7,0,0,1-1.46,3.47,10.14,10.14,0,0,1-3.76,2.85,18.41,18.41,0,0,1-6.61,1.64l-1.39-4.5.38-.57a11.66,11.66,0,0,0,3.59.35,7.8,7.8,0,0,0,3-.66,2.66,2.66,0,0,0,1.44-1.35,1.87,1.87,0,0,0,0-1.6,1.78,1.78,0,0,0-1.4-1,13.19,13.19,0,0,0-2.93-.06c-1.34,0-2.45,0-3.34,0a5.82,5.82,0,0,1-2.6-.82,5.24,5.24,0,0,1-2-2.36,5.93,5.93,0,0,1-.06-5.26,9,9,0,0,1,4.59-4.23A16,16,0,0,1,150.7,33.54Z"/><path class="cls-1" d="M174.55,35.44l-11.29,4.39q2.37,5.09,7.32,3.21a15,15,0,0,0,5.22-3.66l.58.12.73,4.46a18.46,18.46,0,0,1-5.54,3.45,10.33,10.33,0,0,1-8.25.07q-3.65-1.69-5.44-6.42a11.2,11.2,0,0,1-.27-8.41,9.6,9.6,0,0,1,5.88-5.37,8.31,8.31,0,0,1,6.53-.16,8.19,8.19,0,0,1,4.19,4.9,19.86,19.86,0,0,1,.71,2.51Zm-5.44-2.2A4,4,0,0,0,167.39,31a3,3,0,0,0-2.55,0,3.94,3.94,0,0,0-2.31,2.1,6,6,0,0,0-.3,3.64l7-2.86Z"/><path class="cls-1" d="M190.91,27a3.47,3.47,0,0,0-1.34-2.15,2.64,2.64,0,0,0-2.29-.25,6.85,6.85,0,0,0-3.6,3l1.44,5,2.79,8.76-5.73,1.65-2.07-8.36-3.49-11.31,5.29-2,.85,2.93.3-.09a15.1,15.1,0,0,1,4.28-4.59,7.72,7.72,0,0,1,5.42.05,5.32,5.32,0,0,1,2.87,3.82l1.52,5.76L199.93,38l-5.77,1.66Z"/><path class="cls-1" d="M214.66,29.49l.58.33.18,3.59a13.54,13.54,0,0,1-4.25,2.39q-6,.68-7.17-4.49l-.57-3.68-1.69-7.53-2.71.6-.29-.26-.39-3.27,2.58-.56-.73-3.37,4.93-2.86.47.26.9,4.76,5.21-1.14.24.27.44,3.25-5.22,1.14,1.88,9.87a3,3,0,0,0,1,1.87,2.27,2.27,0,0,0,1.88.21A6.8,6.8,0,0,0,214.66,29.49Z"/><path class="cls-1" d="M233.1,21.83l-11.94,2q1.28,5.48,6.51,4.64a15.14,15.14,0,0,0,5.86-2.53l.53.23-.18,4.53A18.82,18.82,0,0,1,227.75,33a10.32,10.32,0,0,1-8.09-1.61,10.87,10.87,0,0,1-4-7.39,11.21,11.21,0,0,1,1.44-8.29,9.62,9.62,0,0,1,6.84-4.07,8.34,8.34,0,0,1,6.43,1.17,8.24,8.24,0,0,1,3.11,5.66,19.09,19.09,0,0,1,.19,2.6ZM226,0l2.64,2.85v.59c-.58.51-1,.89-1.32,1.11C224,7.42,221.85,9.24,220.86,10l-.58.05-1.77-2q4.47-4.94,6.93-8Zm2.2,18.58A4,4,0,0,0,227,16a3,3,0,0,0-2.49-.53,4.05,4.05,0,0,0-2.7,1.59,6,6,0,0,0-1,3.5l7.45-1.37Z"/><path class="cls-1" d="M261.35,10.42q2.29,2.49,2.66,7.31c.26,3.64-.43,6.51-2.09,8.63a9.81,9.81,0,0,1-7.4,3.53,17.08,17.08,0,0,1-3-.05l.73,8.08-5.9.44-.93-16.87L244.26,9.71l5.65-.91.18,3,.31,0a15.17,15.17,0,0,1,2.27-2.13,14,14,0,0,1,2.5-1.46A7.24,7.24,0,0,1,261.35,10.42Zm-3.66,13.67a8.29,8.29,0,0,0,.84-5,8.91,8.91,0,0,0-1.35-4.64,3.31,3.31,0,0,0-3.09-1.36,5.69,5.69,0,0,0-3.75,2.21l.34,5.18.46,5a8.25,8.25,0,0,0,3.14.44A4.11,4.11,0,0,0,257.69,24.09Z"/><path class="cls-1" d="M281.81,8.75a5.21,5.21,0,0,1,2,4.3c0,.54-.06,2.24-.21,5.11,0,.84-.06,1.7-.11,2.58s-.07,1.64-.06,2.27a1.83,1.83,0,0,0,.24,1,1,1,0,0,0,.81.28,5.09,5.09,0,0,0,1.16-.19l.45.35-.5,3.14a7.05,7.05,0,0,1-3.26,1.16,3.71,3.71,0,0,1-2.25-.94,4.25,4.25,0,0,1-1.24-2.29h-.31A13,13,0,0,1,274,28.94a7.45,7.45,0,0,1-5.09-1.64A5.84,5.84,0,0,1,267,22.79a5.09,5.09,0,0,1,1.11-3.53,6,6,0,0,1,3.45-1.76l6.84-1.38,0-1.84c0-1.94-1-2.9-2.9-2.88a7.81,7.81,0,0,0-2.93.66,17.89,17.89,0,0,0-3.45,2l-.45-.27-.72-3.93A16.14,16.14,0,0,1,272,8a15.19,15.19,0,0,1,4.39-.7A8.44,8.44,0,0,1,281.81,8.75Zm-8.19,11.46a1.87,1.87,0,0,0-1,.61,2.05,2.05,0,0,0-.32,1.29,2.46,2.46,0,0,0,.65,1.8,2.28,2.28,0,0,0,1.75.63c1.17,0,2.38-.71,3.65-2.1l.05-3.32Z"/><path class="cls-1" d="M302.79,8.26l-.21,5.51L302,14a4.25,4.25,0,0,0-1.65-.38q-2.6-.11-4.83,3.18l-.11,2.82,0,9.19-6-.23.69-8.58.19-11.83,5.66-.28-.2,4.07.36,0c1.56-2.63,3.44-3.91,5.62-3.82A8.84,8.84,0,0,1,302.79,8.26Z"/><ellipse class="cls-1" cx="280.68" cy="152.82" rx="184.08" ry="103.11"/><path class="cls-2" d="M130.17,158.26c-2.56,9.73,1.33,18.35,13.7,18.35,6.94,0,13-4,14.42-9.89,1.53-6.51-2.09-10.36-6.37-14.7l-4-4.2c-5.28-5.38-9.31-10.24-7.38-18.3,2.74-11.57,15-18.79,28.72-18.79,7.3,0,13,2.06,17.5,6,9.14,9.21-2.17,15.09-4.69,14.54a2.78,2.78,0,0,1-.85-.27c2.4-7.46-.17-15.73-10.53-15.73-5.81,0-13,3.11-14.24,8.39-1.43,6,2.89,10.12,6.77,14l3.66,3.61c5.85,5.68,10.62,11,8.53,19.83-3,12.61-15.63,20.05-30.52,20.05-8.2,0-16.34-2.46-20.89-7.59C115.21,163.44,125.26,158.17,130.17,158.26Z"/><path class="cls-2" d="M233.51,205.75l14.43-31.94h.25c1.78,4.28,5.85,6.76,11.73,6.76,18.58,0,31.54-18,33.16-31.19a18.87,18.87,0,0,0,.09-3.85c-.56-6.4-4.89-11.09-14.13-11.09a24.6,24.6,0,0,0-17,6.84l-.23-.19,1.53-3.6A16,16,0,0,0,254,129.6l-30.34,67.69A17,17,0,0,0,233.51,205.75Zm45.2-59.16c-.94,7.48-10,28.27-21.56,28.27-4.6,0-6-3.52-5.57-6.76.79-6.32,9.47-28,20.88-28C277.17,140.13,279.12,143.16,278.71,146.59Z"/><path class="cls-2" d="M229.74,174.28a5.26,5.26,0,0,1-2.27.61c-1.8,0-2.14-2.4-2-3.66.19-1.65,2.11-5.91,3-7.68l13.21-28a18.91,18.91,0,0,0-13.34,0l-3.24,5.67c-1.77-4.39-5.85-6.77-11.87-6.77-18.45,0-33.57,17.68-35.2,31.09-1,8.12,3.27,15.06,14,15.06,8.73,0,16-5.1,20.56-10.91l.24.2a28.9,28.9,0,0,0-.84,3.77c-.5,3.81,2.47,6.94,7.33,6.94a20,20,0,0,0,8.52-2.08l1.88-4.15Zm-8.3-28.21c-.93,7.46-11.31,28.26-23,28.26-4.36,0-5.7-3.75-5.31-6.77.89-7.37,10.92-27.43,22.21-27.43C219.85,140.13,221.84,142.74,221.44,146.07Z"/><path class="cls-2" d="M343.36,154.05,351.13,139s-4.35-.3-6.94-.46c-1.9-.11-6.46-.56-6.46-.56L334,144.69c-3.51,6.75-15,29.12-25.46,29.12-2.2,0-3.63-.85-3.4-2.72.28-2.29,8.78-18,8.78-18,1.83-3.42,4.52-8.61,4.95-12,.51-4.08-3.05-6.66-7.9-6.66-4.22,0-9.15,1.88-13.39,4.51a10.41,10.41,0,0,1,1.1,2.59,13.47,13.47,0,0,1,3.32-.89,1.76,1.76,0,0,1,1.9,2.2c-.19,1.66-7.89,17.09-7.89,17.09-1.85,3.53-4.67,8.82-5.13,12.48-.61,5.08,3.62,8.21,9.52,8.17,10.23,0,18.39-6.68,24.2-14.63l.23.22A26.36,26.36,0,0,0,323,173c-.47,4,2.16,7.57,7.41,7.57a21.89,21.89,0,0,0,12.87-4.72v-.06a6.22,6.22,0,0,1-.38-3.11c0-.15,0-.28,0-.43a7.85,7.85,0,0,1-3.76,1.6c-2,0-2.06-2-1.91-3.23C337.73,166.5,341.44,158.2,343.36,154.05Z"/><path class="cls-2" d="M421.16,134.91c-6.9-4.71-19-8.64-40.09-9.14l4.84-10.7a18,18,0,0,0-13.05,0l-5.19,10.87c-14,.63-30.55,4.38-60.75-1.69l-.8,1.31c16.83,7,42.56,8.45,57.71,8.45l-11,23.11c-1,2.17-2.28,4.94-3.38,7.73a23.18,23.18,0,0,0-2.39,7.84c-.56,4.65,3.62,8.07,9.38,8.07,6.65,0,12.25-3.9,16.53-7.87l-.05-.15a14,14,0,0,1-1.3-3,32.6,32.6,0,0,1-2.93,2.52,8.53,8.53,0,0,1-4.71,1.91c-2.43,0-2.68-1.72-2.5-3.27.37-2.89,3.3-9.13,4.69-12l11.54-25.65c11.55-1.15,26-2.77,33.57,1.84-11,.85-22,4.24-28.82,12.19a29,29,0,0,0-7.07,15.69,22.44,22.44,0,0,0,.14,5.36c1.45,7.48,8.25,12.48,18.89,12.48,17.9,0,33.55-14.11,35.27-28.09A15.84,15.84,0,0,0,426.58,140c5.94,2.29,10.46,5.95,11.61,7.83a14,14,0,0,0,7.31-7C443,138.43,432.9,135.49,421.16,134.91Zm-14.61,33.75c-8.46,11.78-21.92,12.07-17.14-4.71.74-2.65,6.87-24.17,25.22-25.84a11,11,0,0,1,1.64,3.95C417.58,148.65,412.48,160.63,406.55,168.66Z"/><path class="cls-2" d="M537.7,430.92l44.9-37.51-23-56.55-38,8.56-5.78,6.13a23.19,23.19,0,0,0-4.11-3.49l15.75-38.89-6.22-31.67-52.67,10-5,17.5-9.59-56.86-27.32-13.63L392,253.48l18.16,62.1L403.29,317c1-7.21.22-11.8-4.92-15.95-2.88-2.32-5.47-5.06-8.38-6.63l1.58-20.58-21.92-16.93L333.13,274.8l.93,34.58a10.18,10.18,0,0,0-7.47,5.73,11.81,11.81,0,0,0-1.29,4.34c3-.07,6.08-.08,9,.07l.45,16.79c-1.7-.81-3.63-.66-6.42,2.37-2.95,3.22-9.09-.23-11.2,4.46s3.34,5.48,4.59,8.32a4.11,4.11,0,0,1,.29,1.45l-7.88,4.64-7.51-35.26L303,305.06l-23.4-5.75,2.81-13,40.12-8-13.75,43.17a30.12,30.12,0,0,1,5.88-1.67l13.59-42.64L318.6,243.3l-54.75,8.39-9.39,48.18-23.84-72.12L175.74,216.4l-4.89,32.49,11.52,25.59-1.11-.36-17.09,17.6,1.86,8.41c-3.95.41-7.49,1.71-9.65,6.06-1.69,3.42-1.63,6-.67,8.17l-10,4.68,16.85-42-13.35-18.93-34.44,6.73L97.49,324.64l-20-29.92-27.6.44L32.3,332,55,359.39l-10.16-7.51-36.12-1.6L1.34,408.89,31.14,426c-12,.78-15.72,1.6-18.36,2.51l-4.55,1.57-3,3.75c-5.57,6.89-6.61,18-3.38,36l2.49,13.85h6.42l8.48,50.66C7.41,545.84.8,559.53.8,573.06c0,19,10.54,30.52,29.1,32L17.5,665.29a13.38,13.38,0,0,0,13.11,16.08H43.8L48.26,708A23.86,23.86,0,0,0,71.9,728.47H473.38A23.85,23.85,0,0,0,497,708L502,678.55C514.91,672.88,523.59,661,526.6,644a13.38,13.38,0,0,0-6.7-14,13.9,13.9,0,0,0-1.41-.67l.76-.69c10.82-9.88,16.78-23,16.78-36.84,0-12.87-5.39-22.3-15-27.21l13.52-80.83H541l2.49-13.85c3.24-18,2.19-29.12-3.39-36Zm-5.94-2.62c-2.88-.89-7.5-1.69-20.88-2.46l33.21-28.92,26.48-1.07Zm24.37-84.82L575,389.94l-31,1.24-14.87-41.84Zm-36.71,27.21c1.39-7,2-11.35.22-14.83l4.15-4.4,15.07,42.43-36.2,31.53c-3.81-.17-8.13-.34-13.05-.51-12.25-.43-28.19-.85-49.11-1.28l-16-.32h0l-2.83-.05.54-1.26,18.21-.91-.18-5.36-17,.84L415.34,389l48.09-.3,2.47,25.8-16.74.83c6,1.64,14,4,21.68,5.78l.82-1.52-1-11.67,19.59-20.8c.51,1,1.53,1.56,3.44,1.3,7.26-1,6.7-8,13.05-9S517.6,379.82,519.42,370.69ZM380.08,381.94c-.9,6.51,5.72,9.48,9.56,13.63l1.13,11.06L355,394.14,356.44,371ZM365,368.83l7-34.67,10.1,20.13-4.54,20.6Zm17.1,8,4.45-20.14,38.88-9.77-4.81,15c-3.17-.08-6.88,1.57-11.66,6.39C401.83,375.52,388.15,367.66,382.12,376.8Zm9.56,39.45c.52,1.56,1.69,2.54,4,2.61l-1.6,3.95-10-.15ZM411.19,395l6.71,23.56-2,4.64-16-.26Zm106-111.81,4.61,22.47-38.23,9L474,291.44Zm-56.51,32.16-14.53,51.12L421.05,273.5l28.88-22.16Zm-32.75-76,18.32,9-28.4,20.16-18.58-12.89Zm-29,21.25,17.23,12.65,24.25,89.62c3.33,1.9,6.44,4.39,9.88,6.45l20.46-71.83L479,317.23l-17.08,56a26.12,26.12,0,0,1,4.48,1.43l16.79-55.11L522,310.47l-15,37.06c-1.62.57-3.45,1.87-5.63,4.3-4.89,5.45-14.45-1-18.08,7.07s5,9.88,6.81,14.94a11.63,11.63,0,0,1,.29,4.79l-8.42,8.94L470,400.25l-1.48-17-29.95.17c.52-5.87-.63-9.92-5.17-13.59-2.79-2.24-5.3-4.89-8.1-6.48l.85-2.66c.66-.16,1.31-.33,1.93-.43l-.85-2.92L431,345.49l-9.06-32.32-7.17,1.47ZM418.26,319l6.64,22.92-38.35,9.64L374.71,328Zm-34.62,2-14.75,3-8.52,42.53-4.71-2.28-.57-65.47L387,277Zm-14-58.85,14.74,11.16-31,19.73-14-15.46Zm-19,36,.6,68.45-10.94,11.47-2.5-95Zm-32.89,95a18.18,18.18,0,0,1,4.58,3.09l-7-32.95,19.82-11.66.84,31-13.3,13.94a38.69,38.69,0,0,1,3.32,3.64l25.4-26.63-2.05,21.91-14.64,14.77a22.8,22.8,0,0,0,4,2.85L352,399.74l38,11.74-13.22,11.08-15.08-.19c-18.86-.22-37-.39-53-.49l-8.74-26.69-4.06-12.37a9.38,9.38,0,0,0,5.17-3.38l3.09,13.35a18.19,18.19,0,0,1,3.68-.84l-4.21-18.15c.13-.48.27-.95.38-1.47,2.78-12.6,3.69-19-3.25-24.58-1.36-1.1-2.66-2.3-4-3.42L293,328.2,300.69,313Zm-129.32,29.2c-19.08.21-39,.49-58.24.82l-9.45.17-14.16.28,26.74-19.78,1.26,16.67c1.56-.93,3.11-1.85,4.66-2.73L138,400.4l-6.41-8.26-7.93-49.05,19.69,19,7.08,50.14a49.31,49.31,0,0,1,5.6-1.9l-6.62-46.9,40-21.09,1.33,32.43c-4.75-4-9.41-8.88-14.14-2.61-3.16,4.19-12.55-2.86-14.16,6.22-.74,4.18,3.73,7.17,3.71,10.28s-5.9,6.43-5.75,13.67a13.4,13.4,0,0,0,2.26,6.88A23,23,0,0,1,178,413.81c.84.61,1.63,1.21,2.4,1.8.35-.16.69-.33,1-.52l-.22,1.13c1.86,1.44,3.53,2.81,5,4.13l2.8-16.24,21.31-10.49-2,28.49ZM99.14,423,79.32,405.69l36.93-24.95L131,399.42ZM202.92,307.72l9.37-14.83,8.37,73.34c3.23-.13,6.43-.11,9.56.06L228.44,378l8.92,20-17.19-9.25a11.94,11.94,0,0,0,.07-2.79c-.74-6.83-7.46-17.45-18.63-8.6a5.33,5.33,0,0,1-4.9,1.11l-.27-6.67A60.9,60.9,0,0,1,207,367.91c1.23-.27,2.49-.45,3.75-.65ZM280.82,417c-2.91-5.21-10.4-4.61-11.17-1.66L244,401.55l-9.82-22.05,40.11,10.82,9.9,28.44A3.34,3.34,0,0,1,280.82,417Zm-7.18-31.79-39.57-10.66,3.67-22.74L282.42,362Zm-57.87,7.22,54.46,29.3c-14.41,0-33.76.12-55.4.31Zm77,29.35,0-.05a5.35,5.35,0,0,0-3.59-3.05l-10.66-30.63,7.5-19.85,17.6,53.64Zm5.57-113.18-8.64,15.78-30.15-11.06,10.12-12.24Zm16.55-59.49,7,24L282.33,281l-12.42-25Zm-47.74,13.17,10.61,21.3-3.13,14.49-6-1.48-9.34,11.52c-.29-.29-.59-.57-.89-.85Zm22.29,67.31L292.05,341c-4.06-2.09-8.77-1.79-15.78,5.28-2.12,2.14-4.82,2.93-7.72,3.25l-10.49-32.62Zm-28.72,7.6,4,12.53c-3.48.06-7,0-10.05,1l-21.35-4.82L230.56,364,224,360.3l-1.5-13.18Zm-9.91-33a8.79,8.79,0,0,0-4.1,3c-1.8,2.17-4.73,1.63-7.62,1.51L221.31,258.1l7.53-20.19ZM180.2,222.3l45.07,9.36-8.83,23.67-39.92-10Zm-3.58,28,40.47,10.12,17.23,49.11a7.14,7.14,0,0,0-3,4.53c-1.29,4.48,3,7.62,2.54,11a5.81,5.81,0,0,1-1.21,2.54c-2,2.8-5.87,6.3-6.45,12.17,0,.3,0,.58,0,.88l-4.35,1.12-2.32-20.45-4.11-36.23-27-8.68Zm5.29,28.39,28.4,9.62-10.37,15.29-29.55-13.27Zm17.25,30.16,7.05,53.46a10.5,10.5,0,0,0-1.39-.51c-4.11-1.14-2.24-8.31-9.11-7.74l-.6-14.79-23.53-32.39-.15.07-2.89-13.12Zm-29.34,5.31,16.93,22.92L147.29,357.9l-23.08-22.22ZM141,321.3l-20.82,9.78a18.57,18.57,0,0,0-5.33-4.09l11.52-37.27,31.75-11.05Zm6.91-58.76,9,12.54-30.43,9.48-7.33-15.95Zm-31.39,10.24,6.46,15.39-12,38.66a9.24,9.24,0,0,0-3.79,2.94c-1.29,1.56-3.17,1.71-5.2,1.63l-1.78-2.66ZM96.83,331.41c-2.12.39-4,1.64-5,5.25-1.29,4.48,3,7.63,2.54,11s-6.89,7-7.65,14.72a12,12,0,0,0,.07,2.94L64.3,337.14,75.88,300ZM53.17,299.28l18.43-.47L59.42,333.69l-20.51-3.33Zm-12.1,36.28,19.37,3.8L89.72,376c4.78-5.8,10-11.55,18.07-13.71a43.27,43.27,0,0,1,12.74-1.4L124,382.4,117.46,374,95.09,389l-10-7.4L70,370.52Zm-27.71,20.5,25.69.91-2.13,26a10.85,10.85,0,0,0-6.91-.22c-5,1.52-11.37,1.57-5.46,10.41,2.09,3.12.13,5.77-.7,8.52L7.37,404.2Zm-.64,53.07L25,407.28a9.93,9.93,0,0,0,.92.91c6.4,5.59,10.43.41,15.58,1.13a13,13,0,0,1,3.52,1.19L65.86,423c2-.81,4.36-1.6,6.61-2.27l-16.54-10c-.35-4.21-5.43-6.51-4.68-10.7.86-4.7,3.48-7.18-4.36-11.93-1.79-1.08-3.36-2-4.82-2.82l2.23-27.27,46.13,34.08-18,12.12,3,15.66a41,41,0,0,1,4.91-1l-1.23-6.48L92.2,423.9c-3.79.08-7.41.17-10.83.26-7.19.18-13.58.36-19.28.54-8.4.26-15.3.52-21,.79ZM30.61,668,56,544.78l27.63-3.87-13.25,64.7C89.21,604.06,103,578.68,103,558c0-14.34-6.72-26.36-23.15-26.36-30.23,0-48.33,17.63-48.33,47.08,0,9.88,2.42,11.43,2.61,13.17-12.88,0-20-4.84-20-18.79,0-25.76,34.34-50.36,65.51-50.36,30.6,0,44,18.21,44,38.15,0,24.61-20.33,51.93-53.93,51.93h-.93L57.48,668Zm87.47-159.42c-3.17,0-6.87,1.52-6.87,5.73,0,3,1.88,5.85,5.63,5.85,3.94,0,6.81-3,6.81-8.11,0-10.42-12-14.14-12-23.09,0-6.34,6-10.91,13.56-10.91,2.76,0,9.45.61,9.45,7.31,0,3.54-1.88,6.16-4.81,6.16a3.31,3.31,0,0,1-2.7-1.28,6.47,6.47,0,0,0,2.64-5.24c0-2.14-1.12-4.09-4.35-4.09s-5.4,1.89-5.4,5.55c0,7.8,10,9.73,12.6,18.78a33.47,33.47,0,0,0-1.35,9.19,20.88,20.88,0,0,0,.19,2.8c-2.81,5.22-8.62,7.8-14.72,7.8-6.7,0-12.45-3-12.45-10.48,0-6.58,4.52-10,8.63-10C115,504.55,117.9,505.4,118.08,508.57Zm-2.73,5.73c0-1.33,2.09-1.43,2.73-1.43h1.4c-.18,2-1.07,3-2.64,3C116.28,515.85,115.35,515.85,115.35,514.3Zm10.26-29.1a2.45,2.45,0,0,1-.6,1.33l-.82.5a3.69,3.69,0,0,1,0-.58c0-1,0-1.25,1.26-1.25Zm9.79,29.22c0-7,3.81-21.7,15.85-21.7,4.52,0,6.05,2.11,6.38,4.65l-1.37,6.71a14.9,14.9,0,0,1-12.06,7.35c-.06.86-.12,1.71-.12,2.44,0,4.14,1.41,5.12,4.23,5.12a10.06,10.06,0,0,0,5.18-1.37l-.84,4.12a14.9,14.9,0,0,1-8.1,2.37C139,524.11,135.4,521.31,135.4,514.42Zm27.29-21.15h8.46l-.65,3.17a8.91,8.91,0,0,1,7.17-3.47c3.11,0,5.39,1.46,6,5.24,2.82-4.51,6-5.18,8.16-5.18,3.76,0,6.52,2,6.52,6.88s-2.82,12.31-2.82,15.73c0,1.52.59,2.56,2.35,2.56.13,0,.25,0,.38,0a14.81,14.81,0,0,0,1.38,4.14,8.2,8.2,0,0,1-5.28,1.81c-5.11,0-6.93-3.41-6.93-6.89,0-4.14,2.64-11.64,2.64-15.54,0-2-.7-3.11-2.11-3.11-2.12,0-3.7,2.56-4.58,5.61l-4,19.56H171l4.29-21a6.83,6.83,0,0,0,.17-1.53c0-1.34-.46-2.68-1.76-2.68-2.29,0-3.87,2.62-4.75,5.67l-4,19.56h-8.46Zm59.89,0H231L226.81,514a8.56,8.56,0,0,0-.24,2c0,1.71.76,2.62,2.41,2.62l.25,0a13.21,13.21,0,0,0,.93,3.7,9.53,9.53,0,0,1-5.76,1.87c-3.29,0-5.4-2-5.75-5.61-1.82,2.81-4.58,5.61-8.75,5.61-4,0-7.81-2.56-7.81-9.81,0-8.23,4.87-21.33,15.09-21.33,3.34,0,4.75,1.34,4.75,3.11v.42Zm16.32-8.1a4.76,4.76,0,0,1,4.64-4.88,4.81,4.81,0,0,1,4.7,4.88,4.75,4.75,0,0,1-4.7,4.81A4.7,4.7,0,0,1,238.9,485.17Zm23,8.1-.65,3.17a8.61,8.61,0,0,1,6.87-3.41c3.76,0,6.52,2,6.52,6.88s-2.82,12.31-2.82,15.73c0,1.52.59,2.56,2.35,2.56.11,0,.21,0,.32,0a14.28,14.28,0,0,0,1.44,4.13,8.17,8.17,0,0,1-5.29,1.82c-5.1,0-6.92-3.41-6.92-6.89,0-4.14,2.64-11.64,2.64-15.54,0-2-.71-3.11-2.11-3.11-2.12,0-3.7,2.56-4.58,5.61l-4,19.56h-8.45l6.22-30.47Zm32.23-.55c5.22,0,6.45,2.81,6.45,5.85,0,7.07-6.45,12.44-13.5,12.86-.05.61-.11,1.28-.11,1.83,0,3.84,1.58,5.06,3.64,5.06,2.23,0,5-1.52,6.92-3.23-1.23,6.95-5.46,9-10.15,9-5.46,0-9.1-2.8-9.1-9.69S282.05,492.72,294.09,492.72Zm-54.54,31.39c-3.52,0-6.28-2.19-6.28-7.31a20.34,20.34,0,0,1,.47-4l4-19.56h8.45L242,514a8.56,8.56,0,0,0-.24,2c0,1.69.75,2.25,2.36,2.26L243,523.54A10.7,10.7,0,0,1,239.55,524.11ZM480.4,705.38a7.13,7.13,0,0,1-7,6.26H71.9a7.14,7.14,0,0,1-7-6.26L60.79,681a13.38,13.38,0,0,0,9.79-10.26l9.33-45.22a69,69,0,0,0,11.79-2.74A92.6,92.6,0,0,0,90,639.46c0,13.85,4.14,24.7,12.31,32.25,7.35,6.78,17.26,10.22,29.46,10.22,14.92,0,28.72-7.12,38.86-20.07.19-.23.36-.48.55-.72a31.74,31.74,0,0,0,7,11.76c5.85,6.15,13.87,9.41,23.18,9.41a38.65,38.65,0,0,0,23.28-7.44,30.17,30.17,0,0,0,20.55,7.44,42.4,42.4,0,0,0,24.52-7.57c5.63,5,12.92,7.57,21.24,7.57a45.58,45.58,0,0,0,25.76-7.9c5.68,5.17,13.11,7.9,21.62,7.9a46.11,46.11,0,0,0,16.29-3,13.39,13.39,0,0,0,6.77,1.85h25.55A13.38,13.38,0,0,0,400,670.49l1.26-6.16c5.31,11.17,16.42,18,30.87,18a37.9,37.9,0,0,0,24-8.18c6.76,5.32,15.73,8.18,26.56,8.18.52,0,1,0,1.54,0Zm42.25-113.63c0,21.36-19.52,37.57-40.81,38.86-.18,1.85-.36,3.87-.36,5.53,0,11.6,4.79,15.28,11,15.28,6.74,0,15.25-4.6,20.93-9.76-3.72,21-16.5,27.26-30.69,27.26-12.42,0-21.72-4.8-25.57-16-8.48,13.86-17.94,16-25,16-15.43,0-20.94-10.31-20.94-20.8,0-12.53,8-35.19,8-47,0-6.07-2.14-9.39-6.39-9.39-6.39,0-11.18,7.74-13.84,16.94l-12.06,59.13H361.37L363.58,657c-8.92,10.14-18.88,12-25.27,12-9.26,0-16.77-5-18.57-16.51-9.71,14.18-21.55,16.51-28.8,16.51-9.19,0-16.63-4.94-18.52-16.22-9.22,13.92-20.05,16.22-27.25,16.22-10.12,0-16.51-6.07-17.57-17.5-8.88,15.11-18.81,17.5-26.26,17.5-10.65,0-19-6.63-19-22.1a62.36,62.36,0,0,1,1.42-12l5.3-26a69.45,69.45,0,0,1-14.88,4.24c-2.84,34.08-20.58,55.44-42.41,55.44-16.5,0-28.39-8.1-28.39-29.09,0-21.19,12.06-65.39,48.62-65.39,15.26,0,22.71,10.13,22.71,29.47a4,4,0,0,0,2,.37c4.15,0,9.18-1.44,14.13-3.58l5-24.61h25.55l-12.77,62.63a27.13,27.13,0,0,0-.53,5.15c0,4.24,1.42,7.56,5.32,7.56,6.92,0,11.53-7,14.2-16.21l12.06-59.13h25.55l-12.78,62.63a26.54,26.54,0,0,0-.7,5.9c0,5.15,2.3,6.81,7.27,6.81,6.92,0,11.71-7,14.37-16.21L284,583.1h-5.86l1.42-7.38h5.85l5.33-25.41L317,546.62l-6,29.1h10.65l-1.42,7.38H309.57l-11.36,55.25a26,26,0,0,0-.71,5.9c0,5.15,2.31,6.81,7.27,6.81,6.93,0,13.31-7,16-16.21l12.06-59.13h25.55l-12.78,62.63a26,26,0,0,0-.71,5.9c0,5.15,2.31,6.81,7.28,6.81,6.88,0,13.23-6.92,15.92-16l12.11-59.29h25.55l-2,9.59C411.22,576.46,419,575,424.53,575c11.36,0,19.7,6.08,19.7,20.81,0,14.92-8.52,37.21-8.52,47.52,0,4.61,1.78,7.74,7.1,7.74,6.12,0,9.41-4.1,12.43-10.49,0-.31,0-.62,0-.93,0-21.18,11.54-65.57,47.91-65.57C518.92,574.07,522.65,582.54,522.65,591.75ZM327.61,493c3.35,0,4.76,1.34,4.76,3.11v.24l2.87-14,8.69-1.21L337.18,514a8.56,8.56,0,0,0-.24,2c0,1.71.77,2.26,2.41,2.26l.16,0a14.21,14.21,0,0,0,1.23,3.73,9.84,9.84,0,0,1-6,1.83c-3.17,0-5.28-1.82-5.75-5.24-1.76,2.81-4.52,5.61-8.69,5.61-4,0-7.81-2.56-7.81-9.81C312.52,506.07,317.4,493,327.61,493Zm38,5.6c0,7.07-6.46,12.44-13.51,12.86,0,.61-.11,1.28-.11,1.83,0,3.84,1.58,5.06,3.64,5.06,2.23,0,5.05-1.52,6.92-3.23-1.23,6.95-5.46,9-10.15,9-5.46,0-9.1-2.8-9.1-9.69s3.81-21.7,15.85-21.7C364.36,492.72,365.6,495.53,365.6,498.57Zm-15.22,37.92c7.8,0,14.19,6.63,14.19,14.74a14.36,14.36,0,0,1-14.19,14.55c-7.82,0-14-6.45-14-14.55S342.56,536.49,350.38,536.49Zm176.53-69.6h-.64a7.19,7.19,0,0,0-7,6.26l-14.65,87.57c-.49,0-1,0-1.48,0-18.91,0-35.16,9.43-46.3,26.69-3.08-15.9-15.07-25.77-32.3-25.77a38.82,38.82,0,0,0-12.87,2.11,13.38,13.38,0,0,0-5.93-1.38H380.18a13.22,13.22,0,0,0-4.95,1,28.28,28.28,0,0,0-13.77-37.81c2.63-2.12,4.4-5.36,5.15-9.62l2.06-11.57a15.93,15.93,0,0,0,1.06-5.73c0-6.35-4-10.14-10.59-10.14-6.11,0-10.72,3-14,7.24l4-19.66-17.4,2.44-2.13,10.37a13.2,13.2,0,0,0-2.06-.15c-13.11,0-19.23,15.29-19.23,25.63s6.44,14.1,11.95,14.1a12.74,12.74,0,0,0,7.87-2.71,9.65,9.65,0,0,0,6.57,2.35h.14a28,28,0,0,0-8.32,9.26,13.4,13.4,0,0,0-11.43-3.92l-26.26,3.69a13.38,13.38,0,0,0-11.24,10.51l-3.32,15.83a13.29,13.29,0,0,0-1.93,1.05,13.37,13.37,0,0,0-7.2-2.11H239.66a13.37,13.37,0,0,0-9.14,3.6,13.38,13.38,0,0,0-9.14-3.6H195.83a13.38,13.38,0,0,0-13.11,10.71l-.76,3.73a33.88,33.88,0,0,0-2.23-3.33c-4.43-5.82-12.84-12.76-27.73-12.76a55.24,55.24,0,0,0-14.94,2c0-.61.05-1.22.05-1.83a50.86,50.86,0,0,0-11.76-33.08,18.85,18.85,0,0,0,7.71-5.48c2.14,3.92,6.11,6.11,11.49,6.11a18.6,18.6,0,0,0,7-1.33l-.19,1h31.41l1.31-6.42c1.39,3.78,4.72,6.78,10.31,6.78a12.23,12.23,0,0,0,7.89-2.77,11.59,11.59,0,0,0,7.61,2.77,12.77,12.77,0,0,0,7.71-2.6,9.52,9.52,0,0,0,6.79,2.6,13.65,13.65,0,0,0,8.17-2.63,9.93,9.93,0,0,0,7,2.63,15.1,15.1,0,0,0,3.28-.36H259l1.31-6.42c1.39,3.79,4.72,6.78,10.3,6.78a12.22,12.22,0,0,0,7.95-2.82,13.45,13.45,0,0,0,8.79,2.82c7.74,0,12.79-4.45,14.22-12.53l2.06-11.57a15.93,15.93,0,0,0,1.06-5.73c0-6.35-4-10.14-10.59-10.14-7.13,0-12.23,4.07-15.5,9.49-.74-5.64-4.7-9.19-10.51-9.19a12.24,12.24,0,0,0-2.52.25h-14a9.34,9.34,0,0,0,.83-3.81,8.82,8.82,0,1,0-17.62,0,9.29,9.29,0,0,0,.81,3.81H220.08a12.77,12.77,0,0,0-2.9-.31c-6.74,0-11.62,4-14.78,9.36-.71-5.7-4.68-9.3-10.53-9.3a12.17,12.17,0,0,0-7.36,2.38,10,10,0,0,0-6.84-2.44,13.09,13.09,0,0,0-2.9.31H159.34l-.42,2a11,11,0,0,0-7.67-2.6c-7.91,0-13.32,5-16.5,11.3a22.84,22.84,0,0,0-3.09-4.12c4.21-.91,7.11-4.95,7.11-10.26,0-7.16-5.21-11.61-13.59-11.61-10.09,0-17.7,6.54-17.7,15.21,0,4.78,2.29,8.3,4.83,11.32-5.43.28-11,4.38-12,11.79a73.87,73.87,0,0,0-20.63-2.74c-15.28,0-31.4,4.82-45.37,13.39L26,473.15a7.2,7.2,0,0,0-7-6.26h-.63c-3.15-17.56-.65-21.75-.1-22.44,6.46-2.23,55.5-3.43,102.83-4.31,54.55-1,117.26-1.56,151-1.58h1.05c33.69,0,96.38.57,151,1.58,47.33.88,96.37,2.08,102.83,4.31C527.56,445.13,530.06,449.32,526.91,466.89Z"/><path class="cls-3" d="M424.18,440.14c-54.63-1-117.32-1.56-151-1.58h-1.05c-33.75,0-96.46.57-151,1.58-47.33.88-96.37,2.08-102.83,4.31-.55.69-3.05,4.88.1,22.44H19a7.2,7.2,0,0,1,7,6.26l8.29,49.56c14-8.57,30.09-13.39,45.37-13.39a73.87,73.87,0,0,1,20.63,2.74c1-7.41,6.56-11.51,12-11.79-2.54-3-4.83-6.54-4.83-11.32,0-8.67,7.61-15.21,17.7-15.21,8.38,0,13.59,4.45,13.59,11.61,0,5.31-2.9,9.35-7.11,10.26a22.84,22.84,0,0,1,3.09,4.12c3.18-6.3,8.59-11.3,16.5-11.3a11,11,0,0,1,7.67,2.6l.42-2h15.43a13.09,13.09,0,0,1,2.9-.31,10,10,0,0,1,6.84,2.44,12.17,12.17,0,0,1,7.36-2.38c5.85,0,9.82,3.6,10.53,9.3,3.16-5.32,8-9.36,14.78-9.36a12.77,12.77,0,0,1,2.9.31h15.49a9.29,9.29,0,0,1-.81-3.81,8.82,8.82,0,1,1,17.62,0,9.34,9.34,0,0,1-.83,3.81h14a12.24,12.24,0,0,1,2.52-.25c5.81,0,9.77,3.55,10.51,9.19,3.27-5.42,8.37-9.49,15.5-9.49,6.63,0,10.59,3.79,10.59,10.14a15.93,15.93,0,0,1-1.06,5.73l-2.06,11.57c-1.43,8.08-6.48,12.53-14.22,12.53a13.45,13.45,0,0,1-8.79-2.82,12.22,12.22,0,0,1-7.95,2.82c-5.58,0-8.91-3-10.3-6.78L259,528H242.83a15.1,15.1,0,0,1-3.28.36,9.93,9.93,0,0,1-7-2.63,13.65,13.65,0,0,1-8.17,2.63,9.52,9.52,0,0,1-6.79-2.6,12.77,12.77,0,0,1-7.71,2.6,11.59,11.59,0,0,1-7.61-2.77,12.23,12.23,0,0,1-7.89,2.77c-5.59,0-8.92-3-10.31-6.78L182.78,528H151.37l.19-1a18.6,18.6,0,0,1-7,1.33c-5.38,0-9.35-2.19-11.49-6.11a18.85,18.85,0,0,1-7.71,5.48,50.86,50.86,0,0,1,11.76,33.08c0,.61,0,1.22-.05,1.83a55.24,55.24,0,0,1,14.94-2c14.89,0,23.3,6.94,27.73,12.76a33.88,33.88,0,0,1,2.23,3.33l.76-3.73a13.38,13.38,0,0,1,13.11-10.71h25.55a13.38,13.38,0,0,1,9.14,3.6,13.37,13.37,0,0,1,9.14-3.6h25.55a13.37,13.37,0,0,1,7.2,2.11,13.29,13.29,0,0,1,1.93-1.05l3.32-15.83a13.38,13.38,0,0,1,11.24-10.51l26.26-3.69a13.4,13.4,0,0,1,11.43,3.92,28,28,0,0,1,8.32-9.26h-.14a9.65,9.65,0,0,1-6.57-2.35,12.74,12.74,0,0,1-7.87,2.71c-5.51,0-11.95-3.69-11.95-14.1s6.12-25.63,19.23-25.63a13.2,13.2,0,0,1,2.06.15l2.13-10.37L349.2,476l-4,19.66c3.25-4.26,7.86-7.24,14-7.24,6.63,0,10.59,3.79,10.59,10.14a15.93,15.93,0,0,1-1.06,5.73l-2.06,11.57c-.75,4.26-2.52,7.5-5.15,9.62a28.28,28.28,0,0,1,13.77,37.81,13.22,13.22,0,0,1,4.95-1h25.55a13.38,13.38,0,0,1,5.93,1.38,38.82,38.82,0,0,1,12.87-2.11c17.23,0,29.22,9.87,32.3,25.77,11.14-17.26,27.39-26.69,46.3-26.69.5,0,1,0,1.48,0l14.65-87.57a7.19,7.19,0,0,1,7-6.26h.64c3.15-17.57.65-21.76.1-22.44C520.55,442.22,471.51,441,424.18,440.14ZM401.06,528.4a11.54,11.54,0,0,1-7.92-3,14.71,14.71,0,0,1-9,3c-6.23,0-10.42-4.66-10.42-11.6a24.37,24.37,0,0,1,.56-4.84l6.89-33.51,17.4-2.44-4.27,20.83c3.16-4.72,7.81-8.17,14-8.17a12.77,12.77,0,0,1,2.9.31H427.3l-4.87,23.84,6.4-2.87-3.54,9.55c-1.32,3.55-3.31,8.9-9.73,8.9a9.36,9.36,0,0,1-6.71-2.65A12.69,12.69,0,0,1,401.06,528.4Z"/><path class="cls-3" d="M456.17,674.13a37.9,37.9,0,0,1-24,8.18c-14.45,0-25.56-6.81-30.87-18L400,670.49a13.38,13.38,0,0,1-13.11,10.71H361.37a13.39,13.39,0,0,1-6.77-1.85,46.11,46.11,0,0,1-16.29,3c-8.51,0-15.94-2.73-21.62-7.9a45.58,45.58,0,0,1-25.76,7.9c-8.32,0-15.61-2.61-21.24-7.57a42.4,42.4,0,0,1-24.52,7.57,30.17,30.17,0,0,1-20.55-7.44,38.65,38.65,0,0,1-23.28,7.44c-9.31,0-17.33-3.26-23.18-9.41a31.74,31.74,0,0,1-7-11.76c-.19.24-.36.49-.55.72-10.14,12.95-23.94,20.07-38.86,20.07-12.2,0-22.11-3.44-29.46-10.22C94.15,664.16,90,653.31,90,639.46a92.6,92.6,0,0,1,1.69-16.73,69,69,0,0,1-11.79,2.74l-9.33,45.22A13.38,13.38,0,0,1,60.79,681l4.09,24.43a7.14,7.14,0,0,0,7,6.26H473.38a7.13,7.13,0,0,0,7-6.26l3.87-23.1c-.51,0-1,0-1.54,0C471.9,682.31,462.93,679.45,456.17,674.13Z"/><path class="cls-3" d="M124.15,486.45a3.69,3.69,0,0,0,0,.58l.82-.5a2.45,2.45,0,0,0,.6-1.33h-.2C124.2,485.2,124.15,485.44,124.15,486.45Z"/><path class="cls-3" d="M119.48,512.87h-1.4c-.64,0-2.73.1-2.73,1.43,0,1.55.93,1.55,1.49,1.55C118.41,515.85,119.3,514.85,119.48,512.87Z"/><path class="cls-2" d="M160.17,596c-.35-7.74-2.13-10.68-6.74-10.68-12.6,0-23.6,33.69-23.6,51.75,0,12.15,2.3,14.92,9,14.92,8.69,0,17.74-16.58,20.58-38.31-3.73-.92-4.79-4-4.79-7.74C154.67,600.77,157,597.46,160.17,596Z"/><path class="cls-2" d="M504.55,583.83c-8.87,0-17.74,20.44-21.47,37.94,13.84-.73,25.9-14.91,25.9-30.39C509,586.78,507.92,583.83,504.55,583.83Z"/><path d="M68.86,612.78h.93c33.6,0,53.93-27.32,53.93-51.93,0-19.94-13.43-38.15-44-38.15-31.17,0-65.51,24.6-65.51,50.36,0,14,7.09,18.79,20,18.79-.19-1.74-2.61-3.29-2.61-13.17,0-29.45,18.1-47.08,48.33-47.08,16.43,0,23.15,12,23.15,26.36,0,20.72-13.81,46.1-32.66,47.65l13.25-64.7L56,544.78,30.61,668H57.48Z"/><path d="M350.38,565.78a14.36,14.36,0,0,0,14.19-14.55c0-8.11-6.39-14.74-14.19-14.74s-14,6.63-14,14.74S342.56,565.78,350.38,565.78Z"/><path d="M503.13,574.07c-36.37,0-47.91,44.39-47.91,65.57,0,.31,0,.62,0,.93-3,6.39-6.31,10.49-12.43,10.49-5.32,0-7.1-3.13-7.1-7.74,0-10.31,8.52-32.6,8.52-47.52,0-14.73-8.34-20.81-19.7-20.81-5.5,0-13.31,1.47-20.76,10.32l2-9.59H380.18L368.07,635c-2.69,9.13-9,16-15.92,16-5,0-7.28-1.66-7.28-6.81a26,26,0,0,1,.71-5.9l12.78-62.63H332.81l-12.06,59.13c-2.67,9.21-9.05,16.21-16,16.21-5,0-7.27-1.66-7.27-6.81a26,26,0,0,1,.71-5.9l11.36-55.25h10.64l1.42-7.38H311l6-29.1-26.26,3.69-5.33,25.41h-5.85l-1.42,7.38H284l-10.65,51.75c-2.66,9.21-7.45,16.21-14.37,16.21-5,0-7.27-1.66-7.27-6.81a26.54,26.54,0,0,1,.7-5.9l12.78-62.63H239.66L227.6,634.85c-2.67,9.21-7.28,16.21-14.2,16.21-3.9,0-5.32-3.32-5.32-7.56a27.13,27.13,0,0,1,.53-5.15l12.77-62.63H195.83l-5,24.61c-4.95,2.14-10,3.58-14.13,3.58a4,4,0,0,1-2-.37c0-19.34-7.45-29.47-22.71-29.47-36.56,0-48.62,44.2-48.62,65.39,0,21,11.89,29.09,28.39,29.09,21.83,0,39.57-21.36,42.41-55.44a69.45,69.45,0,0,0,14.88-4.24l-5.3,26a62.36,62.36,0,0,0-1.42,12c0,15.47,8.34,22.1,19,22.1,7.45,0,17.38-2.39,26.26-17.5,1.06,11.43,7.45,17.5,17.57,17.5,7.2,0,18-2.3,27.25-16.22,1.89,11.28,9.33,16.22,18.52,16.22,7.25,0,19.09-2.33,28.8-16.51,1.8,11.49,9.31,16.51,18.57,16.51,6.39,0,16.35-1.82,25.27-12l-2.21,10.86h25.55L399,608.69c2.66-9.2,7.45-16.94,13.84-16.94,4.25,0,6.39,3.32,6.39,9.39,0,11.79-8,34.45-8,47,0,10.49,5.51,20.8,20.94,20.8,7.06,0,16.52-2.18,25-16,3.85,11.24,13.15,16,25.57,16,14.19,0,27-6.26,30.69-27.26-5.68,5.16-14.19,9.76-20.93,9.76-6.22,0-11-3.68-11-15.28,0-1.66.18-3.68.36-5.53,21.29-1.29,40.81-17.5,40.81-38.86C522.65,582.54,518.92,574.07,503.13,574.07Zm-343.67,39.6C156.62,635.4,147.57,652,138.88,652c-6.75,0-9-2.77-9-14.92,0-18.06,11-51.75,23.6-51.75,4.61,0,6.39,2.94,6.74,10.68-3.19,1.47-5.5,4.78-5.5,9.94C154.67,609.62,155.73,612.75,159.46,613.67Zm323.62,8.1c3.73-17.5,12.6-37.94,21.47-37.94,3.37,0,4.43,2.95,4.43,7.55C509,606.86,496.92,621,483.08,621.77Z"/><path d="M104.28,514.54C104.28,522,110,525,116.73,525c6.1,0,11.91-2.58,14.72-7.8a20.88,20.88,0,0,1-.19-2.8,33.47,33.47,0,0,1,1.35-9.19c-2.6-9.05-12.6-11-12.6-18.78,0-3.66,2.18-5.55,5.4-5.55s4.35,2,4.35,4.09a6.47,6.47,0,0,1-2.64,5.24,3.31,3.31,0,0,0,2.7,1.28c2.93,0,4.81-2.62,4.81-6.16,0-6.7-6.69-7.31-9.45-7.31-7.57,0-13.56,4.57-13.56,10.91,0,8.95,12,12.67,12,23.09,0,5.12-2.87,8.11-6.81,8.11-3.75,0-5.63-2.81-5.63-5.85,0-4.21,3.7-5.73,6.87-5.73-.18-3.17-3.12-4-5.17-4C108.8,504.55,104.28,508,104.28,514.54Z"/><path class="cls-2" d="M153.18,498.45c0-1.52-.35-2.5-1.46-2.5-3,0-5.87,6.52-7.05,12.56C149.19,508.2,153.18,503.51,153.18,498.45Z"/><path d="M144.55,524.11a14.9,14.9,0,0,0,8.1-2.37l.84-4.12a10.06,10.06,0,0,1-5.18,1.37c-2.82,0-4.23-1-4.23-5.12,0-.73.06-1.58.12-2.44a14.9,14.9,0,0,0,12.06-7.35l1.37-6.71c-.33-2.54-1.86-4.65-6.38-4.65-12,0-15.85,14.69-15.85,21.7S139,524.11,144.55,524.11ZM151.72,496c1.11,0,1.46,1,1.46,2.5,0,5.06-4,9.75-8.51,10.06C145.85,502.47,148.72,496,151.72,496Z"/><path d="M156.47,523.74h8.46l4-19.56c.88-3.05,2.46-5.67,4.75-5.67,1.3,0,1.76,1.34,1.76,2.68a6.83,6.83,0,0,1-.17,1.53l-4.29,21h8.46l4-19.56c.88-3.05,2.46-5.61,4.58-5.61,1.41,0,2.11,1.1,2.11,3.11,0,3.9-2.64,11.4-2.64,15.54,0,3.48,1.82,6.89,6.93,6.89a8.2,8.2,0,0,0,5.28-1.81,14.81,14.81,0,0,1-1.38-4.14c-.13,0-.25,0-.38,0-1.76,0-2.35-1-2.35-2.56,0-3.42,2.82-10.79,2.82-15.73s-2.76-6.88-6.52-6.88c-2.17,0-5.34.67-8.16,5.18-.65-3.78-2.93-5.24-6-5.24a8.91,8.91,0,0,0-7.17,3.47l.65-3.17h-8.46Z"/><path class="cls-2" d="M221.4,499.06a2.31,2.31,0,0,0-2.4-2.31c-5,0-8.22,11-8.22,16.69,0,4.7,1.88,4.76,2.93,4.76,1.71,0,4.17-1.83,4.88-5.37Z"/><path d="M217.18,493c-10.22,0-15.09,13.1-15.09,21.33,0,7.25,3.82,9.81,7.81,9.81,4.17,0,6.93-2.8,8.75-5.61.35,3.66,2.46,5.61,5.75,5.61a9.53,9.53,0,0,0,5.76-1.87,13.21,13.21,0,0,1-.93-3.7l-.25,0c-1.65,0-2.41-.91-2.41-2.62a8.56,8.56,0,0,1,.24-2L231,493.27h-8.45l-.65,3.23v-.42C221.93,494.31,220.52,493,217.18,493Zm1.41,19.86c-.71,3.54-3.17,5.37-4.88,5.37-1.05,0-2.93-.06-2.93-4.76,0-5.72,3.23-16.69,8.22-16.69a2.31,2.31,0,0,1,2.4,2.31Z"/><path d="M241.72,515.94a8.56,8.56,0,0,1,.24-2l4.22-20.72h-8.45l-4,19.56a20.34,20.34,0,0,0-.47,4c0,5.12,2.76,7.31,6.28,7.31a10.7,10.7,0,0,0,3.44-.57l1.09-5.34C242.47,518.19,241.72,517.63,241.72,515.94Z"/><path d="M248.24,485.17a4.81,4.81,0,0,0-4.7-4.88,4.76,4.76,0,0,0-4.64,4.88,4.7,4.7,0,0,0,4.64,4.81A4.75,4.75,0,0,0,248.24,485.17Z"/><path d="M247.18,523.74h8.45l4-19.56c.88-3.05,2.46-5.61,4.58-5.61,1.4,0,2.11,1.1,2.11,3.11,0,3.9-2.64,11.4-2.64,15.54,0,3.48,1.82,6.89,6.92,6.89a8.17,8.17,0,0,0,5.29-1.82,14.28,14.28,0,0,1-1.44-4.13c-.11,0-.21,0-.32,0-1.76,0-2.35-1-2.35-2.56,0-3.42,2.82-10.79,2.82-15.73s-2.76-6.88-6.52-6.88a8.61,8.61,0,0,0-6.87,3.41l.65-3.17H253.4Z"/><path class="cls-2" d="M296,498.45c0-1.52-.35-2.5-1.46-2.5-2.94,0-5.87,6.77-7.1,12.56C292,508.26,296,503.57,296,498.45Z"/><path d="M278.24,514.42c0,6.89,3.64,9.69,9.1,9.69,4.69,0,8.92-2.07,10.15-9-1.88,1.71-4.69,3.23-6.92,3.23-2.06,0-3.64-1.22-3.64-5.06,0-.55.06-1.22.11-1.83,7-.42,13.5-5.79,13.5-12.86,0-3-1.23-5.85-6.45-5.85C282.05,492.72,278.24,507.41,278.24,514.42ZM294.56,496c1.11,0,1.46,1,1.46,2.5,0,5.12-4,9.81-8.56,10.06C288.69,502.72,291.62,496,294.56,496Z"/><path class="cls-2" d="M321.21,513.44c0,4.7,1.88,4.76,2.94,4.76,1.64,0,4.05-1.71,4.81-5.06v-.31l2.88-14a2.37,2.37,0,0,0-2.41-2.13C324.44,496.75,321.21,507.72,321.21,513.44Z"/><path d="M320.33,524.11c4.17,0,6.93-2.8,8.69-5.61.47,3.42,2.58,5.24,5.75,5.24a9.84,9.84,0,0,0,6-1.83,14.21,14.21,0,0,1-1.23-3.73l-.16,0c-1.64,0-2.41-.55-2.41-2.26a8.56,8.56,0,0,1,.24-2l6.75-32.9-8.69,1.21-2.87,14v-.24c0-1.77-1.41-3.11-4.76-3.11-10.21,0-15.09,13.1-15.09,21.33C312.52,521.55,316.34,524.11,320.33,524.11Zm9.1-27.36a2.37,2.37,0,0,1,2.41,2.13l-2.88,14v.31c-.76,3.35-3.17,5.06-4.81,5.06-1.06,0-2.94-.06-2.94-4.76C321.21,507.72,324.44,496.75,329.43,496.75Z"/><path class="cls-2" d="M359.61,496c-2.94,0-5.87,6.77-7.1,12.56,4.57-.25,8.56-4.94,8.56-10.06C361.07,496.93,360.72,496,359.61,496Z"/><path d="M359.14,492.72c-12,0-15.85,14.69-15.85,21.7s3.64,9.69,9.1,9.69c4.69,0,8.92-2.07,10.15-9-1.87,1.71-4.69,3.23-6.92,3.23-2.06,0-3.64-1.22-3.64-5.06,0-.55.06-1.22.11-1.83,7.05-.42,13.51-5.79,13.51-12.86C365.6,495.53,364.36,492.72,359.14,492.72Zm-6.63,15.79c1.23-5.79,4.16-12.56,7.1-12.56,1.11,0,1.46,1,1.46,2.5C361.07,503.57,357.08,508.26,352.51,508.51Z"/><path d="M389.45,518.11a3.55,3.55,0,0,1-.72.09c-1.64,0-2.41-.55-2.41-2.26a8.56,8.56,0,0,1,.24-2l6.75-32.9-8.69,1.21-6.28,30.53a20.34,20.34,0,0,0-.47,4c0,5.12,2.76,7.31,6.28,7.31a10.55,10.55,0,0,0,6.49-2.22A15.12,15.12,0,0,1,389.45,518.11Z"/><path class="cls-2" d="M415.56,528.4c6.42,0,8.41-5.35,9.73-8.9l3.54-9.55-6.4,2.87L427.3,489H411.24a12.77,12.77,0,0,0-2.9-.31c-6.22,0-10.87,3.45-14,8.17L398.58,476l-17.4,2.44L374.29,512a24.37,24.37,0,0,0-.56,4.84c0,6.94,4.19,11.6,10.42,11.6a14.71,14.71,0,0,0,9-3,11.54,11.54,0,0,0,7.92,3,12.69,12.69,0,0,0,7.79-2.65A9.36,9.36,0,0,0,415.56,528.4Zm-31.41-4.29c-3.52,0-6.28-2.19-6.28-7.31a20.34,20.34,0,0,1,.47-4l6.28-30.53,8.69-1.21L386.56,514a8.56,8.56,0,0,0-.24,2c0,1.71.77,2.26,2.41,2.26a3.55,3.55,0,0,0,.72-.09,15.12,15.12,0,0,0,1.19,3.78A10.55,10.55,0,0,1,384.15,524.11Zm25.66-5.67c-1.77,2.8-4.58,5.67-8.75,5.67-4,0-7.81-2.56-7.81-9.81,0-8.23,4.87-21.33,15.09-21.33,3.34,0,4.75,1.34,4.75,3.11v.42l.65-3.23h8.45L418,514a8.56,8.56,0,0,0-.24,2c0,1.71.76,2.26,2.41,2.26a2.78,2.78,0,0,0,1.29-.25c-1.59,4.27-2.7,6.16-5.87,6.16S410.28,522,409.81,518.44Z"/><path class="cls-2" d="M409.75,512.83l2.81-13.77a2.31,2.31,0,0,0-2.4-2.31c-5,0-8.22,11-8.22,16.69,0,4.7,1.88,4.76,2.93,4.76C406.58,518.2,409,516.37,409.75,512.83Z"/><path d="M415.56,524.11c3.17,0,4.28-1.89,5.87-6.16a2.78,2.78,0,0,1-1.29.25c-1.65,0-2.41-.55-2.41-2.26a8.56,8.56,0,0,1,.24-2l4.22-20.72h-8.45l-.65,3.23v-.42c0-1.77-1.41-3.11-4.75-3.11-10.22,0-15.09,13.1-15.09,21.33,0,7.25,3.82,9.81,7.81,9.81,4.17,0,7-2.87,8.75-5.67C410.28,522,412.39,524.11,415.56,524.11Zm-13.62-10.67c0-5.72,3.23-16.69,8.22-16.69a2.31,2.31,0,0,1,2.4,2.31l-2.81,13.77c-.71,3.54-3.17,5.37-4.88,5.37C403.82,518.2,401.94,518.14,401.94,513.44Z"/><polygon class="cls-4" points="314.5 249.4 269.55 256.31 281.97 281.24 321.54 273.37 314.5 249.4"/><path class="cls-4" d="M258.86,308.28l9.34-11.49,6,1.48,3.12-14.46-10.6-21.27L258,307.44C258.27,307.72,258.57,308,258.86,308.28Z"/><path class="cls-4" d="M228.48,238.21,221,258.37l17.75,50.5c2.89.12,5.82.66,7.62-1.5a8.69,8.69,0,0,1,4.1-3Z"/><polygon class="cls-4" points="417.53 268.67 445.93 248.55 427.61 239.61 398.95 255.81 417.53 268.67"/><polygon class="cls-4" points="445.83 366.48 460.36 315.46 449.57 251.61 420.69 273.73 445.83 366.48"/><polygon class="cls-4" points="521.48 305.79 516.87 283.37 473.62 291.64 483.25 314.77 521.48 305.79"/><polygon class="cls-4" points="528.72 349.42 543.59 391.18 574.62 389.94 555.77 343.57 528.72 349.42"/><path class="cls-4" d="M519.28,355.93c1.82,3.48,1.17,7.81-.23,14.81-1.81,9.1-6.32,7.62-12.68,8.63s-5.79,8-13.05,9c-1.91.27-2.93-.27-3.44-1.29l-19.59,20.75,1,11.65-2.64,4.87c13.53.31,24.61.63,33.71.94l36.13-31.41-15.07-42.34Z"/><polygon class="cls-4" points="118.78 268.85 126.11 284.77 156.54 275.31 147.51 262.79 118.78 268.85"/><path class="cls-4" d="M114.45,327.12a18.7,18.7,0,0,1,5.33,4.08l20.82-9.76,17.12-42.55-31.75,11Z"/><polygon class="cls-4" points="59.06 333.81 71.24 298.99 52.81 299.46 38.55 330.48 59.06 333.81"/><path class="cls-4" d="M63.94,337.25l22.47,28.08a12,12,0,0,1-.07-2.94C87.1,354.66,93.6,351,94,347.7s-3.83-6.46-2.54-10.93c1-3.61,2.9-4.86,5-5.24l-21-31.34Z"/><path class="cls-4" d="M223.59,360.36l6.61,3.72L233,346l21.35,4.81c3-1,6.57-.92,10.05-1l-4-12.51-38.24,9.91Z"/><polygon class="cls-4" points="170.03 290.56 199.58 303.8 209.95 288.54 181.55 278.95 170.03 290.56"/><path class="cls-4" d="M171.07,307.15l.15-.07,23.53,32.32.6,14.76c6.87-.57,5,6.6,9.11,7.73a10.5,10.5,0,0,1,1.39.51l-7-53.36-30.62-15Z"/><path class="cls-4" d="M335.67,382.62l-.84-30.95L315,363.31l7,32.89.34.34Z"/><polygon class="cls-4" points="353.03 293.26 384.04 273.57 369.3 262.43 339 277.83 353.03 293.26"/><polygon class="cls-4" points="355.3 364.35 360.01 366.63 368.53 324.18 383.28 321.16 386.65 277.18 354.74 299.01 355.3 364.35"/><polygon class="cls-4" points="259.16 313.48 289.31 324.52 297.95 308.78 269.28 301.27 259.16 313.48"/><path class="cls-4" d="M268.19,349.59c2.9-.32,5.6-1.11,7.72-3.24,7-7.06,11.72-7.35,15.78-5.27l-2.64-11.36L257.7,317Z"/><path class="cls-4" d="M300.61,379.47a9.42,9.42,0,0,1-5.17,3.37l4.06,12.34a13.11,13.11,0,0,1,4.2-2.39Z"/><path class="cls-4" d="M23.49,401.69c.83-2.74,2.79-5.38.7-8.5-5.92-8.83.48-8.87,5.46-10.39a10.85,10.85,0,0,1,6.91.22l2.13-26L13,356.13l-6,48Z"/><path class="cls-4" d="M41.71,385.38c1.46.8,3,1.73,4.82,2.81,7.84,4.73,5.22,7.21,4.36,11.91-.75,4.18,4.33,6.47,4.68,10.67l20.06,12.07L72.1,404.26l18-12.09-46.13-34Z"/><polygon class="cls-4" points="146.93 357.96 186.39 337.21 169.46 314.34 123.85 335.79 146.93 357.96"/><path class="cls-4" d="M181.1,415.05a13.09,13.09,0,0,1-6.64,1.67c-6.68.06-14.29-7.23-14.43-14.45s5.75-10.53,5.75-13.64-4.45-6.09-3.72-10.27c1.62-9.06,11-2,14.17-6.2,4.73-6.26,9.39-1.41,14.14,2.6L189,342.4l-40,21,8.43,59.64c7.41-.1,14.83-.2,22.16-.28Z"/><polygon class="cls-4" points="130.65 399.41 115.89 380.76 78.96 405.66 98.78 422.94 130.65 399.41"/><polygon class="cls-4" points="386.19 351.64 424.54 342.01 417.9 319.14 374.35 328.1 386.19 351.64"/><polygon class="cls-4" points="364.65 368.87 377.17 374.92 381.71 354.36 371.61 334.28 364.65 368.87"/><path class="cls-4" d="M390.41,406.6l-1.13-11c-3.84-4.14-10.46-7.11-9.56-13.6l-23.64-11-1.5,23.14Z"/><path class="cls-4" d="M351.59,399.73l-13.23,13.32a20.49,20.49,0,0,0,3.79,1.71c4.39,1.42,13.45,2.52,19.51,7.87l14.36.16,13.57-11.35Z"/><path class="cls-5" d="M219.16,321.45l2.32,20.41,4.35-1.12c0-.3-.05-.58,0-.88.58-5.85,4.44-9.35,6.45-12.15-1.12-.81-2.26-1.6-3.4-2.37A33.7,33.7,0,0,0,219.16,321.45Z"/><path class="cls-5" d="M427.7,360.28c-.62.1-1.27.27-1.93.43l-.85,2.66c2.8,1.59,5.31,4.22,8.1,6.46,4.54,3.67,5.68,7.71,5.17,13.57l29.95-.17,1.48,17,11.95-12.65c-4.74-5.1-8.94-10.07-15.52-12.85a26.61,26.61,0,0,0-4.47-1.43c-.76-.17-1.52-.34-2.34-.46a24.69,24.69,0,0,1-9.26-3.52c-3.44-2.05-6.55-4.54-9.88-6.44A18.29,18.29,0,0,0,427.7,360.28Z"/><path class="cls-5" d="M313.79,357.62l7.89-4.63a4.21,4.21,0,0,0-.29-1.46c-1.25-2.82-6.7-3.62-4.59-8.3s8.25-1.23,11.2-4.44c2.79-3,4.72-3.18,6.42-2.37L334,319.66c-3-.14-6-.14-9-.07s-6,.16-8.64.16a13.42,13.42,0,0,0-2,.17,30.74,30.74,0,0,0-5.88,1.66c-.7.26-1.4.54-2.11.85Z"/><path class="cls-5" d="M237,398l-8.92-20,1.78-11.65c-3.13-.17-6.33-.19-9.56-.06a84.14,84.14,0,0,0-9.89,1c-1.26.2-2.52.38-3.75.65a60.77,60.77,0,0,0-10.58,3.86l.27,6.65a5.33,5.33,0,0,0,4.9-1.1c11.17-8.83,17.89,1.77,18.63,8.59a11.86,11.86,0,0,1-.07,2.78Z"/><path class="cls-5" d="M89.36,376.05c-1.57,1.9-3.1,3.81-4.65,5.6l10,7.39L117.1,374l6.56,8.43L120.17,361a43.27,43.27,0,0,0-12.74,1.4C99.41,364.52,94.14,370.26,89.36,376.05Z"/><path class="cls-5" d="M338.36,413.05a23.29,23.29,0,0,1-4-2.84c-3.38-3-6-6.71-8.71-10a38.56,38.56,0,0,0-3.32-3.63l-.34-.34a17.88,17.88,0,0,0-4.58-3.08,15.28,15.28,0,0,0-6.53-1.41,26.76,26.76,0,0,0-3.54.24,17.54,17.54,0,0,0-3.68.84,13.11,13.11,0,0,0-4.2,2.39l8.86,27c15.87.09,34.12.24,53.3.45-6.06-5.35-15.12-6.45-19.51-7.87A20.49,20.49,0,0,1,338.36,413.05Z"/><polygon class="cls-4" points="414.98 388.96 422.85 416.52 465.54 414.4 463.07 388.65 414.98 388.96"/><path class="cls-4" d="M417.54,418.47,410.83,395,399.41,423.1l16,.24Z"/><polygon class="cls-4" points="237.38 351.9 233.71 374.6 273.28 385.24 282.06 362.01 237.38 351.9"/><path class="cls-4" d="M278.1,388.07l11.86,34,13.36,0L285.6,368.26Z"/><path class="cls-4" d="M188.72,404.08l-3.21,18.65,22.52-.24,2-28.87Z"/><path class="cls-6" d="M282,286.49l-2.81,13,23.4,5.74,3.67,17.2c.71-.31,1.41-.59,2.11-.85l13.75-43.07Z"/><path class="cls-6" d="M234,309.72l-17.23-49-40.47-10.1,11.74,26,27.05,8.66,4.11,36.16a33.7,33.7,0,0,1,9.7,3.89c1.14.77,2.28,1.56,3.4,2.37a5.72,5.72,0,0,0,1.21-2.53c.41-3.34-3.83-6.47-2.54-10.94A7.12,7.12,0,0,1,234,309.72Z"/><path class="cls-6" d="M421.57,313.33l9.06,32.25-3.78,11.78.85,2.92a18.29,18.29,0,0,1,12.4,2.6l-24.25-89.44-17.23-12.62,15.78,54Z"/><path class="cls-6" d="M481.57,387.58l8.42-8.92a11.63,11.63,0,0,0-.29-4.79c-1.82-5.05-10.44-6.81-6.81-14.9s13.19-1.62,18.08-7.07c2.18-2.42,4-3.72,5.63-4.28l15-37-38.76,9.1-16.8,55C472.63,377.51,476.83,382.48,481.57,387.58Z"/><path class="cls-6" d="M570.21,395.84l-26.48,1.07-33,28.7c10.11.42,17.19.86,22.25,1.33Z"/><path class="cls-6" d="M101.64,331.52c2,.08,3.91-.08,5.2-1.62a9.24,9.24,0,0,1,3.79-2.94l12-38.58L116.12,273,99.86,328.86Z"/><path class="cls-6" d="M60.08,339.46l-19.37-3.79,29,34.89,15,11.09c1.55-1.79,3.08-3.7,4.65-5.6Z"/><path class="cls-6" d="M211.93,293.08l-9.37,14.8,7.85,59.43a84.14,84.14,0,0,1,9.89-1Z"/><polygon class="cls-6" points="350.34 298.33 337.5 283.25 340 378.08 350.94 366.64 350.34 298.33"/><path class="cls-6" d="M317.45,393.12l-17.12-80-7.72,15.22,3.73,16.09c1.3,1.12,2.6,2.31,4,3.41,6.94,5.58,6,12,3.25,24.53-.11.53-.25,1-.38,1.47L307.38,392a26.76,26.76,0,0,1,3.54-.24A15.28,15.28,0,0,1,317.45,393.12Z"/><path class="cls-6" d="M143,362.11l-19.69-18.93,7.93,49,6.41,8.24,1.73,23,12.26-.19Z"/><path class="cls-6" d="M386.21,356.73l-4.45,20.1c6-9.12,19.71-1.28,26.86-8.48,4.78-4.81,8.49-6.46,11.66-6.38l4.81-15Z"/><path class="cls-6" d="M334.4,410.21,349,395.47l2-21.87-25.4,26.57C328.42,403.5,331,407.21,334.4,410.21Z"/><path class="cls-6" d="M233.81,379.53l9.82,22,38.28,20.55H285l-11.07-31.77Z"/><path class="cls-6" d="M215.41,392.44l-.95,30c21.5-.2,41-.31,56.17-.34Z"/></g></g></svg>