<svg xmlns="http://www.w3.org/2000/svg" viewBox="0 0 80.88 43.81"><defs><style>.cls-1{fill:#cf3339}.cls-2{fill:#fff}</style></defs><title>logo-saputo</title><g id="Layer_2" data-name="Layer 2"><g id="content"><path d="M72.49,7h.56l.62,1.77h0L74.28,7h.55V9.27h-.37V7.53h0l-.63,1.74H73.5l-.63-1.74h0V9.27h-.38Z" class="cls-1"/><path d="M75.31,7h.93a1.06,1.06,0,0,1,.45.09.83.83,0,0,1,.31.24,1.11,1.11,0,0,1,.18.36,1.64,1.64,0,0,1,0,.88,1,1,0,0,1-.18.36.83.83,0,0,1-.31.24,1.06,1.06,0,0,1-.45.09h-.93ZM75.7,9h.39a.86.86,0,0,0,.38-.07.55.55,0,0,0,.23-.17.64.64,0,0,0,.11-.25,1.72,1.72,0,0,0,0-.64.71.71,0,0,0-.11-.25.55.55,0,0,0-.23-.17,1,1,0,0,0-.38-.06H75.7Z" class="cls-1"/><path d="M78.18,7h.35l-.91,2.36h-.34Z" class="cls-1"/><path d="M80.88,8.14a1.21,1.21,0,0,1-.09.48,1.12,1.12,0,0,1-.26.38,1.13,1.13,0,0,1-.36.24,1.33,1.33,0,0,1-.45.08,1.14,1.14,0,0,1-.46-.09A1,1,0,0,1,78.89,9a1.2,1.2,0,0,1-.33-.84,1.06,1.06,0,0,1,.1-.48,1.09,1.09,0,0,1,.25-.38A1.18,1.18,0,0,1,79.28,7a1.28,1.28,0,0,1,.89,0,1.13,1.13,0,0,1,.36.24,1.12,1.12,0,0,1,.26.38A1.21,1.21,0,0,1,80.88,8.14Zm-.25,0a1.23,1.23,0,0,0-.07-.39,1,1,0,0,0-.19-.31.8.8,0,0,0-.29-.2.86.86,0,0,0-.36-.08.85.85,0,0,0-.35.08.72.72,0,0,0-.29.2.83.83,0,0,0-.2.31,1.23,1.23,0,0,0-.07.39,1.17,1.17,0,0,0,.07.38.87.87,0,0,0,.18.31.78.78,0,0,0,.29.21.87.87,0,0,0,.37.08,1,1,0,0,0,.36-.07,1.15,1.15,0,0,0,.29-.2,1.08,1.08,0,0,0,.19-.31A1.24,1.24,0,0,0,80.63,8.14Zm-1.14.68h-.21V7.51h.49a.6.6,0,0,1,.36.09.32.32,0,0,1,.12.28.3.3,0,0,1-.1.26.4.4,0,0,1-.24.1l.36.58H80l-.34-.56h-.2Zm.24-.75h.12a.14.14,0,0,0,.09,0A.13.13,0,0,0,80,8a.18.18,0,0,0,0-.11.16.16,0,0,0,0-.1.18.18,0,0,0-.07,0l-.09,0h-.36v.38Z" class="cls-1"/><ellipse cx="39.09" cy="21.9" class="cls-1" rx="39.09" ry="21.9"/><path d="M7.13,23.06C6.58,25.13,7.41,27,10,27a3,3,0,0,0,3.06-2.1c.33-1.39-.44-2.2-1.35-3.12l-.86-.9c-1.12-1.14-2-2.17-1.57-3.89.59-2.45,3.18-4,6.1-4a5.44,5.44,0,0,1,3.72,1.27,1.7,1.7,0,0,1-1,3.09.41.41,0,0,1-.18-.06c.51-1.58,0-3.34-2.23-3.34-1.24,0-2.76.66-3,1.79s.62,2.15,1.44,3l.78.77c1.24,1.2,2.25,2.34,1.81,4.21-.64,2.68-3.32,4.26-6.48,4.26a6,6,0,0,1-4.44-1.61C4,24.16,6.09,23,7.13,23.06Z" class="cls-2"/><path d="M29.07,33.15l3.07-6.79h0a2.47,2.47,0,0,0,2.49,1.44c4,0,6.7-3.82,7-6.63a3.61,3.61,0,0,0,0-.81c-.12-1.36-1-2.36-3-2.36a5.23,5.23,0,0,0-3.61,1.45l-.05,0,.33-.76a3.39,3.39,0,0,0-2-1.68L27,31.35A3.61,3.61,0,0,0,29.07,33.15Zm9.6-12.57c-.2,1.59-2.13,6-4.58,6a1.16,1.16,0,0,1-1.18-1.44c.17-1.34,2-5.94,4.43-5.94A1.18,1.18,0,0,1,38.67,20.58Z" class="cls-2"/><path d="M28.27,26.46a1,1,0,0,1-.48.13c-.38,0-.45-.51-.42-.77A8.59,8.59,0,0,1,28,24.18l2.81-5.95a4,4,0,0,0-2.83,0l-.69,1.2A2.46,2.46,0,0,0,24.77,18c-3.92,0-7.13,3.76-7.48,6.61-.21,1.72.7,3.2,3,3.2a5.7,5.7,0,0,0,4.37-2.32l.05,0a6.57,6.57,0,0,0-.18.8c-.1.81.53,1.48,1.56,1.48a4.17,4.17,0,0,0,1.81-.45l.4-.88Zm-1.76-6c-.2,1.59-2.4,6-4.88,6A1.15,1.15,0,0,1,20.51,25c.19-1.57,2.31-5.83,4.71-5.83C26.17,19.21,26.59,19.76,26.51,20.47Z" class="cls-2"/><path d="M52.4,22.16,54.05,19l-1.48-.1-1.37-.12-.79,1.43c-.75,1.43-3.18,6.18-5.41,6.18-.47,0-.77-.18-.72-.58A38.15,38.15,0,0,1,46.15,22a9.2,9.2,0,0,0,1-2.56c.11-.87-.64-1.41-1.67-1.41a5.82,5.82,0,0,0-2.84,1,2.66,2.66,0,0,1,.23.55,2.92,2.92,0,0,1,.7-.18.37.37,0,0,1,.41.46c0,.36-1.68,3.63-1.68,3.63a10,10,0,0,0-1.09,2.65c-.13,1.08.77,1.75,2,1.74a6.6,6.6,0,0,0,5.14-3.11l.05.05a5.75,5.75,0,0,0-.4,1.45,1.43,1.43,0,0,0,1.58,1.61,4.68,4.68,0,0,0,2.73-1h0a1.37,1.37,0,0,1-.08-.67s0-.06,0-.09a1.58,1.58,0,0,1-.8.34c-.43,0-.44-.42-.41-.68A17.19,17.19,0,0,1,52.4,22.16Z" class="cls-2"/><path d="M68.92,18.1c-1.47-1-4-1.84-8.51-1.94l1-2.28a3.89,3.89,0,0,0-2.77,0l-1.1,2.31c-3,.14-6.49.93-12.9-.35l-.17.27c3.57,1.48,9,1.8,12.26,1.8l-2.34,4.91c-.21.46-.48,1.05-.72,1.64a5.08,5.08,0,0,0-.5,1.66c-.12,1,.76,1.72,2,1.72a5.36,5.36,0,0,0,3.51-1.67v0a2.57,2.57,0,0,1-.28-.63,6.79,6.79,0,0,1-.62.53,1.85,1.85,0,0,1-1,.41c-.52,0-.57-.37-.53-.7a13,13,0,0,1,1-2.55l2.46-5.45c2.45-.24,5.51-.58,7.12.4a8.87,8.87,0,0,0-6.12,2.58,6.26,6.26,0,0,0-1.5,3.34,4.84,4.84,0,0,0,0,1.14c.31,1.59,1.75,2.65,4,2.65,3.8,0,7.13-3,7.49-6a3.34,3.34,0,0,0-.66-2.68,5.75,5.75,0,0,1,2.47,1.66,3,3,0,0,0,1.55-1.48C73.55,18.85,71.41,18.22,68.92,18.1Zm-3.1,7.17c-1.8,2.5-4.66,2.56-3.64-1,.15-.56,1.46-5.14,5.35-5.49a2.53,2.53,0,0,1,.35.84C68.16,21,67.07,23.56,65.82,25.27Z" class="cls-2"/></g></g></svg>