<svg xmlns="http://www.w3.org/2000/svg" viewBox="0 0 540.59 337.17"><defs><style>.cls-1,.cls-4{fill:#f5821f;}.cls-2{fill:#002764;}.cls-3{fill:#231f20;}.cls-4{font-size:18px;font-family:ArialMT, Arial;}</style></defs><g id="Layer_2" data-name="Layer 2"><g id="skip_logos" data-name="skip logos"><path class="cls-1" d="M255.26,0c91,0,239,38.5,239,127,0,8.5-6,30.5-29,30.5-8.75,0-25.5-3.5-32.75-3.5s-32.75,7-40.5,7-21-5-26-7.75-21-5-36,0-25.25,9-37,9-24.75-8.25-30.75-12.5S241,140,226.51,140s-56,7.25-78.5,12-54.25,7-71.75,7-59.5-3-59.5-45.5C16.76,56.5,129.26,0,255.26,0Z"/><path class="cls-2" d="M413.59,57.83c-44.67-27.33-131-35-160-35-98.33,0-159.67,26.34-192.33,50.67s-37.67,52.67-37.67,61.67c5,5.33,17.67,9.33,65.33,9.33s115.67-27.33,134.34-32,37-3.33,48,18.67,33,24,61,3,37.33-5.34,48,7.66,22.66,9.34,35-2.33,21.66-2,34.66,4.33,29.67.67,29.67-16S458.26,85.17,413.59,57.83ZM90.09,116.5c-11.33.5-19.83-9.17-10.67-9.83s12.5-2.17,13.67-6.84c.61-2.43,3.5-8.16,8.67-.66S101.42,116,90.09,116.5ZM150.59,83c-14,4-20.5-5.17-9.67-5s10.67-9.17,10.67-9.17c-.5-3.66.5-7.5,6.17-3.83S164.59,79,150.59,83Zm88.67-21.33c-11.67,3.83-24.34-4.5-16-5.84s13.16-1.33,11.83-6.33c-.77-2.9-2.67-7,5.33-4.17S250.92,57.83,239.26,61.67ZM268.76,86c-7.84,1.17-12-6.17-6-6s6.5-4.67,6.5-4.67c0-2.5,1.83-6.83,5.33-1.66S276.59,84.83,268.76,86Zm38.66-28c-10.66,4.33-28.5-4.17-15-7,4.17-.67,9.67-1.67,10.84-6.33.16-3,3-8.17,9.5-4.5S318.09,53.67,307.42,58Zm92.34,27.17c-6.5,4.33-15.17,1.66-18-1.67s-.17-5,6.5-5.33,6.16-3.5,6.16-3.5c-1.66-2.84-1.5-7,4.34-3.5S406.26,80.83,399.76,85.17Z"/><path class="cls-1" d="M259.59,242.17c18,0,53.33,4.66,68.33,7.33s87.34-.33,108-3.33,64.67-3,64,20-17.66,38-36.33,49-43.33,18-93.67,13.66-108.66-11-186.33-2.66-136.67,4.33-165.33-25-15-54-15-54,7.66-2.67,30.33,2.33,77.67,7,119.67,4.67S217.92,242.17,259.59,242.17Z"/><path class="cls-2" d="M5.26,250.17c10.66,8.33,46.33,23.33,102.33,23.33s118.33-10.67,125.67-11,37.33-3,69,2,73.66,9.33,117.33,2.33,66-11,66.67.34-6.67,22.33-35.67,34.66-68.33,11.34-102,9.34-106.33-8-182-3.67-103.67,4-124.33-8.33S2.26,271.5,5.26,250.17Z"/><path class="cls-3" d="M27.59,177.67H56.76v2.5c-1.67,0-4.67.83-4.67,2.16V196.5h17V182.17s-.67-1.84-3.83-1.84V177.5H93.42v2.67c-2.66,0-5,.66-5,2.83v34.5c0,1.17,2.34,2.17,4.34,2.17v2.83h-28v-2.83c1.66,0,4.83-.34,4.83-2V203.33H52.09v14.34c0,1.33,2.5,2.16,4.17,2.16v2.67h-28V220c1,0,4.5.17,4.5-2V183.5c0-1.5-3.17-2.67-5.17-2.67Z"/><path class="cls-3" d="M160,215.62c-1.63-2.87-16.88-37.74-16.88-37.74H112.38l.13,2.74a3.65,3.65,0,0,1,3.5,4.63c-.75,1.87-12.88,28.5-14.75,31.75a4,4,0,0,1-4.88,2.12v3.5h22v-3.24h-3c-2.37,0-2-2.26-1.5-3.63S116,210.5,116,210.5h20.5s.62,1.25,1.87,4.5-2.12,4.62-4.12,4.62v3H165v-2.87C163,219.75,161.63,218.5,160,215.62ZM118.38,203.5,126,186.38l7.75,17.12Z"/><path class="cls-3" d="M226.76,217c-1.88-1.5-12.38-15.12-12.38-15.12,10.13-3.26,11.5-7.88,11.5-11.38,0-12-20.12-12.88-25.37-12.88H168.63l-.25,3.5c.5,0,4.75.13,4.75,1.76v33.37c0,2.25-2,3.25-4.37,3.25v2.88h27.5V219.5a3.57,3.57,0,0,1-3.88-3.25V204.38h4.88l12.12,18.12h22.75v-3.12C230.38,219.38,228.63,218.5,226.76,217Zm-34.5-18.25V183.88s15.12-1,15.12,7.37S192.26,198.75,192.26,198.75Z"/><path class="cls-3" d="M227.88,177.5h31.25v3c-1.5,0-5.5.88-4,5.25S265,209.5,265,209.5s9-22.25,9.87-24.38-.12-4.74-3.12-4.74v-2.63h21.62v2.87c-1.5,0-3.75-.74-6.62,5.63s-16.25,36.13-16.25,36.13H250.63s-16.12-35.76-17.5-38.26a6.46,6.46,0,0,0-5.37-3.5Z"/><path class="cls-3" d="M296.26,177.62h50.62V189.5h-3.25c0-1.62-1.5-5.38-4.87-5.38H320.63V195.5h8.88c2.25,0,4.87-2.5,4.87-4h3.5v15.38h-3.62c0-2.5-1.88-4.38-3.5-4.38H320.38v12.88h20.25a5.7,5.7,0,0,0,5.75-5.76h2.75V222.5H296.26v-2.62c2.37,0,5.12-1.13,5.12-4.88V183.5c0-1.62-3.37-3.12-5.12-3.12Z"/><path class="cls-3" d="M416.13,177.62H427v8.13c0,2.13-5,7.5-11.38,11-1.25.63-4-.25-2-2.37s2.88-4.38,2.88-8.26S416.13,177.62,416.13,177.62Z"/><path class="cls-3" d="M350.26,177.88h30v2.62c-2.25,0-4.13,1.5-2.75,4.62s8.25,13.76,8.25,13.76,7.5-11.63,8.5-13.26A3.4,3.4,0,0,0,391,180.5v-2.62h19.62v2.74c-3.25,0-4.12,2.26-5.25,4.13s-14.5,22-14.5,22v9.87c0,1.38,2.38,3.13,4.63,3.13v2.75H365.38v-3.25c1.88,0,5.63-1.37,5.63-3V207s-15.38-22.25-16.38-23.88a4.85,4.85,0,0,0-4.12-2.37Z"/><path class="cls-3" d="M455.26,177.5c4.87,0,16.25,1.25,19.87,3.25v10.63h-3.62a3.9,3.9,0,0,0-1.63-3.13,20.15,20.15,0,0,0-13.5-4.87c-7.62,0-10.12,2.74-10.12,4.37s2.25,3.63,11.37,6,20.75,4.13,20.75,15.5-14,14.25-26.12,14.25-21.25-2.75-22.88-3.88V208h4.13c0,1,1.25,9.88,17.62,9.88,3.13,0,11.25-1.26,11.25-5.63s-11.5-5.5-16.25-7-16.37-5.25-16.37-15S440.63,177.5,455.26,177.5Z"/><text class="cls-4" transform="translate(471.92 330.72)">TM/MD</text></g></g></svg>