<svg xmlns="http://www.w3.org/2000/svg" xmlns:xlink="http://www.w3.org/1999/xlink" viewBox="0 0 648.61 164.58"><defs><style>.cls-1{fill:none;}.cls-2{clip-path:url(#clip-path);}.cls-3{fill:#ffffff;}</style><clipPath id="clip-path" transform="translate(-44.8 -45.32)"><rect class="cls-1" width="738.35" height="254.85"/></clipPath></defs><g id="Layer_2" data-name="Layer 2"><g id="skip_logos" data-name="skip logos"><g class="cls-2"><path class="cls-3" d="M121.48,46.9a9.5,9.5,0,0,1,10.5,0,230.84,230.84,0,0,1,23.21,16.71s2,1.4,2.06-1c0,0-.33-7,.52-9.11a4.12,4.12,0,0,1,3.87-2.8s9.12.46,14.9,1.23a5.65,5.65,0,0,1,4.77,5.14s3.73,24.83,4.56,33.78c0,0,.73,4.56,7.32,12.28,0,0,13.31,18.68,14.95,22.36,0,0,3.13,6.5-3.57,7.36,0,0-12.24,1.23-13.4,1.52a3,3,0,0,0-2.74,3.31s0,.06,0,.09-.64,43.18-3.8,63.93c0,0-.82,8.23-5.39,8,0,0-12.56-.41-15.48-.32,0,0-1.28.09-1.08-1.69,0,0,6.4-67.34,2.05-101.39,0,0-.17-4.39-3.54-5.31,0,0-3-1.23-6,2.8,0,0-19.91,25.29-19.88,60.76,0,0-.37,10.77,1.28,13.52,0,0,1,1.88,6.21,2.31l6.59.88s1.23,0,1.12,1.61c0,0-1.51,19.75-1.94,23.26a7,7,0,0,1-.49,2.34s-.24.66-2.31.59c0,0-29-.21-32.31,0,0,0-1.36.14-1.67-.71s-2-25.51-2-29a1.81,1.81,0,0,1,1-1.73A17.45,17.45,0,0,0,119,164.83s.41-2.05.16-11.3c0,0,1.07-37.89,1.34-44,0,0,.23-2-2.46-2.44a2.49,2.49,0,0,0-3,1.85c0,.08,0,.15,0,.23s-1.88,25-1.52,34.94c0,0,.64,6.47-3.82,6.59,0,0-4.37.65-4.56-4.72,0,0,.32-24.31,1.38-36.31a2.57,2.57,0,0,0-2.39-2.61,2.62,2.62,0,0,0-3,2.18,1.5,1.5,0,0,0,0,.22S99.15,132.73,99.5,145c0,0,.54,6-4.21,5.72,0,0-4,.47-4.19-4.81,0,0,1.09-33.27,1.37-35.85a2.7,2.7,0,0,0-2.32-3l-.27,0A2.57,2.57,0,0,0,87,109.24c0,.08,0,.17,0,.25S85.2,149.27,85.46,161c0,0-.17,12,8.71,16.9,0,0,1.3.76,1.33,1.9,0,0,1,21.11,1.9,27.92,0,0,.33,1.62-1.12,1.62L74,209.9s-3.7.26-4.55-4.33c-.73-4.27-4.82-39.5-4.15-67.43a3.39,3.39,0,0,0-2.72-3.66s-11.43-1.06-14.19-1.75A4.73,4.73,0,0,1,45,127a4.82,4.82,0,0,1,.5-1.22s24.73-47,76-78.84" transform="translate(-44.8 -45.32)"/><path class="cls-3" d="M364.21,105.19a2.3,2.3,0,0,0-2.21-2.94l-19.64,0L318.29,183.9l-9.16-39.66,28-38.24a2.15,2.15,0,0,0,.41-.83l.5-1.68a1,1,0,0,0-.94-1.24h-20l-21.41,31.37,9.14-28.43a2.3,2.3,0,0,0-2.21-2.94H282.9L265.81,160.3c.38-10-7.35-17.83-11.85-22.8-3.65-4.05-5.85-6.93-5.45-10.13a9.14,9.14,0,0,1,8.65-8c4.92-.39,7,1.12,10.16,2.58a2.64,2.64,0,0,0,1.16.28,2.53,2.53,0,0,0,.94-.18,2.3,2.3,0,0,0,1.39-1.48l4.6-15.53-3.18-1.48-.46-.22-.16-.06a29.41,29.41,0,0,0-12-2.35c-17.31,0-33.06,12.39-35.65,27.63-1.82,10.66,5,18.18,10,23.68l.44.47c3.6,3.87,6.1,6.88,5.51,10.36-.82,4.88-5.57,7.66-10.14,8-5,.41-8.18-1-12.11-2.72a3.4,3.4,0,0,0-2.27-.42,2.38,2.38,0,0,0-1.61,1.58l-4.39,15-.56,1.91a46,46,0,0,0,18.58,4.37c14.74,0,27.5-5.67,35.07-19.34l-4.47,15.23a2.33,2.33,0,0,0,.37,2,2.28,2.28,0,0,0,1.84.92H280l4.93-16.77,6-8.66,4.63,23.58a2.3,2.3,0,0,0,2.26,1.85h41.52Z" transform="translate(-44.8 -45.32)"/><path class="cls-3" d="M417,108.85a20.27,20.27,0,0,0-15.11-6.58H369.21l-1.39,4.63a1.54,1.54,0,0,0,.17,1.27l.93,1.46a5.75,5.75,0,0,1,.65,4.81l-21.23,72.3a2.3,2.3,0,0,0,2.17,3h19l5.94-20.09,8.58,0c20.72.27,31.22-14.28,35.91-30.09,1.91-6.46,2.82-11.1,2.79-14.2-.07-6.92-1.76-12.13-5.72-16.51m-15.75,18.42a41.33,41.33,0,0,1-3.6,13.41c-2.44,5.44-4.7,9.5-11.13,10.23l-5.59,0,8.76-29.75,7.36,0a3.7,3.7,0,0,1,2.72,1.07c1.15,1.17,1.59,2.84,1.48,5" transform="translate(-44.8 -45.32)"/><path class="cls-3" d="M493.36,102.27h-5.92l-7.65,26.23c-1,3.49-2.48,4.8-4.51,4.8a2.71,2.71,0,0,1-2.83-3.22,12.45,12.45,0,0,1,.29-1.58l7.4-25.19a.81.81,0,0,0-.78-1h-5.8l-7.5,25.62a12,12,0,0,0-.45,2.41c-.41,5.63,3.49,9.07,8.73,9.07,5.42,0,10.09-3.39,12.41-11.2l7.3-25a.72.72,0,0,0-.69-.92" transform="translate(-44.8 -45.32)"/><path class="cls-3" d="M457.85,114.23c-.27,4.38-3.59,18.42-10.24,18.42h-2.2l7.14-24.32h2c1.92,0,3.56,1.69,3.31,5.9m-1.6-12h-9.18l-10.46,35.43a.78.78,0,0,0,.75,1l8.64,0c13.82,0,18.64-17.33,19.07-24.59.48-8-4-11.87-8.82-11.87" transform="translate(-44.8 -45.32)"/><path class="cls-3" d="M564.34,101.31c-6.43,0-12.91,4.8-14,11.36-.69,4.38,2.09,7.5,4.08,9.85,1.57,1.8,2.84,3.39,2.52,5.41a5.41,5.41,0,0,1-5.19,4.6,8.76,8.76,0,0,1-4.8-.85,1.07,1.07,0,0,0-1.59.68l-1.57,5.37a19.6,19.6,0,0,0,7,1.29,14.48,14.48,0,0,0,14.25-11.84c.7-4.43-2.06-7.72-4.05-10.07-1.52-1.81-2.79-3.39-2.48-5.3a5.13,5.13,0,0,1,4.75-4.38,9,9,0,0,1,4,.71,1.14,1.14,0,0,0,1.56-.65c0-.11,1.45-4.92,1.45-4.92a15.37,15.37,0,0,0-6-1.26" transform="translate(-44.8 -45.32)"/><path class="cls-3" d="M542.75,117.13h-6.36l2.62-8.8h9.35l1.47-5.07a.78.78,0,0,0-.75-1H533.65l-10.41,35.46a.78.78,0,0,0,.75,1h15.42l1.47-5.07a.78.78,0,0,0-.74-1h-8.33l2.83-9.45H542l1.51-5.07a.77.77,0,0,0-.74-1" transform="translate(-44.8 -45.32)"/><path class="cls-3" d="M591.71,103.33a.84.84,0,0,0-.81-1.06H573.49l-1.41,5a.83.83,0,0,0,.8,1.06h4.59l-8.58,29.31a.84.84,0,0,0,.81,1.07h6l8.92-30.38h5.7Z" transform="translate(-44.8 -45.32)"/><path class="cls-3" d="M606.41,113.2c-.42,5.68-4.53,20-9.5,20-2.07,0-2.63-2.13-2.4-5.3.42-5.74,4.43-20.16,9.45-20.16,2.08,0,2.69,2.18,2.45,5.41m-1.56-11.54c-11,0-16.77,17.76-17.38,26.13-.46,6.44,2.06,11.58,8.61,11.58,11,0,16.75-17.65,17.37-26,.47-6.45-2-11.7-8.6-11.7" transform="translate(-44.8 -45.32)"/><path class="cls-3" d="M519.27,112.16c-.26,3.49-2.38,7.1-5.76,7.1h-2.19l3.26-10.93h1.91c1.8,0,3,1.15,2.78,3.83m7.26-.66c.38-5.19-2.93-9.23-8-9.23h-9.07l-10.39,35.41a.8.8,0,0,0,.77,1h5.81l3.93-13.38H512v12.58a.8.8,0,0,0,.81.8h6.35l-.63-14.64c3.6-1.31,7.53-6.5,8-12.57" transform="translate(-44.8 -45.32)"/><path class="cls-3" d="M558.14,176.92h-5.85l8-17.37Zm6.9-23.66h-7l-17.7,35.27a.82.82,0,0,0,.74,1.18h5.56l3-6.72h7.55l-.76,5.8a.82.82,0,0,0,.81.92h5.63l3-35.56a.83.83,0,0,0-.82-.89" transform="translate(-44.8 -45.32)"/><path class="cls-3" d="M560.6,150.44h3.73l-1.47-6.37a1,1,0,0,0-1-.78h-5.35l3.16,6.58a1,1,0,0,0,.91.57" transform="translate(-44.8 -45.32)"/><path class="cls-3" d="M670.7,152.31c-6.43,0-12.9,4.8-13.94,11.36-.7,4.37,2.08,7.49,4.07,9.84,1.58,1.81,2.85,3.39,2.53,5.41a5.4,5.4,0,0,1-5.2,4.6,8.72,8.72,0,0,1-4.79-.84,1.07,1.07,0,0,0-1.59.67l-1.58,5.38a19.6,19.6,0,0,0,7,1.29,14.47,14.47,0,0,0,14.25-11.85c.7-4.42-2.06-7.72-4.05-10.06-1.52-1.81-2.78-3.39-2.48-5.3a5.14,5.14,0,0,1,4.76-4.38,8.94,8.94,0,0,1,4,.71,1.15,1.15,0,0,0,1.57-.65l1.45-4.93a15.56,15.56,0,0,0-6-1.25" transform="translate(-44.8 -45.32)"/><path class="cls-3" d="M604.53,153.27h-5.94L587,178.71l2.53-24.55a.81.81,0,0,0-.81-.89h-6l-3,35.58a.78.78,0,0,0,.78.86h7.07l17.75-35.27a.81.81,0,0,0-.73-1.17" transform="translate(-44.8 -45.32)"/><path class="cls-3" d="M619.76,164.19c-.42,5.69-4.53,20.06-9.5,20.06-2.07,0-2.63-2.13-2.4-5.3.42-5.74,4.43-20.17,9.45-20.17,2.08,0,2.69,2.19,2.45,5.41m-1.56-11.53c-11,0-16.76,17.76-17.38,26.12-.46,6.45,2,11.59,8.61,11.59,11,0,16.76-17.65,17.36-26,.48-6.45-2-11.7-8.59-11.7" transform="translate(-44.8 -45.32)"/><path class="cls-3" d="M654.65,153.27h-5.92l-7.65,26.23c-1,3.49-2.48,4.8-4.5,4.8a2.71,2.71,0,0,1-2.83-3.22,12.12,12.12,0,0,1,.29-1.58l7.39-25.19a.81.81,0,0,0-.78-1h-5.79l-7.51,25.62a12,12,0,0,0-.44,2.41c-.41,5.62,3.49,9.06,8.73,9.06,5.41,0,10.09-3.38,12.41-11.2l7.3-25a.72.72,0,0,0-.7-.92" transform="translate(-44.8 -45.32)"/><path class="cls-3" d="M484.57,158.49c0-.11,1.44-4.92,1.44-4.92a15.39,15.39,0,0,0-6-1.26c-6.42,0-12.89,4.8-13.94,11.36-.7,4.37,2.09,7.5,4.08,9.84,1.58,1.81,2.84,3.39,2.52,5.42a5.39,5.39,0,0,1-5.19,4.59,8.66,8.66,0,0,1-4.8-.85,1.08,1.08,0,0,0-1.59.69l-1.57,5.37a19.6,19.6,0,0,0,7,1.29,14.47,14.47,0,0,0,14.25-11.85c.7-4.43-2.06-7.71-4.05-10.07-1.52-1.8-2.79-3.38-2.48-5.3a5.13,5.13,0,0,1,4.76-4.37,9,9,0,0,1,4,.71,1.15,1.15,0,0,0,1.57-.65" transform="translate(-44.8 -45.32)"/><path class="cls-3" d="M537.73,153.27H531.8l-7.65,26.23c-1,3.49-2.47,4.8-4.5,4.8a2.7,2.7,0,0,1-2.82-3.22,12.21,12.21,0,0,1,.28-1.58l7.39-25.19a.8.8,0,0,0-.77-1h-5.8l-7.5,25.62a12,12,0,0,0-.45,2.41c-.41,5.62,3.49,9.06,8.73,9.06,5.41,0,10.09-3.38,12.41-11.2l7.3-25a.71.71,0,0,0-.69-.92" transform="translate(-44.8 -45.32)"/><path class="cls-3" d="M544.78,159.84h.55a9.25,9.25,0,0,1-2.65,2.88,1,1,0,0,0-.15,1.49l1.31,1.45c3.46-2.27,6.14-5.93,6.38-9.27.2-2.67-1.5-4.09-3.52-4.09a4.93,4.93,0,0,0-4.75,4.31,2.77,2.77,0,0,0,2.83,3.23" transform="translate(-44.8 -45.32)"/><path class="cls-3" d="M464.15,153.27h-5.92l-7.65,26.23c-1,3.49-2.48,4.8-4.5,4.8a2.71,2.71,0,0,1-2.83-3.22,12.21,12.21,0,0,1,.28-1.58l7.4-25.19a.81.81,0,0,0-.78-1h-5.8l-7.5,25.62a12.77,12.77,0,0,0-.45,2.41c-.4,5.62,3.49,9.06,8.74,9.06,5.41,0,10.08-3.38,12.4-11.2l7.31-25a.72.72,0,0,0-.7-.92" transform="translate(-44.8 -45.32)"/><path class="cls-3" d="M437.78,153.27H432l-8,27c-.8,2.79-2.31,4-4.61,4a4.14,4.14,0,0,1-2.61-.95.79.79,0,0,0-1.2.19L413,188c1.41,1.58,4,2.34,6.61,2.34,5.84,0,9.23-3,11.26-9.78l7.74-26.25a.82.82,0,0,0-.79-1.06" transform="translate(-44.8 -45.32)"/><path class="cls-3" d="M498.16,180.09l-.21-2.31a1,1,0,0,0-.95-.87h-4.14l.63,7.33h0c-2.07,0-2.63-2.14-2.39-5.3.41-5.74,4.41-20.17,9.44-20.17,2.08,0,2.68,2.19,2.45,5.41a46,46,0,0,1-4.81,15.9M510,164.36c.48-6.45-2-11.7-8.59-11.7-11,0-16.77,17.76-17.38,26.12-.47,6.45,2.06,11.59,8.61,11.59a8.74,8.74,0,0,0,1.37-.11l.05.48a1,1,0,0,0,1,.88h4.19l-.3-3.36c6.95-4.92,10.62-17.3,11.09-23.9" transform="translate(-44.8 -45.32)"/><polygon class="cls-3" points="643.46 108.39 643.46 113.45 642.52 113.45 642.52 110.17 641.21 112.89 640.55 112.89 639.24 110.17 639.24 113.45 638.31 113.45 638.31 108.39 639.33 108.39 640.83 111.58 642.33 108.39 643.46 108.39"/><path class="cls-3" d="M691.34,158.86a1.93,1.93,0,0,1-2.15-2.15v-1a1.93,1.93,0,0,1,2.15-2.15,2,2,0,0,1,2.06,1.41l-.84.37a1.14,1.14,0,0,0-1.22-.84,1.09,1.09,0,0,0-1.22,1.21v1.13a1.09,1.09,0,0,0,1.22,1.22,1.25,1.25,0,0,0,1.22-.94l.84.28a1.87,1.87,0,0,1-2.06,1.5" transform="translate(-44.8 -45.32)"/></g></g></g></svg>