<svg xmlns="http://www.w3.org/2000/svg" viewBox="0 0 318.9 172.72"><defs><style>.cls-1{fill:#cf3339}.cls-2{fill:#fff}</style></defs><g id="Layer_2" data-name="Layer 2"><g id="en"><path d="M285.82,27.65H288l2.46,7h0l2.39-7h2.17v8.89h-1.48V29.68h0l-2.46,6.86h-1.29l-2.46-6.86h0v6.86h-1.48Z" class="cls-1"/><path d="M296.92,27.65h3.68a4.2,4.2,0,0,1,1.77.35,3.22,3.22,0,0,1,1.22.95,4.21,4.21,0,0,1,.71,1.42,6.62,6.62,0,0,1,0,3.46,4.07,4.07,0,0,1-.71,1.41,3.22,3.22,0,0,1-1.22.95,4.05,4.05,0,0,1-1.77.35h-3.68Zm1.55,7.62H300a3.88,3.88,0,0,0,1.48-.24,2.19,2.19,0,0,0,.91-.67,2.45,2.45,0,0,0,.45-1A6.17,6.17,0,0,0,303,32.1a6.1,6.1,0,0,0-.12-1.25,2.39,2.39,0,0,0-.45-1,2.21,2.21,0,0,0-.91-.68,3.88,3.88,0,0,0-1.48-.24h-1.54Z" class="cls-1"/><path d="M308.26,27.44h1.36L306,36.76h-1.35Z" class="cls-1"/><path d="M318.9,32.1a4.7,4.7,0,0,1-.37,1.9,4.26,4.26,0,0,1-1,1.47,4.56,4.56,0,0,1-1.45,1,4.78,4.78,0,0,1-3.59,0,4.28,4.28,0,0,1-1.44-1A4.33,4.33,0,0,1,310.1,34a5.23,5.23,0,0,1,0-3.76,4.41,4.41,0,0,1,2.46-2.41,4.56,4.56,0,0,1,1.76-.34,4.49,4.49,0,0,1,4.19,2.75A4.72,4.72,0,0,1,318.9,32.1Zm-1,0a4.33,4.33,0,0,0-.27-1.56,3.88,3.88,0,0,0-.76-1.22,3.48,3.48,0,0,0-1.14-.79,3.39,3.39,0,0,0-1.39-.28,3.45,3.45,0,0,0-1.41.28,3.38,3.38,0,0,0-1.14.79,3.55,3.55,0,0,0-.76,1.22,4.13,4.13,0,0,0-.28,1.56,4.52,4.52,0,0,0,.25,1.49,3.72,3.72,0,0,0,.72,1.22,3.31,3.31,0,0,0,1.12.83,3.69,3.69,0,0,0,2.89,0,3.37,3.37,0,0,0,1.14-.8,3.83,3.83,0,0,0,.76-1.21A4.33,4.33,0,0,0,317.9,32.1Zm-4.48,2.66h-.85V29.61h2a2.28,2.28,0,0,1,1.4.35,1.3,1.3,0,0,1,.48,1.13,1.26,1.26,0,0,1-.39,1,1.8,1.8,0,0,1-1,.39l1.45,2.26h-1l-1.33-2.2h-.8Zm.94-2.92.46,0a1.12,1.12,0,0,0,.38-.11.75.75,0,0,0,.26-.24.8.8,0,0,0,.1-.44.61.61,0,0,0-.11-.38.75.75,0,0,0-.26-.21,1.06,1.06,0,0,0-.37-.09l-.38,0h-1v1.51Z" class="cls-1"/><ellipse cx="154.12" cy="86.36" class="cls-1" rx="154.12" ry="86.36"/><path d="M28.11,90.92c-2.15,8.15,1.11,15.37,11.47,15.37,5.81,0,10.89-3.36,12.07-8.28,1.28-5.46-1.75-8.68-5.33-12.31l-3.38-3.52c-4.42-4.51-7.79-8.58-6.17-15.33,2.29-9.69,12.51-15.74,24-15.74,6.11,0,10.89,1.73,14.65,5,7.65,7.71-1.82,12.64-3.92,12.18a2.22,2.22,0,0,1-.72-.23c2-6.25-.14-13.17-8.81-13.17-4.87,0-10.86,2.6-11.92,7-1.2,5,2.41,8.48,5.66,11.78l3.07,3C63.71,81.48,67.71,86,66,93.32c-2.51,10.56-13.09,16.79-25.55,16.79-6.87,0-13.68-2.06-17.49-6.35C15.58,95.25,24,90.85,28.11,90.92Z" class="cls-2"/><path d="M114.63,130.7,126.71,104h.2c1.5,3.58,4.9,5.66,9.83,5.66,15.55,0,26.41-15.06,27.76-26.12a15.52,15.52,0,0,0,.07-3.23c-.46-5.36-4.09-9.29-11.83-9.29a20.57,20.57,0,0,0-14.22,5.73l-.19-.16,1.28-3a13.38,13.38,0,0,0-7.82-6.6l-25.4,56.69A14.24,14.24,0,0,0,114.63,130.7Zm37.84-49.55c-.78,6.26-8.39,23.68-18.05,23.68-3.85,0-5-3-4.67-5.66.67-5.31,7.93-23.43,17.48-23.43C151.18,75.74,152.81,78.27,152.47,81.15Z" class="cls-2"/><path d="M111.47,104.34a4.47,4.47,0,0,1-1.9.51c-1.51,0-1.79-2-1.65-3.06.15-1.39,1.77-5,2.49-6.44l11.06-23.47a15.88,15.88,0,0,0-11.16,0l-2.72,4.75c-1.48-3.67-4.9-5.67-9.93-5.67-15.45,0-28.11,14.81-29.48,26-.83,6.8,2.74,12.62,11.75,12.62,7.31,0,13.4-4.27,17.22-9.14l.2.16a25.63,25.63,0,0,0-.71,3.16c-.42,3.19,2.07,5.82,6.14,5.82a16.66,16.66,0,0,0,7.13-1.75l1.57-3.47Zm-7-23.63c-.78,6.25-9.47,23.67-19.22,23.67-3.65,0-4.78-3.14-4.45-5.67.75-6.17,9.14-23,18.59-23C103.19,75.74,104.86,77.92,104.52,80.71Z" class="cls-2"/><path d="M206.59,87.39l6.51-12.61s-3.64-.25-5.81-.38c-1.59-.1-5.41-.47-5.41-.47l-3.13,5.62c-2.93,5.66-12.54,24.4-21.32,24.4-1.84,0-3-.72-2.84-2.29.23-1.91,7.35-15.09,7.35-15.09,1.53-2.87,3.79-7.21,4.14-10.07.43-3.42-2.55-5.58-6.61-5.58-3.53,0-7.66,1.57-11.21,3.77a8.76,8.76,0,0,1,.92,2.18,11.5,11.5,0,0,1,2.78-.75A1.47,1.47,0,0,1,173.55,78c-.16,1.4-6.61,14.31-6.61,14.31-1.54,3-3.91,7.4-4.29,10.46-.51,4.26,3,6.88,8,6.85,8.57,0,15.39-5.6,20.26-12.26l.2.19a21.76,21.76,0,0,0-1.57,5.72c-.4,3.32,1.8,6.35,6.2,6.35a18.29,18.29,0,0,0,10.77-4v-.05a5.42,5.42,0,0,1-.31-2.61c0-.12,0-.23,0-.35a6.78,6.78,0,0,1-3.14,1.34c-1.7,0-1.73-1.68-1.6-2.71C201.88,97.82,205,90.87,206.59,87.39Z" class="cls-2"/><path d="M271.73,71.37c-5.77-4-15.87-7.24-33.56-7.66l4.05-9a15.17,15.17,0,0,0-10.92,0L227,63.81c-11.7.53-25.58,3.66-50.87-1.41l-.67,1.09c14.1,5.83,35.64,7.08,48.33,7.08l-9.21,19.36c-.81,1.81-1.91,4.13-2.83,6.47a19.42,19.42,0,0,0-2,6.56c-.47,3.9,3,6.76,7.86,6.76,5.56,0,10.25-3.26,13.83-6.59l0-.13a10.89,10.89,0,0,1-1.09-2.51,29,29,0,0,1-2.46,2.12,7.15,7.15,0,0,1-3.95,1.59c-2,0-2.24-1.44-2.08-2.73.31-2.43,2.76-7.65,3.92-10.06l9.67-21.49c9.67-1,21.73-2.31,28.1,1.55-9.19.71-18.39,3.55-24.13,10.2a24.36,24.36,0,0,0-5.92,13.15,18.71,18.71,0,0,0,.12,4.49c1.22,6.26,6.9,10.45,15.82,10.45,15,0,28.09-11.82,29.52-23.53a13.29,13.29,0,0,0-2.61-10.58c5,1.92,8.76,5,9.72,6.56a11.73,11.73,0,0,0,6.12-5.85C290,74.31,281.56,71.85,271.73,71.37ZM259.5,99.63c-7.08,9.87-18.35,10.11-14.35-3.94.62-2.22,5.75-20.25,21.11-21.64a9.12,9.12,0,0,1,1.38,3.3C268.74,82.87,264.46,92.91,259.5,99.63Z" class="cls-2"/></g></g></svg>