<svg xmlns="http://www.w3.org/2000/svg" xmlns:xlink="http://www.w3.org/1999/xlink" viewBox="0 0 499.48 736.81"><defs><style>.cls-1{fill:none;}.cls-2{isolation:isolate;}.cls-3{fill:#cf3339;}.cls-4{fill:#fff;}.cls-5{fill:#edb458;}.cls-6{fill:#7f5b49;}.cls-7{fill:#d19d50;}.cls-8{fill:#b68400;}.cls-9{fill:#4197cb;}.cls-10{fill:#009ade;}.cls-11{opacity:0.3;mix-blend-mode:multiply;}.cls-12{clip-path:url(#clip-path);}.cls-13{fill:#ff8000;}</style><clipPath id="clip-path"><rect class="cls-1" x="27.03" y="606.58" width="458.11" height="158.12"/></clipPath></defs><g class="cls-2"><g id="Layer_2" data-name="Layer 2"><g id="logo_fr" data-name="logo fr"><path class="cls-3" d="M378.4,67.61h2.19l2.46,7h0l2.39-7h2.17V76.5h-1.48V69.64h0l-2.46,6.86h-1.29l-2.46-6.86h0V76.5H378.4Z"/><path class="cls-3" d="M389.5,67.61h3.68A4.14,4.14,0,0,1,395,68a3.22,3.22,0,0,1,1.22,1,4.21,4.21,0,0,1,.71,1.42,6.62,6.62,0,0,1,0,3.46,4.07,4.07,0,0,1-.71,1.41,3.22,3.22,0,0,1-1.22,1,4,4,0,0,1-1.77.35H389.5Zm1.55,7.62h1.54a4,4,0,0,0,1.49-.24,2.22,2.22,0,0,0,.9-.67,2.45,2.45,0,0,0,.45-1,6.17,6.17,0,0,0,.12-1.25,6.1,6.1,0,0,0-.12-1.25,2.39,2.39,0,0,0-.45-1,2.24,2.24,0,0,0-.9-.68,4,4,0,0,0-1.49-.24h-1.54Z"/><path class="cls-3" d="M400.84,67.4h1.36l-3.57,9.32h-1.36Z"/><path class="cls-3" d="M411.48,72.06a4.7,4.7,0,0,1-.37,1.9,4.24,4.24,0,0,1-1,1.47,4.6,4.6,0,0,1-1.46.95,4.78,4.78,0,0,1-3.59,0,4.28,4.28,0,0,1-1.44-1,4.33,4.33,0,0,1-.95-1.47,4.91,4.91,0,0,1-.34-1.85,4.75,4.75,0,0,1,.37-1.91,4.43,4.43,0,0,1,1-1.47,4.71,4.71,0,0,1,3.22-1.28,4.46,4.46,0,0,1,1.74.34,4.57,4.57,0,0,1,1.46.94,4.43,4.43,0,0,1,1,1.47A4.75,4.75,0,0,1,411.48,72.06Zm-1,0a4.33,4.33,0,0,0-.27-1.56,3.71,3.71,0,0,0-.76-1.22,3.42,3.42,0,0,0-2.53-1.07,3.48,3.48,0,0,0-1.41.28,3.38,3.38,0,0,0-1.14.79,3.55,3.55,0,0,0-.76,1.22,4.33,4.33,0,0,0-.28,1.56,4.52,4.52,0,0,0,.25,1.49,3.72,3.72,0,0,0,.72,1.22,3.35,3.35,0,0,0,1.13.83,3.58,3.58,0,0,0,1.49.31,3.64,3.64,0,0,0,1.4-.28,3.33,3.33,0,0,0,1.13-.8,3.66,3.66,0,0,0,.76-1.21A4.33,4.33,0,0,0,410.48,72.06ZM406,74.72h-.85V69.57h2a2.33,2.33,0,0,1,1.41.35,1.32,1.32,0,0,1,.47,1.13,1.26,1.26,0,0,1-.39,1,1.74,1.74,0,0,1-1,.39l1.45,2.26h-1l-1.33-2.2H406ZM407,71.8l.45,0a1.06,1.06,0,0,0,.38-.11.67.67,0,0,0,.26-.24.78.78,0,0,0,.1-.44.61.61,0,0,0-.1-.38.71.71,0,0,0-.27-.21,1.06,1.06,0,0,0-.36-.09l-.39,0h-1V71.8Z"/><path class="cls-3" d="M96.38,64.27l-2.28,2.2,5.24,5.44-3.69,3.57L81,60.32l6-5.77c3.72-3.58,7.59-3.28,10.28-.5C99.7,56.56,100.25,60.54,96.38,64.27ZM93.27,61.6c1.47-1.42,1.39-2.75.26-3.92s-2.46-1.3-3.93.12l-2,1.94,3.66,3.8Z"/><path class="cls-3" d="M113,60.13l-4.1,3.08L98.88,49.83l4.1-3.08L104.66,49a6.23,6.23,0,0,1,2.41-5.53l3.26,4.34-1.12.85c-1.95,1.46-2.57,3-.84,5.28Z"/><path class="cls-3" d="M115.24,28.81l2.05,3.42-4.63,6.32-1.83-3Zm10,23.42c-4.21,2.54-8.94,1.53-11.68-3s-1.45-9.17,2.82-11.73,8.82-1.52,11.44,2.85a12.84,12.84,0,0,1,.7,1.33l-10,6c1.28,1.78,3,2,4.37,1.11A2.72,2.72,0,0,0,124.44,46l4.68-2.81A7.81,7.81,0,0,1,125.28,52.23Zm-8.12-7,5.51-3.3a2.9,2.9,0,0,0-4.19-.85A3.17,3.17,0,0,0,117.16,45.18Z"/><path class="cls-3" d="M140.57,44.11c-4,1.91-7.82.94-9.42-1.89l4.58-2.17a2.35,2.35,0,0,0,3.17.67c1.19-.57,1.56-1.4,1.24-2.08C139,36.2,131.57,41.85,129,36.29c-1.22-2.58,0-5.73,3.94-7.6s7.1-.7,8.81,2.15l-4.29,2a2.21,2.21,0,0,0-3-.66c-1.08.51-1.48,1.23-1.13,2,1.14,2.42,8.53-3.16,11.27,2.45C145.76,39.24,144.36,42.32,140.57,44.11Z"/><path class="cls-3" d="M156.15,37.6c-4.61,1.7-9.08-.16-10.92-5.14s.28-9.29,5-11,8.94.14,10.71,4.93a12,12,0,0,1,.44,1.43l-10.89,4c.93,2,2.55,2.48,4.1,1.91a2.73,2.73,0,0,0,1.94-2.45l5.12-1.89A7.82,7.82,0,0,1,156.15,37.6Zm-6.67-8.44,6-2.23a2.89,2.89,0,0,0-3.95-1.61A3.18,3.18,0,0,0,149.48,29.16Z"/><path class="cls-3" d="M174.76,22c-.61-2.2-2.16-3.08-4-2.56s-2.76,2.07-2.16,4.27L171,32.45l-4.94,1.36-4.46-16.13,4.95-1.37.59,2.14a6.14,6.14,0,0,1,4.25-3.66c3.73-1,6.92.83,8.11,5.17l2.6,9.42-4.91,1.36Z"/><path class="cls-3" d="M183.56,16.37l-2,.42-.87-4.18,2-.41-.83-4,5-1.05.83,4,3.29-.68.87,4.17-3.29.68L190,21.91c.2,1,.7,1.3,1.81,1.06l1.8-.37.88,4.26-2.56.53c-3.4.71-6.08-.24-7-4.5Z"/><path class="cls-3" d="M204.33,25.5c-4.87.72-8.85-2-9.64-7.28s2.18-9,7.11-9.76,8.72,2,9.47,7a11.77,11.77,0,0,1,.14,1.49l-11.49,1.71a3.11,3.11,0,0,0,3.62,2.71,2.72,2.72,0,0,0,2.4-2l5.4-.8A7.83,7.83,0,0,1,204.33,25.5ZM204,0l.59,4L197.91,8l-.52-3.5Zm-4.5,15.87,6.35-.95a2.89,2.89,0,0,0-3.54-2.38A3.16,3.16,0,0,0,199.53,15.87Z"/><path class="cls-3" d="M222.33,23.43c-4.91.4-8.7-2.59-9.14-7.89s2.76-8.86,7.72-9.27,8.57,2.54,9,7.62a12.36,12.36,0,0,1,0,1.5l-11.57,1c.36,2.17,1.79,3.07,3.43,2.94a2.73,2.73,0,0,0,2.53-1.84l5.44-.45A7.83,7.83,0,0,1,222.33,23.43Zm-4.16-9.92,6.39-.53a2.89,2.89,0,0,0-3.37-2.61A3.16,3.16,0,0,0,218.17,13.51Z"/><path class="cls-3" d="M249.68,5.23c4.11,0,7.35,3.38,7.3,8.65s-3.36,8.61-7.47,8.57a6,6,0,0,1-5.13-2.63l-.1,10.32-5.13-.05.24-24.71,5.13,0,0,2.37A5.93,5.93,0,0,1,249.68,5.23Zm-1.57,4.46c-1.92,0-3.68,1.43-3.7,4.1S246.11,18,248,18s3.7-1.47,3.73-4.14S250.06,9.71,248.11,9.69Z"/><path class="cls-3" d="M266.79,5.84a5.83,5.83,0,0,1,5,3l.17-2.36L277,6.8l-1.18,16.7-5.12-.36.17-2.36A5.94,5.94,0,0,1,265.55,23c-4.07-.29-7.09-3.87-6.72-9.14S262.69,5.55,266.79,5.84ZM268,10.41c-1.91-.14-3.75,1.18-3.94,3.84s1.45,4.28,3.36,4.42,3.75-1.21,3.94-3.88S269.92,10.54,268,10.41Z"/><path class="cls-3" d="M284.34,24.59l-5.09-.65,2.13-16.6,5.09.65-.36,2.77a6.24,6.24,0,0,1,5.59-2.28L291,13.86l-1.4-.18c-2.41-.3-3.92.35-4.28,3.21Z"/><ellipse class="cls-3" cx="246.7" cy="126.32" rx="154.12" ry="86.36"/><path class="cls-4" d="M120.69,130.88c-2.15,8.15,1.11,15.37,11.47,15.37,5.81,0,10.89-3.36,12.07-8.28,1.29-5.46-1.75-8.68-5.33-12.31l-3.38-3.52c-4.42-4.51-7.79-8.58-6.17-15.33,2.29-9.69,12.51-15.74,24-15.74,6.11,0,10.89,1.73,14.66,5,7.65,7.71-1.83,12.64-3.93,12.18a2.08,2.08,0,0,1-.71-.23c2-6.25-.15-13.17-8.82-13.17-4.87,0-10.86,2.6-11.92,7-1.2,5,2.41,8.48,5.66,11.78l3.07,3c4.9,4.77,8.89,9.25,7.14,16.61C156,143.84,145.45,150.07,133,150.07c-6.87,0-13.68-2.06-17.49-6.35C108.17,135.22,116.58,130.81,120.69,130.88Z"/><path class="cls-4" d="M207.21,170.66l12.08-26.75h.21c1.49,3.58,4.9,5.66,9.82,5.66,15.56,0,26.41-15.06,27.76-26.12a15.91,15.91,0,0,0,.08-3.23c-.47-5.36-4.1-9.29-11.83-9.29a20.53,20.53,0,0,0-14.22,5.73l-.2-.16,1.28-3a13.35,13.35,0,0,0-7.82-6.6L199,163.57A14.2,14.2,0,0,0,207.21,170.66Zm37.84-49.55c-.78,6.26-8.39,23.68-18.05,23.68-3.85,0-5-3-4.67-5.66.67-5.31,7.93-23.43,17.48-23.43C243.76,115.7,245.39,118.23,245.05,121.11Z"/><path class="cls-4" d="M204.05,144.3a4.47,4.47,0,0,1-1.9.51c-1.5,0-1.79-2-1.65-3.06.16-1.39,1.77-4.95,2.49-6.44l11.06-23.47a15.88,15.88,0,0,0-11.16,0l-2.71,4.75c-1.49-3.67-4.9-5.67-9.94-5.67-15.45,0-28.11,14.81-29.48,26-.83,6.8,2.74,12.62,11.75,12.62,7.31,0,13.4-4.27,17.22-9.14l.2.16a25.63,25.63,0,0,0-.71,3.16c-.41,3.19,2.08,5.82,6.14,5.82a16.67,16.67,0,0,0,7.14-1.75l1.57-3.47Zm-7-23.63c-.78,6.25-9.47,23.67-19.22,23.67-3.65,0-4.77-3.14-4.45-5.67.75-6.17,9.15-23,18.6-23C195.77,115.7,197.44,117.88,197.1,120.67Z"/><path class="cls-4" d="M299.17,127.35l6.51-12.61s-3.64-.25-5.81-.38c-1.58-.1-5.41-.47-5.41-.47l-3.13,5.62c-2.93,5.66-12.54,24.4-21.32,24.4-1.84,0-3-.72-2.84-2.29.23-1.91,7.35-15.09,7.35-15.09,1.53-2.87,3.79-7.21,4.14-10.07.43-3.42-2.54-5.58-6.6-5.58-3.54,0-7.67,1.57-11.21,3.77a9.13,9.13,0,0,1,.91,2.18,11.61,11.61,0,0,1,2.78-.75,1.47,1.47,0,0,1,1.59,1.84c-.16,1.4-6.6,14.31-6.6,14.31-1.55,3-3.92,7.4-4.3,10.46-.5,4.26,3,6.88,8,6.85,8.57,0,15.4-5.6,20.26-12.26l.2.19a22.15,22.15,0,0,0-1.57,5.72c-.39,3.32,1.8,6.35,6.2,6.35a18.35,18.35,0,0,0,10.78-4v-.05a5.3,5.3,0,0,1-.32-2.61c0-.12,0-.23,0-.35a6.78,6.78,0,0,1-3.14,1.34c-1.7,0-1.73-1.68-1.6-2.71C294.46,137.79,297.57,130.83,299.17,127.35Z"/><path class="cls-4" d="M364.31,111.33c-5.77-4-15.87-7.24-33.56-7.66l4.05-9a15.17,15.17,0,0,0-10.92,0l-4.34,9.11c-11.71.53-25.58,3.66-50.87-1.41l-.67,1.09c14.09,5.83,35.63,7.08,48.32,7.08l-9.21,19.36c-.81,1.81-1.91,4.13-2.83,6.47a19.42,19.42,0,0,0-2,6.56c-.46,3.9,3,6.76,7.86,6.76,5.57,0,10.26-3.26,13.84-6.59l0-.12a11.16,11.16,0,0,1-1.09-2.52,30.64,30.64,0,0,1-2.45,2.12,7.21,7.21,0,0,1-3.95,1.59c-2,0-2.25-1.44-2.09-2.73.31-2.43,2.76-7.65,3.92-10.06L328,109.88c9.67-1,21.73-2.31,28.1,1.55-9.19.71-18.39,3.55-24.13,10.2A24.27,24.27,0,0,0,326,134.78a18.84,18.84,0,0,0,.11,4.49c1.22,6.26,6.9,10.45,15.82,10.45,15,0,28.09-11.82,29.52-23.53a13.24,13.24,0,0,0-2.61-10.58c5,1.92,8.76,5,9.73,6.56a11.75,11.75,0,0,0,6.11-5.85C382.59,114.27,374.14,111.81,364.31,111.33Zm-12.23,28.26c-7.08,9.87-18.35,10.11-14.34-3.94.61-2.22,5.75-20.25,21.1-21.64a9.12,9.12,0,0,1,1.38,3.3C361.32,122.83,357,132.87,352.08,139.59Z"/><polygon class="cls-1" points="205.86 408.82 206.67 409.42 206.88 409.2 205.86 408.82"/><polygon class="cls-5" points="281.21 227.09 275.32 206.98 237.68 212.78 248.08 233.7 281.21 227.09"/><path class="cls-5" d="M228.74,256.39l7.81-9.65,5.06,1.25,2.62-12.14L235.35,218,228,255.69Z"/><polygon class="cls-5" points="209.94 394.72 210.34 392.84 209.7 392.59 209.94 394.72"/><polygon class="cls-5" points="207.76 404.81 208.28 402.42 202.86 402.99 207.76 404.81"/><polygon class="cls-5" points="200.31 192.36 162.58 184.52 159.49 203.81 192.91 212.18 200.31 192.36"/><path class="cls-5" d="M211.86,256.89c2.41.1,4.87.55,6.38-1.26a7.21,7.21,0,0,1,3.43-2.53L203.3,197.59,197,214.5Z"/><polygon class="cls-5" points="385.36 206.26 370.01 198.77 346.02 212.36 361.58 223.15 385.36 206.26"/><polygon class="cls-5" points="385.27 305.23 397.44 262.41 388.4 208.83 364.23 227.39 385.27 305.23"/><polygon class="cls-5" points="448.61 254.3 444.75 235.48 408.54 242.43 416.6 261.84 448.61 254.3"/><path class="cls-5" d="M398.46,311,412.76,264l-6.88-16.56-17.13,60.16a20.64,20.64,0,0,0,7.75,2.95C397.19,310.67,397.82,310.81,398.46,311Z"/><path class="cls-4" d="M381,436l5.59-13.8,112.92-94.36-19.26-47.37-31.78,7.17-4.84,5.14a19.43,19.43,0,0,0-3.44-2.93l13.19-32.57-5.21-26.52-44.09,8.41-4.17,14.65-8-47.62L369,194.78l-29.07,15.85,15.21,52-5.77,1.19c.87-6,.19-9.88-4.11-13.36-2.41-1.94-4.58-4.24-7-5.55l1.32-17.24L321.19,213.5l-30.57,15,.77,29a8.53,8.53,0,0,0-6.26,4.8,10,10,0,0,0-1.07,3.63c2.52-.06,5.09-.06,7.56.06L292,280c-1.43-.67-3-.55-5.38,2-2.47,2.7-7.61-.19-9.38,3.73s2.8,4.6,3.85,7a3.78,3.78,0,0,1,.24,1.22l-6.6,3.88-6.29-29.53-3.07-14.43L245.78,249l2.35-10.91,33.59-6.7-11.51,36.15a25.14,25.14,0,0,1,4.92-1.39l11.38-35.71-8.06-28.34-45.84,7-7.87,40.35-20-60.4-45.95-9.5-4.09,27.2,9.64,21.44-.93-.3-14.3,14.73,1.55,7c-3.31.35-6.27,1.43-8.08,5.08-1.42,2.86-1.36,5-.56,6.84l-8.33,3.92,14.11-35.13-11.18-15.86-28.83,5.64-14.51,50L76.61,245.17l-23.1.37L38.75,276.43l19,22.9L49.22,293,19,291.71l-6.16,49.08,51.46,29.63-2.07,7.13,18.68,4.29,27.89,146.91,33-2.67-6.46-85.7,8.7,53.67,39.83,2.37-1.88-46,14.48,16.68,37.73-31.66,13.8,34.3,24.75,1.66L283.63,496l-7.76,19.22,31.48,17.47,43.93-81,21.94-18.33Zm-2-5.31-1.8-.61,3.1-2.59ZM477.32,286l15.78,38.91-26,1-12.45-35Zm-27.08,6.68,12.62,35.54-84.59,73.7,28.33-52.22-.85-9.77,16.4-17.42c.43.85,1.28,1.31,2.88,1.08,6.08-.85,5.61-6.7,10.93-7.55s9.1.39,10.62-7.25c1.17-5.87,1.71-9.51.19-12.42ZM366,347.23l-6.59-23.14,40.27-.25,2.07,21.61Zm-7.15,69.4-7.68,12-160-66.51L192.36,327Zm-48.44,70.92-7.68,2.37-24.51-70.48,11.3,4.42Zm-8.19-37.67-.36-1.11L306,430.29l3.63,1.42Zm-2.87-8.76-5-15.38,7.76,3Zm5,15.38,9.37-23.15,10,3.93-14.54,34ZM168.14,371.4l19.94-5.78,160.67,66.8-5,7.84Zm13.07,61.16-.47-11.3,9.31,5.61-6.64,7Zm-.69-16.65L179.66,395l23.93,17.68-10.38,10.89Zm12.87-29.71-9.43,4L179.3,386l-.16-3.75,1.93-.86Zm12.88,5.05.85,7.52-6.62.71-1.42-10.82.28-.12Zm-9,8.57-3.16.33-8.1-6,10-4.2Zm12.65-5.1-.24-2.13.64.25Zm-1.66,7.7-.52,2.39-4.9-1.82Zm-2.42,6.4,1,.38-.21.22Zm8.52-14.39,3.89,1.52.37.91-6.18,6.49Zm-26.21-88.51-6.58-49.86,7.86-12.42,7,61.43a78.92,78.92,0,0,1,8,.05L203,314.89l7.47,16.77L196,323.91a9.74,9.74,0,0,0,.06-2.34c-.62-5.72-6.24-14.61-15.6-7.2a4.46,4.46,0,0,1-4.1.92l-.23-5.58a51.74,51.74,0,0,1,8.86-3.24C186.06,306.24,187.12,306.1,188.17,305.92ZM254,274.39l2.21,9.52c-3.4-1.74-7.34-1.5-13.21,4.43a10.24,10.24,0,0,1-6.47,2.72l-8.78-27.32Zm15.76,89.2-13.45-7.24-11.47-33,6.27-16.63ZM216,334.64l-8.22-18.46,33.58,9.06,9.87,28.36ZM210.75,293l37.41,8.48L240.8,321,207.68,312ZM230,280.75l3.37,10.49c-2.92.05-5.88,0-8.42.83l-17.87-4-2.31,15.19-5.54-3.13-1.25-11Zm-60,56L187.85,328l-2.31,33.53-20.93,6.68Zm138.87-8.35L310.13,309l19.79,9.2c-.76,5.45,4.79,7.94,8,11.41l.95,9.27Zm14.25-50.23,8.46,16.85-3.8,17.25-10.48-5.07Zm40.75,23.24c-2.65-.07-5.76,1.31-9.76,5.35-6,6-17.44-.54-22.49,7.12l3.72-16.87,32.56-8.19ZM339.64,347c.43,1.3,1.41,2.13,3.32,2.18l-17.87,44.22-9.82-5.28,5.6-25.38ZM329.1,395.52,356,329.12l5.62,19.74L339.31,401Zm115.65-160,3.86,18.82-32,7.54-8.06-19.42Zm-47.31,26.93-12.17,42.82-21-77.84,24.17-18.56ZM370,198.77l15.35,7.49-23.78,16.89L346,212.36Zm-24.27,17.79,14.43,10.59,20.3,75.06c2.79,1.59,5.4,3.68,8.28,5.41l17.13-60.16L412.76,264,398.46,311a21.28,21.28,0,0,1,3.74,1.2L416.27,266l32.45-7.64-12.57,31a12,12,0,0,0-4.71,3.6c-4.1,4.57-12.1-.86-15.14,5.92s4.18,8.28,5.7,12.52a9.65,9.65,0,0,1,.24,4l-7,7.48-10,10.62L404,319.29l-25.07.14c.43-4.92-.53-8.31-4.34-11.39-2.33-1.87-4.43-4.09-6.77-5.42l.71-2.23c.55-.14,1.09-.28,1.61-.36l-.71-2.45,3.17-9.89L365,260.63l-6,1.23Zm16.15,48.94,5.56,19.2-32.11,8.08L325.43,273Zm-29,1.7-12.35,2.54-7.13,35.62-3.94-1.92L309,248.61l26.73-18.32Zm-11.7-49.28,12.34,9.34-26,16.53-11.75-12.95Zm-26.63,17.47L305.33,248l.49,57.32L296.67,315Zm-16.79,92.2a14.87,14.87,0,0,1,3.84,2.58l-5.88-27.6,16.6-9.76.7,26-11.13,11.68a33.9,33.9,0,0,1,2.78,3L306,311.21l-1.72,18.35L292,341.93a19.49,19.49,0,0,0,3.31,2.38l11.08-11.18L338.19,343l-19.13,16a19.34,19.34,0,0,1,.75,6.68c-.11,2.08-1.94,3.72-4.9,5l-3.39,15.35-9-4.87.74-3.67,5.89-4.95c-2.37.56-5,1-7.88,1.4l-4.75,4-5.6-3-16-8.61-12.13-37L259.36,319a7.88,7.88,0,0,0,4.33-2.83l2.58,11.18a15.16,15.16,0,0,1,3.09-.71l-3.53-15.2c.11-.4.23-.79.32-1.23,2.33-10.55,3.09-15.9-2.72-20.59-1.14-.92-2.23-1.92-3.31-2.86L257,273.21l6.47-12.76Zm-16.32-70.78L254.23,270,229,260.76l8.46-10.25ZM275.32,207l5.89,20.11-33.13,6.61-10.4-20.92Zm-40,11,8.88,17.84L241.61,248l-5.06-1.25-7.81,9.65-.75-.7ZM221.67,253.1a7.21,7.21,0,0,0-3.43,2.53c-1.51,1.81-4,1.36-6.38,1.26L197,214.5l6.31-16.91Zm-59.09-68.58,37.73,7.84-7.4,19.82-33.42-8.37Zm-3,23.47,33.88,8.48,14.42,41.13a6,6,0,0,0-2.53,3.79c-1.08,3.75,2.47,6.38,2.13,9.18a4.81,4.81,0,0,1-1,2.13c-1.68,2.35-4.91,5.28-5.39,10.19,0,.25,0,.49,0,.74l-3.64.94-1.94-17.13-3.44-30.34-22.66-7.27ZM164,231.77l23.77,8.06-8.68,12.8-24.74-11.11Zm-11.2,12.68L178.45,257l5.9,44.78a7.06,7.06,0,0,0-1.16-.43c-3.44-.95-1.88-7-7.63-6.49l-.51-12.39-19.69-27.12-.13.06Zm1.07,17,14.18,19.19-33,17.41L115.7,279.47Zm-24.16,5.95-17.43,8.19a15.66,15.66,0,0,0-4.46-3.42L117.47,241l26.58-9.25Zm5.78-49.21,7.57,10.5-25.48,7.94-6.13-13.36Zm-26.27,8.57,5.41,12.9-10,32.38a7.75,7.75,0,0,0-3.17,2.46c-1.08,1.3-2.66,1.43-4.35,1.36l-1.49-2.23ZM92.78,275.9c-1.78.32-3.34,1.37-4.21,4.39-1.08,3.76,2.47,6.39,2.13,9.18s-5.77,5.84-6.41,12.33a10.73,10.73,0,0,0,.06,2.47L65.54,280.7l9.69-31.1ZM56.22,249l15.43-.39-10.2,29.21L44.28,275ZM46.09,279.37l16.21,3.19,24.52,30.7c4-4.86,8.42-9.67,15.13-11.48a36.13,36.13,0,0,1,10.67-1.17l2.92,18-5.49-7.08L91.32,324.16,82.93,318l-12.59-9.31Zm48.62,73.24-16.59-14.5L109,317.22l12.35,15.64Zm-7.3-25.82-15,10.15,3,15.58L58.53,342.4c-.29-3.52-4.55-5.45-3.91-9,.71-3.94,2.91-6-3.66-10-1.5-.91-2.81-1.69-4-2.36l1.86-22.85ZM22.89,296.55l21.51.76-1.78,21.8a9.13,9.13,0,0,0-5.79-.19c-4.17,1.28-9.52,1.32-4.57,8.73,1.75,2.61.1,4.83-.59,7.13l-13.8,2.08ZM22.36,341l10.31-1.55a7.94,7.94,0,0,0,.77.76c5.36,4.68,8.74.35,13,.95a10.61,10.61,0,0,1,3,1l27,16.28,2.93,15.44ZM66.27,374.7l.78-2.69,5.68,3.27-.26.85Zm45.81,149.4L77.94,343.79l14.15,12.36,28.38,167.27Zm12.49-1L96.32,356.55l27.05-20,14,185.51Zm23.6-33.63L131,383l-3.72-49.28-5.36-6.91-6.64-41.09,16.49,15.88,26.59,188.51Zm30.57,1.83-15.48-.92L136.79,302.68,170.28,285l1.11,27.16c-4-3.37-7.88-7.44-11.84-2.19-2.65,3.52-10.51-2.39-11.86,5.21-.62,3.5,3.13,6,3.12,8.62s-4.94,5.38-4.82,11.44,6.49,12.19,12.08,12.13a10.94,10.94,0,0,0,5.56-1.4l-5,26.6,15.5,6.07,2.55,62.25-1.56,1.64,1.71,2Zm2-48.83,42.5-44.56,9.56,3.75-46.63,47.06Zm16.36,18.84-8.28-9.53,48.07-48.52,6.57,2.57,5.38,12.08Zm56.06,4.85-14-34.92,11.33-9.5,16.69,45.37Zm-4.6-58.33,24.86,9.74L299,491.07l-11.73,3.61Zm33,105.12L287,499.53l11.77-3.62L289.6,517.4Zm24.16,13.42-12.23-6.8,10.83-25.36,11.29-3.47-4.25-13L328,438.91l17.49,6.84L365.22,415l-22-11.83,21.95-51.36,36.24-1.8Zm51.75-86.14L371.74,414l95.5-83.21,22.17-.89Z"/><polygon class="cls-5" points="493.1 324.92 477.32 286 454.67 290.92 467.12 325.96 493.1 324.92"/><path class="cls-5" d="M446.58,308.8c-1.52,7.64-5.3,6.4-10.62,7.25s-4.85,6.7-10.93,7.55c-1.6.23-2.45-.23-2.88-1.08l-16.4,17.42.85,9.77-28.33,52.22,84.59-73.7-12.62-35.54-3.47,3.69C448.29,299.29,447.75,302.93,446.58,308.8Z"/><polygon class="cls-5" points="143.07 228.72 135.5 218.22 111.46 223.3 117.59 236.66 143.07 228.72"/><path class="cls-5" d="M107.83,272.2a15.66,15.66,0,0,1,4.46,3.42l17.43-8.19,14.33-35.7L117.47,241Z"/><polygon class="cls-5" points="71.65 248.6 56.22 248.99 44.28 275.02 61.45 277.81 71.65 248.6"/><path class="cls-5" d="M84.35,304.27a10.73,10.73,0,0,1-.06-2.47c.64-6.49,6.08-9.53,6.41-12.33s-3.21-5.42-2.13-9.18c.87-3,2.43-4.07,4.21-4.39L75.23,249.6l-9.69,31.1Z"/><path class="cls-5" d="M198,289.06l1.25,11,5.54,3.13L207.05,288l17.87,4c2.54-.85,5.5-.78,8.42-.83L230,280.75Z"/><polygon class="cls-5" points="179.1 252.63 187.78 239.83 164.01 231.77 154.36 241.52 179.1 252.63"/><polygon class="cls-5" points="194.13 400.15 197.29 399.82 195.99 389.97 186.03 394.17 194.13 400.15"/><path class="cls-5" d="M155.36,255.38l19.69,27.12.51,12.39c5.75-.47,4.19,5.54,7.63,6.49a7.06,7.06,0,0,1,1.16.43L178.45,257l-25.64-12.58,2.42,11Z"/><path class="cls-5" d="M293,318.78l-.7-26-16.6,9.76,5.88,27.6c.1.09.19.19.29.29Z"/><polygon class="cls-5" points="333.54 227.26 321.2 217.92 295.83 230.84 307.58 243.79 333.54 227.26"/><polygon class="cls-5" points="309.48 303.44 313.42 305.36 320.55 269.74 332.9 267.2 335.73 230.29 309 248.61 309.48 303.44"/><polygon class="cls-5" points="237.46 250.5 228.99 260.76 254.23 270.02 261.46 256.81 237.46 250.5"/><path class="cls-5" d="M227.76,263.74l8.78,27.32a10.24,10.24,0,0,0,6.47-2.72c5.87-5.93,9.81-6.17,13.21-4.43L254,274.39Z"/><path class="cls-5" d="M263.69,316.13a7.88,7.88,0,0,1-4.33,2.83l3.4,10.35a11,11,0,0,1,3.51-2Z"/><path class="cls-5" d="M32.26,327.65c-4.95-7.41.4-7.45,4.57-8.73a9.13,9.13,0,0,1,5.79.19l1.78-21.8-21.51-.76-5,40.31,13.8-2.08C32.36,332.48,34,330.26,32.26,327.65Z"/><polygon class="cls-5" points="179.66 394.98 180.52 415.91 193.21 423.55 203.59 412.66 179.66 394.98"/><path class="cls-5" d="M51,323.45c6.57,4,4.37,6.05,3.66,10-.64,3.51,3.62,5.44,3.91,9l16.8,10.12-3-15.58,15-10.15L48.79,298.24l-1.86,22.85C48.15,321.76,49.46,322.54,51,323.45Z"/><polygon class="cls-5" points="115.7 279.47 135.03 298.08 168.06 280.67 153.88 261.48 115.7 279.47"/><path class="cls-5" d="M176.67,440.91l-2.55-62.25-15.5-6.07,5-26.6a10.94,10.94,0,0,1-5.56,1.4c-5.59.06-12-6.06-12.08-12.13s4.81-8.83,4.82-11.44-3.74-5.12-3.12-8.62c1.35-7.6,9.21-1.69,11.86-5.21,4-5.25,7.86-1.18,11.84,2.19L170.28,285l-33.49,17.66,26.47,187.69,15.48.92-1.92-46.77-1.71-2Z"/><polygon class="cls-5" points="109.03 317.22 78.12 338.11 94.71 352.61 121.39 332.86 109.03 317.22"/><polygon class="cls-5" points="123.37 336.54 96.32 356.55 124.57 523.09 137.38 522.05 123.37 336.54"/><polygon class="cls-5" points="325.43 273.02 335.34 292.78 367.45 284.7 361.89 265.5 325.43 273.02"/><polygon class="cls-5" points="299.38 441.12 302.1 428.78 294.34 425.74 299.38 441.12"/><polygon class="cls-5" points="317.31 307.24 327.79 312.31 331.59 295.06 323.13 278.21 317.31 307.24"/><path class="cls-5" d="M309.1,372.57l-5.89,4.95-.74,3.67,9,4.87,3.39-15.35A33.16,33.16,0,0,1,309.1,372.57Z"/><path class="cls-5" d="M338.87,338.9l-.95-9.27c-3.21-3.47-8.76-6-8-11.41L310.13,309l-1.25,19.42Z"/><polygon class="cls-5" points="248.86 417.9 243.48 405.82 236.91 403.25 188.84 451.77 197.12 461.3 248.86 417.9"/><path class="cls-5" d="M290.87,375l5.6,3,4.75-4C298,374.4,294.45,374.71,290.87,375Z"/><path class="cls-5" d="M298.46,345.75c5.05,1.63,17.44,2.74,20.6,13.25l19.13-16-31.82-9.83-11.08,11.18A17.29,17.29,0,0,0,298.46,345.75Z"/><path class="cls-6" d="M195.5,267.44l1.94,17.13,3.64-.94c0-.25,0-.49,0-.74.48-4.91,3.71-7.84,5.39-10.19-.94-.68-1.89-1.35-2.84-2A28.16,28.16,0,0,0,195.5,267.44Z"/><path class="cls-6" d="M370.09,300c-.52.08-1.06.22-1.61.36l-.71,2.23c2.34,1.33,4.44,3.55,6.77,5.42,3.81,3.08,4.77,6.47,4.34,11.39l25.07-.14,1.24,14.26,10-10.62c-4-4.27-7.49-8.45-13-10.77a21.28,21.28,0,0,0-3.74-1.2c-.64-.15-1.27-.29-2-.39a20.64,20.64,0,0,1-7.75-2.95c-2.88-1.73-5.49-3.82-8.28-5.41A15.25,15.25,0,0,0,370.09,300Z"/><path class="cls-6" d="M268.44,268.26l6.29,29.53,6.6-3.88a3.78,3.78,0,0,0-.24-1.22c-1-2.37-5.61-3-3.85-7s6.91-1,9.38-3.73c2.34-2.54,3.95-2.66,5.38-2l-.38-14.06c-2.47-.12-5-.12-7.56-.06s-5,.14-7.24.14a11.54,11.54,0,0,0-1.69.14,25.14,25.14,0,0,0-4.92,1.39C269.63,267.77,269,268,268.44,268.26Z"/><path class="cls-6" d="M176.17,309.71l.23,5.58a4.46,4.46,0,0,0,4.1-.92c9.36-7.41,15,1.48,15.6,7.2a9.74,9.74,0,0,1-.06,2.34l14.4,7.75L203,314.89l1.48-9.77a78.92,78.92,0,0,0-8-.05,69.55,69.55,0,0,0-8.28.85c-1,.18-2.11.32-3.14.55A51.74,51.74,0,0,0,176.17,309.71Z"/><path class="cls-6" d="M91.32,324.16l18.73-12.63,5.49,7.08-2.92-18A36.13,36.13,0,0,0,102,301.78c-6.71,1.81-11.13,6.62-15.13,11.48-1.32,1.6-2.59,3.2-3.89,4.7Z"/><path class="cls-6" d="M272.32,326.4a21.88,21.88,0,0,0-3,.2,15.16,15.16,0,0,0-3.09.71,11,11,0,0,0-3.51,2l12.13,37,16,8.61c3.58-.24,7.09-.55,10.35-1,2.85-.38,5.51-.84,7.88-1.4a33.16,33.16,0,0,0,5.81-1.86c3-1.31,4.79-2.95,4.9-5a19.34,19.34,0,0,0-.75-6.68c-3.16-10.51-15.55-11.62-20.6-13.25a17.29,17.29,0,0,1-3.17-1.44,19.49,19.49,0,0,1-3.31-2.38c-2.83-2.52-5-5.63-7.29-8.43a33.9,33.9,0,0,0-2.78-3c-.1-.1-.19-.2-.29-.29a14.87,14.87,0,0,0-3.84-2.58A12.73,12.73,0,0,0,272.32,326.4Z"/><polygon class="cls-5" points="399.71 323.84 359.44 324.09 366.03 347.23 401.78 345.45 399.71 323.84"/><polygon class="cls-5" points="355.97 329.12 329.1 395.52 339.31 401.01 361.59 348.86 355.97 329.12"/><polygon class="cls-5" points="287 499.53 281.58 512.94 289.6 517.4 298.77 495.91 287 499.53"/><polygon class="cls-5" points="323.82 437.28 313.79 433.35 304.42 456.5 309.28 471.32 323.82 437.28"/><polygon class="cls-5" points="207.68 312.04 240.8 320.97 248.16 301.48 210.75 293 207.68 312.04"/><polygon class="cls-5" points="251.12 306.72 244.85 323.35 256.32 356.35 269.77 363.59 251.12 306.72"/><polygon class="cls-5" points="289.55 423.86 278.25 419.44 302.76 489.92 310.44 487.55 289.55 423.86"/><polygon class="cls-5" points="164.61 368.22 185.53 361.54 187.85 328 170.01 336.79 164.61 368.22"/><path class="cls-7" d="M281.72,231.4l-33.59,6.7L245.78,249l19.59,4.82,3.07,14.43c.6-.25,1.19-.49,1.77-.71Z"/><polygon class="cls-7" points="218.27 395.95 214.38 394.43 212.46 403.35 218.64 396.86 218.27 395.95"/><path class="cls-7" d="M195.5,267.44a28.16,28.16,0,0,1,8.12,3.27c.95.64,1.9,1.31,2.84,2a4.81,4.81,0,0,0,1-2.13c.34-2.8-3.21-5.43-2.13-9.18a6,6,0,0,1,2.53-3.79l-14.42-41.13L159.58,208l9.82,21.84,22.66,7.27Z"/><path class="cls-7" d="M372.55,287.69l-3.17,9.89.71,2.45a15.25,15.25,0,0,1,10.38,2.18l-20.3-75.06-14.43-10.59L359,261.86l6-1.23Z"/><polygon class="cls-7" points="378.93 430.68 380.23 427.48 377.13 430.07 378.93 430.68"/><path class="cls-7" d="M415.2,322.93l7-7.48a9.65,9.65,0,0,0-.24-4c-1.52-4.24-8.74-5.72-5.7-12.52s11-1.35,15.14-5.92a12,12,0,0,1,4.71-3.6l12.57-31L416.27,266,402.2,312.16C407.71,314.48,411.22,318.66,415.2,322.93Z"/><polygon class="cls-7" points="489.41 329.87 467.24 330.76 371.74 413.97 357.5 440.22 489.41 329.87"/><path class="cls-7" d="M101.46,274.53a7.75,7.75,0,0,1,3.17-2.46l10-32.38-5.41-12.9L95.62,273.66l1.49,2.23C98.8,276,100.38,275.83,101.46,274.53Z"/><polygon class="cls-7" points="67.05 372.01 66.27 374.7 72.47 376.13 72.73 375.28 67.05 372.01"/><path class="cls-7" d="M82.93,318c1.3-1.5,2.57-3.1,3.89-4.7L62.3,282.56l-16.21-3.19,24.25,29.28Z"/><polygon class="cls-7" points="239.17 431.24 253.18 466.15 267.19 467.1 250.5 421.73 239.17 431.24"/><polygon class="cls-7" points="200.5 399.48 207.12 398.77 206.27 391.25 199.36 388.54 199.08 388.66 200.5 399.48"/><path class="cls-7" d="M196.45,305.07l-7-61.43-7.86,12.42,6.58,49.86A69.55,69.55,0,0,1,196.45,305.07Z"/><polygon class="cls-7" points="179.14 382.24 179.3 385.99 183.96 390.19 193.39 386.2 181.07 381.38 179.14 382.24"/><polygon class="cls-7" points="296.67 314.97 305.82 305.36 305.33 248.04 294.57 235.39 296.67 314.97"/><path class="cls-7" d="M260.12,286.72c1.08.94,2.17,1.94,3.31,2.86,5.81,4.69,5.05,10,2.72,20.59-.09.44-.21.83-.32,1.23l3.53,15.2a21.88,21.88,0,0,1,3-.2,12.73,12.73,0,0,1,5.46,1.19l-14.32-67.14L257,273.21Z"/><polygon class="cls-7" points="180.74 421.26 181.21 432.56 183.41 433.83 190.05 426.87 180.74 421.26"/><path class="cls-7" d="M79.38,373.87l-2.93-15.44-27-16.28a10.61,10.61,0,0,0-3-1c-4.3-.6-7.68,3.73-13-.95a7.94,7.94,0,0,1-.77-.76L22.36,341Z"/><polygon class="cls-7" points="131.72 301.56 115.23 285.68 121.87 326.77 127.23 333.68 130.95 382.96 148.17 489.46 158.31 490.07 131.72 301.56"/><polygon class="cls-7" points="92.09 356.15 77.94 343.79 112.08 524.1 120.47 523.42 92.09 356.15"/><polygon class="cls-7" points="301.89 448.77 302.25 449.88 309.59 431.71 305.96 430.29 301.89 448.77"/><path class="cls-7" d="M335.35,297.05l-3.72,16.87c5.05-7.66,16.5-1.08,22.49-7.12,4-4,7.11-5.42,9.76-5.35l4-12.59Z"/><path class="cls-7" d="M320.87,362.7l-5.6,25.38,9.82,5.28L343,349.14c-1.91-.05-2.89-.88-3.32-2.18Z"/><path class="cls-7" d="M292,341.93l12.25-12.37L306,311.21,284.69,333.5C287,336.3,289.15,339.41,292,341.93Z"/><polygon class="cls-7" points="232.82 401.65 223.26 397.9 180.76 442.46 186.19 448.71 232.82 401.65"/><polygon class="cls-7" points="401.43 349.97 365.19 351.77 343.24 403.13 365.22 414.96 345.45 445.75 327.96 438.9 311.38 477.73 315.63 490.73 304.34 494.2 293.51 519.56 305.74 526.36 401.43 349.97"/><polygon class="cls-7" points="241.34 325.24 207.76 316.18 215.98 334.64 251.21 353.6 241.34 325.24"/><polygon class="cls-7" points="299.01 491.07 273.44 417.56 248.58 407.82 287.28 494.68 299.01 491.07"/><polygon class="cls-7" points="343.71 440.26 348.75 432.42 188.08 365.62 168.14 371.4 343.71 440.26"/><polygon class="cls-7" points="192.36 327.01 191.24 362.08 351.2 428.59 358.88 416.63 192.36 327.01"/><path class="cls-8" d="M380.22,344.47c3.65,0,22.49,6.61,35.23,8.37,6,.84,10.61,2.21,18.25,9.26C437.82,365.91,381,368,381,368Z"/><path class="cls-8" d="M80.33,349.1c-4,0-16.62,4-18.88,6.39s-6.37,7.06-6.94,9.41,23.77,2.34,23.77,2.34Z"/><path class="cls-8" d="M92.86,365.19c23.34-2.64,47.54-35.26,67.91-20.28,31.18,22.94,11.89,28.21,11.89,28.21l-79.8-7.93"/><path class="cls-4" d="M238.92,349.12c2.39,2.06-6.45,5.47-2.94,7.3s5-.61,7.32-.31,3.81,4.86,8.2,3,7.72-3,5.27-7.6c-2.92-5.47-7.88-.23-9.95-3.95C243.6,341.82,233.65,344.56,238.92,349.12Z"/><path class="cls-9" d="M366.84,367c-45.73-.84-98.22-1.31-126.43-1.32h-.88c-28.25,0-80.75.48-126.43,1.32-39.62.74-80.69,1.75-86.09,3.62-.46.57-2.55,4.08.09,18.79h.52a6,6,0,0,1,5.88,5.24L66,589.11a6,6,0,0,0,5.87,5.25H408a6,6,0,0,0,5.88-5.25l32.53-194.5a6,6,0,0,1,5.87-5.24h.53c2.64-14.71.54-18.23.09-18.79C447.53,368.71,406.47,367.7,366.84,367Z"/><path class="cls-4" d="M408,608.45H71.9a20,20,0,0,1-19.79-17.12L20.69,403.46H15.31l-2.08-11.6c-2.71-15.08-1.84-24.38,2.83-30.14l2.53-3.14,3.81-1.32c4.83-1.67,14.15-3,90.44-4.39,46-.85,98.57-1.31,126.68-1.32h.89c28.07,0,80.6.47,126.69,1.32h0c76.3,1.43,85.61,2.72,90.44,4.39l3.8,1.31,2.54,3.13c4.67,5.76,5.55,15.06,2.84,30.16l-2.08,11.6h-5.38L427.83,591.33A20,20,0,0,1,408,608.45ZM78.83,580.26H401.11L432.53,392.4a20.26,20.26,0,0,1,4.06-9.35c-13.41-.71-36.82-1.38-70-2h0c-45.92-.85-98.23-1.3-126.17-1.32h-.88c-28,0-80.3.47-126.16,1.32-33.19.62-56.6,1.29-70,2a20.15,20.15,0,0,1,4,9.35Z"/><path class="cls-10" d="M366.84,367c-45.73-.84-98.22-1.31-126.43-1.32h-.88c-28.25,0-80.75.48-126.43,1.32-39.62.74-80.69,1.75-86.09,3.62-.46.57-2.55,4.08.09,18.79h.52a6,6,0,0,1,5.88,5.24L66,589.11a6,6,0,0,0,5.87,5.25H408a6,6,0,0,0,5.88-5.25l32.53-194.5a6,6,0,0,1,5.87-5.24h.53c2.64-14.71.54-18.23.09-18.79C447.53,368.71,406.47,367.7,366.84,367Z"/><g class="cls-11"><path class="cls-10" d="M242.09,388.39h-4.24c-72.64.2-143.32,1.79-191.86,4.13,0,0,20.38,130.47,69.62,150.74C139.24,553,190,556.83,240,556.34c49.93.49,100.74-3.35,124.37-13.08C413.57,523,434,392.52,434,392.52,385.41,390.18,314.74,388.59,242.09,388.39Z"/></g><path d="M101.36,454.07l-11.1,54.2c15.79-1.3,27.35-22.56,27.35-39.91,0-12-5.63-22.08-19.38-22.08-25.31,0-40.46,14.77-40.46,39.43,0,8.27,2,9.58,2.18,11-10.78,0-16.72-4.05-16.72-15.73,0-21.58,28.75-42.18,54.85-42.18,25.62,0,36.87,15.24,36.87,31.95,0,20.61-17,43.49-45.15,43.49H89l-9.53,46.24H57L78.23,457.32Z"/><path class="cls-4" d="M79.48,571.71H57a11.2,11.2,0,0,1-11-13.46l10.38-50.44C40.85,506.56,32,497,32,481c0-13.69,8.06-27.59,22.11-38.15,12.9-9.69,28.91-15.24,43.94-15.24,33.21,0,48.07,21.68,48.07,43.16,0,24.1-18.08,50-47.89,54.12l-7.8,37.87A11.21,11.21,0,0,1,79.48,571.71Zm-.41-62.9-.1.48.12-.22A2.46,2.46,0,0,1,79.07,508.81Z"/><path d="M177.64,506.53a3.38,3.38,0,0,0,1.64.31c6.83,0,16.49-4.63,22.88-9.25l1.33,4.16c-5.64,6.33-15.45,11-26.29,12.8C174.82,543.09,160,561,141.69,561c-13.81,0-23.76-6.79-23.76-24.37,0-17.74,10.09-54.76,40.69-54.76C171.4,481.85,177.64,490.34,177.64,506.53ZM164.87,515c-3.12-.78-4-3.4-4-6.49,0-4.32,1.93-7.09,4.6-8.32-.3-6.48-1.78-8.95-5.64-8.95-10.55,0-19.76,28.22-19.76,43.35,0,10.18,1.93,12.49,7.57,12.49C154.92,547.1,162.49,533.22,164.87,515Z"/><path class="cls-4" d="M141.69,572.19c-21.57,0-35-13.63-35-35.58,0-21.52,12.69-66,51.9-66,12.47,0,19.51,5.81,23.22,10.68a32.37,32.37,0,0,1,5.51,11.92,48.34,48.34,0,0,0,8.24-4.74,11.2,11.2,0,0,1,17.24,5.66l1.33,4.16a11.21,11.21,0,0,1-2.31,10.88c-5.71,6.41-14.39,11.49-24.51,14.48C182.38,553,164.7,572.19,141.69,572.19Z"/><path d="M253.4,483.23l-10.69,52.46a21.82,21.82,0,0,0-.59,4.94c0,4.31,1.93,5.7,6.08,5.7,5.8,0,9.81-5.86,12-13.57h6.24c-8.47,25.14-21.84,28.53-29.86,28.53-8.47,0-13.82-5.08-14.71-14.65-7.43,12.65-15.74,14.65-22,14.65-8.91,0-15.9-5.55-15.9-18.51a52.61,52.61,0,0,1,1.19-10l10.1-49.53h21.39L206,535.69a22.17,22.17,0,0,0-.45,4.31c0,3.55,1.19,6.33,4.46,6.33,5.79,0,9.65-5.86,11.88-13.57L232,483.23Z"/><path class="cls-4" d="M236.62,572.5a25.26,25.26,0,0,1-17.2-6.22,32.38,32.38,0,0,1-19.49,6.22c-7.8,0-14.51-2.72-19.41-7.88-3.51-3.69-7.7-10.48-7.7-21.84a62.51,62.51,0,0,1,1.41-12.24L184.34,481a11.2,11.2,0,0,1,11-9h21.39a11.22,11.22,0,0,1,7.65,3,11.22,11.22,0,0,1,7.65-3H253.4a11.2,11.2,0,0,1,11,13.44l-7.45,36.58a11.33,11.33,0,0,1,3.31-.5h6.24a11.21,11.21,0,0,1,10.62,14.78C267,566.23,249.53,572.5,236.62,572.5Z"/><path d="M296.78,458.86l-5,24.37h8.91l-1.19,6.18h-8.91L281,535.69a21.35,21.35,0,0,0-.6,4.94c0,4.31,1.93,5.7,6.08,5.7,5.8,0,11.15-5.86,13.38-13.57h6.24c-8.47,25.14-23.18,28.53-31.2,28.53-8.91,0-15.89-5.55-15.89-18.51a51.81,51.81,0,0,1,1.19-10l8.92-43.35h-4.91l1.18-6.18h4.91L274.79,462Z"/><path class="cls-4" d="M274.94,572.5c-7.8,0-14.51-2.73-19.41-7.88-3.51-3.69-7.69-10.48-7.69-21.84a62.18,62.18,0,0,1,1.41-12.24l6.87-33.41c-.17-.19-.35-.38-.51-.58a11.22,11.22,0,0,1-2.37-9.26l1.19-6.17a11.19,11.19,0,0,1,6.62-8.2l2.78-13.26a11.18,11.18,0,0,1,9.4-8.8l22-3.09a11.2,11.2,0,0,1,12.53,13.37L305.28,473a11.1,11.1,0,0,1,4,3.07,11.22,11.22,0,0,1,2.37,9.26l-1.19,6.17a11.21,11.21,0,0,1-10.78,9.08l-4.52,22a11.14,11.14,0,0,1,4.74-1.05h6.24a11.21,11.21,0,0,1,10.62,14.79C306.16,567.8,286,572.5,274.94,572.5Z"/><path d="M331.39,483.23l-10.7,52.46a21.82,21.82,0,0,0-.59,4.94c0,4.31,1.93,5.7,6.09,5.7,5.79,0,11.14-5.86,13.37-13.57h6.24c-8.47,25.14-23.18,28.53-31.19,28.53-8.92,0-15.9-5.55-15.9-18.51a51.81,51.81,0,0,1,1.19-10L310,483.23Zm-6.68-32.85a12.15,12.15,0,0,1,11.88,12.34,12,12,0,0,1-11.88,12.18A11.89,11.89,0,0,1,313,462.72C313,455.93,318.17,450.38,324.71,450.38Z"/><path class="cls-4" d="M314.6,572.5c-7.79,0-14.51-2.73-19.41-7.88-3.51-3.69-7.69-10.48-7.69-21.84a61.68,61.68,0,0,1,1.42-12.24L299,481a11.23,11.23,0,0,1,5.35-7.45,23.64,23.64,0,0,1-2.6-10.82c0-13,10.29-23.55,22.94-23.55a23.55,23.55,0,0,1,16.9,39.46,11.14,11.14,0,0,1,.76,6.84l-7.57,37.15a11.07,11.07,0,0,1,4.76-1.07h6.24a11.21,11.21,0,0,1,10.62,14.79C345.82,567.8,325.67,572.5,314.6,572.5Zm10.11-110.92h0a1.21,1.21,0,0,0-.5,1.13c0,.54.24,1,.53,1s.67-.34.67-1A1.13,1.13,0,0,0,324.71,461.58Z"/><path d="M377,496.66c-5.35,0-9.36,6.48-11.59,14.19l-10.1,49.52H333.91l15.75-77.14h21.39l-1.64,8c6.24-7.41,12.78-8.64,17.39-8.64,9.5,0,16.49,5.09,16.49,17.43,0,12.5-7.14,31.17-7.14,39.8,0,3.86,1.49,6.48,5.94,6.48,6.54,0,9.21-5.55,12.48-13.57h6.25c-8.33,25.29-19.76,28.53-27.64,28.53-12.92,0-17.53-8.63-17.53-17.42,0-10.5,6.69-29.47,6.69-39.34C382.34,499.44,380.55,496.66,377,496.66Z"/><path class="cls-4" d="M393.18,572.5c-12.09,0-21.4-5.7-25.85-15l-1.05,5.15a11.19,11.19,0,0,1-11,9H333.91a11.2,11.2,0,0,1-11-13.44L338.68,481a11.19,11.19,0,0,1,11-9h21.39a11.17,11.17,0,0,1,5,1.16,32.51,32.51,0,0,1,10.78-1.78c16.82,0,27.69,11.24,27.69,28.64,0,6.91-1.66,14.75-3.41,22.06a11.29,11.29,0,0,1,3.49-.56h6.25a11.2,11.2,0,0,1,10.64,14.71C423.55,560.31,410.67,572.5,393.18,572.5Zm-34.43-77.79-1,4.86c.54-1.09,1.12-2.13,1.73-3.11A10.81,10.81,0,0,1,358.75,494.71Z"/><path d="M443.69,546.64c5.64,0,12.77-3.86,17.53-8.18-3.12,17.59-13.82,22.83-25.7,22.83-13.82,0-23-7.1-23-24.53,0-17.73,9.66-54.91,40.11-54.91,13.22,0,16.34,7.1,16.34,14.81,0,17.89-16.34,31.47-34.17,32.55-.15,1.54-.3,3.24-.3,4.63C434.47,543.55,438.49,546.64,443.69,546.64ZM453.79,490c-7.43,0-14.86,17.13-18,31.78,11.58-.61,21.68-12.49,21.68-25.45C457.5,492.49,456.61,490,453.79,490Z"/><path class="cls-4" d="M435.52,572.5c-21.44,0-34.24-13.36-34.24-35.74a88.25,88.25,0,0,1,10-39.43c9.3-17.21,24-26.68,41.33-26.68s27.54,9.72,27.54,26a42.05,42.05,0,0,1-14.6,31.46c.37.16.74.34,1.1.53a11.21,11.21,0,0,1,5.61,11.77C468.63,560.81,455.24,572.5,435.52,572.5ZM424,541.19a13.48,13.48,0,0,0,1.4,4.63A25.68,25.68,0,0,1,424,541.19Zm22.29-45.65Z"/><path d="M101.36,454.07l-11.1,54.2c15.79-1.3,27.35-22.56,27.35-39.91,0-12-5.63-22.08-19.38-22.08-25.31,0-40.46,14.77-40.46,39.43,0,8.27,2,9.58,2.18,11-10.78,0-16.72-4.05-16.72-15.73,0-21.58,28.75-42.18,54.85-42.18,25.62,0,36.87,15.24,36.87,31.95,0,20.61-17,43.49-45.15,43.49H89l-9.53,46.24H57L78.23,457.32Z"/><path d="M177.64,506.53a3.38,3.38,0,0,0,1.64.31c6.83,0,16.49-4.63,22.88-9.25l1.33,4.16c-5.64,6.33-15.45,11-26.29,12.8C174.82,543.09,160,561,141.69,561c-13.81,0-23.76-6.79-23.76-24.37,0-17.74,10.09-54.76,40.69-54.76C171.4,481.85,177.64,490.34,177.64,506.53ZM164.87,515c-3.12-.78-4-3.4-4-6.49,0-4.32,1.93-7.09,4.6-8.32-.3-6.48-1.78-8.95-5.64-8.95-10.55,0-19.76,28.22-19.76,43.35,0,10.18,1.93,12.49,7.57,12.49C154.92,547.1,162.49,533.22,164.87,515Z"/><path d="M253.4,483.23l-10.69,52.46a21.82,21.82,0,0,0-.59,4.94c0,4.31,1.93,5.7,6.08,5.7,5.8,0,9.81-5.86,12-13.57h6.24c-8.47,25.14-21.84,28.53-29.86,28.53-8.47,0-13.82-5.08-14.71-14.65-7.43,12.65-15.74,14.65-22,14.65-8.91,0-15.9-5.55-15.9-18.51a52.61,52.61,0,0,1,1.19-10l10.1-49.53h21.39L206,535.69a22.17,22.17,0,0,0-.45,4.31c0,3.55,1.19,6.33,4.46,6.33,5.79,0,9.65-5.86,11.88-13.57L232,483.23Z"/><path d="M296.78,458.86l-5,24.37h8.91l-1.19,6.18h-8.91L281,535.69a21.35,21.35,0,0,0-.6,4.94c0,4.31,1.93,5.7,6.08,5.7,5.8,0,11.15-5.86,13.38-13.57h6.24c-8.47,25.14-23.18,28.53-31.2,28.53-8.91,0-15.89-5.55-15.89-18.51a51.81,51.81,0,0,1,1.19-10l8.92-43.35h-4.91l1.18-6.18h4.91L274.79,462Z"/><path d="M331.39,483.23l-10.7,52.46a21.82,21.82,0,0,0-.59,4.94c0,4.31,1.93,5.7,6.09,5.7,5.79,0,11.14-5.86,13.37-13.57h6.24c-8.47,25.14-23.18,28.53-31.19,28.53-8.92,0-15.9-5.55-15.9-18.51a51.81,51.81,0,0,1,1.19-10L310,483.23Zm-6.68-32.85a12.15,12.15,0,0,1,11.88,12.34,12,12,0,0,1-11.88,12.18A11.89,11.89,0,0,1,313,462.72C313,455.93,318.17,450.38,324.71,450.38Z"/><path d="M377,496.66c-5.35,0-9.36,6.48-11.59,14.19l-10.1,49.52H333.91l15.75-77.14h21.39l-1.64,8c6.24-7.41,12.78-8.64,17.39-8.64,9.5,0,16.49,5.09,16.49,17.43,0,12.5-7.14,31.17-7.14,39.8,0,3.86,1.49,6.48,5.94,6.48,6.54,0,9.21-5.55,12.48-13.57h6.25c-8.33,25.29-19.76,28.53-27.64,28.53-12.92,0-17.53-8.63-17.53-17.42,0-10.5,6.69-29.47,6.69-39.34C382.34,499.44,380.55,496.66,377,496.66Z"/><path d="M443.69,546.64c5.64,0,12.77-3.86,17.53-8.18-3.12,17.59-13.82,22.83-25.7,22.83-13.82,0-23-7.1-23-24.53,0-17.73,9.66-54.91,40.11-54.91,13.22,0,16.34,7.1,16.34,14.81,0,17.89-16.34,31.47-34.17,32.55-.15,1.54-.3,3.24-.3,4.63C434.47,543.55,438.49,546.64,443.69,546.64ZM453.79,490c-7.43,0-14.86,17.13-18,31.78,11.58-.61,21.68-12.49,21.68-25.45C457.5,492.49,456.61,490,453.79,490Z"/><path d="M20,531c6.57,1.46,13.2,8.15,21.22,8.15a13.55,13.55,0,0,0,5.3-1c-.63,6.06-3.15,9.92-6.56,9.92-9,0-17-14.34-28.17-14.34a11.88,11.88,0,0,0-1.46.06L19.72,490c-5.5,2.27-8.85,7-8.85,13.76a8.72,8.72,0,0,0,.89,4.3C7.4,508.08,5,506.5,5,502c0-8.4,11.62-16.42,22.17-16.42.88,0,1.7.06,2.52.13Z"/><path d="M58.87,500.69l-4.54,21.47a8.84,8.84,0,0,0-.26,2c0,1.77.82,2.34,2.59,2.34a3.2,3.2,0,0,0,1.39-.25c-1.7,4.42-2.9,6.38-6.31,6.38s-5.69-2.21-6.19-5.88c-1.9,2.91-4.93,5.88-9.41,5.88-4.3,0-8.4-2.66-8.4-10.17C27.74,514,33,500.37,44,500.37c3.6,0,5.11,1.39,5.11,3.22V504l.7-3.35Zm-21.79,20.9c0,4.87,2,4.93,3.16,4.93,1.83,0,4.49-1.89,5.24-5.56l3-14.27a2.45,2.45,0,0,0-2.59-2.4C40.56,504.29,37.08,515.66,37.08,521.59Z"/><path d="M20,531c6.57,1.46,13.2,8.15,21.22,8.15a13.55,13.55,0,0,0,5.3-1c-.63,6.06-3.15,9.92-6.56,9.92-9,0-17-14.34-28.17-14.34a11.88,11.88,0,0,0-1.46.06L19.72,490c-5.5,2.27-8.85,7-8.85,13.76a8.72,8.72,0,0,0,.89,4.3C7.4,508.08,5,506.5,5,502c0-8.4,11.62-16.42,22.17-16.42.88,0,1.7.06,2.52.13Z"/><path d="M58.87,500.69l-4.54,21.47a8.84,8.84,0,0,0-.26,2c0,1.77.82,2.34,2.59,2.34a3.2,3.2,0,0,0,1.39-.25c-1.7,4.42-2.9,6.38-6.31,6.38s-5.69-2.21-6.19-5.88c-1.9,2.91-4.93,5.88-9.41,5.88-4.3,0-8.4-2.66-8.4-10.17C27.74,514,33,500.37,44,500.37c3.6,0,5.11,1.39,5.11,3.22V504l.7-3.35Zm-21.79,20.9c0,4.87,2,4.93,3.16,4.93,1.83,0,4.49-1.89,5.24-5.56l3-14.27a2.45,2.45,0,0,0-2.59-2.4C40.56,504.29,37.08,515.66,37.08,521.59Z"/><path class="cls-4" d="M27.17,485.53c.88,0,1.7.06,2.52.13L20,531c6.57,1.46,13.2,8.15,21.22,8.15a13.55,13.55,0,0,0,5.3-1c-.63,6.06-3.15,9.92-6.56,9.92-9,0-17-14.34-28.17-14.34a11.88,11.88,0,0,0-1.46.06L19.72,490c-5.5,2.27-8.85,7-8.85,13.76a8.72,8.72,0,0,0,.89,4.3C7.4,508.08,5,506.5,5,502c0-8.4,11.62-16.42,22.17-16.42m0-5a31.45,31.45,0,0,0-18,6C3.35,490.77,0,496.39,0,502c0,3.11,1,10.06,9.67,11L5.42,532.73a5,5,0,0,0,4.88,6,4.44,4.44,0,0,0,.63,0c.18,0,.41,0,.83,0,4.14,0,8.2,3.23,12.49,6.65,4.75,3.78,9.65,7.69,15.68,7.69,4.85,0,10.43-3.79,11.54-14.4a5,5,0,0,0-5-5.52,5.12,5.12,0,0,0-1.91.38,8.61,8.61,0,0,1-3.39.63c-3.44,0-6.92-1.9-10.59-3.91-1.57-.86-3.17-1.73-4.82-2.48l8.8-41.05a5,5,0,0,0-4.5-6c-.85-.06-1.82-.14-2.91-.14Z"/><path class="cls-4" d="M44,500.37c3.6,0,5.11,1.39,5.11,3.22V504l.7-3.35h9.09l-4.54,21.47a8.84,8.84,0,0,0-.26,2c0,1.77.82,2.34,2.59,2.34a3.2,3.2,0,0,0,1.39-.25c-1.7,4.42-2.9,6.38-6.31,6.38s-5.69-2.21-6.19-5.88c-1.9,2.91-4.93,5.88-9.41,5.88-4.3,0-8.4-2.66-8.4-10.17C27.74,514,33,500.37,44,500.37m-3.73,26.15c1.83,0,4.49-1.89,5.24-5.56l3-14.27a2.45,2.45,0,0,0-2.59-2.4c-5.37,0-8.85,11.37-8.85,17.3,0,4.87,2,4.93,3.16,4.93M44,495.37c-6.67,0-12.53,3.65-16.52,10.28a34.06,34.06,0,0,0-4.71,16.83c0,11.19,7.22,15.17,13.4,15.17a14.56,14.56,0,0,0,8.33-2.59,10.91,10.91,0,0,0,7.27,2.59c7.28,0,9.51-5.77,11-9.58a5,5,0,0,0-1.2-5.4,4.93,4.93,0,0,0-1.94-1.17l4.18-19.77a5,5,0,0,0-4.89-6H49.78a4.87,4.87,0,0,0-1.62.27,13.9,13.9,0,0,0-4.19-.59Z"/><path class="cls-4" d="M125.93,443.21c-10,0-16.48-5.77-16.48-14.7s6.12-13.88,12.09-14.19c-2.53-3-4.8-6.5-4.8-11.26,0-8.62,7.56-15.12,17.59-15.12,8.34,0,13.51,4.43,13.51,11.55,0,5.28-2.88,9.29-7.06,10.2a19.76,19.76,0,0,1,5.66,14.1C146.44,435.22,138,443.21,125.93,443.21Zm1.34-16.36c-.63,0-2.71.1-2.71,1.42,0,1.55.93,1.55,1.49,1.55,1.56,0,2.44-1,2.62-3Zm7.3-27.51c-1.21,0-1.26.23-1.26,1.24a3.69,3.69,0,0,0,0,.58l.81-.5a2.41,2.41,0,0,0,.6-1.32Z"/><path d="M138.94,405.61a3.3,3.3,0,0,1-2.68-1.27,6.44,6.44,0,0,0,2.62-5.22c0-2.12-1.1-4.06-4.31-4.06s-5.37,1.88-5.37,5.52c0,8.91,13.13,10.12,13.13,23.21,0,10.18-7.94,15.15-16.4,15.15-6.65,0-12.37-3-12.37-10.43,0-6.54,4.49-9.93,8.58-9.93,2,0,5,.84,5.13,4-3.15,0-6.82,1.51-6.82,5.69,0,3,1.86,5.82,5.6,5.82,3.91,0,6.77-3,6.77-8.06,0-10.36-12-14.06-12-23,0-6.3,6-10.84,13.48-10.84,2.75,0,9.4.6,9.4,7.27C143.73,403,141.86,405.61,138.94,405.61Z"/><path class="cls-4" d="M153.59,442.3c-8.27,0-13.21-5.2-13.21-13.91,0-10.73,6.16-25.84,19.86-25.84,6.6,0,10.54,3.77,10.54,10.09a16,16,0,0,1-3.54,9.9H177l-3.89,6.53C167.9,437.85,161.32,442.3,153.59,442.3Z"/><path d="M157.33,432.94c4.61,0,7.41-2.67,10.33-6.12h2c-3.33,5.57-8.29,11.21-16,11.21-5.48,0-9.1-2.79-9.1-9.64s3.79-21.57,15.75-21.57c5.2,0,6.42,2.79,6.42,5.82,0,7-6.42,12.36-13.42,12.78-.06.85-.12,1.7-.12,2.43C153.12,432,154.53,432.94,157.33,432.94ZM160.71,410c-3,0-5.83,6.48-7,12.48,4.49-.3,8.46-5,8.46-10C162.17,411,161.82,410,160.71,410Z"/><path class="cls-4" d="M203.14,442.3c-5.56,0-8.87-3-10.25-6.75l-1.3,6.39H160.36l7.93-38.85h15.34a13.52,13.52,0,0,1,2.88-.3,9.94,9.94,0,0,1,6.8,2.42,12.13,12.13,0,0,1,7.32-2.36c6.43,0,10.59,4.37,10.59,11.12a38.71,38.71,0,0,1-1.32,8.57h9.84l-1.86,5.66C214.81,437.55,209.85,442.3,203.14,442.3Z"/><path d="M196.78,412.64c-2.11,0-3.68,2.54-4.56,5.57l-4,19.45h-8.41l4.26-20.9a6.21,6.21,0,0,0,.18-1.52c0-1.33-.47-2.66-1.75-2.66-2.28,0-3.85,2.6-4.73,5.63l-4,19.45h-8.4l6.19-30.3H180l-.64,3.16a8.83,8.83,0,0,1,7.12-3.46c3.09,0,5.36,1.46,6,5.21,2.8-4.48,5.95-5.15,8.11-5.15,3.73,0,6.47,2,6.47,6.85s-2.8,12.24-2.8,15.63c0,1.52.59,2.55,2.34,2.55,2.57,0,3.62-2.18,4.9-5.33H214c-3.27,9.93-7.76,11.21-10.85,11.21-5.08,0-6.89-3.4-6.89-6.85,0-4.12,2.63-11.58,2.63-15.45C198.88,413.73,198.18,412.64,196.78,412.64Z"/><path class="cls-4" d="M233,442.3a9.46,9.46,0,0,1-6.75-2.59,12.67,12.67,0,0,1-7.66,2.59c-5.48,0-11.88-3.67-11.88-14s6.08-25.48,19.11-25.48a13.3,13.3,0,0,1,2.89.3h16l-4,19.45h9.83l-1.92,5.69C244.66,439.86,237.92,442.3,233,442.3Z"/><path d="M239.55,407.36,235.35,428a9,9,0,0,0-.23,1.94c0,1.69.76,2.6,2.39,2.6,2.28,0,3.85-2.66,4.73-5.69h2.45C241.36,436.69,236.11,438,233,438s-5.37-1.94-5.72-5.58c-1.81,2.79-4.55,5.58-8.69,5.58-4,0-7.76-2.55-7.76-9.76,0-8.18,4.84-21.21,15-21.21,3.33,0,4.73,1.34,4.73,3.09v.43l.64-3.22Zm-20.13,20.06c0,4.67,1.87,4.73,2.92,4.73,1.69,0,4.14-1.82,4.84-5.33l2.8-13.7a2.31,2.31,0,0,0-2.39-2.3C222.63,410.82,219.42,421.73,219.42,427.42Z"/><path class="cls-4" d="M248,442.3c-6.2,0-10.36-4.64-10.36-11.55a24,24,0,0,1,.56-4.8l4.66-22.86h1.18a9.31,9.31,0,0,1-.8-3.78,8.76,8.76,0,1,1,17.51,0,9.19,9.19,0,0,1-1.26,4.67l-3.79,18.56h10.35l-1.91,5.69C260,440.47,252.28,442.3,248,442.3Z"/><path d="M254.61,407.36,250.41,428a9,9,0,0,0-.23,1.94c0,1.69.76,2.24,2.39,2.24,2.28,0,4.38-2.3,5.25-5.33h2.45C257,436.69,251.17,438,248,438c-3.5,0-6.24-2.18-6.24-7.28a20.58,20.58,0,0,1,.46-3.93l4-19.46ZM252,394.46a4.78,4.78,0,0,1,4.67,4.85,4.73,4.73,0,0,1-4.67,4.78,4.67,4.67,0,0,1-4.61-4.78A4.72,4.72,0,0,1,252,394.46Z"/><path class="cls-4" d="M278.89,442.3c-5.55,0-8.86-3-10.24-6.75l-1.31,6.39H250.53l7.93-38.85h15.42a12.85,12.85,0,0,1,2.5-.24c6.43,0,10.59,4.37,10.59,11.12a38.71,38.71,0,0,1-1.32,8.57h9.85l-1.86,5.66C290.56,437.55,285.6,442.3,278.89,442.3Z"/><path d="M272.53,412.64c-2.1,0-3.68,2.54-4.55,5.57l-4,19.45h-8.4l6.18-30.3h8.4l-.64,3.16a8.55,8.55,0,0,1,6.83-3.4c3.73,0,6.48,2,6.48,6.85s-2.8,12.24-2.8,15.63c0,1.52.58,2.55,2.33,2.55,2.57,0,3.62-2.18,4.9-5.33h2.45C286.48,436.75,282,438,278.89,438c-5.08,0-6.89-3.4-6.89-6.85,0-4.12,2.63-11.58,2.63-15.45C274.63,413.73,273.93,412.64,272.53,412.64Z"/><path class="cls-4" d="M295.52,442.3c-8.24,0-13.15-5.2-13.15-13.91,0-10.73,6.16-25.84,19.86-25.84,6.6,0,10.54,3.77,10.54,10.09a16,16,0,0,1-1.06,5.69l-2,11.5C308.24,437.87,303.22,442.3,295.52,442.3Z"/><path d="M298.73,432.27c2.22,0,5-1.52,6.89-3.21-1.23,6.91-5.43,9-10.1,9-5.42,0-9-2.79-9-9.64s3.79-21.57,15.75-21.57c5.2,0,6.42,2.79,6.42,5.82,0,7-6.42,12.36-13.42,12.78-.06.61-.12,1.27-.12,1.82C295.11,431.06,296.69,432.27,298.73,432.27Zm4-22.24c-2.92,0-5.84,6.73-7.06,12.48,4.55-.24,8.52-4.9,8.52-10C304.16,411,303.81,410,302.7,410Z"/><path class="cls-4" d="M328.32,442.3c-5.48,0-11.87-3.67-11.87-14s6.07-25.48,19.11-25.48a13.16,13.16,0,0,1,2.05.15l2.11-10.31L357,390.2l-6.63,32.34h9.81l-1.91,5.69c-3.07,9.09-8.32,13.71-15.61,13.71a9.63,9.63,0,0,1-6.54-2.34A12.66,12.66,0,0,1,328.32,442.3Z"/><path d="M351.78,395.25,345.07,428a8.48,8.48,0,0,0-.24,1.94c0,1.69.76,2.24,2.4,2.24,2.27,0,3.85-2.3,4.72-5.33h2.46c-3.33,9.87-8.58,10.84-11.73,10.84s-5.26-1.81-5.72-5.21c-1.75,2.79-4.5,5.58-8.64,5.58-4,0-7.76-2.55-7.76-9.76,0-8.18,4.84-21.21,15-21.21,3.32,0,4.72,1.34,4.72,3.09v.24l2.86-13.93ZM336.9,426.82l2.86-13.88a2.35,2.35,0,0,0-2.39-2.12c-5,0-8.17,10.91-8.17,16.6,0,4.67,1.86,4.73,2.91,4.73,1.64,0,4-1.7,4.79-5Z"/><path class="cls-4" d="M360.19,442.3c-8.24,0-13.16-5.2-13.16-13.91,0-10.73,6.16-25.84,19.87-25.84,6.59,0,10.53,3.77,10.53,10.09a16,16,0,0,1-1.06,5.69l-2,11.5C372.9,437.87,367.88,442.3,360.19,442.3Z"/><path d="M363.4,432.27c2.21,0,5-1.52,6.88-3.21-1.22,6.91-5.43,9-10.09,9-5.43,0-9.05-2.79-9.05-9.64s3.79-21.57,15.76-21.57c5.19,0,6.41,2.79,6.41,5.82,0,7-6.41,12.36-13.42,12.78-.05.61-.11,1.27-.11,1.82C359.78,431.06,361.35,432.27,363.4,432.27Zm4-22.24c-2.91,0-5.83,6.73-7.06,12.48,4.55-.24,8.52-4.9,8.52-10C368.82,411,368.47,410,367.36,410Z"/><g class="cls-12"><path class="cls-13" d="M102.4,635.68a5.88,5.88,0,0,1,6.51,0,142.9,142.9,0,0,1,14.41,10.37s1.24.87,1.28-.6c0,0-.21-4.33.32-5.66a2.55,2.55,0,0,1,2.4-1.73s5.66.28,9.25.76a3.52,3.52,0,0,1,3,3.19s2.31,15.41,2.82,21c0,0,.46,2.83,4.55,7.62,0,0,8.25,11.59,9.27,13.87,0,0,1.94,4-2.21,4.57,0,0-7.6.76-8.32.94a1.9,1.9,0,0,0-1.7,2s0,0,0,.06-.4,26.79-2.36,39.66c0,0-.51,5.11-3.34,5,0,0-7.8-.26-9.61-.2,0,0-.79.06-.67-1,0,0,4-41.78,1.27-62.92,0,0-.1-2.72-2.19-3.28,0,0-1.89-.77-3.71,1.73A66.24,66.24,0,0,0,111,708.71s-.23,6.68.79,8.39c0,0,.63,1.17,3.85,1.43l4.09.55s.77,0,.7,1c0,0-.94,12.25-1.21,14.43a4.09,4.09,0,0,1-.3,1.45s-.15.41-1.43.36c0,0-18-.13-20,0,0,0-.84.09-1-.44s-1.26-15.82-1.22-18a1.16,1.16,0,0,1,.63-1.08,10.79,10.79,0,0,0,5-7.95,44.14,44.14,0,0,0,.1-7s.66-23.51.83-27.28c0,0,.14-1.27-1.53-1.51a1.54,1.54,0,0,0-1.86,1.15s0,.09,0,.14-1.17,15.5-.94,21.67c0,0,.39,4-2.38,4.09,0,0-2.7.41-2.83-2.93,0,0,.2-15.08.86-22.52A1.59,1.59,0,0,0,91.59,673a1.63,1.63,0,0,0-1.87,1.35s0,.09,0,.13-1.16,14.43-.95,22c0,0,.34,3.7-2.61,3.55,0,0-2.46.3-2.6-3,0,0,.68-20.64.85-22.25A1.67,1.67,0,0,0,83,673H82.8A1.6,1.6,0,0,0,81,674.36a.76.76,0,0,0,0,.15s-1.1,24.69-1,31.94c0,0-.1,7.45,5.41,10.48,0,0,.81.47.83,1.17,0,0,.62,13.11,1.17,17.33,0,0,.21,1-.69,1l-13.85.37s-2.3.16-2.83-2.68c-.45-2.65-3-24.51-2.57-41.84A2.1,2.1,0,0,0,65.83,690s-7.09-.66-8.8-1.08a3,3,0,0,1-2.11-3.59,3,3,0,0,1,.31-.75s15.34-29.19,47.17-48.92"/><path class="cls-13" d="M253,671.85a1.42,1.42,0,0,0-.22-1.26,1.44,1.44,0,0,0-1.15-.57l-12.18,0-14.94,50.64-5.68-24.6,17.37-23.73a1.28,1.28,0,0,0,.26-.52l.3-1a.6.6,0,0,0-.58-.77H223.8l-13.29,19.47,5.67-17.64a1.42,1.42,0,0,0-.22-1.26,1.44,1.44,0,0,0-1.14-.57H202.55L192,706c.24-6.19-4.56-11.06-7.35-14.14-2.26-2.52-3.63-4.3-3.38-6.29a5.67,5.67,0,0,1,5.36-4.94c3.06-.24,4.37.69,6.31,1.6a1.55,1.55,0,0,0,1.3.07,1.49,1.49,0,0,0,.87-.92l2.85-9.64-2-.92-.28-.13-.1-.05a18.48,18.48,0,0,0-7.42-1.45c-10.74,0-20.51,7.69-22.12,17.14-1.13,6.61,3.11,11.28,6.21,14.69l.27.3c2.23,2.4,3.78,4.26,3.42,6.42-.51,3-3.46,4.76-6.3,5-3.12.25-5.07-.62-7.51-1.69a2.07,2.07,0,0,0-1.41-.26,1.51,1.51,0,0,0-1,1L157,721.11l-.35,1.19a28.71,28.71,0,0,0,11.53,2.7c9.15,0,17.07-3.51,21.76-12l-2.77,9.45a1.44,1.44,0,0,0,1.37,1.83h12.25l3.06-10.41,3.73-5.37,2.87,14.63a1.43,1.43,0,0,0,1.4,1.15h25.76Z"/><path class="cls-13" d="M285.78,674.12A12.57,12.57,0,0,0,276.4,670H256.11l-.87,2.88a1,1,0,0,0,.11.79l.58.9a3.58,3.58,0,0,1,.4,3l-13.17,44.85a1.43,1.43,0,0,0,1.34,1.85h11.81L260,711.82l5.33,0c12.85.17,19.36-8.86,22.27-18.67a33.16,33.16,0,0,0,1.73-8.81c0-4.29-1.09-7.53-3.54-10.24M276,685.55a25.64,25.64,0,0,1-2.23,8.32c-1.51,3.37-2.92,5.89-6.91,6.34l-3.47,0,5.44-18.46,4.57,0a2.29,2.29,0,0,1,1.69.67,3.94,3.94,0,0,1,.91,3.12"/><path class="cls-13" d="M333.13,670h-3.67l-4.75,16.28c-.63,2.17-1.54,3-2.79,3a1.68,1.68,0,0,1-1.76-2c0-.31.13-.74.18-1l4.59-15.63a.51.51,0,0,0-.48-.65h-3.6l-4.66,15.9a7.89,7.89,0,0,0-.27,1.5c-.26,3.49,2.16,5.62,5.42,5.62s6.25-2.1,7.69-6.95l4.54-15.49a.46.46,0,0,0-.44-.58"/><path class="cls-13" d="M311.1,677.46c-.16,2.71-2.22,11.43-6.35,11.43h-1.37l4.43-15.09h1.24c1.19,0,2.21,1.05,2.05,3.66m-1-7.43h-5.7l-6.49,22a.49.49,0,0,0,.47.62l5.36,0c8.57,0,11.56-10.75,11.83-15.26.3-4.95-2.46-7.36-5.47-7.36"/><path class="cls-13" d="M377.17,669.44c-4,0-8,3-8.65,7-.43,2.71,1.29,4.65,2.53,6.11,1,1.12,1.76,2.1,1.56,3.35a3.35,3.35,0,0,1-3.21,2.86,5.4,5.4,0,0,1-3-.53.67.67,0,0,0-1,.42l-1,3.34a12.21,12.21,0,0,0,4.34.8,9,9,0,0,0,8.84-7.35c.44-2.75-1.27-4.79-2.51-6.25-.94-1.12-1.73-2.1-1.54-3.29a3.19,3.19,0,0,1,2.95-2.71,5.6,5.6,0,0,1,2.48.44.72.72,0,0,0,1-.41l.89-3a9.53,9.53,0,0,0-3.7-.78"/><path class="cls-13" d="M363.78,679.26h-3.95l1.63-5.46h5.8l.91-3.15a.48.48,0,0,0-.46-.62h-9.57l-6.46,22a.48.48,0,0,0,.46.62h9.57l.91-3.15a.48.48,0,0,0-.46-.61H357l1.76-5.87h4.55l.94-3.14a.48.48,0,0,0-.46-.62"/><path class="cls-13" d="M394.15,670.69a.52.52,0,0,0-.5-.66h-10.8l-.88,3.11a.52.52,0,0,0,.51.66h2.84L380,692a.52.52,0,0,0,.5.67h3.71l5.53-18.85h3.54Z"/><path class="cls-13" d="M403.28,676.82c-.26,3.52-2.81,12.44-5.9,12.44-1.28,0-1.63-1.33-1.49-3.29.27-3.56,2.75-12.51,5.87-12.51,1.29,0,1.66,1.35,1.52,3.36m-1-7.16c-6.85,0-10.4,11-10.78,16.21-.29,4,1.27,7.18,5.34,7.18,6.85,0,10.39-10.95,10.77-16.13.3-4-1.26-7.26-5.33-7.26"/><path class="cls-13" d="M349.21,676.17c-.16,2.17-1.48,4.41-3.58,4.41h-1.35l2-6.78h1.19c1.11,0,1.84.71,1.72,2.37m4.51-.41c.23-3.22-1.82-5.72-5-5.72h-5.62l-6.45,22a.5.5,0,0,0,.48.64h3.6l2.44-8.31h1.52v7.81a.5.5,0,0,0,.5.5h3.94l-.39-9.09c2.23-.81,4.67-4,5-7.8"/><path class="cls-13" d="M373.33,716.35H369.7l5-10.78Zm4.28-14.68h-4.36l-11,21.88a.51.51,0,0,0,.45.74h3.45l1.9-4.17h4.68l-.47,3.6a.51.51,0,0,0,.5.57h3.49l1.85-22.06a.52.52,0,0,0-.51-.56"/><path class="cls-13" d="M374.85,699.93h2.32l-.92-4a.62.62,0,0,0-.6-.49h-3.32l2,4.09a.62.62,0,0,0,.56.36"/><path class="cls-13" d="M443.16,701.08c-4,0-8,3-8.65,7-.43,2.72,1.3,4.65,2.53,6.11,1,1.12,1.77,2.1,1.57,3.36a3.35,3.35,0,0,1-3.22,2.85,5.42,5.42,0,0,1-3-.53.67.67,0,0,0-1,.42l-1,3.34a12.12,12.12,0,0,0,4.33.8,9,9,0,0,0,8.84-7.35c.44-2.75-1.27-4.79-2.51-6.25-.94-1.12-1.73-2.1-1.54-3.28a3.19,3.19,0,0,1,2.95-2.72,5.6,5.6,0,0,1,2.48.44.71.71,0,0,0,1-.4l.9-3.06a9.61,9.61,0,0,0-3.71-.78"/><path class="cls-13" d="M402.11,701.68h-3.69l-7.22,15.78,1.57-15.23a.5.5,0,0,0-.5-.55h-3.71l-1.88,22.08a.49.49,0,0,0,.49.53h4.38l11-21.88a.5.5,0,0,0-.45-.73"/><path class="cls-13" d="M411.56,708.45c-.26,3.53-2.81,12.45-5.89,12.45-1.29,0-1.64-1.32-1.49-3.29.26-3.56,2.74-12.51,5.86-12.51,1.29,0,1.67,1.35,1.52,3.35m-1-7.15c-6.85,0-10.4,11-10.78,16.21-.29,4,1.27,7.18,5.34,7.18,6.85,0,10.4-11,10.77-16.13.3-4-1.26-7.26-5.33-7.26"/><path class="cls-13" d="M433.21,701.68h-3.67L424.79,718c-.63,2.17-1.54,3-2.8,3a1.68,1.68,0,0,1-1.75-2,8.2,8.2,0,0,1,.18-1L425,702.32a.5.5,0,0,0-.49-.64h-3.59l-4.66,15.89a7.91,7.91,0,0,0-.28,1.5c-.25,3.49,2.17,5.62,5.42,5.62s6.26-2.1,7.7-7l4.53-15.49a.45.45,0,0,0-.43-.57"/><path class="cls-13" d="M327.68,704.92l.9-3.06a9.61,9.61,0,0,0-3.71-.78c-4,0-8,3-8.65,7-.43,2.71,1.3,4.65,2.53,6.11,1,1.12,1.77,2.1,1.57,3.36a3.35,3.35,0,0,1-3.22,2.85,5.42,5.42,0,0,1-3-.53.67.67,0,0,0-1,.43l-1,3.33a12.12,12.12,0,0,0,4.33.8,9,9,0,0,0,8.84-7.35c.44-2.75-1.27-4.79-2.51-6.25-.94-1.12-1.73-2.1-1.54-3.29a3.19,3.19,0,0,1,3-2.71,5.58,5.58,0,0,1,2.47.44.71.71,0,0,0,1-.4"/><path class="cls-13" d="M360.66,701.68H357L352.24,718c-.63,2.17-1.54,3-2.79,3a1.68,1.68,0,0,1-1.76-2c0-.3.13-.74.18-1l4.59-15.63a.5.5,0,0,0-.48-.64h-3.6l-4.66,15.89a7.89,7.89,0,0,0-.27,1.5c-.26,3.49,2.16,5.62,5.42,5.62s6.25-2.1,7.69-7l4.53-15.49a.44.44,0,0,0-.43-.57"/><path class="cls-13" d="M365,705.75h.34a5.83,5.83,0,0,1-1.64,1.79.64.64,0,0,0-.1.93l.81.89c2.15-1.4,3.81-3.67,4-5.74a2.15,2.15,0,0,0-2.18-2.55,3.06,3.06,0,0,0-3,2.68,1.72,1.72,0,0,0,1.76,2"/><path class="cls-13" d="M315,701.68h-3.67L306.59,718c-.63,2.17-1.54,3-2.79,3a1.68,1.68,0,0,1-1.76-2c0-.3.13-.74.18-1l4.59-15.63a.5.5,0,0,0-.48-.64h-3.6l-4.66,15.89a7.89,7.89,0,0,0-.27,1.5c-.26,3.49,2.16,5.62,5.42,5.62s6.25-2.1,7.69-7l4.53-15.49a.44.44,0,0,0-.43-.57"/><path class="cls-13" d="M298.65,701.68h-3.59l-4.95,16.74c-.49,1.73-1.43,2.48-2.86,2.48a2.57,2.57,0,0,1-1.62-.59.48.48,0,0,0-.74.12l-1.64,2.81a5.57,5.57,0,0,0,4.1,1.45c3.63,0,5.73-1.83,7-6.06l4.8-16.3a.5.5,0,0,0-.49-.65"/><path class="cls-13" d="M336.11,718.32l-.12-1.43a.61.61,0,0,0-.6-.55h-2.56l.39,4.55h0c-1.28,0-1.63-1.33-1.48-3.29.25-3.56,2.74-12.51,5.86-12.51,1.29,0,1.66,1.36,1.52,3.36a28.63,28.63,0,0,1-3,9.86m7.35-9.76c.29-4-1.26-7.26-5.33-7.26-6.85,0-10.4,11-10.78,16.21-.29,4,1.27,7.19,5.34,7.19a6,6,0,0,0,.85-.07l0,.3a.58.58,0,0,0,.59.54h2.6l-.18-2.08c4.31-3,6.58-10.74,6.88-14.83"/><polygon class="cls-13" points="454.06 701.95 454.06 705.09 453.47 705.09 453.47 703.05 452.66 704.74 452.25 704.74 451.44 703.05 451.44 705.09 450.86 705.09 450.86 701.95 451.5 701.95 452.43 703.93 453.36 701.95 454.06 701.95"/><path class="cls-13" d="M456,705.15a1.2,1.2,0,0,1-1.33-1.34v-.64a1.2,1.2,0,0,1,1.33-1.34,1.24,1.24,0,0,1,1.28.88l-.52.23a.72.72,0,0,0-.76-.53.68.68,0,0,0-.75.76v.7a.67.67,0,0,0,.75.75.79.79,0,0,0,.76-.58l.52.18a1.16,1.16,0,0,1-1.28.93"/></g><path class="cls-13" d="M167.75,637.35v12.09h4.73v2.28h-7.62V637.35Z"/><path class="cls-13" d="M174,637.26a1.77,1.77,0,1,1,1.77,1.69A1.7,1.7,0,0,1,174,637.26Zm.31,3h2.88v11.41h-2.88Z"/><path class="cls-13" d="M181.92,640.31l2.88,8.76,2.89-8.76h3.07l-4.23,11.41H183l-4.2-11.41Z"/><path class="cls-13" d="M195.27,651.72h-2.88V640.31h2.88v1.77a4,4,0,0,1,3.5-1.93v3H198c-1.71,0-2.74.65-2.74,2.86Z"/><path class="cls-13" d="M205.69,651.91A5.53,5.53,0,0,1,200,646c0-3.61,2.35-5.89,5.72-5.89a5.36,5.36,0,0,1,5.63,5.64,6.91,6.91,0,0,1-.08,1.11h-8.35a2.68,2.68,0,0,0,2.74,2.64,2.35,2.35,0,0,0,2.29-1.38H211A5.31,5.31,0,0,1,205.69,651.91Zm-2.78-7h5.42a2.53,2.53,0,0,0-2.72-2.45A2.65,2.65,0,0,0,202.91,645Zm5-10v2.34l-4.74,2.17v-2.06Z"/><path class="cls-13" d="M225,640.13c2.92,0,5.21,2.28,5.21,5.85s-2.29,5.93-5.21,5.93a4.68,4.68,0,0,1-3.77-1.81v7.06h-2.89V640.31h2.89V642A4.56,4.56,0,0,1,225,640.13Zm-.76,2.53a3.38,3.38,0,0,0,0,6.72,3.12,3.12,0,0,0,3-3.4A3,3,0,0,0,224.22,642.66Z"/><path class="cls-13" d="M236.76,640.13a4.5,4.5,0,0,1,3.77,1.81v-1.63h2.91v11.41h-2.91v-1.66a4.51,4.51,0,0,1-3.79,1.85c-2.88,0-5.19-2.37-5.19-5.93S233.86,640.13,236.76,640.13Zm.74,2.53a3,3,0,0,0-3,3.32,3.12,3.12,0,0,0,3,3.4,3.38,3.38,0,0,0,0-6.72Z"/><path class="cls-13" d="M249.15,651.72h-2.89V640.31h2.89v1.77a4,4,0,0,1,3.5-1.93v3h-.76c-1.71,0-2.74.65-2.74,2.86Z"/></g></g></g></svg>