<svg xmlns="http://www.w3.org/2000/svg" width="699.67" height="459.941" viewBox="0 0 699.67 459.941">
  <g>
    <path d="M317.352,1.585C453.6-8.476,592.513,29.869,658.337,102.062c20.02,21.955,51.542,79.2,16.756,108.066-20.3,16.849-47.679,2.924-77.632,4.566-17.164.95-34.4,9.739-50.242,9.14-20.186-.747-38.739-14.512-54.793-15.213-30.273-1.342-55.062,18.891-85.245,16.733-24.381-1.734-46.107-25.691-71.552-28.92-47.5-6.026-113.445,13.577-156.8,19.8-69.531,9.956-156.892,14.617-152.2-62.425,1.1-18.206,11.279-39.377,25.857-56.314C97.5,45.266,213.73,9.246,317.352,1.585" fill="#e87200" fill-rule="evenodd"/>
    <path d="M33.6,185.215S37.588,81.155,229.879,43.366c39.705-6.694,267.877-45.916,407.074,79.405,0,0,31.407,30.32,31.892,49.459.382,8.748.051,30.589-23.757,29.951-23.807-.656-36.176-16.641-47.028-16.641-16.934,0-22.456,21.885-45.855,21.885s-28.933-36.348-53.48-36.348-50.611,35.775-86.405,35.775c-35.769,0-29.1-53.274-74.393-53.274s-126.64,47.481-210.379,47.481c-83.715,0-93.2-9.156-93.948-15.844" fill-rule="evenodd"/>
    <path d="M134.207,132.089c4.591,0,12.4,4.832,12.4,13.641,0,9.512-8.41,16.816-20.119,16.816-13.1,0-19.605-5.981-19.605-11.075,0-2.078,1.8-4.122,5.043-4.122,1.164,0,7.049.641,9.114.641,5.853.016,10.09-1.712,10.09-11.731,0-2.774.64-4.17,3.073-4.17" fill="#e87200"/>
    <path d="M215.145,87.6c6.27,0,12.283,5.652,12.283,11.164,0,10.893-10.96,17.932-22.826,17.932-11.7,0-15.553-4.912-15.553-6.631,0-.924,1.077-1.96,3.784-1.96,11.974,0,23.185-6.871,18.945-16.695-1.116-2.576-.048-3.81,3.367-3.81" fill="#e87200"/>
    <path d="M429.56,53.7c7.868,0,13.478,4.9,13.478,10.064,0,11.6-10.89,19.038-24.432,19.038-10.953,0-16.883-5.218-16.883-8.817,0-.826.906-2.637,3.583-2.923,11.056-1.183,19.906-3.351,18.86-12.8-.267-2.451,1.99-4.565,5.394-4.565" fill="#e87200"/>
    <path d="M330.423,60.915c6.232,0,15.538,4.008,15.538,12.274,0,8.423-9.274,12.736-19.632,12.736-11.888,0-18.6-5.7-18.6-7.9,0-.931.957-1.247,3-1.543,4.807-.686,18.458-.893,18.7-6.829.118-2.687-1.463-4.115-1.463-6.917,0-1.524,1.109-1.818,2.455-1.818" fill="#e87200"/>
    <path d="M551.057,96.486c5.816,0,14.168,4.724,14.168,11.355,0,8.486-7.728,13.4-16.743,13.4-10.049,0-16.488-4.957-16.488-8.588a3.391,3.391,0,0,1,3.366-3.462c11.183-.727,15.251-1.846,15.238-4.865-.037-1.18-1.581-3.341-2.218-4.1-1.671-2.133.969-3.733,2.677-3.733" fill="#e87200"/>
    <path d="M378.554,98.73c4.577,0,9.308,4.728,9.308,10.093,0,7.058-6.477,10.871-14.013,10.871-8.009,0-11.1-4.434-11.1-7.119,0-1.338.829-1.883,2.923-2.052,9.118-.686,11.808-2.363,10.38-8.9a2.357,2.357,0,0,1,2.5-2.895" fill="#e87200"/>
    <path d="M131.845,246.949v4.645c-2.885,0-6.424.389-6.424,4.083v45.2c0,3.694,3.539,4.1,6.1,4.1v4.424h-39.8v-4.424c3.159,0,6.433-.4,6.433-4.1V283.266H74.329v17.607c0,3.694,3.257,4.1,6.41,4.1v4.424h-40.1v-4.424c2.876,0,6.414-.4,6.414-4.1v-45.2c0-3.694-3.538-4.083-6.414-4.083v-4.645h40.1v4.645c-3.153,0-6.41.389-6.41,4.083v17.212H98.158V255.677c0-3.694-3.274-4.083-6.433-4.083v-4.645Z"/>
    <path d="M223.21,297.177l-21.8-50.228h-43.5v4.6c4.231,0,5.407,1.365,5.407,2.936a16.775,16.775,0,0,1-1.833,6.367l-16.214,35.723c-3.178,7.029-4.925,8.289-9.207,8.289v4.529h29.808V304.95c-2.66-.022-5.761-.281-5.752-2.707.007-2.049,1.572-6.025,3.08-9.592h27.936c2.655,5.7,3.325,7.976,3.325,9.838,0,2.04-3.583,2.461-5.8,2.461l-.039,4.443h43.631l.018-4.529c-4.969,0-6.707-2.621-9.063-7.687m-45.552-37.888,9.736,23.772H167.106l10-23.772Z"/>
    <path d="M362.751,246.949l.038,4.584c-3.662,0-5.626,1.234-5.626,3.491,0,2.716,1.045,5.237,2.738,9.535l11.014,26.849h.536s8.952-22.5,10.788-27.155,2.6-7.329,2.6-9.277c0-2.448-1.53-3.433-5.33-3.433l-.038-4.594h30.655v4.495c-2.627,0-5.483.283-8.608,6.937-3.009,6.382-22.672,51.012-22.672,51.012H351.323s-20.368-42.637-23.543-49.316c-3.178-6.717-5.1-8.544-8.522-8.544l.036-4.584Z"/>
    <path d="M472.444,288.166h-5.05c-.688-4.043-1.823-6.491-8.263-6.491H448.687v17.913h21.627c8.11,0,13.223-2.047,13.747-8.77h4.871v18.575H414.424v-4.529c2.9,0,6.414-.376,6.414-4.078V255.8c0-4.333-3.519-4.333-6.108-4.333v-4.514h70.325v16.7h-4.628c-.205-2.978-3.444-7.508-10.992-7.508H448.687v15.946h10.444c6.44,0,7.575-2.442,8.263-6.478h5.05Z"/>
    <path d="M531.293,246.949l.038,4.549c-3.43,0-4.616,1.664-4.54,3.131.052.972.5,2.608,2.448,6.025,2.564,4.5,9.717,15.662,9.717,15.662h.268s6.848-11.639,8.977-15.512c1.773-3.208,2.282-4.989,2.309-6.163.051-1.913-1.263-3.143-4.642-3.143v-4.549h27.964l-.026,4.46a8.206,8.206,0,0,0-6.133,4.182L546.556,288.43v12.248c0,3.6,3.137,4.291,6.555,4.291v4.424H511.2v-4.424c3.277,0,6.809-.695,6.809-4.291V288.714l-21.576-32.431c-2.588-4.2-4.182-4.674-6.86-4.674l.051-4.66Z"/>
    <path d="M575.668,272.433c2.193-1.922,5.866-5.623,5.815-14.98V246.936H596.8V252c0,6.437-1.939,12.424-8,17.528A27.617,27.617,0,0,1,577.721,275Z"/>
    <path d="M599.947,289.15h5.586c.675,7.888,10.928,12.618,23.883,12.618,9.437,0,15.914-2.273,15.914-6.643,0-3.227-4.973-5.105-18.26-8.537-17.508-4.511-27.148-9.651-27.148-20.993,0-10.166,10.176-19.249,35.373-19.249,13.338,0,21.614,1.734,28.589,3.676v15.991h-5.19c-1.186-6.121-10.864-10.313-22.022-10.313-7.893,0-13.415,1.527-13.415,5.515,0,3.49,4.9,5.633,18.12,8.7,20.148,4.67,27.646,10.408,27.646,20.7,0,14.167-15.43,21.145-38.753,21.145-9.015,0-22.659-2.047-30.323-5.786Z"/>
    <path d="M276.773,284.8c5.659,7.447,10.919,15.541,16.708,24.6h31.666l.025-4.427a10.6,10.6,0,0,1-8.6-4.339c-5.279-6.488-11.135-13.9-16.249-19.928,9.095-2.384,16.721-8,16.721-16.057,0-6.94-5.767-12.149-12.783-14.6-6.268-2.209-14.732-3.092-25.57-3.092H236.774v4.75c2.586,0,6.115.389,6.115,4.1v45.077c0,3.694-3.529,4.1-6.095,4.1v4.424h39.125v-4.424c-2.614,0-5.757-.775-6.009-3.609V284.8Zm-2.537-28.65c10.523,0,16.29,3.357,16.29,9.733,0,6.538-5.649,9.78-16.236,9.94h-4.44V256.146Z"/>
    <path d="M5.3,342.554c27.059-1,51.883,8.965,80.68,10.673,145.129,8.6,176.715-10.73,257.264-16.743,53.008-3.965,84.389,7.09,127.847,10.655,25.669,2.1,53.953,1.173,85.258,0,42.921-1.607,137.551-24.879,143.1,22.837,3.71,31.982-40.041,64.377-65.455,76.1-53.608,24.745-129.3,9.889-197.892,4.572-34.021-2.64-68.6-2.78-105.036-1.517-114.4,3.94-238.231,31.528-301.416-27.429C12.078,405.318-10.393,373.623,5.3,342.554" fill="#e87200" fill-rule="evenodd"/>
    <path d="M14.15,375.485c15,24.732,53.682,55.821,119.6,56.248,128.53-5.248,151.113-5.4,229.58-5.4s106.275,7.886,180.592,9.557c74.3,1.651,101.286-24.5,118.73-35.718,17.432-11.2,26.562-34.034,2.907-38.605S599.119,374.019,533.116,376.1s-131.6-12.873-166.893-13.281-112.916,13.7-209.239,17.419C60.675,384,7.8,346.813,7.8,346.813a45.354,45.354,0,0,0,6.347,28.672" fill-rule="evenodd"/>
    <g>
      <path d="M665.5,446.738h.936l.252-5.469h-.984v-1.211h2.158l2.423,4.389,2.423-4.389h2.147v1.211h-.984l.252,5.469h.936v1.211h-3.239v-1.211h.948l-.156-4.066-2.255,3.958h-.179l-2.255-3.958-.156,4.066h.947v1.211H665.5Z" fill="#231f20"/>
      <path d="M675.907,446.738h.9v-5.469h-.9v-1.211h2.987c2.854,0,4.546,1.487,4.546,3.874,0,2.41-1.6,4.017-4.69,4.017h-2.843Zm3.035,0c2.039,0,3.094-1.1,3.094-2.794,0-1.727-1.223-2.675-3.19-2.675h-.684v5.469Z" fill="#231f20"/>
    </g>
  </g>
</svg>
