<svg xmlns="http://www.w3.org/2000/svg" viewBox="0 0 309.12 77.93"><defs><style>.cls-1{fill:#f0f}.cls-2{fill:#00f}</style></defs><g id="Layer_2" data-name="Layer 2"><g id="concepts_round_2" data-name="concepts round 2"><path d="M122.58,11.16V58.6h-8.35V53.28A10.55,10.55,0,0,1,110,57.59a13,13,0,0,1-6.36,1.55A13.67,13.67,0,0,1,96,57a14.37,14.37,0,0,1-5.19-6.1,21.08,21.08,0,0,1-1.85-9,20.44,20.44,0,0,1,1.85-9,13.6,13.6,0,0,1,12.76-8,13.14,13.14,0,0,1,6.32,1.49,10.15,10.15,0,0,1,4.24,4.17V11.16ZM112,49.85q2.19-2.76,2.19-7.87T112,34.14a7.44,7.44,0,0,0-6.15-2.73,7.66,7.66,0,0,0-6.26,2.69q-2.22,2.7-2.22,7.74t2.22,7.94a8.29,8.29,0,0,0,12.41.07Z"/><path d="M130.79,10.42h9.28v8.27h-9.28Zm.47,48.18V25.69h8.41V58.6Z"/><path d="M176.28,28.25q2.9,3.36,2.89,10.16V58.6h-8.41V38.88c0-2.55-.48-4.42-1.45-5.58a5.54,5.54,0,0,0-4.54-1.75A7.7,7.7,0,0,0,159,33.83,8.5,8.5,0,0,0,156.76,40V58.6h-8.41V25.69h8.21V30.6a11.39,11.39,0,0,1,4.51-4.23,13.54,13.54,0,0,1,6.39-1.49Q173.39,24.88,176.28,28.25Z"/><path d="M216.59,43.66H194.18q.4,4.58,2.76,6.8t6.73,2.22a15.9,15.9,0,0,0,10-3.5L216.05,55a17.85,17.85,0,0,1-5.75,3,22.17,22.17,0,0,1-7,1.14q-8.07,0-12.75-4.58T185.9,42a19.31,19.31,0,0,1,2-8.95A14.64,14.64,0,0,1,193.61,27a16,16,0,0,1,8.31-2.16q6.79,0,10.73,4.38t3.94,12ZM196.7,33a10.45,10.45,0,0,0-2.52,6.19h15.21a9.57,9.57,0,0,0-2-6.22,6.65,6.65,0,0,0-5.25-2.12A7.13,7.13,0,0,0,196.7,33Z"/><path d="M223.25,58.6V18.29H207.77V11.16h39.64v7.13H231.93V58.6Z"/><path d="M263.7,28.25q3.36,3.36,3.36,10.36v20h-8V53.55a8.78,8.78,0,0,1-3.6,4.11,10.83,10.83,0,0,1-5.68,1.48,13.16,13.16,0,0,1-6-1.35,10.55,10.55,0,0,1-4.24-3.7A9.37,9.37,0,0,1,238,48.84a8.34,8.34,0,0,1,1.85-5.72q1.84-2.09,6-3a55.51,55.51,0,0,1,11.51-.94h1.68V37.6q0-3.36-1.44-4.84t-4.81-1.48a18,18,0,0,0-5.49.91,27.18,27.18,0,0,0-5.62,2.52l-2.35-5.79a29,29,0,0,1,14.06-4Q260.33,24.88,263.7,28.25Zm-6.77,22.58A8.13,8.13,0,0,0,259.05,45V43.59h-1.21a46.24,46.24,0,0,0-7,.41,6.77,6.77,0,0,0-3.56,1.41,3.59,3.59,0,0,0-1.08,2.76,4.59,4.59,0,0,0,1.48,3.53,5.31,5.31,0,0,0,3.77,1.38A7.18,7.18,0,0,0,256.93,50.83Z"/><path d="M302.12,27a14,14,0,0,1,5.15,5.92,20.3,20.3,0,0,1,1.85,9,20.93,20.93,0,0,1-1.85,9,14.28,14.28,0,0,1-5.18,6.1,13.67,13.67,0,0,1-7.57,2.15,12.91,12.91,0,0,1-6.36-1.55,10.49,10.49,0,0,1-4.27-4.31V58.6h-8.28V11.16H284V30.47a10.14,10.14,0,0,1,4.24-4.14,13.34,13.34,0,0,1,6.26-1.45A13.89,13.89,0,0,1,302.12,27Zm-3.63,22.81q2.22-2.82,2.22-7.94t-2.19-7.74a8.5,8.5,0,0,0-12.45,0q-2.18,2.73-2.18,7.84t2.18,7.87a7.5,7.5,0,0,0,6.23,2.76A7.41,7.41,0,0,0,298.49,49.78Z"/><path d="M28.41,60.64A21.68,21.68,0,1,1,50.09,39,21.7,21.7,0,0,1,28.41,60.64Zm0-36.71a15,15,0,1,0,15,15A15,15,0,0,0,28.41,23.93Z" class="cls-1"/><path d="M14,77.93A14,14,0,0,1,7,76,13.89,13.89,0,0,1,0,63.87V14.06A13.89,13.89,0,0,1,7,1.9a13.92,13.92,0,0,1,14,0L64.19,26.81a14,14,0,0,1,0,24.31L21.05,76A14.11,14.11,0,0,1,14,77.93ZM14,6.65a7.44,7.44,0,0,0-3.69,1,7.32,7.32,0,0,0-3.7,6.41V63.87a7.4,7.4,0,0,0,11.09,6.4l43.14-24.9a7.39,7.39,0,0,0,0-12.81L17.73,7.65A7.48,7.48,0,0,0,14,6.65Z" class="cls-2"/></g></g></svg>