<?xml version="1.0" encoding="utf-8"?>
<!-- Generator: Adobe Illustrator 25.1.0, SVG Export Plug-In . SVG Version: 6.00 Build 0)  -->
<svg version="1.1" id="Aneb_x5F_Anglais" xmlns="http://www.w3.org/2000/svg" xmlns:xlink="http://www.w3.org/1999/xlink" x="0px"
	 y="0px" viewBox="0 0 120.8 60.2" style="enable-background:new 0 0 120.8 60.2;" xml:space="preserve">
<style type="text/css">
	.st0{fill:#FFFFFF;}
</style>
<g>
	<path class="st0" d="M14.6,49.2c-7.8,0-14.1-6.3-14.1-14.1l0,0c0-7.8,6.3-14.1,14.1-14.1l0,0c7.8,0,14.1,6.3,14.1,14.1l0,0v13.1
		c0,0.3-0.1,0.5-0.3,0.8l0,0c-0.2,0.2-0.5,0.3-0.8,0.3l0,0L14.6,49.2L14.6,49.2z M27.7,48.2v-1.1V48.2L27.7,48.2z M2.6,35.1
		c0,6.6,5.4,12,12,12l0,0h12v-12c0-6.6-5.4-12-12-12l0,0C8,23.1,2.6,28.4,2.6,35.1L2.6,35.1z"/>
	<path class="st0" d="M75.5,49.2c-7.8,0-14.1-6.3-14.1-14.1l0,0c0-7.8,6.3-14.1,14.1-14.1l0,0c7.8,0,14.1,6.3,14.1,14.1l0,0v2.6
		c0,0.3-0.1,0.6-0.3,0.8l0,0c-0.2,0.2-0.5,0.3-0.7,0.3l0,0H64.1c1.6,4.8,6.1,8.3,11.4,8.3l0,0l5.2,0c0.6,0,1.1,0.5,1.1,1.1l0,0
		c0,0.6-0.5,1.1-1.1,1.1l0,0L75.5,49.2L75.5,49.2z M63.5,35.1c0,0.5,0,1,0.1,1.6l0,0l23.9,0v-1.6c0-6.6-5.4-12-12-12l0,0
		C68.9,23.1,63.5,28.4,63.5,35.1L63.5,35.1z"/>
	<path class="st0" d="M56,48.2V35.1c0-6.6-5.4-12-12-12l0,0h-9.4v25.1c0,0.6-0.5,1.1-1.1,1.1l0,0c-0.6,0-1.1-0.5-1.1-1.1l0,0V22
		c0-0.3,0.1-0.6,0.3-0.8l0,0c0.2-0.2,0.5-0.3,0.8-0.3l0,0h10.5c7.8,0,14.1,6.3,14.1,14.1l0,0l0,13.1c0,0.6-0.5,1.1-1.1,1.1l0,0
		C56.4,49.2,56,48.7,56,48.2L56,48.2z"/>
	<path class="st0" d="M26.6,48.2V22c0-0.6,0.5-1.1,1.1-1.1l0,0c0.6,0,1.1,0.5,1.1,1.1l0,0v26.2c0,0.6-0.5,1.1-1.1,1.1l0,0
		C27.1,49.2,26.6,48.7,26.6,48.2L26.6,48.2z"/>
	<path class="st0" d="M93.6,49.2c-0.3,0-0.6-0.1-0.8-0.3l0,0c-0.2-0.2-0.3-0.5-0.3-0.8l0,0V35.1v-34C92.6,0.5,93,0,93.6,0l0,0
		c0.6,0,1.1,0.5,1.1,1.1l0,0v26.6c2.5-4,6.9-6.7,12-6.7l0,0c7.8,0,14.1,6.3,14.1,14.1l0,0c0,7.8-6.3,14.1-14.1,14.1l0,0L93.6,49.2
		L93.6,49.2z M94.7,47.1h12c6.6,0,12-5.4,12-12l0,0c0-6.6-5.4-12-12-12l0,0c-6.6,0-12,5.4-12,12l0,0c0,0,0,0,0,0.1l0,0V47.1
		L94.7,47.1z"/>
</g>
<g>
	<path class="st0" d="M5,60.1c-0.1,0-0.2-0.1-0.2-0.1l-0.6-1.4l-3.2,0L0.5,60c0,0.1-0.1,0.2-0.2,0.2C0.1,60.1,0,60,0,59.9
		c0,0,0-0.1,0-0.1L2.4,54c0-0.1,0.2-0.2,0.3-0.2c0.1,0,0.2,0.1,0.2,0.2l2.4,5.8c0,0,0,0.1,0,0.1C5.3,60,5.1,60.1,5,60.1z M2.6,54.7
		l-1.4,3.4l2.8,0L2.6,54.7z"/>
	<path class="st0" d="M10,60.1c-0.1,0-0.3-0.1-0.3-0.2l0-2.6c0-0.8-0.7-1.5-1.5-1.5c-0.8,0-1.5,0.7-1.5,1.5l0,2.6
		c0,0.2-0.1,0.2-0.2,0.2c-0.1,0-0.3-0.1-0.3-0.2l0-4.2c0-0.2,0.1-0.2,0.3-0.2c0.1,0,0.2,0.1,0.2,0.2V56c0.4-0.4,0.9-0.7,1.5-0.7
		c1.1,0,2,0.9,2,2l0,2.6C10.3,60,10.1,60.1,10,60.1z"/>
	<path class="st0" d="M13.7,60.2c-1.4,0-2.2-1.2-2.2-2.5c0-1.3,0.8-2.5,2.2-2.5c1.4,0,2.2,1.2,2.2,2.5
		C15.9,59.1,15.1,60.2,13.7,60.2z M13.6,55.7c-1,0-1.7,0.8-1.7,2c0,1.1,0.7,2,1.7,2c1.1,0,1.7-0.9,1.7-2
		C15.4,56.6,14.7,55.7,13.6,55.7z"/>
	<path class="st0" d="M19.1,55.8c-0.8,0-1.5,0.7-1.5,1.5l0,2.5c0,0.2-0.1,0.2-0.2,0.2c-0.1,0-0.3-0.1-0.3-0.2l0-4.2
		c0-0.2,0.1-0.2,0.3-0.2c0.1,0,0.2,0.1,0.2,0.2l0,0.4c0.4-0.4,0.9-0.7,1.5-0.7c0.2,0,0.3,0.1,0.3,0.2C19.4,55.7,19.3,55.8,19.1,55.8
		z"/>
	<path class="st0" d="M24,58l-3.7,0c0.1,1,0.7,1.7,1.7,1.7c0.5,0,1-0.2,1.3-0.6c0.1-0.1,0.1-0.1,0.2-0.1c0.1,0,0.3,0.1,0.3,0.2
		c0,0.1,0,0.1-0.2,0.3c-0.4,0.5-1,0.7-1.6,0.7c-1.4,0-2.2-1.2-2.2-2.5c0-1.3,0.8-2.5,2.2-2.5c1.4,0,2.2,1.2,2.2,2.5
		C24.2,57.8,24.1,58,24,58z M22,55.7c-1.1,0-1.6,0.8-1.7,1.7l3.4,0C23.7,56.5,23,55.7,22,55.7z"/>
	<path class="st0" d="M28.9,60c-0.1,0-0.1,0-0.2-0.1l-1.6-2l-1.6,2c-0.1,0.1-0.1,0.1-0.2,0.1c-0.1,0-0.3-0.1-0.3-0.2
		c0-0.1,0-0.1,0.1-0.2l1.6-2.1l-1.4-1.8c0-0.1-0.1-0.1-0.1-0.2c0-0.1,0.1-0.2,0.3-0.2c0.1,0,0.1,0,0.2,0.1l1.4,1.7l1.4-1.7
		c0-0.1,0.1-0.1,0.2-0.1c0.1,0,0.3,0.1,0.3,0.2c0,0.1,0,0.1-0.1,0.2l-1.4,1.8l1.6,2.1c0.1,0.1,0.1,0.1,0.1,0.2
		C29.2,59.9,29,60,28.9,60z"/>
	<path class="st0" d="M30.4,54.5c-0.3,0-0.5-0.2-0.5-0.5c0-0.3,0.2-0.5,0.5-0.5c0.3,0,0.5,0.2,0.5,0.5S30.7,54.5,30.4,54.5z
		 M30.4,60c-0.1,0-0.3-0.1-0.3-0.2l0-4.2c0-0.2,0.1-0.2,0.3-0.2c0.1,0,0.2,0.1,0.2,0.2l0,4.2C30.7,59.9,30.6,60,30.4,60z"/>
	<path class="st0" d="M36.1,57.9l-3.7,0c0.1,1,0.7,1.7,1.7,1.7c0.5,0,1-0.2,1.3-0.6c0.1-0.1,0.1-0.1,0.2-0.1c0.1,0,0.3,0.1,0.3,0.2
		c0,0.1,0,0.1-0.2,0.3c-0.4,0.5-1,0.7-1.6,0.7c-1.4,0-2.2-1.2-2.2-2.5c0-1.3,0.8-2.5,2.2-2.5c1.4,0,2.2,1.2,2.2,2.5
		C36.4,57.8,36.2,57.9,36.1,57.9z M34.1,55.7c-1.1,0-1.6,0.8-1.7,1.7l3.4,0C35.8,56.4,35.1,55.7,34.1,55.7z"/>
	<path class="st0" d="M44,57.9l-3.7,0c0.1,1,0.7,1.7,1.7,1.7c0.5,0,1-0.2,1.3-0.6c0.1-0.1,0.1-0.1,0.2-0.1c0.1,0,0.3,0.1,0.3,0.2
		c0,0.1,0,0.1-0.2,0.3c-0.4,0.5-1,0.7-1.6,0.7c-1.4,0-2.2-1.2-2.2-2.5c0-1.3,0.8-2.5,2.2-2.5s2.2,1.2,2.2,2.5
		C44.2,57.8,44.1,57.9,44,57.9z M42,55.7c-1.1,0-1.6,0.8-1.7,1.7l3.4,0C43.6,56.4,43,55.7,42,55.7z"/>
	<path class="st0" d="M47.1,60h-0.3c-0.7,0-1-0.3-1-1l0-3.2l-0.4,0c-0.2,0-0.2-0.1-0.2-0.3c0-0.1,0.1-0.2,0.2-0.2l0.4,0l0-1.3
		c0-0.2,0.1-0.2,0.3-0.2c0.1,0,0.2,0.1,0.2,0.2l0,1.3l0.8,0c0.2,0,0.2,0.1,0.2,0.2c0,0.1-0.1,0.3-0.2,0.3l-0.8,0l0,3.2
		c0,0.4,0.1,0.5,0.5,0.5h0.3c0.2,0,0.2,0.1,0.2,0.3C47.3,59.8,47.2,60,47.1,60z"/>
	<path class="st0" d="M52.9,60.1c-0.8,0-1.3-0.3-1.7-0.8l0,0.4c0,0.2-0.1,0.2-0.2,0.2c-0.1,0-0.3-0.1-0.3-0.2l0-5.8
		c0-0.2,0.1-0.2,0.3-0.2c0.1,0,0.2,0.1,0.2,0.2l0,2c0.4-0.5,0.9-0.8,1.7-0.8c1.4,0,2.2,1.2,2.2,2.5C55.1,58.9,54.3,60.1,52.9,60.1z
		 M52.9,55.6c-1.1,0-1.7,0.8-1.7,2c0,1.1,0.7,2,1.7,2c1.1,0,1.7-0.9,1.7-2C54.6,56.5,53.9,55.6,52.9,55.6z"/>
	<path class="st0" d="M58.4,60.1c-1.4,0-2.2-1.2-2.2-2.5c0-1.3,0.8-2.5,2.2-2.5c1.4,0,2.2,1.2,2.2,2.5
		C60.6,58.9,59.8,60.1,58.4,60.1z M58.4,55.6c-1,0-1.7,0.8-1.7,2c0,1.1,0.7,2,1.7,2c1.1,0,1.7-0.9,1.7-2
		C60.1,56.4,59.4,55.6,58.4,55.6z"/>
	<path class="st0" d="M65.5,59.9c-0.1,0-0.3-0.1-0.3-0.2l0-0.3c-0.4,0.4-0.9,0.7-1.5,0.7c-1.1,0-2-0.9-2-2l0-2.6
		c0-0.2,0.1-0.2,0.3-0.2c0.1,0,0.2,0.1,0.2,0.2l0,2.6c0,0.8,0.7,1.5,1.5,1.5c0.8,0,1.5-0.7,1.5-1.5l0-2.6c0-0.2,0.1-0.2,0.3-0.2
		c0.1,0,0.2,0.1,0.2,0.2l0,4.2C65.8,59.8,65.7,59.9,65.5,59.9z"/>
	<path class="st0" d="M68.1,60c-0.5,0-0.9-0.4-0.9-0.9l0-5.2c0-0.2,0.1-0.2,0.3-0.2c0.1,0,0.2,0.1,0.2,0.2l0,5.2
		c0,0.6,0.6,0.2,0.6,0.6C68.4,59.8,68.3,60,68.1,60z"/>
	<path class="st0" d="M69.6,54.4c-0.3,0-0.5-0.2-0.5-0.5c0-0.3,0.2-0.5,0.5-0.5c0.3,0,0.5,0.2,0.5,0.5
		C70.1,54.2,69.9,54.4,69.6,54.4z M69.6,59.9c-0.1,0-0.3-0.1-0.3-0.2l0-4.2c0-0.2,0.1-0.2,0.3-0.2c0.1,0,0.2,0.1,0.2,0.2l0,4.2
		C69.9,59.8,69.8,59.9,69.6,59.9z"/>
	<path class="st0" d="M77.1,59.9c-0.1,0-0.2-0.1-0.2-0.2l0-3c0-0.6-0.5-1.1-1.1-1.1s-1.1,0.5-1.1,1.1l0,3c0,0.2-0.1,0.2-0.2,0.2
		c-0.1,0-0.3-0.1-0.3-0.2l0-3c0-0.6-0.5-1.1-1.1-1.1c-0.6,0-1.1,0.5-1.1,1.1l0,3c0,0.2-0.1,0.2-0.2,0.2c-0.1,0-0.3-0.1-0.3-0.2
		l0-4.2c0-0.2,0.1-0.2,0.3-0.2c0.1,0,0.2,0.1,0.2,0.2v0.1c0.3-0.3,0.7-0.5,1.1-0.5c0.6,0,1.1,0.3,1.4,0.7c0.3-0.5,0.8-0.8,1.4-0.8
		c0.9,0,1.6,0.7,1.6,1.6l0,3C77.3,59.8,77.2,59.9,77.1,59.9z"/>
	<path class="st0" d="M78.9,54.3c-0.3,0-0.5-0.2-0.5-0.5c0-0.3,0.2-0.5,0.5-0.5c0.3,0,0.5,0.2,0.5,0.5
		C79.4,54.1,79.2,54.3,78.9,54.3z M78.9,59.9c-0.1,0-0.3-0.1-0.3-0.2l0-4.2c0-0.2,0.1-0.2,0.3-0.2c0.1,0,0.2,0.1,0.2,0.2l0,4.2
		C79.2,59.8,79.1,59.9,78.9,59.9z"/>
	<path class="st0" d="M84.6,57.8l-3.7,0c0.1,1,0.7,1.7,1.7,1.7c0.5,0,1-0.2,1.3-0.6c0.1-0.1,0.1-0.1,0.2-0.1c0.1,0,0.3,0.1,0.3,0.2
		c0,0.1,0,0.1-0.2,0.3c-0.4,0.5-1,0.7-1.6,0.7c-1.4,0-2.2-1.2-2.2-2.5c0-1.3,0.8-2.5,2.2-2.5c1.4,0,2.2,1.2,2.2,2.5
		C84.9,57.6,84.7,57.8,84.6,57.8z M82.6,55.5c-1.1,0-1.6,0.8-1.7,1.7l3.4,0C84.3,56.3,83.6,55.5,82.6,55.5z"/>
	<path class="st0" d="M93.6,60c-0.1,0-0.1,0-0.2-0.1l-0.7-0.7c-0.4,0.5-1,0.8-1.9,0.8c-1.9,0-2.6-1.6-2.6-3.3c0-1.7,0.7-3.3,2.6-3.3
		c1.9,0,2.6,1.6,2.6,3.3c0,0.8-0.1,1.5-0.4,2.1l0.8,0.8c0.1,0.1,0.1,0.1,0.1,0.2C93.9,59.9,93.8,60,93.6,60z M90.9,53.9
		c-1.5,0-2.1,1.2-2.1,2.8c0,1.6,0.6,2.8,2.1,2.8c0.7,0,1.2-0.2,1.5-0.7l-0.7-0.7c-0.1,0-0.1-0.1-0.1-0.2c0-0.1,0.1-0.3,0.3-0.3
		c0.1,0,0.1,0,0.2,0.1l0.6,0.6c0.2-0.5,0.3-1,0.3-1.7C92.9,55,92.3,53.9,90.9,53.9z"/>
	<path class="st0" d="M98.6,59.8c-0.1,0-0.3-0.1-0.3-0.2v-0.3C98,59.7,97.4,60,96.8,60c-1.1,0-2-0.9-2-2l0-2.6
		c0-0.2,0.1-0.2,0.3-0.2c0.1,0,0.2,0.1,0.2,0.2l0,2.6c0,0.8,0.7,1.5,1.5,1.5c0.8,0,1.5-0.7,1.5-1.5l0-2.6c0-0.2,0.1-0.2,0.3-0.2
		c0.1,0,0.2,0.1,0.2,0.2l0,4.2C98.8,59.7,98.7,59.8,98.6,59.8z"/>
	<path class="st0" d="M104.3,57.7l-3.7,0c0.1,1,0.7,1.7,1.7,1.7c0.5,0,1-0.2,1.3-0.6c0.1-0.1,0.1-0.1,0.2-0.1c0.1,0,0.3,0.1,0.3,0.2
		c0,0.1,0,0.1-0.2,0.3c-0.4,0.5-1,0.7-1.6,0.7c-1.4,0-2.2-1.2-2.2-2.5c0-1.3,0.8-2.5,2.2-2.5c1.4,0,2.2,1.2,2.2,2.5
		C104.5,57.6,104.4,57.7,104.3,57.7z M102.3,55.5c-1.1,0-1.6,0.8-1.7,1.7l3.4,0C103.9,56.2,103.3,55.5,102.3,55.5z M103,53.5
		l-1.2,0.9c-0.1,0-0.1,0.1-0.2,0.1c-0.1,0-0.2-0.1-0.2-0.2c0-0.1,0-0.1,0.1-0.2l1-1.1c0.1-0.1,0.2-0.1,0.2-0.1
		c0.2,0,0.4,0.2,0.4,0.4C103.2,53.4,103.1,53.5,103,53.5z"/>
	<path class="st0" d="M108,59.9c-0.8,0-1.3-0.3-1.7-0.8v0.4c0,0.2-0.1,0.2-0.2,0.2c-0.1,0-0.3-0.1-0.3-0.2l0-5.8
		c0-0.2,0.1-0.2,0.3-0.2c0.1,0,0.2,0.1,0.2,0.2l0,2c0.4-0.5,0.9-0.8,1.7-0.8c1.4,0,2.2,1.2,2.2,2.5C110.2,58.8,109.4,59.9,108,59.9z
		 M108,55.5c-1.1,0-1.7,0.8-1.7,2s0.7,2,1.7,2c1.1,0,1.7-0.9,1.7-2C109.7,56.3,109,55.5,108,55.5z"/>
	<path class="st0" d="M115.4,57.7l-3.7,0c0.1,1,0.7,1.7,1.7,1.7c0.5,0,1-0.2,1.3-0.6c0.1-0.1,0.1-0.1,0.2-0.1c0.1,0,0.3,0.1,0.3,0.2
		c0,0.1,0,0.1-0.2,0.3c-0.4,0.5-1,0.7-1.6,0.7c-1.4,0-2.2-1.2-2.2-2.5c0-1.3,0.8-2.5,2.2-2.5c1.4,0,2.2,1.2,2.2,2.5
		C115.7,57.5,115.6,57.7,115.4,57.7z M113.5,55.4c-1.1,0-1.6,0.8-1.7,1.7l3.4,0C115.1,56.2,114.4,55.4,113.5,55.4z"/>
	<path class="st0" d="M120.5,59.2c-0.4,0.4-0.9,0.7-1.6,0.7c-1.4,0-2.2-1.2-2.2-2.5c0-1.3,0.8-2.5,2.2-2.5c0.7,0,1.2,0.2,1.6,0.7
		c0.1,0.1,0.1,0.1,0.1,0.2c0,0.1-0.1,0.3-0.3,0.3c-0.1,0-0.1,0-0.2-0.1c-0.3-0.3-0.7-0.5-1.2-0.5c-1,0-1.7,0.8-1.7,2
		c0,1.1,0.7,2,1.7,2c0.5,0,0.9-0.2,1.2-0.5c0.1-0.1,0.1-0.1,0.2-0.1c0.1,0,0.3,0.1,0.3,0.3C120.6,59.1,120.6,59.2,120.5,59.2z"/>
</g>
</svg>
