<svg xmlns="http://www.w3.org/2000/svg" xmlns:xlink="http://www.w3.org/1999/xlink" viewBox="0 0 487.43 736.07"><defs><style>.cls-1{fill:none;}.cls-2{isolation:isolate;}.cls-3{fill:#cf3339;}.cls-4{fill:#fff;}.cls-5{fill:#b68400;}.cls-6{fill:#edb458;}.cls-7{fill:#7f5b49;}.cls-8{fill:#d19d50;}.cls-9{fill:#4197cb;}.cls-10{fill:#009ade;}.cls-11{opacity:0.3;mix-blend-mode:multiply;}.cls-12{clip-path:url(#clip-path);}.cls-13{fill:#ff8000;}</style><clipPath id="clip-path"><rect class="cls-1" x="44.05" y="607.05" width="400.11" height="156.65"/></clipPath></defs><g class="cls-2"><g id="Layer_2" data-name="Layer 2"><g id="logo_en" data-name="logo en"><path class="cls-3" d="M366.42,67.68h2.19l2.45,7h0l2.39-7h2.17v8.9h-1.48V69.71h0l-2.47,6.87h-1.28l-2.46-6.87h0v6.87h-1.48Z"/><path class="cls-3" d="M377.52,67.68h3.68A4.2,4.2,0,0,1,383,68a3.22,3.22,0,0,1,1.22,1,4.21,4.21,0,0,1,.71,1.42,6.62,6.62,0,0,1,0,3.46,4.07,4.07,0,0,1-.71,1.41,3.25,3.25,0,0,1-1.22,1,4.2,4.2,0,0,1-1.77.35h-3.68Zm1.55,7.63h1.53a3.88,3.88,0,0,0,1.49-.25,2.11,2.11,0,0,0,.91-.67,2.45,2.45,0,0,0,.45-1,6.57,6.57,0,0,0,0-2.5,2.45,2.45,0,0,0-.45-1,2.11,2.11,0,0,0-.91-.67A3.7,3.7,0,0,0,380.6,69h-1.53Z"/><path class="cls-3" d="M388.86,67.47h1.36l-3.58,9.32h-1.35Z"/><path class="cls-3" d="M399.5,72.13a4.84,4.84,0,0,1-.37,1.9,4.49,4.49,0,0,1-2.45,2.42,4.53,4.53,0,0,1-1.74.34,4.66,4.66,0,0,1-1.85-.36,4.14,4.14,0,0,1-1.44-1A4.33,4.33,0,0,1,390.7,74a5.23,5.23,0,0,1,0-3.76,4.41,4.41,0,0,1,2.46-2.41,4.63,4.63,0,0,1,4.95.94,4.61,4.61,0,0,1,1,1.47A4.93,4.93,0,0,1,399.5,72.13Zm-1,0a4.41,4.41,0,0,0-.27-1.56,3.88,3.88,0,0,0-.76-1.22,3.48,3.48,0,0,0-1.14-.79,3.39,3.39,0,0,0-1.39-.28,3.45,3.45,0,0,0-1.41.28,3.38,3.38,0,0,0-1.14.79,3.55,3.55,0,0,0-.76,1.22,4.2,4.2,0,0,0-.28,1.56,4.52,4.52,0,0,0,.25,1.49,3.62,3.62,0,0,0,.72,1.22,3.31,3.31,0,0,0,1.12.83,3.44,3.44,0,0,0,1.5.31,3.56,3.56,0,0,0,1.39-.28,3.48,3.48,0,0,0,1.14-.79,3.88,3.88,0,0,0,.76-1.22A4.33,4.33,0,0,0,398.5,72.13ZM394,74.79h-.85V69.64h2a2.28,2.28,0,0,1,1.4.35,1.3,1.3,0,0,1,.48,1.13,1.24,1.24,0,0,1-.39,1,1.73,1.73,0,0,1-1,.39l1.45,2.26h-1l-1.34-2.2H394Zm.94-2.92.46,0a.94.94,0,0,0,.38-.11.67.67,0,0,0,.26-.24.78.78,0,0,0,.1-.44.63.63,0,0,0-.11-.38.75.75,0,0,0-.26-.21,1.06,1.06,0,0,0-.37-.09l-.38,0h-1v1.51Z"/><path class="cls-3" d="M84.4,64.34l-2.29,2.21L87.36,72l-3.69,3.56L69.05,60.39l6-5.77c3.71-3.58,7.59-3.28,10.28-.49C87.72,56.63,88.27,60.61,84.4,64.34Zm-3.11-2.67c1.47-1.41,1.38-2.75.26-3.92s-2.46-1.29-3.93.12l-2,1.94,3.67,3.8Z"/><path class="cls-3" d="M101,60.22,96.93,63.3,86.88,49.92,91,46.83l1.68,2.24a6.23,6.23,0,0,1,2.41-5.53l3.26,4.34-1.13.85c-1.94,1.46-2.56,3-.83,5.28Z"/><path class="cls-3" d="M113.3,52.31c-4.21,2.53-9,1.52-11.68-3s-1.45-9.17,2.82-11.73,8.81-1.52,11.44,2.86a11.86,11.86,0,0,1,.69,1.33l-9.95,6c1.29,1.79,3,2,4.38,1.12a2.73,2.73,0,0,0,1.46-2.77l4.68-2.81A7.84,7.84,0,0,1,113.3,52.31Zm-8.12-7.06,5.5-3.3a2.89,2.89,0,0,0-4.18-.85A3.17,3.17,0,0,0,105.18,45.25Z"/><path class="cls-3" d="M128.58,44.18c-4,1.91-7.81.94-9.41-1.89l4.58-2.16a2.35,2.35,0,0,0,3.17.66c1.19-.56,1.56-1.4,1.24-2.08-1.15-2.44-8.57,3.22-11.19-2.34-1.22-2.58,0-5.74,3.94-7.6s7.1-.7,8.81,2.14l-4.29,2a2.2,2.2,0,0,0-3-.65c-1.09.51-1.48,1.22-1.13,2,1.14,2.41,8.52-3.16,11.27,2.44C133.78,39.31,132.38,42.39,128.58,44.18Z"/><path class="cls-3" d="M144.17,37.67c-4.61,1.71-9.08-.16-10.92-5.14s.28-9.28,4.95-11,8.94.15,10.71,4.93a12.11,12.11,0,0,1,.44,1.44l-10.89,4c.93,2,2.55,2.48,4.09,1.9a2.73,2.73,0,0,0,1.95-2.44l5.12-1.9A7.83,7.83,0,0,1,144.17,37.67Zm-6.67-8.44,6-2.23a2.89,2.89,0,0,0-4-1.6A3.16,3.16,0,0,0,137.5,29.23Z"/><path class="cls-3" d="M162.78,22.05c-.61-2.19-2.16-3.07-4-2.55s-2.76,2.06-2.15,4.26L159,32.52l-4.95,1.37-4.45-16.14,4.95-1.36.59,2.14a6.1,6.1,0,0,1,4.24-3.66c3.73-1,6.92.82,8.12,5.16l2.6,9.43-4.91,1.35Z"/><path class="cls-3" d="M171.58,16.45l-2,.41-.86-4.17,2-.42-.83-4,5-1,.83,4,3.29-.68.86,4.17-3.29.68L178,22c.2,1,.7,1.3,1.81,1.07l1.79-.37.89,4.26-2.56.53c-3.41.7-6.08-.24-7-4.5Z"/><path class="cls-3" d="M192.35,25.57c-4.87.73-8.86-2-9.64-7.27s2.18-9,7.11-9.76,8.72,2,9.47,7a12,12,0,0,1,.13,1.5l-11.48,1.7c.5,2.15,2,3,3.62,2.71a2.72,2.72,0,0,0,2.4-2l5.4-.81A7.82,7.82,0,0,1,192.35,25.57Zm-4.8-9.63L193.9,15a2.9,2.9,0,0,0-3.54-2.39A3.18,3.18,0,0,0,187.55,15.94Z"/><path class="cls-3" d="M207.88,6.42a6.16,6.16,0,0,1,5.34,2.13L212.61.81,217.72.4l1.76,22.13-5.11.41-.19-2.39a5.82,5.82,0,0,1-4.94,3c-4.1.32-7.62-2.77-8-8S203.78,6.75,207.88,6.42Zm1.85,4.34c-1.92.15-3.54,1.72-3.33,4.39s2.07,4,4,3.86,3.53-1.75,3.32-4.42S211.67,10.6,209.73,10.76Z"/><path class="cls-3" d="M239.56,5.32c4.14,0,7.35,3.37,7.3,8.65s-3.35,8.61-7.46,8.57a5.91,5.91,0,0,1-5.14-2.63l0,2.34-5.13-.05L229.32,0l5.13.05-.07,7.83A5.9,5.9,0,0,1,239.56,5.32ZM238,9.77c-1.92,0-3.67,1.44-3.7,4.11s1.7,4.16,3.62,4.17,3.7-1.46,3.73-4.13S239.94,9.79,238,9.77Z"/><path class="cls-3" d="M261.9,6.67l5.53.41-12.3,23.85-5.51-.41,4.46-8.21L248.49,5.67l5.72.43,3.08,10.73Z"/><ellipse class="cls-3" cx="234.72" cy="126.39" rx="154.12" ry="86.36"/><path class="cls-4" d="M108.71,131c-2.15,8.15,1.11,15.37,11.47,15.37,5.81,0,10.89-3.36,12.07-8.28,1.28-5.45-1.75-8.68-5.33-12.31l-3.38-3.52c-4.42-4.51-7.79-8.58-6.17-15.33,2.29-9.68,12.51-15.73,24-15.73,6.11,0,10.89,1.72,14.65,5,7.65,7.71-1.82,12.64-3.92,12.18a2.22,2.22,0,0,1-.72-.23c2-6.24-.14-13.17-8.81-13.17-4.87,0-10.86,2.6-11.92,7-1.2,5,2.41,8.48,5.66,11.77l3.07,3c4.89,4.76,8.89,9.24,7.14,16.61-2.51,10.55-13.09,16.79-25.55,16.79-6.87,0-13.69-2.07-17.49-6.36C96.18,135.29,104.6,130.88,108.71,131Z"/><path class="cls-4" d="M195.23,170.73,207.31,144h.2c1.5,3.58,4.9,5.66,9.82,5.66,15.56,0,26.42-15,27.77-26.12a15.52,15.52,0,0,0,.07-3.23c-.46-5.36-4.09-9.29-11.83-9.29a20.61,20.61,0,0,0-14.22,5.73l-.19-.16,1.28-3a13.42,13.42,0,0,0-7.82-6.6L187,163.64A14.2,14.2,0,0,0,195.23,170.73Zm37.83-49.55c-.77,6.26-8.38,23.68-18,23.68-3.85,0-5-3-4.67-5.66.67-5.3,7.93-23.43,17.48-23.43C231.78,115.77,233.41,118.3,233.06,121.18Z"/><path class="cls-4" d="M192.07,144.37a4.47,4.47,0,0,1-1.9.51c-1.51,0-1.79-2-1.65-3.06.15-1.38,1.77-4.95,2.49-6.43l11.06-23.47a15.88,15.88,0,0,0-11.16,0l-2.72,4.76c-1.48-3.68-4.9-5.68-9.93-5.68-15.45,0-28.11,14.81-29.48,26-.83,6.8,2.74,12.62,11.75,12.62,7.31,0,13.4-4.27,17.22-9.14l.19.17a26.05,26.05,0,0,0-.7,3.15c-.42,3.2,2.07,5.82,6.14,5.82a16.79,16.79,0,0,0,7.13-1.74l1.57-3.48Zm-6.95-23.63c-.78,6.25-9.47,23.67-19.22,23.67-3.65,0-4.78-3.14-4.45-5.66.75-6.18,9.14-23,18.59-23C183.79,115.77,185.46,118,185.12,120.74Z"/><path class="cls-4" d="M287.19,127.42l6.51-12.6s-3.64-.26-5.81-.39c-1.59-.1-5.41-.47-5.41-.47l-3.13,5.63C276.42,125.24,266.81,144,258,144c-1.84,0-3-.71-2.85-2.28.24-1.92,7.36-15.1,7.36-15.1,1.53-2.86,3.79-7.21,4.14-10.07.43-3.42-2.55-5.58-6.61-5.58-3.53,0-7.66,1.57-11.21,3.77a8.92,8.92,0,0,1,.92,2.18,11.5,11.5,0,0,1,2.78-.75,1.47,1.47,0,0,1,1.59,1.84c-.16,1.4-6.61,14.31-6.61,14.31-1.54,3-3.91,7.4-4.29,10.46-.51,4.26,3,6.88,8,6.85,8.57,0,15.39-5.6,20.26-12.26l.2.19a21.73,21.73,0,0,0-1.57,5.73c-.4,3.31,1.8,6.34,6.2,6.34a18.23,18.23,0,0,0,10.77-4v-.05a5.42,5.42,0,0,1-.31-2.61c0-.12,0-.23,0-.35a6.67,6.67,0,0,1-3.14,1.34c-1.7,0-1.73-1.68-1.6-2.71C282.48,137.86,285.59,130.9,287.19,127.42Z"/><path class="cls-4" d="M352.33,111.4c-5.77-4-15.88-7.24-33.56-7.66l4.05-9a15.15,15.15,0,0,0-10.93,0l-4.34,9.11c-11.71.53-25.58,3.67-50.87-1.41l-.67,1.1c14.1,5.82,35.64,7.07,48.33,7.07L295.13,130c-.81,1.81-1.91,4.13-2.83,6.47a19.42,19.42,0,0,0-2,6.56c-.47,3.9,3,6.76,7.86,6.76,5.56,0,10.25-3.26,13.83-6.59l0-.12a11,11,0,0,1-1.09-2.52,30.67,30.67,0,0,1-2.46,2.12,7.15,7.15,0,0,1-4,1.59c-2,0-2.24-1.43-2.08-2.73.31-2.43,2.76-7.65,3.92-10.06L316,110c9.66-1,21.73-2.31,28.1,1.55-9.19.71-18.39,3.55-24.13,10.21A24.33,24.33,0,0,0,314,134.85a18.71,18.71,0,0,0,.12,4.49c1.22,6.26,6.9,10.45,15.82,10.45,15,0,28.09-11.82,29.52-23.53a13.29,13.29,0,0,0-2.61-10.58c5,1.92,8.76,5,9.72,6.56a11.66,11.66,0,0,0,6.12-5.85C370.61,114.34,362.16,111.89,352.33,111.4ZM340.1,139.67c-7.08,9.86-18.35,10.1-14.35-3.95.62-2.22,5.75-20.25,21.11-21.64a9.12,9.12,0,0,1,1.38,3.3C349.34,122.9,345.06,132.94,340.1,139.67Z"/><path class="cls-5" d="M376.61,343.62c3.75,0,23.09,6.6,36.16,8.35,6.2.84,10.9,2.2,18.74,9.24,4.23,3.79-54.09,5.91-54.09,5.91Z"/><path class="cls-5" d="M68.76,348.24c-4.06,0-17.06,4-19.38,6.37s-6.54,7-7.12,9.39,24.4,2.33,24.4,2.33Z"/><path class="cls-5" d="M81.62,364.29c24-2.64,48.8-35.18,69.72-20.23,32,22.88,12.2,28.14,12.2,28.14l-81.92-7.91"/><path class="cls-4" d="M231.56,348.26c2.45,2.06-6.62,5.46-3,7.28s5.11-.61,7.51-.31,3.91,4.85,8.42,3,7.92-3,5.41-7.57c-3-5.46-8.09-.24-10.22-3.95C236.36,341,226.15,343.71,231.56,348.26Z"/><polygon class="cls-1" points="193.81 408.9 194.62 409.5 194.83 409.27 193.81 408.9"/><polygon class="cls-6" points="269.16 227.16 263.27 207.05 225.63 212.85 236.03 233.77 269.16 227.16"/><path class="cls-6" d="M216.69,256.47l7.81-9.65,5.06,1.24,2.62-12.14-8.88-17.84-7.36,37.68C216.19,256,216.44,256.22,216.69,256.47Z"/><polygon class="cls-6" points="197.89 394.79 198.29 392.92 197.65 392.66 197.89 394.79"/><polygon class="cls-6" points="195.71 404.88 196.23 402.49 190.81 403.06 195.71 404.88"/><polygon class="cls-6" points="188.26 192.43 150.53 184.59 147.44 203.88 180.86 212.25 188.26 192.43"/><path class="cls-6" d="M199.81,257c2.41.1,4.87.55,6.38-1.26a7.28,7.28,0,0,1,3.43-2.53l-18.37-55.51-6.31,16.91Z"/><polygon class="cls-6" points="373.31 206.34 357.96 198.84 333.97 212.43 349.53 223.22 373.31 206.34"/><polygon class="cls-6" points="373.22 305.3 385.39 262.49 376.35 208.91 352.18 227.47 373.22 305.3"/><polygon class="cls-6" points="436.56 254.37 432.7 235.56 396.49 242.5 404.55 261.91 436.56 254.37"/><path class="cls-6" d="M386.41,311l14.3-46.93-6.88-16.57L376.7,307.69a20.64,20.64,0,0,0,7.75,2.95C385.14,310.74,385.77,310.88,386.41,311Z"/><path class="cls-4" d="M368.92,436.06l5.59-13.79L487.43,327.9l-19.26-47.37-31.78,7.17-4.84,5.14a19.86,19.86,0,0,0-3.44-2.93l13.19-32.56-5.21-26.53L392,239.23l-4.17,14.65-8-47.62-22.88-11.41L327.86,210.7l15.21,52-5.77,1.18c.87-6,.19-9.88-4.11-13.35-2.41-2-4.58-4.25-7-5.56l1.32-17.23-18.35-14.18-30.57,15,.77,29a8.55,8.55,0,0,0-6.26,4.8A10,10,0,0,0,272,266c2.52-.05,5.09-.06,7.56.06l.38,14.07c-1.43-.68-3-.56-5.38,2-2.47,2.7-7.61-.19-9.38,3.73s2.8,4.6,3.85,7a3.83,3.83,0,0,1,.24,1.22l-6.6,3.88-6.29-29.52-3.07-14.43-19.59-4.83,2.35-10.9,33.59-6.7-11.51,36.15a25.23,25.23,0,0,1,4.92-1.4l11.38-35.71-8.06-28.34-45.84,7-7.87,40.35-19.95-60.39-46-9.51-4.09,27.21,9.64,21.43-.93-.3-14.3,14.74,1.55,7c-3.31.35-6.27,1.43-8.08,5.08-1.42,2.86-1.36,5-.56,6.85l-8.33,3.91,14.11-35.13-11.18-15.86-28.83,5.64-14.51,50L64.56,245.24l-23.1.37L26.7,276.5l19,22.9-8.51-6.29L6.93,291.78.77,340.86l51.46,29.63-2.07,7.13,18.68,4.3,27.89,146.9,33-2.67-6.46-85.69,8.7,53.66,39.83,2.37-1.88-46,14.48,16.68,37.73-31.66,13.8,34.3,24.75,1.67L271.58,496l-7.76,19.22,31.48,17.47,43.93-81,21.94-18.33Zm-2-5.3-1.8-.62,3.1-2.59Zm98.39-144.68L481.05,325l-26,1-12.45-35Zm-27.08,6.69,12.62,35.53L366.22,402l28.33-52.22L393.7,340l16.4-17.42c.43.85,1.28,1.31,2.88,1.09,6.08-.85,5.61-6.71,10.93-7.56s9.1.4,10.62-7.25c1.17-5.87,1.71-9.5.19-12.42ZM354,347.3l-6.59-23.14,40.27-.25,2.07,21.61Zm-7.15,69.4-7.68,12-160-66.52,1.12-35.06Zm-48.44,70.92L290.71,490,266.2,419.51l11.3,4.42ZM290.2,450l-.36-1.11,4.07-18.48,3.63,1.42Zm-2.87-8.76-5-15.38,7.76,3Zm5,15.38,9.37-23.14,10,3.92-14.54,34ZM156.09,371.48,176,365.7,336.7,432.49l-5,7.85Zm13.07,61.16-.47-11.3,9.31,5.6-6.64,7ZM168.47,416l-.86-20.93,23.93,17.68-10.38,10.89Zm12.87-29.71-9.43,4-4.66-4.2-.16-3.75,1.93-.86Zm12.88,5.05.85,7.52-6.62.71L187,388.74l.28-.12Zm-9,8.57-3.16.33-8.1-6,10-4.2Zm12.65-5.1-.24-2.13.64.25Zm-1.66,7.7-.52,2.39-4.9-1.82Zm-2.42,6.41,1,.38-.21.22Zm8.52-14.4,3.89,1.52.37.91-6.18,6.49ZM176.12,306l-6.58-49.87,7.86-12.42,7,61.43a78.92,78.92,0,0,1,8,.05L190.92,315l7.47,16.77L184,324a9.65,9.65,0,0,0,.06-2.33c-.62-5.72-6.24-14.62-15.6-7.21a4.46,4.46,0,0,1-4.1.93l-.23-5.59a51.74,51.74,0,0,1,8.86-3.24C174,306.32,175.07,306.17,176.12,306ZM242,274.46l2.21,9.52c-3.4-1.74-7.34-1.49-13.21,4.43a10.24,10.24,0,0,1-6.47,2.72l-8.78-27.32Zm15.76,89.2-13.45-7.24-11.47-33,6.27-16.62Zm-53.79-29-8.22-18.46,33.58,9.06,9.87,28.36Zm-5.23-41.64,37.41,8.48L228.75,321l-33.12-8.93Zm19.22-12.25,3.37,10.49c-2.92.05-5.88,0-8.42.83l-17.87-4-2.31,15.19-5.54-3.13-1.25-11Zm-60,56,17.84-8.78-2.31,33.53-20.93,6.68Zm138.87-8.35,1.25-19.42,19.79,9.2c-.76,5.45,4.79,7.94,8,11.42l.95,9.26Zm14.25-50.23,8.46,16.85-3.8,17.25-10.48-5.07Zm40.75,23.24c-2.65-.07-5.76,1.31-9.76,5.35-6,6.05-17.44-.54-22.49,7.12l3.72-16.87,32.56-8.19ZM327.59,347c.43,1.3,1.41,2.13,3.32,2.19L313,393.44l-9.82-5.29,5.6-25.38Zm-10.54,48.56,26.87-66.4,5.62,19.74-22.28,52.16Zm115.65-160,3.86,18.82-32,7.54-8.06-19.41Zm-47.31,26.94L373.22,305.3l-21-77.83,24.17-18.56ZM358,198.84l15.35,7.5-23.78,16.88L334,212.43Zm-24.27,17.79,14.43,10.59,20.3,75.06c2.79,1.59,5.4,3.68,8.28,5.41l17.13-60.16,6.88,16.57L386.41,311a21.28,21.28,0,0,1,3.74,1.2l14.07-46.16,32.45-7.63-12.57,31a11.91,11.91,0,0,0-4.71,3.59c-4.1,4.57-12.1-.86-15.14,5.93s4.18,8.27,5.7,12.51a9.65,9.65,0,0,1,.24,4l-7,7.49-10,10.62-1.24-14.27-25.07.14c.43-4.92-.53-8.31-4.34-11.38-2.33-1.88-4.43-4.1-6.77-5.43l.71-2.23c.55-.14,1.09-.28,1.61-.36l-.71-2.45,3.17-9.89-7.59-27.06-6,1.23Zm16.15,48.95,5.56,19.19-32.11,8.08-9.91-19.76Zm-29,1.69-12.35,2.54-7.13,35.62-3.94-1.91L297,248.68l26.73-18.31ZM309.15,218l12.34,9.34-26,16.53-11.75-13Zm-26.63,17.47,10.76,12.65.49,57.32L284.62,315Zm-16.79,92.2a14.87,14.87,0,0,1,3.84,2.58l-5.88-27.6,16.6-9.76.7,26-11.13,11.68a35.32,35.32,0,0,1,2.78,3l21.26-22.29-1.72,18.35L279.93,342a19.49,19.49,0,0,0,3.31,2.38l11.08-11.18L326.14,343,307,359.08a19.25,19.25,0,0,1,.75,6.67c-.11,2.08-1.94,3.73-4.9,5l-3.39,15.34-9.05-4.87.74-3.67,5.89-4.94a78.82,78.82,0,0,1-7.88,1.39l-4.75,4-5.6-3-16-8.61-12.13-37L247.31,319a7.88,7.88,0,0,0,4.33-2.83l2.58,11.18a15.86,15.86,0,0,1,3.09-.71l-3.53-15.2c.11-.4.23-.79.32-1.23,2.33-10.55,3.09-15.9-2.72-20.59-1.14-.92-2.23-1.92-3.31-2.86l-3.13-13.5,6.47-12.77Zm-16.32-70.78-7.23,13.21-25.24-9.26,8.46-10.25Zm13.86-49.83,5.89,20.11L236,233.77l-10.4-20.92Zm-40,11,8.88,17.84-2.62,12.14-5.06-1.24-7.81,9.65c-.25-.25-.5-.48-.75-.71Zm-13.68,35.09a7.28,7.28,0,0,0-3.43,2.53c-1.51,1.81-4,1.36-6.38,1.26l-14.87-42.39,6.31-16.91Zm-59.09-68.58,37.73,7.84-7.4,19.82-33.42-8.37Zm-3,23.47,33.88,8.48,14.42,41.13a6,6,0,0,0-2.53,3.79c-1.08,3.76,2.47,6.38,2.13,9.18a4.81,4.81,0,0,1-1,2.13c-1.68,2.35-4.91,5.28-5.39,10.2,0,.24,0,.48,0,.73l-3.64.94-1.94-17.13L180,237.17l-22.66-7.27ZM152,231.85l23.77,8.05-8.68,12.8-24.74-11.11Zm-11.2,12.67L166.4,257.1l5.9,44.78a7.06,7.06,0,0,0-1.16-.43c-3.44-.95-1.88-7-7.63-6.48L163,282.58l-19.69-27.13-.13.06Zm1.07,17L156,280.74l-33,17.41-19.33-18.6Zm-24.16,5.95-17.43,8.19a15.85,15.85,0,0,0-4.46-3.42l9.64-31.21L132,231.8Zm5.78-49.21,7.57,10.5-25.48,7.94-6.13-13.35Zm-26.27,8.58,5.41,12.89-10,32.38a7.75,7.75,0,0,0-3.17,2.46c-1.08,1.3-2.66,1.43-4.35,1.36l-1.49-2.23ZM80.73,276c-1.78.32-3.34,1.37-4.21,4.4-1.08,3.75,2.47,6.39,2.13,9.17s-5.77,5.84-6.41,12.33a10.72,10.72,0,0,0,.06,2.47L53.49,280.77l9.69-31.09ZM44.17,249.06l15.43-.39L49.4,277.88l-17.17-2.79ZM34,279.44l16.21,3.19,24.52,30.7c4-4.85,8.42-9.67,15.13-11.48a36.46,36.46,0,0,1,10.67-1.17l2.92,18L98,311.6,79.27,324.23,70.88,318l-12.59-9.3Zm48.62,73.24-16.59-14.5L97,317.29l12.35,15.65Zm-7.3-25.82L60.32,337l3,15.59-16.8-10.13c-.29-3.52-4.55-5.45-3.91-9,.71-3.94,2.91-6-3.66-10-1.5-.91-2.81-1.69-4-2.36l1.86-22.85ZM10.84,296.62l21.51.76-1.78,21.8a9.06,9.06,0,0,0-5.79-.18c-4.17,1.27-9.52,1.31-4.57,8.72,1.75,2.61.1,4.83-.59,7.13l-13.8,2.08Zm-.53,44.45,10.31-1.56a8,8,0,0,0,.77.77c5.36,4.68,8.74.34,13,.94a11.3,11.3,0,0,1,3,1l27,16.28,2.93,15.44Zm43.91,33.7.78-2.69,5.68,3.27-.26.85ZM100,524.17,65.89,343.86,80,356.22,108.42,523.5Zm12.49-1L84.27,356.63l27.05-20,14,185.51Zm23.6-33.62L118.9,383l-3.72-49.28-5.36-6.91-6.64-41.09,16.49,15.88,26.59,188.51Zm30.57,1.82-15.48-.92L124.74,302.75l33.49-17.65,1.11,27.15c-4-3.36-7.88-7.44-11.84-2.18-2.65,3.51-10.51-2.4-11.86,5.21-.62,3.5,3.13,6,3.12,8.61s-4.94,5.38-4.82,11.44,6.49,12.19,12.08,12.13a10.84,10.84,0,0,0,5.56-1.4l-5,26.6,15.5,6.07L164.62,441l-1.56,1.64,1.71,2Zm2-48.83L211.21,398l9.56,3.75-46.63,47.07Zm16.36,18.84-8.28-9.53,48.07-48.52,6.57,2.57L236.81,418Zm56.06,4.86-14-34.92,11.33-9.51,16.69,45.37Zm-4.6-58.34,24.86,9.74L287,491.15l-11.73,3.6Zm33,105.12L275,499.6,286.72,496l-9.17,21.49Zm24.16,13.42-12.23-6.8,10.83-25.36,11.29-3.47-4.25-13L315.91,439l17.49,6.84L353.17,415l-22-11.83,21.95-51.36,36.24-1.8Zm51.75-86.14L359.69,414l95.5-83.2,22.17-.9Z"/><polygon class="cls-6" points="481.05 324.99 465.27 286.08 442.62 290.99 455.07 326.03 481.05 324.99"/><path class="cls-6" d="M434.53,308.87c-1.52,7.65-5.3,6.4-10.62,7.25s-4.85,6.71-10.93,7.56c-1.6.22-2.45-.24-2.88-1.09L393.7,340l.85,9.77L366.22,402l84.59-73.7-12.62-35.53-3.47,3.68C436.24,299.37,435.7,303,434.53,308.87Z"/><polygon class="cls-6" points="131.02 228.79 123.45 218.29 99.41 223.38 105.54 236.73 131.02 228.79"/><path class="cls-6" d="M95.78,272.27a15.85,15.85,0,0,1,4.46,3.42l17.43-8.19L132,231.8l-26.58,9.26Z"/><polygon class="cls-6" points="59.6 248.67 44.17 249.06 32.23 275.09 49.4 277.88 59.6 248.67"/><path class="cls-6" d="M72.3,304.34a10.72,10.72,0,0,1-.06-2.47c.64-6.49,6.08-9.53,6.41-12.33s-3.21-5.42-2.13-9.17c.87-3,2.43-4.08,4.21-4.4L63.18,249.68l-9.69,31.09Z"/><path class="cls-6" d="M185.9,289.13l1.25,11,5.54,3.13L195,288.1l17.87,4c2.54-.85,5.5-.78,8.42-.83l-3.37-10.49Z"/><polygon class="cls-6" points="167.05 252.7 175.73 239.9 151.96 231.84 142.31 241.59 167.05 252.7"/><polygon class="cls-6" points="182.07 400.22 185.24 399.89 183.94 390.04 173.98 394.24 182.07 400.22"/><path class="cls-6" d="M143.31,255.45,163,282.58l.51,12.39c5.75-.48,4.19,5.53,7.63,6.48a7.06,7.06,0,0,1,1.16.43l-5.9-44.78-25.64-12.58,2.42,11Z"/><path class="cls-6" d="M281,318.85l-.7-26-16.6,9.76,5.88,27.6c.1.09.19.2.29.29Z"/><polygon class="cls-6" points="321.49 227.33 309.15 217.99 283.78 230.91 295.53 243.86 321.49 227.33"/><polygon class="cls-6" points="297.43 303.51 301.37 305.43 308.5 269.81 320.85 267.27 323.68 230.37 296.95 248.68 297.43 303.51"/><polygon class="cls-6" points="225.41 250.58 216.94 260.83 242.18 270.09 249.41 256.88 225.41 250.58"/><path class="cls-6" d="M215.71,263.81l8.78,27.32a10.24,10.24,0,0,0,6.47-2.72c5.87-5.92,9.81-6.17,13.21-4.43L242,274.46Z"/><path class="cls-6" d="M251.64,316.2a7.88,7.88,0,0,1-4.33,2.83l3.4,10.36a11,11,0,0,1,3.51-2Z"/><path class="cls-6" d="M20.21,327.72c-5-7.41.4-7.45,4.57-8.72a9.06,9.06,0,0,1,5.79.18l1.78-21.8-21.51-.76-5,40.31,13.8-2.08C20.31,332.55,22,330.33,20.21,327.72Z"/><polygon class="cls-6" points="167.62 395.05 168.47 415.98 181.16 423.62 191.53 412.73 167.62 395.05"/><path class="cls-6" d="M38.91,323.52c6.57,4,4.37,6.05,3.66,10-.64,3.51,3.62,5.44,3.91,9l16.8,10.13-3-15.59,15-10.15L36.74,298.31l-1.86,22.85C36.1,321.83,37.41,322.61,38.91,323.52Z"/><polygon class="cls-6" points="103.65 279.55 122.97 298.15 156.01 280.74 141.84 261.55 103.65 279.55"/><path class="cls-6" d="M164.62,441l-2.55-62.25-15.5-6.07,5-26.6a10.84,10.84,0,0,1-5.56,1.4c-5.59.06-12-6.06-12.08-12.13s4.81-8.83,4.82-11.44-3.74-5.11-3.12-8.61c1.35-7.61,9.21-1.7,11.86-5.21,4-5.26,7.86-1.18,11.84,2.18l-1.11-27.15-33.49,17.65,26.47,187.69,15.48.92-1.92-46.76-1.71-2Z"/><polygon class="cls-6" points="96.98 317.29 66.07 338.18 82.66 352.68 109.34 332.94 96.98 317.29"/><polygon class="cls-6" points="111.32 336.61 84.27 356.63 112.52 523.16 125.33 522.12 111.32 336.61"/><polygon class="cls-6" points="313.38 273.09 323.29 292.85 355.4 284.77 349.84 265.57 313.38 273.09"/><polygon class="cls-6" points="287.33 441.19 290.05 428.85 282.29 425.81 287.33 441.19"/><polygon class="cls-6" points="305.26 307.31 315.74 312.38 319.54 295.13 311.08 278.28 305.26 307.31"/><path class="cls-6" d="M297.05,372.65l-5.89,4.94-.74,3.67,9.05,4.87,3.39-15.34A34.93,34.93,0,0,1,297.05,372.65Z"/><path class="cls-6" d="M326.82,339l-.95-9.26c-3.21-3.48-8.76-6-8-11.42l-19.79-9.2-1.25,19.42Z"/><polygon class="cls-6" points="236.81 417.97 231.43 405.89 224.86 403.32 176.79 451.84 185.07 461.37 236.81 417.97"/><path class="cls-6" d="M278.82,375l5.6,3,4.75-4C285.91,374.47,282.4,374.79,278.82,375Z"/><path class="cls-6" d="M286.41,345.82c5,1.64,17.44,2.74,20.6,13.26L326.14,343l-31.82-9.83-11.08,11.18A17.29,17.29,0,0,0,286.41,345.82Z"/><path class="cls-7" d="M183.45,267.51l1.94,17.13,3.64-.94c0-.25,0-.49,0-.73.48-4.92,3.71-7.85,5.39-10.2-.94-.68-1.89-1.35-2.84-2A28.16,28.16,0,0,0,183.45,267.51Z"/><path class="cls-7" d="M358,300.1c-.52.08-1.06.22-1.61.36l-.71,2.23c2.34,1.33,4.44,3.55,6.77,5.43,3.81,3.07,4.77,6.46,4.34,11.38l25.07-.14,1.24,14.27,10-10.62c-4-4.28-7.49-8.45-13-10.78a21.28,21.28,0,0,0-3.74-1.2c-.64-.15-1.27-.29-2-.39a20.64,20.64,0,0,1-7.75-2.95c-2.88-1.73-5.49-3.82-8.28-5.41A15.25,15.25,0,0,0,358,300.1Z"/><path class="cls-7" d="M256.39,268.34l6.29,29.52,6.6-3.88a3.83,3.83,0,0,0-.24-1.22c-1.05-2.37-5.61-3-3.85-7s6.91-1,9.38-3.73c2.34-2.54,3.95-2.66,5.38-2L279.57,266c-2.47-.12-5-.11-7.56-.06s-5,.14-7.24.14a11.54,11.54,0,0,0-1.69.14,25.23,25.23,0,0,0-4.92,1.4C257.58,267.85,257,268.08,256.39,268.34Z"/><path class="cls-7" d="M164.12,309.78l.23,5.59a4.46,4.46,0,0,0,4.1-.93c9.36-7.41,15,1.49,15.6,7.21A9.65,9.65,0,0,1,184,324l14.4,7.75L190.92,315l1.48-9.77a78.92,78.92,0,0,0-8-.05,69.56,69.56,0,0,0-8.28.86c-1.05.17-2.11.32-3.14.54A51.74,51.74,0,0,0,164.12,309.78Z"/><path class="cls-7" d="M79.27,324.23,98,311.6l5.49,7.08-2.92-18a36.46,36.46,0,0,0-10.67,1.17c-6.71,1.81-11.13,6.63-15.13,11.48-1.32,1.6-2.59,3.2-3.89,4.7Z"/><path class="cls-7" d="M260.27,326.47a23.64,23.64,0,0,0-3,.2,15.86,15.86,0,0,0-3.09.71,11,11,0,0,0-3.51,2l12.13,37,16,8.61c3.58-.23,7.09-.55,10.35-1a78.82,78.82,0,0,0,7.88-1.39,34.93,34.93,0,0,0,5.81-1.86c3-1.31,4.79-3,4.9-5a19.25,19.25,0,0,0-.75-6.67c-3.16-10.52-15.55-11.62-20.6-13.26a17.29,17.29,0,0,1-3.17-1.44,19.49,19.49,0,0,1-3.31-2.38c-2.83-2.51-5-5.63-7.29-8.43a35.32,35.32,0,0,0-2.78-3c-.1-.09-.19-.2-.29-.29a14.87,14.87,0,0,0-3.84-2.58A12.73,12.73,0,0,0,260.27,326.47Z"/><polygon class="cls-6" points="387.66 323.91 347.39 324.17 353.98 347.3 389.73 345.52 387.66 323.91"/><polygon class="cls-6" points="343.92 329.19 317.05 395.59 327.26 401.09 349.54 348.93 343.92 329.19"/><polygon class="cls-6" points="274.95 499.6 269.53 513.01 277.55 517.47 286.72 495.98 274.95 499.6"/><polygon class="cls-6" points="311.77 437.35 301.74 433.43 292.37 456.57 297.23 471.4 311.77 437.35"/><polygon class="cls-6" points="195.63 312.11 228.75 321.04 236.11 301.55 198.7 293.07 195.63 312.11"/><polygon class="cls-6" points="239.07 306.8 232.8 323.42 244.27 356.42 257.73 363.66 239.07 306.8"/><polygon class="cls-6" points="277.5 423.93 266.2 419.51 290.71 489.99 298.39 487.62 277.5 423.93"/><polygon class="cls-6" points="152.56 368.29 173.49 361.61 175.8 328.08 157.96 336.86 152.56 368.29"/><path class="cls-8" d="M269.67,231.48l-33.59,6.7-2.35,10.9,19.59,4.83,3.07,14.43c.6-.26,1.19-.49,1.77-.71Z"/><polygon class="cls-8" points="206.22 396.02 202.33 394.5 200.41 403.42 206.59 396.93 206.22 396.02"/><path class="cls-8" d="M183.45,267.51a28.16,28.16,0,0,1,8.12,3.27c1,.64,1.9,1.31,2.84,2a4.81,4.81,0,0,0,1-2.13c.34-2.8-3.21-5.42-2.13-9.18a6,6,0,0,1,2.53-3.79l-14.42-41.13-33.88-8.48,9.82,21.84L180,237.17Z"/><path class="cls-8" d="M360.5,287.76l-3.17,9.89.71,2.45a15.25,15.25,0,0,1,10.38,2.18l-20.3-75.06-14.43-10.59,13.22,45.3,6-1.23Z"/><polygon class="cls-8" points="366.88 430.76 368.18 427.55 365.08 430.14 366.88 430.76"/><path class="cls-8" d="M403.15,323l7-7.49a9.65,9.65,0,0,0-.24-4c-1.52-4.24-8.74-5.72-5.7-12.51s11-1.36,15.14-5.93a11.91,11.91,0,0,1,4.71-3.59l12.57-31-32.45,7.63-14.07,46.16C395.66,314.56,399.17,318.73,403.15,323Z"/><polygon class="cls-8" points="477.36 329.94 455.19 330.84 359.69 414.04 345.44 440.29 477.36 329.94"/><path class="cls-8" d="M89.41,274.6a7.75,7.75,0,0,1,3.17-2.46l10-32.38-5.41-12.89L83.57,273.73,85.06,276C86.75,276,88.33,275.9,89.41,274.6Z"/><polygon class="cls-8" points="55 372.08 54.22 374.77 60.42 376.2 60.68 375.35 55 372.08"/><path class="cls-8" d="M70.88,318c1.3-1.5,2.57-3.1,3.89-4.7l-24.52-30.7L34,279.44l24.25,29.29Z"/><polygon class="cls-8" points="227.12 431.31 241.13 466.23 255.13 467.17 238.45 421.8 227.12 431.31"/><polygon class="cls-8" points="188.45 399.55 195.07 398.85 194.22 391.32 187.31 388.62 187.03 388.74 188.45 399.55"/><path class="cls-8" d="M184.4,305.14l-7-61.43-7.86,12.42L176.12,306A69.56,69.56,0,0,1,184.4,305.14Z"/><polygon class="cls-8" points="167.09 382.31 167.25 386.06 171.91 390.26 181.34 386.27 169.02 381.45 167.09 382.31"/><polygon class="cls-8" points="284.62 315.04 293.77 305.43 293.28 248.11 282.52 235.46 284.62 315.04"/><path class="cls-8" d="M248.07,286.79c1.08.94,2.17,1.94,3.31,2.86,5.81,4.69,5.05,10,2.72,20.59-.09.44-.21.83-.32,1.23l3.53,15.2a23.64,23.64,0,0,1,3-.2,12.73,12.73,0,0,1,5.46,1.19l-14.32-67.14-6.47,12.77Z"/><polygon class="cls-8" points="168.69 421.34 169.16 432.64 171.36 433.91 178 426.94 168.69 421.34"/><path class="cls-8" d="M67.33,373.94,64.4,358.5l-27-16.28a11.3,11.3,0,0,0-3-1c-4.3-.6-7.68,3.74-13-.94a8,8,0,0,1-.77-.77l-10.31,1.56Z"/><polygon class="cls-8" points="119.67 301.63 103.18 285.75 109.82 326.84 115.18 333.75 118.9 383.04 136.12 489.54 146.26 490.14 119.67 301.63"/><polygon class="cls-8" points="80.04 356.22 65.89 343.86 100.03 524.17 108.42 523.5 80.04 356.22"/><polygon class="cls-8" points="289.84 448.84 290.2 449.95 297.54 431.78 293.91 430.36 289.84 448.84"/><path class="cls-8" d="M323.3,297.12,319.58,314c5.05-7.66,16.5-1.07,22.49-7.12,4-4,7.11-5.42,9.76-5.35l4-12.59Z"/><path class="cls-8" d="M308.82,362.77l-5.6,25.38,9.82,5.29,17.87-44.22c-1.91-.06-2.89-.89-3.32-2.19Z"/><path class="cls-8" d="M279.93,342l12.25-12.37,1.72-18.35-21.26,22.29C274.92,336.37,277.1,339.49,279.93,342Z"/><polygon class="cls-8" points="220.77 401.72 211.21 397.98 168.72 442.53 174.14 448.79 220.77 401.72"/><polygon class="cls-8" points="389.38 350.04 353.13 351.84 331.19 403.2 353.17 415.03 333.4 445.82 315.91 438.98 299.32 477.81 303.58 490.8 292.29 494.27 281.46 519.63 293.69 526.43 389.38 350.04"/><polygon class="cls-8" points="229.29 325.31 195.71 316.25 203.93 334.71 239.16 353.67 229.29 325.31"/><polygon class="cls-8" points="286.96 491.15 261.39 417.63 236.53 407.89 275.23 494.75 286.96 491.15"/><polygon class="cls-8" points="331.66 440.33 336.7 432.49 176.03 365.7 156.09 371.48 331.66 440.33"/><polygon class="cls-8" points="180.31 327.09 179.19 362.15 339.15 428.67 346.83 416.7 180.31 327.09"/><path class="cls-9" d="M362.88,366.06c-46.95-.85-100.83-1.31-129.79-1.32h-.9c-29,0-82.9.47-129.78,1.32-40.69.73-82.84,1.74-88.38,3.6-.48.57-2.63,4.08.08,18.74h.54a6.12,6.12,0,0,1,6,5.24l33.4,194a6.08,6.08,0,0,0,6,5.23H405.17a6.08,6.08,0,0,0,6-5.23l33.4-194a6.12,6.12,0,0,1,6-5.24h.54c2.71-14.67.56-18.17.09-18.74C445.71,367.8,403.56,366.79,362.88,366.06Z"/><path class="cls-4" d="M405.17,605.64H60.11a18.76,18.76,0,0,1-18.63-15.92L9,401.17H3.49L1.56,390.73C-1.16,376-.35,367,4.21,361.5l2.32-2.79L10,357.56c5.42-1.82,21.17-3,92.21-4.27,47.25-.85,101.17-1.3,130-1.32h.91c28.81,0,82.71.47,130,1.32h0c71,1.29,86.79,2.45,92.22,4.27l3.41,1.15,2.31,2.77c4.58,5.47,5.4,14.49,2.67,29.25l-1.93,10.44h-5.53L423.8,589.71A18.77,18.77,0,0,1,405.17,605.64ZM65.73,580.11H399.55L432,391.57a18.81,18.81,0,0,1,5.56-10.6c-19.58-1.15-59.67-1.87-74.91-2.15-47.16-.85-100.87-1.3-129.56-1.31h-.9c-28.73,0-82.46.46-129.56,1.31-15.24.28-55.33,1-74.9,2.15a18.89,18.89,0,0,1,5.55,10.6ZM25.63,374.56Z"/><path class="cls-10" d="M362.88,366.06c-46.95-.85-100.83-1.31-129.79-1.32h-.9c-29,0-82.9.47-129.78,1.32-40.69.73-82.84,1.74-88.38,3.6-.48.57-2.63,4.08.08,18.74h.54a6.12,6.12,0,0,1,6,5.24l33.4,194a6.08,6.08,0,0,0,6,5.23H405.17a6.08,6.08,0,0,0,6-5.23l33.4-194a6.12,6.12,0,0,1,6-5.24h.54c2.71-14.67.56-18.17.09-18.74C445.71,367.8,403.56,366.79,362.88,366.06Z"/><g class="cls-11"><path class="cls-10" d="M234.82,387.43h-4.36c-74.57.2-147.12,1.78-197,4.12,0,0,20.92,130.14,71.46,150.36,24.26,9.71,76.42,13.54,127.67,13.05,51.26.49,103.41-3.34,127.67-13.05,50.54-20.22,71.46-150.36,71.46-150.36C381.94,389.21,309.39,387.63,234.82,387.43Z"/></g><path d="M133.23,431.11c6.69,1.5,13.45,8.38,21.62,8.38a13.76,13.76,0,0,0,5.41-1c-.65,6.23-3.22,10.19-6.7,10.19-9.2,0-17.3-14.74-28.69-14.74a10.41,10.41,0,0,0-1.48.07L133,389c-5.6,2.34-9,7.21-9,14.16a9.18,9.18,0,0,0,.9,4.41c-4.44,0-6.88-1.63-6.88-6.3,0-8.64,11.83-16.88,22.58-16.88.9,0,1.73.07,2.57.13Z"/><path class="cls-4" d="M153.56,458.8c-7.93,0-13.89-4.8-19.15-9-3.34-2.68-7.12-5.72-9.54-5.72h-.35a10.15,10.15,0,0,1-11.06-12.21l3.35-15.73c-5.63-2.5-9-7.8-9-14.87,0-7.33,4.17-14.58,11.43-19.88a37,37,0,0,1,21.31-7.15c1.22,0,2.3.08,3.17.15h.18a10.15,10.15,0,0,1,9.15,12.24l-8.17,38.44,1.62.89c3,1.66,6.14,3.38,8.33,3.38a3.67,3.67,0,0,0,1.51-.25,10.15,10.15,0,0,1,14,10.42C168.88,453.74,160.39,458.8,153.56,458.8ZM124.63,444h0Z"/><path d="M172.86,400,168.23,422a9.28,9.28,0,0,0-.25,2.08c0,1.82.83,2.4,2.63,2.4a3.34,3.34,0,0,0,1.42-.25c-1.74,4.54-3,6.55-6.44,6.55s-5.78-2.27-6.3-6c-1.93,3-5,6-9.59,6-4.37,0-8.56-2.73-8.56-10.45,0-8.77,5.35-22.72,16.54-22.72,3.67,0,5.21,1.43,5.21,3.31v.45l.71-3.44Zm-22.19,21.49c0,5,2.06,5.06,3.21,5.06,1.87,0,4.57-1.95,5.34-5.71l3.09-14.67a2.5,2.5,0,0,0-2.64-2.46C154.2,403.66,150.67,415.33,150.67,421.44Z"/><path class="cls-4" d="M165.59,443a16.6,16.6,0,0,1-7.63-1.79A19.66,19.66,0,0,1,149.7,443c-12.85,0-18.71-10.68-18.71-20.6,0-13.26,8.48-32.88,26.69-32.88a20.42,20.42,0,0,1,4.36.45,10.05,10.05,0,0,1,1.56-.12h9.26A10.16,10.16,0,0,1,182.8,402l-3.58,17a10.15,10.15,0,0,1,2.29,10.78C180,433.78,176.52,443,165.59,443Z"/><path d="M70.17,420.21,58.78,474.26C75,473,86.85,451.77,86.85,434.45c0-12-5.77-22-19.89-22-26,0-41.54,14.73-41.54,39.34,0,8.25,2.08,9.55,2.24,11-11.06,0-17.16-4-17.16-15.7C10.5,425.55,40,405,66.8,405c26.3,0,37.85,15.21,37.85,31.87,0,20.56-17.48,43.38-46.35,43.38h-.8l-9.79,46.12H24.62L46.43,423.44Z"/><path class="cls-4" d="M47.71,536.53H24.62a10.16,10.16,0,0,1-9.93-12.26l10.88-51.39C3.69,472,.35,456.43.35,447.07c0-13.38,8.12-27,22.27-37.31,13-9.48,29.1-14.92,44.18-14.92,14.84,0,27.22,4.32,35.79,12.5,7.88,7.5,12.21,18,12.21,29.53,0,23.84-18.53,49.44-49,53.09l-8.17,38.52A10.15,10.15,0,0,1,47.71,536.53ZM37.15,516.22h2.34l8.07-38.08a10.5,10.5,0,0,1,1.11-2.92,10.11,10.11,0,0,1,.18-3.05l8.42-40-2.39.33Z"/><path d="M148.48,472.53a3.53,3.53,0,0,0,1.68.31c7,0,16.92-4.62,23.48-9.23l1.37,4.15c-5.79,6.31-15.86,10.92-27,12.77-2.44,28.47-17.69,46.31-36.44,46.31-14.19,0-24.4-6.77-24.4-24.3,0-17.7,10.36-54.63,41.78-54.63C142.08,447.91,148.48,456.38,148.48,472.53ZM135.36,481c-3.2-.78-4.11-3.39-4.11-6.47,0-4.31,2-7.07,4.73-8.3-.31-6.47-1.84-8.93-5.8-8.93-10.83,0-20.28,28.15-20.28,43.24,0,10.15,2,12.46,7.77,12.46C125.15,513,132.93,499.15,135.36,481Z"/><path class="cls-4" d="M111.58,537C89.94,537,77,524.12,77,502.54a83.75,83.75,0,0,1,10.44-39c9.48-16.63,24.22-25.8,41.5-25.8,7.66,0,24,2.5,28.52,23.09a51.55,51.55,0,0,0,10.32-5.55,10.16,10.16,0,0,1,15.49,5.13l1.37,4.15a10.16,10.16,0,0,1-2.17,10.05C176.64,481,167.66,486,157.2,488.9c-2.1,12.6-6.66,23.5-13.38,31.83C135.37,531.22,123.92,537,111.58,537Zm-6.87-62.63a68.31,68.31,0,0,0-7.38,28.17c0,6.42,1.5,10.33,5.13,12.37-2.71-5.17-2.71-11.39-2.71-14.37C99.75,493.05,101.64,483.24,104.71,474.37Zm18.39,9a65.42,65.42,0,0,0-2.93,14.33,54.63,54.63,0,0,0,4.15-12.38A14.88,14.88,0,0,1,123.1,483.34Z"/><path d="M226.25,449.29l-11,52.32a21.39,21.39,0,0,0-.6,4.93c0,4.31,2,5.69,6.25,5.69,5.94,0,10.06-5.84,12.35-13.54h6.4C231,523.77,217.25,527.16,209,527.16c-8.69,0-14.18-5.08-15.09-14.62-7.63,12.62-16.17,14.62-22.57,14.62-9.15,0-16.32-5.54-16.32-18.47a50.33,50.33,0,0,1,1.22-10l10.36-49.4h22l-11,52.32a21.46,21.46,0,0,0-.46,4.31c0,3.54,1.22,6.31,4.57,6.31,5.95,0,9.92-5.84,12.21-13.54l10.36-49.4Z"/><path class="cls-4" d="M209,537.31c-7.2,0-13.24-2.37-17.62-6.63a32.39,32.39,0,0,1-20,6.63c-16.09,0-26.48-11.23-26.48-28.62a59.59,59.59,0,0,1,1.44-12.06l10.37-49.42a10.15,10.15,0,0,1,9.93-8.07h22a10.17,10.17,0,0,1,7.86,3.72,10.16,10.16,0,0,1,7.85-3.72h22a10.16,10.16,0,0,1,9.94,12.24L228.09,490a10.12,10.12,0,0,1,5.18-1.42h6.4A10.16,10.16,0,0,1,249.26,502C239.16,531.19,221.8,537.31,209,537.31Zm-34.15-77.86-8.68,41.33a41.33,41.33,0,0,0-1,7.91c0,7.32,2.88,8.19,5.24,8.3A17.46,17.46,0,0,1,167,505.92a32.1,32.1,0,0,1,.66-6.28s0-.07,0-.11l8.41-40.08ZM202,506.36a10.09,10.09,0,0,1,2.05,5.21c.43,4.52,2,5.28,3.85,5.41a16.66,16.66,0,0,1-3.37-10.44,31.48,31.48,0,0,1,.84-7.1l8.4-40h-1.21l-8.68,41.33a8,8,0,0,1-.2.81Q202.88,504.17,202,506.36Zm22.84.32h0Z"/><path d="M270.78,425l-5.19,24.31h9.16l-1.23,6.16h-9.15l-9.75,46.16a21,21,0,0,0-.62,4.93c0,4.31,2,5.69,6.25,5.69,6,0,11.44-5.84,13.73-13.54h6.41c-8.7,25.08-23.79,28.47-32,28.47-9.15,0-16.31-5.54-16.31-18.47a50.33,50.33,0,0,1,1.22-10l9.15-43.24h-5l1.22-6.16h5l4.58-21.22Z"/><path class="cls-4" d="M248.36,537.31c-16.08,0-26.47-11.23-26.47-28.62a59.9,59.9,0,0,1,1.43-12.06l7.15-33.74a10.89,10.89,0,0,1-.93-1,10.16,10.16,0,0,1-2.12-8.42l1.22-6.16a10.18,10.18,0,0,1,6.68-7.64l3-13.75a10.13,10.13,0,0,1,8.55-7.92l22.56-3.09a10.16,10.16,0,0,1,11.31,12.18L278,439.68a10.16,10.16,0,0,1,6.68,11.59l-1.22,6.16a10.15,10.15,0,0,1-10,8.18h-.91l-5.4,25.52a10.14,10.14,0,0,1,6.77-2.59h6.41A10.16,10.16,0,0,1,290,502C279.33,532.72,259.34,537.31,248.36,537.31Zm4.14-83.07a10.05,10.05,0,0,1-.15,3.32L243.2,500.8a40.6,40.6,0,0,0-1,7.89c0,7.1,2.7,8.14,5,8.29a16.6,16.6,0,0,1-3.37-10.44,31.23,31.23,0,0,1,.85-7.11l9.74-46.08a10.17,10.17,0,0,1,1.07-2.85,10.38,10.38,0,0,1,.15-3.33L257.83,437l-1.19.16-3.08,14.27A10.2,10.2,0,0,1,252.5,454.24Z"/><path d="M306.31,449.29l-11,52.32a21.47,21.47,0,0,0-.61,4.93c0,4.31,2,5.69,6.25,5.69,5.95,0,11.44-5.84,13.73-13.54h6.4c-8.69,25.08-23.79,28.47-32,28.47-9.15,0-16.32-5.54-16.32-18.47a51.08,51.08,0,0,1,1.22-10l10.37-49.4Zm-6.86-32.77a12.29,12.29,0,0,1,12.2,12.31A12.15,12.15,0,0,1,299.45,441a12,12,0,0,1-12.05-12.15A12.16,12.16,0,0,1,299.45,416.52Z"/><path class="cls-4" d="M289.08,537.31c-16.08,0-26.47-11.23-26.47-28.62A60.06,60.06,0,0,1,264,496.63l10.38-49.42a10.15,10.15,0,0,1,5.82-7.2,22.29,22.29,0,1,1,35.05,4.54,10.15,10.15,0,0,1,1,6.83l-8.35,39.77a10.14,10.14,0,0,1,6.8-2.61h6.4A10.16,10.16,0,0,1,330.69,502C320.05,532.72,300.05,537.31,289.08,537.31Zm3.52-77.86-8.68,41.33a40.58,40.58,0,0,0-1,7.91c0,7.1,2.71,8.14,5,8.29a16.66,16.66,0,0,1-3.37-10.44,31.13,31.13,0,0,1,.85-7.09l8.4-40Zm12.27,47.23h0Zm-5.42-80a2,2,0,0,0-1.9,2.16,1.89,1.89,0,0,0,1.9,2,2,2,0,0,0,2-2A2.13,2.13,0,0,0,299.45,426.67Z"/><path d="M353.12,462.68c-5.49,0-9.61,6.47-11.9,14.16l-10.36,49.39h-22l16.16-76.94h22l-1.68,8c6.41-7.39,13.11-8.62,17.85-8.62,9.75,0,16.92,5.08,16.92,17.39s-7.32,31.08-7.32,39.7c0,3.85,1.53,6.46,6.1,6.46,6.7,0,9.45-5.54,12.81-13.54h6.41c-8.55,25.23-20.29,28.47-28.37,28.47-13.26,0-18-8.62-18-17.39,0-10.46,6.86-29.39,6.86-39.24C358.61,465.45,356.77,462.68,353.12,462.68Z"/><path class="cls-4" d="M369.74,537.31c-13.58,0-23.57-7.21-26.92-18.64l-2,9.65a10.15,10.15,0,0,1-9.93,8.07h-22A10.16,10.16,0,0,1,299,524.14l16.17-76.93a10.14,10.14,0,0,1,9.93-8.07h22a10.19,10.19,0,0,1,5,1.3,32.6,32.6,0,0,1,11.19-1.91c16.45,0,27.08,10.81,27.08,27.54,0,7.52-2.07,16.21-4,24.07a10.18,10.18,0,0,1,5.48-1.6h6.41A10.15,10.15,0,0,1,407.72,502C399.78,525.41,387,537.31,369.74,537.31Zm-6.88-35.13a43.94,43.94,0,0,0-1,7.59c0,4.31,1.54,6.16,4.19,6.86a17.3,17.3,0,0,1-3.45-10.86A32.43,32.43,0,0,1,362.86,502.18Zm-41.46,13.9h1.21l8.68-41.33a8,8,0,0,1,.2-.81,43,43,0,0,1,5.14-11.43,9.89,9.89,0,0,1-1.21-3.06H333.3ZM383,506Zm-17.33-47a20.08,20.08,0,0,1,3.14,11.53,57.29,57.29,0,0,1-1.21,10.52c1.31-5.45,2.41-10.91,2.41-15C370,461.44,368.93,459.53,365.62,459Z"/><path d="M421.59,512.54c5.79,0,13.11-3.85,18-8.16-3.2,17.54-14.18,22.78-26.38,22.78-14.18,0-23.64-7.09-23.64-24.47,0-17.69,9.92-54.78,41.18-54.78,13.57,0,16.77,7.08,16.77,14.77,0,17.85-16.77,31.39-35.07,32.47-.16,1.54-.31,3.23-.31,4.62C412.13,509.46,416.25,512.54,421.59,512.54ZM432,456.07c-7.63,0-15.25,17.08-18.45,31.69,11.89-.61,22.25-12.46,22.25-25.39C435.76,458.53,434.86,456.07,432,456.07Z"/><path class="cls-4" d="M413.2,537.31c-21.16,0-33.79-12.94-33.79-34.62,0-27,15.92-64.93,51.33-64.93,16.86,0,26.92,9.32,26.92,24.92,0,12.54-6.13,23.93-15.92,31.78a10.14,10.14,0,0,1,7.83,11.75C445.91,526.26,433,537.31,413.2,537.31Zm-6.76-62.09a66.06,66.06,0,0,0-6.73,27.47c0,7.86,2.08,12,7.3,13.56-3-3.64-5-9-5-16.48,0-1.86.18-3.88.35-5.62a10.11,10.11,0,0,1,1.3-4,10.09,10.09,0,0,1,0-4.51C404,483.75,404.92,479.87,406.44,475.22Z"/><path d="M288.72,571.37l13.5-39.73h8.44v39.73l13.83-39.73H329L311.1,580h-9.52V547l-12.74,33h-9.45V535.67c-7,2.21-10.43,7.27-10.43,14.41a9.14,9.14,0,0,0,.9,4.41c-4.44,0-6.88-1.62-6.88-6.29,0-8.64,11.84-16.88,22.58-16.88.9,0,1.74.06,2.58.12Z"/><path class="cls-4" d="M311.1,590.16h-9.52a10.14,10.14,0,0,1-6.37-2.25,10.15,10.15,0,0,1-6.37,2.25h-9.46A10.16,10.16,0,0,1,269.23,580V564.64c-10-.26-16.4-6.65-16.4-16.44,0-7.34,4.16-14.58,11.43-19.88a37,37,0,0,1,21.3-7.16c1.28,0,2.36.09,3.32.16a10.2,10.2,0,0,1,6.4,2.92,10.12,10.12,0,0,1,6.94-2.75h8.44a10.09,10.09,0,0,1,6.91,2.72,10.15,10.15,0,0,1,6.92-2.72H329a10.15,10.15,0,0,1,9.52,13.68l-17.89,48.35A10.15,10.15,0,0,1,311.1,590.16Z"/><path d="M334.07,574.94c5.08,0,8.18-2.85,11.39-6.55h2.19c-3.67,6-9.13,12-17.69,12-6,0-10-3-10-10.32S324.1,547,337.29,547c5.73,0,7.08,3,7.08,6.23,0,7.47-7.08,13.24-14.8,13.7-.06.91-.12,1.82-.12,2.6C329.45,573.9,331,574.94,334.07,574.94Zm3.73-24.54c-3.27,0-6.43,7-7.72,13.37,5-.32,9.34-5.32,9.34-10.71C339.42,551.44,339,550.4,337.8,550.4Z"/><path class="cls-4" d="M330,590.55c-12.27,0-20.19-8-20.19-20.48,0-13.81,8.53-33.26,27.52-33.26,10.3,0,17.23,6.58,17.23,16.38a22,22,0,0,1-1.09,6.85,10.16,10.16,0,0,1,2.87,13.67C349.43,584.88,340.57,590.55,330,590.55Z"/><path d="M358.78,574.94c5.08,0,8.17-2.85,11.39-6.55h2.18c-3.66,6-9.14,12-17.69,12-6.05,0-10-3-10-10.32S348.8,547,362,547c5.73,0,7.08,3,7.08,6.23,0,7.47-7.08,13.24-14.8,13.7-.06.91-.12,1.82-.12,2.6C354.15,573.9,355.69,574.94,358.78,574.94Zm3.73-24.54c-3.28,0-6.43,7-7.72,13.37,4.95-.32,9.33-5.32,9.33-10.71C364.12,551.44,363.73,550.4,362.51,550.4Z"/><path class="cls-4" d="M354.66,590.55c-12.26,0-20.19-8-20.19-20.48,0-13.81,8.54-33.26,27.52-33.26,10.31,0,17.23,6.58,17.23,16.38a22,22,0,0,1-1.09,6.85A10.15,10.15,0,0,1,381,573.7C374.14,584.88,365.27,590.55,354.66,590.55Z"/><path d="M400.53,547.55l-12.87,9a11.92,11.92,0,0,1,2.12-.26c4.77,0,7.08,3.44,7.08,7.6a11.17,11.17,0,0,1-.25,2.46l-.71,3.25a10.65,10.65,0,0,0-.32,2.07c0,1.31.51,2.4,2.5,2.4a4.26,4.26,0,0,0,2.26-.38c-.32,4.61-4.32,6.68-6,6.68-5.28,0-8.11-2.66-8.11-7.39a16.27,16.27,0,0,1,.38-3.38l.52-2.54a11,11,0,0,0,.26-2.39c0-1.89-.65-3.12-2.32-3.12-1.48,0-3,.91-4.76,2.4L377,580h-9.26l9.33-44.14,9.52-1.3-4.82,22.85,12.41-9.86Z"/><path class="cls-4" d="M394.36,590.55a19.57,19.57,0,0,1-10.67-2.93,10.12,10.12,0,0,1-6.71,2.54h-9.26a10.16,10.16,0,0,1-9.94-12.26l9.33-44.14a10.17,10.17,0,0,1,8.56-8l9.52-1.3a10.15,10.15,0,0,1,11.31,12.16l-.15.74h4.18a10.15,10.15,0,0,1,5.83,18.46l-.79.55a19.32,19.32,0,0,1,1.45,7.5,20.21,20.21,0,0,1-.1,2.07,10.17,10.17,0,0,1,3.55,8.43C409.79,584.06,401.59,590.55,394.36,590.55Z"/><path d="M133.23,431.11c6.69,1.5,13.45,8.38,21.62,8.38a13.76,13.76,0,0,0,5.41-1c-.65,6.23-3.22,10.19-6.7,10.19-9.2,0-17.3-14.74-28.69-14.74a10.41,10.41,0,0,0-1.48.07L133,389c-5.6,2.34-9,7.21-9,14.16a9.18,9.18,0,0,0,.9,4.41c-4.44,0-6.88-1.63-6.88-6.3,0-8.64,11.83-16.88,22.58-16.88.9,0,1.73.07,2.57.13Z"/><path d="M172.86,400,168.23,422a9.28,9.28,0,0,0-.25,2.08c0,1.82.83,2.4,2.63,2.4a3.34,3.34,0,0,0,1.42-.25c-1.74,4.54-3,6.55-6.44,6.55s-5.78-2.27-6.3-6c-1.93,3-5,6-9.59,6-4.37,0-8.56-2.73-8.56-10.45,0-8.77,5.35-22.72,16.54-22.72,3.67,0,5.21,1.43,5.21,3.31v.45l.71-3.44Zm-22.19,21.49c0,5,2.06,5.06,3.21,5.06,1.87,0,4.57-1.95,5.34-5.71l3.09-14.67a2.5,2.5,0,0,0-2.64-2.46C154.2,403.66,150.67,415.33,150.67,421.44Z"/><path d="M70.17,420.21,58.78,474.26C75,473,86.85,451.77,86.85,434.45c0-12-5.77-22-19.89-22-26,0-41.54,14.73-41.54,39.34,0,8.25,2.08,9.55,2.24,11-11.06,0-17.16-4-17.16-15.7C10.5,425.55,40,405,66.8,405c26.3,0,37.85,15.21,37.85,31.87,0,20.56-17.48,43.38-46.35,43.38h-.8l-9.79,46.12H24.62L46.43,423.44Z"/><path d="M148.48,472.53a3.53,3.53,0,0,0,1.68.31c7,0,16.92-4.62,23.48-9.23l1.37,4.15c-5.79,6.31-15.86,10.92-27,12.77-2.44,28.47-17.69,46.31-36.44,46.31-14.19,0-24.4-6.77-24.4-24.3,0-17.7,10.36-54.63,41.78-54.63C142.08,447.91,148.48,456.38,148.48,472.53ZM135.36,481c-3.2-.78-4.11-3.39-4.11-6.47,0-4.31,2-7.07,4.73-8.3-.31-6.47-1.84-8.93-5.8-8.93-10.83,0-20.28,28.15-20.28,43.24,0,10.15,2,12.46,7.77,12.46C125.15,513,132.93,499.15,135.36,481Z"/><path d="M226.25,449.29l-11,52.32a21.39,21.39,0,0,0-.6,4.93c0,4.31,2,5.69,6.25,5.69,5.94,0,10.06-5.84,12.35-13.54h6.4C231,523.77,217.25,527.16,209,527.16c-8.69,0-14.18-5.08-15.09-14.62-7.63,12.62-16.17,14.62-22.57,14.62-9.15,0-16.32-5.54-16.32-18.47a50.33,50.33,0,0,1,1.22-10l10.36-49.4h22l-11,52.32a21.46,21.46,0,0,0-.46,4.31c0,3.54,1.22,6.31,4.57,6.31,5.95,0,9.92-5.84,12.21-13.54l10.36-49.4Z"/><path d="M270.78,425l-5.19,24.31h9.16l-1.23,6.16h-9.15l-9.75,46.16a21,21,0,0,0-.62,4.93c0,4.31,2,5.69,6.25,5.69,6,0,11.44-5.84,13.73-13.54h6.41c-8.7,25.08-23.79,28.47-32,28.47-9.15,0-16.31-5.54-16.31-18.47a50.33,50.33,0,0,1,1.22-10l9.15-43.24h-5l1.22-6.16h5l4.58-21.22Z"/><path d="M306.31,449.29l-11,52.32a21.47,21.47,0,0,0-.61,4.93c0,4.31,2,5.69,6.25,5.69,5.95,0,11.44-5.84,13.73-13.54h6.4c-8.69,25.08-23.79,28.47-32,28.47-9.15,0-16.32-5.54-16.32-18.47a51.08,51.08,0,0,1,1.22-10l10.37-49.4Zm-6.86-32.77a12.29,12.29,0,0,1,12.2,12.31A12.15,12.15,0,0,1,299.45,441a12,12,0,0,1-12.05-12.15A12.16,12.16,0,0,1,299.45,416.52Z"/><path d="M353.12,462.68c-5.49,0-9.61,6.47-11.9,14.16l-10.36,49.39h-22l16.16-76.94h22l-1.68,8c6.41-7.39,13.11-8.62,17.85-8.62,9.75,0,16.92,5.08,16.92,17.39s-7.32,31.08-7.32,39.7c0,3.85,1.53,6.46,6.1,6.46,6.7,0,9.45-5.54,12.81-13.54h6.41c-8.55,25.23-20.29,28.47-28.37,28.47-13.26,0-18-8.62-18-17.39,0-10.46,6.86-29.39,6.86-39.24C358.61,465.45,356.77,462.68,353.12,462.68Z"/><path d="M421.59,512.54c5.79,0,13.11-3.85,18-8.16-3.2,17.54-14.18,22.78-26.38,22.78-14.18,0-23.64-7.09-23.64-24.47,0-17.69,9.92-54.78,41.18-54.78,13.57,0,16.77,7.08,16.77,14.77,0,17.85-16.77,31.39-35.07,32.47-.16,1.54-.31,3.23-.31,4.62C412.13,509.46,416.25,512.54,421.59,512.54ZM432,456.07c-7.63,0-15.25,17.08-18.45,31.69,11.89-.61,22.25-12.46,22.25-25.39C435.76,458.53,434.86,456.07,432,456.07Z"/><path d="M288.72,571.37l13.5-39.73h8.44v39.73l13.83-39.73H329L311.1,580h-9.52V547l-12.74,33h-9.45V535.67c-7,2.21-10.43,7.27-10.43,14.41a9.14,9.14,0,0,0,.9,4.41c-4.44,0-6.88-1.62-6.88-6.29,0-8.64,11.84-16.88,22.58-16.88.9,0,1.74.06,2.58.12Z"/><path d="M334.07,574.94c5.08,0,8.18-2.85,11.39-6.55h2.19c-3.67,6-9.13,12-17.69,12-6,0-10-3-10-10.32S324.1,547,337.29,547c5.73,0,7.08,3,7.08,6.23,0,7.47-7.08,13.24-14.8,13.7-.06.91-.12,1.82-.12,2.6C329.45,573.9,331,574.94,334.07,574.94Zm3.73-24.54c-3.27,0-6.43,7-7.72,13.37,5-.32,9.34-5.32,9.34-10.71C339.42,551.44,339,550.4,337.8,550.4Z"/><path d="M358.78,574.94c5.08,0,8.17-2.85,11.39-6.55h2.18c-3.66,6-9.14,12-17.69,12-6.05,0-10-3-10-10.32S348.8,547,362,547c5.73,0,7.08,3,7.08,6.23,0,7.47-7.08,13.24-14.8,13.7-.06.91-.12,1.82-.12,2.6C354.15,573.9,355.69,574.94,358.78,574.94Zm3.73-24.54c-3.28,0-6.43,7-7.72,13.37,4.95-.32,9.33-5.32,9.33-10.71C364.12,551.44,363.73,550.4,362.51,550.4Z"/><path d="M400.53,547.55l-12.87,9a11.92,11.92,0,0,1,2.12-.26c4.77,0,7.08,3.44,7.08,7.6a11.17,11.17,0,0,1-.25,2.46l-.71,3.25a10.65,10.65,0,0,0-.32,2.07c0,1.31.51,2.4,2.5,2.4a4.26,4.26,0,0,0,2.26-.38c-.32,4.61-4.32,6.68-6,6.68-5.28,0-8.11-2.66-8.11-7.39a16.27,16.27,0,0,1,.38-3.38l.52-2.54a11,11,0,0,0,.26-2.39c0-1.89-.65-3.12-2.32-3.12-1.48,0-3,.91-4.76,2.4L377,580h-9.26l9.33-44.14,9.52-1.3-4.82,22.85,12.41-9.86Z"/><g class="cls-12"><path class="cls-13" d="M118.71,635.88a5.84,5.84,0,0,1,6.46,0,139.59,139.59,0,0,1,14.26,10.27s1.24.86,1.28-.6c0,0-.21-4.28.31-5.6a2.54,2.54,0,0,1,2.38-1.72s5.6.28,9.16.76a3.46,3.46,0,0,1,2.93,3.15s2.29,15.27,2.81,20.77c0,0,.44,2.8,4.5,7.54,0,0,8.18,11.49,9.19,13.75,0,0,1.92,4-2.2,4.53,0,0-7.53.76-8.23.93a1.87,1.87,0,0,0-1.69,2v.06s-.39,26.54-2.33,39.3c0,0-.5,5.06-3.31,4.93,0,0-7.73-.26-9.52-.2,0,0-.78.06-.66-1,0,0,3.93-41.39,1.26-62.32,0,0-.11-2.7-2.18-3.26,0,0-1.86-.76-3.67,1.71a65.64,65.64,0,0,0-12.22,37.36s-.22,6.62.78,8.3c0,0,.63,1.16,3.82,1.42l4.06.55s.75,0,.69,1c0,0-.94,12.14-1.2,14.29a4,4,0,0,1-.3,1.44s-.15.41-1.42.36c0,0-17.85-.13-19.86,0,0,0-.84.09-1-.43s-1.25-15.68-1.21-17.84a1.1,1.1,0,0,1,.63-1.06,10.73,10.73,0,0,0,5-7.89,41.83,41.83,0,0,0,.11-6.94s.65-23.29.82-27c0,0,.14-1.27-1.51-1.51a1.55,1.55,0,0,0-1.85,1.14c0,.05,0,.09,0,.14s-1.16,15.36-.93,21.48c0,0,.39,4-2.36,4.05,0,0-2.68.4-2.8-2.9,0,0,.2-14.94.85-22.32a1.58,1.58,0,0,0-1.47-1.61,1.62,1.62,0,0,0-1.85,1.34s0,.09,0,.14-1.15,14.28-.94,21.83c0,0,.34,3.66-2.58,3.52,0,0-2.44.29-2.58-3,0,0,.67-20.45.84-22a1.65,1.65,0,0,0-1.42-1.85h-.17a1.58,1.58,0,0,0-1.77,1.35s0,.11,0,.16S96.42,698.8,96.58,706c0,0-.11,7.39,5.35,10.39,0,0,.8.46.82,1.16,0,0,.61,13,1.16,17.17,0,0,.21,1-.69,1l-13.71.37s-2.28.16-2.8-2.66c-.45-2.63-3-24.28-2.55-41.45a2.09,2.09,0,0,0-1.67-2.25s-7-.65-8.73-1.08a2.92,2.92,0,0,1-2.09-3.55,2.83,2.83,0,0,1,.31-.74s15.2-28.92,46.73-48.46"/><path class="cls-13" d="M267.7,670.46a1.45,1.45,0,0,0-1.13-.57l-12.07,0-14.81,50.18-5.62-24.38,17.21-23.51a1.43,1.43,0,0,0,.25-.51l.3-1a.6.6,0,0,0-.57-.77H239l-13.17,19.29,5.62-17.47a1.43,1.43,0,0,0-.22-1.25,1.45,1.45,0,0,0-1.13-.57H217.94l-10.5,35.69c.23-6.13-4.52-11-7.29-14-2.24-2.49-3.59-4.26-3.35-6.23a5.61,5.61,0,0,1,5.32-4.89c3-.24,4.32.68,6.25,1.59a1.72,1.72,0,0,0,.71.17,1.6,1.6,0,0,0,.57-.11,1.44,1.44,0,0,0,.86-.91l2.83-9.55-2-.91-.28-.14-.1,0h0a18.15,18.15,0,0,0-7.35-1.44c-10.64,0-20.32,7.62-21.92,17-1.11,6.56,3.09,11.18,6.15,14.56l.27.29c2.21,2.38,3.75,4.23,3.39,6.37-.51,3-3.42,4.71-6.24,4.94-3.09.25-5-.61-7.44-1.68a2.1,2.1,0,0,0-1.4-.26,1.49,1.49,0,0,0-1,1l-2.69,9.22-.35,1.18a28.39,28.39,0,0,0,11.42,2.68c9.07,0,16.91-3.48,21.56-11.89l-2.74,9.37a1.38,1.38,0,0,0,.22,1.24,1.42,1.42,0,0,0,1.13.57h12.15l3-10.31,3.69-5.32,2.85,14.49a1.41,1.41,0,0,0,1.38,1.14h25.53l15.27-51.95a1.4,1.4,0,0,0-.22-1.25"/><path class="cls-13" d="M283.6,681.5l4.53,0a2.27,2.27,0,0,1,1.67.65,3.92,3.92,0,0,1,.91,3.1,25.4,25.4,0,0,1-2.21,8.24c-1.5,3.34-2.9,5.84-6.85,6.29l-3.44,0Zm-8.76,29.81,5.28,0c12.74.17,19.19-8.78,22.07-18.5a32.81,32.81,0,0,0,1.72-8.73c0-4.25-1.09-7.46-3.52-10.14a12.43,12.43,0,0,0-9.29-4.05H271l-.86,2.84a1,1,0,0,0,.11.79l.57.9a3.53,3.53,0,0,1,.4,2.95l-13.05,44.44a1.41,1.41,0,0,0,1.33,1.83h11.69Z"/><path class="cls-13" d="M314.19,697.6h1.7c1.64,0,3.05,1.45,2.84,5.06s-3.08,15.8-8.78,15.8h-1.88Zm-13,26,7.41,0c11.85,0,16-14.86,16.35-21.09.41-6.84-3.4-10.17-7.56-10.17h-7.87l-9,30.37a.66.66,0,0,0,.64.85"/><path class="cls-13" d="M319.27,688.12h2.88l2.2-7.56h3.47l-2.06,7.05a.4.4,0,0,0,.39.51H329l5-17a.41.41,0,0,0-.39-.52h-2.88l-2.06,7.07h-3.47l1.91-6.55a.4.4,0,0,0-.38-.52h-2.88l-5,17a.4.4,0,0,0,.39.51"/><path class="cls-13" d="M332.35,688.11h7.38l.7-2.4a.39.39,0,0,0-.38-.52h-4l1.35-4.54H341l.72-2.4a.4.4,0,0,0-.39-.52h-3.1l1.26-4.22H344l.7-2.41a.4.4,0,0,0-.39-.51h-7.38l-.08.29L332,687.59a.4.4,0,0,0,.38.52"/><path class="cls-13" d="M311.25,688.11h2.87l4.29-14.6h2.74l.68-2.41a.41.41,0,0,0-.39-.51h-8.37l-.68,2.4a.41.41,0,0,0,.39.52H315l-4.12,14.08a.4.4,0,0,0,.39.52"/><path class="cls-13" d="M332.36,692.4l-8.92,30.4a.68.68,0,0,0,.65.86h5.19l8.92-30.4a.68.68,0,0,0-.65-.86Z"/><path class="cls-13" d="M379.39,692.4h-5.2L370.5,705h-6.18l3.43-11.75a.67.67,0,0,0-.64-.86h-5.2L353,722.8a.67.67,0,0,0,.64.86h5.19l3.95-13.5H369l-3.69,12.64a.67.67,0,0,0,.64.86h5.2l8.93-30.4a.67.67,0,0,0-.64-.86"/><path class="cls-13" d="M392.7,705.15h-5.45l2.24-7.55h8l1.25-4.34a.67.67,0,0,0-.64-.86H384.91L376,722.8a.67.67,0,0,0,.64.86h13.22l1.26-4.35a.66.66,0,0,0-.64-.85h-7.13l2.42-8.11h6.3l1.29-4.35a.66.66,0,0,0-.64-.85"/><path class="cls-13" d="M346.31,700.88a4.4,4.4,0,0,1,4.07-3.75,7.79,7.79,0,0,1,3.42.61,1,1,0,0,0,1.34-.56c0-.09,1.25-4.22,1.25-4.22a13.35,13.35,0,0,0-5.12-1.07c-5.51,0-11.06,4.11-12,9.74-.59,3.74,1.79,6.42,3.5,8.44,1.35,1.54,2.44,2.9,2.16,4.64a4.63,4.63,0,0,1-4.45,3.94,7.48,7.48,0,0,1-4.11-.73.93.93,0,0,0-1.37.58l-1.35,4.61a16.84,16.84,0,0,0,6,1.11,12.4,12.4,0,0,0,12.21-10.16c.61-3.8-1.76-6.62-3.47-8.63-1.3-1.55-2.39-2.91-2.12-4.55"/><path class="cls-13" d="M411.42,691.89c-5.51,0-11.06,4.11-12,9.74-.6,3.74,1.79,6.42,3.5,8.44,1.35,1.54,2.44,2.9,2.16,4.64a4.63,4.63,0,0,1-4.45,3.94,7.48,7.48,0,0,1-4.11-.73.93.93,0,0,0-1.37.58l-1.35,4.61a16.84,16.84,0,0,0,6,1.11,12.4,12.4,0,0,0,12.21-10.16c.6-3.8-1.76-6.62-3.47-8.63-1.3-1.55-2.39-2.91-2.13-4.55a4.42,4.42,0,0,1,4.08-3.75,7.81,7.81,0,0,1,3.42.61,1,1,0,0,0,1.34-.56c0-.09,1.25-4.22,1.25-4.22a13.35,13.35,0,0,0-5.12-1.07"/></g><path class="cls-13" d="M193.64,643.55c0,4.35-3,7.17-7.58,7.17h-5V636.34h5C190.65,636.34,193.64,639.18,193.64,643.55ZM186,648.27c3,0,4.74-1.73,4.74-4.72s-1.71-4.78-4.74-4.78h-2v9.5Z"/><path class="cls-13" d="M200.79,650.91a5.53,5.53,0,0,1-5.73-5.9c0-3.6,2.35-5.89,5.73-5.89a5.36,5.36,0,0,1,5.62,5.65,6.91,6.91,0,0,1-.08,1.11H198a2.67,2.67,0,0,0,2.74,2.64,2.35,2.35,0,0,0,2.28-1.38h3.11A5.29,5.29,0,0,1,200.79,650.91Zm-2.78-7h5.42a2.54,2.54,0,0,0-2.72-2.45A2.65,2.65,0,0,0,198,643.94Z"/><path class="cls-13" d="M208.51,635.48h2.89v15.24h-2.89Z"/><path class="cls-13" d="M213.93,636.26a1.69,1.69,0,0,1,1.77-1.69,1.69,1.69,0,1,1,0,3.38A1.69,1.69,0,0,1,213.93,636.26Zm.31,3h2.89v11.41h-2.89Z"/><path class="cls-13" d="M221.84,639.31l2.89,8.75,2.88-8.75h3.07l-4.22,11.41H223l-4.21-11.41Z"/><path class="cls-13" d="M237.3,650.91a5.53,5.53,0,0,1-5.73-5.9c0-3.6,2.35-5.89,5.73-5.89a5.36,5.36,0,0,1,5.62,5.65,6.91,6.91,0,0,1-.08,1.11h-8.35a2.68,2.68,0,0,0,2.74,2.64,2.35,2.35,0,0,0,2.29-1.38h3.11A5.3,5.3,0,0,1,237.3,650.91Zm-2.78-7h5.41a2.53,2.53,0,0,0-2.72-2.45A2.64,2.64,0,0,0,234.52,643.94Z"/><path class="cls-13" d="M247.91,650.72H245V639.31h2.89v1.77a4,4,0,0,1,3.5-1.94v3h-.76c-1.71,0-2.74.66-2.74,2.86Z"/><path class="cls-13" d="M258.33,650.91a5.53,5.53,0,0,1-5.73-5.9c0-3.6,2.35-5.89,5.73-5.89a5.36,5.36,0,0,1,5.63,5.65,6.92,6.92,0,0,1-.09,1.11h-8.34a2.67,2.67,0,0,0,2.74,2.64,2.35,2.35,0,0,0,2.29-1.38h3.11A5.31,5.31,0,0,1,258.33,650.91Zm-2.78-7H261a2.54,2.54,0,0,0-2.72-2.45A2.66,2.66,0,0,0,255.55,643.94Z"/><path class="cls-13" d="M270.55,639.12a4.7,4.7,0,0,1,3.73,1.77v-5.41h2.92v15.24h-2.92V649a4.32,4.32,0,0,1-3.75,1.88c-2.91,0-5.21-2.37-5.21-5.94S267.62,639.12,270.55,639.12Zm.72,2.54a3,3,0,0,0-3,3.31,3.11,3.11,0,0,0,3,3.4,3.37,3.37,0,0,0,0-6.71Z"/><path class="cls-13" d="M291.58,639.12c2.93,0,5.21,2.29,5.21,5.85s-2.28,5.94-5.21,5.94a4.5,4.5,0,0,1-3.77-1.82v1.63h-2.88V635.48h2.88V641A4.45,4.45,0,0,1,291.58,639.12Zm-.76,2.54a3.37,3.37,0,0,0,0,6.71,3.12,3.12,0,0,0,3-3.4A3,3,0,0,0,290.82,641.66Z"/><path class="cls-13" d="M306.75,639.31h3.07l-7.07,16.81h-3.07l2.47-5.69-4.57-11.12h3.23l2.95,8Z"/></g></g></g></svg>