<svg xmlns="http://www.w3.org/2000/svg" viewBox="0 0 303.25 368.3"><defs><style>.cls-1{isolation:isolate;}.cls-2{fill:#cf3339;}.cls-3{fill:#fff;}.cls-4{fill:#b68400;}.cls-5{fill:none;}.cls-6{fill:#edb458;}.cls-7{fill:#7f5b49;}.cls-8{fill:#d19d50;}.cls-9{fill:#4197cb;}.cls-10{fill:#009ade;}.cls-11{opacity:0.3;mix-blend-mode:multiply;}</style></defs><g class="cls-1"><g id="Layer_2" data-name="Layer 2"><g id="Layer_4" data-name="Layer 4"><path class="cls-2" d="M225.46,41.81h1.33l1.48,4.2h0l1.45-4.2H231v5.37h-.89V43h0l-1.48,4.14h-.78L226.37,43h0v4.14h-.9Z"/><path class="cls-2" d="M232.16,41.81h2.23a2.55,2.55,0,0,1,1.07.21,1.9,1.9,0,0,1,.73.58,2.52,2.52,0,0,1,.43.85,4,4,0,0,1,0,2.09,2.52,2.52,0,0,1-.43.85,1.9,1.9,0,0,1-.73.58,2.55,2.55,0,0,1-1.07.21h-2.23Zm.94,4.6H234a2.58,2.58,0,0,0,.9-.14,1.34,1.34,0,0,0,.54-.41,1.3,1.3,0,0,0,.27-.61,3.6,3.6,0,0,0,0-1.51,1.3,1.3,0,0,0-.27-.61,1.34,1.34,0,0,0-.54-.41,2.58,2.58,0,0,0-.9-.14h-.93Z"/><path class="cls-2" d="M239,41.68h.82l-2.16,5.63h-.82Z"/><path class="cls-2" d="M245.43,44.49a2.89,2.89,0,0,1-.22,1.16,2.75,2.75,0,0,1-.6.88,2.57,2.57,0,0,1-.88.57,2.66,2.66,0,0,1-1,.21,2.73,2.73,0,0,1-1.12-.22,2.63,2.63,0,0,1-.87-.59,2.83,2.83,0,0,1-.57-.89,2.9,2.9,0,0,1-.21-1.12,3.06,3.06,0,0,1,.22-1.15,2.62,2.62,0,0,1,.61-.88,2.48,2.48,0,0,1,.88-.57,2.75,2.75,0,0,1,1.06-.21,2.66,2.66,0,0,1,1,.21,2.57,2.57,0,0,1,.88.57,2.75,2.75,0,0,1,.6.88A2.88,2.88,0,0,1,245.43,44.49Zm-.6,0a2.62,2.62,0,0,0-.17-.94,2.25,2.25,0,0,0-.45-.73,2,2,0,0,0-.69-.48,2.19,2.19,0,0,0-1.69,0,1.87,1.87,0,0,0-.69.48,2.11,2.11,0,0,0-.46.73,2.62,2.62,0,0,0-.17.94,2.45,2.45,0,0,0,.16.91,2.14,2.14,0,0,0,.43.73,2.09,2.09,0,0,0,1.58.69,2.14,2.14,0,0,0,.84-.17,2,2,0,0,0,.69-.48,2.25,2.25,0,0,0,.45-.73A2.59,2.59,0,0,0,244.83,44.49Zm-2.71,1.61h-.51V43h1.18a1.42,1.42,0,0,1,.85.21.8.8,0,0,1,.29.69.74.74,0,0,1-.24.61,1.06,1.06,0,0,1-.57.24L244,46.1h-.58l-.81-1.33h-.48Zm.57-1.76H243a.56.56,0,0,0,.23-.07.43.43,0,0,0,.16-.14.54.54,0,0,0,.06-.27.33.33,0,0,0-.07-.23.42.42,0,0,0-.16-.13.71.71,0,0,0-.22-.05h-.85v.91Z"/><path class="cls-2" d="M52.49,30.11a4.35,4.35,0,0,1,3.17,1.55,5.68,5.68,0,0,1,1.47,2.59,5,5,0,0,1-.19,2.82,7,7,0,0,1-1.82,2.67l-1,1,0,0L57.38,44l-2.23,2.12-2.88-3.26-7.18-7.31,4-3.88A5,5,0,0,1,52.49,30.11Zm1,4a2.4,2.4,0,0,0-1.71-.89A2.81,2.81,0,0,0,50,34l-1.05,1.12L52.49,39l1.58-1.37A2.75,2.75,0,0,0,53.53,34.06Z"/><path class="cls-2" d="M62.62,26.19l1.65,2.25-.19.28a2.28,2.28,0,0,0-.77.37,3,3,0,0,0-.91,2.78L63.24,33l2.88,3.65-2.43,1.78-2.43-3.61-3.65-4.75,2.16-1.89L61,29.88l.15-.11a3.22,3.22,0,0,1,1-3.28A5.49,5.49,0,0,1,62.62,26.19Z"/><path class="cls-2" d="M67,16.73l1.76.86.11.27c-.18.35-.31.61-.41.77-1,2-1.71,3.22-2,3.78l-.27.13-1.2-.6q1.2-3.17,1.77-5.07Zm7.37,9-5.25,3.15c1.08,1.55,2.38,1.88,3.92,1a7.55,7.55,0,0,0,2.29-2.27h.29l.75,2.16a9.43,9.43,0,0,1-2.46,2.2,5.26,5.26,0,0,1-4.11.74,5.56,5.56,0,0,1-3.26-2.74,5.67,5.67,0,0,1-.85-4.17,4.85,4.85,0,0,1,2.46-3.17,4.2,4.2,0,0,1,3.25-.64A4.13,4.13,0,0,1,73.85,24a9,9,0,0,1,.57,1.19Zm-2.9-.63a2.07,2.07,0,0,0-1-1,1.57,1.57,0,0,0-1.27.21,2.06,2.06,0,0,0-1,1.25,3.1,3.1,0,0,0,.17,1.84l3.25-2Z"/><path class="cls-2" d="M80.23,17l.58,2.19-.28.25a6.08,6.08,0,0,0-1.47,0,3.64,3.64,0,0,0-1.14.29,1.27,1.27,0,0,0-.66.63A.92.92,0,0,0,78,21.57a7.58,7.58,0,0,0,1.48,0,13.1,13.1,0,0,1,1.65,0,3.24,3.24,0,0,1,1.32.42,2.53,2.53,0,0,1,1,1.16,3.32,3.32,0,0,1,.31,1.73A3.35,3.35,0,0,1,83,26.64a5,5,0,0,1-1.9,1.44,9.22,9.22,0,0,1-3.34.84l-.7-2.28.18-.29a6.19,6.19,0,0,0,1.82.18,4.13,4.13,0,0,0,1.52-.33,1.41,1.41,0,0,0,.73-.69.92.92,0,0,0,0-.81.89.89,0,0,0-.71-.52,7.48,7.48,0,0,0-1.47,0c-.68,0-1.24,0-1.69,0a2.86,2.86,0,0,1-1.32-.41,2.71,2.71,0,0,1-1-1.19,3,3,0,0,1,0-2.66,4.54,4.54,0,0,1,2.32-2.14A8.2,8.2,0,0,1,80.23,17Z"/><path class="cls-2" d="M92.28,17.92l-5.7,2.22q1.2,2.58,3.7,1.62a7.65,7.65,0,0,0,2.64-1.85l.29.06.37,2.26A9.48,9.48,0,0,1,90.78,24a5.21,5.21,0,0,1-4.17,0,5.5,5.5,0,0,1-2.75-3.25,5.67,5.67,0,0,1-.14-4.25,4.88,4.88,0,0,1,3-2.72,4.26,4.26,0,0,1,3.3-.08,4.16,4.16,0,0,1,2.12,2.48,11.1,11.1,0,0,1,.36,1.27Zm-2.75-1.11a2,2,0,0,0-.87-1.14,1.5,1.5,0,0,0-1.28,0,2,2,0,0,0-1.17,1.06,3.06,3.06,0,0,0-.15,1.84l3.54-1.45Z"/><path class="cls-2" d="M100.53,13.68a1.72,1.72,0,0,0-.68-1.09,1.33,1.33,0,0,0-1.15-.13A3.45,3.45,0,0,0,96.88,14l.72,2.53L99,21l-2.89.84-1.06-4.23-1.76-5.72,2.67-1,.43,1.48.15-.05a7.77,7.77,0,0,1,2.16-2.32,3.88,3.88,0,0,1,2.75,0,2.71,2.71,0,0,1,1.45,1.92l.77,2.92,1.41,4.4-2.92.84Z"/><path class="cls-2" d="M112.55,14.91l.3.17.09,1.81a7,7,0,0,1-2.15,1.21c-2,.23-3.24-.53-3.62-2.27L106.88,14,106,10.16l-1.37.3-.14-.13-.2-1.65,1.3-.28-.37-1.71,2.49-1.45.24.14.46,2.4,2.63-.57.12.13L111.4,9l-2.63.57,1,5a1.54,1.54,0,0,0,.48.95,1.16,1.16,0,0,0,1,.11A3.55,3.55,0,0,0,112.55,14.91Z"/><path class="cls-2" d="M121.85,11l-6,1q.65,2.76,3.29,2.34a7.54,7.54,0,0,0,3-1.28l.27.12-.09,2.29a9.4,9.4,0,0,1-3.1,1.14,5.2,5.2,0,0,1-4.09-.82,5.46,5.46,0,0,1-2-3.73,5.67,5.67,0,0,1,.72-4.19,4.9,4.9,0,0,1,3.46-2.06,4.26,4.26,0,0,1,3.25.59A4.16,4.16,0,0,1,122,9.31a8.89,8.89,0,0,1,.1,1.32ZM118.27,0l1.33,1.44v.3c-.29.26-.51.45-.66.56-1.69,1.45-2.78,2.37-3.28,2.78l-.29,0-.9-1c1.51-1.67,2.68-3,3.5-4.08Zm1.11,9.39a2,2,0,0,0-.62-1.29,1.52,1.52,0,0,0-1.26-.27,2,2,0,0,0-1.36.81,3,3,0,0,0-.52,1.77l3.77-.7Z"/><path class="cls-2" d="M136.14,5.26A6,6,0,0,1,137.48,9a6.19,6.19,0,0,1-1,4.36,5,5,0,0,1-3.75,1.79,8.67,8.67,0,0,1-1.52,0l.37,4.09-3,.22-.47-8.53-.58-6,2.85-.46L130.44,6h.16A7.16,7.16,0,0,1,133,4.15,3.71,3.71,0,0,1,136.14,5.26Zm-1.85,6.91a4.22,4.22,0,0,0,.42-2.51A4.52,4.52,0,0,0,134,7.32a1.67,1.67,0,0,0-1.56-.69,2.88,2.88,0,0,0-1.9,1.11l.17,2.63.24,2.55a4.08,4.08,0,0,0,1.58.22A2.1,2.1,0,0,0,134.29,12.17Z"/><path class="cls-2" d="M146.48,4.41a2.63,2.63,0,0,1,1,2.18c0,.27,0,1.13-.11,2.58,0,.43,0,.86,0,1.31s0,.82,0,1.14a.84.84,0,0,0,.12.53.45.45,0,0,0,.41.14,2.49,2.49,0,0,0,.58-.09l.23.18L148.4,14a3.66,3.66,0,0,1-1.65.58,2,2,0,0,1-1.14-.47,2.17,2.17,0,0,1-.62-1.16h-.16a6.54,6.54,0,0,1-2.32,1.7,3.73,3.73,0,0,1-2.57-.83,2.93,2.93,0,0,1-.95-2.27,2.63,2.63,0,0,1,.55-1.79,3.1,3.1,0,0,1,1.75-.89l3.46-.7V7.21a1.3,1.3,0,0,0-1.47-1.46,4,4,0,0,0-1.48.34,9.23,9.23,0,0,0-1.74,1L139.82,7l-.36-2a8.49,8.49,0,0,1,2.07-1,7.75,7.75,0,0,1,2.22-.36A4.3,4.3,0,0,1,146.48,4.41Zm-4.13,5.8a1,1,0,0,0-.53.31,1.08,1.08,0,0,0-.16.65,1.21,1.21,0,0,0,.33.91,1.16,1.16,0,0,0,.88.32,2.68,2.68,0,0,0,1.85-1.07l0-1.67Z"/><path class="cls-2" d="M157.07,4.16,157,7l-.32.1a2.06,2.06,0,0,0-.83-.19,2.93,2.93,0,0,0-2.44,1.6l-.05,1.43,0,4.65-3-.11.34-4.35.09-6L153.59,4,153.48,6h.19c.79-1.33,1.73-2,2.84-1.94C156.64,4.1,156.83,4.12,157.07,4.16Z"/><ellipse class="cls-2" cx="145.96" cy="77.25" rx="93.04" ry="52.13"/><path class="cls-3" d="M69.89,80c-1.29,4.91.67,9.27,6.93,9.27,3.5,0,6.57-2,7.28-5,.78-3.29-1-5.23-3.22-7.43l-2-2.12c-2.66-2.73-4.7-5.18-3.72-9.26C76.5,59.63,82.67,56,89.63,56a12.92,12.92,0,0,1,8.85,3c4.62,4.65-1.1,7.63-2.37,7.35a1.29,1.29,0,0,1-.43-.14c1.21-3.77-.09-7.95-5.33-7.95-2.93,0-6.55,1.57-7.19,4.24-.73,3,1.46,5.12,3.42,7.11l1.85,1.82c2.95,2.87,5.36,5.58,4.31,10-1.51,6.37-7.9,10.13-15.43,10.13-4.14,0-8.25-1.24-10.55-3.83C62.33,82.62,67.41,80,69.89,80Z"/><path class="cls-3" d="M122.12,104l7.29-16.15h.13c.9,2.16,3,3.42,5.93,3.42,9.39,0,15.94-9.09,16.76-15.77a9.55,9.55,0,0,0,0-2C152,70.33,149.8,68,145.13,68a12.44,12.44,0,0,0-8.59,3.46l-.11-.1.77-1.82a8.1,8.1,0,0,0-4.72-4L117.14,99.74A8.61,8.61,0,0,0,122.12,104ZM145,74.1c-.47,3.79-5.06,14.3-10.89,14.3-2.33,0-3-1.78-2.82-3.42.4-3.2,4.79-14.14,10.55-14.14C144.19,70.84,145.17,72.37,145,74.1Z"/><path class="cls-3" d="M120.21,88.11a2.73,2.73,0,0,1-1.15.3c-.9,0-1.07-1.21-1-1.85a19.24,19.24,0,0,1,1.51-3.88l6.67-14.17a9.59,9.59,0,0,0-6.74,0l-1.64,2.87c-.89-2.22-3-3.43-6-3.43-9.33,0-17,8.94-17.8,15.72-.5,4.11,1.66,7.62,7.09,7.62,4.42,0,8.09-2.58,10.4-5.52l.12.1a16.3,16.3,0,0,0-.43,1.91c-.25,1.93,1.25,3.51,3.71,3.51a10.05,10.05,0,0,0,4.3-1l1-2.1ZM116,73.84c-.47,3.78-5.72,14.29-11.61,14.29-2.2,0-2.88-1.9-2.68-3.42.45-3.73,5.52-13.87,11.22-13.87C115.21,70.84,116.22,72.16,116,73.84Z"/><path class="cls-3" d="M177.64,77.87l3.92-7.61-3.5-.23c-1-.06-3.27-.28-3.27-.28l-1.89,3.39c-1.77,3.42-7.57,14.73-12.87,14.73-1.11,0-1.83-.43-1.72-1.38.15-1.16,4.45-9.11,4.45-9.11.92-1.73,2.28-4.36,2.49-6.08.26-2.07-1.53-3.37-4-3.37a13.71,13.71,0,0,0-6.77,2.28,5.42,5.42,0,0,1,.55,1.31,7,7,0,0,1,1.68-.45.89.89,0,0,1,1,1.11c-.1.84-4,8.64-4,8.64-.93,1.79-2.36,4.46-2.59,6.31-.31,2.57,1.83,4.16,4.81,4.14,5.17,0,9.29-3.38,12.23-7.4l.12.11a13.38,13.38,0,0,0-1,3.46c-.23,2,1.09,3.83,3.75,3.83a11,11,0,0,0,6.5-2.39v0a3.2,3.2,0,0,1-.19-1.58c0-.07,0-.14,0-.21a4.06,4.06,0,0,1-1.9.81c-1,0-1-1-1-1.64C174.79,84.17,176.67,80,177.64,77.87Z"/><path class="cls-3" d="M217,68.2c-3.49-2.38-9.59-4.37-20.26-4.62l2.44-5.41a9.13,9.13,0,0,0-6.59,0l-2.62,5.5c-7.07.32-15.44,2.21-30.71-.85l-.41.66c8.51,3.51,21.52,4.27,29.18,4.27L182.43,79.4c-.49,1.1-1.15,2.5-1.71,3.91a11.9,11.9,0,0,0-1.21,4c-.28,2.35,1.83,4.08,4.75,4.08,3.36,0,6.19-2,8.35-4l0-.08a6.47,6.47,0,0,1-.66-1.52,19.42,19.42,0,0,1-1.48,1.28,4.32,4.32,0,0,1-2.39,1c-1.22,0-1.35-.87-1.26-1.65a29.64,29.64,0,0,1,2.37-6.07l5.84-13c5.83-.58,13.12-1.4,17,.93-5.55.43-11.1,2.14-14.56,6.16a14.68,14.68,0,0,0-3.58,7.94,12.07,12.07,0,0,0,.07,2.71c.74,3.78,4.17,6.31,9.55,6.31,9.05,0,17-7.14,17.83-14.21a8,8,0,0,0-1.58-6.38c3,1.16,5.28,3,5.87,4a7.1,7.1,0,0,0,3.69-3.53C228,70,222.89,68.49,217,68.2Zm-7.38,17.06c-4.28,6-11.08,6.11-8.67-2.38.38-1.34,3.48-12.22,12.75-13.06a5.55,5.55,0,0,1,.83,2C215.15,75.14,212.57,81.2,209.58,85.26Z"/><path class="cls-3" d="M302.89,196.73l-11.62-28.59a4.73,4.73,0,0,0-5.42-2.85l-15.25,3.44,4.45-11a4.82,4.82,0,0,0,.26-2.73l-3.14-16a4.74,4.74,0,0,0-5.53-3.76l-25.75,4.91-2.68-15.85a4.76,4.76,0,0,0-2.57-3.48l-13.81-6.89a4.68,4.68,0,0,0-4.35.08l-17.54,9.57a4.79,4.79,0,0,0-2.41,5l-3.76-2.9a4.7,4.7,0,0,0-5-.51L173,133l-3.31-11.67a4.74,4.74,0,0,0-5.27-3.4l-27.67,4.23a4.76,4.76,0,0,0-3.93,3.8l-1.29,6.6-6.37-19.29a4.78,4.78,0,0,0-3.54-3.17l-27.74-5.73a4.67,4.67,0,0,0-3.66.76,4.79,4.79,0,0,0-2,3.2l-2.47,16.42a4.82,4.82,0,0,0,.37,2.7l4.25,9.44-.18.18L90.1,137l-6.74-9.57a4.73,4.73,0,0,0-4.76-1.92l-17.41,3.4a4.73,4.73,0,0,0-3.64,3.35l-5.93,20.43L47.17,146a4.66,4.66,0,0,0-4-2.1l-14,.22a4.72,4.72,0,0,0-4.19,2.7l-8.91,18.65a4.81,4.81,0,0,0,.63,5.14l1.5,1.81L8.66,172a4.79,4.79,0,0,0-4.91,4.18L0,205.77a4.79,4.79,0,0,0,2.35,4.75l8.55,4.92c-.32.08-.61.17-.87.25l-1,.34A4.75,4.75,0,0,0,7,217.48l-.67.81c-2.93,3.51-3.47,9.17-1.78,18.34l.56,3a4.78,4.78,0,0,0,4,3.87l1.52,8.84c-5,5.53-7.7,11.88-7.7,18.11,0,9.47,4.95,15.46,13.73,16.88l.53,3.1-5.57,26.28a7.76,7.76,0,0,0,1.54,6.47,7.59,7.59,0,0,0,6,2.88h4.2l5.26,30.53a12.07,12.07,0,0,0,12,10.38H248.86a12,12,0,0,0,11.93-10.2l5.77-33.49c4.28-2.58,8.9-7.48,10.61-16.83a7.79,7.79,0,0,0-3.32-7.86,25.88,25.88,0,0,0,8.23-18.71c0-5.66-2-10.19-5.8-13.09l4-23.29a4.78,4.78,0,0,0,4-3.87l.56-3c1.7-9.18,1.15-14.84-1.78-18.35l-.33-.39,18.75-15.67A4.8,4.8,0,0,0,302.89,196.73Z"/><path class="cls-4" d="M231.61,208.39c2.27,0,13.95,4,21.84,5,3.74.5,6.57,1.33,11.31,5.58,2.55,2.28-32.65,3.56-32.65,3.56Z"/><path class="cls-4" d="M45.78,211.17c-2.46,0-10.3,2.44-11.71,3.85s-3.94,4.25-4.29,5.67,14.73,1.41,14.73,1.41Z"/><path class="cls-4" d="M53.54,220.86C68,219.27,83,199.63,95.62,208.65c19.33,13.81,7.37,17,7.37,17l-49.45-4.78"/><path class="cls-3" d="M144.05,211.19c1.48,1.24-4,3.29-1.82,4.39s3.09-.37,4.54-.19,2.36,2.93,5.08,1.84,4.78-1.83,3.27-4.58c-1.82-3.3-4.89-.14-6.17-2.38C147,206.79,140.79,208.44,144.05,211.19Z"/><polygon class="cls-5" points="121.26 247.79 121.75 248.15 121.88 248.02 121.26 247.79"/><polygon class="cls-6" points="166.75 138.08 163.19 125.94 140.47 129.44 146.75 142.07 166.75 138.08"/><path class="cls-6" d="M135.07,155.77l4.72-5.82,3.05.75,1.58-7.33-5.35-10.77-4.45,22.75Z"/><polygon class="cls-6" points="123.73 239.27 123.97 238.14 123.58 237.99 123.73 239.27"/><polygon class="cls-6" points="122.41 245.37 122.72 243.92 119.45 244.27 122.41 245.37"/><polygon class="cls-6" points="117.91 117.12 95.14 112.38 93.27 124.03 113.45 129.08 117.91 117.12"/><path class="cls-6" d="M124.88,156.07c1.46.06,3,.33,3.86-.76a4.39,4.39,0,0,1,2.07-1.53l-11.09-33.51-3.81,10.21Z"/><polygon class="cls-6" points="229.62 125.51 220.36 120.98 205.88 129.19 215.27 135.71 229.62 125.51"/><polygon class="cls-6" points="229.57 185.25 236.91 159.41 231.46 127.06 216.87 138.27 229.57 185.25"/><polygon class="cls-6" points="267.8 154.51 265.47 143.15 243.61 147.34 248.48 159.06 267.8 154.51"/><path class="cls-6" d="M237.53,188.71l8.63-28.33-4.15-10-10.34,36.31a12.47,12.47,0,0,0,4.68,1.79C236.76,188.54,237.15,188.62,237.53,188.71Z"/><path class="cls-3" d="M227,264.19l3.38-8.33,68.17-57-11.63-28.6-19.19,4.33-2.92,3.1A11.94,11.94,0,0,0,262.7,176l8-19.65-3.14-16-26.62,5.08-2.51,8.84-4.85-28.74-13.81-6.89-17.54,9.57,9.18,31.4-3.48.71c.52-3.64.11-6-2.49-8.06a31.3,31.3,0,0,0-4.23-3.35l.79-10.41-11.07-8.56-18.46,9.05.47,17.48a5.15,5.15,0,0,0-3.78,2.9,5.87,5.87,0,0,0-.65,2.19c1.52,0,3.07,0,4.57,0l.22,8.49c-.86-.41-1.83-.34-3.24,1.2s-4.6-.12-5.67,2.25,1.7,2.77,2.33,4.2a2.16,2.16,0,0,1,.14.74l-4,2.34L159,162.94l-1.85-8.71-11.83-2.91,1.42-6.59,20.28-4-6.95,21.82a15.44,15.44,0,0,1,3-.84L170,140.11,165.09,123l-27.68,4.24-4.75,24.36-12-36.46L92.88,109.4l-2.47,16.43,5.82,12.93-.56-.17L87,147.48l.94,4.25a5.52,5.52,0,0,0-4.88,3.07,4.62,4.62,0,0,0-.33,4.13l-5,2.37,8.51-21.21-6.74-9.58-17.41,3.41-8.76,30.2L43.24,149l-14,.22-8.91,18.65,11.46,13.82L26.7,177.9l-18.25-.81L4.73,206.72l31.06,17.89-1.24,4.3,11.28,2.59,16.83,88.69,19.91-1.62-3.91-51.73,5.25,32.4,24,1.43-1.14-27.77L115.57,283l22.77-19.11,8.33,20.71,14.94,1,6.6,14.81L163.52,312l19,10.55,26.52-48.88,13.24-11.07Zm-1.23-3.2-1.08-.37,1.87-1.57Zm59.4-87.34,9.52,23.49-15.68.63-7.52-21.16Zm-16.35,4,7.62,21.45-51.07,44.49,17.11-31.52-.52-5.91,9.9-10.51c.26.52.78.79,1.74.66,3.67-.52,3.39-4,6.6-4.57s5.49.24,6.41-4.37c.71-3.54,1-5.74.11-7.5ZM218,210.61l-4-14,24.31-.15,1.24,13Zm-4.31,41.89L209,259.73l-96.56-40.16.67-21.17ZM184.4,295.32l-4.64,1.43L165,254.2l6.81,2.67Zm-5-22.74-.22-.67,2.46-11.16,2.2.86Zm-1.73-5.29-3-9.29,4.68,1.84Zm3,9.28,5.66-14,6.05,2.37-8.78,20.55ZM98.49,225.2l12-3.49,97,40.33-3,4.73Zm7.89,36.92-.28-6.82,5.62,3.39-4,4.2ZM106,252.07l-.52-12.64,14.44,10.68-6.26,6.57Zm7.76-17.93-5.69,2.4L105.23,234l-.09-2.27,1.16-.52Zm7.78,3,.52,4.54-4,.43-.86-6.53.17-.07Zm-5.42,5.17-1.91.21-4.89-3.62,6-2.53Zm7.64-3.08-.15-1.28.39.15Zm-1,4.65-.31,1.45-3-1.1Zm-1.46,3.87.62.23-.13.13Zm5.15-8.69,2.35.92.22.55-3.73,3.92Zm-15.83-53.43-4-30.1,4.75-7.5,4.22,37.09c1.63-.07,3.25-.06,4.83,0l-.89,5.91L124,201.21l-8.69-4.68a6.09,6.09,0,0,0,0-1.41c-.37-3.45-3.77-8.82-9.41-4.35a2.7,2.7,0,0,1-2.48.56l-.14-3.37a31.49,31.49,0,0,1,5.35-2C109.31,185.87,110,185.78,110.58,185.67Zm39.75-19,1.34,5.76c-2.06-1.06-4.44-.91-8,2.67a6.16,6.16,0,0,1-3.9,1.64l-5.31-16.49Zm9.52,53.86-8.12-4.38-6.93-19.92,3.78-10ZM127.37,203l-5-11.15,20.27,5.47,6,17.12Zm-3.15-25.14L146.8,183l-4.44,11.77-20-5.39Zm11.6-7.4,2,6.34a17.44,17.44,0,0,0-5.08.5L122,174.87,120.59,184l-3.34-1.89-.76-6.66ZM99.62,204.3l10.77-5.3L109,219.25l-12.63,4Zm83.83-5,.76-11.73,11.95,5.55c-.46,3.3,2.89,4.8,4.83,6.9l.57,5.59Zm8.61-30.33,5.1,10.18-2.29,10.41-6.33-3.06Zm24.59,14c-1.6,0-3.47.79-5.89,3.23-3.61,3.65-10.52-.32-13.57,4.3l2.25-10.19,19.65-4.94ZM202,210.44a1.9,1.9,0,0,0,2,1.32l-10.79,26.7-5.93-3.19L190.69,220Zm-6.36,29.32,16.22-40.08,3.39,11.91-13.45,31.49Zm69.81-96.61,2.33,11.36-19.32,4.55-4.87-11.72Zm-28.56,16.26-7.34,25.84-12.7-47,14.59-11.21ZM220.36,121l9.26,4.52-14.35,10.2-9.39-6.52Zm-14.65,10.74,8.71,6.39,12.25,45.31c1.69,1,3.26,2.22,5,3.26L242,150.38l4.15,10-8.63,28.33a13,13,0,0,1,2.26.73l8.49-27.87L267.87,157l-7.59,18.74a7.26,7.26,0,0,0-2.84,2.17c-2.47,2.76-7.3-.52-9.14,3.58s2.52,5,3.44,7.55a5.93,5.93,0,0,1,.15,2.42l-4.26,4.52-6,6.41-.75-8.61-15.14.09c.26-3-.32-5-2.62-6.88a33.85,33.85,0,0,0-4.09-3.27l.43-1.35c.33-.08.66-.16,1-.21l-.43-1.48,1.91-6-4.58-16.34-3.63.74Zm9.74,29.54,3.36,11.59-19.38,4.88-6-11.93Zm-17.49,1-7.46,1.53-4.3,21.5-2.39-1.15-.28-33.1L199.66,140Zm-7.07-29.75,7.45,5.64-15.67,10-7.09-7.81Zm-16.07,10.54,6.49,7.64.3,34.6-5.53,5.8Zm-10.14,55.66a9.09,9.09,0,0,1,2.32,1.56l-3.55-16.66,10-5.9.42,15.68-6.72,7a19.85,19.85,0,0,1,1.68,1.84l12.84-13.46-1,11.08-7.4,7.47a12.73,12.73,0,0,0,2,1.44l6.69-6.75L201.15,208l-11.55,9.69a11.6,11.6,0,0,1,.45,4c-.06,1.25-1.17,2.24-3,3l-2,9.27-5.46-2.94.44-2.22,3.56-3c-1.43.34-3,.61-4.76.84L176,229.16l-3.38-1.82-9.65-5.19-7.32-22.36-2.05-6.25a4.73,4.73,0,0,0,2.61-1.71l1.56,6.75a9.13,9.13,0,0,1,1.86-.42L157.47,189c.06-.24.13-.48.19-.74,1.4-6.37,1.86-9.6-1.64-12.43-.69-.56-1.35-1.16-2-1.73l-1.89-8.15,3.9-7.71ZM154.83,156l-4.37,8-15.24-5.59,5.12-6.19Zm8.36-30.08,3.56,12.14-20,4-6.28-12.62Zm-24.12,6.66,5.35,10.77-1.58,7.33-3.05-.75-4.72,5.82-.45-.42Zm-8.26,21.18a4.39,4.39,0,0,0-2.07,1.53c-.91,1.09-2.4.82-3.86.76l-9-25.59,3.81-10.21Zm-35.67-41.4,22.77,4.74-4.46,12L93.27,124Zm-1.81,14.17,20.45,5.12,8.71,24.83a3.68,3.68,0,0,0-1.54,2.29c-.65,2.27,1.49,3.85,1.29,5.54a2.87,2.87,0,0,1-.61,1.28c-1,1.42-3,3.19-3.26,6.16,0,.15,0,.3,0,.44l-2.2.57L115,162.44l-2.08-18.31-13.67-4.39ZM96,140.91l14.35,4.86-5.24,7.73-14.93-6.71Zm-6.76,7.65,15.47,7.6,3.57,27a3.79,3.79,0,0,0-.7-.26c-2.08-.58-1.13-4.2-4.61-3.92l-.3-7.47L90.78,155.16l-.08,0Zm.65,10.28,8.55,11.59L78.5,180.94,66.84,169.71Zm-14.59,3.6-10.52,4.94a9.43,9.43,0,0,0-2.7-2.07l5.83-18.84,16-5.59Zm3.49-29.71,4.57,6.34L68,143.86l-3.71-8.06ZM62.93,137.9l3.27,7.79-6.05,19.54a4.79,4.79,0,0,0-1.91,1.49,3,3,0,0,1-2.63.82l-.9-1.34ZM53,167.55c-1.07.19-2,.83-2.54,2.65-.65,2.27,1.49,3.86,1.29,5.54s-3.49,3.52-3.87,7.44a6.18,6.18,0,0,0,0,1.49L36.56,170.45l5.85-18.78ZM30.93,151.31l9.31-.24L34.09,168.7,23.72,167Zm-6.11,18.33,9.78,1.93L49.4,190.1c2.42-2.93,5.08-5.84,9.13-6.93a22.39,22.39,0,0,1,6.45-.71l1.76,10.87-3.32-4.27-11.3,7.62-5.06-3.74-7.61-5.62Zm29.34,44.22-10-8.76,18.66-12.61,7.46,9.45Zm-4.4-15.59-9.08,6.12,1.79,9.41-10.15-6.11c-.17-2.12-2.74-3.29-2.36-5.4.43-2.38,1.76-3.64-2.2-6-.91-.55-1.7-1-2.44-1.42L26.45,181ZM10.81,180l13,.46-1.07,13.16a5.5,5.5,0,0,0-3.49-.11c-2.52.77-5.75.79-2.76,5.27,1.05,1.57.06,2.91-.36,4.3l-8.33,1.26Zm-.32,26.83,6.22-.93c.14.15.29.3.47.46,3.23,2.82,5.27.2,7.87.57a6.34,6.34,0,0,1,1.78.6l16.31,9.83,1.77,9.32ZM37,227.19l.47-1.62,3.43,2-.16.51Zm27.65,90.19L44,208.53,52.59,216,69.72,317Zm7.54-.61-17-100.53,16.33-12.09,8.46,112Zm14.25-20.3L76,232.18,73.8,202.43l-3.24-4.17-4-24.81,10,9.59,16,113.8Zm18.45,1.1L95.55,297l-16-113.3,20.21-10.66.68,16.39c-2.41-2-4.76-4.49-7.15-1.32-1.6,2.12-6.34-1.44-7.16,3.15-.37,2.11,1.89,3.62,1.88,5.19s-3,3.25-2.91,6.91,3.92,7.36,7.3,7.33a6.64,6.64,0,0,0,3.35-.85l-3,16.06,9.35,3.66,1.54,37.58-.94,1,1,1.19Zm1.22-29.47,25.66-26.9,5.77,2.26-28.15,28.41ZM116,279.47l-5-5.75,29-29.3,4,1.56,3.25,7.29Zm33.84,2.93-8.46-21.08,6.84-5.74L158.28,283Zm-2.78-35.22,15,5.88,15.44,44.38-7.09,2.18ZM167,310.64l3.28-8.09,7.1-2.19-5.54,13Zm14.59,8.1-7.39-4.1,6.54-15.31,6.82-2.1L185,289.39,195,266l10.56,4.13,11.94-18.58-13.27-7.14,13.24-31,21.89-1.09Zm31.24-52,8.6-15.84,57.65-50.23,13.39-.54Z"/><polygon class="cls-6" points="294.66 197.14 285.14 173.65 271.46 176.61 278.98 197.77 294.66 197.14"/><path class="cls-6" d="M266.58,187.41c-.92,4.61-3.2,3.86-6.41,4.37s-2.93,4.05-6.6,4.57c-1,.13-1.48-.14-1.74-.66l-9.9,10.51.52,5.91-17.11,31.52,51.07-44.49-7.62-21.45-2.1,2.22C267.61,181.67,267.29,183.87,266.58,187.41Z"/><polygon class="cls-6" points="83.36 139.07 78.79 132.73 64.28 135.8 67.98 143.86 83.36 139.07"/><path class="cls-6" d="M62.08,165.31a9.43,9.43,0,0,1,2.7,2.07l10.52-4.94L84,140.88l-16,5.59Z"/><polygon class="cls-6" points="40.24 151.07 30.93 151.31 23.72 167.02 34.09 168.7 40.24 151.07"/><path class="cls-6" d="M47.91,184.67a6.18,6.18,0,0,1,0-1.49c.38-3.92,3.66-5.75,3.87-7.44s-1.94-3.27-1.29-5.54c.52-1.82,1.47-2.46,2.54-2.65L42.41,151.67l-5.85,18.78Z"/><path class="cls-6" d="M116.49,175.49l.76,6.66,3.34,1.89,1.39-9.17,10.79,2.44a17.44,17.44,0,0,1,5.08-.5l-2-6.34Z"/><polygon class="cls-6" points="105.11 153.5 110.35 145.77 96 140.91 90.17 146.79 105.11 153.5"/><polygon class="cls-6" points="114.18 242.56 116.09 242.35 115.31 236.41 109.29 238.94 114.18 242.56"/><path class="cls-6" d="M90.78,155.16l11.89,16.38L103,179c3.48-.28,2.53,3.34,4.61,3.92a3.79,3.79,0,0,1,.7.26l-3.57-27-15.47-7.6,1.46,6.64Z"/><path class="cls-6" d="M173.89,193.43l-.42-15.68-10,5.9L167,200.31l.17.17Z"/><polygon class="cls-6" points="198.34 138.19 190.89 132.54 175.58 140.35 182.67 148.16 198.34 138.19"/><polygon class="cls-6" points="183.81 184.18 186.2 185.33 190.5 163.83 197.96 162.3 199.66 140.02 183.53 151.07 183.81 184.18"/><polygon class="cls-6" points="140.34 152.22 135.22 158.41 150.46 164 154.83 156.02 140.34 152.22"/><path class="cls-6" d="M134.48,160.21l5.31,16.49a6.16,6.16,0,0,0,3.9-1.64c3.54-3.58,5.92-3.73,8-2.67l-1.34-5.76Z"/><path class="cls-6" d="M156.17,191.83a4.73,4.73,0,0,1-2.61,1.71l2.05,6.25a6.74,6.74,0,0,1,2.12-1.21Z"/><path class="cls-6" d="M16.47,198.79c-3-4.48.24-4.5,2.76-5.27a5.5,5.5,0,0,1,3.49.11l1.07-13.16-13-.46-3,24.34,8.33-1.26C16.53,201.7,17.52,200.36,16.47,198.79Z"/><polygon class="cls-6" points="105.45 239.43 105.97 252.07 113.63 256.68 119.89 250.11 105.45 239.43"/><path class="cls-6" d="M27.76,196.25c4,2.4,2.63,3.66,2.2,6-.38,2.11,2.19,3.28,2.36,5.4l10.15,6.11-1.79-9.41,9.08-6.12L26.45,181l-1.13,13.79C26.06,195.23,26.85,195.7,27.76,196.25Z"/><polygon class="cls-6" points="66.84 169.71 78.5 180.94 98.44 170.43 89.89 158.84 66.84 169.71"/><path class="cls-6" d="M103.64,267.16l-1.54-37.58-9.35-3.66,3-16.06a6.64,6.64,0,0,1-3.35.85c-3.38,0-7.23-3.67-7.3-7.33S88,198.05,88,196.47s-2.25-3.08-1.88-5.19c.82-4.59,5.56-1,7.16-3.15,2.39-3.17,4.74-.71,7.15,1.32l-.68-16.39L79.57,183.72l16,113.3,9.34.55-1.16-28.23-1-1.19Z"/><polygon class="cls-6" points="62.81 192.49 44.15 205.1 54.16 213.86 70.27 201.94 62.81 192.49"/><polygon class="cls-6" points="71.47 204.15 55.14 216.24 72.19 316.77 79.93 316.14 71.47 204.15"/><polygon class="cls-6" points="193.44 165.81 199.43 177.74 218.81 172.86 215.45 161.27 193.44 165.81"/><polygon class="cls-6" points="177.72 267.29 179.36 259.84 174.68 258 177.72 267.29"/><polygon class="cls-6" points="188.54 186.47 194.87 189.53 197.16 179.12 192.06 168.94 188.54 186.47"/><path class="cls-6" d="M183.59,225.91l-3.56,3-.44,2.22,5.46,2.94,2-9.27A20,20,0,0,1,183.59,225.91Z"/><path class="cls-6" d="M201.56,205.58,201,200c-1.94-2.1-5.29-3.6-4.83-6.9l-11.95-5.55-.76,11.73Z"/><polygon class="cls-6" points="147.22 253.27 143.97 245.98 140.01 244.42 110.99 273.72 115.99 279.47 147.22 253.27"/><path class="cls-6" d="M172.58,227.34l3.38,1.82,2.87-2.41C176.86,227,174.74,227.2,172.58,227.34Z"/><path class="cls-6" d="M177.17,209.71c3,1,10.52,1.66,12.43,8L201.15,208l-19.21-5.93-6.69,6.75A10.17,10.17,0,0,0,177.17,209.71Z"/><path class="cls-7" d="M115,162.44l1.17,10.34,2.2-.57c0-.14,0-.29,0-.44.29-3,2.24-4.74,3.26-6.16-.57-.4-1.14-.81-1.72-1.19A16.85,16.85,0,0,0,115,162.44Z"/><path class="cls-7" d="M220.41,182.12c-.32,0-.65.13-1,.21l-.43,1.35a33.85,33.85,0,0,1,4.09,3.27c2.3,1.86,2.88,3.91,2.62,6.88l15.14-.09.75,8.61,6-6.41c-2.39-2.58-4.51-5.1-7.84-6.5a13,13,0,0,0-2.26-.73c-.38-.09-.77-.17-1.18-.23a12.47,12.47,0,0,1-4.68-1.79c-1.74-1-3.31-2.3-5-3.26A9.17,9.17,0,0,0,220.41,182.12Z"/><path class="cls-7" d="M159,162.94l3.8,17.82,4-2.34a2.16,2.16,0,0,0-.14-.74c-.63-1.43-3.39-1.83-2.33-4.2s4.17-.63,5.67-2.25,2.38-1.61,3.24-1.2l-.22-8.49c-1.5-.08-3-.07-4.57,0s-3,.08-4.37.08a6.41,6.41,0,0,0-1,.09,15.44,15.44,0,0,0-3,.84C159.76,162.64,159.4,162.78,159,162.94Z"/><path class="cls-7" d="M103.34,188l.14,3.37a2.7,2.7,0,0,0,2.48-.56c5.64-4.47,9,.9,9.41,4.35a6.09,6.09,0,0,1,0,1.41l8.69,4.68-4.51-10.12.89-5.91c-1.58-.08-3.2-.09-4.83,0a42.14,42.14,0,0,0-5,.51c-.63.11-1.27.2-1.89.33A31.49,31.49,0,0,0,103.34,188Z"/><path class="cls-7" d="M52.12,196.68l11.3-7.62,3.32,4.27L65,182.46a22.39,22.39,0,0,0-6.45.71c-4.05,1.09-6.71,4-9.13,6.93-.79,1-1.56,1.93-2.34,2.84Z"/><path class="cls-7" d="M161.38,198a13.88,13.88,0,0,0-1.79.12,9.13,9.13,0,0,0-1.86.42,6.74,6.74,0,0,0-2.12,1.21l7.32,22.36,9.65,5.19c2.16-.14,4.28-.33,6.25-.59,1.72-.23,3.33-.5,4.76-.84a20,20,0,0,0,3.5-1.13c1.79-.79,2.9-1.78,3-3a11.6,11.6,0,0,0-.45-4c-1.91-6.35-9.39-7-12.43-8a10.17,10.17,0,0,1-1.92-.86,12.73,12.73,0,0,1-2-1.44,41.88,41.88,0,0,1-4.4-5.09,19.85,19.85,0,0,0-1.68-1.84l-.17-.17a9.09,9.09,0,0,0-2.32-1.56A7.68,7.68,0,0,0,161.38,198Z"/><polygon class="cls-6" points="238.28 196.49 213.98 196.64 217.95 210.61 239.53 209.53 238.28 196.49"/><polygon class="cls-6" points="211.88 199.68 195.66 239.76 201.82 243.08 215.27 211.59 211.88 199.68"/><polygon class="cls-6" points="170.25 302.55 166.97 310.64 171.81 313.33 177.35 300.36 170.25 302.55"/><polygon class="cls-6" points="192.47 264.97 186.42 262.6 180.76 276.57 183.69 285.52 192.47 264.97"/><polygon class="cls-6" points="122.36 189.37 142.36 194.76 146.8 182.99 124.22 177.87 122.36 189.37"/><polygon class="cls-6" points="148.59 186.16 144.8 196.19 151.73 216.12 159.85 220.49 148.59 186.16"/><polygon class="cls-6" points="171.78 256.87 164.97 254.2 179.76 296.75 184.4 295.32 171.78 256.87"/><polygon class="cls-6" points="96.36 223.28 109 219.25 110.39 199 99.62 204.3 96.36 223.28"/><path class="cls-8" d="M167.06,140.69l-20.28,4-1.42,6.59,11.83,2.91,1.85,8.71c.36-.16.72-.3,1.07-.43Z"/><polygon class="cls-8" points="128.76 240.02 126.41 239.1 125.25 244.49 128.98 240.57 128.76 240.02"/><path class="cls-8" d="M115,162.44a16.85,16.85,0,0,1,4.9,2c.58.38,1.15.79,1.72,1.19a2.87,2.87,0,0,0,.61-1.28c.2-1.69-1.94-3.27-1.29-5.54a3.68,3.68,0,0,1,1.54-2.29l-8.71-24.83-20.45-5.12,5.93,13.19,13.67,4.39Z"/><path class="cls-8" d="M221.89,174.67l-1.91,6,.43,1.48a9.17,9.17,0,0,1,6.26,1.31l-12.25-45.31-8.71-6.39,8,27.34,3.63-.74Z"/><polygon class="cls-8" points="225.74 260.99 226.53 259.05 224.66 260.62 225.74 260.99"/><path class="cls-8" d="M247.63,195.94l4.26-4.52a5.93,5.93,0,0,0-.15-2.42c-.92-2.56-5.28-3.45-3.44-7.55s6.67-.82,9.14-3.58a7.26,7.26,0,0,1,2.84-2.17L267.87,157l-19.59,4.61-8.49,27.87C243.12,190.84,245.24,193.36,247.63,195.94Z"/><polygon class="cls-8" points="292.44 200.13 279.05 200.67 221.4 250.9 212.8 266.74 292.44 200.13"/><path class="cls-8" d="M58.24,166.72a4.79,4.79,0,0,1,1.91-1.49l6.05-19.54-3.27-7.79-8.22,28.3.9,1.34A3,3,0,0,0,58.24,166.72Z"/><polygon class="cls-8" points="37.47 225.57 37 227.19 40.74 228.05 40.9 227.54 37.47 225.57"/><path class="cls-8" d="M47.06,192.94c.78-.91,1.55-1.87,2.34-2.84L34.6,171.57l-9.78-1.93,14.63,17.68Z"/><polygon class="cls-8" points="141.37 261.32 149.83 282.4 158.28 282.97 148.21 255.58 141.37 261.32"/><polygon class="cls-8" points="118.03 242.15 122.03 241.72 121.51 237.18 117.34 235.55 117.17 235.62 118.03 242.15"/><path class="cls-8" d="M115.58,185.16l-4.22-37.09-4.75,7.5,4,30.1A42.14,42.14,0,0,1,115.58,185.16Z"/><polygon class="cls-8" points="105.14 231.75 105.23 234.01 108.04 236.54 113.73 234.13 106.3 231.22 105.14 231.75"/><polygon class="cls-8" points="176.08 191.13 181.61 185.33 181.31 150.73 174.82 143.09 176.08 191.13"/><path class="cls-8" d="M154,174.08c.65.57,1.31,1.17,2,1.73,3.5,2.83,3,6.06,1.64,12.43-.06.26-.13.5-.19.74l2.12,9.18a13.88,13.88,0,0,1,1.79-.12,7.68,7.68,0,0,1,3.3.71L156,158.22l-3.9,7.71Z"/><polygon class="cls-8" points="106.1 255.3 106.38 262.12 107.71 262.89 111.72 258.69 106.1 255.3"/><path class="cls-8" d="M44.91,226.69l-1.77-9.32-16.31-9.83a6.34,6.34,0,0,0-1.78-.6c-2.6-.37-4.64,2.25-7.87-.57-.18-.16-.33-.31-.47-.46l-6.22.93Z"/><polygon class="cls-8" points="76.51 183.04 66.55 173.45 70.56 198.25 73.8 202.43 76.04 232.18 86.44 296.47 92.56 296.84 76.51 183.04"/><polygon class="cls-8" points="52.59 215.99 44.04 208.53 64.65 317.38 69.72 316.97 52.59 215.99"/><polygon class="cls-8" points="179.23 271.91 179.45 272.58 183.89 261.61 181.69 260.75 179.23 271.91"/><path class="cls-8" d="M199.44,180.31l-2.25,10.19c3.05-4.62,10-.65,13.57-4.3,2.42-2.44,4.29-3.27,5.89-3.23l2.44-7.6Z"/><path class="cls-8" d="M190.69,220l-3.38,15.32,5.93,3.19L204,211.76a1.9,1.9,0,0,1-2-1.32Z"/><path class="cls-8" d="M173.25,207.41l7.4-7.47,1-11.08-12.84,13.46A41.88,41.88,0,0,0,173.25,207.41Z"/><polygon class="cls-8" points="137.54 243.46 131.77 241.2 106.11 268.1 109.39 271.87 137.54 243.46"/><polygon class="cls-8" points="239.33 212.26 217.44 213.35 204.2 244.35 217.47 251.5 205.53 270.08 194.97 265.95 184.96 289.39 187.53 297.23 180.71 299.33 174.17 314.64 181.56 318.74 239.33 212.26"/><polygon class="cls-8" points="142.68 197.33 122.41 191.86 127.38 203.01 148.64 214.45 142.68 197.33"/><polygon class="cls-8" points="177.5 297.44 162.06 253.06 147.06 247.18 170.41 299.62 177.5 297.44"/><polygon class="cls-8" points="204.48 266.77 207.52 262.04 110.53 221.71 98.49 225.2 204.48 266.77"/><polygon class="cls-8" points="113.11 198.4 112.44 219.57 209 259.73 213.64 252.5 113.11 198.4"/><path class="cls-9" d="M223.33,221.93c-28.34-.51-60.87-.79-78.35-.79h-.55c-17.51,0-50,.28-78.34.79-24.56.44-50,1-53.36,2.18-.28.34-1.58,2.46.06,11.31h.32a3.7,3.7,0,0,1,3.64,3.16L36.91,355.7a3.68,3.68,0,0,0,3.64,3.16H248.86a3.68,3.68,0,0,0,3.64-3.16l20.16-117.12a3.7,3.7,0,0,1,3.64-3.16h.33c1.63-8.86.33-11,.05-11.31C273.33,223,247.89,222.37,223.33,221.93Z"/><path class="cls-3" d="M248.86,366.56H40.55A11.32,11.32,0,0,1,29.31,357L9.72,243.13H6.37l-1.16-6.31c-1.65-8.9-1.15-14.34,1.6-17.65l1.4-1.67,2.07-.7c3.27-1.1,12.78-1.8,55.67-2.58,28.54-.51,61.08-.78,78.48-.79H145c17.37,0,49.9.28,78.48.79h0c42.88.78,52.39,1.48,55.66,2.58l2.07.7,1.4,1.67c2.75,3.31,3.25,8.75,1.6,17.65L283,243.13H279.7L260.1,356.94A11.32,11.32,0,0,1,248.86,366.56ZM44,351.15H245.46l19.59-113.81a11.4,11.4,0,0,1,3.36-6.41c-11.82-.69-36-1.13-45.22-1.3h0c-28.49-.51-60.91-.78-78.21-.79h-.55c-17.32,0-49.75.28-78.21.79-9.2.17-33.4.61-45.21,1.3a11.45,11.45,0,0,1,3.35,6.4Z"/><path class="cls-10" d="M223.33,221.93c-28.34-.51-60.87-.79-78.35-.79h-.55c-17.51,0-50,.28-78.34.79-24.56.44-50,1-53.36,2.18-.28.34-1.58,2.46.06,11.31h.32a3.7,3.7,0,0,1,3.64,3.16L36.91,355.7a3.68,3.68,0,0,0,3.64,3.16H248.86a3.68,3.68,0,0,0,3.64-3.16l20.16-117.12a3.7,3.7,0,0,1,3.64-3.16h.33c1.63-8.86.33-11,.05-11.31C273.33,223,247.89,222.37,223.33,221.93Z"/><g class="cls-11"><path class="cls-10" d="M146,234.84h-2.63c-45,.11-88.81,1.07-118.89,2.48,0,0,12.62,78.56,43.14,90.77,14.64,5.86,46.12,8.17,77.07,7.88,30.94.29,62.42-2,77.07-7.88,30.51-12.21,43.13-90.77,43.13-90.77C234.83,235.91,191,235,146,234.84Z"/></g><path d="M84.69,261.2c4,.9,8.12,5.06,13.06,5.06a8.34,8.34,0,0,0,3.26-.63c-.39,3.76-1.94,6.16-4,6.16-5.56,0-10.45-8.9-17.32-8.9a6.7,6.7,0,0,0-.9,0l5.79-27.16a8.67,8.67,0,0,0-5.44,8.54,5.46,5.46,0,0,0,.55,2.67c-2.68,0-4.16-1-4.16-3.8C75.49,238,82.64,233,89.12,233c.55,0,1,0,1.56.08Z"/><path class="cls-3" d="M97,277.91c-4.79,0-8.39-2.89-11.56-5.44-2-1.62-4.3-3.45-5.76-3.45h-.23a6.12,6.12,0,0,1-6.66-7.37l2-9.5c-3.4-1.5-5.42-4.7-5.42-9,0-7.71,8.45-16.32,19.76-16.32.75,0,1.41,0,1.94.09a6.22,6.22,0,0,1,4.48,2.44,6.15,6.15,0,0,1,1.13,5l-4.93,23.21,1,.53c1.82,1,3.7,2.05,5,2.05a2.28,2.28,0,0,0,.9-.15,6.12,6.12,0,0,1,8.45,6.28C106.22,274.86,101.09,277.91,97,277.91Z"/><path d="M108.62,242.39l-2.8,13.32a6,6,0,0,0-.15,1.26c0,1.1.5,1.45,1.59,1.45a1.9,1.9,0,0,0,.85-.16c-1,2.75-1.78,4-3.88,4s-3.49-1.37-3.81-3.64c-1.16,1.8-3,3.64-5.78,3.64s-5.17-1.65-5.17-6.31c0-5.29,3.23-13.71,10-13.71,2.21,0,3.14.86,3.14,2v.27l.43-2.08Zm-13.4,13c0,3,1.24,3.06,1.94,3.06,1.13,0,2.76-1.18,3.22-3.45l1.87-8.85a1.51,1.51,0,0,0-1.59-1.49C97.36,244.63,95.22,251.68,95.22,255.36Z"/><path class="cls-3" d="M104.23,268.35a10,10,0,0,1-4.61-1.08,11.89,11.89,0,0,1-5,1.08c-7.76,0-11.3-6.45-11.3-12.44,0-8,5.12-19.84,16.12-19.84a12.58,12.58,0,0,1,2.62.26,7.45,7.45,0,0,1,1-.07h5.59a6.13,6.13,0,0,1,6,7.39l-2.16,10.29a6.14,6.14,0,0,1,1.38,6.51C112.94,262.81,110.83,268.35,104.23,268.35Z"/><path d="M46.63,254.62l-6.88,32.63c9.78-.78,17-13.58,17-24,0-7.23-3.49-13.29-12-13.29-15.69,0-25.08,8.89-25.08,23.74,0,5,1.26,5.77,1.36,6.64-6.68,0-10.36-2.44-10.36-9.47,0-13,17.81-25.4,34-25.4,15.88,0,22.85,9.18,22.85,19.24,0,12.41-10.55,26.19-28,26.19H39l-5.9,27.84H19.13l13.16-62.14Z"/><path class="cls-3" d="M33.07,324.84H19.13a6.14,6.14,0,0,1-6-7.4l6.58-31c-13.22-.56-15.23-9.93-15.23-15.58,0-17.47,21.94-31.53,40.11-31.53,9,0,16.43,2.61,21.61,7.54a24.31,24.31,0,0,1,7.37,17.83c0,14.39-11.19,29.84-29.57,32.05L39.07,320A6.15,6.15,0,0,1,33.07,324.84Zm-6.38-12.26H28.1l4.88-23a5.94,5.94,0,0,1,.67-1.76,6,6,0,0,1,.1-1.84l5.09-24.12-1.44.19Z"/><path d="M93.9,286.21a2.21,2.21,0,0,0,1,.18c4.24,0,10.22-2.79,14.18-5.57l.83,2.51c-3.5,3.81-9.58,6.59-16.3,7.7-1.47,17.19-10.67,28-22,28-8.56,0-14.73-4.08-14.73-14.67s6.26-33,25.22-33C90,271.35,93.9,276.45,93.9,286.21ZM86,291.32c-1.93-.47-2.48-2.05-2.48-3.91,0-2.6,1.19-4.27,2.85-5-.18-3.9-1.1-5.39-3.5-5.39-6.53,0-12.24,17-12.24,26.1,0,6.13,1.19,7.53,4.69,7.53C79.82,310.64,84.51,302.27,86,291.32Z"/><path class="cls-3" d="M71.62,325.12c-13.06,0-20.86-7.77-20.86-20.8a50.46,50.46,0,0,1,6.31-23.53c5.72-10,14.61-15.57,25-15.57,4.63,0,14.52,1.5,17.22,13.93a31.26,31.26,0,0,0,6.23-3.34,6.12,6.12,0,0,1,9.35,3.09l.83,2.51a6.15,6.15,0,0,1-1.31,6.06c-3.53,3.85-9,6.88-15.27,8.62C96.24,313.64,85.55,325.12,71.62,325.12Zm-4.15-37.8a41.29,41.29,0,0,0-4.45,17c0,3.88.9,6.24,3.1,7.47-1.64-3.12-1.64-6.88-1.64-8.68A51.92,51.92,0,0,1,67.47,287.32Zm11.11,5.41a39.24,39.24,0,0,0-1.77,8.65,32.83,32.83,0,0,0,2.5-7.47A9.34,9.34,0,0,1,78.58,292.73Z"/><path d="M140.85,272.18l-6.63,31.58a12.85,12.85,0,0,0-.37,3c0,2.6,1.2,3.43,3.78,3.43,3.59,0,6.07-3.53,7.45-8.17H149c-5.25,15.14-13.53,17.18-18.5,17.18-5.25,0-8.57-3.06-9.12-8.82-4.6,7.61-9.75,8.82-13.62,8.82-5.52,0-9.85-3.34-9.85-11.15a30.59,30.59,0,0,1,.73-6l6.26-29.82h13.26l-6.63,31.58a13.44,13.44,0,0,0-.27,2.6c0,2.14.73,3.81,2.76,3.81,3.59,0,6-3.53,7.36-8.17l6.26-29.82Z"/><path class="cls-3" d="M130.45,325.31a14.86,14.86,0,0,1-10.64-4,19.58,19.58,0,0,1-12.1,4c-9.71,0-16-6.78-16-17.28a36.29,36.29,0,0,1,.86-7.27l6.26-29.84a6.13,6.13,0,0,1,6-4.87h13.26a6.11,6.11,0,0,1,4.74,2.24,6.14,6.14,0,0,1,4.74-2.24h13.26a6.12,6.12,0,0,1,6,7.39L142,296.72a6.16,6.16,0,0,1,3.12-.85H149a6.14,6.14,0,0,1,5.79,8.14C148.64,321.61,138.16,325.31,130.45,325.31Zm-20.62-47-5.24,24.95A24.8,24.8,0,0,0,104,308c0,4.42,1.73,5,3.16,5a10.54,10.54,0,0,1-2.07-6.68,19.75,19.75,0,0,1,.39-3.79l5.09-24.26Zm16.37,28.31a6.28,6.28,0,0,1,1.24,3.15c.26,2.73,1.21,3.19,2.32,3.27a10.07,10.07,0,0,1-2-6.3,19.28,19.28,0,0,1,.51-4.29l5.07-24.14h-.73l-5.24,24.95a4.37,4.37,0,0,1-.12.49A29.77,29.77,0,0,1,126.2,306.62Z"/><path d="M167.73,257.5l-3.13,14.68h5.52l-.74,3.72h-5.52L158,303.76a12.85,12.85,0,0,0-.37,3c0,2.6,1.2,3.43,3.77,3.43,3.6,0,6.91-3.53,8.29-8.17h3.87c-5.25,15.14-14.36,17.18-19.33,17.18-5.53,0-9.85-3.34-9.85-11.15a30.59,30.59,0,0,1,.73-6l5.53-26.1h-3l.73-3.72h3l2.76-12.82Z"/><path class="cls-3" d="M154.2,325.31c-9.71,0-16-6.78-16-17.28a36.14,36.14,0,0,1,.86-7.28l4.31-20.37a6.28,6.28,0,0,1-.56-.59,6.17,6.17,0,0,1-1.28-5.08l.74-3.72a6.11,6.11,0,0,1,4-4.61l1.79-8.31a6.14,6.14,0,0,1,5.17-4.78l13.62-1.86a6.12,6.12,0,0,1,6.82,7.35l-1.62,7.6a6.12,6.12,0,0,1,4,7l-.73,3.72a6.14,6.14,0,0,1-6,4.94h-.55l-3.26,15.4a6.14,6.14,0,0,1,4.09-1.56h3.87a6.14,6.14,0,0,1,5.79,8.14C172.89,322.54,160.82,325.31,154.2,325.31Zm2.49-50.14a6.13,6.13,0,0,1-.08,2l-5.53,26.1a24.44,24.44,0,0,0-.6,4.76c0,4.29,1.63,4.92,3,5a10,10,0,0,1-2-6.3,18.41,18.41,0,0,1,.52-4.3l5.88-27.81a6.11,6.11,0,0,1,.64-1.72,6.18,6.18,0,0,1,.09-2l1.31-6.14-.72.09-1.86,8.62A6.21,6.21,0,0,1,156.69,275.17Z"/><path d="M189.18,272.18l-6.63,31.58a12.85,12.85,0,0,0-.37,3c0,2.6,1.2,3.43,3.77,3.43,3.59,0,6.91-3.53,8.29-8.17h3.86c-5.24,15.14-14.36,17.18-19.32,17.18-5.53,0-9.86-3.34-9.86-11.15a30.67,30.67,0,0,1,.74-6l6.26-29.82ZM185,252.39a7.42,7.42,0,0,1,7.36,7.44,7.33,7.33,0,0,1-7.36,7.33,7.26,7.26,0,0,1-7.28-7.33A7.35,7.35,0,0,1,185,252.39Z"/><path class="cls-3" d="M178.78,325.31c-9.71,0-16-6.78-16-17.28a36.31,36.31,0,0,1,.87-7.28l6.26-29.83a6.15,6.15,0,0,1,3.52-4.35A13.55,13.55,0,0,1,185,246.26a13.53,13.53,0,0,1,9.56,23.06,6.17,6.17,0,0,1,.58,4.12l-5,24a6.09,6.09,0,0,1,4.1-1.58h3.86a6.14,6.14,0,0,1,5.8,8.14C197.47,322.54,185.4,325.31,178.78,325.31Zm2.12-47-5.24,24.95a24.75,24.75,0,0,0-.61,4.77c0,4.29,1.63,4.92,3,5a10,10,0,0,1-2-6.3,18.84,18.84,0,0,1,.51-4.29l5.07-24.14ZM185,258.52a1.22,1.22,0,0,0-1.15,1.31A1.13,1.13,0,0,0,185,261a1.2,1.2,0,0,0,1.23-1.2A1.29,1.29,0,0,0,185,258.52Z"/><path d="M217.43,280.26c-3.31,0-5.8,3.9-7.18,8.55L204,318.62H190.74l9.76-46.44h13.25l-1,4.83c3.87-4.46,7.91-5.2,10.77-5.2,5.89,0,10.22,3.06,10.22,10.49s-4.42,18.77-4.42,24c0,2.32.92,3.9,3.68,3.9,4,0,5.71-3.34,7.73-8.17h3.87c-5.16,15.23-12.24,17.18-17.12,17.18-8,0-10.86-5.2-10.86-10.49,0-6.32,4.14-17.75,4.14-23.69C220.75,281.93,219.64,280.26,217.43,280.26Z"/><path class="cls-3" d="M227.47,325.31c-8.2,0-14.23-4.35-16.26-11.25L210,319.88a6.12,6.12,0,0,1-6,4.87H190.74a6.12,6.12,0,0,1-6-7.39l9.76-46.44a6.13,6.13,0,0,1,6-4.87h13.25a6.15,6.15,0,0,1,3,.79,19.58,19.58,0,0,1,6.75-1.16c9.93,0,16.35,6.52,16.35,16.62,0,4.54-1.25,9.79-2.44,14.54a6.1,6.1,0,0,1,3.3-1h3.87A6.14,6.14,0,0,1,250.4,304C245.6,318.13,237.89,325.31,227.47,325.31Zm-4.16-21.2a26.76,26.76,0,0,0-.58,4.58c0,2.6.93,3.71,2.53,4.14a10.48,10.48,0,0,1-2.08-6.56A20.47,20.47,0,0,1,223.31,304.11Zm-25,8.39H199l5.23-24.95c0-.17.08-.33.13-.49a25.9,25.9,0,0,1,3.1-6.9,6.16,6.16,0,0,1-.73-1.85h-1.28ZM225,278a12.12,12.12,0,0,1,1.9,7,34.47,34.47,0,0,1-.73,6.33,42.77,42.77,0,0,0,1.45-9C227.6,279.51,227,278.35,225,278Z"/><path d="M258.77,310.36c3.49,0,7.91-2.33,10.86-4.93-1.93,10.59-8.56,13.75-15.93,13.75-8.56,0-14.27-4.27-14.27-14.77,0-10.68,6-33.06,24.86-33.06,8.19,0,10.12,4.27,10.12,8.91,0,10.77-10.12,18.95-21.17,19.6-.09.93-.18,1.95-.18,2.79C253.06,308.5,255.54,310.36,258.77,310.36ZM265,276.27c-4.61,0-9.21,10.31-11.14,19.13,7.18-.37,13.43-7.52,13.43-15.33C267.32,277.75,266.78,276.27,265,276.27Z"/><path class="cls-3" d="M253.7,325.31c-12.77,0-20.4-7.81-20.4-20.9,0-16.27,9.62-39.19,31-39.19,10.18,0,16.25,5.62,16.25,15a24.64,24.64,0,0,1-9.61,19.18,6.16,6.16,0,0,1,4.73,7.09C273.45,318.64,265.65,325.31,253.7,325.31Zm-4.21-37.08a42.39,42.39,0,0,0-3.93,16.18c0,4.75,1.25,7.25,4.41,8.19-1.84-2.2-3-5.43-3-10,0-1.14.11-2.35.21-3.4a6.15,6.15,0,0,1,.79-2.44,6.09,6.09,0,0,1,0-2.72C248.33,292.12,248.87,290.14,249.49,288.23Z"/><path d="M178.56,345.87l8.15-24h5.09v24l8.35-24h2.72l-10.8,29.19h-5.75V331.14l-7.69,19.94h-5.71V324.32c-4.23,1.33-6.29,4.39-6.29,8.7a5.61,5.61,0,0,0,.54,2.66c-2.67,0-4.15-1-4.15-3.8,0-5.21,7.15-10.19,13.63-10.19.55,0,1,0,1.56.08Z"/><path class="cls-3" d="M192.07,357.21h-5.75a6.14,6.14,0,0,1-3.84-1.35,6.19,6.19,0,0,1-3.85,1.35h-5.71a6.13,6.13,0,0,1-6.13-6.13v-9.27c-6-.16-9.9-4-9.9-9.93,0-7.7,8.45-16.32,19.76-16.32.75,0,1.42.05,2,.09a6.24,6.24,0,0,1,3.89,1.78,6.15,6.15,0,0,1,4.21-1.67h5.09A6.09,6.09,0,0,1,196,317.4a6.14,6.14,0,0,1,4.18-1.64h2.72a6.13,6.13,0,0,1,5.75,8.26l-10.8,29.19A6.13,6.13,0,0,1,192.07,357.21Z"/><path d="M205.94,348c3.06,0,4.93-1.73,6.87-4h1.32c-2.21,3.61-5.51,7.25-10.68,7.25-3.65,0-6.06-1.81-6.06-6.23s2.53-13.95,10.49-13.95c3.46,0,4.27,1.8,4.27,3.76,0,4.51-4.27,8-8.93,8.27,0,.55-.08,1.1-.08,1.57C203.14,347.4,204.08,348,205.94,348Zm2.25-14.81c-2,0-3.88,4.19-4.66,8.07,3-.2,5.63-3.22,5.63-6.47C209.16,333.84,208.93,333.22,208.19,333.22Z"/><path class="cls-3" d="M203.45,357.45c-7.4,0-12.19-4.85-12.19-12.36,0-8.34,5.16-20.08,16.62-20.08,6.22,0,10.4,4,10.4,9.89a13.23,13.23,0,0,1-.66,4.13,6,6,0,0,1,1.86,2.05,6.12,6.12,0,0,1-.12,6.2C215.21,354,209.86,357.45,203.45,357.45Z"/><path d="M220.85,348c3.07,0,4.93-1.73,6.88-4h1.32c-2.22,3.61-5.52,7.25-10.68,7.25-3.66,0-6.06-1.81-6.06-6.23s2.52-13.95,10.48-13.95c3.46,0,4.27,1.8,4.27,3.76,0,4.51-4.27,8-8.93,8.27,0,.55-.07,1.1-.07,1.57C218.06,347.4,219,348,220.85,348Zm2.25-14.81c-2,0-3.88,4.19-4.66,8.07,3-.2,5.63-3.22,5.63-6.47C224.07,333.84,223.84,333.22,223.1,333.22Z"/><path class="cls-3" d="M218.37,357.45c-7.41,0-12.19-4.85-12.19-12.36,0-8.34,5.15-20.08,16.61-20.08,6.22,0,10.4,4,10.4,9.89a13.23,13.23,0,0,1-.66,4.13,6.12,6.12,0,0,1,1.74,8.25C230.12,354,224.77,357.45,218.37,357.45Z"/><path d="M246.05,331.49l-7.76,5.45a6.89,6.89,0,0,1,1.28-.16c2.87,0,4.27,2.08,4.27,4.59a7,7,0,0,1-.15,1.48l-.43,2a6.5,6.5,0,0,0-.2,1.26c0,.78.32,1.45,1.52,1.45a2.47,2.47,0,0,0,1.36-.24,4.3,4.3,0,0,1-3.61,4c-3.19,0-4.9-1.61-4.9-4.47a9.78,9.78,0,0,1,.24-2l.31-1.53a6.85,6.85,0,0,0,.15-1.44c0-1.14-.39-1.88-1.4-1.88a4.82,4.82,0,0,0-2.87,1.45l-2,9.67h-5.59l5.63-26.64,5.75-.79-2.91,13.8,7.49-6Z"/><path class="cls-3" d="M242.33,357.45a11.86,11.86,0,0,1-6.44-1.77,6.11,6.11,0,0,1-4,1.53h-5.59a6.13,6.13,0,0,1-6-7.39l5.63-26.65a6.14,6.14,0,0,1,5.17-4.81l5.74-.78a6.13,6.13,0,0,1,6.83,7.34l-.09.44h2.52a6.13,6.13,0,0,1,3.52,11.15l-.47.33a11.83,11.83,0,0,1,.87,4.53c0,.42,0,.84-.06,1.25a6.09,6.09,0,0,1,2.14,5.09C251.65,353.54,246.7,357.45,242.33,357.45Z"/><path d="M84.69,261.2c4,.9,8.12,5.06,13.06,5.06a8.34,8.34,0,0,0,3.26-.63c-.39,3.76-1.94,6.16-4,6.16-5.56,0-10.45-8.9-17.32-8.9a6.7,6.7,0,0,0-.9,0l5.79-27.16a8.67,8.67,0,0,0-5.44,8.54,5.46,5.46,0,0,0,.55,2.67c-2.68,0-4.16-1-4.16-3.8C75.49,238,82.64,233,89.12,233c.55,0,1,0,1.56.08Z"/><path d="M108.62,242.39l-2.8,13.32a6,6,0,0,0-.15,1.26c0,1.1.5,1.45,1.59,1.45a1.9,1.9,0,0,0,.85-.16c-1,2.75-1.78,4-3.88,4s-3.49-1.37-3.81-3.64c-1.16,1.8-3,3.64-5.78,3.64s-5.17-1.65-5.17-6.31c0-5.29,3.23-13.71,10-13.71,2.21,0,3.14.86,3.14,2v.27l.43-2.08Zm-13.4,13c0,3,1.24,3.06,1.94,3.06,1.13,0,2.76-1.18,3.22-3.45l1.87-8.85a1.51,1.51,0,0,0-1.59-1.49C97.36,244.63,95.22,251.68,95.22,255.36Z"/><path d="M46.63,254.62l-6.88,32.63c9.78-.78,17-13.58,17-24,0-7.23-3.49-13.29-12-13.29-15.69,0-25.08,8.89-25.08,23.74,0,5,1.26,5.77,1.36,6.64-6.68,0-10.36-2.44-10.36-9.47,0-13,17.81-25.4,34-25.4,15.88,0,22.85,9.18,22.85,19.24,0,12.41-10.55,26.19-28,26.19H39l-5.9,27.84H19.13l13.16-62.14Z"/><path d="M93.9,286.21a2.21,2.21,0,0,0,1,.18c4.24,0,10.22-2.79,14.18-5.57l.83,2.51c-3.5,3.81-9.58,6.59-16.3,7.7-1.47,17.19-10.67,28-22,28-8.56,0-14.73-4.08-14.73-14.67s6.26-33,25.22-33C90,271.35,93.9,276.45,93.9,286.21ZM86,291.32c-1.93-.47-2.48-2.05-2.48-3.91,0-2.6,1.19-4.27,2.85-5-.18-3.9-1.1-5.39-3.5-5.39-6.53,0-12.24,17-12.24,26.1,0,6.13,1.19,7.53,4.69,7.53C79.82,310.64,84.51,302.27,86,291.32Z"/><path d="M140.85,272.18l-6.63,31.58a12.85,12.85,0,0,0-.37,3c0,2.6,1.2,3.43,3.78,3.43,3.59,0,6.07-3.53,7.45-8.17H149c-5.25,15.14-13.53,17.18-18.5,17.18-5.25,0-8.57-3.06-9.12-8.82-4.6,7.61-9.75,8.82-13.62,8.82-5.52,0-9.85-3.34-9.85-11.15a30.59,30.59,0,0,1,.73-6l6.26-29.82h13.26l-6.63,31.58a13.44,13.44,0,0,0-.27,2.6c0,2.14.73,3.81,2.76,3.81,3.59,0,6-3.53,7.36-8.17l6.26-29.82Z"/><path d="M167.73,257.5l-3.13,14.68h5.52l-.74,3.72h-5.52L158,303.76a12.85,12.85,0,0,0-.37,3c0,2.6,1.2,3.43,3.77,3.43,3.6,0,6.91-3.53,8.29-8.17h3.87c-5.25,15.14-14.36,17.18-19.33,17.18-5.53,0-9.85-3.34-9.85-11.15a30.59,30.59,0,0,1,.73-6l5.53-26.1h-3l.73-3.72h3l2.76-12.82Z"/><path d="M189.18,272.18l-6.63,31.58a12.85,12.85,0,0,0-.37,3c0,2.6,1.2,3.43,3.77,3.43,3.59,0,6.91-3.53,8.29-8.17h3.86c-5.24,15.14-14.36,17.18-19.32,17.18-5.53,0-9.86-3.34-9.86-11.15a30.67,30.67,0,0,1,.74-6l6.26-29.82ZM185,252.39a7.42,7.42,0,0,1,7.36,7.44,7.33,7.33,0,0,1-7.36,7.33,7.26,7.26,0,0,1-7.28-7.33A7.35,7.35,0,0,1,185,252.39Z"/><path d="M217.43,280.26c-3.31,0-5.8,3.9-7.18,8.55L204,318.62H190.74l9.76-46.44h13.25l-1,4.83c3.87-4.46,7.91-5.2,10.77-5.2,5.89,0,10.22,3.06,10.22,10.49s-4.42,18.77-4.42,24c0,2.32.92,3.9,3.68,3.9,4,0,5.71-3.34,7.73-8.17h3.87c-5.16,15.23-12.24,17.18-17.12,17.18-8,0-10.86-5.2-10.86-10.49,0-6.32,4.14-17.75,4.14-23.69C220.75,281.93,219.64,280.26,217.43,280.26Z"/><path d="M258.77,310.36c3.49,0,7.91-2.33,10.86-4.93-1.93,10.59-8.56,13.75-15.93,13.75-8.56,0-14.27-4.27-14.27-14.77,0-10.68,6-33.06,24.86-33.06,8.19,0,10.12,4.27,10.12,8.91,0,10.77-10.12,18.95-21.17,19.6-.09.93-.18,1.95-.18,2.79C253.06,308.5,255.54,310.36,258.77,310.36ZM265,276.27c-4.61,0-9.21,10.31-11.14,19.13,7.18-.37,13.43-7.52,13.43-15.33C267.32,277.75,266.78,276.27,265,276.27Z"/><path d="M178.56,345.87l8.15-24h5.09v24l8.35-24h2.72l-10.8,29.19h-5.75V331.14l-7.69,19.94h-5.71V324.32c-4.23,1.33-6.29,4.39-6.29,8.7a5.61,5.61,0,0,0,.54,2.66c-2.67,0-4.15-1-4.15-3.8,0-5.21,7.15-10.19,13.63-10.19.55,0,1,0,1.56.08Z"/><path d="M205.94,348c3.06,0,4.93-1.73,6.87-4h1.32c-2.21,3.61-5.51,7.25-10.68,7.25-3.65,0-6.06-1.81-6.06-6.23s2.53-13.95,10.49-13.95c3.46,0,4.27,1.8,4.27,3.76,0,4.51-4.27,8-8.93,8.27,0,.55-.08,1.1-.08,1.57C203.14,347.4,204.08,348,205.94,348Zm2.25-14.81c-2,0-3.88,4.19-4.66,8.07,3-.2,5.63-3.22,5.63-6.47C209.16,333.84,208.93,333.22,208.19,333.22Z"/><path d="M220.85,348c3.07,0,4.93-1.73,6.88-4h1.32c-2.22,3.61-5.52,7.25-10.68,7.25-3.66,0-6.06-1.81-6.06-6.23s2.52-13.95,10.48-13.95c3.46,0,4.27,1.8,4.27,3.76,0,4.51-4.27,8-8.93,8.27,0,.55-.07,1.1-.07,1.57C218.06,347.4,219,348,220.85,348Zm2.25-14.81c-2,0-3.88,4.19-4.66,8.07,3-.2,5.63-3.22,5.63-6.47C224.07,333.84,223.84,333.22,223.1,333.22Z"/><path d="M246.05,331.49l-7.76,5.45a6.89,6.89,0,0,1,1.28-.16c2.87,0,4.27,2.08,4.27,4.59a7,7,0,0,1-.15,1.48l-.43,2a6.5,6.5,0,0,0-.2,1.26c0,.78.32,1.45,1.52,1.45a2.47,2.47,0,0,0,1.36-.24,4.3,4.3,0,0,1-3.61,4c-3.19,0-4.9-1.61-4.9-4.47a9.78,9.78,0,0,1,.24-2l.31-1.53a6.85,6.85,0,0,0,.15-1.44c0-1.14-.39-1.88-1.4-1.88a4.82,4.82,0,0,0-2.87,1.45l-2,9.67h-5.59l5.63-26.64,5.75-.79-2.91,13.8,7.49-6Z"/><path class="cls-3" d="M296,197.26l-11.33-28.67a4.57,4.57,0,0,0-5.27-2.86l-14.86,3.45,4.33-11a4.93,4.93,0,0,0,.25-2.74l-3.06-16.06a4.61,4.61,0,0,0-5.38-3.77l-25.09,4.92L233,124.65a4.78,4.78,0,0,0-2.51-3.49L217,114.26a4.46,4.46,0,0,0-4.24.08l-17.09,9.59a4.86,4.86,0,0,0-2.35,5.07l-3.66-2.92a4.46,4.46,0,0,0-4.82-.5l-15.45,7.79-3.24-11.7a4.6,4.6,0,0,0-5.12-3.42l-27,4.25a4.7,4.7,0,0,0-3.83,3.81L129,132.93l-6.21-19.34a4.7,4.7,0,0,0-3.45-3.18l-27-5.75a4.47,4.47,0,0,0-3.57.77,4.84,4.84,0,0,0-1.92,3.21l-2.4,16.46a5,5,0,0,0,.35,2.7l4.14,9.46-.16.18a.61.61,0,0,1-.07-.1l-6.58-9.6a4.52,4.52,0,0,0-4.63-1.92l-17,3.41A4.68,4.68,0,0,0,57,132.59l-5.77,20.48-4.33-6.7a4.57,4.57,0,0,0-3.9-2.11l-13.59.22a4.62,4.62,0,0,0-4.09,2.71l-8.68,18.7a5,5,0,0,0,.62,5.15l1.46,1.81-9.34-.42a4.69,4.69,0,0,0-4.78,4.18L1,206.32a4.85,4.85,0,0,0,2.29,4.76L11.6,216c-.32.08-.6.16-.85.25l-1,.33a4.68,4.68,0,0,0-2.08,1.46l-.65.81c-2.85,3.52-3.38,9.19-1.73,18.38l.55,3.05a4.69,4.69,0,0,0,3.94,3.87L11.3,253C6.45,258.58,3.8,265,3.8,271.2c0,9.49,4.82,15.49,13.37,16.91l.52,3.12-5.42,26.34a7.92,7.92,0,0,0,1.49,6.49,7.33,7.33,0,0,0,5.81,2.88h4.09l5.12,30.61A11.88,11.88,0,0,0,40.44,368H243.36A11.78,11.78,0,0,0,255,357.73l5.62-33.58c4.17-2.58,8.67-7.5,10.33-16.86a7.87,7.87,0,0,0-3.23-7.88,26.35,26.35,0,0,0,8-18.77c0-5.67-2-10.21-5.65-13.12l3.9-23.35a4.69,4.69,0,0,0,3.95-3.87l.55-3.05c1.65-9.2,1.11-14.87-1.74-18.39l-.32-.39,18.26-15.71A4.9,4.9,0,0,0,296,197.26Z"/><polygon class="cls-5" points="121.31 247.79 121.79 248.15 121.92 248.02 121.31 247.79"/><polygon class="cls-6" points="166.79 138.08 163.24 125.94 140.51 129.44 146.79 142.07 166.79 138.08"/><path class="cls-6" d="M135.12,155.77l4.71-5.82,3,.75,1.59-7.33-5.36-10.77-4.45,22.75Z"/><polygon class="cls-6" points="123.77 239.27 124.01 238.14 123.62 237.99 123.77 239.27"/><polygon class="cls-6" points="122.45 245.37 122.76 243.92 119.5 244.27 122.45 245.37"/><polygon class="cls-6" points="117.95 117.12 95.18 112.38 93.31 124.03 113.49 129.08 117.95 117.12"/><path class="cls-6" d="M124.92,156.07c1.46.06,3,.33,3.86-.76a4.39,4.39,0,0,1,2.07-1.53l-11.09-33.51L116,130.48Z"/><polygon class="cls-6" points="229.66 125.51 220.4 120.98 205.92 129.19 215.31 135.71 229.66 125.51"/><polygon class="cls-6" points="229.61 185.25 236.96 159.41 231.5 127.06 216.91 138.27 229.61 185.25"/><polygon class="cls-6" points="267.85 154.51 265.51 143.15 243.66 147.34 248.52 159.06 267.85 154.51"/><path class="cls-6" d="M237.57,188.71l8.63-28.33-4.15-10-10.34,36.31a12.47,12.47,0,0,0,4.68,1.79C236.8,188.54,237.19,188.62,237.57,188.71Z"/><path class="cls-3" d="M227,264.19l3.38-8.33,68.17-57-11.63-28.6-19.19,4.33-2.92,3.1a11.94,11.94,0,0,0-2.08-1.77l8-19.65-3.14-16-26.62,5.08-2.51,8.84-4.85-28.74-13.81-6.89-17.54,9.57,9.18,31.4-3.48.71c.52-3.64.11-6-2.49-8.06a31.3,31.3,0,0,0-4.23-3.35l.79-10.41-11.07-8.56-18.46,9.05.47,17.48a5.15,5.15,0,0,0-3.78,2.9,6.07,6.07,0,0,0-.65,2.19c1.52,0,3.07,0,4.57,0l.22,8.49c-.86-.41-1.83-.34-3.24,1.2s-4.6-.12-5.67,2.25,1.7,2.77,2.33,4.2a2.16,2.16,0,0,1,.14.74l-4,2.34-3.8-17.82-1.85-8.71-11.83-2.91,1.42-6.59,20.28-4-6.95,21.82a15.44,15.44,0,0,1,3-.84L170,140.11,165.13,123l-27.68,4.24L132.7,151.6l-12-36.46L92.92,109.4l-2.47,16.43,5.82,12.93-.56-.17-8.63,8.89.93,4.25a5.49,5.49,0,0,0-4.87,3.07,4.6,4.6,0,0,0-.34,4.13l-5,2.37,8.51-21.21-6.74-9.58-17.41,3.41-8.76,30.2L43.28,149l-14,.22-8.91,18.65,11.46,13.82-5.14-3.79-18.25-.81L4.77,206.72l31.07,17.89-1.25,4.3,11.28,2.59L62.7,320.19l19.91-1.62L78.7,266.84,84,299.24l24,1.43-1.14-27.77L115.61,283l22.78-19.11,8.32,20.71,14.94,1,6.61,14.81L163.57,312l19,10.55,26.52-48.88,13.24-11.07Zm-1.23-3.2-1.08-.37,1.87-1.57Zm59.4-87.34,9.52,23.49-15.68.63-7.52-21.16Zm-16.35,4,7.62,21.45-51.07,44.49,17.11-31.52L242,206.2l9.9-10.51c.26.52.78.79,1.74.66,3.67-.52,3.39-4,6.6-4.57s5.49.24,6.41-4.37c.71-3.54,1-5.74.11-7.5ZM218,210.61l-4-14,24.31-.15,1.24,13Zm-4.31,41.89L209,259.73l-96.56-40.16.67-21.17Zm-29.24,42.82-4.64,1.43L165,254.2l6.82,2.67Zm-4.95-22.74-.22-.67,2.46-11.16,2.2.86Zm-1.73-5.29-3-9.29,4.68,1.84Zm3,9.28,5.66-14,6,2.37-8.78,20.55ZM98.53,225.2l12-3.49,97,40.33-3,4.73Zm7.89,36.92-.28-6.82,5.62,3.39-4,4.2ZM106,252.07l-.52-12.64,14.44,10.68-6.26,6.57Zm7.77-17.93-5.7,2.4L105.27,234l-.09-2.27,1.16-.52Zm7.77,3,.52,4.54-4,.43-.86-6.53.17-.07Zm-5.42,5.17-1.91.21-4.89-3.62,6-2.53Zm7.64-3.08-.15-1.28.39.15Zm-1,4.65-.31,1.45-3-1.1Zm-1.46,3.87.62.23-.13.13Zm5.15-8.69,2.35.92.22.55-3.73,3.92Zm-15.82-53.43-4-30.1,4.74-7.5,4.22,37.09c1.63-.07,3.25-.06,4.84,0l-.9,5.91,4.51,10.12-8.69-4.68a6.09,6.09,0,0,0,0-1.41c-.37-3.45-3.77-8.82-9.41-4.35a2.7,2.7,0,0,1-2.48.56l-.14-3.37a31.49,31.49,0,0,1,5.35-2C109.35,185.87,110,185.78,110.63,185.67Zm39.74-19,1.34,5.76c-2.05-1.06-4.44-.91-8,2.67a6.16,6.16,0,0,1-3.9,1.64l-5.3-16.49Zm9.52,53.86-8.12-4.38-6.93-19.92,3.79-10ZM127.42,203l-5-11.15,20.28,5.47,6,17.12Zm-3.16-25.14L146.84,183l-4.44,11.77-20-5.39Zm11.6-7.4,2,6.34a17.51,17.51,0,0,0-5.09.5L122,174.87,120.63,184l-3.34-1.89-.76-6.66ZM99.66,204.3l10.77-5.3L109,219.25l-12.64,4Zm83.83-5,.76-11.73,11.95,5.55c-.46,3.3,2.89,4.8,4.83,6.9l.57,5.59Zm8.61-30.33,5.1,10.18-2.29,10.41-6.33-3.06Zm24.59,14c-1.6,0-3.47.79-5.88,3.23-3.62,3.65-10.53-.32-13.58,4.3l2.25-10.19,19.65-4.94Zm-14.63,27.47a1.9,1.9,0,0,0,2,1.32l-10.79,26.7-5.92-3.19L190.73,220Zm-6.36,29.32,16.22-40.08,3.39,11.91-13.45,31.49Zm69.81-96.61,2.33,11.36-19.32,4.55-4.87-11.72ZM237,159.41l-7.34,25.84-12.7-47,14.59-11.21ZM220.4,121l9.26,4.52-14.35,10.2-9.39-6.52Zm-14.65,10.74,8.71,6.39,12.25,45.31c1.69,1,3.26,2.22,5,3.26l10.34-36.31,4.15,10-8.63,28.33a13,13,0,0,1,2.26.73l8.49-27.87L267.91,157l-7.59,18.74a7.26,7.26,0,0,0-2.84,2.17c-2.47,2.76-7.3-.52-9.14,3.58s2.53,5,3.44,7.55a5.93,5.93,0,0,1,.15,2.42l-4.25,4.52-6,6.41-.75-8.61-15.14.09c.26-3-.32-5-2.62-6.88a33.85,33.85,0,0,0-4.09-3.27l.43-1.35c.33-.08.66-.16,1-.21l-.43-1.48,1.91-6-4.58-16.34-3.62.74Zm9.74,29.54,3.36,11.59-19.38,4.88-6-11.93Zm-17.49,1-7.46,1.53-4.3,21.5-2.38-1.15-.29-33.1L199.7,140Zm-7.07-29.75,7.45,5.64-15.67,10-7.09-7.81Zm-16.07,10.54,6.49,7.64.3,34.6-5.53,5.8Zm-10.14,55.66a9.09,9.09,0,0,1,2.32,1.56l-3.55-16.66,10-5.9.42,15.68-6.72,7a19.85,19.85,0,0,1,1.68,1.84l12.84-13.46-1,11.08-7.4,7.47a12.73,12.73,0,0,0,2,1.44L182,202.1,201.19,208l-11.55,9.69a11.6,11.6,0,0,1,.45,4c-.06,1.25-1.17,2.24-3,3l-2,9.27-5.46-2.94.44-2.22,3.56-3c-1.43.34-3,.61-4.76.84L176,229.16l-3.38-1.82L163,222.15l-7.32-22.36-2.05-6.25a4.7,4.7,0,0,0,2.61-1.71l1.57,6.75a8.83,8.83,0,0,1,1.86-.42L157.51,189c.07-.24.13-.48.19-.74,1.4-6.37,1.87-9.6-1.64-12.43-.69-.56-1.35-1.16-2-1.73l-1.89-8.15,3.9-7.71ZM154.87,156l-4.37,8-15.23-5.59,5.11-6.19Zm8.37-30.08,3.55,12.14-20,4-6.28-12.62Zm-24.13,6.66,5.36,10.77-1.59,7.33-3-.75-4.71,5.82-.46-.42Zm-8.26,21.18a4.39,4.39,0,0,0-2.07,1.53c-.91,1.09-2.4.82-3.86.76l-9-25.59,3.81-10.21Zm-35.67-41.4L118,117.12l-4.46,12L93.31,124Zm-1.81,14.17,20.45,5.12,8.71,24.83a3.63,3.63,0,0,0-1.53,2.29c-.66,2.27,1.49,3.85,1.28,5.54a2.87,2.87,0,0,1-.61,1.28c-1,1.42-3,3.19-3.26,6.16,0,.15,0,.3,0,.44l-2.2.57-1.17-10.34L113,144.13,99.3,139.74ZM96,140.91l14.35,4.86-5.24,7.73-14.93-6.71Zm-6.76,7.65,15.48,7.6,3.56,27a3.79,3.79,0,0,0-.7-.26c-2.08-.58-1.13-4.2-4.6-3.92l-.31-7.47L90.82,155.16l-.08,0Zm.65,10.28,8.55,11.59L78.54,180.94,66.88,169.71Zm-14.59,3.6-10.52,4.94a9.43,9.43,0,0,0-2.7-2.07L68,146.47l16-5.59Zm3.49-29.71,4.57,6.34L68,143.86l-3.7-8.06ZM63,137.9l3.27,7.79-6,19.54a4.74,4.74,0,0,0-1.92,1.49,3,3,0,0,1-2.63.82l-.9-1.34ZM53,167.55c-1.07.19-2,.83-2.54,2.65-.65,2.27,1.49,3.86,1.29,5.54s-3.49,3.52-3.87,7.44a6.18,6.18,0,0,0,0,1.49L36.6,170.45l5.85-18.78ZM31,151.31l9.32-.24L34.13,168.7,23.76,167Zm-6.11,18.33,9.78,1.93,14.8,18.53c2.42-2.93,5.08-5.84,9.14-6.93a22.29,22.29,0,0,1,6.44-.71l1.76,10.87-3.32-4.27-11.3,7.62-5.06-3.74-7.61-5.62Zm29.35,44.22-10-8.76,18.66-12.61,7.46,9.45ZM49.8,198.27l-9.08,6.12,1.79,9.41-10.15-6.11c-.17-2.12-2.74-3.29-2.36-5.4.44-2.38,1.76-3.64-2.2-6-.91-.55-1.7-1-2.44-1.42L26.49,181ZM10.85,180l13,.46-1.07,13.16a5.5,5.5,0,0,0-3.49-.11c-2.52.77-5.75.79-2.76,5.27,1,1.57.06,2.91-.36,4.3l-8.33,1.26Zm-.32,26.83,6.23-.93a5,5,0,0,0,.46.46c3.23,2.82,5.27.2,7.87.57a6.34,6.34,0,0,1,1.78.6l16.31,9.83L45,226.69ZM37,227.19l.47-1.62,3.43,2-.16.51Zm27.65,90.19L44.08,208.53,52.63,216,69.76,317Zm7.54-.61L55.18,216.24l16.33-12.09,8.46,112Zm14.25-20.3L76.09,232.18l-2.25-29.75-3.24-4.17-4-24.81,10,9.59,16,113.8Zm18.45,1.1L95.59,297l-16-113.3,20.22-10.66.67,16.39c-2.4-2-4.76-4.49-7.15-1.32-1.6,2.12-6.34-1.44-7.16,3.15-.37,2.11,1.89,3.62,1.88,5.19s-3,3.25-2.91,6.91,3.92,7.36,7.3,7.33a6.58,6.58,0,0,0,3.35-.85l-3,16.06,9.35,3.66,1.54,37.58-.94,1,1,1.19Zm1.23-29.47,25.65-26.9,5.77,2.26-28.15,28.41ZM116,279.47l-5-5.75,29-29.3,4,1.56,3.25,7.29Zm33.84,2.93-8.46-21.08,6.85-5.74L158.33,283Zm-2.77-35.22,15,5.88,15.44,44.38-7.09,2.18ZM167,310.64l3.28-8.09,7.1-2.19-5.54,13Zm14.59,8.1-7.39-4.1,6.55-15.31,6.81-2.1L185,289.39,195,266l10.56,4.13,11.94-18.58-13.27-7.14,13.24-31,21.89-1.09Zm31.24-52,8.6-15.84,57.65-50.23,13.39-.54Z"/><polygon class="cls-6" points="294.7 197.14 285.18 173.65 271.5 176.61 279.02 197.77 294.7 197.14"/><path class="cls-6" d="M266.62,187.41c-.92,4.61-3.2,3.86-6.41,4.37s-2.93,4.05-6.6,4.57c-1,.13-1.48-.14-1.74-.66L242,206.2l.52,5.91-17.11,31.52,51.07-44.49-7.62-21.45-2.1,2.22C267.65,181.67,267.33,183.87,266.62,187.41Z"/><polygon class="cls-6" points="83.4 139.07 78.83 132.73 64.32 135.8 68.02 143.86 83.4 139.07"/><path class="cls-6" d="M62.12,165.31a9.43,9.43,0,0,1,2.7,2.07l10.52-4.94L84,140.88l-16,5.59Z"/><polygon class="cls-6" points="40.29 151.07 30.97 151.31 23.77 167.02 34.13 168.7 40.29 151.07"/><path class="cls-6" d="M48,184.67a6.18,6.18,0,0,1,0-1.49c.38-3.92,3.67-5.75,3.87-7.44s-1.94-3.27-1.29-5.54c.53-1.82,1.47-2.46,2.54-2.65L42.45,151.67,36.6,170.45Z"/><path class="cls-6" d="M116.53,175.49l.76,6.66,3.34,1.89,1.39-9.17,10.79,2.44a17.51,17.51,0,0,1,5.09-.5l-2-6.34Z"/><polygon class="cls-6" points="105.15 153.5 110.39 145.77 96.04 140.91 90.22 146.79 105.15 153.5"/><polygon class="cls-6" points="114.22 242.56 116.13 242.35 115.35 236.41 109.33 238.94 114.22 242.56"/><path class="cls-6" d="M90.82,155.16l11.89,16.38L103,179c3.47-.28,2.52,3.34,4.6,3.92a3.79,3.79,0,0,1,.7.26l-3.56-27-15.48-7.6,1.46,6.64Z"/><path class="cls-6" d="M173.93,193.43l-.42-15.68-10,5.9L167,200.31c.06.06.11.12.17.17Z"/><polygon class="cls-6" points="198.38 138.19 190.93 132.54 175.62 140.35 182.71 148.16 198.38 138.19"/><polygon class="cls-6" points="183.85 184.18 186.24 185.33 190.54 163.83 198 162.3 199.7 140.02 183.57 151.07 183.85 184.18"/><polygon class="cls-6" points="140.38 152.22 135.26 158.41 150.5 164 154.87 156.02 140.38 152.22"/><path class="cls-6" d="M134.53,160.21l5.3,16.49a6.16,6.16,0,0,0,3.9-1.64c3.54-3.58,5.93-3.73,8-2.67l-1.34-5.76Z"/><path class="cls-6" d="M156.21,191.83a4.7,4.7,0,0,1-2.61,1.71l2.05,6.25a6.68,6.68,0,0,1,2.13-1.21Z"/><path class="cls-6" d="M16.51,198.79c-3-4.48.24-4.5,2.76-5.27a5.5,5.5,0,0,1,3.49.11l1.07-13.16-13-.46-3,24.34,8.33-1.26C16.57,201.7,17.56,200.36,16.51,198.79Z"/><polygon class="cls-6" points="105.49 239.43 106.01 252.07 113.67 256.68 119.93 250.11 105.49 239.43"/><path class="cls-6" d="M27.8,196.25c4,2.4,2.64,3.66,2.2,6-.38,2.11,2.19,3.28,2.36,5.4l10.15,6.11-1.79-9.41,9.08-6.12L26.49,181l-1.13,13.79C26.1,195.23,26.89,195.7,27.8,196.25Z"/><polygon class="cls-6" points="66.88 169.71 78.54 180.94 98.48 170.43 89.93 158.84 66.88 169.71"/><path class="cls-6" d="M103.68,267.16l-1.54-37.58-9.35-3.66,3-16.06a6.58,6.58,0,0,1-3.35.85c-3.38,0-7.23-3.67-7.3-7.33s2.91-5.33,2.91-6.91-2.25-3.08-1.88-5.19c.82-4.59,5.56-1,7.16-3.15,2.39-3.17,4.75-.71,7.15,1.32l-.67-16.39L79.61,183.72l16,113.3,9.34.55-1.16-28.23-1-1.19Z"/><polygon class="cls-6" points="62.85 192.49 44.19 205.1 54.21 213.86 70.31 201.94 62.85 192.49"/><polygon class="cls-6" points="71.51 204.15 55.18 216.24 72.23 316.77 79.97 316.14 71.51 204.15"/><polygon class="cls-6" points="193.48 165.81 199.47 177.74 218.85 172.86 215.49 161.27 193.48 165.81"/><polygon class="cls-6" points="177.76 267.29 179.4 259.84 174.72 258 177.76 267.29"/><polygon class="cls-6" points="188.58 186.47 194.91 189.53 197.21 179.12 192.1 168.94 188.58 186.47"/><path class="cls-6" d="M183.63,225.91l-3.56,3-.44,2.22,5.46,2.94,2-9.27A20,20,0,0,1,183.63,225.91Z"/><path class="cls-6" d="M201.6,205.58,201,200c-1.94-2.1-5.29-3.6-4.83-6.9l-11.95-5.55-.76,11.73Z"/><polygon class="cls-6" points="147.26 253.27 144.01 245.98 140.05 244.42 111.03 273.72 116.03 279.47 147.26 253.27"/><path class="cls-6" d="M172.62,227.34l3.38,1.82,2.87-2.41C176.9,227,174.78,227.2,172.62,227.34Z"/><path class="cls-6" d="M177.21,209.71c3,1,10.52,1.66,12.43,8L201.19,208,182,202.1l-6.69,6.75A10.17,10.17,0,0,0,177.21,209.71Z"/><path class="cls-7" d="M115.05,162.44l1.17,10.34,2.2-.57c0-.14,0-.29,0-.44.29-3,2.24-4.74,3.26-6.16-.57-.4-1.14-.81-1.72-1.19A16.85,16.85,0,0,0,115.05,162.44Z"/><path class="cls-7" d="M220.45,182.12c-.32,0-.65.13-1,.21l-.43,1.35a33.85,33.85,0,0,1,4.09,3.27c2.3,1.86,2.88,3.91,2.62,6.88l15.14-.09.75,8.61,6-6.41c-2.4-2.58-4.52-5.1-7.85-6.5a13,13,0,0,0-2.26-.73c-.38-.09-.77-.17-1.18-.23a12.47,12.47,0,0,1-4.68-1.79c-1.74-1-3.31-2.3-5-3.26A9.17,9.17,0,0,0,220.45,182.12Z"/><path class="cls-7" d="M159.08,162.94l3.8,17.82,4-2.34a2.16,2.16,0,0,0-.14-.74c-.63-1.43-3.39-1.83-2.33-4.2s4.18-.63,5.67-2.25,2.38-1.61,3.24-1.2l-.22-8.49c-1.5-.08-3.05-.07-4.57,0s-3,.08-4.37.08a6.41,6.41,0,0,0-1,.09,15.44,15.44,0,0,0-3,.84C159.8,162.64,159.45,162.78,159.08,162.94Z"/><path class="cls-7" d="M103.38,188l.14,3.37a2.7,2.7,0,0,0,2.48-.56c5.64-4.47,9,.9,9.41,4.35a6.09,6.09,0,0,1,0,1.41l8.69,4.68-4.51-10.12.9-5.91c-1.59-.08-3.21-.09-4.84,0a41.76,41.76,0,0,0-5,.51c-.64.11-1.28.2-1.9.33A31.49,31.49,0,0,0,103.38,188Z"/><path class="cls-7" d="M52.16,196.68l11.3-7.62,3.32,4.27L65,182.46a22.29,22.29,0,0,0-6.44.71c-4.06,1.09-6.72,4-9.14,6.93-.79,1-1.56,1.93-2.34,2.84Z"/><path class="cls-7" d="M161.42,198a13.6,13.6,0,0,0-1.78.12,8.83,8.83,0,0,0-1.86.42,6.68,6.68,0,0,0-2.13,1.21L163,222.15l9.65,5.19c2.16-.14,4.28-.33,6.25-.59,1.72-.23,3.33-.5,4.76-.84a20,20,0,0,0,3.5-1.13c1.79-.79,2.9-1.78,3-3a11.6,11.6,0,0,0-.45-4c-1.91-6.35-9.39-7-12.43-8a10.17,10.17,0,0,1-1.92-.86,12.73,12.73,0,0,1-2-1.44,41.88,41.88,0,0,1-4.4-5.09,19.85,19.85,0,0,0-1.68-1.84c-.06,0-.11-.11-.17-.17a9.09,9.09,0,0,0-2.32-1.56A7.68,7.68,0,0,0,161.42,198Z"/><polygon class="cls-6" points="238.33 196.49 214.02 196.64 217.99 210.61 239.57 209.53 238.33 196.49"/><polygon class="cls-6" points="211.92 199.68 195.7 239.76 201.86 243.08 215.31 211.59 211.92 199.68"/><polygon class="cls-6" points="170.29 302.55 167.01 310.64 171.85 313.33 177.39 300.36 170.29 302.55"/><polygon class="cls-6" points="192.51 264.97 186.46 262.6 180.8 276.57 183.73 285.52 192.51 264.97"/><polygon class="cls-6" points="122.4 189.37 142.4 194.76 146.84 182.99 124.26 177.87 122.4 189.37"/><polygon class="cls-6" points="148.63 186.16 144.84 196.19 151.77 216.12 159.89 220.49 148.63 186.16"/><polygon class="cls-6" points="171.82 256.87 165.01 254.2 179.8 296.75 184.44 295.32 171.82 256.87"/><polygon class="cls-6" points="96.4 223.28 109.04 219.25 110.44 199 99.66 204.3 96.4 223.28"/><path class="cls-8" d="M167.1,140.69l-20.28,4-1.42,6.59,11.83,2.91,1.85,8.71c.37-.16.72-.3,1.07-.43Z"/><polygon class="cls-8" points="128.8 240.02 126.45 239.1 125.29 244.49 129.02 240.57 128.8 240.02"/><path class="cls-8" d="M115.05,162.44a16.85,16.85,0,0,1,4.9,2c.58.38,1.15.79,1.72,1.19a2.87,2.87,0,0,0,.61-1.28c.21-1.69-1.94-3.27-1.28-5.54a3.63,3.63,0,0,1,1.53-2.29l-8.71-24.83-20.45-5.12,5.93,13.19L113,144.13Z"/><path class="cls-8" d="M221.93,174.67l-1.91,6,.43,1.48a9.17,9.17,0,0,1,6.26,1.31l-12.25-45.31-8.71-6.39,8,27.34,3.62-.74Z"/><polygon class="cls-8" points="225.78 260.99 226.57 259.05 224.7 260.62 225.78 260.99"/><path class="cls-8" d="M247.68,195.94l4.25-4.52a5.93,5.93,0,0,0-.15-2.42c-.91-2.56-5.28-3.45-3.44-7.55s6.67-.82,9.14-3.58a7.26,7.26,0,0,1,2.84-2.17L267.91,157l-19.59,4.61-8.49,27.87C243.16,190.84,245.28,193.36,247.68,195.94Z"/><polygon class="cls-8" points="292.48 200.13 279.09 200.67 221.44 250.9 212.84 266.74 292.48 200.13"/><path class="cls-8" d="M58.28,166.72a4.74,4.74,0,0,1,1.92-1.49l6-19.54L63,137.9l-8.22,28.3.9,1.34A3,3,0,0,0,58.28,166.72Z"/><polygon class="cls-8" points="37.51 225.57 37.04 227.19 40.78 228.05 40.94 227.54 37.51 225.57"/><path class="cls-8" d="M47.1,192.94c.78-.91,1.55-1.87,2.34-2.84l-14.8-18.53-9.78-1.93,14.63,17.68Z"/><polygon class="cls-8" points="141.41 261.32 149.87 282.4 158.32 282.97 148.25 255.58 141.41 261.32"/><polygon class="cls-8" points="118.07 242.15 122.07 241.72 121.55 237.18 117.38 235.55 117.21 235.62 118.07 242.15"/><path class="cls-8" d="M115.62,185.16l-4.22-37.09-4.74,7.5,4,30.1A41.76,41.76,0,0,1,115.62,185.16Z"/><polygon class="cls-8" points="105.18 231.75 105.27 234.01 108.08 236.54 113.78 234.13 106.34 231.22 105.18 231.75"/><polygon class="cls-8" points="176.12 191.13 181.65 185.33 181.35 150.73 174.86 143.09 176.12 191.13"/><path class="cls-8" d="M154.06,174.08c.65.57,1.31,1.17,2,1.73,3.51,2.83,3,6.06,1.64,12.43-.06.26-.12.5-.19.74l2.13,9.18a13.6,13.6,0,0,1,1.78-.12,7.68,7.68,0,0,1,3.3.71l-8.65-40.53-3.9,7.71Z"/><polygon class="cls-8" points="106.14 255.3 106.42 262.12 107.75 262.89 111.76 258.69 106.14 255.3"/><path class="cls-8" d="M45,226.69l-1.77-9.32-16.31-9.83a6.34,6.34,0,0,0-1.78-.6c-2.6-.37-4.64,2.25-7.87-.57a5,5,0,0,1-.46-.46l-6.23.93Z"/><polygon class="cls-8" points="76.55 183.04 66.59 173.45 70.6 198.25 73.84 202.43 76.08 232.18 86.48 296.47 92.6 296.84 76.55 183.04"/><polygon class="cls-8" points="52.63 215.99 44.08 208.53 64.69 317.38 69.76 316.97 52.63 215.99"/><polygon class="cls-8" points="179.27 271.91 179.49 272.58 183.93 261.61 181.74 260.75 179.27 271.91"/><path class="cls-8" d="M199.48,180.31l-2.25,10.19c3.05-4.62,10-.65,13.58-4.3,2.41-2.44,4.28-3.27,5.88-3.23l2.44-7.6Z"/><path class="cls-8" d="M190.73,220l-3.37,15.32,5.92,3.19,10.79-26.7a1.9,1.9,0,0,1-2-1.32Z"/><path class="cls-8" d="M173.29,207.41l7.4-7.47,1-11.08-12.84,13.46A41.88,41.88,0,0,0,173.29,207.41Z"/><polygon class="cls-8" points="137.58 243.46 131.81 241.2 106.16 268.1 109.43 271.87 137.58 243.46"/><polygon class="cls-8" points="239.37 212.26 217.49 213.35 204.24 244.35 217.51 251.5 205.57 270.08 195.01 265.95 185 289.39 187.57 297.23 180.75 299.33 174.21 314.64 181.6 318.74 239.37 212.26"/><polygon class="cls-8" points="142.72 197.33 122.45 191.86 127.42 203.01 148.68 214.45 142.72 197.33"/><polygon class="cls-8" points="177.54 297.44 162.1 253.06 147.09 247.18 170.46 299.62 177.54 297.44"/><polygon class="cls-8" points="204.52 266.77 207.56 262.04 110.57 221.71 98.53 225.2 204.52 266.77"/><polygon class="cls-8" points="113.15 198.4 112.48 219.57 209.04 259.73 213.68 252.5 113.15 198.4"/><path class="cls-4" d="M226.56,208.94c2.2,0,13.58,4,21.27,5.06,3.64.5,6.4,1.33,11,5.59,2.49,2.29-31.8,3.58-31.8,3.58Z"/><path class="cls-4" d="M45.53,211.74c-2.39,0-10,2.44-11.4,3.86s-3.85,4.25-4.19,5.67,14.35,1.42,14.35,1.42Z"/><path class="cls-4" d="M53.09,221.45c14.09-1.6,28.7-21.29,41-12.24,18.82,13.85,7.17,17,7.17,17l-48.17-4.79"/><path class="cls-3" d="M141.26,211.75c1.44,1.25-3.89,3.3-1.77,4.4s3-.36,4.42-.18,2.3,2.93,5,1.83,4.66-1.83,3.18-4.58c-1.77-3.31-4.76-.14-6-2.39C144.09,207.34,138.08,209,141.26,211.75Z"/><path class="cls-9" d="M218.48,222.52c-27.6-.51-59.29-.79-76.32-.8h-.53c-17,0-48.75.29-76.32.8-23.92.45-48.71,1-52,2.18-.28.35-1.54,2.47.05,11.35h.32a3.62,3.62,0,0,1,3.54,3.16L36.89,356.63a3.61,3.61,0,0,0,3.55,3.16H243.36a3.6,3.6,0,0,0,3.54-3.16l19.64-117.42a3.63,3.63,0,0,1,3.55-3.16h.32c1.59-8.89.32-11,0-11.35C267.2,223.57,242.41,223,218.48,222.52Z"/><path class="cls-3" d="M243.36,368.3H40.44A12.06,12.06,0,0,1,28.49,358l-19-113.42H6.28l-1.26-7c-1.64-9.1-1.11-14.71,1.7-18.19l1.53-1.9,2.31-.8c2.92-1,8.54-1.79,54.59-2.64,27.81-.52,59.52-.8,76.48-.8h.53c16.93,0,48.64.28,76.48.8h0c46.05.85,51.68,1.63,54.6,2.64l2.3.8,1.53,1.89c2.82,3.48,3.34,9.1,1.71,18.2l-1.26,7h-3.25L255.3,358A12,12,0,0,1,243.36,368.3Zm-198.74-17H239.17l19-113.42a12.23,12.23,0,0,1,2.45-5.64c-8.1-.43-22.23-.83-42.26-1.2h0c-27.75-.52-59.32-.79-76.17-.8h-.53c-16.87,0-48.46.28-76.16.8-20,.37-34.17.77-42.26,1.2a12.12,12.12,0,0,1,2.44,5.64Z"/><path class="cls-10" d="M218.48,222.52c-27.6-.51-59.29-.79-76.32-.8h-.53c-17,0-48.75.29-76.32.8-23.92.45-48.71,1-52,2.18-.28.35-1.54,2.47.05,11.35h.32a3.62,3.62,0,0,1,3.54,3.16L36.89,356.63a3.61,3.61,0,0,0,3.55,3.16H243.36a3.6,3.6,0,0,0,3.54-3.16l19.64-117.42a3.63,3.63,0,0,1,3.55-3.16h.32c1.59-8.89.32-11,0-11.35C267.2,223.57,242.41,223,218.48,222.52Z"/><g class="cls-11"><path class="cls-10" d="M143.18,235.46h-2.56c-43.86.12-86.52,1.08-115.82,2.49,0,0,12.3,78.76,42,91,14.27,5.87,44.94,8.19,75.08,7.89,30.14.3,60.81-2,75.07-7.89,29.73-12.24,42-91,42-91C229.69,236.54,187,235.58,143.18,235.46Z"/></g><path d="M46.36,273.47l-6.7,32.71c9.53-.78,16.51-13.61,16.51-24.09,0-7.25-3.4-13.32-11.7-13.32-15.28,0-24.43,8.91-24.43,23.8,0,5,1.22,5.78,1.32,6.66-6.51,0-10.09-2.45-10.09-9.5,0-13,17.35-25.47,33.1-25.47,15.47,0,22.26,9.21,22.26,19.29a26.83,26.83,0,0,1-27.26,26.26H38.9l-5.75,27.91H19.57l12.82-62.29Z"/><path class="cls-3" d="M33.15,344.48H19.57a6.76,6.76,0,0,1-6.63-8.12l6.27-30.45c-9.38-.75-14.71-6.56-14.71-16.18,0-17.85,21.81-32.23,39.87-32.23,20.05,0,29,13.08,29,26.05a33.54,33.54,0,0,1-28.91,32.67l-4.72,22.86A6.75,6.75,0,0,1,33.15,344.48Zm-.25-38-.06.29c0-.05,0-.09.07-.13S32.9,306.56,32.9,306.51Z"/><path d="M92.4,305.14a2.11,2.11,0,0,0,1,.18c4.13,0,10-2.79,13.81-5.58l.81,2.51c-3.41,3.82-9.33,6.61-15.87,7.73-1.44,17.23-10.4,28-21.44,28-8.34,0-14.34-4.1-14.34-14.71s6.09-33.06,24.56-33.06C88.64,290.24,92.4,295.36,92.4,305.14Zm-7.71,5.12c-1.88-.47-2.42-2.05-2.42-3.92,0-2.6,1.17-4.28,2.78-5-.18-3.91-1.07-5.4-3.4-5.4-6.37,0-11.93,17-11.93,26.17,0,6.14,1.16,7.54,4.57,7.54C78.69,329.63,83.26,321.24,84.69,310.26Z"/><path class="cls-3" d="M70.7,344.77c-13,0-21.11-8.23-21.11-21.47,0-13,7.66-39.83,31.33-39.83,7.53,0,11.78,3.51,14,6.45a19.68,19.68,0,0,1,3.33,7.2,30,30,0,0,0,5-2.86,6.77,6.77,0,0,1,10.41,3.41l.8,2.51a6.78,6.78,0,0,1-1.39,6.57c-3.45,3.87-8.69,6.94-14.8,8.74C95.27,333.2,84.59,344.77,70.7,344.77Z"/><path d="M138.14,291.07l-6.46,31.67a13.25,13.25,0,0,0-.35,3c0,2.6,1.16,3.44,3.67,3.44,3.5,0,5.92-3.54,7.26-8.19H146c-5.11,15.17-13.18,17.22-18,17.22-5.11,0-8.34-3.07-8.88-8.84-4.49,7.63-9.51,8.84-13.27,8.84-5.38,0-9.6-3.35-9.6-11.17a31.48,31.48,0,0,1,.72-6l6.09-29.9H116l-6.45,31.67a13.48,13.48,0,0,0-.28,2.6c0,2.15.72,3.82,2.69,3.82,3.5,0,5.83-3.54,7.18-8.19l6.1-29.9Z"/><path class="cls-3" d="M128,345a15.2,15.2,0,0,1-10.38-3.76A19.58,19.58,0,0,1,105.86,345C94.55,345,89.5,336,89.5,327a37.28,37.28,0,0,1,.85-7.39l6.1-29.91a6.76,6.76,0,0,1,6.63-5.41H116a6.75,6.75,0,0,1,4.62,1.82,6.75,6.75,0,0,1,4.62-1.82h12.91a6.76,6.76,0,0,1,6.63,8.11l-4.5,22.08a6.9,6.9,0,0,1,2-.3H146a6.76,6.76,0,0,1,6.41,8.93C146.37,341.17,135.8,345,128,345Z"/><path d="M164.32,276.36l-3,14.71h5.39l-.72,3.73h-5.38l-5.74,27.94a13.34,13.34,0,0,0-.36,3c0,2.6,1.17,3.44,3.67,3.44,3.51,0,6.73-3.54,8.08-8.19H170c-5.11,15.17-14,17.22-18.83,17.22-5.38,0-9.59-3.35-9.59-11.17a31.4,31.4,0,0,1,.71-6l5.39-26.17h-3l.71-3.73h3l2.69-12.84Z"/><path class="cls-3" d="M151.14,345c-11.3,0-16.36-9-16.36-17.94a37.8,37.8,0,0,1,.85-7.39l4.15-20.17c-.11-.11-.21-.23-.31-.35a6.76,6.76,0,0,1-1.43-5.59l.72-3.73a6.8,6.8,0,0,1,4-5l1.68-8a6.77,6.77,0,0,1,5.68-5.31l13.27-1.87a6.76,6.76,0,0,1,7.57,8.07l-1.49,7.18a6.78,6.78,0,0,1,3.84,7.44l-.72,3.73a6.76,6.76,0,0,1-6.5,5.48l-2.73,13.28a6.73,6.73,0,0,1,2.86-.64H170a6.76,6.76,0,0,1,6.41,8.93C170,342.12,157.82,345,151.14,345Z"/><path d="M185.22,291.07l-6.46,31.67a13.34,13.34,0,0,0-.36,3c0,2.6,1.17,3.44,3.68,3.44,3.5,0,6.72-3.54,8.07-8.19h3.77c-5.12,15.17-14,17.22-18.83,17.22-5.38,0-9.6-3.35-9.6-11.17a31.48,31.48,0,0,1,.72-6l6.1-29.9Zm-4-19.83a7.34,7.34,0,0,1,7.18,7.45,7.25,7.25,0,0,1-7.18,7.35,7.17,7.17,0,0,1-7.08-7.35A7.26,7.26,0,0,1,181.18,271.24Z"/><path class="cls-3" d="M175.09,345c-11.31,0-16.37-9-16.37-17.94a37.21,37.21,0,0,1,.86-7.39l6.1-29.91a6.76,6.76,0,0,1,3.23-4.5,13.88,13.88,0,1,1,22.48,3.08,6.69,6.69,0,0,1,.46,4.12l-4.58,22.43a6.68,6.68,0,0,1,2.88-.65h3.77a6.77,6.77,0,0,1,6.41,8.93C193.93,342.12,181.77,345,175.09,345Zm6.09-67h0a.75.75,0,0,0-.31.69c0,.32.15.59.32.59s.41-.21.41-.59A.67.67,0,0,0,181.18,278Z"/><path d="M212.74,299.18c-3.22,0-5.64,3.91-7,8.56l-6.1,29.9H186.74l9.51-46.57h12.91l-1,4.85c3.77-4.47,7.71-5.22,10.5-5.22,5.73,0,10,3.07,10,10.52s-4.31,18.82-4.31,24c0,2.33.9,3.91,3.59,3.91,3.94,0,5.56-3.35,7.53-8.19h3.77c-5,15.27-11.93,17.22-16.68,17.22-7.8,0-10.58-5.21-10.58-10.52,0-6.33,4-17.79,4-23.74C216,300.85,214.9,299.18,212.74,299.18Z"/><path class="cls-3" d="M222.52,345c-7.3,0-12.92-3.44-15.6-9.08l-.64,3.11a6.76,6.76,0,0,1-6.63,5.41H186.74a6.77,6.77,0,0,1-6.63-8.12l9.51-46.56a6.76,6.76,0,0,1,6.63-5.41h12.91a6.71,6.71,0,0,1,3,.7,19.41,19.41,0,0,1,6.51-1.07c10.15,0,16.71,6.78,16.71,17.28a60,60,0,0,1-2.06,13.32,6.76,6.76,0,0,1,2.11-.34h3.77a6.77,6.77,0,0,1,6.43,8.88C240.85,337.6,233.08,345,222.52,345Zm-20.78-47-.6,2.94c.33-.66.67-1.29,1-1.88A5.78,5.78,0,0,1,201.74,298Z"/><path d="M253,329.35c3.41,0,7.71-2.33,10.58-4.94-1.88,10.62-8.34,13.78-15.51,13.78-8.34,0-13.9-4.28-13.9-14.8,0-10.71,5.83-33.15,24.21-33.15,8,0,9.86,4.28,9.86,8.94,0,10.8-9.86,19-20.62,19.65-.09.93-.18,1.95-.18,2.79C247.45,327.49,249.87,329.35,253,329.35Zm6.1-34.18c-4.49,0-9,10.34-10.85,19.18,7-.37,13.09-7.54,13.09-15.36C261.35,296.66,260.81,295.17,259.11,295.17Z"/><path class="cls-3" d="M248.08,345c-12.94,0-20.67-8.07-20.67-21.57,0-16.58,9.61-39.92,31-39.92,10.41,0,16.63,5.87,16.63,15.71a25.42,25.42,0,0,1-8.82,19,5,5,0,0,1,.66.32,6.76,6.76,0,0,1,3.39,7.1C268.07,337.9,260,345,248.08,345Zm-7-18.9a8,8,0,0,0,.84,2.79A15.24,15.24,0,0,1,241.11,326.06Z"/><path d="M46.36,273.47l-6.7,32.71c9.53-.78,16.51-13.61,16.51-24.09,0-7.25-3.4-13.32-11.7-13.32-15.28,0-24.43,8.91-24.43,23.8,0,5,1.22,5.78,1.32,6.66-6.51,0-10.09-2.45-10.09-9.5,0-13,17.35-25.47,33.1-25.47,15.47,0,22.26,9.21,22.26,19.29a26.83,26.83,0,0,1-27.26,26.26H38.9l-5.75,27.91H19.57l12.82-62.29Z"/><path d="M92.4,305.14a2.11,2.11,0,0,0,1,.18c4.13,0,10-2.79,13.81-5.58l.81,2.51c-3.41,3.82-9.33,6.61-15.87,7.73-1.44,17.23-10.4,28-21.44,28-8.34,0-14.34-4.1-14.34-14.71s6.09-33.06,24.56-33.06C88.64,290.24,92.4,295.36,92.4,305.14Zm-7.71,5.12c-1.88-.47-2.42-2.05-2.42-3.92,0-2.6,1.17-4.28,2.78-5-.18-3.91-1.07-5.4-3.4-5.4-6.37,0-11.93,17-11.93,26.17,0,6.14,1.16,7.54,4.57,7.54C78.69,329.63,83.26,321.24,84.69,310.26Z"/><path d="M138.14,291.07l-6.46,31.67a13.25,13.25,0,0,0-.35,3c0,2.6,1.16,3.44,3.67,3.44,3.5,0,5.92-3.54,7.26-8.19H146c-5.11,15.17-13.18,17.22-18,17.22-5.11,0-8.34-3.07-8.88-8.84-4.49,7.63-9.51,8.84-13.27,8.84-5.38,0-9.6-3.35-9.6-11.17a31.48,31.48,0,0,1,.72-6l6.09-29.9H116l-6.45,31.67a13.48,13.48,0,0,0-.28,2.6c0,2.15.72,3.82,2.69,3.82,3.5,0,5.83-3.54,7.18-8.19l6.1-29.9Z"/><path d="M164.32,276.36l-3,14.71h5.39l-.72,3.73h-5.38l-5.74,27.94a13.34,13.34,0,0,0-.36,3c0,2.6,1.17,3.44,3.67,3.44,3.51,0,6.73-3.54,8.08-8.19H170c-5.11,15.17-14,17.22-18.83,17.22-5.38,0-9.59-3.35-9.59-11.17a31.4,31.4,0,0,1,.71-6l5.39-26.17h-3l.71-3.73h3l2.69-12.84Z"/><path d="M185.22,291.07l-6.46,31.67a13.34,13.34,0,0,0-.36,3c0,2.6,1.17,3.44,3.68,3.44,3.5,0,6.72-3.54,8.07-8.19h3.77c-5.12,15.17-14,17.22-18.83,17.22-5.38,0-9.6-3.35-9.6-11.17a31.48,31.48,0,0,1,.72-6l6.1-29.9Zm-4-19.83a7.34,7.34,0,0,1,7.18,7.45,7.25,7.25,0,0,1-7.18,7.35,7.17,7.17,0,0,1-7.08-7.35A7.26,7.26,0,0,1,181.18,271.24Z"/><path d="M212.74,299.18c-3.22,0-5.64,3.91-7,8.56l-6.1,29.9H186.74l9.51-46.57h12.91l-1,4.85c3.77-4.47,7.71-5.22,10.5-5.22,5.73,0,10,3.07,10,10.52s-4.31,18.82-4.31,24c0,2.33.9,3.91,3.59,3.91,3.94,0,5.56-3.35,7.53-8.19h3.77c-5,15.27-11.93,17.22-16.68,17.22-7.8,0-10.58-5.21-10.58-10.52,0-6.33,4-17.79,4-23.74C216,300.85,214.9,299.18,212.74,299.18Z"/><path d="M253,329.35c3.41,0,7.71-2.33,10.58-4.94-1.88,10.62-8.34,13.78-15.51,13.78-8.34,0-13.9-4.28-13.9-14.8,0-10.71,5.83-33.15,24.21-33.15,8,0,9.86,4.28,9.86,8.94,0,10.8-9.86,19-20.62,19.65-.09.93-.18,1.95-.18,2.79C247.45,327.49,249.87,329.35,253,329.35Zm6.1-34.18c-4.49,0-9,10.34-10.85,19.18,7-.37,13.09-7.54,13.09-15.36C261.35,296.66,260.81,295.17,259.11,295.17Z"/><path class="cls-3" d="M63.09,267.61c-5.09,0-8.38-2.93-8.38-7.47s3.12-7.06,6.15-7.22a8.72,8.72,0,0,1-2.44-5.72c0-4.38,3.85-7.69,9-7.69,4.23,0,6.86,2.25,6.86,5.87,0,2.69-1.46,4.73-3.59,5.19a10,10,0,0,1,2.88,7.17C73.52,263.55,69.23,267.61,63.09,267.61Zm.69-8.32c-.33,0-1.38,0-1.38.73s.47.78.75.78c.8,0,1.24-.51,1.34-1.51Zm3.7-14c-.61,0-.63.12-.63.63a1.46,1.46,0,0,0,0,.3l.41-.25a1.19,1.19,0,0,0,.3-.67Z"/><path d="M69.71,248.49a1.66,1.66,0,0,1-1.36-.64,3.28,3.28,0,0,0,1.33-2.65,1.94,1.94,0,0,0-2.2-2.07,2.53,2.53,0,0,0-2.72,2.8c0,4.53,6.67,5.15,6.67,11.81,0,5.17-4,7.7-8.34,7.7-3.38,0-6.29-1.54-6.29-5.3,0-3.33,2.29-5,4.37-5a2.32,2.32,0,0,1,2.61,2c-1.61,0-3.47.77-3.47,2.9a2.75,2.75,0,0,0,2.84,3c2,0,3.45-1.51,3.45-4.09,0-5.27-6.09-7.15-6.09-11.68,0-3.21,3-5.52,6.86-5.52,1.39,0,4.77.31,4.77,3.7C72.14,247.17,71.19,248.49,69.71,248.49Z"/><path class="cls-3" d="M77.16,267.15c-4.21,0-6.72-2.65-6.72-7.07,0-5.46,3.13-13.14,10.1-13.14,3.35,0,5.36,1.91,5.36,5.13a8.18,8.18,0,0,1-1.8,5h5l-2,3.32C84.43,264.88,81.09,267.15,77.16,267.15Z"/><path d="M79.06,262.39c2.34,0,3.77-1.36,5.25-3.11h1c-1.69,2.83-4.22,5.7-8.16,5.7-2.79,0-4.63-1.42-4.63-4.9s1.93-11,8-11c2.64,0,3.26,1.42,3.26,3,0,3.54-3.26,6.28-6.82,6.5,0,.43-.06.86-.06,1.23C76.92,261.9,77.63,262.39,79.06,262.39Zm1.72-11.65c-1.51,0-3,3.3-3.56,6.35,2.28-.16,4.3-2.53,4.3-5.09C81.52,251.23,81.34,250.74,80.78,250.74Z"/><path class="cls-3" d="M102.35,267.15a5.19,5.19,0,0,1-5.21-3.43L96.48,267H80.6l4-19.75h7.8a7,7,0,0,1,1.46-.15,5.1,5.1,0,0,1,3.47,1.23,6.12,6.12,0,0,1,3.71-1.2c3.28,0,5.39,2.22,5.39,5.65a20,20,0,0,1-.67,4.36h5l-.94,2.88C108.28,264.74,105.76,267.15,102.35,267.15Z"/><path d="M99.12,252.07c-1.07,0-1.87,1.29-2.32,2.83l-2,9.89H90.51l2.17-10.63a3.13,3.13,0,0,0,.09-.77c0-.68-.24-1.35-.89-1.35-1.16,0-2,1.32-2.41,2.86l-2,9.89H83.18l3.15-15.4H90.6l-.33,1.6a4.51,4.51,0,0,1,3.62-1.76A2.83,2.83,0,0,1,97,251.88c1.42-2.28,3-2.62,4.12-2.62,1.9,0,3.3,1,3.3,3.48s-1.43,6.23-1.43,7.95c0,.77.3,1.3,1.19,1.3,1.31,0,1.84-1.11,2.49-2.71h1.25c-1.66,5.05-4,5.7-5.52,5.7a3.22,3.22,0,0,1-3.5-3.49c0-2.09,1.33-5.88,1.33-7.85C100.18,252.62,99.83,252.07,99.12,252.07Z"/><path class="cls-3" d="M117.51,267.15a4.83,4.83,0,0,1-3.43-1.32,6.46,6.46,0,0,1-3.89,1.32c-2.79,0-6-1.87-6-7.13s3.09-13,9.71-13a7.15,7.15,0,0,1,1.47.15h8.12l-2,9.89h5l-1,2.89C123.46,265.91,120,267.15,117.51,267.15Z"/><path d="M120.87,249.39l-2.14,10.47a4.4,4.4,0,0,0-.12,1c0,.86.39,1.32,1.22,1.32,1.16,0,2-1.35,2.4-2.89h1.25c-1.69,5-4.36,5.7-6,5.7a2.76,2.76,0,0,1-2.9-2.84,5.36,5.36,0,0,1-4.42,2.84c-2,0-4-1.3-4-5,0-4.16,2.46-10.79,7.62-10.79,1.7,0,2.41.68,2.41,1.57V251l.32-1.63Zm-10.24,10.19c0,2.38,1,2.41,1.48,2.41.86,0,2.11-.93,2.47-2.71l1.42-7a1.18,1.18,0,0,0-1.22-1.17C112.26,251.14,110.63,256.69,110.63,259.58Z"/><path class="cls-3" d="M125.17,267.15c-3.15,0-5.27-2.36-5.27-5.87a12.68,12.68,0,0,1,.29-2.45l2.37-11.62h.6a4.72,4.72,0,0,1-.41-1.92,4.45,4.45,0,1,1,8.9,0,4.68,4.68,0,0,1-.64,2.38l-1.92,9.43h5.26l-1,2.89C131.28,266.22,127.33,267.15,125.17,267.15Z"/><path d="M128.52,249.39l-2.13,10.47a4.4,4.4,0,0,0-.12,1c0,.86.38,1.14,1.21,1.14,1.16,0,2.23-1.17,2.67-2.71h1.25c-1.69,5-4.63,5.7-6.23,5.7-1.78,0-3.17-1.11-3.17-3.7a10.23,10.23,0,0,1,.23-2l2-9.89Zm-1.33-6.57a2.43,2.43,0,0,1,2.37,2.47,2.36,2.36,0,1,1-2.37-2.47Z"/><path class="cls-3" d="M140.87,267.15a5.18,5.18,0,0,1-5.21-3.43L135,267h-8.55l4-19.75h7.84a6.59,6.59,0,0,1,1.27-.12c3.27,0,5.39,2.22,5.39,5.65a20,20,0,0,1-.67,4.36h5l-.95,2.88C146.8,264.74,144.28,267.15,140.87,267.15Z"/><path d="M137.63,252.07c-1.07,0-1.87,1.29-2.31,2.83l-2,9.89H129l3.14-15.4h4.28l-.33,1.6a4.35,4.35,0,0,1,3.47-1.73c1.9,0,3.29,1,3.29,3.48s-1.42,6.23-1.42,7.95c0,.77.3,1.3,1.19,1.3,1.3,0,1.84-1.11,2.49-2.71h1.24c-1.66,5.05-3.94,5.7-5.51,5.7a3.22,3.22,0,0,1-3.5-3.49c0-2.09,1.33-5.88,1.33-7.85C138.7,252.62,138.34,252.07,137.63,252.07Z"/><path class="cls-3" d="M149.32,267.15c-4.19,0-6.69-2.65-6.69-7.07,0-5.46,3.14-13.14,10.11-13.14,3.35,0,5.35,1.91,5.35,5.13a8,8,0,0,1-.54,2.89l-1,5.85C155.79,264.9,153.24,267.15,149.32,267.15Z"/><path d="M151,262.05a6,6,0,0,0,3.5-1.63c-.63,3.51-2.76,4.56-5.14,4.56-2.76,0-4.59-1.42-4.59-4.9s1.92-11,8-11c2.64,0,3.26,1.42,3.26,3,0,3.57-3.26,6.28-6.82,6.5,0,.31-.06.64-.06.92C149.12,261.43,149.92,262.05,151,262.05Zm2-11.31c-1.48,0-3,3.42-3.59,6.35,2.32-.12,4.33-2.5,4.33-5.09C153.71,251.23,153.54,250.74,153,250.74Z"/><path class="cls-3" d="M166,267.15c-2.79,0-6-1.87-6-7.13s3.09-13,9.72-13a8.37,8.37,0,0,1,1,.07l1.08-5.24,8.79-1.23-3.37,16.44h5l-1,2.89c-1.56,4.63-4.23,7-7.94,7a4.88,4.88,0,0,1-3.32-1.18A6.49,6.49,0,0,1,166,267.15Z"/><path d="M177.93,243.22l-3.41,16.64a4.4,4.4,0,0,0-.12,1c0,.86.38,1.14,1.21,1.14,1.16,0,2-1.17,2.41-2.71h1.24c-1.69,5-4.36,5.51-6,5.51a2.76,2.76,0,0,1-2.91-2.65A5.25,5.25,0,0,1,166,265c-2,0-3.95-1.3-3.95-5,0-4.16,2.47-10.79,7.63-10.79,1.69,0,2.4.68,2.4,1.57v.13l1.46-7.09Zm-7.57,16.06,1.45-7.06a1.18,1.18,0,0,0-1.21-1.08c-2.52,0-4.16,5.55-4.16,8.44,0,2.38.95,2.41,1.49,2.41a3,3,0,0,0,2.43-2.56Z"/><path class="cls-3" d="M182.2,267.15c-4.19,0-6.69-2.65-6.69-7.07,0-5.46,3.14-13.14,10.1-13.14,3.36,0,5.36,1.91,5.36,5.13a8,8,0,0,1-.54,2.89l-1,5.85C188.67,264.9,186.11,267.15,182.2,267.15Z"/><path d="M183.83,262.05a6,6,0,0,0,3.5-1.63c-.62,3.51-2.76,4.56-5.13,4.56-2.76,0-4.6-1.42-4.6-4.9s1.93-11,8-11c2.64,0,3.27,1.42,3.27,3,0,3.57-3.27,6.28-6.83,6.5,0,.31-.06.64-.06.92C182,261.43,182.79,262.05,183.83,262.05Zm2-11.31c-1.48,0-3,3.42-3.59,6.35,2.31-.12,4.33-2.5,4.33-5.09C186.59,251.23,186.41,250.74,185.85,250.74Z"/><path class="cls-3" d="M198.25,267.15c-3.15,0-5.26-2.36-5.26-5.87a12.58,12.58,0,0,1,.28-2.45l3.48-16.94,8.8-1.23-3.37,16.44h5.25l-1,2.89C204.36,266.22,200.42,267.15,198.25,267.15Z"/><path d="M202.88,243.22l-3.41,16.64a4.4,4.4,0,0,0-.12,1c0,.86.39,1.14,1.22,1.14,1.16,0,2.22-1.17,2.67-2.71h1.25c-1.7,5-4.63,5.7-6.24,5.7-1.78,0-3.17-1.11-3.17-3.7a10.3,10.3,0,0,1,.24-2l3.17-15.44Z"/><path class="cls-3" d="M214.13,267.15a4.76,4.76,0,0,1-3.39-1.34,6.45,6.45,0,0,1-3.94,1.34c-2.78,0-6-1.87-6-7.13s3.09-13,9.72-13a7.23,7.23,0,0,1,1.47.15h8.11l-2.46,12.06,3.24-1.45-1.79,4.83C218.38,264.44,217.38,267.15,214.13,267.15Z"/><path d="M217.48,249.39l-2.13,10.47a4.4,4.4,0,0,0-.12,1c0,.86.38,1.14,1.21,1.14a1.39,1.39,0,0,0,.66-.13c-.81,2.16-1.37,3.12-3,3.12s-2.67-1.08-2.91-2.87A5.33,5.33,0,0,1,206.8,265c-2,0-4-1.3-4-5,0-4.16,2.47-10.79,7.63-10.79,1.69,0,2.4.68,2.4,1.57V251l.33-1.63Zm-10.23,10.19c0,2.38.95,2.41,1.48,2.41a3,3,0,0,0,2.46-2.71l1.43-7a1.18,1.18,0,0,0-1.22-1.17C208.88,251.14,207.25,256.69,207.25,259.58Z"/></g></g></g></svg>