<svg xmlns="http://www.w3.org/2000/svg" xmlns:xlink="http://www.w3.org/1999/xlink" viewBox="0 0 561.19 164.59"><defs><style>.cls-1{fill:none}.cls-2{clip-path:url(#clip-path)}.cls-3{fill:#ff8000}</style><clipPath id="clip-path" transform="translate(-44.79 -45.32)"><rect width="650.93" height="254.85" class="cls-1"/></clipPath></defs><g id="Layer_2" data-name="Layer 2"><g id="skip_logos" data-name="skip logos"><g class="cls-2"><path d="M121.47,46.9a9.5,9.5,0,0,1,10.5,0,231.28,231.28,0,0,1,23.21,16.71s2,1.4,2.07-1c0,0-.33-7,.51-9.11a4.13,4.13,0,0,1,3.88-2.8s9.11.46,14.9,1.23a5.66,5.66,0,0,1,4.77,5.14s3.72,24.83,4.56,33.78c0,0,.73,4.56,7.32,12.28,0,0,13.31,18.68,14.95,22.35,0,0,3.13,6.51-3.57,7.37,0,0-12.25,1.24-13.4,1.52a3.05,3.05,0,0,0-2.75,3.31.31.31,0,0,1,0,.1s-.63,43.17-3.79,63.92c0,0-.82,8.23-5.4,8,0,0-12.56-.41-15.47-.32,0,0-1.28.09-1.08-1.69,0,0,6.39-67.34,2.05-101.39,0,0-.17-4.4-3.54-5.31,0,0-3-1.23-6,2.8,0,0-19.92,25.29-19.89,60.76,0,0-.36,10.77,1.28,13.52,0,0,1,1.89,6.21,2.31l6.6.88s1.22,0,1.12,1.61c0,0-1.52,19.75-2,23.26a6.74,6.74,0,0,1-.48,2.34s-.24.67-2.31.59c0,0-29-.21-32.31,0,0,0-1.37.14-1.67-.71s-2-25.51-2-29a1.81,1.81,0,0,1,1-1.73A17.41,17.41,0,0,0,119,164.83s.41-2.05.17-11.3c0,0,1.06-37.89,1.34-44,0,0,.22-2-2.46-2.45a2.5,2.5,0,0,0-3,1.85,2.23,2.23,0,0,0,0,.23s-1.89,25-1.52,34.94c0,0,.64,6.47-3.83,6.59,0,0-4.36.66-4.56-4.72,0,0,.32-24.31,1.38-36.31a2.56,2.56,0,0,0-2.38-2.61,2.62,2.62,0,0,0-3,2.18l0,.22S99.14,132.73,99.49,145c0,0,.55,6-4.2,5.73,0,0-4,.47-4.2-4.81,0,0,1.1-33.27,1.37-35.85a2.69,2.69,0,0,0-2.31-3l-.27,0A2.56,2.56,0,0,0,87,109.24l0,.25S85.2,149.27,85.46,161c0,0-.17,12,8.7,16.89,0,0,1.31.76,1.34,1.9,0,0,1,21.11,1.89,27.92,0,0,.34,1.63-1.12,1.63L74,209.9s-3.71.26-4.56-4.33c-.73-4.27-4.82-39.5-4.15-67.43a3.37,3.37,0,0,0-2.72-3.66s-11.42-1.06-14.18-1.75A4.74,4.74,0,0,1,44.94,127a4.51,4.51,0,0,1,.51-1.22s24.72-47,76-78.84" class="cls-3" transform="translate(-44.79 -45.32)"/><path d="M363.85,103.17a2.32,2.32,0,0,0-1.84-.93l-19.64,0-24.08,81.64-9.15-39.67,28-38.24a2.27,2.27,0,0,0,.41-.84l.49-1.67a1,1,0,0,0-.94-1.25h-20l-21.43,31.38,9.15-28.43a2.32,2.32,0,0,0-.37-2,2.29,2.29,0,0,0-1.84-.93H282.9L265.81,160.3c.38-10-7.35-17.83-11.85-22.8-3.65-4.05-5.85-6.93-5.45-10.13a9.14,9.14,0,0,1,8.65-8c4.92-.39,7,1.12,10.16,2.59a2.78,2.78,0,0,0,1.16.27,2.52,2.52,0,0,0,.94-.17,2.34,2.34,0,0,0,1.39-1.49l4.6-15.53-3.18-1.48-.46-.22-.16-.07h0a29.62,29.62,0,0,0-12-2.34c-17.31,0-33.06,12.39-35.65,27.63-1.82,10.66,5,18.18,10,23.67l.43.49c3.61,3.86,6.11,6.86,5.52,10.35-.83,4.88-5.57,7.66-10.15,8-5,.41-8.17-1-12.1-2.73a3.42,3.42,0,0,0-2.28-.42,2.42,2.42,0,0,0-1.61,1.58l-4.38,15-.56,1.92a46.12,46.12,0,0,0,18.58,4.36c14.74,0,27.5-5.67,35.07-19.34l-4.47,15.24a2.3,2.3,0,0,0,2.21,2.94H280l4.92-16.77,6-8.66,4.63,23.58a2.3,2.3,0,0,0,2.26,1.85h41.52l24.85-84.52a2.28,2.28,0,0,0-.36-2" class="cls-3" transform="translate(-44.79 -45.32)"/><path d="M389.72,121.12l7.37,0a3.7,3.7,0,0,1,2.72,1.07c1.15,1.17,1.59,2.84,1.47,5a41.31,41.31,0,0,1-3.59,13.41c-2.44,5.44-4.71,9.5-11.14,10.23l-5.59,0Zm-14.25,48.5,8.59,0c20.72.27,31.22-14.28,35.9-30.09,1.91-6.47,2.83-11.1,2.79-14.21-.06-6.91-1.76-12.12-5.72-16.5a20.3,20.3,0,0,0-15.11-6.59H369.21l-1.39,4.64a1.54,1.54,0,0,0,.18,1.27l.93,1.46a5.79,5.79,0,0,1,.65,4.81l-21.24,72.3a2.31,2.31,0,0,0,2.17,3h19Z" class="cls-3" transform="translate(-44.79 -45.32)"/><path d="M439.48,147.32h2.77c2.67,0,5,2.36,4.62,8.24-.37,6.09-5,25.69-14.28,25.69h-3.07Zm-21.19,42.33,12.06.06c19.27,0,26-24.17,26.59-34.31.67-11.13-5.53-16.54-12.3-16.54H431.83l-14.59,49.4a1.09,1.09,0,0,0,1.05,1.39" class="cls-3" transform="translate(-44.79 -45.32)"/><path d="M447.75,131.9h4.68L456,119.59h5.64l-3.34,11.47a.66.66,0,0,0,.63.84h4.69l8.09-27.67a.65.65,0,0,0-.62-.83h-4.69l-3.35,11.49h-5.64l3.1-10.66a.65.65,0,0,0-.62-.83h-4.68l-8.1,27.66a.66.66,0,0,0,.63.84" class="cls-3" transform="translate(-44.79 -45.32)"/><path d="M469,131.88h12s1.13-3.86,1.15-3.91a.63.63,0,0,0-.63-.84h-6.47l2.2-7.39h5.88l1.16-3.9a.66.66,0,0,0-.63-.84h-5l2-6.88H488l1.13-3.91a.65.65,0,0,0-.63-.83h-12l-.14.47L468.41,131a.65.65,0,0,0,.62.84" class="cls-3" transform="translate(-44.79 -45.32)"/><path d="M434.7,131.88h4.67l7-23.76h4.45l1.11-3.91a.66.66,0,0,0-.64-.83H437.66l-1.11,3.91a.66.66,0,0,0,.64.83h3.58L434.07,131a.65.65,0,0,0,.63.84" class="cls-3" transform="translate(-44.79 -45.32)"/><path d="M469,138.86l-14.51,49.46a1.1,1.1,0,0,0,1.06,1.39H464l14.51-49.46a1.1,1.1,0,0,0-1.05-1.39Z" class="cls-3" transform="translate(-44.79 -45.32)"/><path d="M545.55,138.86h-8.46l-6,20.51H521l5.59-19.12a1.08,1.08,0,0,0-1-1.39h-8.46L502.6,188.32a1.09,1.09,0,0,0,1,1.39h8.46l6.41-22h10.06l-6,20.57a1.09,1.09,0,0,0,1,1.39h8.46l14.53-49.46a1.09,1.09,0,0,0-1.05-1.39" class="cls-3" transform="translate(-44.79 -45.32)"/><path d="M567.21,159.59h-8.86L562,147.32h13.06l2-7.07a1.09,1.09,0,0,0-1-1.39H554.53L540,188.32a1.09,1.09,0,0,0,1,1.39h21.51l2.05-7.08a1.08,1.08,0,0,0-1-1.38H552l3.94-13.19h10.24l2.11-7.07a1.09,1.09,0,0,0-1-1.4" class="cls-3" transform="translate(-44.79 -45.32)"/><path d="M491.73,152.66a7.17,7.17,0,0,1,6.64-6.1,12.39,12.39,0,0,1,5.56,1,1.6,1.6,0,0,0,2.18-.91c.05-.15,2-6.87,2-6.87a21.55,21.55,0,0,0-8.32-1.75c-9,0-18,6.7-19.45,15.85-1,6.09,2.91,10.45,5.69,13.73,2.2,2.51,4,4.73,3.51,7.55-.68,4.27-4,6.14-7.23,6.41a12.27,12.27,0,0,1-6.7-1.18,1.5,1.5,0,0,0-2.22.94l-2.19,7.5a27.29,27.29,0,0,0,9.74,1.8c9.83,0,18.39-7.23,19.88-16.53,1-6.17-2.87-10.76-5.65-14-2.11-2.51-3.88-4.72-3.46-7.39" class="cls-3" transform="translate(-44.79 -45.32)"/><path d="M597.66,138c-9,0-18,6.7-19.45,15.85-1,6.1,2.91,10.45,5.69,13.73,2.2,2.52,4,4.73,3.52,7.55-.68,4.27-4,6.14-7.25,6.41a12.18,12.18,0,0,1-6.69-1.19,1.51,1.51,0,0,0-2.22.95l-2.19,7.5a27.38,27.38,0,0,0,9.75,1.8c9.83,0,18.38-7.23,19.87-16.53,1-6.17-2.86-10.76-5.64-14-2.12-2.51-3.89-4.72-3.47-7.39a7.18,7.18,0,0,1,6.64-6.1,12.53,12.53,0,0,1,5.56,1,1.6,1.6,0,0,0,2.18-.91c0-.15,2-6.87,2-6.87a21.63,21.63,0,0,0-8.33-1.75" class="cls-3" transform="translate(-44.79 -45.32)"/></g></g></g></svg>