<svg xmlns="http://www.w3.org/2000/svg" viewBox="0 0 314.49 382.15"><defs><style>.cls-1{isolation:isolate;}.cls-2{fill:#cf3339;}.cls-3{fill:#fff;}.cls-4{fill:#b68400;}.cls-5{fill:none;}.cls-6{fill:#edb458;}.cls-7{fill:#7f5b49;}.cls-8{fill:#d19d50;}.cls-9{fill:#4197cb;}.cls-10{fill:#009ade;}.cls-11{opacity:0.3;mix-blend-mode:multiply;}</style></defs><g class="cls-1"><g id="Layer_2" data-name="Layer 2"><g id="en"><path class="cls-2" d="M233.82,44.91h1.38l1.53,4.36h0l1.5-4.36h1.35v5.57h-.93v-4.3h0l-1.55,4.3h-.8l-1.54-4.3h0v4.3h-.93Z"/><path class="cls-2" d="M240.77,44.91h2.31a2.56,2.56,0,0,1,1.11.22,2,2,0,0,1,.76.6,2.51,2.51,0,0,1,.44.88,4,4,0,0,1,0,2.17,2.51,2.51,0,0,1-.44.88,2.05,2.05,0,0,1-.76.6,2.56,2.56,0,0,1-1.11.22h-2.31Zm1,4.77h1a2.52,2.52,0,0,0,.93-.15,1.37,1.37,0,0,0,.57-.42,1.64,1.64,0,0,0,.28-.63,4.44,4.44,0,0,0,0-1.57,1.64,1.64,0,0,0-.28-.63,1.37,1.37,0,0,0-.57-.42,2.52,2.52,0,0,0-.93-.15h-1Z"/><path class="cls-2" d="M247.87,44.78h.85l-2.23,5.83h-.85Z"/><path class="cls-2" d="M254.53,47.69a2.92,2.92,0,0,1-.23,1.2,2.82,2.82,0,0,1-.62.92,3,3,0,0,1-3.16.58,2.7,2.7,0,0,1-.9-.61,2.81,2.81,0,0,1-.6-.93,3.11,3.11,0,0,1-.21-1.16A3.08,3.08,0,0,1,249,46.5a2.82,2.82,0,0,1,.62-.92,3,3,0,0,1,.92-.59,2.9,2.9,0,0,1,3.1.59,2.82,2.82,0,0,1,.62.92A2.9,2.9,0,0,1,254.53,47.69Zm-.62,0a2.78,2.78,0,0,0-.17-1,2.35,2.35,0,0,0-.48-.76,2.08,2.08,0,0,0-.71-.5,2.11,2.11,0,0,0-.87-.17,2.21,2.21,0,0,0-.89.17,2.08,2.08,0,0,0-.71.5,2.17,2.17,0,0,0-.47.76,2.58,2.58,0,0,0-.18,1,2.85,2.85,0,0,0,.16.94,2.07,2.07,0,0,0,.45.76,2,2,0,0,0,.7.52,2.19,2.19,0,0,0,.94.19,2.11,2.11,0,0,0,.87-.17,2.08,2.08,0,0,0,.71-.5,2.35,2.35,0,0,0,.48-.76A2.76,2.76,0,0,0,253.91,47.69Zm-2.81,1.67h-.53V46.13h1.23a1.52,1.52,0,0,1,.88.22.86.86,0,0,1,.29.71.79.79,0,0,1-.24.64,1,1,0,0,1-.6.24l.91,1.42h-.6L251.6,48h-.5Zm.59-1.83H252a.61.61,0,0,0,.24-.07.38.38,0,0,0,.16-.15.53.53,0,0,0,.06-.28.41.41,0,0,0-.06-.23.43.43,0,0,0-.17-.13.77.77,0,0,0-.23-.06h-.88v.94Z"/><path class="cls-2" d="M54.43,32.78a4.49,4.49,0,0,1,3.3,1.61,5.79,5.79,0,0,1,1.51,2.69A5,5,0,0,1,59.05,40a7.23,7.23,0,0,1-1.89,2.77l-1.09,1,0,0,3.4,3.37-2.32,2.21L54.2,46l-7.43-7.58,4.19-4A5.15,5.15,0,0,1,54.43,32.78Zm1.09,4.09A2.51,2.51,0,0,0,53.75,36a2.88,2.88,0,0,0-1.9.88L50.75,38l3.69,4,1.63-1.42A2.86,2.86,0,0,0,55.52,36.87Z"/><path class="cls-2" d="M65,28.7,66.68,31l-.19.29a2.18,2.18,0,0,0-.8.38,3.07,3.07,0,0,0-1,2.88l.88,1.19,3,3.79-2.52,1.85-2.52-3.75-3.78-4.92,2.23-2,1.25,1.74.15-.11c-.21-1.59.14-2.73,1.06-3.4A3.7,3.7,0,0,1,65,28.7Z"/><path class="cls-2" d="M77.1,28.18l-5.44,3.27q1.68,2.42,4.06,1a7.88,7.88,0,0,0,2.38-2.35h.31l.77,2.24a9.58,9.58,0,0,1-2.56,2.27,5.4,5.4,0,0,1-4.25.77A5.69,5.69,0,0,1,69,32.56a5.89,5.89,0,0,1-.89-4.32,5.09,5.09,0,0,1,2.56-3.3A4.44,4.44,0,0,1,74,24.28a4.27,4.27,0,0,1,2.6,2.17,9,9,0,0,1,.59,1.23Zm-3-.65a2.08,2.08,0,0,0-1.09-1,1.58,1.58,0,0,0-1.32.22,2.12,2.12,0,0,0-1,1.29,3.17,3.17,0,0,0,.17,1.91l3.37-2.1Z"/><path class="cls-2" d="M83.25,19.12l.61,2.26-.29.27a6.51,6.51,0,0,0-1.52,0,3.62,3.62,0,0,0-1.19.3,1.28,1.28,0,0,0-.68.65.92.92,0,0,0,0,.78.94.94,0,0,0,.73.54,7.29,7.29,0,0,0,1.54,0,12.28,12.28,0,0,1,1.71,0,3.11,3.11,0,0,1,1.36.44,2.56,2.56,0,0,1,1.06,1.2,3.34,3.34,0,0,1,.31,1.79,3.55,3.55,0,0,1-.76,1.82,5.36,5.36,0,0,1-2,1.49,9.68,9.68,0,0,1-3.47.86L80,29.15l.2-.3a5.93,5.93,0,0,0,1.88.19,4.24,4.24,0,0,0,1.58-.35,1.46,1.46,0,0,0,.76-.7,1,1,0,0,0,0-.85,1,1,0,0,0-.74-.53,7.19,7.19,0,0,0-1.53,0,16.11,16.11,0,0,1-1.75,0A3,3,0,0,1,79,26.13a2.7,2.7,0,0,1-1.07-1.24,3.09,3.09,0,0,1,0-2.75,4.65,4.65,0,0,1,2.4-2.22A8.38,8.38,0,0,1,83.25,19.12Z"/><path class="cls-2" d="M95.78,20.11l-5.92,2.3q1.24,2.67,3.84,1.68a7.82,7.82,0,0,0,2.74-1.92l.3.07.38,2.34a9.89,9.89,0,0,1-2.91,1.81,5.4,5.4,0,0,1-4.32,0A5.7,5.7,0,0,1,87,23.05a5.89,5.89,0,0,1-.14-4.41A5,5,0,0,1,90,15.83a4.36,4.36,0,0,1,3.43-.08,4.29,4.29,0,0,1,2.19,2.57A9.56,9.56,0,0,1,96,19.63ZM92.93,19a2.11,2.11,0,0,0-.9-1.18,1.6,1.6,0,0,0-1.34,0,2.09,2.09,0,0,0-1.21,1.1,3.21,3.21,0,0,0-.16,1.91L93,19.28Z"/><path class="cls-2" d="M104.34,15.71a1.89,1.89,0,0,0-.7-1.13,1.41,1.41,0,0,0-1.2-.13,3.62,3.62,0,0,0-1.89,1.6l.75,2.62,1.47,4.59-3,.86-1.09-4.38-1.82-5.93,2.77-1.07.44,1.54.16,0a8,8,0,0,1,2.24-2.4,4.11,4.11,0,0,1,2.85,0,2.81,2.81,0,0,1,1.5,2l.8,3,1.46,4.57-3,.87Z"/><path class="cls-2" d="M116.81,17l.3.18.1,1.88A7.18,7.18,0,0,1,115,20.3c-2.11.24-3.37-.55-3.76-2.35l-.3-1.94L110,12.07l-1.43.31-.15-.13-.2-1.72,1.36-.29-.39-1.77L111.81,7l.25.14.47,2.49L115.26,9l.13.14.23,1.71-2.73.59,1,5.17a1.59,1.59,0,0,0,.5,1,1.21,1.21,0,0,0,1,.11A3.61,3.61,0,0,0,116.81,17Z"/><path class="cls-2" d="M126.5,13l-6.26,1c.45,1.92,1.58,2.73,3.41,2.44a8,8,0,0,0,3.07-1.33l.28.12-.1,2.37a9.33,9.33,0,0,1-3.21,1.18,5.39,5.39,0,0,1-4.24-.84,5.74,5.74,0,0,1-2.11-3.88,5.9,5.9,0,0,1,.76-4.34,5,5,0,0,1,3.59-2.13,4.37,4.37,0,0,1,3.37.61,4.33,4.33,0,0,1,1.63,3,9.71,9.71,0,0,1,.09,1.36Zm-2.56-1.71a2.1,2.1,0,0,0-.64-1.34A1.61,1.61,0,0,0,122,9.65a2.14,2.14,0,0,0-1.41.83,3.16,3.16,0,0,0-.54,1.84l3.9-.72Z"/><path class="cls-2" d="M138.26,12.05l.26,2a1,1,0,0,0,.15.54.44.44,0,0,0,.4.12,3.48,3.48,0,0,0,.63-.15l.22.16-.1,1.66a4,4,0,0,1-1.68.75,2.11,2.11,0,0,1-1.26-.38,2.16,2.16,0,0,1-.79-1.08h-.18a9.24,9.24,0,0,1-2.2,1.84A4.48,4.48,0,0,1,130,16.34a6,6,0,0,1-1.64-3.94A5.84,5.84,0,0,1,129.44,8a5.45,5.45,0,0,1,3.89-1.85,9.49,9.49,0,0,1,1.51,0L134.31.92,137.38.4Zm-7-.55a5.62,5.62,0,0,0,.82,2.73,1.79,1.79,0,0,0,1.72.78,2.54,2.54,0,0,0,1.81-1.13l-.07-1.29-.44-4a4.1,4.1,0,0,0-1.77-.26C131.76,8.45,131.07,9.52,131.25,11.5Z"/><path class="cls-2" d="M154.15,6.77a6.14,6.14,0,0,1,1.13,3.88,6.33,6.33,0,0,1-1.39,4.47,5.12,5.12,0,0,1-3.95,1.6,7.75,7.75,0,0,1-2.64-.52l-1.64.6-.38-.3L145.4,12,145.15.26l3.1-.26,0,7.12h.14a9.07,9.07,0,0,1,1.26-1A8.22,8.22,0,0,1,151,5.4,3.78,3.78,0,0,1,154.15,6.77Zm-2.41,7a4.21,4.21,0,0,0,.63-2.59,4.73,4.73,0,0,0-.55-2.47,1.76,1.76,0,0,0-1.59-.83,3.07,3.07,0,0,0-2,1l0,2.68.08,2.65a3.65,3.65,0,0,0,1.65.41A2.18,2.18,0,0,0,151.74,13.81Z"/><path class="cls-2" d="M159.31,7.37l1.64,6.2h.19l2.24-5.75.5-1.91,2.68.14-4.08,10a10.25,10.25,0,0,1-1.4,2.5,5.74,5.74,0,0,1-1.84,1.51,11,11,0,0,1-2.78.93l-.23,0a6.58,6.58,0,0,1-1.22-1.9l.11-.3a8.51,8.51,0,0,0,2.48-.64,6.18,6.18,0,0,0,1.91-1.49l-3.45-11h3Z"/><ellipse class="cls-2" cx="151.37" cy="81.67" rx="96.49" ry="54.07"/><path class="cls-3" d="M72.48,84.52c-1.34,5.1.7,9.62,7.18,9.62,3.64,0,6.82-2.1,7.56-5.18.8-3.42-1.1-5.43-3.34-7.71l-2.11-2.2c-2.77-2.83-4.88-5.37-3.87-9.6,1.44-6.06,7.84-9.85,15-9.85a13.4,13.4,0,0,1,9.18,3.13c4.79,4.83-1.14,7.92-2.46,7.63a1.27,1.27,0,0,1-.45-.15c1.26-3.9-.09-8.24-5.51-8.24-3,0-6.81,1.63-7.47,4.4-.75,3.14,1.51,5.31,3.55,7.37l1.92,1.89c3.06,3,5.56,5.79,4.47,10.4-1.57,6.61-8.19,10.51-16,10.51-4.3,0-8.56-1.29-11-4C64.64,87.23,69.91,84.47,72.48,84.52Z"/><path class="cls-3" d="M126.65,109.42l7.56-16.74h.13c.93,2.24,3.07,3.54,6.15,3.54,9.74,0,16.53-9.42,17.38-16.35a9.77,9.77,0,0,0,0-2c-.3-3.36-2.57-5.82-7.41-5.82a12.85,12.85,0,0,0-8.9,3.59l-.12-.1.8-1.89a8.4,8.4,0,0,0-4.9-4.14L121.49,105A8.88,8.88,0,0,0,126.65,109.42Zm23.69-31c-.49,3.92-5.25,14.83-11.3,14.83-2.41,0-3.13-1.85-2.92-3.55.41-3.32,5-14.66,10.94-14.66C149.53,75,150.55,76.6,150.34,78.4Z"/><path class="cls-3" d="M124.67,92.92a2.8,2.8,0,0,1-1.19.32c-.94,0-1.12-1.26-1-1.92a20.63,20.63,0,0,1,1.56-4l6.92-14.7a10,10,0,0,0-7,0l-1.7,3c-.92-2.3-3.06-3.55-6.22-3.55-9.67,0-17.59,9.28-18.45,16.31-.52,4.25,1.72,7.89,7.36,7.89,4.57,0,8.38-2.67,10.77-5.72l.13.11a14.32,14.32,0,0,0-.44,2c-.26,2,1.3,3.64,3.84,3.64a10.37,10.37,0,0,0,4.47-1.09l1-2.17Zm-4.35-14.79C119.83,82,114.39,93,108.28,93c-2.28,0-3-2-2.78-3.55C106,85.53,111.23,75,117.14,75,119.49,75,120.53,76.38,120.32,78.13Z"/><path class="cls-3" d="M184.22,82.31l4.08-7.89-3.64-.24c-1-.06-3.39-.3-3.39-.3l-2,3.52c-1.84,3.54-7.86,15.28-13.35,15.28-1.16,0-1.9-.45-1.78-1.43.14-1.2,4.6-9.45,4.6-9.45,1-1.8,2.37-4.52,2.59-6.31.27-2.14-1.59-3.49-4.13-3.49a14.2,14.2,0,0,0-7,2.36,5.44,5.44,0,0,1,.57,1.36,7.18,7.18,0,0,1,1.74-.46.92.92,0,0,1,1,1.15c-.1.87-4.14,9-4.14,9-1,1.85-2.45,4.63-2.69,6.54-.31,2.67,1.9,4.31,5,4.29,5.37,0,9.64-3.5,12.69-7.67l.12.11a13.59,13.59,0,0,0-1,3.59c-.25,2.07,1.13,4,3.88,4a11.46,11.46,0,0,0,6.75-2.48v0a3.18,3.18,0,0,1-.2-1.63c0-.08,0-.15,0-.22a4.3,4.3,0,0,1-2,.84c-1.06,0-1.08-1.05-1-1.7C181.27,88.84,183.22,84.49,184.22,82.31Z"/><path class="cls-3" d="M225,72.28c-3.61-2.47-9.94-4.53-21-4.79l2.54-5.62a9.49,9.49,0,0,0-6.84,0L197,67.55c-7.33.33-16,2.29-31.85-.89l-.42.69C173.53,71,187,71.78,195,71.78L189.19,83.9c-.51,1.13-1.19,2.59-1.77,4a12.06,12.06,0,0,0-1.25,4.11c-.29,2.44,1.9,4.23,4.92,4.23,3.48,0,6.42-2,8.66-4.12l0-.08a7,7,0,0,1-.68-1.58,18.81,18.81,0,0,1-1.54,1.33,4.5,4.5,0,0,1-2.47,1c-1.27,0-1.41-.9-1.31-1.72.19-1.51,1.73-4.78,2.46-6.3l6.05-13.44c6-.61,13.6-1.46,17.59,1-5.75.45-11.51,2.22-15.1,6.39A15.15,15.15,0,0,0,201,87a12.33,12.33,0,0,0,.07,2.81c.77,3.92,4.33,6.55,9.91,6.55,9.38,0,17.58-7.41,18.48-14.74A8.3,8.3,0,0,0,227.85,75c3.11,1.2,5.48,3.12,6.08,4.11a7.36,7.36,0,0,0,3.83-3.66C236.45,74.12,231.16,72.58,225,72.28ZM217.35,90c-4.44,6.17-11.49,6.32-9-2.48.39-1.38,3.61-12.67,13.22-13.54a5.66,5.66,0,0,1,.86,2.07C223.13,79.48,220.45,85.77,217.35,90Z"/><path class="cls-3" d="M314.13,205.57l-12.06-29.65a4.92,4.92,0,0,0-5.62-3l-15.81,3.58,4.61-11.38a5.1,5.1,0,0,0,.27-2.84l-3.26-16.61a4.92,4.92,0,0,0-5.73-3.9l-26.71,5.09-2.77-16.43a5,5,0,0,0-2.67-3.61l-14.32-7.14a4.83,4.83,0,0,0-4.51.08l-18.2,9.92a5,5,0,0,0-2.5,5.24l-3.9-3a4.87,4.87,0,0,0-5.13-.53l-16.45,8.06-3.44-12.1a4.9,4.9,0,0,0-5.46-3.53l-28.7,4.39a4.94,4.94,0,0,0-4.08,3.95L136.36,139l-6.61-20a4.93,4.93,0,0,0-3.67-3.28l-28.77-5.95a4.85,4.85,0,0,0-3.8.79,5,5,0,0,0-2,3.32l-2.56,17a4.94,4.94,0,0,0,.38,2.79l4.41,9.79-.18.19-.08-.11-7-9.93a4.92,4.92,0,0,0-4.94-2L63.46,135.2a4.92,4.92,0,0,0-3.78,3.47l-6.14,21.19-4.62-6.92a4.88,4.88,0,0,0-4.15-2.19L30.3,151A4.9,4.9,0,0,0,26,153.79l-9.24,19.33a5,5,0,0,0,.66,5.33l1.56,1.88L9,179.89a5,5,0,0,0-5.09,4.33L0,215a5,5,0,0,0,2.44,4.92L11.35,225c-.34.09-.64.17-.9.26l-1,.35a4.93,4.93,0,0,0-2.2,1.51l-.7.83c-3,3.65-3.6,9.51-1.84,19l.58,3.15a5,5,0,0,0,4.2,4L11,263.28c-5.17,5.73-8,12.32-8,18.78,0,9.82,5.13,16,14.23,17.5l.56,3.23L12.07,330a8,8,0,0,0,1.59,6.72,7.87,7.87,0,0,0,6.18,3H24.2l5.45,31.66a12.51,12.51,0,0,0,12.41,10.76h216a12.42,12.42,0,0,0,12.37-10.57l6-34.74c4.44-2.66,9.23-7.75,11-17.44a8.06,8.06,0,0,0-3.45-8.15,26.84,26.84,0,0,0,8.54-19.41c0-5.87-2.11-10.57-6-13.58l4.16-24.15a5,5,0,0,0,4.2-4l.58-3.15c1.76-9.52,1.19-15.38-1.84-19l-.35-.41,19.45-16.25A5,5,0,0,0,314.13,205.57Z"/><path class="cls-4" d="M240.2,217.66c2.35,0,14.46,4.13,22.65,5.23,3.87.53,6.81,1.38,11.72,5.79,2.65,2.37-33.86,3.7-33.86,3.7Z"/><path class="cls-4" d="M47.48,220.55c-2.55,0-10.69,2.53-12.14,4s-4.09,4.4-4.46,5.87,15.28,1.46,15.28,1.46Z"/><path class="cls-4" d="M55.52,230.6c15-1.65,30.56-22,43.65-12.66,20,14.32,7.64,17.62,7.64,17.62l-51.29-5"/><path class="cls-3" d="M149.39,220.57c1.54,1.29-4.14,3.41-1.88,4.55s3.2-.38,4.7-.19,2.45,3,5.27,1.9,5-1.89,3.39-4.74c-1.88-3.42-5.07-.15-6.4-2.47C152.4,216,146,217.72,149.39,220.57Z"/><polygon class="cls-5" points="125.76 258.53 126.27 258.9 126.4 258.77 125.76 258.53"/><polygon class="cls-6" points="172.94 144.75 169.25 132.16 145.68 135.79 152.19 148.89 172.94 144.75"/><path class="cls-6" d="M140.08,163.1l4.9-6,3.16.78,1.64-7.6-5.56-11.17-4.61,23.59Z"/><polygon class="cls-6" points="128.31 249.7 128.57 248.52 128.16 248.37 128.31 249.7"/><polygon class="cls-6" points="126.95 256.02 127.27 254.52 123.88 254.88 126.95 256.02"/><polygon class="cls-6" points="122.28 123.01 98.66 118.1 96.73 130.18 117.66 135.42 122.28 123.01"/><path class="cls-6" d="M129.51,163.41c1.52.06,3.06.34,4-.79a4.47,4.47,0,0,1,2.15-1.58l-11.5-34.76-4,10.59Z"/><polygon class="cls-6" points="238.13 131.72 228.53 127.02 213.51 135.53 223.25 142.29 238.13 131.72"/><polygon class="cls-6" points="238.08 193.67 245.7 166.87 240.04 133.32 224.91 144.94 238.08 193.67"/><polygon class="cls-6" points="277.74 161.79 275.32 150.01 252.65 154.35 257.7 166.51 277.74 161.79"/><path class="cls-6" d="M246.34,197.26l8.95-29.38L251,157.5l-10.72,37.67a13,13,0,0,0,4.85,1.85C245.54,197.08,245.94,197.17,246.34,197.26Z"/><path class="cls-3" d="M235.39,275.54l3.5-8.64,70.69-59.08-12.06-29.65-19.89,4.49-3,3.21a12,12,0,0,0-2.16-1.83l8.26-20.39L277.44,147l-27.6,5.27-2.61,9.17-5-29.81-14.32-7.14-18.19,9.92L219.2,167l-3.6.74c.54-3.78.11-6.18-2.58-8.36a34.44,34.44,0,0,0-4.39-3.48l.82-10.78L198,136.25l-19.15,9.38.49,18.13a5.34,5.34,0,0,0-3.92,3,6.1,6.1,0,0,0-.67,2.27c1.58,0,3.18,0,4.73,0l.24,8.8c-.9-.42-1.91-.34-3.37,1.25s-4.77-.13-5.87,2.33,1.75,2.88,2.41,4.36a2.57,2.57,0,0,1,.15.77L168.88,189l-3.94-18.49-1.92-9-12.27-3,1.48-6.83,21-4.2-7.21,22.64a15.94,15.94,0,0,1,3.08-.88l7.12-22.35-5-17.75-28.7,4.4-4.93,25.26L125.09,121,96.32,115l-2.56,17,6,13.42-.58-.19-9,9.23,1,4.41c-2.07.22-3.92.89-5,3.18a4.76,4.76,0,0,0-.35,4.28l-5.22,2.46,8.83-22-7-9.93-18.06,3.53-9.08,31.33L44.85,156.07l-14.47.23-9.24,19.34L33,190,27.69,186l-18.93-.83L4.91,215.94l32.21,18.54L35.83,239l11.7,2.69,17.45,92,20.65-1.67-4-53.65L87,311.88,112,313.37l-1.18-28.8L119.85,295l23.62-19.82,8.64,21.48,15.5,1,6.84,15.36-4.86,12,19.71,10.94,27.5-50.7,13.74-11.47Zm-1.27-3.33-1.13-.38,1.94-1.62Zm61.59-90.57L305.59,206l-16.27.65-7.79-21.94Zm-16.95,4.19,7.9,22.24-53,46.14,17.74-32.69-.54-6.12,10.27-10.9c.27.53.8.82,1.8.68,3.81-.54,3.52-4.2,6.85-4.73s5.69.24,6.64-4.54c.74-3.68,1.08-5.95.12-7.78ZM226,220l-4.12-14.49,25.21-.16,1.3,13.53Zm-4.47,43.45-4.81,7.49L116.61,229.27l.7-22Zm-30.32,44.4-4.81,1.48-15.35-44.13,7.07,2.77Zm-5.13-23.59-.23-.69L188.43,272l2.27.89Zm-1.8-5.48-3.15-9.63L186,271Zm3.15,9.63,5.87-14.49,6.28,2.46-9.11,21.31ZM102.15,235.1l12.48-3.62L215.22,273.3l-3.16,4.91Zm8.18,38.29-.29-7.07,5.82,3.51-4.15,4.36ZM109.9,263l-.54-13.11,15,11.07-6.5,6.82Zm8-18.6-5.9,2.49-2.92-2.62-.1-2.35,1.21-.54Zm8.07,3.15.53,4.72-4.14.44-.89-6.77.17-.08Zm-5.62,5.37-2,.21-5.06-3.75,6.23-2.63Zm7.91-3.19-.15-1.33.41.15Zm-1,4.82L127,256l-3.07-1.14Zm-1.51,4,.64.24-.13.13Zm5.34-9,2.43.95.23.57-3.87,4.06Zm-16.41-55.41-4.12-31.22,4.91-7.78,4.39,38.46c1.69-.07,3.37-.06,5,0l-.93,6.12,4.68,10.5-9-4.85a6,6,0,0,0,0-1.46c-.39-3.59-3.91-9.15-9.77-4.52a2.76,2.76,0,0,1-2.56.58l-.15-3.49a31.86,31.86,0,0,1,5.55-2C113.37,194.31,114,194.22,114.69,194.11Zm41.22-19.75,1.38,6c-2.13-1.09-4.6-.94-8.27,2.77a6.41,6.41,0,0,1-4.05,1.7l-5.5-17.1Zm9.87,55.85-8.43-4.53L150.17,205l3.92-10.41ZM132.1,212.09,127,200.53l21,5.67L154.15,224ZM128.82,186l23.42,5.32-4.6,12.2-20.74-5.59Zm12-7.67,2.12,6.58a18,18,0,0,0-5.27.51l-11.19-2.53-1.45,9.51-3.47-1.95-.78-6.91Zm-37.54,35.09,11.18-5.5-1.45,21-13.11,4.18Zm86.95-5.23.78-12.15,12.39,5.75c-.47,3.42,3,5,5,7.15l.59,5.8Zm8.92-31.44,5.3,10.55-2.39,10.8-6.56-3.18Zm25.51,14.55c-1.66-.05-3.6.82-6.11,3.35-3.75,3.78-10.92-.34-14.08,4.45l2.33-10.56,20.38-5.12ZM209.51,219.8a2,2,0,0,0,2.09,1.37l-11.19,27.68-6.15-3.31,3.51-15.89Zm-6.6,30.4,16.83-41.57L223.25,221l-13.94,32.65ZM275.32,150l2.41,11.78-20,4.72-5-12.16ZM245.7,166.87l-7.62,26.8-13.17-48.73L240,133.32ZM228.53,127l9.61,4.7-14.89,10.57-9.74-6.76Zm-15.2,11.14,9,6.63,12.71,47c1.75,1,3.38,2.31,5.18,3.39L251,157.5l4.31,10.38-8.95,29.38a14,14,0,0,1,2.34.75l8.81-28.9,20.31-4.78-7.87,19.44A7.47,7.47,0,0,0,267,186c-2.57,2.86-7.58-.54-9.48,3.71s2.62,5.17,3.57,7.83a6.2,6.2,0,0,1,.15,2.51l-4.41,4.69-6.27,6.65-.77-8.94-15.7.09c.27-3.08-.33-5.2-2.71-7.12a35.34,35.34,0,0,0-4.25-3.4l.45-1.4c.34-.08.69-.17,1-.22l-.45-1.54,2-6.19-4.75-16.94-3.76.77Zm10.11,30.64,3.49,12-20.11,5.06-6.2-12.37Zm-18.14,1.07-7.74,1.58-4.46,22.3-2.47-1.19-.3-34.33,16.73-11.47ZM198,139l7.72,5.85-16.25,10.35-7.35-8.11ZM181.3,150l6.73,7.92.31,35.89-5.73,6Zm-10.51,57.72a9.3,9.3,0,0,1,2.4,1.62L169.51,192l10.39-6.11.44,16.26-7,7.31a21.21,21.21,0,0,1,1.74,1.9l13.31-14-1.07,11.48-7.67,7.75a12,12,0,0,0,2.07,1.49l6.93-7,19.93,6.15-12,10.05a12.19,12.19,0,0,1,.47,4.18c-.07,1.3-1.21,2.33-3.07,3.15l-2.12,9.61-5.66-3.05.46-2.3,3.69-3.09c-1.49.35-3.16.63-4.94.87l-3,2.5L179,237.32l-10-5.39-7.59-23.18-2.12-6.48a4.88,4.88,0,0,0,2.7-1.77l1.62,7a9.62,9.62,0,0,1,1.93-.45l-2.2-9.51c.07-.25.14-.5.2-.77,1.45-6.61,1.93-10-1.71-12.89-.71-.58-1.39-1.21-2.07-1.8l-2-8.45,4-8Zm-10.22-44.31L156,171.63l-15.8-5.8,5.3-6.42Zm8.68-31.2,3.69,12.59-20.75,4.14-6.51-13.09Zm-25,6.91,5.56,11.17-1.64,7.6-3.16-.78-4.9,6-.47-.44Zm-8.56,22a4.47,4.47,0,0,0-2.15,1.58c-.94,1.13-2.48.85-4,.79l-9.3-26.54,4-10.59Zm-37-42.94L122.29,123l-4.63,12.41-20.93-5.24Zm-1.87,14.7L118,138.11l9,25.74a3.75,3.75,0,0,0-1.59,2.38c-.68,2.35,1.54,4,1.33,5.74a3.05,3.05,0,0,1-.63,1.34c-1.06,1.47-3.08,3.3-3.38,6.38a3.53,3.53,0,0,0,0,.46l-2.28.59L119.27,170l-2.15-19-14.18-4.55Zm2.77,14.89,14.88,5-5.43,8-15.49-7Zm-7,7.93,16,7.88,3.7,28a5.1,5.1,0,0,0-.73-.27c-2.16-.59-1.18-4.36-4.78-4.06l-.32-7.75-12.33-17-.08,0Zm.67,10.66,8.87,12L81.41,189.2,69.32,177.55ZM78.09,170l-10.91,5.13A9.93,9.93,0,0,0,64.39,173l6-19.54,16.64-5.79Zm3.62-30.81,4.74,6.57-16,5-3.84-8.37Zm-16.45,5.37,3.39,8.07-6.26,20.27a4.81,4.81,0,0,0-2,1.54,3.09,3.09,0,0,1-2.73.86l-.93-1.4ZM55,175.31c-1.11.2-2.08.86-2.63,2.75-.67,2.35,1.55,4,1.33,5.75s-3.61,3.65-4,7.72a6.62,6.62,0,0,0,0,1.54L37.91,178.32,44,158.85ZM32.08,158.47l9.66-.25-6.39,18.29L24.6,174.76Zm-6.34,19,10.15,2L51.24,198.7c2.5-3,5.26-6.06,9.47-7.19a22.89,22.89,0,0,1,6.68-.73l1.83,11.27-3.44-4.43-11.73,7.9-5.25-3.88-7.88-5.82Zm30.43,45.85-10.38-9.08,19.35-13.08L72.88,211Zm-4.56-16.17-9.42,6.35L44,223.28l-10.52-6.34c-.18-2.2-2.84-3.41-2.45-5.6.45-2.47,1.83-3.77-2.28-6.26-.94-.57-1.77-1.06-2.53-1.48l1.17-14.3Zm-40.4-18.93,13.47.47-1.12,13.65a5.62,5.62,0,0,0-3.62-.11c-2.61.8-6,.82-2.86,5.46,1.09,1.63.06,3-.37,4.46l-8.64,1.31Zm-.33,27.82,6.45-1a5.43,5.43,0,0,0,.48.48c3.36,2.93,5.48.21,8.17.59a6.65,6.65,0,0,1,1.85.63L44.74,227l1.84,9.66Zm27.49,21.11.49-1.69,3.55,2.05-.16.53ZM67.05,330.7,45.68,217.81l8.86,7.74L72.3,330.28Zm7.82-.63L57.18,225.81l16.94-12.54,8.77,116.14ZM89.64,309,78.86,242.34l-2.32-30.86-3.36-4.32L69,181.43l10.32,9.95L96,309.4Zm19.14,1.14-9.69-.58L82.52,192.08l21-11.06.7,17c-2.49-2.11-4.93-4.66-7.41-1.37-1.66,2.2-6.58-1.5-7.42,3.26-.39,2.19,2,3.76,1.94,5.39s-3.09,3.37-3,7.17,4.06,7.62,7.56,7.59a6.76,6.76,0,0,0,3.48-.88l-3.13,16.65,9.7,3.8,1.6,39-1,1,1.07,1.24Zm1.27-30.57,26.61-27.9,6,2.35L113.45,283.5Zm10.24,11.79-5.19-6L145.2,255l4.11,1.61,3.37,7.56Zm35.1,3-8.78-21.86,7.1-5.95L164.15,295Zm-2.88-36.52,15.56,6.1,16,46-7.35,2.26Zm20.65,65.81,3.4-8.39,7.37-2.27-5.75,13.45Zm15.13,8.4-7.66-4.25L187.42,312l7.06-2.17-2.66-8.14,10.38-24.31,11,4.29,12.38-19.28L211.77,255l13.74-32.16,22.69-1.13Zm32.4-53.93,8.92-16.43,59.79-52.09,13.88-.56Z"/><polygon class="cls-6" points="305.59 206 295.71 181.64 281.53 184.71 289.32 206.65 305.59 206"/><path class="cls-6" d="M276.46,195.91c-.95,4.78-3.31,4-6.64,4.54s-3,4.19-6.85,4.73c-1,.14-1.53-.15-1.8-.68L250.9,215.4l.54,6.12L233.7,254.21l53-46.14-7.9-22.24-2.18,2.3C277.54,190,277.2,192.23,276.46,195.91Z"/><polygon class="cls-6" points="86.45 145.78 81.71 139.2 66.66 142.38 70.5 150.75 86.45 145.78"/><path class="cls-6" d="M64.39,173a9.93,9.93,0,0,1,2.79,2.15L78.09,170l9-22.35-16.64,5.79Z"/><polygon class="cls-6" points="41.74 158.22 32.08 158.47 24.6 174.76 35.35 176.51 41.74 158.22"/><path class="cls-6" d="M49.69,193.07a6.62,6.62,0,0,1,0-1.54c.4-4.07,3.81-6,4-7.72s-2-3.4-1.33-5.75c.55-1.89,1.52-2.55,2.63-2.75L44,158.85l-6.07,19.47Z"/><path class="cls-6" d="M120.81,183.55l.78,6.91,3.47,1.95,1.45-9.51,11.19,2.53a18,18,0,0,1,5.27-.51l-2.12-6.58Z"/><polygon class="cls-6" points="109.01 160.75 114.44 152.73 99.56 147.69 93.52 153.78 109.01 160.75"/><polygon class="cls-6" points="118.41 253.1 120.39 252.89 119.58 246.72 113.35 249.35 118.41 253.1"/><path class="cls-6" d="M94.14,162.47l12.33,17,.32,7.75c3.6-.3,2.62,3.47,4.78,4.06a5.1,5.1,0,0,1,.73.27l-3.7-28-16-7.88,1.51,6.88Z"/><path class="cls-6" d="M180.34,202.16l-.44-16.26L169.51,192l3.68,17.28.18.18Z"/><polygon class="cls-6" points="205.69 144.86 197.97 139.01 182.09 147.1 189.44 155.21 205.69 144.86"/><polygon class="cls-6" points="190.63 192.56 193.1 193.75 197.56 171.45 205.3 169.87 207.06 146.76 190.34 158.23 190.63 192.56"/><polygon class="cls-6" points="145.54 159.41 140.24 165.83 156.04 171.63 160.57 163.36 145.54 159.41"/><path class="cls-6" d="M139.47,167.7l5.5,17.1a6.41,6.41,0,0,0,4.05-1.7c3.67-3.71,6.14-3.86,8.27-2.77l-1.38-6Z"/><path class="cls-6" d="M162,200.5a4.88,4.88,0,0,1-2.7,1.77l2.12,6.48a6.82,6.82,0,0,1,2.2-1.25Z"/><path class="cls-6" d="M17.08,207.71c-3.1-4.64.25-4.66,2.86-5.46a5.62,5.62,0,0,1,3.62.11l1.12-13.65-13.47-.47L8.07,213.48l8.64-1.31C17.14,210.73,18.17,209.34,17.08,207.71Z"/><polygon class="cls-6" points="109.36 249.86 109.9 262.96 117.84 267.75 124.34 260.93 109.36 249.86"/><path class="cls-6" d="M28.79,205.08c4.11,2.49,2.73,3.79,2.28,6.26-.39,2.19,2.27,3.4,2.45,5.6L44,223.28l-1.85-9.76,9.42-6.35L27.43,189.3l-1.17,14.3C27,204,27.85,204.51,28.79,205.08Z"/><polygon class="cls-6" points="69.32 177.55 81.41 189.2 102.09 178.3 93.22 166.28 69.32 177.55"/><path class="cls-6" d="M107.49,278.62l-1.6-39-9.7-3.8,3.13-16.65a6.76,6.76,0,0,1-3.48.88c-3.5,0-7.49-3.8-7.56-7.59s3-5.54,3-7.17-2.33-3.2-1.94-5.39c.84-4.76,5.76-1.06,7.42-3.26,2.48-3.29,4.92-.74,7.41,1.37l-.7-17-21,11.06,16.57,117.5,9.69.58-1.2-29.28-1.07-1.24Z"/><polygon class="cls-6" points="65.14 201.18 45.79 214.26 56.17 223.34 72.88 210.97 65.14 201.18"/><polygon class="cls-6" points="74.12 213.27 57.18 225.81 74.87 330.07 82.89 329.42 74.12 213.27"/><polygon class="cls-6" points="200.62 173.51 206.82 185.88 226.93 180.82 223.44 168.8 200.62 173.51"/><polygon class="cls-6" points="184.31 278.75 186.01 271.02 181.16 269.12 184.31 278.75"/><polygon class="cls-6" points="195.53 194.93 202.09 198.11 204.47 187.31 199.18 176.76 195.53 194.93"/><path class="cls-6" d="M190.4,235.84l-3.69,3.09-.46,2.3,5.66,3.05,2.12-9.61A21.25,21.25,0,0,1,190.4,235.84Z"/><path class="cls-6" d="M209,214.75l-.59-5.8c-2-2.17-5.48-3.73-5-7.15L191,196.05l-.78,12.15Z"/><polygon class="cls-6" points="152.68 264.21 149.31 256.65 145.2 255.04 115.1 285.42 120.29 291.38 152.68 264.21"/><path class="cls-6" d="M179,237.32l3.51,1.89,3-2.5C183.42,237,181.22,237.17,179,237.32Z"/><path class="cls-6" d="M183.74,219c3.15,1,10.91,1.72,12.89,8.3l12-10.05-19.93-6.15-6.93,7A10,10,0,0,0,183.74,219Z"/><path class="cls-7" d="M119.27,170l1.22,10.72,2.28-.59a3.53,3.53,0,0,1,0-.46c.3-3.08,2.32-4.91,3.38-6.38-.59-.43-1.18-.85-1.78-1.25A17.54,17.54,0,0,0,119.27,170Z"/><path class="cls-7" d="M228.58,190.42c-.32.05-.67.14-1,.22l-.45,1.4a35.34,35.34,0,0,1,4.25,3.4c2.38,1.92,3,4,2.71,7.12l15.7-.09.77,8.94,6.27-6.65c-2.49-2.68-4.69-5.29-8.14-6.75a14,14,0,0,0-2.34-.75c-.4-.09-.8-.18-1.23-.24a13,13,0,0,1-4.85-1.85c-1.8-1.08-3.43-2.39-5.18-3.39A9.6,9.6,0,0,0,228.58,190.42Z"/><path class="cls-7" d="M164.94,170.53,168.88,189l4.13-2.43a2.57,2.57,0,0,0-.15-.77c-.66-1.48-3.52-1.9-2.41-4.36s4.32-.65,5.87-2.33,2.47-1.67,3.37-1.25l-.24-8.8c-1.55-.08-3.15-.08-4.73,0s-3.15.08-4.53.08a8.27,8.27,0,0,0-1.06.09,15.94,15.94,0,0,0-3.08.88C165.68,170.22,165.32,170.37,164.94,170.53Z"/><path class="cls-7" d="M107.17,196.48l.15,3.49a2.76,2.76,0,0,0,2.56-.58c5.86-4.63,9.38.93,9.77,4.52a6,6,0,0,1,0,1.46l9,4.85L124,199.72l.93-6.12c-1.64-.09-3.32-.1-5,0a44.79,44.79,0,0,0-5.18.54c-.66.11-1.32.2-2,.34A31.86,31.86,0,0,0,107.17,196.48Z"/><path class="cls-7" d="M54.05,205.52l11.73-7.9,3.44,4.43-1.83-11.27a22.89,22.89,0,0,0-6.68.73c-4.21,1.13-7,4.15-9.47,7.19-.83,1-1.63,2-2.44,2.94Z"/><path class="cls-7" d="M167.37,206.93a14.91,14.91,0,0,0-1.86.12,9.62,9.62,0,0,0-1.93.45,6.82,6.82,0,0,0-2.2,1.25L169,231.93l10,5.39c2.24-.15,4.44-.34,6.48-.61,1.78-.24,3.45-.52,4.94-.87a21.25,21.25,0,0,0,3.63-1.17c1.86-.82,3-1.85,3.07-3.15a12.19,12.19,0,0,0-.47-4.18c-2-6.58-9.74-7.28-12.89-8.3a10,10,0,0,1-2-.9,12,12,0,0,1-2.07-1.49,42.57,42.57,0,0,1-4.57-5.28,21.21,21.21,0,0,0-1.74-1.9l-.18-.18a9.3,9.3,0,0,0-2.4-1.62A7.94,7.94,0,0,0,167.37,206.93Z"/><polygon class="cls-6" points="247.12 205.32 221.91 205.48 226.03 219.97 248.42 218.85 247.12 205.32"/><polygon class="cls-6" points="219.74 208.63 202.91 250.2 209.31 253.64 223.25 220.99 219.74 208.63"/><polygon class="cls-6" points="176.56 315.32 173.16 323.71 178.18 326.5 183.93 313.05 176.56 315.32"/><polygon class="cls-6" points="199.61 276.35 193.33 273.89 187.47 288.38 190.5 297.66 199.61 276.35"/><polygon class="cls-6" points="126.9 197.94 147.64 203.53 152.24 191.33 128.82 186.01 126.9 197.94"/><polygon class="cls-6" points="154.09 194.61 150.17 205.02 157.35 225.68 165.78 230.21 154.09 194.61"/><polygon class="cls-6" points="178.16 267.94 171.08 265.18 186.43 309.3 191.24 307.82 178.16 267.94"/><polygon class="cls-6" points="99.93 233.11 113.04 228.93 114.49 207.93 103.31 213.43 99.93 233.11"/><path class="cls-8" d="M173.26,147.45l-21,4.2-1.48,6.83,12.27,3,1.92,9c.38-.16.74-.31,1.11-.44Z"/><polygon class="cls-8" points="133.53 250.47 131.1 249.51 129.89 255.1 133.76 251.04 133.53 250.47"/><path class="cls-8" d="M119.27,170a17.54,17.54,0,0,1,5.09,2c.6.4,1.19.82,1.78,1.25a3.05,3.05,0,0,0,.63-1.34c.21-1.75-2-3.39-1.33-5.74a3.75,3.75,0,0,1,1.59-2.38l-9-25.74L96.79,132.8l6.15,13.67L117.12,151Z"/><path class="cls-8" d="M230.12,182.69l-2,6.19.45,1.54a9.6,9.6,0,0,1,6.5,1.36l-12.71-47-9-6.63,8.28,28.36,3.76-.77Z"/><polygon class="cls-8" points="234.12 272.21 234.93 270.21 232.99 271.83 234.12 272.21"/><path class="cls-8" d="M256.82,204.76l4.41-4.69a6.2,6.2,0,0,0-.15-2.51c-.95-2.66-5.48-3.58-3.57-7.83s6.91-.85,9.48-3.71a7.47,7.47,0,0,1,2.94-2.25l7.87-19.44-20.31,4.78L248.68,198C252.13,199.47,254.33,202.08,256.82,204.76Z"/><polygon class="cls-8" points="303.28 209.1 289.4 209.66 229.61 261.75 220.69 278.19 303.28 209.1"/><path class="cls-8" d="M60.4,174.45a4.81,4.81,0,0,1,2-1.54l6.26-20.27-3.39-8.07-8.52,29.34.93,1.4A3.09,3.09,0,0,0,60.4,174.45Z"/><polygon class="cls-8" points="38.86 235.48 38.37 237.17 42.25 238.06 42.41 237.53 38.86 235.48"/><path class="cls-8" d="M48.8,201.64c.81-.94,1.61-1.94,2.44-2.94L35.89,179.48l-10.15-2,15.18,18.33Z"/><polygon class="cls-8" points="146.62 272.56 155.39 294.42 164.15 295.01 153.71 266.61 146.62 272.56"/><polygon class="cls-8" points="122.41 252.68 126.55 252.24 126.02 247.53 121.69 245.83 121.52 245.91 122.41 252.68"/><path class="cls-8" d="M119.87,193.57l-4.39-38.46-4.91,7.78,4.12,31.22A44.79,44.79,0,0,1,119.87,193.57Z"/><polygon class="cls-8" points="109.03 241.89 109.13 244.24 112.05 246.86 117.95 244.37 110.24 241.35 109.03 241.89"/><polygon class="cls-8" points="182.61 199.77 188.34 193.76 188.03 157.87 181.3 149.95 182.61 199.77"/><path class="cls-8" d="M159.73,182.08c.68.59,1.36,1.22,2.07,1.8,3.64,2.93,3.16,6.28,1.71,12.89-.06.27-.13.52-.2.77l2.2,9.51a14.91,14.91,0,0,1,1.86-.12,7.94,7.94,0,0,1,3.42.74l-9-42-4,8Z"/><polygon class="cls-8" points="110.04 266.32 110.33 273.39 111.71 274.19 115.86 269.83 110.04 266.32"/><path class="cls-8" d="M46.58,236.64,44.74,227,27.83,216.79a6.65,6.65,0,0,0-1.85-.63c-2.69-.38-4.81,2.34-8.17-.59a5.43,5.43,0,0,1-.48-.48l-6.45,1Z"/><polygon class="cls-8" points="79.34 191.38 69.02 181.43 73.18 207.16 76.54 211.48 78.86 242.34 89.64 309.01 95.99 309.39 79.34 191.38"/><polygon class="cls-8" points="54.54 225.55 45.67 217.81 67.05 330.7 72.3 330.27 54.54 225.55"/><polygon class="cls-8" points="185.88 283.54 186.11 284.23 190.71 272.86 188.43 271.97 185.88 283.54"/><path class="cls-8" d="M206.83,188.55l-2.33,10.56c3.16-4.79,10.33-.67,14.08-4.45,2.51-2.53,4.45-3.4,6.11-3.35l2.52-7.88Z"/><path class="cls-8" d="M197.77,229.65l-3.51,15.89,6.15,3.31,11.19-27.68a2,2,0,0,1-2.09-1.37Z"/><path class="cls-8" d="M179.68,216.65l7.67-7.75,1.07-11.48-13.31,14A42.57,42.57,0,0,0,179.68,216.65Z"/><polygon class="cls-8" points="142.64 254.03 136.66 251.69 110.05 279.59 113.45 283.5 142.64 254.03"/><polygon class="cls-8" points="248.2 221.68 225.51 222.81 211.77 254.97 225.53 262.37 213.15 281.65 202.2 277.36 191.82 301.67 194.48 309.81 187.42 311.98 180.63 327.86 188.29 332.11 248.2 221.68"/><polygon class="cls-8" points="147.97 206.2 126.95 200.53 132.1 212.09 154.15 223.96 147.97 206.2"/><polygon class="cls-8" points="184.08 310.02 168.07 264 152.51 257.9 176.73 312.28 184.08 310.02"/><polygon class="cls-8" points="212.06 278.21 215.22 273.3 114.63 231.48 102.14 235.1 212.06 278.21"/><polygon class="cls-8" points="117.31 207.31 116.61 229.27 216.75 270.91 221.56 263.42 117.31 207.31"/><path class="cls-9" d="M231.61,231.71c-29.39-.53-63.13-.82-81.26-.82h-.56c-18.16,0-51.9.29-81.25.82-25.47.46-51.86,1.09-55.33,2.26-.3.35-1.65,2.55,0,11.73h.34A3.83,3.83,0,0,1,17.37,249L38.28,370.44a3.8,3.8,0,0,0,3.78,3.27h216a3.79,3.79,0,0,0,3.77-3.27L282.77,249a3.83,3.83,0,0,1,3.77-3.28h.34c1.7-9.19.35-11.38.06-11.73C283.47,232.8,257.08,232.17,231.61,231.71Z"/><path class="cls-3" d="M258.09,381.7h-216a11.74,11.74,0,0,1-11.67-10l-20.31-118H6.61L5.4,247.15c-1.7-9.23-1.19-14.87,1.67-18.3l1.45-1.74,2.14-.72c3.39-1.14,13.25-1.87,57.73-2.67,29.63-.53,63.38-.82,81.39-.83h.57c18,0,51.73.3,81.4.83h0c44.48.8,54.34,1.53,57.73,2.67l2.15.72,1.45,1.74c2.86,3.42,3.37,9.07,1.66,18.3l-1.21,6.54h-3.46l-20.32,118A11.74,11.74,0,0,1,258.09,381.7Zm-212.51-16h209l20.32-118a11.83,11.83,0,0,1,3.48-6.63c-12.25-.72-37.35-1.18-46.9-1.35-29.57-.53-63.19-.82-81.11-.82h-.56c-17.95,0-51.57.29-81.11.82-9.54.17-34.64.63-46.9,1.35a11.76,11.76,0,0,1,3.48,6.64Z"/><path class="cls-10" d="M231.61,231.71c-29.39-.53-63.13-.82-81.26-.82h-.56c-18.16,0-51.9.29-81.25.82-25.47.46-51.86,1.09-55.33,2.26-.3.35-1.65,2.55,0,11.73h.34A3.83,3.83,0,0,1,17.37,249L38.28,370.44a3.8,3.8,0,0,0,3.78,3.27h216a3.79,3.79,0,0,0,3.77-3.27L282.77,249a3.83,3.83,0,0,1,3.77-3.28h.34c1.7-9.19.35-11.38.06-11.73C283.47,232.8,257.08,232.17,231.61,231.71Z"/><g class="cls-11"><path class="cls-10" d="M151.43,245.09h-2.72c-46.69.13-92.11,1.12-123.3,2.58,0,0,13.09,81.47,44.73,94.14,15.19,6.07,47.84,8.47,79.93,8.16,32.09.31,64.74-2.09,79.93-8.16,31.64-12.67,44.74-94.14,44.74-94.14C243.54,246.21,198.12,245.22,151.43,245.09Z"/></g><path d="M87.83,272.44c4.19.93,8.42,5.24,13.54,5.24a8.52,8.52,0,0,0,3.38-.65c-.4,3.9-2,6.38-4.19,6.38-5.76,0-10.83-9.22-18-9.22a7.31,7.31,0,0,0-.93,0l6-28.17c-3.5,1.47-5.63,4.52-5.63,8.86a5.66,5.66,0,0,0,.56,2.76c-2.78,0-4.31-1-4.31-3.94,0-5.4,7.41-10.57,14.14-10.57.56,0,1.08.05,1.61.09Z"/><path class="cls-3" d="M100.56,289.77c-5,0-8.69-3-12-5.65-2.09-1.67-4.45-3.58-6-3.58h-.23a6.35,6.35,0,0,1-6.91-7.64l2.1-9.85c-3.53-1.56-5.63-4.88-5.63-9.31,0-8,8.77-16.92,20.5-16.92.79,0,1.48.05,2,.1a6.4,6.4,0,0,1,5.79,7.66l-5.12,24.07c.35.18.68.37,1,.56,2,1.09,3.84,2.12,5.21,2.12a2.44,2.44,0,0,0,.94-.16,6.35,6.35,0,0,1,8.77,6.52C110.15,286.61,104.84,289.77,100.56,289.77Z"/><path d="M112.65,252.93l-2.91,13.82a6.31,6.31,0,0,0-.15,1.3c0,1.14.52,1.5,1.65,1.5a2,2,0,0,0,.88-.16c-1.08,2.84-1.85,4.1-4,4.1s-3.63-1.42-3.95-3.78c-1.21,1.88-3.14,3.78-6,3.78s-5.36-1.7-5.36-6.54c0-5.49,3.34-14.22,10.35-14.22,2.3,0,3.26.89,3.26,2.07v.28l.45-2.15Zm-13.9,13.45c0,3.13,1.29,3.17,2,3.17,1.17,0,2.86-1.22,3.35-3.58l1.93-9.18a1.56,1.56,0,0,0-1.65-1.54C101,255.25,98.75,262.56,98.75,266.38Z"/><path class="cls-3" d="M108.1,279.85a10.33,10.33,0,0,1-4.78-1.12,12.29,12.29,0,0,1-5.17,1.12c-8.05,0-11.72-6.69-11.72-12.9,0-8.3,5.31-20.58,16.71-20.58a12.87,12.87,0,0,1,2.73.28,6.27,6.27,0,0,1,1-.08h5.8a6.36,6.36,0,0,1,6.22,7.66l-2.24,10.68a6.36,6.36,0,0,1,1.43,6.75C117.13,274.11,114.94,279.85,108.1,279.85Z"/><path d="M48.36,265.61l-7.13,33.84c10.14-.81,17.57-14.08,17.57-24.92,0-7.5-3.62-13.79-12.45-13.79-16.27,0-26,9.23-26,24.63,0,5.16,1.3,6,1.4,6.89-6.92,0-10.74-2.54-10.74-9.83,0-13.48,18.48-26.34,35.25-26.34,16.46,0,23.69,9.52,23.69,20,0,12.87-10.94,27.16-29,27.16h-.5L34.3,332.08H19.84l13.65-64.44Z"/><path class="cls-3" d="M34.3,338.43H19.84a6.35,6.35,0,0,1-6.22-7.67l6.82-32.17c-13.71-.58-15.8-10.3-15.8-16.16,0-18.11,22.76-32.7,41.61-32.7,9.29,0,17,2.71,22.4,7.82A25.21,25.21,0,0,1,76.3,276C76.3,291,64.7,307,45.63,309.28L40.51,333.4A6.35,6.35,0,0,1,34.3,338.43Zm-6.62-12.71h1.47l5.05-23.84a6.43,6.43,0,0,1,.7-1.83,6.16,6.16,0,0,1,.11-1.91l5.27-25-1.5.2Z"/><path d="M97.38,298.37a2.26,2.26,0,0,0,1.05.19c4.39,0,10.6-2.89,14.71-5.78l.85,2.6c-3.62,3.95-9.93,6.84-16.9,8-1.52,17.82-11.07,29-22.81,29-8.88,0-15.28-4.24-15.28-15.21S65.49,283,85.16,283C93.37,283,97.38,288.26,97.38,298.37Zm-8.21,5.3c-2-.48-2.58-2.12-2.58-4.05,0-2.7,1.24-4.43,3-5.2-.19-4.05-1.14-5.59-3.62-5.59-6.78,0-12.7,17.63-12.7,27.07,0,6.36,1.24,7.81,4.87,7.81C82.77,323.71,87.64,315,89.17,303.67Z"/><path class="cls-3" d="M74.28,338.73c-13.55,0-21.63-8.07-21.63-21.57,0-16.84,10.08-40.56,32.51-40.56,4.8,0,15.06,1.57,17.86,14.45a32.06,32.06,0,0,0,6.46-3.47,6.36,6.36,0,0,1,9.69,3.21l.86,2.6a6.38,6.38,0,0,1-1.35,6.29c-3.67,4-9.29,7.14-15.84,8.94C99.81,326.82,88.72,338.73,74.28,338.73ZM70,299.52a42.68,42.68,0,0,0-4.62,17.64c0,4.22,1.17,6.51,3.19,7.7-1.68-3.22-1.68-7.1-1.68-9A53.91,53.91,0,0,1,70,299.52Zm11.51,5.62a40.85,40.85,0,0,0-1.83,9,34.08,34.08,0,0,0,2.59-7.76A9.88,9.88,0,0,1,81.49,305.14Z"/><path d="M146.07,283.82l-6.87,32.76a13.22,13.22,0,0,0-.38,3.08c0,2.7,1.24,3.56,3.91,3.56,3.72,0,6.3-3.66,7.73-8.47h4c-5.44,15.7-14,17.82-19.18,17.82-5.45,0-8.89-3.18-9.46-9.16-4.77,7.9-10.12,9.16-14.13,9.16-5.72,0-10.21-3.47-10.21-11.56a31.61,31.61,0,0,1,.76-6.26l6.49-30.93h13.75l-6.87,32.76a13.63,13.63,0,0,0-.29,2.69c0,2.22.76,4,2.86,4,3.73,0,6.21-3.66,7.64-8.47l6.49-30.93Z"/><path class="cls-3" d="M135.29,338.92a15.41,15.41,0,0,1-11-4.15,20.27,20.27,0,0,1-12.55,4.15c-10.06,0-16.57-7-16.57-17.91a37.06,37.06,0,0,1,.9-7.55l6.49-30.94a6.36,6.36,0,0,1,6.22-5.06h13.75a6.39,6.39,0,0,1,4.92,2.33,6.36,6.36,0,0,1,4.91-2.33h13.75a6.35,6.35,0,0,1,6.22,7.67l-5.07,24.15a6.33,6.33,0,0,1,3.24-.89h4a6.36,6.36,0,0,1,6,8.44C154.15,335.09,143.29,338.92,135.29,338.92ZM113.9,290.18l-5.43,25.87a26.18,26.18,0,0,0-.63,5c0,4.58,1.8,5.13,3.28,5.19a11,11,0,0,1-2.15-6.93,20.52,20.52,0,0,1,.41-3.93l5.28-25.16Zm17,29.36a6.4,6.4,0,0,1,1.28,3.27c.27,2.83,1.26,3.31,2.41,3.39a10.43,10.43,0,0,1-2.11-6.54,19.62,19.62,0,0,1,.53-4.45l5.25-25h-.76l-5.43,25.87a4.7,4.7,0,0,1-.12.51C131.6,317.64,131.25,318.63,130.88,319.54Z"/><path d="M174,268.6l-3.25,15.22h5.73l-.76,3.86h-5.73l-6.11,28.9a13.22,13.22,0,0,0-.38,3.08c0,2.7,1.24,3.56,3.91,3.56,3.72,0,7.16-3.66,8.59-8.47h4c-5.44,15.7-14.89,17.82-20.05,17.82-5.73,0-10.21-3.47-10.21-11.56a31.61,31.61,0,0,1,.76-6.26l5.73-27.07H153l.76-3.86H157l2.87-13.29Z"/><path class="cls-3" d="M159.91,338.92c-10.06,0-16.57-7-16.57-17.91a37.61,37.61,0,0,1,.9-7.55l4.47-21.13a5.67,5.67,0,0,1-.58-.62,6.35,6.35,0,0,1-1.33-5.27l.77-3.85a6.36,6.36,0,0,1,4.18-4.79l1.86-8.61a6.35,6.35,0,0,1,5.35-5l14.13-1.93a6.35,6.35,0,0,1,7.07,7.63l-1.68,7.87a6.28,6.28,0,0,1,2.86,2,6.35,6.35,0,0,1,1.33,5.27l-.77,3.86a6.35,6.35,0,0,1-6.23,5.11h-.58l-3.38,16a6.36,6.36,0,0,1,4.24-1.62h4a6.36,6.36,0,0,1,6,8.44C179.3,336.05,166.78,338.92,159.91,338.92Zm2.6-52a6.29,6.29,0,0,1-.1,2.07l-5.73,27.07a25.67,25.67,0,0,0-.62,4.95c0,4.44,1.69,5.09,3.14,5.18a10.38,10.38,0,0,1-2.11-6.53,19.68,19.68,0,0,1,.53-4.45l6.1-28.85a6,6,0,0,1,.67-1.78,6.69,6.69,0,0,1,.09-2.09l1.36-6.37-.75.11-1.92,8.93A6.53,6.53,0,0,1,162.51,286.92Z"/><path d="M196.19,283.82l-6.87,32.76a13.3,13.3,0,0,0-.39,3.08c0,2.7,1.25,3.56,3.92,3.56,3.72,0,7.16-3.66,8.59-8.47h4c-5.44,15.7-14.89,17.82-20,17.82-5.72,0-10.21-3.47-10.21-11.56a31.61,31.61,0,0,1,.76-6.26l6.5-30.93ZM191.9,263.3a7.69,7.69,0,0,1,7.63,7.71,7.59,7.59,0,1,1-7.63-7.71Z"/><path class="cls-3" d="M185.4,338.92c-10.06,0-16.57-7-16.57-17.91a37.79,37.79,0,0,1,.9-7.56l6.5-30.94a6.35,6.35,0,0,1,3.64-4.5,14,14,0,1,1,21.94,2.84,6.33,6.33,0,0,1,.6,4.28L197.19,310a6.33,6.33,0,0,1,4.25-1.64h4a6.36,6.36,0,0,1,6,8.44C204.79,336.05,192.27,338.92,185.4,338.92Zm2.21-48.74-5.44,25.87a26.18,26.18,0,0,0-.63,5c0,4.44,1.7,5.09,3.15,5.18a10.38,10.38,0,0,1-2.11-6.53,19.66,19.66,0,0,1,.53-4.44l5.25-25Zm4.29-20.52a1.26,1.26,0,0,0-1.19,1.35,1.18,1.18,0,0,0,1.19,1.25,1.26,1.26,0,0,0,1.28-1.25A1.34,1.34,0,0,0,191.9,269.66Z"/><path d="M225.5,292.2c-3.44,0-6,4.05-7.45,8.87L211.56,332H197.81l10.12-48.17h13.75l-1.05,5c4-4.62,8.21-5.39,11.17-5.39,6.11,0,10.6,3.18,10.6,10.88s-4.59,19.46-4.59,24.86c0,2.41,1,4,3.82,4,4.2,0,5.92-3.46,8-8.47h4c-5.35,15.79-12.7,17.82-17.76,17.82-8.3,0-11.26-5.4-11.26-10.89,0-6.55,4.3-18.4,4.3-24.56C228.94,293.94,227.79,292.2,225.5,292.2Z"/><path class="cls-3" d="M235.9,338.92c-8.5,0-14.75-4.51-16.85-11.67l-1.27,6a6.36,6.36,0,0,1-6.22,5.06H197.81a6.36,6.36,0,0,1-6.22-7.67l10.12-48.17a6.37,6.37,0,0,1,6.22-5.05h13.75a6.35,6.35,0,0,1,3.12.82,20.27,20.27,0,0,1,7-1.2c10.3,0,16.95,6.77,16.95,17.24,0,4.71-1.29,10.15-2.53,15.08a6.29,6.29,0,0,1,3.43-1h4a6.35,6.35,0,0,1,6,8.4C254.71,331.48,246.71,338.92,235.9,338.92Zm-4.31-22a28.22,28.22,0,0,0-.6,4.75c0,2.7,1,3.86,2.63,4.3a10.86,10.86,0,0,1-2.16-6.8A22.33,22.33,0,0,1,231.59,316.93Zm-26,8.7h.76l5.43-25.87a4.77,4.77,0,0,1,.13-.51,26.7,26.7,0,0,1,3.21-7.15,6.34,6.34,0,0,1-.75-1.92h-1.33Zm27.68-35.73a12.52,12.52,0,0,1,2,7.22,35.66,35.66,0,0,1-.76,6.58,44.58,44.58,0,0,0,1.51-9.38C236,291.43,235.39,290.23,233.32,289.9Z"/><path d="M268.36,323.41c3.63,0,8.21-2.4,11.27-5.1-2,11-8.88,14.26-16.52,14.26-8.88,0-14.8-4.44-14.8-15.32,0-11.08,6.21-34.29,25.78-34.29,8.5,0,10.5,4.43,10.5,9.24,0,11.18-10.5,19.65-22,20.33-.09,1-.19,2-.19,2.89C262.44,321.49,265,323.41,268.36,323.41Zm6.49-35.35c-4.77,0-9.54,10.69-11.55,19.84,7.45-.38,13.94-7.8,13.94-15.89C277.24,289.6,276.67,288.06,274.85,288.06Z"/><path class="cls-3" d="M263.11,338.92c-13.25,0-21.15-8.1-21.15-21.67,0-16.88,10-40.65,32.13-40.65,10.56,0,16.86,5.83,16.86,15.6a25.58,25.58,0,0,1-10,19.9,6.36,6.36,0,0,1,4.9,7.35C283.59,332,275.5,338.92,263.11,338.92Zm-4.35-38.5a44.15,44.15,0,0,0-4.09,16.83c0,4.92,1.3,7.51,4.57,8.49-1.91-2.28-3.16-5.63-3.16-10.32,0-1.17.12-2.43.23-3.52a6.28,6.28,0,0,1,.81-2.53,6.43,6.43,0,0,1,0-2.83C257.34,305.44,257.88,303.17,258.76,300.42Z"/><path d="M185.18,360.25l8.45-24.87h5.28v24.87l8.66-24.87h2.82l-11.2,30.27h-6V345l-8,20.68h-5.92V337.9c-4.39,1.38-6.53,4.55-6.53,9a5.75,5.75,0,0,0,.56,2.76c-2.77,0-4.31-1-4.31-3.94,0-5.41,7.42-10.57,14.14-10.57.57,0,1.09,0,1.62.08Z"/><path class="cls-3" d="M199.19,372h-6a6.34,6.34,0,0,1-4-1.41,6.33,6.33,0,0,1-4,1.41h-5.92a6.36,6.36,0,0,1-6.36-6.36V356c-6.25-.16-10.27-4.16-10.27-10.29,0-8,8.76-16.92,20.49-16.92.81,0,1.53.05,2.1.09a6.35,6.35,0,0,1,4,1.83,6.34,6.34,0,0,1,4.34-1.72h5.28a6.34,6.34,0,0,1,4.33,1.7,6.36,6.36,0,0,1,4.33-1.7h2.82a6.35,6.35,0,0,1,6,8.56l-11.2,30.28A6.36,6.36,0,0,1,199.19,372Z"/><path d="M213.57,362.48c3.18,0,5.12-1.78,7.13-4.1h1.37c-2.29,3.74-5.71,7.52-11.07,7.52-3.79,0-6.29-1.87-6.29-6.46S207.33,345,215.59,345c3.59,0,4.43,1.87,4.43,3.9,0,4.67-4.43,8.29-9.27,8.57,0,.57-.07,1.14-.07,1.63C210.68,361.83,211.64,362.48,213.57,362.48Zm2.34-15.36c-2,0-4,4.35-4.83,8.37,3.1-.2,5.84-3.33,5.84-6.7C216.92,347.77,216.68,347.12,215.91,347.12Z"/><path class="cls-3" d="M211,372.25c-7.68,0-12.64-5-12.64-12.81,0-8.65,5.34-20.83,17.23-20.83,6.45,0,10.78,4.12,10.78,10.26a13.6,13.6,0,0,1-.68,4.28,6.48,6.48,0,0,1,1.93,2.13,6.33,6.33,0,0,1-.13,6.43C223.19,368.71,217.64,372.25,211,372.25Z"/><path d="M229,362.48c3.18,0,5.12-1.78,7.13-4.1h1.37c-2.3,3.74-5.72,7.52-11.08,7.52-3.78,0-6.28-1.87-6.28-6.46S222.8,345,231.05,345c3.59,0,4.43,1.87,4.43,3.9,0,4.67-4.43,8.29-9.26,8.57,0,.57-.08,1.14-.08,1.63C226.14,361.83,227.11,362.48,229,362.48Zm2.33-15.36c-2.05,0-4,4.35-4.83,8.37,3.11-.2,5.84-3.33,5.84-6.7C232.38,347.77,232.14,347.12,231.37,347.12Z"/><path class="cls-3" d="M226.47,372.25c-7.69,0-12.65-5-12.65-12.81,0-8.65,5.35-20.83,17.23-20.83,6.46,0,10.79,4.12,10.79,10.26a13.89,13.89,0,0,1-.68,4.28,6.48,6.48,0,0,1,1.93,2.13,6.35,6.35,0,0,1-.14,6.43C238.66,368.71,233.11,372.25,226.47,372.25Z"/><path d="M255.18,345.33,247.12,351a7.66,7.66,0,0,1,1.33-.16c3,0,4.43,2.15,4.43,4.75a7,7,0,0,1-.16,1.55l-.44,2a6.79,6.79,0,0,0-.2,1.3c0,.82.32,1.5,1.57,1.5a2.62,2.62,0,0,0,1.41-.24,4.45,4.45,0,0,1-3.75,4.19c-3.3,0-5.07-1.67-5.07-4.63a10.43,10.43,0,0,1,.24-2.12l.32-1.59a6.79,6.79,0,0,0,.16-1.5c0-1.18-.4-1.95-1.45-1.95a5.05,5.05,0,0,0-3,1.51l-2.09,10h-5.8L240.48,338l6-.82-3,14.31,7.77-6.18Z"/><path class="cls-3" d="M251.31,372.25a12.27,12.27,0,0,1-6.67-1.83,6.33,6.33,0,0,1-4.2,1.59h-5.8a6.36,6.36,0,0,1-6.22-7.67l5.84-27.64a6.35,6.35,0,0,1,5.36-5l6-.82a6.36,6.36,0,0,1,7.08,7.61l-.1.47h2.62a6.36,6.36,0,0,1,3.65,11.56l-.49.34a12.29,12.29,0,0,1,.9,4.69c0,.44,0,.88-.06,1.3a6.35,6.35,0,0,1,2.22,5.28C261,368.2,255.84,372.25,251.31,372.25Z"/><path d="M87.83,272.44c4.19.93,8.42,5.24,13.54,5.24a8.52,8.52,0,0,0,3.38-.65c-.4,3.9-2,6.38-4.19,6.38-5.76,0-10.83-9.22-18-9.22a7.31,7.31,0,0,0-.93,0l6-28.17c-3.5,1.47-5.63,4.52-5.63,8.86a5.66,5.66,0,0,0,.56,2.76c-2.78,0-4.31-1-4.31-3.94,0-5.4,7.41-10.57,14.14-10.57.56,0,1.08.05,1.61.09Z"/><path d="M112.65,252.93l-2.91,13.82a6.31,6.31,0,0,0-.15,1.3c0,1.14.52,1.5,1.65,1.5a2,2,0,0,0,.88-.16c-1.08,2.84-1.85,4.1-4,4.1s-3.63-1.42-3.95-3.78c-1.21,1.88-3.14,3.78-6,3.78s-5.36-1.7-5.36-6.54c0-5.49,3.34-14.22,10.35-14.22,2.3,0,3.26.89,3.26,2.07v.28l.45-2.15Zm-13.9,13.45c0,3.13,1.29,3.17,2,3.17,1.17,0,2.86-1.22,3.35-3.58l1.93-9.18a1.56,1.56,0,0,0-1.65-1.54C101,255.25,98.75,262.56,98.75,266.38Z"/><path d="M48.36,265.61l-7.13,33.84c10.14-.81,17.57-14.08,17.57-24.92,0-7.5-3.62-13.79-12.45-13.79-16.27,0-26,9.23-26,24.63,0,5.16,1.3,6,1.4,6.89-6.92,0-10.74-2.54-10.74-9.83,0-13.48,18.48-26.34,35.25-26.34,16.46,0,23.69,9.52,23.69,20,0,12.87-10.94,27.16-29,27.16h-.5L34.3,332.08H19.84l13.65-64.44Z"/><path d="M97.38,298.37a2.26,2.26,0,0,0,1.05.19c4.39,0,10.6-2.89,14.71-5.78l.85,2.6c-3.62,3.95-9.93,6.84-16.9,8-1.52,17.82-11.07,29-22.81,29-8.88,0-15.28-4.24-15.28-15.21S65.49,283,85.16,283C93.37,283,97.38,288.26,97.38,298.37Zm-8.21,5.3c-2-.48-2.58-2.12-2.58-4.05,0-2.7,1.24-4.43,3-5.2-.19-4.05-1.14-5.59-3.62-5.59-6.78,0-12.7,17.63-12.7,27.07,0,6.36,1.24,7.81,4.87,7.81C82.77,323.71,87.64,315,89.17,303.67Z"/><path d="M146.07,283.82l-6.87,32.76a13.22,13.22,0,0,0-.38,3.08c0,2.7,1.24,3.56,3.91,3.56,3.72,0,6.3-3.66,7.73-8.47h4c-5.44,15.7-14,17.82-19.18,17.82-5.45,0-8.89-3.18-9.46-9.16-4.77,7.9-10.12,9.16-14.13,9.16-5.72,0-10.21-3.47-10.21-11.56a31.61,31.61,0,0,1,.76-6.26l6.49-30.93h13.75l-6.87,32.76a13.63,13.63,0,0,0-.29,2.69c0,2.22.76,4,2.86,4,3.73,0,6.21-3.66,7.64-8.47l6.49-30.93Z"/><path d="M174,268.6l-3.25,15.22h5.73l-.76,3.86h-5.73l-6.11,28.9a13.22,13.22,0,0,0-.38,3.08c0,2.7,1.24,3.56,3.91,3.56,3.72,0,7.16-3.66,8.59-8.47h4c-5.44,15.7-14.89,17.82-20.05,17.82-5.73,0-10.21-3.47-10.21-11.56a31.61,31.61,0,0,1,.76-6.26l5.73-27.07H153l.76-3.86H157l2.87-13.29Z"/><path d="M196.19,283.82l-6.87,32.76a13.3,13.3,0,0,0-.39,3.08c0,2.7,1.25,3.56,3.92,3.56,3.72,0,7.16-3.66,8.59-8.47h4c-5.44,15.7-14.89,17.82-20,17.82-5.72,0-10.21-3.47-10.21-11.56a31.61,31.61,0,0,1,.76-6.26l6.5-30.93ZM191.9,263.3a7.69,7.69,0,0,1,7.63,7.71,7.59,7.59,0,1,1-7.63-7.71Z"/><path d="M225.5,292.2c-3.44,0-6,4.05-7.45,8.87L211.56,332H197.81l10.12-48.17h13.75l-1.05,5c4-4.62,8.21-5.39,11.17-5.39,6.11,0,10.6,3.18,10.6,10.88s-4.59,19.46-4.59,24.86c0,2.41,1,4,3.82,4,4.2,0,5.92-3.46,8-8.47h4c-5.35,15.79-12.7,17.82-17.76,17.82-8.3,0-11.26-5.4-11.26-10.89,0-6.55,4.3-18.4,4.3-24.56C228.94,293.94,227.79,292.2,225.5,292.2Z"/><path d="M268.36,323.41c3.63,0,8.21-2.4,11.27-5.1-2,11-8.88,14.26-16.52,14.26-8.88,0-14.8-4.44-14.8-15.32,0-11.08,6.21-34.29,25.78-34.29,8.5,0,10.5,4.43,10.5,9.24,0,11.18-10.5,19.65-22,20.33-.09,1-.19,2-.19,2.89C262.44,321.49,265,323.41,268.36,323.41Zm6.49-35.35c-4.77,0-9.54,10.69-11.55,19.84,7.45-.38,13.94-7.8,13.94-15.89C277.24,289.6,276.67,288.06,274.85,288.06Z"/><path d="M185.18,360.25l8.45-24.87h5.28v24.87l8.66-24.87h2.82l-11.2,30.27h-6V345l-8,20.68h-5.92V337.9c-4.39,1.38-6.53,4.55-6.53,9a5.75,5.75,0,0,0,.56,2.76c-2.77,0-4.31-1-4.31-3.94,0-5.41,7.42-10.57,14.14-10.57.57,0,1.09,0,1.62.08Z"/><path d="M213.57,362.48c3.18,0,5.12-1.78,7.13-4.1h1.37c-2.29,3.74-5.71,7.52-11.07,7.52-3.79,0-6.29-1.87-6.29-6.46S207.33,345,215.59,345c3.59,0,4.43,1.87,4.43,3.9,0,4.67-4.43,8.29-9.27,8.57,0,.57-.07,1.14-.07,1.63C210.68,361.83,211.64,362.48,213.57,362.48Zm2.34-15.36c-2,0-4,4.35-4.83,8.37,3.1-.2,5.84-3.33,5.84-6.7C216.92,347.77,216.68,347.12,215.91,347.12Z"/><path d="M229,362.48c3.18,0,5.12-1.78,7.13-4.1h1.37c-2.3,3.74-5.72,7.52-11.08,7.52-3.78,0-6.28-1.87-6.28-6.46S222.8,345,231.05,345c3.59,0,4.43,1.87,4.43,3.9,0,4.67-4.43,8.29-9.26,8.57,0,.57-.08,1.14-.08,1.63C226.14,361.83,227.11,362.48,229,362.48Zm2.33-15.36c-2.05,0-4,4.35-4.83,8.37,3.11-.2,5.84-3.33,5.84-6.7C232.38,347.77,232.14,347.12,231.37,347.12Z"/><path d="M255.18,345.33,247.12,351a7.66,7.66,0,0,1,1.33-.16c3,0,4.43,2.15,4.43,4.75a7,7,0,0,1-.16,1.55l-.44,2a6.79,6.79,0,0,0-.2,1.3c0,.82.32,1.5,1.57,1.5a2.62,2.62,0,0,0,1.41-.24,4.45,4.45,0,0,1-3.75,4.19c-3.3,0-5.07-1.67-5.07-4.63a10.43,10.43,0,0,1,.24-2.12l.32-1.59a6.79,6.79,0,0,0,.16-1.5c0-1.18-.4-1.95-1.45-1.95a5.05,5.05,0,0,0-3,1.51l-2.09,10h-5.8L240.48,338l6-.82-3,14.31,7.77-6.18Z"/></g></g></g></svg>