<svg xmlns="http://www.w3.org/2000/svg" viewBox="0 0 937.3 240.1"><defs><style>.cls-1{fill:none;}.cls-2{fill:#fff;}.cls-3{fill:#f0f;}.cls-4{fill:blue;}</style></defs><g id="Layer_2" data-name="Layer 2"><g id="Layer_1-2" data-name="Layer 1"><g id="Group_63" data-name="Group 63"><path id="Path_50" data-name="Path 50" class="cls-1" d="M88.16,52.31a67.81,67.81,0,0,1,12,1.13L54.75,27.23a19.84,19.84,0,0,0-20.19,0A20,20,0,0,0,24.47,44.71V97.19A67.8,67.8,0,0,1,88.16,52.31Z"/><path id="Path_51" data-name="Path 51" class="cls-1" d="M613.62,95.38a21.62,21.62,0,0,0-16.39,6.51,31.74,31.74,0,0,0-7.63,18.74h46a29.07,29.07,0,0,0-6.11-18.84A20.17,20.17,0,0,0,613.62,95.38Z"/><path id="Path_52" data-name="Path 52" class="cls-1" d="M88.14,76.75a43.31,43.31,0,1,0,43.3,43.3A43.38,43.38,0,0,0,88.14,76.75Z"/><path id="Path_53" data-name="Path 53" class="cls-1" d="M322.5,97.21a23.22,23.22,0,0,0-18.94,8.14,35.89,35.89,0,0,0-6.71,23.41,38,38,0,0,0,6.71,24,25.08,25.08,0,0,0,37.56.21,37.54,37.54,0,0,0,6.62-23.82,37,37,0,0,0-6.62-23.71A22.51,22.51,0,0,0,322.5,97.21Z"/><path id="Path_54" data-name="Path 54" class="cls-1" d="M24.45,143v52.48a20.18,20.18,0,0,0,30.27,17.48l45.4-26.21a66.86,66.86,0,0,1-12,1.13A67.79,67.79,0,0,1,24.45,143Z"/><path id="Path_55" data-name="Path 55" class="cls-1" d="M185.23,102.58,139.78,76.35a67.47,67.47,0,0,1,0,87.41l45.45-26.22a20.19,20.19,0,0,0,0-35Z"/><path id="Path_56" data-name="Path 56" class="cls-1" d="M886.41,97.21a22.72,22.72,0,0,0-18.82,8.27A37,37,0,0,0,861,129.19,37.46,37.46,0,0,0,867.59,153a25.07,25.07,0,0,0,37.55-.21,38,38,0,0,0,6.72-24,36.4,36.4,0,0,0-6.61-23.42A22.91,22.91,0,0,0,886.41,97.21Z"/><path id="Path_57" data-name="Path 57" class="cls-1" d="M761,135.28a20.48,20.48,0,0,0-10.79,4.28A10.85,10.85,0,0,0,747,147.9a14,14,0,0,0,4.47,10.69,16,16,0,0,0,11.4,4.17,21.75,21.75,0,0,0,16.6-6.82,24.68,24.68,0,0,0,6.41-17.61v-4.28h-3.67A141.25,141.25,0,0,0,761,135.28Z"/><path id="Path_58" data-name="Path 58" class="cls-2" d="M347.52,94.57A31.11,31.11,0,0,0,334.7,82a39.83,39.83,0,0,0-19.14-4.48A41.09,41.09,0,0,0,277,101.69a61.55,61.55,0,0,0-5.6,27.08,63.45,63.45,0,0,0,5.6,27.38,43.23,43.23,0,0,0,15.67,18.43,41.26,41.26,0,0,0,22.9,6.51,39,39,0,0,0,19.24-4.68,31.76,31.76,0,0,0,12.93-13v16.09H373V35.94H347.52ZM341.11,153a25.1,25.1,0,0,1-37.56-.21,38,38,0,0,1-6.72-24,35.93,35.93,0,0,1,6.72-23.41,23.15,23.15,0,0,1,18.93-8.14,22.56,22.56,0,0,1,18.6,8.26,37.1,37.1,0,0,1,6.61,23.72,37.54,37.54,0,0,1-6.57,23.8Z"/><rect id="Rectangle_29" data-name="Rectangle 29" class="cls-2" x="399.25" y="79.91" width="25.44" height="99.55"/><rect id="Rectangle_30" data-name="Rectangle 30" class="cls-2" x="397.82" y="33.7" width="28.1" height="25.04"/><path id="Path_59" data-name="Path 59" class="cls-2" d="M508.78,77.46a41.09,41.09,0,0,0-19.34,4.48,34.53,34.53,0,0,0-13.65,12.83V79.9H451v99.55h25.48V123.06a25.73,25.73,0,0,1,6.61-18.53,23.26,23.26,0,0,1,17.61-6.92,16.83,16.83,0,0,1,13.77,5.3,26.41,26.41,0,0,1,4.38,16.9v59.65h25.47V118.39a46.09,46.09,0,0,0-8.76-30.74A33.26,33.26,0,0,0,508.78,77.46Z"/><path id="Path_60" data-name="Path 60" class="cls-2" d="M613,77.46A48.79,48.79,0,0,0,587.87,84a44.48,44.48,0,0,0-17.22,18.33,58.17,58.17,0,0,0-6.11,27.08,50.53,50.53,0,0,0,14.15,37.87,52.74,52.74,0,0,0,38.57,13.85,66.82,66.82,0,0,0,21.07-3.44,53.23,53.23,0,0,0,17.4-9.16L648.4,151a48,48,0,0,1-30.13,10.54,28.6,28.6,0,0,1-20.36-6.71,30.94,30.94,0,0,1-8.34-20.57h67.79v-7.12a52.52,52.52,0,0,0-11.91-36.44A41.51,41.51,0,0,0,613,77.46Zm-23.42,43.17a31.69,31.69,0,0,1,7.63-18.73,21.59,21.59,0,0,1,16.39-6.52,20.15,20.15,0,0,1,15.88,6.41,29.07,29.07,0,0,1,6.11,18.84Z"/><path id="Path_61" data-name="Path 61" class="cls-2" d="M750.63,35.93H630.72V57.51h46.82v122h26.27v-122h46.82Z"/><path id="Path_62" data-name="Path 62" class="cls-2" d="M768.75,77.46a79.77,79.77,0,0,0-22.39,3.45,78.88,78.88,0,0,0-20.16,8.75l7.13,17.5a83.4,83.4,0,0,1,17-7.63,54.68,54.68,0,0,1,16.59-2.76,19.78,19.78,0,0,1,14.55,4.48,20.47,20.47,0,0,1,4.38,14.66v4.68h-5.09a166,166,0,0,0-34.82,2.85,33.68,33.68,0,0,0-18.22,9.17,25.18,25.18,0,0,0-5.59,17.3,28.27,28.27,0,0,0,4.68,15.88A32.16,32.16,0,0,0,739.64,177a39.87,39.87,0,0,0,18.11,4.07A32.74,32.74,0,0,0,775,176.59a26.54,26.54,0,0,0,10.89-12.4v15.27h24.23V119a42.7,42.7,0,0,0-10.18-31.35A42.39,42.39,0,0,0,768.75,77.46Zm17.1,60.88A24.69,24.69,0,0,1,779.44,156a21.78,21.78,0,0,1-16.6,6.82,16.12,16.12,0,0,1-11.4-4.17A14,14,0,0,1,747,147.91a10.89,10.89,0,0,1,3.26-8.35A20.54,20.54,0,0,1,761,135.29a139.93,139.93,0,0,1,21.16-1.22h3.67Z"/><path id="Path_63" data-name="Path 63" class="cls-2" d="M931.72,101.69a41.12,41.12,0,0,0-38.58-24.22,40.18,40.18,0,0,0-18.94,4.38,30.49,30.49,0,0,0-12.83,12.52V35.94H835.9V179.47h25V163.38a31.85,31.85,0,0,0,12.94,13,39,39,0,0,0,19.24,4.68A41.23,41.23,0,0,0,916,174.58a43.32,43.32,0,0,0,15.68-18.43,63.75,63.75,0,0,0,5.6-27.38A61.65,61.65,0,0,0,931.72,101.69Zm-26.57,51.1a25.1,25.1,0,0,1-37.56.21A37.6,37.6,0,0,1,861,129.18a37.16,37.16,0,0,1,6.62-23.72,25.72,25.72,0,0,1,37.66-.12,36.27,36.27,0,0,1,6.61,23.41,38,38,0,0,1-6.71,24.07Z"/><path id="Path_64" data-name="Path 64" class="cls-3" d="M139.81,76.35,100.12,53.44A67.23,67.23,0,0,0,24.44,97.18v45.74a67.22,67.22,0,0,0,75.68,43.75l39.69-22.92a67.48,67.48,0,0,0,0-87.4Zm-51.65,87A43.31,43.31,0,1,1,131.47,120,43.38,43.38,0,0,1,88.16,163.35Z"/><path id="Path_65" data-name="Path 65" class="cls-4" d="M197.46,81.4,67,6.05a44.16,44.16,0,0,0-44.63,0A44.18,44.18,0,0,0,0,44.7V195.39a44.2,44.2,0,0,0,22.32,38.66,44.16,44.16,0,0,0,44.62,0L197.45,158.7a44.64,44.64,0,0,0,0-77.3Zm-12.22,56.14-45.45,26.22L100.1,186.68l-45.4,26.2A20.19,20.19,0,0,1,24.42,195.4V44.71A20.13,20.13,0,0,1,54.7,27.22l45.4,26.21,39.7,22.92,45.44,26.22a20.18,20.18,0,0,1,0,35Z"/></g></g></g></svg>