<svg xmlns="http://www.w3.org/2000/svg" xmlns:xlink="http://www.w3.org/1999/xlink" viewBox="0 0 502.34 736.07"><defs><style>.cls-1{fill:none;}.cls-2{isolation:isolate;}.cls-3{fill:#cf3339;}.cls-4{fill:#fff;}.cls-5{fill:#b68400;}.cls-6{fill:#edb458;}.cls-7{fill:#7f5b49;}.cls-8{fill:#d19d50;}.cls-9{fill:#4197cb;}.cls-10{fill:#009ade;}.cls-11{opacity:0.3;mix-blend-mode:multiply;}.cls-12{clip-path:url(#clip-path);}.cls-13{fill:#ff8000;}</style><clipPath id="clip-path"><rect class="cls-1" x="51.11" y="607.05" width="400.11" height="156.65"/></clipPath></defs><g class="cls-2"><g id="Layer_2" data-name="Layer 2"><g id="logo_en" data-name="logo en"><path class="cls-3" d="M373.49,67.68h2.19l2.45,7h0l2.39-7h2.17v8.9h-1.49V69.71h0l-2.47,6.87h-1.28L375,69.71h0v6.87h-1.48Z"/><path class="cls-3" d="M384.58,67.68h3.69A4.2,4.2,0,0,1,390,68a3.3,3.3,0,0,1,1.22,1,4.19,4.19,0,0,1,.7,1.42,6.62,6.62,0,0,1,0,3.46,4.05,4.05,0,0,1-.7,1.41,3.33,3.33,0,0,1-1.22,1,4.2,4.2,0,0,1-1.77.35h-3.69Zm1.56,7.63h1.53a3.92,3.92,0,0,0,1.49-.25,2.11,2.11,0,0,0,.91-.67,2.45,2.45,0,0,0,.45-1,6.17,6.17,0,0,0,.12-1.25,6.1,6.1,0,0,0-.12-1.25,2.45,2.45,0,0,0-.45-1,2.11,2.11,0,0,0-.91-.67,3.73,3.73,0,0,0-1.49-.25h-1.53Z"/><path class="cls-3" d="M395.93,67.47h1.36l-3.58,9.32h-1.36Z"/><path class="cls-3" d="M406.56,72.13a4.84,4.84,0,0,1-.36,1.9,4.4,4.4,0,0,1-1,1.47,4.34,4.34,0,0,1-1.46,1,4.45,4.45,0,0,1-1.73.34,4.63,4.63,0,0,1-1.85-.36A4.32,4.32,0,0,1,397.77,74a5.09,5.09,0,0,1,0-3.76,4.61,4.61,0,0,1,1-1.47,4.47,4.47,0,0,1,1.46-.94,4.56,4.56,0,0,1,1.76-.34,4.66,4.66,0,0,1,3.19,1.28,4.61,4.61,0,0,1,1,1.47A4.92,4.92,0,0,1,406.56,72.13Zm-1,0a4.2,4.2,0,0,0-.28-1.56,3.55,3.55,0,0,0-.76-1.22A3.42,3.42,0,0,0,402,68.28a3.53,3.53,0,0,0-1.42.28,3.59,3.59,0,0,0-1.14.79,3.88,3.88,0,0,0-.76,1.22,4.41,4.41,0,0,0-.27,1.56,4.28,4.28,0,0,0,.25,1.49,3.6,3.6,0,0,0,.71,1.22A3.44,3.44,0,0,0,402,76a3.59,3.59,0,0,0,1.39-.28,3.44,3.44,0,0,0,1.13-.79,3.55,3.55,0,0,0,.76-1.22A4.13,4.13,0,0,0,405.57,72.13Zm-4.48,2.66h-.85V69.64h1.95a2.29,2.29,0,0,1,1.41.35,1.29,1.29,0,0,1,.47,1.13,1.26,1.26,0,0,1-.38,1,1.73,1.73,0,0,1-1,.39l1.44,2.26h-1l-1.33-2.2h-.79Zm.94-2.92.46,0a.94.94,0,0,0,.38-.11.74.74,0,0,0,.26-.24.87.87,0,0,0,.1-.44.63.63,0,0,0-.11-.38.71.71,0,0,0-.27-.21,1,1,0,0,0-.36-.09l-.38,0h-1v1.51Z"/><path class="cls-3" d="M91.47,64.34l-2.29,2.21L94.43,72l-3.69,3.56L76.12,60.39l6-5.77c3.71-3.58,7.59-3.28,10.27-.49C94.79,56.63,95.33,60.61,91.47,64.34Zm-3.11-2.67c1.46-1.41,1.38-2.75.26-3.92s-2.46-1.29-3.93.12l-2,1.94,3.67,3.8Z"/><path class="cls-3" d="M108.1,60.22,104,63.3,94,49.92l4.1-3.09,1.67,2.24a6.26,6.26,0,0,1,2.42-5.53l3.26,4.34-1.13.85c-1.94,1.46-2.56,3-.83,5.28Z"/><path class="cls-3" d="M120.37,52.31c-4.22,2.53-9,1.52-11.68-3s-1.45-9.17,2.82-11.73S120.32,36,123,40.41a13.8,13.8,0,0,1,.69,1.33l-10,6c1.28,1.79,3,2,4.38,1.12a2.73,2.73,0,0,0,1.45-2.77l4.68-2.81A7.83,7.83,0,0,1,120.37,52.31Zm-8.12-7.06,5.5-3.3a2.89,2.89,0,0,0-4.18-.85A3.17,3.17,0,0,0,112.25,45.25Z"/><path class="cls-3" d="M135.65,44.18c-4,1.91-7.82.94-9.42-1.89l4.59-2.16a2.34,2.34,0,0,0,3.16.66c1.2-.56,1.57-1.4,1.24-2.08-1.15-2.44-8.56,3.22-11.19-2.34-1.21-2.58,0-5.74,4-7.6s7.1-.7,8.8,2.14l-4.28,2a2.2,2.2,0,0,0-3-.65c-1.09.51-1.48,1.22-1.13,2,1.13,2.41,8.52-3.16,11.27,2.44C140.85,39.31,139.45,42.39,135.65,44.18Z"/><path class="cls-3" d="M151.24,37.67c-4.62,1.71-9.08-.16-10.92-5.14s.27-9.28,4.94-11,9,.15,10.72,4.93a14.3,14.3,0,0,1,.44,1.44l-10.89,4c.92,2,2.54,2.48,4.09,1.9a2.72,2.72,0,0,0,1.94-2.44l5.13-1.9A7.83,7.83,0,0,1,151.24,37.67Zm-6.67-8.44,6-2.23a2.9,2.9,0,0,0-4-1.6A3.16,3.16,0,0,0,144.57,29.23Z"/><path class="cls-3" d="M169.85,22.05c-.61-2.19-2.16-3.07-4-2.55s-2.76,2.06-2.15,4.26l2.42,8.76-5,1.37-4.45-16.14,4.94-1.36.59,2.14a6.12,6.12,0,0,1,4.25-3.66c3.73-1,6.92.82,8.12,5.16l2.6,9.43-4.92,1.35Z"/><path class="cls-3" d="M178.65,16.45l-2,.41-.86-4.17,2-.42-.82-4,5-1,.83,4,3.29-.68.86,4.17-3.29.68L185,22c.2,1,.69,1.3,1.81,1.07l1.79-.37.88,4.26-2.55.53c-3.41.7-6.09-.24-7-4.5Z"/><path class="cls-3" d="M199.41,25.57c-4.86.73-8.85-2-9.63-7.27s2.18-9,7.1-9.76,8.73,2,9.48,7a12,12,0,0,1,.13,1.5L195,18.76c.5,2.15,2,3,3.61,2.71a2.73,2.73,0,0,0,2.41-2l5.4-.81A7.82,7.82,0,0,1,199.41,25.57Zm-4.79-9.63L201,15a2.9,2.9,0,0,0-3.54-2.39A3.18,3.18,0,0,0,194.62,15.94Z"/><path class="cls-3" d="M214.94,6.42a6.17,6.17,0,0,1,5.35,2.13L219.67.81,224.79.4l1.76,22.13-5.12.41-.19-2.39a5.78,5.78,0,0,1-4.93,3c-4.1.32-7.62-2.77-8-8S210.85,6.75,214.94,6.42Zm1.85,4.34c-1.91.15-3.53,1.72-3.32,4.39s2.07,4,4,3.86,3.53-1.75,3.32-4.42S218.74,10.6,216.79,10.76Z"/><path class="cls-3" d="M246.63,5.32c4.14,0,7.35,3.37,7.3,8.65s-3.36,8.61-7.47,8.57a5.89,5.89,0,0,1-5.13-2.63l0,2.34-5.13-.05L236.39,0l5.13.05-.07,7.83A5.9,5.9,0,0,1,246.63,5.32Zm-1.57,4.45c-1.92,0-3.68,1.44-3.7,4.11s1.7,4.16,3.62,4.17,3.7-1.46,3.73-4.13S247,9.79,245.06,9.77Z"/><path class="cls-3" d="M269,6.67l5.53.41L262.2,30.93l-5.51-.41,4.46-8.21L255.56,5.67l5.72.43,3.08,10.73Z"/><ellipse class="cls-3" cx="241.79" cy="126.39" rx="154.12" ry="86.36"/><path class="cls-4" d="M115.78,131c-2.15,8.15,1.11,15.37,11.47,15.37,5.81,0,10.89-3.36,12.06-8.28,1.29-5.45-1.74-8.68-5.32-12.31l-3.38-3.52c-4.42-4.51-7.8-8.58-6.18-15.33,2.3-9.68,12.52-15.73,24-15.73,6.12,0,10.89,1.72,14.66,5,7.65,7.71-1.82,12.64-3.93,12.18a2.21,2.21,0,0,1-.71-.23c2-6.24-.14-13.17-8.81-13.17-4.87,0-10.87,2.6-11.93,7-1.2,5,2.42,8.48,5.67,11.77l3.07,3c4.89,4.76,8.88,9.24,7.13,16.61-2.5,10.55-13.08,16.79-25.55,16.79-6.86,0-13.68-2.07-17.48-6.36C103.25,135.29,111.66,130.88,115.78,131Z"/><path class="cls-4" d="M202.29,170.73,214.37,144h.21c1.49,3.58,4.9,5.66,9.82,5.66,15.56,0,26.41-15,27.77-26.12a15.52,15.52,0,0,0,.07-3.23c-.47-5.36-4.09-9.29-11.83-9.29a20.61,20.61,0,0,0-14.22,5.73l-.2-.16,1.29-3a13.41,13.41,0,0,0-7.83-6.6l-25.4,56.69A14.23,14.23,0,0,0,202.29,170.73Zm37.84-49.55c-.78,6.26-8.38,23.68-18,23.68-3.85,0-5-3-4.67-5.66.66-5.3,7.93-23.43,17.48-23.43C238.85,115.77,240.48,118.3,240.13,121.18Z"/><path class="cls-4" d="M199.14,144.37a4.48,4.48,0,0,1-1.91.51c-1.5,0-1.78-2-1.65-3.06.16-1.38,1.78-4.95,2.5-6.43l11.06-23.47a15.85,15.85,0,0,0-11.17,0l-2.71,4.76c-1.48-3.68-4.9-5.68-9.93-5.68-15.45,0-28.11,14.81-29.48,26-.83,6.8,2.74,12.62,11.75,12.62,7.31,0,13.4-4.27,17.21-9.14l.2.17a24.13,24.13,0,0,0-.7,3.15c-.42,3.2,2.07,5.82,6.13,5.82a16.8,16.8,0,0,0,7.14-1.74l1.57-3.48Zm-6.95-23.63c-.78,6.25-9.47,23.67-19.23,23.67-3.64,0-4.77-3.14-4.44-5.66.75-6.18,9.14-23,18.59-23C190.85,115.77,192.52,118,192.19,120.74Z"/><path class="cls-4" d="M294.26,127.42l6.51-12.6s-3.64-.26-5.81-.39c-1.59-.1-5.41-.47-5.41-.47l-3.13,5.63C283.48,125.24,273.88,144,265.1,144c-1.84,0-3-.71-2.85-2.28.24-1.92,7.36-15.1,7.36-15.1,1.53-2.86,3.79-7.21,4.14-10.07.42-3.42-2.55-5.58-6.61-5.58-3.53,0-7.66,1.57-11.21,3.77a9.33,9.33,0,0,1,.92,2.18,11.57,11.57,0,0,1,2.77-.75,1.47,1.47,0,0,1,1.6,1.84c-.16,1.4-6.61,14.31-6.61,14.31-1.54,3-3.91,7.4-4.29,10.46-.51,4.26,3,6.88,8,6.85,8.56,0,15.39-5.6,20.26-12.26l.19.19a22.11,22.11,0,0,0-1.56,5.73c-.4,3.31,1.8,6.34,6.2,6.34a18.25,18.25,0,0,0,10.77-4v-.05a5.3,5.3,0,0,1-.31-2.61c0-.12,0-.23,0-.35a6.66,6.66,0,0,1-3.15,1.34c-1.69,0-1.72-1.68-1.59-2.71C289.55,137.86,292.66,130.9,294.26,127.42Z"/><path class="cls-4" d="M359.4,111.4c-5.77-4-15.88-7.24-33.56-7.66l4.05-9a15.15,15.15,0,0,0-10.93,0l-4.34,9.11c-11.71.53-25.58,3.67-50.87-1.41l-.67,1.1c14.1,5.82,35.64,7.07,48.32,7.07L302.2,130c-.82,1.81-1.91,4.13-2.83,6.47a19.42,19.42,0,0,0-2,6.56c-.47,3.9,3,6.76,7.86,6.76,5.56,0,10.25-3.26,13.83-6.59l0-.12a11.91,11.91,0,0,1-1.09-2.52,29,29,0,0,1-2.45,2.12,7.18,7.18,0,0,1-4,1.59c-2,0-2.24-1.43-2.08-2.73.31-2.43,2.75-7.65,3.92-10.06L323,110c9.67-1,21.74-2.31,28.11,1.55-9.2.71-18.39,3.55-24.13,10.21a24.33,24.33,0,0,0-5.92,13.14,18.71,18.71,0,0,0,.12,4.49c1.21,6.26,6.9,10.45,15.81,10.45,15,0,28.09-11.82,29.53-23.53a13.29,13.29,0,0,0-2.61-10.58c5,1.92,8.75,5,9.72,6.56a11.69,11.69,0,0,0,6.12-5.85C377.68,114.34,369.23,111.89,359.4,111.4Zm-12.23,28.27c-7.09,9.86-18.36,10.1-14.35-3.95.62-2.22,5.75-20.25,21.11-21.64a9.29,9.29,0,0,1,1.37,3.3C356.4,122.9,352.13,132.94,347.17,139.67Z"/><path class="cls-4" d="M501.75,324.31l-19.26-47.37a7.83,7.83,0,0,0-9-4.72l-25.27,5.71,7.37-18.17a8,8,0,0,0,.42-4.53l-5.19-26.53a7.85,7.85,0,0,0-9.16-6.24L399,230.6l-4.42-26.26a7.94,7.94,0,0,0-4.26-5.76l-22.88-11.41a7.77,7.77,0,0,0-7.2.13L331.2,203.15a7.94,7.94,0,0,0-4,8.37L321,206.71a7.77,7.77,0,0,0-8.19-.84L286.5,218.75,281,199.41a7.84,7.84,0,0,0-8.72-5.64l-45.84,7a7.85,7.85,0,0,0-6.51,6.3L217.81,218l-10.56-31.95a7.9,7.9,0,0,0-5.87-5.25l-45.95-9.5a7.77,7.77,0,0,0-6.06,1.27,8,8,0,0,0-3.27,5.3L142,205.08a8,8,0,0,0,.61,4.46l7,15.64-.29.3-.11-.18-11.18-15.85a7.81,7.81,0,0,0-7.88-3.18l-28.84,5.63a7.85,7.85,0,0,0-6,5.55l-9.82,33.84-7.37-11.06a7.77,7.77,0,0,0-6.63-3.49l-23.11.37a7.84,7.84,0,0,0-6.94,4.48L26.7,272.48A8,8,0,0,0,27.75,281l2.48,3-15.89-.7a7.89,7.89,0,0,0-8.12,6.91L.06,339.28A7.94,7.94,0,0,0,4,347.15l14.18,8.16c-.55.14-1,.28-1.44.41l-1.64.56a7.8,7.8,0,0,0-3.52,2.41L10.42,360c-4.85,5.82-5.75,15.19-2.94,30.38l.92,5a7.89,7.89,0,0,0,6.71,6.4l2.52,14.66c-8.25,9.14-12.75,19.67-12.75,30,0,15.68,8.18,25.6,22.73,27.95l.88,5.15-9.22,43.52a12.85,12.85,0,0,0,2.54,10.73,12.61,12.61,0,0,0,9.88,4.76h7l8.71,50.57a20,20,0,0,0,19.82,17.19H412.24A19.86,19.86,0,0,0,432,589.47L441.56,534c7.09-4.27,14.75-12.39,17.58-27.87a12.88,12.88,0,0,0-5.51-13,42.9,42.9,0,0,0,13.64-31c0-9.38-3.36-16.88-9.61-21.68l6.65-38.59a7.88,7.88,0,0,0,6.7-6.4l.94-5c2.8-15.2,1.89-24.57-3-30.39l-.54-.65,31.05-25.95A7.94,7.94,0,0,0,501.75,324.31Z"/><path class="cls-5" d="M383.68,343.62c3.75,0,23.09,6.6,36.16,8.35,6.2.84,10.9,2.2,18.74,9.24,4.23,3.79-54.09,5.91-54.09,5.91Z"/><path class="cls-5" d="M75.83,348.24c-4.06,0-17.06,4-19.39,6.37s-6.53,7-7.11,9.39,24.4,2.33,24.4,2.33Z"/><path class="cls-5" d="M88.69,364.29c24-2.64,48.8-35.18,69.71-20.23,32,22.88,12.2,28.14,12.2,28.14l-81.91-7.91"/><path class="cls-4" d="M238.63,348.26c2.45,2.06-6.62,5.46-3,7.28s5.12-.61,7.52-.31,3.91,4.85,8.41,3,7.93-3,5.42-7.57c-3-5.47-8.09-.24-10.22-3.95C243.43,341,233.22,343.71,238.63,348.26Z"/><polygon class="cls-1" points="200.88 408.9 201.69 409.5 201.9 409.27 200.88 408.9"/><polygon class="cls-6" points="276.23 227.16 270.34 207.05 232.7 212.85 243.1 233.77 276.23 227.16"/><path class="cls-6" d="M223.75,256.47l7.82-9.65,5.06,1.24,2.61-12.14-8.87-17.84L223,255.76C223.25,256,223.5,256.22,223.75,256.47Z"/><polygon class="cls-6" points="204.96 394.79 205.36 392.92 204.71 392.66 204.96 394.79"/><polygon class="cls-6" points="202.78 404.88 203.29 402.49 197.88 403.06 202.78 404.88"/><polygon class="cls-6" points="195.33 192.43 157.59 184.59 154.51 203.88 187.93 212.25 195.33 192.43"/><path class="cls-6" d="M206.87,257c2.42.1,4.88.55,6.38-1.26a7.28,7.28,0,0,1,3.43-2.53l-18.36-55.51L192,214.57Z"/><polygon class="cls-6" points="380.37 206.34 365.03 198.84 341.04 212.43 356.6 223.22 380.37 206.34"/><polygon class="cls-6" points="380.29 305.3 392.45 262.49 383.42 208.91 359.25 227.47 380.29 305.3"/><polygon class="cls-6" points="443.63 254.37 439.76 235.56 403.55 242.5 411.62 261.91 443.63 254.37"/><path class="cls-6" d="M393.47,311l14.3-46.93-6.88-16.57-17.12,60.16a20.64,20.64,0,0,0,7.75,2.95C392.21,310.74,392.84,310.88,393.47,311Z"/><path class="cls-4" d="M376,436.06l5.58-13.79L494.5,327.9l-19.26-47.37-31.78,7.17-4.84,5.14a19.54,19.54,0,0,0-3.45-2.93l13.19-32.56-5.2-26.53-44.1,8.41-4.16,14.65-8-47.62L364,194.85,334.93,210.7l15.2,52-5.76,1.18c.87-6,.18-9.88-4.12-13.35-2.41-2-4.57-4.25-7-5.56l1.32-17.23-18.35-14.18-30.58,15,.78,29a8.54,8.54,0,0,0-6.26,4.8,10,10,0,0,0-1.07,3.63c2.52-.05,5.08-.06,7.56.06l.38,14.07c-1.43-.68-3-.56-5.38,2-2.47,2.7-7.62-.19-9.38,3.73s2.8,4.6,3.84,7a3.35,3.35,0,0,1,.24,1.22l-6.6,3.88-6.28-29.52-3.07-14.43-19.6-4.83,2.36-10.9,33.59-6.7-11.51,36.15a25.23,25.23,0,0,1,4.92-1.4l11.38-35.71-8.06-28.34-45.84,7-7.87,40.35-19.95-60.39-45.95-9.51-4.1,27.21,9.65,21.43-.93-.3-14.3,14.74,1.54,7c-3.3.35-6.26,1.43-8.07,5.08-1.42,2.86-1.37,5-.56,6.85l-8.33,3.91,14.1-35.13-11.17-15.86-28.83,5.64-14.51,50L71.63,245.24l-23.11.37L33.76,276.5l19,22.9-8.5-6.29L14,291.78,7.84,340.86l51.45,29.63-2.06,7.13,18.68,4.3,27.89,146.9,33-2.67-6.47-85.69L139,494.12l39.83,2.37-1.89-46,14.49,16.68,37.73-31.66,13.8,34.3,24.75,1.66L278.65,496l-7.77,19.22,31.49,17.47,43.93-81,21.94-18.33Zm-2-5.3-1.8-.62,3.1-2.59Zm98.39-144.68L488.12,325l-26,1-12.44-35Zm-27.08,6.69,12.62,35.53L373.29,402l28.33-52.22-.85-9.77,16.4-17.42c.43.85,1.28,1.31,2.88,1.09,6.08-.85,5.61-6.71,10.93-7.56s9.1.4,10.62-7.25c1.17-5.87,1.71-9.5.18-12.42ZM361.05,347.3l-6.59-23.14,40.27-.25,2.06,21.61Zm-7.15,69.4-7.68,12-160-66.52,1.12-35.06Zm-48.44,70.92L297.78,490l-24.51-70.48,11.3,4.42ZM297.27,450l-.36-1.11L301,430.36l3.63,1.42Zm-2.87-8.76-5-15.38,7.76,3Zm5,15.38,9.36-23.14,10,3.92-14.54,34ZM163.16,371.48l19.94-5.78,160.66,66.79-5,7.85Zm13.06,61.16-.46-11.3,9.3,5.6-6.63,7ZM175.54,416l-.86-20.93,23.92,17.68-10.38,10.89Zm12.86-29.71-9.42,4-4.67-4.2-.15-3.75,1.93-.86Zm12.88,5.05.86,7.52-6.62.71-1.42-10.81.28-.13Zm-9,8.57-3.17.33-8.09-6,10-4.2Zm12.65-5.1-.25-2.13.65.25Zm-1.67,7.7-.51,2.39-4.9-1.82Zm-2.41,6.41,1,.38-.21.22Zm8.52-14.4,3.89,1.52.37.91-6.18,6.49ZM183.19,306l-6.58-49.87,7.85-12.42,7,61.43a79.1,79.1,0,0,1,8,.05L198,315l7.47,16.77L191.06,324a10.19,10.19,0,0,0,.06-2.33c-.62-5.72-6.25-14.62-15.6-7.21a4.47,4.47,0,0,1-4.1.93l-.23-5.59a51.44,51.44,0,0,1,8.86-3.24C181.08,306.32,182.14,306.17,183.19,306ZM249,274.46l2.21,9.52c-3.4-1.74-7.34-1.49-13.21,4.43a10.24,10.24,0,0,1-6.47,2.72l-8.78-27.32Zm15.76,89.2-13.45-7.24-11.48-33,6.27-16.62Zm-53.79-29-8.22-18.46,33.58,9.06,9.86,28.36Zm-5.23-41.64,37.4,8.48L235.82,321l-33.13-8.93ZM225,280.82l3.38,10.49c-2.92.05-5.88,0-8.42.83l-17.87-4-2.31,15.19-5.54-3.13-1.25-11Zm-60,56,17.85-8.78-2.32,33.53-20.93,6.68Zm138.88-8.35,1.24-19.42,19.8,9.2c-.76,5.45,4.79,7.94,8,11.42l.95,9.26Zm14.25-50.23,8.46,16.85-3.81,17.25-10.47-5.07Zm40.74,23.24c-2.65-.07-5.75,1.31-9.75,5.35-6,6.05-17.44-.54-22.49,7.12l3.72-16.87,32.55-8.19ZM334.66,347c.43,1.3,1.41,2.13,3.32,2.18l-17.87,44.23-9.82-5.29,5.6-25.38Zm-10.54,48.56L351,329.19l5.61,19.74-22.27,52.16Zm115.64-160,3.87,18.82-32,7.54-8.07-19.41Zm-47.3,26.94L380.29,305.3l-21.05-77.83,24.18-18.56ZM365,198.84l15.34,7.5L356.6,223.22,341,212.43Zm-24.27,17.79,14.43,10.59,20.3,75.06c2.79,1.59,5.39,3.68,8.28,5.41l17.12-60.16,6.88,16.57L393.47,311a21.13,21.13,0,0,1,3.75,1.2l14.07-46.16,32.44-7.63-12.57,31a12,12,0,0,0-4.7,3.59c-4.1,4.57-12.1-.86-15.14,5.93s4.18,8.27,5.7,12.51a9.65,9.65,0,0,1,.24,4L410.21,323l-10,10.62L399,319.36l-25.07.14c.42-4.92-.53-8.31-4.34-11.38-2.33-1.88-4.44-4.1-6.78-5.43l.72-2.23c.54-.14,1.09-.28,1.61-.36l-.71-2.45,3.16-9.89L360,260.7l-6,1.23Zm16.14,48.95,5.57,19.19-32.11,8.08-9.92-19.76Zm-29,1.69-12.35,2.54-7.13,35.62-3.95-1.91L304,248.68l26.72-18.31ZM316.22,218l12.34,9.34-26,16.53-11.74-13Zm-26.63,17.47,10.75,12.65.5,57.32L291.69,315Zm-16.79,92.2a14.87,14.87,0,0,1,3.84,2.58l-5.88-27.6,16.6-9.76.7,26-11.13,11.68a33.68,33.68,0,0,1,2.77,3L301,311.28l-1.72,18.35L287,342a19.49,19.49,0,0,0,3.31,2.38l11.08-11.18L333.21,343l-19.13,16.05a19.49,19.49,0,0,1,.75,6.67c-.11,2.08-1.94,3.73-4.9,5l-3.39,15.34-9.05-4.87.74-3.67,5.89-4.94a78.82,78.82,0,0,1-7.88,1.39l-4.75,4-5.6-3-16-8.61-12.13-37L254.38,319a7.89,7.89,0,0,0,4.32-2.83l2.59,11.18a15.92,15.92,0,0,1,3.08-.71l-3.52-15.2c.11-.4.22-.79.32-1.23,2.32-10.55,3.09-15.9-2.72-20.59-1.14-.92-2.23-1.92-3.32-2.86L252,273.29l6.47-12.77Zm-16.32-70.78-7.24,13.21L224,260.83l8.47-10.25Zm13.86-49.83,5.89,20.11-33.13,6.61-10.4-20.92Zm-40,11,8.87,17.84-2.61,12.14-5.06-1.24-7.82,9.65c-.25-.25-.5-.48-.75-.71Zm-13.69,35.09a7.28,7.28,0,0,0-3.43,2.53c-1.5,1.81-4,1.36-6.38,1.26L192,214.57l6.31-16.91Zm-59.09-68.58,37.74,7.84-7.4,19.82-33.42-8.37Zm-3,23.47,33.88,8.48,14.42,41.13a6,6,0,0,0-2.53,3.79c-1.08,3.76,2.46,6.38,2.13,9.18a5,5,0,0,1-1,2.13c-1.69,2.35-4.91,5.28-5.4,10.2,0,.24,0,.48,0,.73l-3.64.94-1.94-17.13-3.45-30.34-22.65-7.27ZM159,231.85l23.77,8.05-8.68,12.8-24.74-11.11Zm-11.2,12.67,25.63,12.58,5.91,44.78a6.86,6.86,0,0,0-1.17-.43c-3.43-.95-1.87-7-7.62-6.48l-.51-12.39-19.69-27.13-.13.06Zm1.07,17,14.18,19.19-33,17.41-19.32-18.6Zm-24.16,5.95-17.43,8.19a15.88,15.88,0,0,0-4.47-3.42l9.65-31.21,26.58-9.26Zm5.78-49.21,7.57,10.5-25.48,7.94-6.14-13.35Zm-26.27,8.58,5.41,12.89-10,32.38a7.75,7.75,0,0,0-3.17,2.46c-1.09,1.3-2.66,1.43-4.36,1.36l-1.49-2.23ZM87.79,276c-1.77.32-3.33,1.37-4.2,4.4-1.08,3.75,2.47,6.39,2.13,9.17s-5.77,5.84-6.41,12.33a10.72,10.72,0,0,0,.06,2.47L60.56,280.77l9.69-31.09ZM51.24,249.06l15.43-.39-10.2,29.21L39.3,275.09ZM41.11,279.44l16.21,3.19,24.52,30.7c4-4.85,8.41-9.67,15.12-11.48a36.56,36.56,0,0,1,10.68-1.17l2.92,18-5.5-7.08L86.33,324.23,78,318l-12.59-9.3Zm48.62,73.24-16.6-14.5,30.92-20.89,12.36,15.65Zm-7.3-25.82L67.39,337l3,15.59-16.8-10.13c-.3-3.52-4.55-5.45-3.92-9,.72-3.94,2.92-6-3.65-10-1.5-.91-2.82-1.69-4-2.36l1.86-22.85ZM17.91,296.62l21.51.76-1.78,21.8a9.06,9.06,0,0,0-5.79-.18c-4.17,1.27-9.53,1.31-4.57,8.72,1.75,2.61.1,4.83-.59,7.13l-13.8,2.08Zm-.54,44.45,10.32-1.56a9.11,9.11,0,0,0,.76.77c5.37,4.68,8.74.34,13.05.94a11.3,11.3,0,0,1,3,1l27,16.28,2.93,15.44Zm43.92,33.7.78-2.69,5.68,3.27-.27.85Zm45.8,149.4L73,343.86l14.15,12.36L115.49,523.5Zm12.5-1L91.34,356.63l27.05-20,14,185.51Zm23.59-33.62L126,383l-3.72-49.28-5.36-6.91-6.64-41.09,16.48,15.88,26.6,188.51Zm30.58,1.82-15.48-.92L131.81,302.75,165.3,285.1l1.11,27.15c-4-3.36-7.88-7.44-11.84-2.18-2.65,3.51-10.51-2.4-11.86,5.21-.62,3.5,3.13,6,3.11,8.61s-4.94,5.38-4.82,11.44,6.49,12.19,12.09,12.13a10.77,10.77,0,0,0,5.55-1.4l-5,26.6,15.5,6.07L171.69,441l-1.57,1.64,1.72,2Zm2-48.83L218.28,398l9.56,3.75-46.63,47.07Zm16.36,18.84-8.28-9.53,48.07-48.52,6.57,2.57L243.88,418Zm56.06,4.86-14-34.92,11.33-9.51,16.68,45.37Zm-4.6-58.34,24.86,9.74L294,491.15l-11.73,3.6ZM276.6,513,282,499.6,293.79,496l-9.18,21.49Zm24.16,13.42-12.24-6.8,10.84-25.36,11.29-3.47-4.26-13L323,439l17.49,6.84L360.24,415l-22-11.83,21.94-51.36,36.25-1.8Zm51.75-86.14L366.76,414l95.5-83.2,22.17-.9Z"/><polygon class="cls-6" points="488.12 324.99 472.34 286.08 449.69 290.99 462.13 326.03 488.12 324.99"/><path class="cls-6" d="M441.6,308.87c-1.52,7.65-5.3,6.4-10.62,7.25s-4.85,6.71-10.93,7.56c-1.6.22-2.45-.24-2.88-1.09L400.77,340l.85,9.77L373.29,402l84.59-73.7-12.62-35.53-3.48,3.68C443.31,299.37,442.77,303,441.6,308.87Z"/><polygon class="cls-6" points="138.09 228.79 130.52 218.29 106.47 223.38 112.61 236.73 138.09 228.79"/><path class="cls-6" d="M102.84,272.27a15.88,15.88,0,0,1,4.47,3.42l17.43-8.19,14.33-35.7-26.58,9.26Z"/><polygon class="cls-6" points="66.67 248.67 51.24 249.06 39.3 275.09 56.47 277.88 66.67 248.67"/><path class="cls-6" d="M79.37,304.34a10.72,10.72,0,0,1-.06-2.47c.64-6.49,6.08-9.53,6.41-12.33s-3.21-5.42-2.13-9.17c.87-3,2.43-4.08,4.2-4.4L70.25,249.68l-9.69,31.09Z"/><path class="cls-6" d="M193,289.13l1.25,11,5.54,3.13,2.31-15.19,17.87,4c2.54-.85,5.5-.78,8.42-.83L225,280.82Z"/><polygon class="cls-6" points="174.12 252.7 182.8 239.9 159.03 231.84 149.38 241.59 174.12 252.7"/><polygon class="cls-6" points="189.14 400.22 192.31 399.89 191.01 390.04 181.05 394.24 189.14 400.22"/><path class="cls-6" d="M150.38,255.45l19.69,27.13.51,12.39c5.75-.48,4.19,5.53,7.62,6.48a6.86,6.86,0,0,1,1.17.43l-5.91-44.78-25.63-12.58,2.42,11Z"/><path class="cls-6" d="M288.06,318.85l-.7-26-16.6,9.76,5.88,27.6c.1.09.19.2.29.29Z"/><polygon class="cls-6" points="328.56 227.33 316.21 217.99 290.85 230.91 302.59 243.86 328.56 227.33"/><polygon class="cls-6" points="304.49 303.51 308.44 305.43 315.57 269.81 327.92 267.27 330.74 230.37 304.02 248.68 304.49 303.51"/><polygon class="cls-6" points="232.47 250.58 224 260.83 249.24 270.09 256.48 256.88 232.47 250.58"/><path class="cls-6" d="M222.78,263.81l8.78,27.32a10.24,10.24,0,0,0,6.47-2.72c5.87-5.92,9.81-6.17,13.21-4.43L249,274.46Z"/><path class="cls-6" d="M258.7,316.2a7.89,7.89,0,0,1-4.32,2.83l3.39,10.36a11.1,11.1,0,0,1,3.52-2Z"/><path class="cls-6" d="M27.28,327.72c-5-7.41.4-7.45,4.57-8.72a9.06,9.06,0,0,1,5.79.18l1.78-21.8-21.51-.76-5,40.31,13.8-2.08C27.38,332.55,29,330.33,27.28,327.72Z"/><polygon class="cls-6" points="174.68 395.05 175.54 415.98 188.22 423.62 198.6 412.73 174.68 395.05"/><path class="cls-6" d="M46,323.52c6.57,4,4.37,6.05,3.65,10-.63,3.51,3.62,5.44,3.92,9l16.8,10.13-3-15.59,15-10.15L43.81,298.31,42,321.16C43.16,321.83,44.48,322.61,46,323.52Z"/><polygon class="cls-6" points="110.72 279.55 130.04 298.15 163.08 280.74 148.9 261.55 110.72 279.55"/><path class="cls-6" d="M171.69,441l-2.55-62.25-15.5-6.07,5-26.6a10.77,10.77,0,0,1-5.55,1.4c-5.6.06-12-6.06-12.09-12.13s4.82-8.83,4.82-11.44-3.73-5.11-3.11-8.61c1.35-7.61,9.21-1.7,11.86-5.21,4-5.26,7.86-1.18,11.84,2.18L165.3,285.1l-33.49,17.65,26.47,187.69,15.48.92-1.92-46.76-1.72-2Z"/><polygon class="cls-6" points="104.05 317.29 73.13 338.18 89.73 352.68 116.41 332.94 104.05 317.29"/><polygon class="cls-6" points="118.39 336.61 91.34 356.63 119.59 523.16 132.4 522.12 118.39 336.61"/><polygon class="cls-6" points="320.44 273.09 330.36 292.85 362.47 284.77 356.9 265.57 320.44 273.09"/><polygon class="cls-6" points="294.4 441.19 297.12 428.85 289.36 425.81 294.4 441.19"/><polygon class="cls-6" points="312.33 307.31 322.8 312.38 326.61 295.13 318.15 278.28 312.33 307.31"/><path class="cls-6" d="M304.12,372.65l-5.89,4.94-.74,3.67,9.05,4.87,3.39-15.34A35.24,35.24,0,0,1,304.12,372.65Z"/><path class="cls-6" d="M333.89,339l-.95-9.26c-3.21-3.48-8.76-6-8-11.42l-19.8-9.2-1.24,19.42Z"/><polygon class="cls-6" points="243.88 417.97 238.5 405.89 231.93 403.32 183.85 451.84 192.14 461.37 243.88 417.97"/><path class="cls-6" d="M285.89,375l5.6,3,4.75-4C293,374.47,289.47,374.79,285.89,375Z"/><path class="cls-6" d="M293.48,345.82c5,1.64,17.43,2.74,20.6,13.26L333.21,343l-31.82-9.83-11.08,11.18A17,17,0,0,0,293.48,345.82Z"/><path class="cls-7" d="M190.52,267.51l1.94,17.13,3.64-.94c0-.25,0-.49,0-.73.49-4.92,3.71-7.85,5.4-10.2-.94-.68-1.89-1.35-2.84-2A28.28,28.28,0,0,0,190.52,267.51Z"/><path class="cls-7" d="M365.11,300.1c-.52.08-1.07.22-1.61.36l-.72,2.23c2.34,1.33,4.45,3.55,6.78,5.43,3.81,3.07,4.76,6.46,4.34,11.38l25.07-.14,1.24,14.27,10-10.62c-4-4.28-7.48-8.45-13-10.78a21.13,21.13,0,0,0-3.75-1.2c-.63-.15-1.26-.29-2-.39a20.64,20.64,0,0,1-7.75-2.95c-2.89-1.73-5.49-3.82-8.28-5.41A15.26,15.26,0,0,0,365.11,300.1Z"/><path class="cls-7" d="M263.46,268.34l6.28,29.52,6.6-3.88a3.35,3.35,0,0,0-.24-1.22c-1-2.37-5.61-3-3.84-7s6.91-1,9.38-3.73c2.33-2.54,3.95-2.66,5.38-2L286.64,266c-2.48-.12-5-.11-7.56-.06s-5,.14-7.24.14a11.54,11.54,0,0,0-1.69.14,25.23,25.23,0,0,0-4.92,1.4C264.65,267.85,264.06,268.08,263.46,268.34Z"/><path class="cls-7" d="M171.19,309.78l.23,5.59a4.47,4.47,0,0,0,4.1-.93c9.35-7.41,15,1.49,15.6,7.21a10.19,10.19,0,0,1-.06,2.33l14.39,7.75L198,315l1.49-9.77a79.1,79.1,0,0,0-8-.05,69.4,69.4,0,0,0-8.27.86c-1.05.17-2.11.32-3.14.54A51.44,51.44,0,0,0,171.19,309.78Z"/><path class="cls-7" d="M86.33,324.23l18.73-12.63,5.5,7.08-2.92-18A36.56,36.56,0,0,0,97,301.85c-6.71,1.81-11.12,6.63-15.12,11.48-1.32,1.6-2.6,3.2-3.89,4.7Z"/><path class="cls-7" d="M267.34,326.47a23.81,23.81,0,0,0-3,.2,15.92,15.92,0,0,0-3.08.71,11.1,11.1,0,0,0-3.52,2l12.13,37,16,8.61c3.58-.23,7.08-.55,10.35-1a78.82,78.82,0,0,0,7.88-1.39,35.24,35.24,0,0,0,5.81-1.86c3-1.31,4.79-3,4.9-5a19.49,19.49,0,0,0-.75-6.67c-3.17-10.52-15.56-11.62-20.6-13.26a17,17,0,0,1-3.17-1.44A19.49,19.49,0,0,1,287,342c-2.84-2.51-5-5.63-7.3-8.43a33.68,33.68,0,0,0-2.77-3c-.1-.09-.19-.2-.29-.29a14.87,14.87,0,0,0-3.84-2.58A12.73,12.73,0,0,0,267.34,326.47Z"/><polygon class="cls-6" points="394.73 323.91 354.46 324.17 361.05 347.3 396.8 345.52 394.73 323.91"/><polygon class="cls-6" points="350.99 329.19 324.12 395.59 334.32 401.09 356.6 348.93 350.99 329.19"/><polygon class="cls-6" points="282.02 499.6 276.6 513.01 284.61 517.47 293.79 495.98 282.02 499.6"/><polygon class="cls-6" points="318.83 437.35 308.8 433.43 299.44 456.57 304.29 471.4 318.83 437.35"/><polygon class="cls-6" points="202.69 312.11 235.82 321.04 243.17 301.55 205.77 293.07 202.69 312.11"/><polygon class="cls-6" points="246.13 306.8 239.86 323.42 251.34 356.42 264.79 363.66 246.13 306.8"/><polygon class="cls-6" points="284.57 423.93 273.27 419.51 297.78 489.99 305.46 487.62 284.57 423.93"/><polygon class="cls-6" points="159.63 368.29 180.55 361.61 182.87 328.08 165.02 336.86 159.63 368.29"/><path class="cls-8" d="M276.74,231.48l-33.59,6.7-2.36,10.9,19.6,4.83,3.07,14.43c.6-.26,1.19-.49,1.77-.71Z"/><polygon class="cls-8" points="213.29 396.02 209.4 394.5 207.47 403.42 213.66 396.93 213.29 396.02"/><path class="cls-8" d="M190.52,267.51a28.28,28.28,0,0,1,8.12,3.27c1,.64,1.9,1.31,2.84,2a5,5,0,0,0,1-2.13c.33-2.8-3.21-5.42-2.13-9.18a6,6,0,0,1,2.53-3.79l-14.42-41.13-33.88-8.48,9.82,21.84,22.65,7.27Z"/><path class="cls-8" d="M367.56,287.76l-3.16,9.89.71,2.45a15.26,15.26,0,0,1,10.38,2.18l-20.3-75.06-14.43-10.59L354,261.93l6-1.23Z"/><polygon class="cls-8" points="373.95 430.75 375.25 427.55 372.15 430.14 373.95 430.75"/><path class="cls-8" d="M410.21,323l7.05-7.49a9.65,9.65,0,0,0-.24-4c-1.52-4.24-8.74-5.72-5.7-12.51s11-1.36,15.14-5.93a12,12,0,0,1,4.7-3.59l12.57-31-32.44,7.63-14.07,46.16C402.73,314.56,406.24,318.73,410.21,323Z"/><polygon class="cls-8" points="484.43 329.94 462.26 330.84 366.75 414.04 352.51 440.29 484.43 329.94"/><path class="cls-8" d="M96.48,274.6a7.75,7.75,0,0,1,3.17-2.46l10-32.38-5.41-12.89L90.63,273.73,92.12,276C93.82,276,95.39,275.9,96.48,274.6Z"/><polygon class="cls-8" points="62.07 372.08 61.28 374.77 67.48 376.2 67.75 375.35 62.07 372.08"/><path class="cls-8" d="M78,318c1.29-1.5,2.57-3.1,3.89-4.7l-24.52-30.7-16.21-3.19,24.25,29.29Z"/><polygon class="cls-8" points="234.19 431.31 248.2 466.23 262.2 467.17 245.52 421.8 234.19 431.31"/><polygon class="cls-8" points="195.52 399.55 202.14 398.85 201.28 391.32 194.38 388.62 194.1 388.74 195.52 399.55"/><path class="cls-8" d="M191.46,305.14l-7-61.43-7.85,12.42L183.19,306A69.4,69.4,0,0,1,191.46,305.14Z"/><polygon class="cls-8" points="174.16 382.31 174.31 386.06 178.98 390.26 188.4 386.27 176.09 381.45 174.16 382.31"/><polygon class="cls-8" points="291.69 315.04 300.84 305.43 300.34 248.11 289.59 235.46 291.69 315.04"/><path class="cls-8" d="M255.13,286.79c1.09.94,2.18,1.94,3.32,2.86,5.81,4.69,5,10,2.72,20.59-.1.44-.21.83-.32,1.23l3.52,15.2a23.81,23.81,0,0,1,3-.2,12.73,12.73,0,0,1,5.46,1.19l-14.32-67.14L252,273.29Z"/><polygon class="cls-8" points="175.76 421.34 176.22 432.64 178.43 433.91 185.06 426.94 175.76 421.34"/><path class="cls-8" d="M74.4,373.94,71.47,358.5l-27-16.28a11.3,11.3,0,0,0-3-1c-4.31-.6-7.68,3.74-13-.94a9.11,9.11,0,0,1-.76-.77l-10.32,1.56Z"/><polygon class="cls-8" points="126.73 301.63 110.25 285.75 116.89 326.84 122.25 333.75 125.97 383.04 143.18 489.54 153.33 490.14 126.73 301.63"/><polygon class="cls-8" points="87.11 356.22 72.96 343.86 107.09 524.17 115.49 523.5 87.11 356.22"/><polygon class="cls-8" points="296.9 448.84 297.27 449.95 304.61 431.78 300.98 430.36 296.9 448.84"/><path class="cls-8" d="M330.37,297.12,326.65,314c5.05-7.66,16.5-1.07,22.49-7.12,4-4,7.1-5.42,9.75-5.35l4-12.59Z"/><path class="cls-8" d="M315.89,362.77l-5.6,25.38,9.82,5.29L338,349.21c-1.91,0-2.89-.88-3.32-2.18Z"/><path class="cls-8" d="M287,342l12.25-12.37L301,311.28,279.7,333.57C282,336.37,284.16,339.49,287,342Z"/><polygon class="cls-8" points="227.84 401.72 218.28 397.98 175.78 442.53 181.21 448.79 227.84 401.72"/><polygon class="cls-8" points="396.45 350.04 360.2 351.84 338.26 403.2 360.24 415.03 340.46 445.82 322.98 438.98 306.39 477.81 310.65 490.8 299.36 494.27 288.52 519.63 300.75 526.43 396.45 350.04"/><polygon class="cls-8" points="236.36 325.31 202.78 316.25 211 334.71 246.22 353.67 236.36 325.31"/><polygon class="cls-8" points="294.03 491.15 268.46 417.63 243.6 407.89 282.3 494.75 294.03 491.15"/><polygon class="cls-8" points="338.73 440.33 343.76 432.49 183.1 365.7 163.16 371.48 338.73 440.33"/><polygon class="cls-8" points="187.38 327.08 186.26 362.15 346.22 428.67 353.9 416.7 187.38 327.08"/><path class="cls-9" d="M370,366.06c-46.95-.85-100.83-1.31-129.79-1.32h-.9c-29,0-82.9.47-129.79,1.32-40.68.73-82.83,1.74-88.38,3.6-.47.57-2.62,4.08.09,18.74h.54a6.12,6.12,0,0,1,6,5.24l33.39,194a6.09,6.09,0,0,0,6,5.23H412.24a6.08,6.08,0,0,0,6-5.23l33.4-194a6.11,6.11,0,0,1,6-5.24h.55c2.71-14.67.56-18.17.09-18.74C452.78,367.8,410.63,366.79,370,366.06Z"/><path class="cls-4" d="M412.24,605.64H67.18a18.76,18.76,0,0,1-18.63-15.92L16.09,401.17H10.56L8.63,390.72C5.9,376,6.72,367,11.28,361.5l2.31-2.79L17,357.56c5.42-1.82,21.17-3,92.21-4.27,47.25-.85,101.17-1.3,130-1.32h.91c28.81,0,82.71.47,130,1.32h0c71,1.29,86.79,2.45,92.21,4.27l3.42,1.15,2.31,2.77c4.58,5.47,5.4,14.49,2.67,29.24l-1.93,10.45h-5.53L430.87,589.71A18.77,18.77,0,0,1,412.24,605.64ZM72.8,580.11H406.62l32.45-188.54a18.85,18.85,0,0,1,5.55-10.6c-19.57-1.15-59.66-1.87-74.9-2.15-47.16-.85-100.88-1.3-129.56-1.31h-.9c-28.73,0-82.46.46-129.56,1.31-15.24.28-55.33,1-74.9,2.15a18.89,18.89,0,0,1,5.55,10.6ZM32.7,374.56Z"/><path class="cls-10" d="M370,366.06c-46.95-.85-100.83-1.31-129.79-1.32h-.9c-29,0-82.9.47-129.79,1.32-40.68.73-82.83,1.74-88.38,3.6-.47.57-2.62,4.08.09,18.74h.54a6.12,6.12,0,0,1,6,5.24l33.39,194a6.09,6.09,0,0,0,6,5.23H412.24a6.08,6.08,0,0,0,6-5.23l33.4-194a6.11,6.11,0,0,1,6-5.24h.55c2.71-14.67.56-18.17.09-18.74C452.78,367.8,410.63,366.79,370,366.06Z"/><g class="cls-11"><path class="cls-10" d="M241.89,387.43h-4.36c-74.57.2-147.12,1.78-196.95,4.12,0,0,20.92,130.14,71.46,150.36,24.26,9.71,76.42,13.54,127.67,13.05,51.25.49,103.41-3.34,127.67-13.05,50.54-20.22,71.46-150.36,71.46-150.36C389,389.21,316.46,387.63,241.89,387.43Z"/></g><path d="M140.3,431.11c6.69,1.5,13.45,8.38,21.62,8.38a13.72,13.72,0,0,0,5.4-1c-.64,6.23-3.22,10.19-6.69,10.19-9.2,0-17.3-14.74-28.69-14.74a10.41,10.41,0,0,0-1.48.07L140,389c-5.59,2.34-9,7.21-9,14.16a9,9,0,0,0,.9,4.41c-4.44,0-6.89-1.63-6.89-6.3,0-8.64,11.84-16.88,22.58-16.88.91,0,1.74.07,2.58.13Z"/><path class="cls-4" d="M160.63,458.8c-7.93,0-13.89-4.8-19.15-9-3.34-2.68-7.12-5.72-9.54-5.72h-.36a10.15,10.15,0,0,1-11.05-12.21l3.35-15.73c-5.63-2.5-9-7.8-9-14.87,0-7.33,4.17-14.58,11.43-19.88a37,37,0,0,1,21.3-7.15c1.23,0,2.31.08,3.18.15H151a10.15,10.15,0,0,1,9.15,12.24L152,425.06l1.62.89c3,1.66,6.13,3.38,8.33,3.38a3.58,3.58,0,0,0,1.5-.25,10.15,10.15,0,0,1,14,10.42C176,453.74,167.45,458.8,160.63,458.8ZM131.7,444h0Z"/><path d="M179.93,400,175.3,422a9.37,9.37,0,0,0-.26,2.08c0,1.82.83,2.4,2.64,2.4a3.26,3.26,0,0,0,1.41-.25c-1.73,4.54-3,6.55-6.43,6.55s-5.79-2.27-6.3-6c-1.93,3-5,6-9.59,6-4.37,0-8.56-2.73-8.56-10.45,0-8.77,5.34-22.72,16.54-22.72,3.66,0,5.21,1.43,5.21,3.31v.45l.71-3.44Zm-22.2,21.49c0,5,2.06,5.06,3.22,5.06,1.87,0,4.57-1.95,5.34-5.71l3.09-14.67a2.5,2.5,0,0,0-2.64-2.46C161.27,403.66,157.73,415.33,157.73,421.44Z"/><path class="cls-4" d="M172.66,443a16.57,16.57,0,0,1-7.63-1.79,19.66,19.66,0,0,1-8.26,1.79c-12.86,0-18.71-10.68-18.71-20.6,0-13.26,8.48-32.88,26.69-32.88a20.25,20.25,0,0,1,4.35.45,10.18,10.18,0,0,1,1.57-.12h9.26A10.14,10.14,0,0,1,189.86,402l-3.57,17a10.17,10.17,0,0,1,2.29,10.78C187.09,433.78,183.59,443,172.66,443Z"/><path d="M77.24,420.21,65.85,474.26c16.2-1.29,28.07-22.49,28.07-39.81,0-12-5.78-22-19.89-22-26,0-41.54,14.73-41.54,39.34,0,8.25,2.08,9.55,2.24,11-11.06,0-17.16-4-17.16-15.7,0-21.52,29.51-42.07,56.3-42.07,26.3,0,37.85,15.21,37.85,31.87,0,20.56-17.48,43.38-46.35,43.38h-.81l-9.78,46.12H31.69L53.5,423.44Z"/><path class="cls-4" d="M54.78,536.53H31.69a10.17,10.17,0,0,1-9.94-12.26l10.89-51.39C10.76,472,7.42,456.43,7.42,447.07c0-13.38,8.11-27,22.27-37.31,13-9.48,29.09-14.92,44.18-14.92,14.84,0,27.22,4.32,35.79,12.5a40.25,40.25,0,0,1,12.21,29.53c0,23.84-18.53,49.44-49,53.09l-8.17,38.52A10.16,10.16,0,0,1,54.78,536.53ZM44.22,516.22h2.33l8.08-38.08a10.2,10.2,0,0,1,1.11-2.92,10.44,10.44,0,0,1,.17-3.05l8.43-40-2.39.33Z"/><path d="M155.55,472.53a3.53,3.53,0,0,0,1.68.31c7,0,16.92-4.62,23.48-9.23l1.37,4.15c-5.79,6.31-15.86,10.92-27,12.77-2.44,28.47-17.69,46.31-36.45,46.31-14.18,0-24.4-6.77-24.4-24.3,0-17.7,10.37-54.63,41.78-54.63C149.14,447.91,155.55,456.38,155.55,472.53ZM142.43,481c-3.2-.78-4.12-3.39-4.12-6.47,0-4.31,2-7.07,4.74-8.3-.31-6.47-1.84-8.93-5.8-8.93-10.83,0-20.28,28.15-20.28,43.24,0,10.15,2,12.46,7.77,12.46C132.22,513,140,499.15,142.43,481Z"/><path class="cls-4" d="M118.64,537C97,537,84.09,524.12,84.09,502.54a83.63,83.63,0,0,1,10.44-39c9.48-16.63,24.21-25.8,41.49-25.8,7.67,0,24,2.5,28.53,23.09a51.55,51.55,0,0,0,10.32-5.55,10.15,10.15,0,0,1,15.48,5.13l1.37,4.15a10.16,10.16,0,0,1-2.16,10.05c-5.85,6.37-14.83,11.39-25.3,14.27-2.09,12.6-6.66,23.5-13.37,31.83C142.44,531.22,131,537,118.64,537Zm-6.87-62.63a68.26,68.26,0,0,0-7.37,28.17c0,6.42,1.49,10.33,5.13,12.37-2.71-5.17-2.71-11.39-2.71-14.37C106.82,493.05,108.71,483.24,111.77,474.37Zm18.4,9a65.45,65.45,0,0,0-2.94,14.33,54.58,54.58,0,0,0,4.16-12.38A14.88,14.88,0,0,1,130.17,483.34Z"/><path d="M233.32,449.29l-11,52.32a21.47,21.47,0,0,0-.61,4.93c0,4.31,2,5.69,6.25,5.69,6,0,10.07-5.84,12.35-13.54h6.41c-8.69,25.08-22.42,28.47-30.65,28.47-8.69,0-14.18-5.08-15.1-14.62-7.62,12.62-16.16,14.62-22.57,14.62-9.14,0-16.32-5.54-16.32-18.47a50.41,50.41,0,0,1,1.23-10l10.36-49.4h22l-11,52.32a21.5,21.5,0,0,0-.47,4.31c0,3.54,1.23,6.31,4.58,6.31,6,0,9.91-5.84,12.2-13.54l10.37-49.4Z"/><path class="cls-4" d="M216.09,537.31c-7.2,0-13.24-2.37-17.62-6.63a32.43,32.43,0,0,1-20.05,6.63c-16.08,0-26.47-11.23-26.47-28.62a60.22,60.22,0,0,1,1.43-12.06l10.37-49.42a10.17,10.17,0,0,1,9.94-8.07h22a10.14,10.14,0,0,1,7.86,3.72,10.14,10.14,0,0,1,7.85-3.72h22a10.16,10.16,0,0,1,9.94,12.24L235.16,490a10.11,10.11,0,0,1,5.17-1.42h6.41A10.16,10.16,0,0,1,256.33,502C246.22,531.19,228.87,537.31,216.09,537.31Zm-34.16-77.86-8.67,41.33a41.33,41.33,0,0,0-1,7.91c0,7.32,2.87,8.19,5.24,8.3a17.46,17.46,0,0,1-3.44-11.07,32.1,32.1,0,0,1,.66-6.28.43.43,0,0,1,0-.11l8.41-40.08Zm27.12,46.91a10.18,10.18,0,0,1,2,5.21c.43,4.52,2,5.28,3.85,5.41a16.6,16.6,0,0,1-3.37-10.44,31.48,31.48,0,0,1,.84-7.1l8.4-40H219.6l-8.67,41.33q-.09.41-.21.81A49.81,49.81,0,0,1,209.05,506.36Zm22.84.32h0Z"/><path d="M277.85,425l-5.19,24.31h9.15l-1.22,6.16h-9.15l-9.75,46.16a21,21,0,0,0-.62,4.93c0,4.31,2,5.69,6.25,5.69,5.95,0,11.44-5.84,13.73-13.54h6.4c-8.69,25.08-23.79,28.47-32,28.47-9.15,0-16.32-5.54-16.32-18.47a51.08,51.08,0,0,1,1.22-10l9.16-43.24h-5l1.22-6.16h5l4.58-21.22Z"/><path class="cls-4" d="M255.43,537.31c-16.08,0-26.47-11.23-26.47-28.62a59.9,59.9,0,0,1,1.43-12.06l7.15-33.74a11,11,0,0,1-.94-1,10.19,10.19,0,0,1-2.11-8.42l1.22-6.16a10.16,10.16,0,0,1,6.68-7.64l3-13.75A10.14,10.14,0,0,1,253.9,418l22.57-3.09a10.16,10.16,0,0,1,11.31,12.18l-2.69,12.58a10.16,10.16,0,0,1,6.68,11.59l-1.22,6.16a10.17,10.17,0,0,1-10,8.18h-.92l-5.39,25.52a10.14,10.14,0,0,1,6.77-2.59h6.4a10.17,10.17,0,0,1,9.6,13.48C286.4,532.72,266.4,537.31,255.43,537.31Zm4.14-83.07a10.05,10.05,0,0,1-.15,3.32l-9.15,43.24a40.6,40.6,0,0,0-1,7.89c0,7.1,2.7,8.14,5,8.29a16.6,16.6,0,0,1-3.37-10.44,31.23,31.23,0,0,1,.85-7.11l9.74-46.08a9.87,9.87,0,0,1,1.07-2.85,10.1,10.1,0,0,1,.15-3.33L264.9,437l-1.2.16-3.07,14.27A10.2,10.2,0,0,1,259.57,454.24Z"/><path d="M313.38,449.29l-11,52.32a22,22,0,0,0-.61,4.93c0,4.31,2,5.69,6.26,5.69,5.95,0,11.43-5.84,13.72-13.54h6.41c-8.7,25.08-23.8,28.47-32,28.47-9.15,0-16.32-5.54-16.32-18.47a50.33,50.33,0,0,1,1.22-10l10.37-49.4Zm-6.86-32.77a12.28,12.28,0,0,1,12.19,12.31A12.15,12.15,0,0,1,306.52,441a12,12,0,0,1-12-12.15A12.16,12.16,0,0,1,306.52,416.52Z"/><path class="cls-4" d="M296.15,537.31c-16.08,0-26.48-11.23-26.48-28.62a59.43,59.43,0,0,1,1.44-12.06l10.38-49.42a10.13,10.13,0,0,1,5.82-7.2,22.29,22.29,0,1,1,35.05,4.54,10.21,10.21,0,0,1,1,6.83L315,491.15a10.18,10.18,0,0,1,6.8-2.61h6.41A10.16,10.16,0,0,1,337.76,502C327.11,532.72,307.12,537.31,296.15,537.31Zm3.52-77.86L291,500.78a40.58,40.58,0,0,0-1,7.91c0,7.1,2.7,8.14,5,8.29a16.66,16.66,0,0,1-3.37-10.44,31.66,31.66,0,0,1,.84-7.09l8.4-40Zm12.27,47.23h0Zm-5.42-80a2,2,0,0,0-1.9,2.16,1.89,1.89,0,0,0,1.9,2,2,2,0,0,0,2-2A2.13,2.13,0,0,0,306.52,426.67Z"/><path d="M360.18,462.68c-5.48,0-9.6,6.47-11.89,14.16l-10.37,49.39H316l16.17-76.94h22l-1.68,8c6.4-7.39,13.11-8.62,17.84-8.62,9.76,0,16.93,5.08,16.93,17.39s-7.32,31.08-7.32,39.7c0,3.85,1.52,6.46,6.1,6.46,6.7,0,9.45-5.54,12.81-13.54h6.41c-8.55,25.23-20.29,28.47-28.37,28.47-13.27,0-18-8.62-18-17.39,0-10.46,6.87-29.39,6.87-39.24C365.68,465.45,363.84,462.68,360.18,462.68Z"/><path class="cls-4" d="M376.81,537.31c-13.59,0-23.57-7.21-26.93-18.64l-2,9.65a10.16,10.16,0,0,1-9.94,8.07H316A10.16,10.16,0,0,1,306,524.14l16.16-76.94a10.16,10.16,0,0,1,9.94-8.06h22a10.19,10.19,0,0,1,5,1.3,32.54,32.54,0,0,1,11.18-1.91c16.45,0,27.09,10.81,27.09,27.54,0,7.52-2.07,16.21-4,24.07a10.18,10.18,0,0,1,5.48-1.6h6.41A10.15,10.15,0,0,1,414.79,502C406.84,525.41,394.07,537.31,376.81,537.31Zm-6.88-35.13a43,43,0,0,0-1,7.59c0,4.31,1.54,6.16,4.19,6.86a17.3,17.3,0,0,1-3.45-10.86A30.17,30.17,0,0,1,369.93,502.18Zm-41.46,13.9h1.21l8.67-41.33q.09-.4.21-.81a42.66,42.66,0,0,1,5.14-11.43,9.89,9.89,0,0,1-1.21-3.06h-2.12ZM390,506Zm-17.33-47a20.16,20.16,0,0,1,3.14,11.53,57.29,57.29,0,0,1-1.21,10.52c1.3-5.45,2.41-10.91,2.41-15C377,461.44,376,459.53,372.69,459Z"/><path d="M428.66,512.54c5.79,0,13.11-3.85,18-8.16-3.2,17.54-14.18,22.78-26.38,22.78-14.18,0-23.64-7.09-23.64-24.47,0-17.69,9.92-54.78,41.18-54.78,13.56,0,16.77,7.08,16.77,14.77,0,17.85-16.77,31.39-35.08,32.47-.15,1.54-.3,3.23-.3,4.62C419.2,509.46,423.32,512.54,428.66,512.54ZM439,456.07c-7.62,0-15.24,17.07-18.44,31.69,11.89-.61,22.25-12.46,22.25-25.39C442.83,458.53,441.92,456.07,439,456.07Z"/><path class="cls-4" d="M420.27,537.31c-21.16,0-33.79-12.94-33.79-34.62,0-27,15.92-64.93,51.33-64.93,16.85,0,26.92,9.32,26.92,24.92,0,12.54-6.14,23.93-15.93,31.78a10.13,10.13,0,0,1,7.84,11.75C453,526.26,440.06,537.31,420.27,537.31Zm-6.76-62.09a66.06,66.06,0,0,0-6.73,27.47c0,7.86,2.07,12,7.3,13.56-3-3.64-5-9-5-16.48,0-1.86.19-3.88.36-5.62a10.11,10.11,0,0,1,1.3-4,10.09,10.09,0,0,1,0-4.51A106.92,106.92,0,0,1,413.51,475.22Z"/><path d="M295.78,571.37l13.51-39.73h8.43v39.73l13.83-39.73h4.51L318.17,580h-9.52V547l-12.74,33h-9.46V535.67c-7,2.21-10.42,7.27-10.42,14.41a9.14,9.14,0,0,0,.9,4.41c-4.44,0-6.88-1.62-6.88-6.29,0-8.64,11.83-16.88,22.58-16.88.9,0,1.74.06,2.58.12Z"/><path class="cls-4" d="M318.17,590.16h-9.52a10.14,10.14,0,0,1-6.37-2.25,10.17,10.17,0,0,1-6.37,2.25h-9.46A10.15,10.15,0,0,1,276.3,580V564.64c-10-.26-16.41-6.65-16.41-16.44,0-7.34,4.17-14.58,11.43-19.88a37,37,0,0,1,21.31-7.16c1.28,0,2.36.09,3.32.16a10.15,10.15,0,0,1,6.39,2.92,10.16,10.16,0,0,1,7-2.75h8.43a10.11,10.11,0,0,1,6.92,2.72,10.15,10.15,0,0,1,6.91-2.72h4.51a10.15,10.15,0,0,1,9.52,13.68l-17.89,48.35A10.15,10.15,0,0,1,318.17,590.16Z"/><path d="M341.14,574.94c5.08,0,8.17-2.85,11.39-6.55h2.19c-3.67,6-9.13,12-17.69,12-6,0-10-3-10-10.32S331.17,547,344.36,547c5.73,0,7.07,3,7.07,6.23,0,7.47-7.07,13.24-14.79,13.7-.07.91-.13,1.82-.13,2.6C336.51,573.9,338.06,574.94,341.14,574.94Zm3.73-24.54c-3.27,0-6.43,7-7.72,13.37,5-.32,9.33-5.32,9.33-10.71C346.48,551.44,346.1,550.4,344.87,550.4Z"/><path class="cls-4" d="M337,590.55c-12.27,0-20.2-8-20.2-20.48,0-13.81,8.54-33.26,27.52-33.26,10.31,0,17.24,6.58,17.24,16.38a22,22,0,0,1-1.1,6.85,10.14,10.14,0,0,1,2.88,13.67C356.5,584.88,347.64,590.55,337,590.55Z"/><path d="M365.85,574.94c5.08,0,8.17-2.85,11.38-6.55h2.19c-3.67,6-9.14,12-17.69,12-6.05,0-10-3-10-10.32S355.87,547,369.06,547c5.73,0,7.08,3,7.08,6.23,0,7.47-7.08,13.24-14.8,13.7-.06.91-.12,1.82-.12,2.6C361.22,573.9,362.76,574.94,365.85,574.94Zm3.72-24.54c-3.27,0-6.43,7-7.71,13.37,4.95-.32,9.33-5.32,9.33-10.71C371.19,551.44,370.8,550.4,369.57,550.4Z"/><path class="cls-4" d="M361.73,590.55c-12.26,0-20.19-8-20.19-20.48,0-13.81,8.54-33.26,27.52-33.26,10.31,0,17.23,6.58,17.23,16.38A22,22,0,0,1,385.2,560a10.24,10.24,0,0,1,3.08,3.39,10.13,10.13,0,0,1-.21,10.27C381.2,584.88,372.34,590.55,361.73,590.55Z"/><path d="M407.6,547.55l-12.87,9a11.81,11.81,0,0,1,2.12-.26c4.77,0,7.08,3.44,7.08,7.6a10.62,10.62,0,0,1-.26,2.46l-.7,3.25a10.65,10.65,0,0,0-.33,2.07c0,1.31.52,2.4,2.51,2.4a4.29,4.29,0,0,0,2.26-.38c-.33,4.61-4.32,6.68-6,6.68-5.28,0-8.11-2.66-8.11-7.39a16.32,16.32,0,0,1,.39-3.38l.51-2.54a10.44,10.44,0,0,0,.26-2.39c0-1.89-.64-3.12-2.31-3.12-1.48,0-3,.91-4.77,2.4l-3.34,16h-9.26l9.33-44.14,9.51-1.3-4.82,22.85,12.42-9.86Z"/><path class="cls-4" d="M401.42,590.55a19.53,19.53,0,0,1-10.66-2.93,10.12,10.12,0,0,1-6.71,2.54h-9.26a10.16,10.16,0,0,1-9.94-12.26l9.33-44.14a10.16,10.16,0,0,1,8.56-8l9.52-1.3a10.15,10.15,0,0,1,11.31,12.16l-.16.74h4.19a10.15,10.15,0,0,1,5.82,18.46l-.78.55a19.32,19.32,0,0,1,1.45,7.5c0,.7,0,1.39-.1,2.07a10.13,10.13,0,0,1,3.54,8.43C416.86,584.06,408.66,590.55,401.42,590.55Z"/><path d="M140.3,431.11c6.69,1.5,13.45,8.38,21.62,8.38a13.72,13.72,0,0,0,5.4-1c-.64,6.23-3.22,10.19-6.69,10.19-9.2,0-17.3-14.74-28.69-14.74a10.41,10.41,0,0,0-1.48.07L140,389c-5.59,2.34-9,7.21-9,14.16a9,9,0,0,0,.9,4.41c-4.44,0-6.89-1.63-6.89-6.3,0-8.64,11.84-16.88,22.58-16.88.91,0,1.74.07,2.58.13Z"/><path d="M179.93,400,175.3,422a9.37,9.37,0,0,0-.26,2.08c0,1.82.83,2.4,2.64,2.4a3.26,3.26,0,0,0,1.41-.25c-1.73,4.54-3,6.55-6.43,6.55s-5.79-2.27-6.3-6c-1.93,3-5,6-9.59,6-4.37,0-8.56-2.73-8.56-10.45,0-8.77,5.34-22.72,16.54-22.72,3.66,0,5.21,1.43,5.21,3.31v.45l.71-3.44Zm-22.2,21.49c0,5,2.06,5.06,3.22,5.06,1.87,0,4.57-1.95,5.34-5.71l3.09-14.67a2.5,2.5,0,0,0-2.64-2.46C161.27,403.66,157.73,415.33,157.73,421.44Z"/><path d="M77.24,420.21,65.85,474.26c16.2-1.29,28.07-22.49,28.07-39.81,0-12-5.78-22-19.89-22-26,0-41.54,14.73-41.54,39.34,0,8.25,2.08,9.55,2.24,11-11.06,0-17.16-4-17.16-15.7,0-21.52,29.51-42.07,56.3-42.07,26.3,0,37.85,15.21,37.85,31.87,0,20.56-17.48,43.38-46.35,43.38h-.81l-9.78,46.12H31.69L53.5,423.44Z"/><path d="M155.55,472.53a3.53,3.53,0,0,0,1.68.31c7,0,16.92-4.62,23.48-9.23l1.37,4.15c-5.79,6.31-15.86,10.92-27,12.77-2.44,28.47-17.69,46.31-36.45,46.31-14.18,0-24.4-6.77-24.4-24.3,0-17.7,10.37-54.63,41.78-54.63C149.14,447.91,155.55,456.38,155.55,472.53ZM142.43,481c-3.2-.78-4.12-3.39-4.12-6.47,0-4.31,2-7.07,4.74-8.3-.31-6.47-1.84-8.93-5.8-8.93-10.83,0-20.28,28.15-20.28,43.24,0,10.15,2,12.46,7.77,12.46C132.22,513,140,499.15,142.43,481Z"/><path d="M233.32,449.29l-11,52.32a21.47,21.47,0,0,0-.61,4.93c0,4.31,2,5.69,6.25,5.69,6,0,10.07-5.84,12.35-13.54h6.41c-8.69,25.08-22.42,28.47-30.65,28.47-8.69,0-14.18-5.08-15.1-14.62-7.62,12.62-16.16,14.62-22.57,14.62-9.14,0-16.32-5.54-16.32-18.47a50.41,50.41,0,0,1,1.23-10l10.36-49.4h22l-11,52.32a21.5,21.5,0,0,0-.47,4.31c0,3.54,1.23,6.31,4.58,6.31,6,0,9.91-5.84,12.2-13.54l10.37-49.4Z"/><path d="M277.85,425l-5.19,24.31h9.15l-1.22,6.16h-9.15l-9.75,46.16a21,21,0,0,0-.62,4.93c0,4.31,2,5.69,6.25,5.69,5.95,0,11.44-5.84,13.73-13.54h6.4c-8.69,25.08-23.79,28.47-32,28.47-9.15,0-16.32-5.54-16.32-18.47a51.08,51.08,0,0,1,1.22-10l9.16-43.24h-5l1.22-6.16h5l4.58-21.22Z"/><path d="M313.38,449.29l-11,52.32a22,22,0,0,0-.61,4.93c0,4.31,2,5.69,6.26,5.69,5.95,0,11.43-5.84,13.72-13.54h6.41c-8.7,25.08-23.8,28.47-32,28.47-9.15,0-16.32-5.54-16.32-18.47a50.33,50.33,0,0,1,1.22-10l10.37-49.4Zm-6.86-32.77a12.28,12.28,0,0,1,12.19,12.31A12.15,12.15,0,0,1,306.52,441a12,12,0,0,1-12-12.15A12.16,12.16,0,0,1,306.52,416.52Z"/><path d="M360.18,462.68c-5.48,0-9.6,6.47-11.89,14.16l-10.37,49.39H316l16.17-76.94h22l-1.68,8c6.4-7.39,13.11-8.62,17.84-8.62,9.76,0,16.93,5.08,16.93,17.39s-7.32,31.08-7.32,39.7c0,3.85,1.52,6.46,6.1,6.46,6.7,0,9.45-5.54,12.81-13.54h6.41c-8.55,25.23-20.29,28.47-28.37,28.47-13.27,0-18-8.62-18-17.39,0-10.46,6.87-29.39,6.87-39.24C365.68,465.45,363.84,462.68,360.18,462.68Z"/><path d="M428.66,512.54c5.79,0,13.11-3.85,18-8.16-3.2,17.54-14.18,22.78-26.38,22.78-14.18,0-23.64-7.09-23.64-24.47,0-17.69,9.92-54.78,41.18-54.78,13.56,0,16.77,7.08,16.77,14.77,0,17.85-16.77,31.39-35.08,32.47-.15,1.54-.3,3.23-.3,4.62C419.2,509.46,423.32,512.54,428.66,512.54ZM439,456.07c-7.62,0-15.24,17.07-18.44,31.69,11.89-.61,22.25-12.46,22.25-25.39C442.83,458.53,441.92,456.07,439,456.07Z"/><path d="M295.78,571.37l13.51-39.73h8.43v39.73l13.83-39.73h4.51L318.17,580h-9.52V547l-12.74,33h-9.46V535.67c-7,2.21-10.42,7.27-10.42,14.41a9.14,9.14,0,0,0,.9,4.41c-4.44,0-6.88-1.62-6.88-6.29,0-8.64,11.83-16.88,22.58-16.88.9,0,1.74.06,2.58.12Z"/><path d="M341.14,574.94c5.08,0,8.17-2.85,11.39-6.55h2.19c-3.67,6-9.13,12-17.69,12-6,0-10-3-10-10.32S331.17,547,344.36,547c5.73,0,7.07,3,7.07,6.23,0,7.47-7.07,13.24-14.79,13.7-.07.91-.13,1.82-.13,2.6C336.51,573.9,338.06,574.94,341.14,574.94Zm3.73-24.54c-3.27,0-6.43,7-7.72,13.37,5-.32,9.33-5.32,9.33-10.71C346.48,551.44,346.1,550.4,344.87,550.4Z"/><path d="M365.85,574.94c5.08,0,8.17-2.85,11.38-6.55h2.19c-3.67,6-9.14,12-17.69,12-6.05,0-10-3-10-10.32S355.87,547,369.06,547c5.73,0,7.08,3,7.08,6.23,0,7.47-7.08,13.24-14.8,13.7-.06.91-.12,1.82-.12,2.6C361.22,573.9,362.76,574.94,365.85,574.94Zm3.72-24.54c-3.27,0-6.43,7-7.71,13.37,4.95-.32,9.33-5.32,9.33-10.71C371.19,551.44,370.8,550.4,369.57,550.4Z"/><path d="M407.6,547.55l-12.87,9a11.81,11.81,0,0,1,2.12-.26c4.77,0,7.08,3.44,7.08,7.6a10.62,10.62,0,0,1-.26,2.46l-.7,3.25a10.65,10.65,0,0,0-.33,2.07c0,1.31.52,2.4,2.51,2.4a4.29,4.29,0,0,0,2.26-.38c-.33,4.61-4.32,6.68-6,6.68-5.28,0-8.11-2.66-8.11-7.39a16.32,16.32,0,0,1,.39-3.38l.51-2.54a10.44,10.44,0,0,0,.26-2.39c0-1.89-.64-3.12-2.31-3.12-1.48,0-3,.91-4.77,2.4l-3.34,16h-9.26l9.33-44.14,9.51-1.3-4.82,22.85,12.42-9.86Z"/><g class="cls-12"><path class="cls-13" d="M125.78,635.88a5.82,5.82,0,0,1,6.45,0,138.63,138.63,0,0,1,14.27,10.27s1.24.86,1.27-.6c0,0-.2-4.28.32-5.6a2.54,2.54,0,0,1,2.38-1.72s5.6.28,9.16.76a3.46,3.46,0,0,1,2.93,3.15s2.29,15.27,2.8,20.77c0,0,.45,2.8,4.5,7.54,0,0,8.18,11.49,9.19,13.75,0,0,1.93,4-2.19,4.53,0,0-7.53.76-8.24.93a1.88,1.88,0,0,0-1.69,2,.13.13,0,0,1,0,.06s-.39,26.54-2.33,39.3c0,0-.5,5.06-3.32,4.93,0,0-7.72-.26-9.51-.2,0,0-.79.06-.67-1,0,0,3.94-41.39,1.26-62.32,0,0-.1-2.7-2.17-3.26,0,0-1.87-.76-3.67,1.71a65.64,65.64,0,0,0-12.22,37.36s-.23,6.62.78,8.3c0,0,.63,1.16,3.82,1.42l4.05.55s.76,0,.69,1c0,0-.93,12.14-1.19,14.29a4.41,4.41,0,0,1-.3,1.44s-.15.41-1.42.36c0,0-17.85-.13-19.86,0,0,0-.84.09-1-.43s-1.24-15.68-1.2-17.84a1.09,1.09,0,0,1,.62-1.06,10.71,10.71,0,0,0,5-7.89,43.64,43.64,0,0,0,.11-6.94s.65-23.29.82-27c0,0,.14-1.27-1.51-1.51A1.55,1.55,0,0,0,121.8,674a.68.68,0,0,0,0,.14s-1.16,15.36-.94,21.48c0,0,.4,4-2.35,4.05,0,0-2.68.4-2.8-2.9,0,0,.19-14.94.85-22.32a1.59,1.59,0,0,0-1.47-1.61,1.62,1.62,0,0,0-1.85,1.34s0,.09,0,.14-1.14,14.28-.93,21.83c0,0,.34,3.66-2.58,3.52,0,0-2.44.29-2.58-3,0,0,.67-20.45.84-22a1.65,1.65,0,0,0-1.42-1.85h-.17a1.57,1.57,0,0,0-1.77,1.35.86.86,0,0,0,0,.16s-1.09,24.45-.94,31.63c0,0-.1,7.39,5.35,10.39,0,0,.81.46.83,1.16,0,0,.61,13,1.16,17.17,0,0,.21,1-.69,1l-13.72.37s-2.27.16-2.8-2.66c-.44-2.63-3-24.28-2.55-41.45a2.07,2.07,0,0,0-1.67-2.25s-7-.65-8.72-1.08a2.91,2.91,0,0,1-2.09-3.55,2.83,2.83,0,0,1,.31-.74s15.2-28.92,46.73-48.46"/><path class="cls-13" d="M274.77,670.46a1.45,1.45,0,0,0-1.14-.57l-12.07,0-14.8,50.18-5.62-24.38,17.21-23.51a1.43,1.43,0,0,0,.25-.51l.3-1a.6.6,0,0,0-.58-.77H246.06l-13.17,19.29,5.62-17.47a1.43,1.43,0,0,0-.22-1.25,1.45,1.45,0,0,0-1.13-.57H225l-10.5,35.69c.23-6.13-4.53-11-7.29-14-2.24-2.49-3.6-4.26-3.35-6.23a5.61,5.61,0,0,1,5.32-4.89c3-.24,4.32.68,6.24,1.59a1.8,1.8,0,0,0,.71.17,1.62,1.62,0,0,0,.58-.11,1.46,1.46,0,0,0,.86-.91l2.83-9.55-2-.91-.29-.14-.09,0h0a18.19,18.19,0,0,0-7.35-1.44c-10.64,0-20.32,7.62-21.92,17-1.11,6.56,3.08,11.18,6.15,14.56l.27.29c2.21,2.38,3.75,4.23,3.39,6.37-.51,3-3.43,4.71-6.24,4.94-3.09.25-5-.61-7.44-1.68a2.1,2.1,0,0,0-1.4-.26,1.49,1.49,0,0,0-1,1l-2.69,9.22-.35,1.18a28.39,28.39,0,0,0,11.42,2.68c9.07,0,16.91-3.48,21.56-11.89l-2.75,9.37a1.42,1.42,0,0,0,1.36,1.81h12.14l3-10.31L230,708l2.85,14.49a1.41,1.41,0,0,0,1.38,1.14h25.52L275,671.71a1.46,1.46,0,0,0-.22-1.25"/><path class="cls-13" d="M290.67,681.5l4.53,0a2.27,2.27,0,0,1,1.67.65,3.91,3.91,0,0,1,.9,3.1,25.38,25.38,0,0,1-2.2,8.24c-1.5,3.34-2.9,5.84-6.85,6.29l-3.44,0Zm-8.76,29.81,5.28,0c12.73.17,19.19-8.78,22.07-18.5A33.1,33.1,0,0,0,311,684.1c0-4.25-1.08-7.46-3.51-10.14a12.45,12.45,0,0,0-9.29-4.05H278.06l-.85,2.84a1,1,0,0,0,.11.79l.57.9a3.53,3.53,0,0,1,.4,2.95l-13.05,44.44a1.41,1.41,0,0,0,1.33,1.83h11.69Z"/><path class="cls-13" d="M321.25,697.6H323c1.64,0,3.05,1.45,2.84,5.06s-3.08,15.8-8.78,15.8h-1.89Zm-13,26,7.41,0c11.85,0,16-14.86,16.35-21.09.41-6.84-3.4-10.17-7.56-10.17h-7.88l-9,30.37a.67.67,0,0,0,.65.85"/><path class="cls-13" d="M326.34,688.12h2.88l2.2-7.56h3.46l-2.05,7.05a.4.4,0,0,0,.39.51h2.88l5-17a.4.4,0,0,0-.38-.52h-2.88l-2.06,7.07h-3.47l1.91-6.55a.4.4,0,0,0-.38-.52h-2.88l-5,17a.4.4,0,0,0,.39.51"/><path class="cls-13" d="M339.42,688.11h7.37l.71-2.4a.39.39,0,0,0-.39-.52h-4l1.35-4.54h3.61l.72-2.4a.41.41,0,0,0-.39-.52h-3.1l1.26-4.22h4.49l.69-2.41a.4.4,0,0,0-.38-.51H344l-.08.29L339,687.59a.4.4,0,0,0,.38.52"/><path class="cls-13" d="M318.31,688.11h2.88l4.29-14.6h2.73l.68-2.41a.4.4,0,0,0-.39-.51h-8.36l-.68,2.4a.4.4,0,0,0,.39.52h2.2l-4.12,14.08a.4.4,0,0,0,.38.52"/><path class="cls-13" d="M339.43,692.4l-8.92,30.4a.67.67,0,0,0,.65.86h5.19l8.92-30.4a.68.68,0,0,0-.65-.86Z"/><path class="cls-13" d="M386.46,692.4h-5.2L377.57,705h-6.19l3.44-11.75a.67.67,0,0,0-.64-.86H369l-8.93,30.4a.67.67,0,0,0,.64.86h5.2l3.94-13.5H376l-3.69,12.64a.67.67,0,0,0,.64.86h5.2l8.93-30.4a.67.67,0,0,0-.64-.86"/><path class="cls-13" d="M399.77,705.15h-5.45l2.24-7.55h8l1.25-4.34a.67.67,0,0,0-.64-.86H392l-8.92,30.4a.67.67,0,0,0,.64.86h13.22l1.26-4.35a.67.67,0,0,0-.64-.85h-7.14l2.43-8.11h6.29l1.3-4.35a.66.66,0,0,0-.64-.85"/><path class="cls-13" d="M353.37,700.88a4.42,4.42,0,0,1,4.08-3.75,7.79,7.79,0,0,1,3.42.61,1,1,0,0,0,1.34-.56c0-.09,1.25-4.22,1.25-4.22a13.35,13.35,0,0,0-5.12-1.07c-5.51,0-11.06,4.11-12,9.74-.6,3.74,1.79,6.42,3.5,8.44,1.35,1.54,2.44,2.9,2.16,4.64a4.63,4.63,0,0,1-4.45,3.94,7.48,7.48,0,0,1-4.11-.73.93.93,0,0,0-1.37.58l-1.35,4.61a16.82,16.82,0,0,0,6,1.11A12.4,12.4,0,0,0,359,714.06c.6-3.8-1.76-6.62-3.47-8.63-1.3-1.55-2.39-2.91-2.13-4.55"/><path class="cls-13" d="M418.48,691.89c-5.51,0-11.05,4.11-12,9.74-.6,3.74,1.79,6.42,3.5,8.44,1.35,1.54,2.43,2.9,2.16,4.64a4.64,4.64,0,0,1-4.45,3.94,7.53,7.53,0,0,1-4.12-.73.92.92,0,0,0-1.36.58l-1.35,4.61a16.75,16.75,0,0,0,6,1.11,12.41,12.41,0,0,0,12.22-10.16c.6-3.8-1.76-6.62-3.47-8.63-1.3-1.55-2.39-2.91-2.13-4.55a4.41,4.41,0,0,1,4.08-3.75,7.84,7.84,0,0,1,3.42.61,1,1,0,0,0,1.34-.56c0-.09,1.24-4.22,1.24-4.22a13.29,13.29,0,0,0-5.12-1.07"/></g><path class="cls-13" d="M200.71,643.55c0,4.35-3,7.17-7.59,7.17h-5V636.34h5C197.72,636.34,200.71,639.18,200.71,643.55ZM193,648.27c3,0,4.74-1.73,4.74-4.72s-1.71-4.78-4.74-4.78h-2v9.5Z"/><path class="cls-13" d="M207.86,650.91a5.53,5.53,0,0,1-5.73-5.9c0-3.6,2.35-5.89,5.73-5.89a5.36,5.36,0,0,1,5.62,5.65,6.91,6.91,0,0,1-.08,1.11h-8.35a2.68,2.68,0,0,0,2.74,2.64,2.35,2.35,0,0,0,2.29-1.38h3.11A5.3,5.3,0,0,1,207.86,650.91Zm-2.79-7h5.42a2.53,2.53,0,0,0-2.72-2.45A2.66,2.66,0,0,0,205.07,643.94Z"/><path class="cls-13" d="M215.58,635.48h2.89v15.24h-2.89Z"/><path class="cls-13" d="M221,636.26a1.77,1.77,0,1,1,1.77,1.69A1.69,1.69,0,0,1,221,636.26Zm.31,3h2.88v11.41h-2.88Z"/><path class="cls-13" d="M228.91,639.31l2.89,8.75,2.88-8.75h3.07l-4.22,11.41H230l-4.2-11.41Z"/><path class="cls-13" d="M244.36,650.91a5.53,5.53,0,0,1-5.72-5.9c0-3.6,2.35-5.89,5.72-5.89a5.36,5.36,0,0,1,5.63,5.65,6.91,6.91,0,0,1-.08,1.11h-8.35a2.68,2.68,0,0,0,2.74,2.64,2.35,2.35,0,0,0,2.29-1.38h3.11A5.31,5.31,0,0,1,244.36,650.91Zm-2.78-7H247a2.53,2.53,0,0,0-2.72-2.45A2.66,2.66,0,0,0,241.58,643.94Z"/><path class="cls-13" d="M255,650.72h-2.88V639.31H255v1.77a4,4,0,0,1,3.51-1.94v3h-.77c-1.71,0-2.74.66-2.74,2.86Z"/><path class="cls-13" d="M265.4,650.91a5.53,5.53,0,0,1-5.73-5.9c0-3.6,2.35-5.89,5.73-5.89a5.36,5.36,0,0,1,5.62,5.65,6.91,6.91,0,0,1-.08,1.11H262.6a2.67,2.67,0,0,0,2.74,2.64,2.35,2.35,0,0,0,2.28-1.38h3.11A5.29,5.29,0,0,1,265.4,650.91Zm-2.78-7H268a2.54,2.54,0,0,0-2.72-2.45A2.65,2.65,0,0,0,262.62,643.94Z"/><path class="cls-13" d="M277.62,639.12a4.67,4.67,0,0,1,3.72,1.77v-5.41h2.93v15.24h-2.93V649a4.29,4.29,0,0,1-3.74,1.88c-2.91,0-5.22-2.37-5.22-5.94S274.69,639.12,277.62,639.12Zm.72,2.54a3,3,0,0,0-3,3.31,3.11,3.11,0,0,0,3,3.4,3.37,3.37,0,0,0,0-6.71Z"/><path class="cls-13" d="M298.65,639.12c2.93,0,5.21,2.29,5.21,5.85s-2.28,5.94-5.21,5.94a4.5,4.5,0,0,1-3.77-1.82v1.63H292V635.48h2.88V641A4.45,4.45,0,0,1,298.65,639.12Zm-.76,2.54a3.37,3.37,0,0,0,0,6.71,3.12,3.12,0,0,0,3-3.4A3,3,0,0,0,297.89,641.66Z"/><path class="cls-13" d="M313.81,639.31h3.07l-7.06,16.81h-3.07l2.47-5.69-4.57-11.12h3.23l2.95,8Z"/></g></g></g></svg>