<svg xmlns="http://www.w3.org/2000/svg" xmlns:xlink="http://www.w3.org/1999/xlink" viewBox="0 0 400.85 164.58"><defs><style>.cls-1{fill:none}.cls-2{clip-path:url(#clip-path)}.cls-3{fill:#ff8000}.cls-4{fill:#fff}</style><clipPath id="clip-path" transform="translate(-44.94 -45.32)"><rect width="490.74" height="254.85" class="cls-1"/></clipPath></defs><g id="Layer_2" data-name="Layer 2"><g id="skip_logos" data-name="skip logos"><g class="cls-2"><path d="M121.62,46.9a9.5,9.5,0,0,1,10.5,0,228.15,228.15,0,0,1,23.21,16.71s2,1.4,2.07-1c0,0-.34-7,.51-9.11a4.12,4.12,0,0,1,3.88-2.8s9.11.46,14.9,1.23a5.66,5.66,0,0,1,4.77,5.14s3.72,24.83,4.55,33.78c0,0,.73,4.56,7.33,12.27,0,0,13.3,18.69,14.95,22.37,0,0,3.12,6.5-3.57,7.36,0,0-12.25,1.23-13.4,1.52a3.05,3.05,0,0,0-2.75,3.31.31.31,0,0,1,0,.1S188,181,184.79,201.73c0,0-.82,8.23-5.4,8,0,0-12.56-.4-15.48-.31,0,0-1.27.09-1.07-1.69,0,0,6.39-67.34,2-101.4,0,0-.17-4.38-3.54-5.3,0,0-3-1.23-6,2.8,0,0-19.92,25.29-19.89,60.76,0,0-.36,10.77,1.28,13.52,0,0,1,1.88,6.21,2.31l6.59.88s1.23,0,1.13,1.61c0,0-1.52,19.75-1.95,23.26a7,7,0,0,1-.48,2.34s-.25.66-2.31.59c0,0-29-.22-32.31,0,0,0-1.37.14-1.67-.71s-2-25.51-2-29a1.81,1.81,0,0,1,1-1.73,17.41,17.41,0,0,0,8.06-12.82s.41-2.05.17-11.3c0,0,1.06-37.89,1.34-44,0,0,.22-2-2.46-2.44a2.49,2.49,0,0,0-3,1.85,1.85,1.85,0,0,0,0,.23s-1.89,25-1.52,34.94c0,0,.64,6.47-3.83,6.59,0,0-4.36.65-4.56-4.72,0,0,.32-24.31,1.39-36.31a2.58,2.58,0,0,0-2.39-2.61,2.62,2.62,0,0,0-3,2.18l0,.22S99.29,132.73,99.64,145c0,0,.55,6-4.2,5.73,0,0-4,.47-4.2-4.81,0,0,1.1-33.27,1.37-35.85a2.69,2.69,0,0,0-2.31-3L90,107a2.56,2.56,0,0,0-2.88,2.21,2.11,2.11,0,0,0,0,.25S85.35,149.27,85.61,161c0,0-.17,12,8.7,16.9,0,0,1.31.76,1.34,1.89,0,0,1,21.12,1.9,27.93,0,0,.33,1.62-1.13,1.62l-22.31.61s-3.71.26-4.56-4.33c-.73-4.27-4.81-39.5-4.14-67.43a3.39,3.39,0,0,0-2.72-3.66s-11.43-1.06-14.19-1.75A4.74,4.74,0,0,1,45.09,127a4.85,4.85,0,0,1,.51-1.22s24.73-47,76-78.84" class="cls-3" transform="translate(-44.94 -45.32)"/><path d="M364.35,105.19a2.28,2.28,0,0,0-.36-2,2.32,2.32,0,0,0-1.84-.93l-19.64,0L318.43,183.9l-9.15-39.66,28-38.24a2.27,2.27,0,0,0,.41-.84l.49-1.67a1,1,0,0,0-.94-1.25H317.29l-21.42,31.38L305,105.19a2.3,2.3,0,0,0-2.2-3H283L266,160.3c.37-10-7.36-17.83-11.86-22.8-3.64-4.05-5.84-6.93-5.45-10.13a9.15,9.15,0,0,1,8.66-8c4.91-.39,7,1.12,10.16,2.59a2.7,2.7,0,0,0,1.15.27,2.52,2.52,0,0,0,.94-.17,2.38,2.38,0,0,0,1.4-1.49l4.6-15.53-3.19-1.48-.46-.22-.15-.07h0a29.66,29.66,0,0,0-12-2.34c-17.31,0-33.06,12.39-35.66,27.63-1.81,10.66,5,18.18,10,23.67l.43.49c3.61,3.86,6.11,6.86,5.52,10.34-.83,4.89-5.57,7.67-10.15,8-5,.41-8.17-1-12.1-2.72a3.38,3.38,0,0,0-2.28-.42,2.4,2.4,0,0,0-1.61,1.58l-4.39,15L209,186.5a46.1,46.1,0,0,0,18.58,4.37c14.75,0,27.51-5.67,35.07-19.34l-4.46,15.23a2.29,2.29,0,0,0,2.2,3h19.76l4.93-16.77,6-8.66,4.63,23.58a2.29,2.29,0,0,0,2.25,1.85H339.5Z" class="cls-3" transform="translate(-44.94 -45.32)"/><path d="M401.42,127.27a41.31,41.31,0,0,1-3.59,13.41c-2.44,5.44-4.71,9.5-11.14,10.23l-5.59,0,8.76-29.76,7.37,0a3.66,3.66,0,0,1,2.72,1.07c1.15,1.17,1.58,2.84,1.47,5m15.75-18.42a20.3,20.3,0,0,0-15.11-6.59H369.35L368,106.9a1.54,1.54,0,0,0,.18,1.27l.93,1.46a5.79,5.79,0,0,1,.65,4.81l-21.23,72.29a2.31,2.31,0,0,0,2.16,3h19l5.95-20.09,8.58,0c20.72.27,31.22-14.28,35.9-30.09,1.91-6.46,2.82-11.1,2.79-14.21-.06-6.91-1.76-12.12-5.72-16.5" class="cls-3" transform="translate(-44.94 -45.32)"/><polygon points="388.84 63.31 390 57.53 390.83 57.53 389.66 63.31 388.84 63.31" class="cls-4"/><polygon points="395.91 58.97 394.71 58.97 394.71 62.41 393.9 62.41 393.9 58.97 392.71 58.97 392.71 58.22 395.91 58.22 395.91 58.97" class="cls-4"/><polygon points="400.85 58.22 400.85 62.41 400.09 62.41 400.11 59.69 399 61.95 398.43 61.95 397.34 59.71 397.36 62.41 396.61 62.41 396.61 58.22 397.46 58.22 398.72 60.83 400 58.22 400.85 58.22" class="cls-4"/><polygon points="382.65 58.22 382.65 62.41 381.9 62.41 381.91 59.69 380.81 61.95 380.24 61.95 379.14 59.71 379.16 62.41 378.41 62.41 378.41 58.22 379.26 58.22 380.52 60.83 381.8 58.22 382.65 58.22" class="cls-4"/><path d="M430.19,107.83a1.58,1.58,0,0,1-1.76-1.77v-.86a1.58,1.58,0,0,1,1.76-1.77,1.62,1.62,0,0,1,1.7,1.14l-.68.31a1,1,0,0,0-1-.7.87.87,0,0,0-1,1v.94a.87.87,0,0,0,1,1,1,1,0,0,0,1-.76l.69.27a1.57,1.57,0,0,1-1.71,1.24" class="cls-4" transform="translate(-44.94 -45.32)"/></g></g></g></svg>