<svg xmlns="http://www.w3.org/2000/svg" viewBox="0 0 512.62 277.37"><defs><style>.cls-1{fill:#cf3339;}.cls-2{fill:#fff;}</style></defs><title>saputo-logo-simple</title><g id="Layer_2" data-name="Layer 2"><g id="Layer_1-2" data-name="Layer 1"><ellipse class="cls-1" cx="247.5" cy="138.68" rx="247.5" ry="138.68"/><path class="cls-2" d="M45.14,146c-3.45,13.08,1.79,24.67,18.42,24.67,9.33,0,17.49-5.39,19.38-13.29,2.07-8.76-2.81-13.93-8.56-19.77L69,132c-7.09-7.24-12.51-13.78-9.91-24.62,3.68-15.55,20.1-25.27,38.61-25.27,9.81,0,17.49,2.77,23.54,8,12.28,12.38-2.93,20.3-6.31,19.55a3.26,3.26,0,0,1-1.14-.36c3.22-10-.24-21.15-14.16-21.15-7.81,0-17.45,4.18-19.15,11.28-1.92,8.07,3.88,13.62,9.09,18.91l4.94,4.84c7.86,7.65,14.27,14.86,11.46,26.68-4,16.95-21,27-41,27-11,0-22-3.31-28.08-10.2C25,153,38.54,145.89,45.14,146Z"/><path class="cls-2" d="M184.08,209.89l19.4-43h.33c2.4,5.75,7.87,9.09,15.77,9.09,25,0,42.42-24.18,44.59-42a25.41,25.41,0,0,0,.12-5.18c-.75-8.61-6.58-14.92-19-14.92a33.06,33.06,0,0,0-22.84,9.2l-.31-.26,2.06-4.84a21.55,21.55,0,0,0-12.56-10.61l-40.8,91A22.91,22.91,0,0,0,184.08,209.89Zm60.76-79.58c-1.25,10.06-13.46,38-29,38-6.18,0-8-4.74-7.49-9.09,1.06-8.51,12.73-37.62,28.07-37.62C242.78,121.63,245.39,125.7,244.84,130.31Z"/><path class="cls-2" d="M179,167.56a7.11,7.11,0,0,1-3.06.81c-2.41,0-2.87-3.23-2.65-4.91.26-2.22,2.85-8,4-10.33l17.76-37.69a25.45,25.45,0,0,0-17.93,0L172.78,123c-2.38-5.9-7.87-9.11-15.95-9.11-24.81,0-45.14,23.79-47.34,41.82-1.33,10.92,4.4,20.26,18.87,20.26,11.74,0,21.51-6.86,27.65-14.67l.32.26a38.37,38.37,0,0,0-1.13,5.07c-.67,5.13,3.32,9.34,9.85,9.34a26.81,26.81,0,0,0,11.46-2.8l2.52-5.58Zm-11.16-37.95c-1.25,10-15.21,38-30.87,38-5.86,0-7.67-5-7.14-9.1,1.2-9.92,14.68-36.89,29.86-36.89C165.71,121.63,168.39,125.13,167.85,129.61Z"/><path class="cls-2" d="M331.77,140.34l10.44-20.25s-5.84-.4-9.32-.61c-2.55-.16-8.69-.76-8.69-.76l-5,9c-4.71,9.08-20.14,39.18-34.23,39.18-3,0-4.88-1.15-4.58-3.67.38-3.08,11.82-24.24,11.82-24.24,2.46-4.6,6.08-11.58,6.65-16.18.68-5.48-4.1-9-10.61-9-5.68,0-12.31,2.52-18,6.06a14.18,14.18,0,0,1,1.47,3.49,18.63,18.63,0,0,1,4.46-1.2,2.36,2.36,0,0,1,2.56,3c-.26,2.24-10.61,23-10.61,23-2.48,4.75-6.28,11.87-6.89,16.79-.82,6.84,4.87,11.05,12.79,11,13.77-.05,24.73-9,32.55-19.68l.31.29a35.4,35.4,0,0,0-2.52,9.2c-.63,5.32,2.9,10.19,10,10.19,6.35,0,12.3-2.64,17.3-6.36v-.08a8.5,8.5,0,0,1-.5-4.19c0-.2,0-.37.05-.56-1.63,1.09-3.46,2.1-5.05,2.15-2.73,0-2.78-2.7-2.57-4.35C324.2,157.1,329.19,145.92,331.77,140.34Z"/><path class="cls-2" d="M436.37,114.61c-9.27-6.34-25.5-11.63-53.89-12.3l6.5-14.4a24.36,24.36,0,0,0-17.55-.06l-7,14.62c-18.8.85-41.07,5.88-81.69-2.27L281.7,102c22.63,9.36,57.23,11.37,77.6,11.37l-14.78,31.08c-1.31,2.91-3.07,6.64-4.55,10.39-2.33,5-3.08,8.55-3.21,10.54-.75,6.26,4.86,10.86,12.62,10.86,8.93,0,16.46-5.24,22.21-10.58l-.06-.21a18.47,18.47,0,0,1-1.75-4,48.32,48.32,0,0,1-3.94,3.4c-2.12,1.51-4.28,2.56-6.34,2.56-3.25,0-3.6-2.31-3.35-4.39.5-3.9,4.43-12.29,6.3-16.16L378,112.29c15.53-1.55,34.91-3.72,45.14,2.48-14.77,1.14-29.54,5.7-38.75,16.39a39,39,0,0,0-9.51,21.11,30.17,30.17,0,0,0,.19,7.2c1.95,10.06,11.08,16.79,25.4,16.79,24.06,0,45.11-19,47.41-37.78a21.29,21.29,0,0,0-4.19-17c8,3.08,14.06,8,15.61,10.53a18.76,18.76,0,0,0,9.82-9.39C465.72,119.33,452.15,115.39,436.37,114.61ZM416.73,160c-11.38,15.84-29.48,16.23-23-6.34,1-3.56,9.24-32.51,33.9-34.75a14.76,14.76,0,0,1,2.2,5.31C431.56,133.08,424.7,149.2,416.73,160Z"/><path class="cls-1" d="M459.5,44.41H463L467,55.58h0l3.84-11.17h3.48V58.68h-2.38v-11h0l-4,11h-2.06l-4-11h0v11H459.5Z"/><path class="cls-1" d="M477.32,44.41h5.92a6.73,6.73,0,0,1,2.84.55,5.44,5.44,0,0,1,2,1.53,6.63,6.63,0,0,1,1.13,2.27,10.67,10.67,0,0,1,0,5.57A6.63,6.63,0,0,1,488,56.6a5.32,5.32,0,0,1-2,1.52,6.57,6.57,0,0,1-2.84.56h-5.92Zm2.5,12.23h2.46a6.25,6.25,0,0,0,2.39-.39,3.46,3.46,0,0,0,1.46-1.07,4,4,0,0,0,.72-1.63,9.8,9.8,0,0,0,.19-2,9.94,9.94,0,0,0-.19-2,4,4,0,0,0-.72-1.62,3.56,3.56,0,0,0-1.46-1.08,6.45,6.45,0,0,0-2.39-.39h-2.46Z"/><path class="cls-1" d="M495.54,44.06h2.18L492,59H489.8Z"/><path class="cls-1" d="M512.62,51.54A7.77,7.77,0,0,1,512,54.6a7.29,7.29,0,0,1-1.6,2.36A7.36,7.36,0,0,1,505.3,59a7.56,7.56,0,0,1-3-.57A6.92,6.92,0,0,1,500,56.89a7.08,7.08,0,0,1-1.52-2.38,7.81,7.81,0,0,1-.55-3,7.66,7.66,0,0,1,.59-3.06,7.09,7.09,0,0,1,4-3.88,7.45,7.45,0,0,1,2.82-.54A7.2,7.2,0,0,1,512,48.48,7.84,7.84,0,0,1,512.62,51.54Zm-1.6,0a7,7,0,0,0-.44-2.5,5.86,5.86,0,0,0-1.22-2,5.8,5.8,0,0,0-1.82-1.27,5.6,5.6,0,0,0-2.24-.44,5.51,5.51,0,0,0-4.1,1.71A5.86,5.86,0,0,0,500,49a6.77,6.77,0,0,0-.44,2.5,7,7,0,0,0,.4,2.4,5.94,5.94,0,0,0,1.15,2,5.46,5.46,0,0,0,1.81,1.32,5.6,5.6,0,0,0,2.4.49A5.52,5.52,0,0,0,509.36,56a5.71,5.71,0,0,0,1.22-2A6.92,6.92,0,0,0,511,51.54Zm-7.2,4.29h-1.36V47.54h3.14a3.82,3.82,0,0,1,2.26.56,2.12,2.12,0,0,1,.76,1.83,2,2,0,0,1-.62,1.63,2.73,2.73,0,0,1-1.54.62l2.32,3.65h-1.54l-2.14-3.55h-1.28Zm1.52-4.71c.25,0,.5,0,.73,0a1.61,1.61,0,0,0,.61-.17,1.24,1.24,0,0,0,.42-.4,1.25,1.25,0,0,0,.16-.7,1,1,0,0,0-.17-.61,1.16,1.16,0,0,0-.43-.33,1.56,1.56,0,0,0-.58-.16l-.62,0h-1.64v2.42Z"/></g></g></svg>