<svg xmlns="http://www.w3.org/2000/svg" viewBox="0 0 292.69 68.13"><defs><style>.cls-1{fill:#260762;}.cls-2{fill:#fff;}.cls-3{fill:#5ea1ff;}</style></defs><title>logo-golo</title><g id="Layer_2" data-name="Layer 2"><g id="logo_golo" data-name="logo golo"><rect class="cls-1" x="115.28" y="2.71" width="174.71" height="62.71" rx="11.94" ry="11.94"/><path class="cls-2" d="M278.05,5.42a9.22,9.22,0,0,1,9.22,9.22V53.49a9.22,9.22,0,0,1-9.22,9.22H127.21A9.22,9.22,0,0,1,118,53.49V14.64a9.22,9.22,0,0,1,9.22-9.22H278.05m0-5.42H127.21a14.66,14.66,0,0,0-14.64,14.64V53.49a14.66,14.66,0,0,0,14.64,14.64H278.05a14.66,14.66,0,0,0,14.64-14.64V14.64A14.66,14.66,0,0,0,278.05,0Z"/><path class="cls-2" d="M227.61,42.13h-13.1V21.58a.26.26,0,0,0-.26-.26h-7.53a.25.25,0,0,0-.26.26V49.33a.26.26,0,0,0,.26.26h20.89a.26.26,0,0,0,.26-.26V42.39a.26.26,0,0,0-.26-.26"/><path class="cls-2" d="M189,20.8c-8.65,0-14.93,6.16-14.93,14.65S180.33,50.1,189,50.1s14.93-6.16,14.93-14.65S197.63,20.8,189,20.8Zm4.36,20.14a6.88,6.88,0,1,1,1.32-9.65A6.88,6.88,0,0,1,193.34,40.94Z"/><path class="cls-2" d="M244,20.79c-8.65,0-14.93,6.16-14.93,14.65S235.34,50.09,244,50.09s14.92-6.16,14.92-14.65S252.64,20.79,244,20.79Zm4.36,20.13a6.88,6.88,0,1,1,1.31-9.65A6.89,6.89,0,0,1,248.35,40.92Z"/><path class="cls-2" d="M171.19,33.17h-13.8a.26.26,0,0,0-.26.26v5.51a.26.26,0,0,0,.26.26h6.15c-.84,2.43-2.73,3.56-5.93,3.56s-6.56-2.26-6.56-7.31c0-4.18,2.65-7.1,6.44-7.1a6.84,6.84,0,0,1,5.11,2,.27.27,0,0,0,.37,0l5.31-5.23a.33.33,0,0,0,.08-.19.27.27,0,0,0-.08-.18A14,14,0,0,0,158,20.8c-8.91,0-15.13,6-15.13,14.65S149,50.08,158,50.08c6.78,0,13.66-4.86,13.66-14.16a15,15,0,0,0-.17-2.53.25.25,0,0,0-.25-.22"/><path class="cls-3" d="M259.45,28.54a.46.46,0,0,0,.17.17.28.28,0,0,0,.2,0,.16.16,0,0,0,.08-.06.1.1,0,0,0,0,0,1.07,1.07,0,0,0,.07-.19l.06-.16c0-.07,1.15-3.21,1.16-3.23l.12-.31,1.35-3.43a.23.23,0,0,0,0-.11.2.2,0,0,0,0-.11l0,0,0,0a.19.19,0,0,0-.1-.05h-.12l-3.65.5-.33,0-3.41.36-.18,0-.19,0-.06,0a.3.3,0,0,0-.08.08.24.24,0,0,0-.05.18.5.5,0,0,0,.13.21,21.52,21.52,0,0,1,2.78,2.82A25.78,25.78,0,0,1,259.45,28.54Z"/><path class="cls-2" d="M15.2,27.14V14.74H19a6.12,6.12,0,0,1,2.3.43,5.3,5.3,0,0,1,1.79,1.21,5.63,5.63,0,0,1,1.16,1.87,6.68,6.68,0,0,1,.41,2.42v.56a6.59,6.59,0,0,1-.41,2.41,5.33,5.33,0,0,1-1.16,1.87,5.21,5.21,0,0,1-1.81,1.2,5.89,5.89,0,0,1-2.3.43Zm2.55-10.33v8.28H19a2.76,2.76,0,0,0,2.3-1,4.51,4.51,0,0,0,.8-2.86v-.58a4.43,4.43,0,0,0-.79-2.86,2.76,2.76,0,0,0-2.29-1Z"/><path class="cls-2" d="M30.61,27.31A5,5,0,0,1,28.69,27a4.06,4.06,0,0,1-2.34-2.37A4.76,4.76,0,0,1,26,22.85v-.33a5.86,5.86,0,0,1,.3-1.92,4.38,4.38,0,0,1,.86-1.51,3.79,3.79,0,0,1,1.35-1,4.3,4.3,0,0,1,1.79-.35,4.52,4.52,0,0,1,1.75.32,3.5,3.5,0,0,1,1.27.92,3.81,3.81,0,0,1,.78,1.43,6.33,6.33,0,0,1,.26,1.86v1H28.53a2.38,2.38,0,0,0,.25.82,2.22,2.22,0,0,0,.46.63,2.25,2.25,0,0,0,.67.4,2.35,2.35,0,0,0,.86.15A3,3,0,0,0,32,25.07a2.36,2.36,0,0,0,1-.77l1.21,1.35a3.41,3.41,0,0,1-.55.61,3.45,3.45,0,0,1-.78.53,4.24,4.24,0,0,1-1,.38A5.35,5.35,0,0,1,30.61,27.31Zm-.28-7.56a1.68,1.68,0,0,0-.7.14,1.35,1.35,0,0,0-.52.39,2,2,0,0,0-.36.6,3.43,3.43,0,0,0-.19.78H32v-.2a2.48,2.48,0,0,0-.11-.68,1.53,1.53,0,0,0-.29-.55,1.41,1.41,0,0,0-.51-.35A1.88,1.88,0,0,0,30.33,19.75Z"/><path class="cls-2" d="M38.39,27.14H35.92V14.06h2.47Z"/><path class="cls-2" d="M40.4,15.54a1.2,1.2,0,0,1,.37-.91,1.39,1.39,0,0,1,1-.36,1.48,1.48,0,0,1,.57.1,1.11,1.11,0,0,1,.71.67,1.18,1.18,0,0,1,.1.5,1.27,1.27,0,0,1-.1.52,1.23,1.23,0,0,1-.27.4,1.3,1.3,0,0,1-.44.27,1.85,1.85,0,0,1-1.14,0,1.17,1.17,0,0,1-.43-.27,1.12,1.12,0,0,1-.28-.4A1.27,1.27,0,0,1,40.4,15.54ZM43,27.14H40.55V17.93H43Z"/><path class="cls-2" d="M48.49,24.13l1.71-6.2h2.57l-3.11,9.21H47.31l-3.1-9.21h2.57Z"/><path class="cls-2" d="M58,27.31A5.09,5.09,0,0,1,56.06,27,4.35,4.35,0,0,1,54.62,26a4.29,4.29,0,0,1-.9-1.42,4.76,4.76,0,0,1-.31-1.74v-.33a5.86,5.86,0,0,1,.3-1.92,4.55,4.55,0,0,1,.86-1.51,3.83,3.83,0,0,1,1.36-1,4.25,4.25,0,0,1,1.78-.35,4.48,4.48,0,0,1,1.75.32,3.62,3.62,0,0,1,1.28.92,3.94,3.94,0,0,1,.77,1.43,6,6,0,0,1,.26,1.86v1H55.91a2.61,2.61,0,0,0,.24.82,2.26,2.26,0,0,0,.47.63,2.13,2.13,0,0,0,.67.4,2.3,2.3,0,0,0,.85.15,3,3,0,0,0,1.25-.26,2.49,2.49,0,0,0,1-.77l1.21,1.35a3.92,3.92,0,0,1-.56.61,3.45,3.45,0,0,1-.78.53,4.24,4.24,0,0,1-1,.38A5.35,5.35,0,0,1,58,27.31Zm-.28-7.56a1.71,1.71,0,0,0-.7.14,1.43,1.43,0,0,0-.52.39,2.2,2.2,0,0,0-.35.6,3.42,3.42,0,0,0-.2.78h3.42v-.2a2.48,2.48,0,0,0-.1-.68,1.72,1.72,0,0,0-.3-.55,1.26,1.26,0,0,0-.51-.35A1.85,1.85,0,0,0,57.7,19.75Z"/><path class="cls-2" d="M68.34,20.23l-.43,0a3.7,3.7,0,0,0-.45,0,2.48,2.48,0,0,0-1.17.24,1.45,1.45,0,0,0-.66.7v6H63.17V17.93h2.32L65.56,19a2.86,2.86,0,0,1,.86-.93,2.15,2.15,0,0,1,1.19-.33l.42,0a2,2,0,0,1,.35.08Z"/><path class="cls-2" d="M73.12,23.66l1.7-5.73h2.64L73.78,28.52c-.09.23-.2.48-.33.76a3,3,0,0,1-.54.76,2.69,2.69,0,0,1-2.08.82h-.31l-.26,0L70,30.77l-.27-.07V28.83h.38a3.61,3.61,0,0,0,.62-.05,1.51,1.51,0,0,0,.45-.18,1.14,1.14,0,0,0,.31-.31,1.88,1.88,0,0,0,.22-.45l.27-.69-3.23-9.23h2.65Z"/><path class="cls-2" d="M91.08,22.62a8.06,8.06,0,0,1-.22,1.9A4.46,4.46,0,0,1,90.19,26a3.14,3.14,0,0,1-1.12,1,3.44,3.44,0,0,1-1.58.35,3,3,0,0,1-1.38-.3,3,3,0,0,1-1-.85l-.11,1H82.78V14.06h2.46v4.69a2.79,2.79,0,0,1,1-.73,2.92,2.92,0,0,1,1.29-.26,3.34,3.34,0,0,1,1.58.35,3.07,3.07,0,0,1,1.12,1,4.3,4.3,0,0,1,.68,1.48,7.88,7.88,0,0,1,.22,1.88Zm-2.46-.18a7,7,0,0,0-.08-1,2.43,2.43,0,0,0-.28-.85,1.44,1.44,0,0,0-.54-.58,1.6,1.6,0,0,0-.87-.21,1.82,1.82,0,0,0-1,.25,1.62,1.62,0,0,0-.6.71v3.63a1.64,1.64,0,0,0,.6.72,1.87,1.87,0,0,0,1,.26,1.61,1.61,0,0,0,.86-.21,1.5,1.5,0,0,0,.53-.56,2.35,2.35,0,0,0,.28-.86,7.2,7.2,0,0,0,.08-1.08Z"/><path class="cls-2" d="M95.94,23.66l1.7-5.73h2.64L96.59,28.52c-.08.23-.19.48-.32.76a3.52,3.52,0,0,1-.54.76,2.73,2.73,0,0,1-2.08.82h-.31l-.26,0-.25-.05-.27-.07V28.83h.37a3.65,3.65,0,0,0,.63-.05,1.51,1.51,0,0,0,.45-.18,1.14,1.14,0,0,0,.31-.31,1.88,1.88,0,0,0,.22-.45l.27-.69-3.23-9.23h2.65Z"/><path class="cls-2" d="M2.55,46H8v2.05H0V35.67H2.55Z"/><path class="cls-2" d="M9.26,36.47a1.22,1.22,0,0,1,.37-.91,1.4,1.4,0,0,1,1-.36,1.7,1.7,0,0,1,.57.09,1.16,1.16,0,0,1,.44.27,1,1,0,0,1,.27.4,1.25,1.25,0,0,1,.1.51,1.22,1.22,0,0,1-.1.51,1.13,1.13,0,0,1-.27.41,1.28,1.28,0,0,1-.44.26,1.85,1.85,0,0,1-1.14,0,1.24,1.24,0,0,1-.43-.26A1.3,1.3,0,0,1,9.36,37,1.4,1.4,0,0,1,9.26,36.47Zm2.62,11.59H9.41V38.85h2.47Z"/><path class="cls-2" d="M17.35,45.06l1.71-6.21h2.57l-3.1,9.21H16.18l-3.11-9.21h2.57Z"/><path class="cls-2" d="M27.89,41.16l-.43,0-.45,0a2.45,2.45,0,0,0-1.17.24,1.51,1.51,0,0,0-.66.71v6H22.72V38.85H25l.07,1.1A2.67,2.67,0,0,1,26,39a2.08,2.08,0,0,1,1.19-.34,2,2,0,0,1,.41,0,2.08,2.08,0,0,1,.36.07Z"/><path class="cls-2" d="M34.16,48.06a2.74,2.74,0,0,1-.25-.82,3.08,3.08,0,0,1-.94.7,2.93,2.93,0,0,1-1.38.29,3.58,3.58,0,0,1-1.24-.2,3.26,3.26,0,0,1-1-.57,2.68,2.68,0,0,1-.66-.87,2.57,2.57,0,0,1-.23-1.11,2.92,2.92,0,0,1,.26-1.29,2.46,2.46,0,0,1,.81-.95,3.79,3.79,0,0,1,1.33-.6,7.33,7.33,0,0,1,1.85-.2h1.1v-.53a1.49,1.49,0,0,0-.33-1,1.27,1.27,0,0,0-1-.39,1.47,1.47,0,0,0-1,.3,1,1,0,0,0-.35.82H28.66a2.34,2.34,0,0,1,.28-1.13,2.79,2.79,0,0,1,.78-.94A3.81,3.81,0,0,1,31,38.92a5.11,5.11,0,0,1,1.62-.24,5,5,0,0,1,1.48.21,3.25,3.25,0,0,1,1.17.6,2.71,2.71,0,0,1,.77,1,3.3,3.3,0,0,1,.28,1.42v3.89c0,.27,0,.5,0,.71s0,.39.07.56a3.71,3.71,0,0,0,.11.45,2.59,2.59,0,0,0,.17.38v.14Zm-2-1.71a2.22,2.22,0,0,0,.59-.07,2.66,2.66,0,0,0,.48-.2,2.16,2.16,0,0,0,.37-.29,1.79,1.79,0,0,0,.25-.33V43.87h-1A3,3,0,0,0,32,44a1.59,1.59,0,0,0-.58.3,1.12,1.12,0,0,0-.34.45,1.32,1.32,0,0,0-.11.57,1,1,0,0,0,.32.75A1.25,1.25,0,0,0,32.12,46.35Z"/><path class="cls-2" d="M38.15,36.47a1.22,1.22,0,0,1,.37-.91,1.4,1.4,0,0,1,1-.36,1.7,1.7,0,0,1,.57.09,1.16,1.16,0,0,1,.44.27,1,1,0,0,1,.27.4,1.25,1.25,0,0,1,.1.51,1.22,1.22,0,0,1-.1.51,1.13,1.13,0,0,1-.27.41,1.28,1.28,0,0,1-.44.26,1.85,1.85,0,0,1-1.14,0,1.24,1.24,0,0,1-.43-.26,1.3,1.3,0,0,1-.28-.41A1.4,1.4,0,0,1,38.15,36.47Zm2.62,11.59H38.3V38.85h2.47Z"/><path class="cls-2" d="M47.78,45.52a.86.86,0,0,0-.07-.36.82.82,0,0,0-.29-.3,2.88,2.88,0,0,0-.58-.27,8.94,8.94,0,0,0-1-.25A9.59,9.59,0,0,1,44.58,44a3.77,3.77,0,0,1-1-.57,2.57,2.57,0,0,1-.69-.79,2.2,2.2,0,0,1-.25-1.05,2.47,2.47,0,0,1,.26-1.1,2.59,2.59,0,0,1,.72-.91,3.31,3.31,0,0,1,1.16-.63,4.89,4.89,0,0,1,1.54-.23,5.7,5.7,0,0,1,1.61.22,3.73,3.73,0,0,1,1.21.62,2.66,2.66,0,0,1,.77.94,2.63,2.63,0,0,1,.27,1.19H47.69a1.18,1.18,0,0,0-.34-.87,1.45,1.45,0,0,0-1.07-.35,1.47,1.47,0,0,0-1,.29.86.86,0,0,0-.34.71.69.69,0,0,0,.09.36.89.89,0,0,0,.29.29,2.4,2.4,0,0,0,.53.25,6.63,6.63,0,0,0,.8.2,12.21,12.21,0,0,1,1.39.36,3.78,3.78,0,0,1,1.1.55,2.45,2.45,0,0,1,.73.81,2.6,2.6,0,0,1,0,2.29,2.54,2.54,0,0,1-.78.89A3.75,3.75,0,0,1,47.9,48a5.69,5.69,0,0,1-1.6.21A5,5,0,0,1,44.59,48a4.08,4.08,0,0,1-1.25-.71,3,3,0,0,1-.76-1,2.65,2.65,0,0,1-.26-1.11h2.34a1.44,1.44,0,0,0,.15.61,1.11,1.11,0,0,0,.38.42,1.51,1.51,0,0,0,.53.24,2.59,2.59,0,0,0,.63.08,1.78,1.78,0,0,0,1.07-.27A.83.83,0,0,0,47.78,45.52Z"/><path class="cls-2" d="M51.38,43.37a5.58,5.58,0,0,1,.29-1.86A4.19,4.19,0,0,1,52.51,40a3.86,3.86,0,0,1,1.36-1,5,5,0,0,1,3.72,0A3.94,3.94,0,0,1,59,40a4.19,4.19,0,0,1,.84,1.49,5.58,5.58,0,0,1,.29,1.86v.18a5.6,5.6,0,0,1-.29,1.87A4.23,4.23,0,0,1,59,46.9a4,4,0,0,1-1.37,1,5.12,5.12,0,0,1-3.72,0,3.9,3.9,0,0,1-1.37-1,4.23,4.23,0,0,1-.84-1.48,5.6,5.6,0,0,1-.29-1.87Zm2.46.18a5.09,5.09,0,0,0,.1,1.06,2.6,2.6,0,0,0,.33.85,1.69,1.69,0,0,0,.58.58,2,2,0,0,0,1.77,0,1.81,1.81,0,0,0,.59-.58,2.6,2.6,0,0,0,.33-.85,5.09,5.09,0,0,0,.1-1.06v-.18a4.87,4.87,0,0,0-.1-1,2.66,2.66,0,0,0-.33-.86,1.78,1.78,0,0,0-.6-.59,1.69,1.69,0,0,0-2.34.59,2.66,2.66,0,0,0-.33.86,4.87,4.87,0,0,0-.1,1Z"/><path class="cls-2" d="M63.88,38.85,64,39.92A3.19,3.19,0,0,1,65.11,39a3.51,3.51,0,0,1,1.5-.32,3.76,3.76,0,0,1,1.19.18,2.37,2.37,0,0,1,.92.6,3,3,0,0,1,.59,1.09,5.64,5.64,0,0,1,.21,1.66v5.85H67.06V42.19a2.14,2.14,0,0,0-.1-.73,1,1,0,0,0-.28-.46,1.09,1.09,0,0,0-.46-.25,3,3,0,0,0-.63-.07,1.75,1.75,0,0,0-.94.24,1.84,1.84,0,0,0-.62.65v6.49H61.57V38.85Z"/><path class="cls-2" d="M84,43.54a7.43,7.43,0,0,1-.23,1.87,4.6,4.6,0,0,1-.69,1.48,3.22,3.22,0,0,1-1.12,1,3.33,3.33,0,0,1-1.54.35A3.13,3.13,0,0,1,79.15,48a2.82,2.82,0,0,1-1-.72v4.35H75.73V38.85H78l.08.9a3.23,3.23,0,0,1,1-.79,3,3,0,0,1,1.35-.28A3.37,3.37,0,0,1,82,39,3.1,3.1,0,0,1,83.1,40a4.6,4.6,0,0,1,.69,1.48A7.63,7.63,0,0,1,84,43.36Zm-2.46-.18a5.09,5.09,0,0,0-.1-1.06,2.68,2.68,0,0,0-.31-.85,1.48,1.48,0,0,0-.55-.56,1.51,1.51,0,0,0-.82-.21,2,2,0,0,0-1,.23,1.48,1.48,0,0,0-.6.66v3.77a1.62,1.62,0,0,0,.6.67,1.89,1.89,0,0,0,1,.24,1.54,1.54,0,0,0,.82-.21,1.62,1.62,0,0,0,.54-.59,2.64,2.64,0,0,0,.3-.86,5.06,5.06,0,0,0,.1-1.05Z"/><path class="cls-2" d="M90.88,48.06a2.75,2.75,0,0,1-.24-.82,3.13,3.13,0,0,1-1,.7,2.88,2.88,0,0,1-1.38.29,3.62,3.62,0,0,1-1.24-.2,3.21,3.21,0,0,1-1-.57,2.55,2.55,0,0,1-.66-.87,2.57,2.57,0,0,1-.24-1.11,2.92,2.92,0,0,1,.27-1.29,2.35,2.35,0,0,1,.8-.95,3.79,3.79,0,0,1,1.33-.6,7.33,7.33,0,0,1,1.85-.2h1.1v-.53a1.54,1.54,0,0,0-.32-1,1.29,1.29,0,0,0-1-.39,1.44,1.44,0,0,0-1,.3,1,1,0,0,0-.36.82H85.38a2.34,2.34,0,0,1,.28-1.13,2.82,2.82,0,0,1,.79-.94,3.76,3.76,0,0,1,1.23-.63,5.11,5.11,0,0,1,1.62-.24,5,5,0,0,1,1.48.21,3.29,3.29,0,0,1,1.18.6,2.93,2.93,0,0,1,.77,1A3.46,3.46,0,0,1,93,41.93v3.89c0,.27,0,.5,0,.71a4.5,4.5,0,0,0,.07.56,1.85,1.85,0,0,0,.11.45,2.54,2.54,0,0,0,.16.38v.14Zm-2-1.71a2.15,2.15,0,0,0,.58-.07,2.66,2.66,0,0,0,.48-.2,1.83,1.83,0,0,0,.37-.29,1.44,1.44,0,0,0,.25-.33V43.87h-1a3,3,0,0,0-.84.11,1.56,1.56,0,0,0-.59.3,1.22,1.22,0,0,0-.34.45,1.32,1.32,0,0,0-.11.57,1,1,0,0,0,.32.75A1.26,1.26,0,0,0,88.85,46.35Z"/><path class="cls-2" d="M100.07,41.16l-.44,0-.45,0a2.48,2.48,0,0,0-1.17.24,1.57,1.57,0,0,0-.66.71v6H94.89V38.85h2.33l.07,1.1a2.65,2.65,0,0,1,.85-.93,2.11,2.11,0,0,1,1.2-.34,2,2,0,0,1,.41,0,2.15,2.15,0,0,1,.35.07Z"/></g></g></svg>