<svg xmlns="http://www.w3.org/2000/svg" viewBox="0 0 180.12 68.13"><defs><style>.cls-1{fill:#260762}.cls-2{fill:#fff}.cls-3{fill:#5ea1ff}</style></defs><title>logo-golo-only</title><g id="Layer_2" data-name="Layer 2"><g id="logo_golo" data-name="logo golo"><rect width="174.71" height="62.71" x="2.71" y="2.71" class="cls-1" rx="11.94" ry="11.94"/><path d="M165.48,5.42a9.22,9.22,0,0,1,9.23,9.22V53.49a9.22,9.22,0,0,1-9.23,9.22H14.64a9.22,9.22,0,0,1-9.22-9.22V14.64a9.22,9.22,0,0,1,9.22-9.22H165.48m0-5.42H14.64A14.66,14.66,0,0,0,0,14.64V53.49A14.66,14.66,0,0,0,14.64,68.13H165.48a14.66,14.66,0,0,0,14.64-14.64V14.64A14.66,14.66,0,0,0,165.48,0Z" class="cls-2"/><path d="M115,42.13h-13.1V21.58a.26.26,0,0,0-.26-.26H94.15a.26.26,0,0,0-.26.26V49.33a.26.26,0,0,0,.26.26H115a.26.26,0,0,0,.26-.26V42.39a.26.26,0,0,0-.26-.26" class="cls-2"/><path d="M76.41,20.8c-8.65,0-14.92,6.16-14.92,14.65S67.76,50.1,76.41,50.1s14.93-6.16,14.93-14.65S85.07,20.8,76.41,20.8Zm4.37,20.14a6.88,6.88,0,1,1,1.31-9.65A6.89,6.89,0,0,1,80.78,40.94Z" class="cls-2"/><path d="M131.42,20.79c-8.65,0-14.93,6.16-14.93,14.65s6.28,14.65,14.93,14.65,14.93-6.16,14.93-14.65S140.07,20.79,131.42,20.79Zm4.36,20.13a6.88,6.88,0,1,1,1.31-9.65A6.88,6.88,0,0,1,135.78,40.92Z" class="cls-2"/><path d="M58.62,33.17H44.82a.26.26,0,0,0-.26.26v5.51a.26.26,0,0,0,.26.26H51c-.84,2.43-2.73,3.56-5.93,3.56s-6.56-2.26-6.56-7.31c0-4.18,2.65-7.1,6.44-7.1a6.83,6.83,0,0,1,5.11,2,.27.27,0,0,0,.37,0l5.31-5.23a.27.27,0,0,0,.08-.19.27.27,0,0,0-.08-.18A14,14,0,0,0,45.38,20.8c-8.91,0-15.13,6-15.13,14.65s6.22,14.63,15.13,14.63C52.17,50.08,59,45.22,59,35.92a16.07,16.07,0,0,0-.16-2.53.26.26,0,0,0-.26-.22" class="cls-2"/><path d="M146.88,28.54a.42.42,0,0,0,.18.17.25.25,0,0,0,.19,0,.24.24,0,0,0,.09-.06.09.09,0,0,0,0,0,1.07,1.07,0,0,0,.07-.19l.06-.16c0-.07,1.16-3.21,1.16-3.23s.12-.29.13-.31,1.34-3.42,1.35-3.43a.43.43,0,0,0,0-.11.2.2,0,0,0,0-.11.05.05,0,0,0,0,0l0,0a.19.19,0,0,0-.1-.05h-.11l-3.65.5-.33,0-3.42.36-.18,0-.19,0-.06,0L142,22a.23.23,0,0,0,0,.18.4.4,0,0,0,.12.21,21.52,21.52,0,0,1,2.78,2.82A24.63,24.63,0,0,1,146.88,28.54Z" class="cls-3"/></g></g></svg>