<svg id="Layer_1" data-name="Layer 1" xmlns="http://www.w3.org/2000/svg" viewBox="0 0 254.91 62.33"><defs><style>.cls-1{fill:#fff}</style></defs><path class="cls-1" d="M180.26 45.38h-27.85V1.68a.56.56 0 0 0-.56-.55h-16a.55.55 0 0 0-.55.55v59a.54.54 0 0 0 .55.55h44.42a.55.55 0 0 0 .55-.55V45.93a.55.55 0 0 0-.55-.55M98.14 0C79.75 0 66.4 13.14 66.4 31.18s13.35 31.15 31.74 31.15 31.73-13.1 31.73-31.15S116.53 0 98.14 0zm9.27 42.8a14.63 14.63 0 1 1 2.79-20.51 14.62 14.62 0 0 1-2.79 20.55zM215.07 0c-18.39 0-31.74 13.1-31.74 31.15s13.35 31.14 31.74 31.14 31.74-13.1 31.74-31.14S233.46 0 215.07 0zm9.27 42.8a14.63 14.63 0 1 1 2.8-20.5 14.63 14.63 0 0 1-2.8 20.5zM60.31 26.32H31a.55.55 0 0 0-.55.55v11.72a.55.55 0 0 0 .55.55h13.05c-1.78 5.17-5.81 7.58-12.61 7.58S17.5 41.91 17.5 31.17c0-8.88 5.63-15.08 13.69-15.08a14.56 14.56 0 0 1 10.87 4.18.55.55 0 0 0 .77 0L54.12 9.15a.6.6 0 0 0 .17-.4.59.59 0 0 0-.16-.39C48.64 2.83 41.25 0 32.16 0 13.22 0 0 12.83 0 31.17s13.22 31.11 32.16 31.11c14.43 0 29-10.34 29-30.1a33 33 0 0 0-.35-5.39.55.55 0 0 0-.54-.47M247.94 16.49a1.16 1.16 0 0 0 .37.36.58.58 0 0 0 .41 0 .5.5 0 0 0 .19-.13.44.44 0 0 0 .08-.11c.06-.13.1-.26.15-.39l.12-.35c.05-.15 2.45-6.83 2.47-6.88s.24-.6.26-.66 2.87-7.26 2.87-7.28a.4.4 0 0 0 0-.24.59.59 0 0 0 0-.23l-.06-.09-.08-.08a.53.53 0 0 0-.21-.11.65.65 0 0 0-.24 0l-7.76 1.05-.7.1-7.27.76h-.37a2.7 2.7 0 0 0-.41 0 .21.21 0 0 0-.13 0 .61.61 0 0 0-.17.15.56.56 0 0 0-.09.4 1 1 0 0 0 .26.45 45.2 45.2 0 0 1 5.92 6 54.12 54.12 0 0 1 4.39 7.28z"/></svg>