<svg xmlns="http://www.w3.org/2000/svg" xmlns:xlink="http://www.w3.org/1999/xlink" viewBox="0 0 1849.56 1596.33"><defs><style>.cls-1,.cls-10,.cls-11,.cls-12,.cls-13,.cls-14,.cls-15,.cls-16,.cls-17,.cls-18,.cls-19,.cls-2,.cls-20,.cls-21,.cls-23,.cls-24,.cls-25,.cls-26,.cls-27,.cls-28,.cls-29,.cls-3,.cls-30,.cls-4,.cls-5,.cls-6,.cls-7,.cls-8,.cls-9{fill:none}.cls-1,.cls-12,.cls-14,.cls-18,.cls-23,.cls-5,.cls-9{stroke:#ffdc68}.cls-1,.cls-12,.cls-13,.cls-14,.cls-15,.cls-16,.cls-19,.cls-2,.cls-20,.cls-21,.cls-23,.cls-24,.cls-25,.cls-26,.cls-27,.cls-28,.cls-29,.cls-3,.cls-30,.cls-4,.cls-5,.cls-6,.cls-7{stroke-linejoin:round}.cls-1,.cls-10,.cls-11,.cls-12,.cls-13,.cls-15,.cls-2,.cls-20,.cls-21,.cls-26,.cls-27,.cls-28,.cls-3,.cls-6,.cls-7,.cls-8,.cls-9{stroke-width:9.83px}.cls-11,.cls-2,.cls-30,.cls-6{stroke:#fff}.cls-12,.cls-13,.cls-2,.cls-21,.cls-24,.cls-25,.cls-27{stroke-linecap:round}.cls-19,.cls-27,.cls-28,.cls-3,.cls-4,.cls-8{stroke:#009ade}.cls-29,.cls-30,.cls-4,.cls-5{stroke-width:7.37px}.cls-10,.cls-13,.cls-16,.cls-25,.cls-29,.cls-7{stroke:#ab7129}.cls-10,.cls-11,.cls-18,.cls-8,.cls-9{stroke-miterlimit:10}.cls-14{stroke-width:8.75px}.cls-15,.cls-21,.cls-24,.cls-26{stroke:#f6f7f8}.cls-16,.cls-18,.cls-19,.cls-24,.cls-25{stroke-width:4.92px}.cls-20{stroke:#ea4a34}.cls-22{clip-path:url(#clip-path)}.cls-23{stroke-width:3.69px}.cls-26,.cls-28{stroke-dasharray:14.75}</style><clipPath id="clip-path"><rect width="65.1" height="105.76" x="1175.94" y="606.66" class="cls-1" transform="translate(-96.17 219.87) rotate(-10)"/></clipPath></defs><title>artwork_original</title><g id="Layer_2" data-name="Layer 2"><g id="Layer_1-2" data-name="Layer 1"><line x1="1528.8" x2="1624.8" y1="1360.56" y2="1343.63" class="cls-2"/><line x1="1519.29" x2="1570.51" y1="1306.65" y2="1592.12" class="cls-3"/><line x1="1386.87" x2="1415.31" y1="250.2" y2="411.5" class="cls-4"/><polygon points="1375.65 186.62 1391.59 216.59 1425.01 210.7 1401.44 235.11 1417.37 265.08 1386.87 250.2 1363.29 274.62 1368.01 241 1337.51 226.13 1370.93 220.23 1375.65 186.62" class="cls-5"/><polyline points="938.62 463.51 990.7 758.9 776.36 796.7" class="cls-1"/><line x1="1021.44" x2="1041.87" y1="551.78" y2="667.63" class="cls-1"/><line x1="890.97" x2="916.77" y1="574.78" y2="721.06" class="cls-1"/><line x1="917.86" x2="954.75" y1="536.5" y2="745.75" class="cls-1"/><line x1="178.68" x2="103.43" y1="538.72" y2="486.03" class="cls-3"/><polygon points="30.5 434.96 75.26 448.64 102.11 410.3 102.92 457.1 147.69 470.79 103.43 486.03 104.25 532.83 76.08 495.44 31.82 510.68 58.67 472.34 30.5 434.96" class="cls-6"/><rect width="21.86" height="91.46" x="1612.66" y="640.35" class="cls-7" transform="translate(-94.47 292.36) rotate(-10)"/><circle cx="1601.99" cy="563.57" r="79.42" class="cls-3"/><line x1="1615.79" x2="1588.2" y1="641.78" y2="485.36" class="cls-3"/><line x1="1596.99" x2="1648.69" y1="535.2" y2="499.33" class="cls-3"/><line x1="1604.85" x2="1672.79" y1="579.78" y2="532.64" class="cls-3"/><line x1="1611.28" x2="1679.29" y1="616.25" y2="569.06" class="cls-3"/><line x1="1596.99" x2="1536.15" y1="535.2" y2="519.18" class="cls-3"/><line x1="1604.85" x2="1524.89" y1="579.78" y2="558.72" class="cls-3"/><line x1="1611.28" x2="1531.24" y1="616.25" y2="595.17" class="cls-3"/><line x1="906.32" x2="748.99" y1="1414.74" y2="1442.48" class="cls-3"/><polygon points="1528.8 1360.56 1461.21 1314.25 1429.15 1132.42 1486.78 1122.26 1528.8 1360.56" class="cls-3"/><line x1="906.32" x2="927.07" y1="1414.74" y2="1532.39" class="cls-3"/><line x1="963.95" x2="984.7" y1="1404.57" y2="1522.23" class="cls-3"/><line x1="341.97" x2="689.21" y1="378.12" y2="316.89" class="cls-8"/><line x1="331.51" x2="801.08" y1="318.76" y2="235.96" class="cls-9"/><line x1="336.74" x2="706.29" y1="348.44" y2="283.28" class="cls-10"/><line x1="326.07" x2="890.12" y1="287.93" y2="188.47" class="cls-11"/><line x1="1805.09" x2="1567.93" y1="1203.69" y2="1245.51" class="cls-12"/><line x1="1819.88" x2="1562.7" y1="1170.48" y2="1215.83" class="cls-13"/><path d="M1848.71,1134.8,1642,1171.25a45.67,45.67,0,0,1-52.91-37l0-.27" class="cls-8"/><path d="M1791.19,1237.93,1649,1263a36.68,36.68,0,0,0-29.76,42.51l18,102.33" class="cls-2"/><path d="M1766.83,1282l-72.69,12.81a28.47,28.47,0,0,0-23.09,33l12.67,71.89" class="cls-12"/><path d="M1792.71,1314.5l-49.26,8.69a28.13,28.13,0,0,0-22.82,32.59L1727,1392" class="cls-8"/><polyline points="1544.24 830.27 1608.85 818.88 1594.52 737.64 1688.09 721.14 1788.12 791.19" class="cls-8"/><line x1="1589.07" x2="1583.94" y1="1134.21" y2="1105.13" class="cls-8"/><rect width="21.86" height="91.46" x="423.36" y="1199.45" class="cls-7" transform="matrix(0.98, -0.17, 0.17, 0.98, -209.63, 94.33)"/><circle cx="412.69" cy="1122.68" r="79.42" class="cls-14"/><line x1="426.48" x2="398.9" y1="1200.89" y2="1044.46" class="cls-14"/><line x1="407.69" x2="459.38" y1="1094.31" y2="1058.44" class="cls-14"/><line x1="415.55" x2="483.49" y1="1138.89" y2="1091.75" class="cls-14"/><line x1="421.98" x2="489.99" y1="1175.35" y2="1128.17" class="cls-14"/><line x1="407.69" x2="346.84" y1="1094.31" y2="1078.28" class="cls-14"/><line x1="415.55" x2="335.58" y1="1138.89" y2="1117.83" class="cls-14"/><line x1="421.98" x2="341.93" y1="1175.35" y2="1154.27" class="cls-14"/><path d="M852.14,1066.64l-29.35,5.18a67,67,0,0,0-54.3,77.55l37.23,211.1.14.79A70.1,70.1,0,0,1,749,1442.47" class="cls-15"/><path d="M1439.28,548.37l8.17,46.35a28.29,28.29,0,0,1-23,32.78l-112.3,19.81a28.29,28.29,0,0,0-23,32.78l48,272.28a28.32,28.32,0,0,1-23,32.79l-386.84,68.21a41.48,41.48,0,0,1-26.09-3.93h0a41.42,41.42,0,0,1-21.94-29.71L860.58,913a60.34,60.34,0,0,1,48.94-69.9l125.74-22.17L983.09,525" class="cls-15"/><line x1="212.01" x2="691.47" y1="1470.22" y2="1385.67" class="cls-1"/><path d="M454.53,1148.9h0A13.08,13.08,0,0,1,467.61,1162v395.47a26.16,26.16,0,0,1-26.16,26.16h0a0,0,0,0,1,0,0V1162A13.08,13.08,0,0,1,454.53,1148.9Z" class="cls-7" transform="translate(1721.09 681.38) rotate(80)"/><line x1="360.96" x2="365.51" y1="1369.47" y2="1395.23" class="cls-7"/><polyline points="973.46 1458.48 931.44 1220.18 989.06 1210.02 1031.08 1448.32" class="cls-7"/><line x1="931.44" x2="999.22" y1="1220.18" y2="1267.65" class="cls-16"/><line x1="951.02" x2="1018.81" y1="1331.23" y2="1378.7" class="cls-16"/><line x1="961.18" x2="1028.97" y1="1388.86" y2="1436.32" class="cls-16"/><line x1="941.23" x2="1009.02" y1="1275.71" y2="1323.17" class="cls-16"/><rect width="622.43" height="60.76" x="863.81" y="1116" class="cls-17" transform="translate(-181.22 221.46) rotate(-10)"/><path d="M412.53,805.94,178.74,847.16l-34.59,6.1a54.83,54.83,0,0,1-63.53-44.48h0a54.84,54.84,0,0,1,44.49-63.53L200.36,732a32.42,32.42,0,0,1,37.56,26.29l9.8,55.57" class="cls-9"/><ellipse cx="456.08" cy="798.26" class="cls-9" rx="44.22" ry="26.54" transform="translate(-131.69 91.32) rotate(-10)"/><path d="M432.2,793.6a8.89,8.89,0,0,0,3.09,17.51" class="cls-18"/><rect width="21.88" height="64.66" x="424.77" y="484.33" class="cls-1" transform="matrix(-0.82, -0.57, 0.57, -0.82, 496.28, 1189.8)"/><rect width="21.88" height="120.9" x="202.53" y="515.59" class="cls-7" transform="translate(-380.84 420.5) rotate(-55)"/><rect width="21.88" height="127.44" x="284.66" y="507.99" class="cls-1" transform="translate(-94.78 60.02) rotate(-10)"/><rect width="21.88" height="60.45" x="365.62" y="493.19" class="cls-6" rx="4.72" transform="translate(-85.17 73.34) rotate(-10)"/><rect width="21.88" height="60.45" x="243.04" y="446.32" class="cls-6" rx="4.72" transform="translate(679.18 143.67) rotate(80)"/><rect width="21.88" height="67.76" x="332.94" y="559.61" class="cls-7" transform="translate(-97.83 68.73) rotate(-10)"/><rect width="21.88" height="21.88" x="203.19" y="605.14" class="cls-6" rx="4.72" transform="translate(-355.4 933.93) rotate(-100)"/><rect width="21.88" height="21.88" x="116.59" y="620.41" class="cls-6" rx="4.72" transform="translate(-472.08 866.57) rotate(-100)"/><rect width="21.88" height="21.88" x="466.49" y="514.28" class="cls-1" transform="translate(43.1 1086.6) rotate(-100)"/><rect width="21.88" height="21.88" x="321.62" y="518.39" class="cls-1" transform="translate(-130.98 948.76) rotate(-100)"/><rect width="21.88" height="120.9" x="425.33" y="516.46" class="cls-1" transform="translate(-56.12 1106.73) rotate(-100)"/><rect width="21.88" height="60.45" x="156.57" y="575.86" class="cls-1" transform="translate(-102.7 38.29) rotate(-10)"/><rect width="21.88" height="60.45" x="235.62" y="515.33" class="cls-1" transform="translate(-90.99 51.1) rotate(-10)"/><rect width="21.88" height="21.88" x="314.02" y="475.3" class="cls-6" rx="4.72" transform="translate(-79.5 63.82) rotate(-10)"/><rect width="21.88" height="56.51" x="382.26" y="463.54" class="cls-6" rx="4.72" transform="translate(-79.43 75.75) rotate(-10)"/><rect width="21.88" height="21.88" x="206.3" y="494.3" class="cls-6" rx="4.72" transform="translate(-84.43 45.4) rotate(-10)"/><rect width="21.88" height="21.88" x="119" y="571.08" class="cls-1" transform="translate(357.33 30.73) rotate(35)"/><polygon points="474.8 604.81 149.62 662.14 214.92 760.79 447.18 719.83 474.8 604.81" class="cls-3"/><line x1="165.43" x2="468.11" y1="686.02" y2="632.65" class="cls-3"/><line x1="461.3" x2="432.26" y1="650.47" y2="655.59" class="cls-19"/><line x1="458.54" x2="412.72" y1="672.51" y2="680.59" class="cls-19"/><line x1="458.88" x2="422.49" y1="661.68" y2="668.09" class="cls-19"/><line x1="453.14" x2="393.18" y1="695.02" y2="705.59" class="cls-19"/><line x1="455.84" x2="402.95" y1="683.77" y2="693.09" class="cls-19"/><line x1="450.44" x2="383.41" y1="706.27" y2="718.09" class="cls-19"/><line x1="1751.48" x2="1676.24" y1="470.25" y2="417.56" class="cls-20"/><path d="M1622.1,379.85c-8-7.72-11.78-23.75-3.7-35.29s24.69-11.9,36.83-3.4c23,16.1,25.08,48.5,23.25,78.17-27.25,11.86-58.42,21-81.41,4.88-12.14-8.49-17.48-24.23-9.4-35.77S1612.13,375,1622.1,379.85Z" class="cls-20"/><rect width="21.88" height="64.66" x="938.63" y="898.52" class="cls-1" transform="translate(-357.59 1174.78) rotate(-55)"/><rect width="21.88" height="120.9" x="1167.78" y="850.19" class="cls-1" transform="translate(1621.95 2332.68) rotate(-145)"/><rect width="21.88" height="127.44" x="1089.12" y="870.94" class="cls-7" transform="translate(2345.7 1664.09) rotate(170)"/><rect width="21.88" height="60.45" x="996.52" y="886.75" class="cls-6" rx="4.72" transform="translate(2158.85 1645.07) rotate(170)"/><rect width="21.88" height="60.45" x="1095.69" y="800.77" class="cls-6" rx="4.72" transform="translate(1732.83 -403.12) rotate(80)"/><rect width="21.88" height="67.76" x="1051.21" y="937.76" class="cls-1" transform="translate(2276.88 1744.08) rotate(170)"/><rect width="21.88" height="21.88" x="1180.85" y="937.55" class="cls-6" rx="4.72" transform="translate(464.67 2286.87) rotate(-100)"/><rect width="21.88" height="21.88" x="1267.45" y="922.28" class="cls-6" rx="4.72" transform="translate(581.35 2354.24) rotate(-100)"/><rect width="21.88" height="21.88" x="902.36" y="942.22" class="cls-1" transform="translate(133.21 2018.1) rotate(-100)"/><rect width="21.88" height="21.88" x="1039.89" y="896.54" class="cls-1" transform="translate(339.62 2099.93) rotate(-100)"/><rect width="21.88" height="120.9" x="958.71" y="927.2" class="cls-7" transform="translate(165.38 2114.08) rotate(-100)"/><rect width="21.88" height="60.45" x="1221.25" y="892.93" class="cls-1" transform="translate(2605.96 1618.31) rotate(170)"/><rect width="21.88" height="60.45" x="1126.26" y="863.09" class="cls-1" transform="translate(2412.24 1575.58) rotate(170)"/><rect width="21.88" height="21.88" x="1032.3" y="853.45" class="cls-6" rx="4.72" transform="translate(2220.72 1534.49) rotate(170)"/><rect width="21.88" height="56.51" x="970.07" y="864.69" class="cls-6" rx="4.72" transform="matrix(-0.98, 0.17, -0.17, -0.98, 2102.18, 1601.97)"/><rect width="21.88" height="21.88" x="1140.02" y="834.45" class="cls-6" rx="4.72" transform="translate(2431.24 1478.08) rotate(170)"/><rect width="21.88" height="21.88" x="1248.32" y="876.75" class="cls-7" transform="translate(2708.69 365.32) rotate(125)"/><rect width="20.73" height="61.27" x="1485.38" y="691.83" class="cls-1" transform="translate(2306.6 2172.2) rotate(-145)"/><rect width="20.73" height="57.29" x="1429.32" y="700.23" class="cls-6" rx="4.47" transform="translate(-104.69 261.07) rotate(-10)"/><rect width="20.73" height="64.21" x="1398.34" y="763.17" class="cls-7" transform="translate(-116.7 256.7) rotate(-10)"/><rect width="20.73" height="20.73" x="1524.91" y="720.21" class="cls-7" transform="translate(1082.4 2369.39) rotate(-100)"/><rect width="20.73" height="62.2" x="1367.21" y="706.97" class="cls-1" transform="translate(889.93 2222.88) rotate(-100)"/><rect width="20.73" height="114.57" x="1485.9" y="722.27" class="cls-1" transform="translate(988.38 2388.46) rotate(-100)"/><rect width="20.73" height="20.73" x="1380.42" y="683.27" class="cls-6" rx="4.47" transform="translate(-99.32 252.05) rotate(-10)"/><rect width="20.73" height="20.73" x="1357.51" y="792.11" class="cls-6" rx="4.47" transform="translate(-118.57 249.72) rotate(-10)"/><rect width="20.73" height="53.56" x="1445.09" y="672.12" class="cls-6" rx="4.47" transform="translate(-99.25 263.36) rotate(-10)"/><path d="M1565.79,956.07l2.15,12.23a35.19,35.19,0,0,1-28.56,40.78L1452,1024.49a35.21,35.21,0,0,1-40.78-28.56l-28.82-163.42,156.71-27.63,9.53,54.09" class="cls-3"/><rect width="159.75" height="26.82" x="1383.54" y="818.44" class="cls-3" transform="translate(-122.22 266.76) rotate(-10)"/><line x1="612.49" x2="574.81" y1="803.45" y2="589.78" class="cls-21"/><path d="M551,562.36l2.16,12.26a18.68,18.68,0,1,0,36.8-6.48l-2.16-12.27Z" class="cls-21"/><line x1="551.01" x2="541.06" y1="562.36" y2="505.92" class="cls-21"/><line x1="569.41" x2="559.46" y1="559.11" y2="502.67" class="cls-21"/><line x1="587.81" x2="577.86" y1="555.87" y2="499.43" class="cls-21"/><path d="M620.35,406.39h0a26.16,26.16,0,0,1,26.16,26.16V683A13.08,13.08,0,0,1,633.43,696h0A13.08,13.08,0,0,1,620.35,683V406.39A0,0,0,0,1,620.35,406.39Z" class="cls-9" transform="translate(-86.1 118.37) rotate(-10)"/><line x1="631.38" x2="657.14" y1="614.91" y2="610.37" class="cls-9"/><rect width="622.43" height="60.76" x="863.81" y="1116" class="cls-3" transform="translate(-181.22 221.46) rotate(-10)"/><polyline points="973.46 1458.48 906.32 1414.73 873.81 1230.34 931.44 1220.18 973.46 1458.48" class="cls-3"/><rect width="58.52" height="241.98" x="1507.35" y="1115.34" class="cls-7" transform="translate(-191.34 285.61) rotate(-10)"/><line x1="1544.41" x2="1496.94" y1="1112.1" y2="1179.88" class="cls-16"/><line x1="1563.99" x2="1516.52" y1="1223.15" y2="1290.94" class="cls-16"/><line x1="1574.15" x2="1526.68" y1="1280.77" y2="1348.56" class="cls-16"/><line x1="1554.2" x2="1506.73" y1="1167.62" y2="1235.41" class="cls-16"/><polyline points="1795.7 1006.66 1476.33 1062.97 1486.78 1122.26 1806.15 1065.94" class="cls-1"/><rect width="99.16" height="99.16" x="1377.78" y="431.18" class="cls-1" transform="translate(533.89 -731.75) rotate(35)"/><path d="M1484.39,349.74h0A49.58,49.58,0,0,1,1534,399.32V448.9a0,0,0,0,1,0,0h-99.16a0,0,0,0,1,0,0V399.32A49.58,49.58,0,0,1,1484.39,349.74Z" class="cls-3" transform="translate(497.49 -779.19) rotate(35)"/><path d="M1296.7,374.09h99.16a0,0,0,0,1,0,0v49.58a49.58,49.58,0,0,1-49.58,49.58h0a49.58,49.58,0,0,1-49.58-49.58V374.09a0,0,0,0,1,0,0Z" class="cls-1" transform="translate(2465.53 -436.14) rotate(125)"/><path d="M48.21,1254.23h0a43.29,43.29,0,0,1,43.29,43.29v43.29a0,0,0,0,1,0,0H4.92a0,0,0,0,1,0,0v-43.29A43.29,43.29,0,0,1,48.21,1254.23Z" class="cls-7" transform="translate(-1042.31 592.79) rotate(-55)"/><path d="M44.65,1453.58A43.29,43.29,0,0,1,34,1393.29l24.84-35.47,70.92,49.67L104.94,1443" class="cls-3"/><rect width="86.59" height="86.59" x="76.04" y="1304.03" class="cls-3" transform="translate(-1052.78 672.28) rotate(-55)"/><path d="M1083.08,697.4l-39.87-226.1a28.32,28.32,0,0,0-32.79-23l-141.88,25a28.31,28.31,0,0,0-23,32.79l34,192.73a28.31,28.31,0,0,1-23,32.79l-221.16,39a28.29,28.29,0,0,0-23,32.78l134.26,761.42" class="cls-3"/><path d="M1106.88,724.82l-2.17-12.26a18.68,18.68,0,1,0-36.8,6.49l2.17,12.26Z" class="cls-3"/><line x1="1106.88" x2="1116.83" y1="724.82" y2="781.26" class="cls-3"/><line x1="1088.48" x2="1098.43" y1="728.07" y2="784.51" class="cls-3"/><line x1="1070.08" x2="1080.03" y1="731.31" y2="787.75" class="cls-3"/><g class="cls-22"><circle cx="1133.56" cy="636.06" r="4.28" class="cls-23"/><circle cx="1179.27" cy="628" r="4.28" class="cls-23"/><circle cx="1149.02" cy="656.9" r="4.28" class="cls-23"/><circle cx="1194.73" cy="648.84" r="4.28" class="cls-23"/><circle cx="1171.87" cy="652.87" r="4.28" class="cls-23"/><circle cx="1156.42" cy="632.03" r="4.28" class="cls-23"/><circle cx="1149.68" cy="727.49" r="4.28" class="cls-23"/><circle cx="1195.39" cy="719.43" r="4.28" class="cls-23"/><circle cx="1157.08" cy="702.62" r="4.28" class="cls-23"/><circle cx="1202.79" cy="694.56" r="4.28" class="cls-23"/><circle cx="1179.93" cy="698.59" r="4.28" class="cls-23"/><circle cx="1172.54" cy="723.46" r="4.28" class="cls-23"/><circle cx="1141.62" cy="681.78" r="4.28" class="cls-23"/><circle cx="1187.33" cy="673.72" r="4.28" class="cls-23"/><circle cx="1164.48" cy="677.75" r="4.28" class="cls-23"/><circle cx="1247.84" cy="615.91" r="4.28" class="cls-23"/><circle cx="1202.13" cy="623.97" r="4.28" class="cls-23"/><circle cx="1240.44" cy="640.78" r="4.28" class="cls-23"/><circle cx="1217.59" cy="644.81" r="4.28" class="cls-23"/><circle cx="1224.98" cy="619.94" r="4.28" class="cls-23"/><circle cx="1263.96" cy="707.34" r="4.28" class="cls-23"/><circle cx="1218.25" cy="715.4" r="4.28" class="cls-23"/><circle cx="1248.5" cy="686.5" r="4.28" class="cls-23"/><circle cx="1225.65" cy="690.53" r="4.28" class="cls-23"/><circle cx="1241.1" cy="711.37" r="4.28" class="cls-23"/><circle cx="1255.9" cy="661.63" r="4.28" class="cls-23"/><circle cx="1210.19" cy="669.69" r="4.28" class="cls-23"/><circle cx="1233.04" cy="665.66" r="4.28" class="cls-23"/><circle cx="1263.3" cy="636.75" r="4.28" class="cls-23"/><circle cx="1271.36" cy="682.47" r="4.28" class="cls-23"/></g><rect width="65.1" height="105.76" x="1175.94" y="606.66" class="cls-1" transform="translate(-96.17 219.87) rotate(-10)"/><path d="M1146.11,574.75l-5-110.37,15.53-2.73,15.56-2.75,33,105.43a46.76,46.76,0,0,1,25.27,33.82l26.87,152.41-96.55,17-26.87-152.41A46.77,46.77,0,0,1,1146.11,574.75Z" class="cls-1"/><rect width="65.1" height="105.76" x="1175.94" y="606.66" class="cls-1" transform="translate(-96.17 219.87) rotate(-10)"/><path d="M1130.75,437.22a10.62,10.62,0,0,0,20.92-3.69" class="cls-3"/><path d="M1151.67,433.53a10.62,10.62,0,1,0,20.92-3.69" class="cls-3"/><line x1="1131.52" x2="1164.44" y1="415.48" y2="409.68" class="cls-21"/><line x1="938.19" x2="901.94" y1="461.08" y2="255.54" class="cls-3"/><rect width="165" height="49.22" x="742.26" y="268.33" class="cls-21" transform="translate(-38.34 147.67) rotate(-10)"/><polyline points="743.52 307.27 649.04 323.93 687.75 342.09 657.59 372.4 820.08 343.75 816.36 322.65" class="cls-21"/><polyline points="297.83 286.1 194.45 304.33 212.68 407.72 316.06 389.49 304.64 324.73" class="cls-1"/><rect width="70.54" height="27.74" x="205.48" y="340.62" class="cls-3" transform="translate(246.87 -73.98) rotate(35)"/><rect width="102.63" height="27.74" x="228.45" y="322.23" class="cls-3" transform="translate(715.54 299.7) rotate(125)"/><polyline points="1380.33 1189.34 1244.91 1213.21 1268.79 1348.64 1404.21 1324.76 1389.25 1239.93" class="cls-3"/><rect width="92.4" height="36.33" x="1259.35" y="1260.75" class="cls-21" transform="translate(969.66 -517.55) rotate(35)"/><rect width="134.43" height="36.33" x="1289.44" y="1236.65" class="cls-21" transform="translate(3162.68 863.24) rotate(125)"/><path d="M1005.76,323.23a26.86,26.86,0,1,0,9.33,52.91L1118.15,358a26.86,26.86,0,1,0-9.34-52.91c-.69.12-1.37.27-2,.43a33.48,33.48,0,0,0-.47-4.17,33.14,33.14,0,0,0-63.09-7.29,26.89,26.89,0,0,0-37.45,29.2Z" class="cls-3"/><line x1="179.63" x2="238.95" y1="1336.69" y2="1326.23" class="cls-3"/><circle cx="192.51" cy="1191.97" r="6.46" class="cls-23"/><circle cx="204.67" cy="1260.96" r="6.46" class="cls-23"/><circle cx="198.59" cy="1226.47" r="6.46" class="cls-23"/><circle cx="85.97" cy="1192.97" r="6.46" class="cls-23"/><circle cx="123.51" cy="1204.13" r="6.46" class="cls-23"/><circle cx="129.59" cy="1238.63" r="6.46" class="cls-23"/><circle cx="92.05" cy="1227.47" r="6.46" class="cls-23"/><circle cx="154.97" cy="1180.8" r="6.46" class="cls-23"/><circle cx="167.13" cy="1249.8" r="6.46" class="cls-23"/><circle cx="161.05" cy="1215.3" r="6.46" class="cls-23"/><path d="M52.32,1105.65a34.11,34.11,0,1,0,11.84,67.18L195,1149.76a34.1,34.1,0,0,0-11.84-67.17c-.88.15-1.75.35-2.59.55a46.06,46.06,0,0,0-.6-5.29,42.07,42.07,0,0,0-80.1-9.25,34.11,34.11,0,0,0-47.52,37.05Z" class="cls-3"/><rect width="68.78" height="68.78" x="667.79" y="810.31" class="cls-3" transform="translate(-136.01 134.77) rotate(-10)"/><rect width="68.78" height="68.78" x="735.53" y="798.36" class="cls-3" transform="translate(-132.91 146.35) rotate(-10)"/><rect width="68.78" height="68.78" x="679.74" y="878.05" class="cls-3" transform="matrix(0.98, -0.17, 0.17, 0.98, -147.59, 137.87)"/><line x1="662.34" x2="742.03" y1="816.8" y2="872.6" class="cls-3"/><line x1="730.08" x2="674.29" y1="804.86" y2="884.54" class="cls-3"/><rect width="68.78" height="68.78" x="747.47" y="866.1" class="cls-1" transform="translate(-144.49 149.45) rotate(-10)"/><line x1="742.03" x2="821.71" y1="872.6" y2="928.39" class="cls-1"/><line x1="809.76" x2="753.97" y1="860.65" y2="940.33" class="cls-1"/><line x1="691.8" x2="827.27" y1="983.84" y2="959.95" class="cls-3"/><line x1="697.36" x2="832.84" y1="1015.39" y2="991.5" class="cls-14"/><line x1="702.09" x2="837.57" y1="1042.24" y2="1018.35" class="cls-7"/><path d="M862.46,447.41a117,117,0,1,0-36.83,217.37,118,118,0,0,0,17.92-4.63" class="cls-21"/><circle cx="742.74" cy="592.78" r="21.85" class="cls-24"/><circle cx="787.02" cy="535.76" r="31.66" class="cls-24"/><path d="M836,650.75a31.67,31.67,0,0,0-63.33-.47" class="cls-25"/><circle cx="751.85" cy="485.24" r="10.92" class="cls-24"/><path d="M1517.45,901.59c-.17-11.09,8.47-25.13,22.34-27.58s25.88,9,28.45,23.64c4.87,27.64-16.57,52-38.84,71.71-27.65-10.88-56.14-26.46-61-54.11-2.57-14.58,4.78-29.49,18.65-31.94S1513.82,891.11,1517.45,901.59Z" class="cls-6"/><line x1="1134.12" x2="1165.15" y1="1316.81" y2="1492.8" class="cls-1"/><path d="M1170.06,1311.27l13.21,75a34.73,34.73,0,0,0,40.23,28.17l94.63-16.69a34.73,34.73,0,0,1,40.23,28.17L1393,1595.34" class="cls-1"/><path d="M1176.45,1255.58a26.87,26.87,0,0,1,9.33,52.92l-103,18.17a26.87,26.87,0,0,1-9.33-52.92c.7-.12,1.38-.21,2.07-.29a33.71,33.71,0,0,1-1-4.08,33.12,33.12,0,0,1,56.78-28.42,26.88,26.88,0,0,1,45.18,14.62Z" class="cls-1"/><line x1="973.46" x2="1116.61" y1="1458.48" y2="1433.24" class="cls-3"/><line x1="1097.23" x2="1128.26" y1="1323.31" y2="1499.31" class="cls-1"/><line x1="888.12" x2="879.53" y1="558.59" y2="509.86" class="cls-21"/><line x1="915.27" x2="912.14" y1="521.84" y2="504.11" class="cls-21"/><line x1="1018.58" x2="1009.99" y1="535.59" y2="486.85" class="cls-21"/><line x1="980.5" x2="977.37" y1="510.34" y2="492.6" class="cls-21"/><line x1="996.67" x2="838.34" y1="792.77" y2="820.69" class="cls-21"/><path d="M254.73,853.64l6.63,37.58a32.64,32.64,0,0,0,37.81,26.48l42.9-7.57a32.64,32.64,0,0,1,37.81,26.48l4.38,24.84a32.64,32.64,0,0,0,37.81,26.47l24.7-4.35A32.64,32.64,0,0,1,484.58,1010h0a32.64,32.64,0,0,0,37.81,26.47l4.84-.85" class="cls-9"/><line x1="578.89" x2="535.92" y1="960.27" y2="716.55" class="cls-3"/><circle cx="533.81" cy="704.56" r="12.17" class="cls-3"/><circle cx="912.14" cy="183.89" r="21.88" class="cls-11"/><circle cx="976.77" cy="172.49" r="21.88" class="cls-1"/><circle cx="1041.41" cy="161.09" r="21.88" class="cls-3"/><circle cx="713.62" cy="1097.04" r="19.14" class="cls-11"/><circle cx="723.59" cy="1153.6" r="19.14" class="cls-1"/><circle cx="733.56" cy="1210.16" r="19.14" class="cls-3"/><path d="M736.89,1229l14.83,84.12a39.83,39.83,0,0,1-6.59,29.74l-27.68,39.53" class="cls-3"/><line x1="611.57" x2="563.56" y1="984.85" y2="993.31" class="cls-21"/><line x1="616.29" x2="568.27" y1="1011.58" y2="1020.04" class="cls-21"/><line x1="621" x2="572.99" y1="1038.3" y2="1046.77" class="cls-21"/><line x1="625.71" x2="577.7" y1="1065.03" y2="1073.49" class="cls-12"/><line x1="630.43" x2="582.41" y1="1091.76" y2="1100.22" class="cls-12"/><line x1="635.14" x2="587.12" y1="1118.48" y2="1126.95" class="cls-21"/><line x1="639.85" x2="591.84" y1="1145.21" y2="1153.68" class="cls-21"/><line x1="644.56" x2="596.55" y1="1171.94" y2="1180.4" class="cls-21"/><line x1="649.28" x2="601.26" y1="1198.66" y2="1207.13" class="cls-21"/><line x1="629.2" x2="640.02" y1="1225.18" y2="1286.56" class="cls-12"/><line x1="605.19" x2="616.01" y1="1229.41" y2="1290.79" class="cls-21"/><line x1="653.21" x2="664.03" y1="1220.95" y2="1282.33" class="cls-12"/><path d="M835.82,1074.29h486.06a0,0,0,0,1,0,0v0a19.88,19.88,0,0,1-19.88,19.88H815.94a0,0,0,0,1,0,0v0A19.88,19.88,0,0,1,835.82,1074.29Z" class="cls-3" transform="matrix(0.98, -0.17, 0.17, 0.98, -172.04, 202.09)"/><rect width="21.88" height="174.27" x="1670.28" y="772.09" class="cls-1" transform="translate(2235.45 -945.66) rotate(80)"/><rect width="21.88" height="174.27" x="1678.18" y="816.87" class="cls-7" transform="translate(2286.07 -916.43) rotate(80)"/><rect width="21.88" height="174.27" x="1686" y="861.2" class="cls-6" transform="translate(2336.19 -887.5) rotate(80)"/><circle cx="1223.48" cy="375.01" r="18.2" class="cls-21"/><circle cx="1246.65" cy="506.43" r="17.19" class="cls-21"/><line x1="1243.67" x2="1226.64" y1="489.5" y2="392.93" class="cls-26"/><circle cx="1634.07" cy="267.67" r="18.2" class="cls-27"/><circle cx="1502.65" cy="290.84" r="17.19" class="cls-27"/><line x1="1519.58" x2="1616.15" y1="287.86" y2="270.83" class="cls-28"/><rect width="14.56" height="43.03" x="1501.06" y="58.79" class="cls-5" transform="translate(577.41 1269.8) rotate(-55)"/><rect width="14.56" height="80.46" x="1653.56" y="26.63" class="cls-29" transform="translate(2982.97 1074.24) rotate(-145)"/><rect width="14.56" height="84.81" x="1601.2" y="40.43" class="cls-5" transform="translate(3206.92 -114.89) rotate(170)"/><rect width="14.56" height="40.23" x="1539.58" y="50.96" class="cls-30" rx="3.14" transform="translate(3082.57 -127.55) rotate(170)"/><rect width="14.56" height="40.23" x="1605.58" y="-6.26" class="cls-30" rx="3.14" transform="translate(1346.43 -1576.91) rotate(80)"/><rect width="14.56" height="45.09" x="1575.98" y="84.9" class="cls-29" transform="translate(3161.12 -61.66) rotate(170)"/><rect width="14.56" height="14.56" x="1662.25" y="84.76" class="cls-30" rx="3.14" transform="matrix(-0.17, -0.98, 0.98, -0.17, 1868.8, 1752.19)"/><rect width="14.56" height="14.56" x="1719.89" y="74.6" class="cls-30" rx="3.14" transform="translate(1946.45 1797.03) rotate(-100)"/><rect width="14.56" height="14.56" x="1476.92" y="87.87" class="cls-5" transform="translate(1648.21 1573.32) rotate(-100)"/><rect width="14.56" height="14.56" x="1568.45" y="57.47" class="cls-5" transform="translate(1785.58 1627.78) rotate(-100)"/><rect width="14.56" height="80.46" x="1514.42" y="77.88" class="cls-5" transform="translate(1669.63 1637.2) rotate(-100)"/><rect width="14.56" height="40.23" x="1689.14" y="55.07" class="cls-29" transform="translate(3380.12 -145.36) rotate(170)"/><rect width="14.56" height="40.23" x="1625.92" y="35.21" class="cls-5" transform="matrix(-0.98, 0.17, -0.17, -0.98, 3251.2, -173.79)"/><rect width="14.56" height="14.56" x="1563.39" y="28.8" class="cls-30" rx="3.14" transform="translate(3123.74 -201.14) rotate(170)"/><rect width="14.56" height="37.61" x="1521.98" y="36.27" class="cls-30" rx="3.14" transform="translate(3044.85 -156.23) rotate(170)"/><rect width="14.56" height="14.56" x="1635.08" y="16.15" class="cls-30" rx="3.14" transform="translate(3263.84 -238.68) rotate(170)"/><rect width="14.56" height="14.56" x="1707.15" y="44.3" class="cls-29" transform="translate(2740.04 -1323.22) rotate(125)"/><polygon points="1522.61 228.42 1487.74 166.48 1741.58 121.72 1730 191.85 1522.61 228.42" class="cls-3"/><polygon points="1543.34 224.77 1513.11 162.01 1716.21 126.19 1709.27 195.51 1543.34 224.77" class="cls-3"/><polygon points="1568.64 220.31 1544.08 156.54 1685.25 131.65 1683.97 199.97 1568.64 220.31" class="cls-3"/><polygon points="1596.26 215.44 1577.88 150.59 1651.44 137.61 1656.36 204.84 1596.26 215.44" class="cls-3"/><polyline points="343.3 1307.58 579.77 1265.88 527.48 969.33 638.29 949.79" class="cls-3"/><path d="M309.39,1294.59l12.27-2.17a18.68,18.68,0,1,1,6.48,36.8l-12.26,2.17Z" class="cls-3"/><line x1="309.39" x2="252.95" y1="1294.59" y2="1304.54" class="cls-3"/><line x1="312.63" x2="256.19" y1="1312.99" y2="1322.94" class="cls-3"/><line x1="315.88" x2="259.44" y1="1331.39" y2="1341.34" class="cls-3"/><line x1="1454.96" x2="1510.07" y1="1278.75" y2="1595.34" class="cls-3"/></g></g></svg>