<svg xmlns="http://www.w3.org/2000/svg" viewBox="0 0 1814 981.2"><defs><style>.cls-2{fill:#bfd9ff}.cls-3{fill:#fc703d}</style></defs><g style="isolation:isolate" opacity=".4" id="Layer_3" data-name="Layer 3"><path class="cls-2" d="M-167.18 1309.66a.52.52 0 0 1-.46-.3.5.5 0 0 1 .26-.66l1900-830.28a.5.5 0 1 1 .4.91L-167 1309.61a.46.46 0 0 1-.18.05zM152.51 1392.12a.5.5 0 0 1-.46-.31.49.49 0 0 1 .26-.65l1262-527.85c14.29-5.42 33.56-7.83 55.86-10.62 35.5-4.45 79.68-10 128.43-30.07 79-32.54 538.39-219.2 543-221.08a.5.5 0 0 1 .38.93c-4.63 1.88-464 188.53-543 221.08-48.87 20.14-93.13 25.68-128.69 30.13-22.24 2.78-41.44 5.19-55.61 10.55l-1262 527.85a.43.43 0 0 1-.17.04z"/><path class="cls-2" transform="rotate(-21.91 354.597 930.544)" d="M124.6 930.23h460.23v1H124.6z"/><path class="cls-2" d="M-150.79 914a.51.51 0 0 1-.46-.31.49.49 0 0 1 .26-.65L1982.47 7.3a.5.5 0 0 1 .65.26.51.51 0 0 1-.26.66L-150.6 914a.65.65 0 0 1-.19 0zM-166.95 837.67a.51.51 0 0 1-.47-.3.52.52 0 0 1 .27-.66L1012 342.86a.5.5 0 0 1 .66.27.49.49 0 0 1-.27.65L-166.76 837.63a.43.43 0 0 1-.19.04zM-141.2 673.67a.49.49 0 0 1-.46-.31.5.5 0 0 1 .27-.65L806.37 283a.5.5 0 1 1 .38.92L-141 673.63a.41.41 0 0 1-.2.04zM-129.9 273.78a.48.48 0 0 1-.46-.31.49.49 0 0 1 .27-.65L817.67-116.9a.49.49 0 0 1 .65.27.49.49 0 0 1-.27.65l-947.76 389.72a.43.43 0 0 1-.19.04zM1116.08 497.45a.5.5 0 0 1-.19-1l89.24-37.28a.5.5 0 1 1 .39.92l-89.24 37.28a.48.48 0 0 1-.2.08zM1222.27 396.91a.51.51 0 0 1-.47-.32.49.49 0 0 1 .29-.64l130.65-50.07 173.19-81a.5.5 0 0 1 .66.24.5.5 0 0 1-.24.67l-173.22 81-130.68 50.08zM1235.83 534.73a.5.5 0 0 1-.19-1l193.16-77.94a.51.51 0 0 1 .66.28.5.5 0 0 1-.28.65L1236 534.69a.39.39 0 0 1-.17.04zM1128.51 873.62a.5.5 0 0 1-.46-.31.51.51 0 0 1 .27-.66l212-86.24 134.43-58.92 58-18.71 340-149a.5.5 0 0 1 .66.26.51.51 0 0 1-.26.66l-340.05 149-58 18.71-134.4 58.92-212 86.25a.43.43 0 0 1-.19.04zM1349.92 1051a.5.5 0 0 1-.2-1c.59-.25 58.65-24.72 73-32.16a62.24 62.24 0 0 0 11.78-8c5.55-4.52 11.29-9.18 28.38-15.29 26.73-9.56 161.07-64.88 162.43-65.43a.49.49 0 0 1 .65.27.5.5 0 0 1-.27.65c-1.36.56-135.72 55.88-162.48 65.45-16.92 6-22.59 10.66-28.08 15.12a62.67 62.67 0 0 1-12 8.11c-14.42 7.46-72.52 31.94-73.11 32.19a.43.43 0 0 1-.1.09z"/><path class="cls-2" d="M491 1221.08a.51.51 0 0 1-.46-.29C359.58 921.06 290.36 762.37 284.77 749.12c-4-9.47-15.17-30-27-51.76-13-23.94-26.49-48.71-32-61.59C215.45 611.46-30.09 38.44-32.57 32.66a.5.5 0 0 1 .26-.66.5.5 0 0 1 .66.26c2.48 5.79 248 578.8 258.37 603.12 5.46 12.84 18.92 37.58 31.93 61.5 11.84 21.77 23 42.34 27 51.85 5.59 13.24 74.81 171.93 205.74 471.65a.5.5 0 0 1-.26.66.48.48 0 0 1-.13.04zM364.51 1134.42a.52.52 0 0 1-.47-.33c-2.49-6.82-18.85-38.08-36.17-71.18-20.63-39.41-44-84.09-50.08-99.08-11.06-27.35-85.45-193.89-86.2-195.56a.5.5 0 1 1 .91-.41c.75 1.68 75.15 168.23 86.22 195.59 6 14.95 29.42 59.6 50 99 18.09 34.56 33.71 64.41 36.22 71.3a.49.49 0 0 1-.3.64.47.47 0 0 1-.13.03zM1116.08 2149a.5.5 0 0 1-.46-.3L531.46 761.62C529.91 758 376 398.9 365.39 374.72c-9-20.54-22.89-62.65-32.06-90.5-1.75-5.31-3.31-10.07-4.63-14C320.64 246 97.82-271.43 95.57-276.65a.5.5 0 0 1 .26-.66.49.49 0 0 1 .65.26c2.25 5.23 225.1 522.7 233.17 546.93 1.32 4 2.88 8.72 4.63 14 9.16 27.84 23 69.92 32 90.42 10.72 24.2 164.54 383.3 166.1 386.93l584.16 1387.05a.49.49 0 0 1-.26.65.48.48 0 0 1-.2.07zM1268.58 2213.36a.51.51 0 0 1-.46-.3L721.48 938.57l-359.14-845-94-213.52-124.2-296.78a.49.49 0 0 1 .27-.65.5.5 0 0 1 .65.26L269.3-120.35l94 213.52 359.14 845L1269 2212.66a.49.49 0 0 1-.26.66.45.45 0 0 1-.16.04zM282.41 1151.51a.51.51 0 0 1-.46-.31L-145.51 130.82a.52.52 0 0 1 .27-.66.52.52 0 0 1 .66.27l427.46 1020.38a.52.52 0 0 1-.27.66.71.71 0 0 1-.2.04zM1054.39 1309.66a.51.51 0 0 1-.46-.31L312.46-425.76a.49.49 0 0 1 .26-.66.49.49 0 0 1 .65.26L1054.85 1309a.51.51 0 0 1-.26.66.65.65 0 0 1-.2 0zM1435.77 1995.34a.5.5 0 0 1-.46-.3L575.66-28.13a.5.5 0 0 1 .26-.66.51.51 0 0 1 .66.26l859.65 2023.18a.49.49 0 0 1-.27.65.43.43 0 0 1-.19.04zM633.73 2177.21a.5.5 0 0 1-.46-.3L-226.38 153.74a.5.5 0 0 1 .26-.66.5.5 0 0 1 .66.27l859.65 2023.17a.49.49 0 0 1-.26.65.48.48 0 0 1-.2.04zM788.73 224.08a.5.5 0 0 1-.46-.31.49.49 0 0 1 .27-.65c44.27-18.33 53.91-26.67 49.16-42.52S671.05-211.85 669.42-215.65a.5.5 0 0 1 .26-.66.51.51 0 0 1 .66.26C672-212.24 833.9 164.5 838.65 180.31c5 16.55-4.79 25.13-49.73 43.73a.43.43 0 0 1-.19.04zM1212.1 895.08a.51.51 0 0 1-.46-.3L745.11-168.2a.5.5 0 0 1 .25-.66.49.49 0 0 1 .66.26l466.54 1063a.5.5 0 0 1-.26.66.45.45 0 0 1-.2.02zM1691.82 2140.1l-.2-.47-524-1223.39a.51.51 0 0 1 .26-.66.5.5 0 0 1 .66.27l523.83 1222.92 60.2-26.48L1275 980.05a.49.49 0 0 1 .26-.65.5.5 0 0 1 .66.26l477.94 1133.15zM1795 2092.49a.5.5 0 0 1-.46-.3L826.44-182.89a.5.5 0 0 1 .26-.66.5.5 0 0 1 .66.26l968.09 2275.08a.5.5 0 0 1-.26.66.48.48 0 0 1-.19.04zM1877.46 2060.86a.49.49 0 0 1-.46-.3L988-49.6a.51.51 0 0 1 .27-.65.5.5 0 0 1 .66.26l889 2110.16a.5.5 0 0 1-.27.65.43.43 0 0 1-.2.04zM1592.79 1284.8a.49.49 0 0 1-.46-.3L1119 152.6a.51.51 0 0 1 .27-.65.49.49 0 0 1 .65.27l473.32 1131.89a.49.49 0 0 1-.27.65.43.43 0 0 1-.18.04zM1744.16 1197.82a.5.5 0 0 1-.46-.3l-176.22-403.28a.5.5 0 1 1 .91-.4l176.23 403.28a.51.51 0 0 1-.26.66.48.48 0 0 1-.2.04zM1982.51 2013.42a.52.52 0 0 1-.46-.3c-2.29-5.28-230.1-528.58-280.48-632.86-32.27-66.82-28.76-104-25.94-133.93 1.67-17.74 3.12-33.06-2.73-51-15.81-48.48-455.69-1077.51-460.13-1087.9a.5.5 0 0 1 .92-.39c4.44 10.39 444.34 1039.46 460.16 1088 5.91 18.15 4.46 33.56 2.77 51.41-2.81 29.78-6.3 66.84 25.85 133.4 50.39 104.3 278.2 627.62 280.5 632.9a.5.5 0 0 1-.26.65.46.46 0 0 1-.2.02zM1933.94 1327.73a.49.49 0 0 1-.46-.31l-351.32-851.74a.51.51 0 0 1 .27-.66.5.5 0 0 1 .65.28L1934.4 1327a.51.51 0 0 1-.27.65.43.43 0 0 1-.19.08zM1953.14 1169.58a.5.5 0 0 1-.46-.31l-327.6-813.34a.5.5 0 0 1 .93-.37l327.6 813.33a.51.51 0 0 1-.28.65.43.43 0 0 1-.19.04zM1835.66 1299.49a.5.5 0 0 1-.46-.3l-360.35-840.45a.5.5 0 0 1 .92-.4l360.35 840.45a.51.51 0 0 1-.26.66.48.48 0 0 1-.2.04zM1726.09 927.84a.49.49 0 0 1-.46-.3l-78-176.22a.5.5 0 0 1 .92-.41l77.94 176.23a.5.5 0 0 1-.25.66.51.51 0 0 1-.15.04zM2016.4 1149.25a.51.51 0 0 1-.46-.31L1506.05-59.44a.49.49 0 0 1 .27-.65.49.49 0 0 1 .65.26l509.89 1208.38a.5.5 0 0 1-.26.66.71.71 0 0 1-.2.04zM1996.07 849.89a.49.49 0 0 1-.46-.3L1637.51 2.36a.51.51 0 0 1 .27-.65.5.5 0 0 1 .66.27l358.09 847.22a.5.5 0 0 1-.27.66.63.63 0 0 1-.19.03zM2142.92 849.89a.5.5 0 0 1-.46-.3L1784.37 2.36a.5.5 0 0 1 .26-.65.5.5 0 0 1 .66.27l358.09 847.22a.5.5 0 0 1-.27.66.58.58 0 0 1-.19.03z"/><path class="cls-2" d="M-179.6 407.08a.51.51 0 0 1-.47-.31.5.5 0 0 1 .27-.65L768 16.39a.5.5 0 0 1 .38.93L-179.42 407a.39.39 0 0 1-.18.08z"/></g><g id="circle2"><g id="Layer_3-2" data-name="Layer 3"><path class="cls-3" d="M1374.19 270.37a4.91 4.91 0 0 1-4.9-4.9l-.09-.18a5 5 0 0 1 5.25-4.91 4.89 4.89 0 0 1 4.74 4.54 5 5 0 0 1-5.09 5.37z" id="Combined-Shape"/></g><g id="Layer_3-3" data-name="Layer 3"><path class="cls-3" d="M1661 448.59a4.91 4.91 0 0 1-4.9-4.9l-.09-.19a5 5 0 0 1 5.24-4.91 4.9 4.9 0 0 1 4.75 4.55 5 5 0 0 1-5.09 5.36z" id="Combined-Shape-2" data-name="Combined-Shape"/></g><g id="Layer_3-4" data-name="Layer 3"><path class="cls-3" d="M606 270.37a4.91 4.91 0 0 1-4.9-4.9l-.09-.18a5 5 0 0 1 5.25-4.91 4.89 4.89 0 0 1 4.74 4.54 5 5 0 0 1-5.09 5.37z" id="Combined-Shape-3" data-name="Combined-Shape"/></g><g id="Layer_3-5" data-name="Layer 3"><path class="cls-3" d="M388 428.5a4.91 4.91 0 0 1-4.9-4.9l-.09-.19a5 5 0 0 1 5.25-4.91 4.9 4.9 0 0 1 4.74 4.55 5 5 0 0 1-5.09 5.36z" id="Combined-Shape-4" data-name="Combined-Shape"/></g><g id="Layer_3-6" data-name="Layer 3"><path class="cls-3" d="M277.4 735.39a4.91 4.91 0 0 1-4.9-4.9l-.09-.19a5 5 0 0 1 5.25-4.91 4.89 4.89 0 0 1 4.74 4.55 5 5 0 0 1-5.09 5.36z" id="Combined-Shape-5" data-name="Combined-Shape"/></g><g id="Layer_3-7" data-name="Layer 3"><path class="cls-3" d="M1142.51 742.39a4.91 4.91 0 0 1-4.9-4.9l-.09-.19a5 5 0 0 1 5.25-4.91 4.9 4.9 0 0 1 4.74 4.55 5 5 0 0 1-5.09 5.36z" id="Combined-Shape-6" data-name="Combined-Shape"/></g><g id="Layer_3-8" data-name="Layer 3"><path class="cls-3" d="M1478.85 595.25a4.91 4.91 0 0 1-4.9-4.9l-.09-.19a5 5 0 0 1 5.25-4.91 4.9 4.9 0 0 1 4.74 4.54 5 5 0 0 1-5.09 5.37z" id="Combined-Shape-7" data-name="Combined-Shape"/></g><g id="Layer_3-9" data-name="Layer 3"><path class="cls-3" d="M1574.48 696.26a4.91 4.91 0 0 1-4.9-4.9l-.09-.19a5 5 0 0 1 5.24-4.91 4.88 4.88 0 0 1 4.74 4.54 5 5 0 0 1-5.08 5.37z" id="Combined-Shape-8" data-name="Combined-Shape"/></g></g></svg>