<?xml version="1.0" encoding="utf-8"?>
<!-- Generator: Adobe Illustrator 23.0.1, SVG Export Plug-In . SVG Version: 6.00 Build 0)  -->
<svg version="1.1" id="Layer_1" xmlns="http://www.w3.org/2000/svg" xmlns:xlink="http://www.w3.org/1999/xlink" x="0px" y="0px"
	 viewBox="0 0 612 654.3" style="enable-background:new 0 0 612 654.3;" xml:space="preserve">
<style type="text/css">
	.st0{fill:#FFFFFF;}
	.st1{fill:#E0CC00;}
	.st2{fill:#D0AF21;}
	.st3{fill:#B68400;}
	.st4{fill:#4197CB;stroke:#FFFFFF;stroke-width:25.59;stroke-miterlimit:10;}
	.st5{fill:#009ADE;}
	.st6{opacity:0.3;fill:#009ADE;enable-background:new    ;}
	.st7{stroke:#FFFFFF;stroke-width:20.35;stroke-linecap:round;stroke-linejoin:round;}
	.st8{fill:#011E41;}
	.st9{fill-rule:evenodd;clip-rule:evenodd;fill:#EB1F26;}
	.st10{fill:#EB1F26;}
	.st11{fill-rule:evenodd;clip-rule:evenodd;fill:#221F1F;}
	.st12{fill:#221F1F;}
	.st13{font-family:'Roboto-Bold';}
	.st14{font-size:47.02px;}
	.st15{fill:#282460;}
	.st16{fill:none;stroke:#FFFFFF;stroke-width:6.27;stroke-miterlimit:10;}
	.st17{fill:#7098CF;}
</style>
<title>logo_en_presenteFR_bg-dark</title>
<g>
	<g>
		<g id="artwork">
			<path class="st0" d="M556.8,222.1l-19.3-47.5c-1.4-3.6-5.2-5.6-9-4.7l-25.3,5.7l7.4-18.2c0.6-1.4,0.7-3,0.4-4.5l-5.2-26.6
				c-0.8-4.3-4.9-7-9.2-6.2l-42.8,8.1l-4.4-26.3c-0.4-2.5-2-4.6-4.3-5.8l-22.9-11.4c-2.3-1.1-5-1.1-7.2,0.1l-29.1,15.9
				c-3,1.7-4.6,5-4,8.4l-6.2-4.8c-2.4-1.8-5.5-2.1-8.2-0.8l-26.3,12.9l-5.5-19.4c-1.1-3.8-4.8-6.2-8.7-5.7l-45.9,7
				c-3.3,0.5-5.9,3-6.5,6.3l-2.1,11l-10.6-32c-0.9-2.7-3.1-4.7-5.9-5.3l-46-9.5c-2.1-0.5-4.4,0-6.1,1.2c-1.8,1.2-3,3.2-3.3,5.3
				l-4.1,27.3c-0.2,1.5,0,3.1,0.6,4.5l7,15.7l-0.3,0.3c0-0.1-0.1-0.1-0.1-0.2L192.3,107c-1.8-2.5-4.9-3.8-7.9-3.2l-28.9,5.6
				c-2.9,0.6-5.2,2.7-6.1,5.6l-9.8,33.9l-7.4-11.1c-1.5-2.2-4-3.5-6.6-3.5l-23.2,0.4c-3,0-5.7,1.8-7,4.5l-14.8,31
				c-1.4,2.8-1,6.1,1,8.5l2.5,3L68.2,181c-4.1-0.1-7.6,2.9-8.1,6.9l-6.2,49.2c-0.4,3.2,1.1,6.3,3.9,7.9l14.2,8.2
				c-0.5,0.1-1,0.3-1.4,0.4l-1.6,0.6c-1.4,0.5-2.6,1.3-3.5,2.4l-1.1,1.3c-4.8,5.8-5.8,15.2-3,30.4l0.9,5c0.6,3.4,3.3,6,6.7,6.4
				l2.5,14.7c-8.3,9.2-12.8,19.7-12.8,30.1c0,15.7,8.2,25.7,22.8,28l0.9,5.2l-9.2,43.6c-0.8,3.8,0.3,7.7,2.7,10.7
				c2.4,3,6,4.8,9.9,4.8h7l8.7,50.7c1.4,9.9,9.9,17.3,19.9,17.2h345.8c9.9,0.1,18.4-7.1,19.9-16.9l9.6-55.6
				c7.1-4.3,14.8-12.4,17.6-27.9c0.9-5-1.3-10.1-5.5-13c8.6-8,13.6-19.3,13.7-31.1c0-9.4-3.4-16.9-9.6-21.7l6.7-38.7
				c3.4-0.4,6.1-3,6.7-6.4l0.9-5c2.8-15.2,1.9-24.6-3-30.5l-0.5-0.6l31.1-26C557.3,229,558.2,225.3,556.8,222.1z"/>
			<polygon class="st1" points="330.8,124.7 297.6,131.3 287.2,110.3 324.9,104.5 			"/>
			<polygon class="st1" points="257.2,302.8 248.9,299.7 284.9,115.6 293.8,133.5 			"/>
			<polygon class="st2" points="331.3,129 274,309 261.3,304.3 297.7,135.7 			"/>
			<path class="st0" d="M328.1,99.7l8.1,28.4l-59.5,186.7l-32.7-12.2l38.2-195.9L328.1,99.7z M261.3,304.3L274,309l57.3-180
				l-33.7,6.7L261.3,304.3z M248.9,299.7l8.3,3.1l36.5-169.3l-8.9-17.9L248.9,299.7z M297.6,131.3l33.2-6.6l-5.9-20.2l-37.7,5.8
				L297.6,131.3z"/>
			<polygon class="st1" points="208.8,101.4 242.3,109.8 249.8,89.9 211.9,82 			"/>
			<polygon class="st1" points="305.1,279.5 312.9,276.9 252.8,95.1 246.4,112.1 			"/>
			<polygon class="st2" points="208.9,105.6 289.5,284.6 301.4,280.7 242.9,114.1 			"/>
			<path class="st0" d="M208.2,77.1l-4.1,27.3L287.6,290l30.5-10L254.2,86.6L208.2,77.1z M301.4,280.7l-11.9,3.9l-80.6-179.1
				l33.9,8.5L301.4,280.7z M312.9,276.9l-7.8,2.5l-58.7-167.4l6.3-17L312.9,276.9z M242.3,109.8l-33.5-8.4l3.1-19.4l37.8,7.9
				L242.3,109.8z"/>
			<path class="st3" d="M268.2,182.5c-1.2-3.5-8.1-9.4-15.1-14.1s-24.4-5.9-24.4-5.9l6.2,32.6L268.2,182.5z"/>
			<path class="st0" d="M267.7,153.3c-3.2,3.8-10.6-2.4-12.9,5.8c-1.1,3.8,2.5,6.4,2.1,9.2s-5.8,5.8-6.4,12.4s5.2,13,11,12.8
				c5.8-0.2,8.6-3.2,12.8-8s5.2-4.6,13.2-3.8c8.4,0.9,16.4-9.6,16.5-16.5c0.1-6.1-4.6-15.6-15.2-7.5
				C280.6,164,276,143.3,267.7,153.3z"/>
			<polygon class="st1" points="435.2,103.8 411.4,120.7 395.8,109.9 419.8,96.3 			"/>
			<polygon class="st2" points="450,273 442.1,273.8 395.5,114.1 410,124.8 			"/>
			<polygon class="st1" points="438.3,106.4 466.1,271.3 453.9,272.6 414,125 			"/>
			<path class="st0" d="M418.8,92.3l22.9,11.4l28.8,171l-31.2,3.3l-49.6-169.9L418.8,92.3z M453.9,272.6l12.1-1.3l-27.8-164.9
				L414,125L453.9,272.6z M442.1,273.8l8-0.8L410,124.8l-14.5-10.6L442.1,273.8z M411.4,120.7l23.8-16.9l-15.4-7.5l-24,13.6
				L411.4,120.7z"/>
			<polygon class="st1" points="498.6,152 466.5,159.5 458.4,140.1 494.7,133.1 			"/>
			<polygon class="st1" points="413.4,323.5 405.7,320.9 455.8,145.1 462.7,161.7 			"/>
			<polygon class="st2" points="498.7,156 428.8,328.7 417.1,324.8 466.2,163.7 			"/>
			<path class="st0" d="M498.1,128.4l5.2,26.6L430.8,334l-30-10.3l53.1-187L498.1,128.4z M417.1,324.8l11.7,4L498.7,156l-32.5,7.7
				L417.1,324.8z M405.8,320.9l7.6,2.6l49.3-161.8l-6.9-16.6L405.8,320.9z M466.5,159.5l32-7.5l-3.9-18.9l-36.3,7L466.5,159.5z"/>
			<path class="st3" d="M475.5,229.5c-12.2-7-14.9-19.1-29.1-21.1c-12.2-1.8-16.9-15.9-32-8.8c-6.2,2.9-8.6,27.4-8.6,27.4l23.2,4.3
				l25.6,7L475.5,229.5z"/>
			<polygon class="st1" points="504.7,188.7 517.1,223.8 543.2,222.7 527.4,183.7 			"/>
			<polygon class="st2" points="375.4,352.1 383.1,358.5 539.5,227.7 517.3,228.6 			"/>
			<polygon class="st1" points="500.2,190.4 359.9,339.4 371.7,349.1 512.9,226.1 			"/>
			<path class="st0" d="M530.3,178.2l-31.8,7.2L352.9,339.9l30.3,24.8l166.4-139L530.3,178.2z M371.7,349.1l-11.8-9.7l140.3-149
				l12.7,35.6L371.7,349.1z M383.1,358.5l-7.7-6.3l141.8-123.6l22.2-0.9L383.1,358.5z M517.2,223.8l-12.5-35.1l22.7-4.9l15.8,39
				L517.2,223.8z"/>
			<path class="st3" d="M438.5,241.4c3.8,0,23.1,6.6,36.2,8.4c6.2,0.8,10.9,2.2,18.8,9.3c4.2,3.8-54.2,5.9-54.2,5.9L438.5,241.4z"/>
			<path class="st0" d="M358,151.7c-6.3,6.3-18.5-1.2-23.2,8.2s6.4,11.4,8.7,17.3s-4.7,18,4.6,16.9s8.6-9.3,16.7-10.5
				s13.9,0.6,16.3-10s3.1-15.9-2.7-20.6S368.2,141.4,358,151.7z"/>
			<path class="st0" d="M374.5,146.9c-6.3,6.3-18.5-1.2-23.2,8.2s6.4,11.5,8.7,17.3s-4.7,18,4.6,16.9s8.6-9.3,16.8-10.5
				s13.9,0.6,16.3-10s3.1-15.9-2.7-20.6S384.8,136.6,374.5,146.9z"/>
			<path class="st0" d="M481.4,190.8c-4.1,4.6-12.1-0.9-15.2,5.9s4.2,8.3,5.7,12.5s-3.1,13.1,3,12.2s5.6-6.7,11-7.6
				s9.1,0.4,10.6-7.3s2-11.5-1.8-14.9S488.1,183.3,481.4,190.8z"/>
			<path class="st0" d="M215.1,144.2c-6.3,6.3-18.5-1.2-23.2,8.2s6.4,11.5,8.7,17.3s-4.7,18,4.6,16.8s8.6-9.3,16.8-10.5
				s13.9,0.6,16.3-10s3.1-15.9-2.7-20.6S225.4,133.9,215.1,144.2z"/>
			<path class="st3" d="M297.3,181.3c2.3-5.9,21-17.6,29.1-17.6s19.8-1.2,25.6,2.4s5.9,34.6,5.9,34.6l-31.5,12.4L297.3,181.3z"/>
			<path class="st0" d="M336.2,179.7c-2.5,2.7-7.6-0.2-9.4,3.7s2.8,4.6,3.9,7s-1.6,7.5,2.2,6.8s3.4-3.9,6.7-4.6s5.7,0,6.5-4.4
				s1-6.6-1.4-8.4S340.3,175.3,336.2,179.7z"/>
			<polygon class="st1" points="192.4,126.3 166.9,134.3 160.7,120.9 184.8,115.8 			"/>
			<polygon class="st2" points="121.6,274.1 115.4,272.6 158.5,124.4 163.9,137.3 			"/>
			<polygon class="st1" points="193.4,129.3 134.1,276.9 124.7,274.8 166.7,138.6 			"/>
			<path class="st0" d="M186,112.1l11.2,15.9l-61.5,153.1l-24.4-5.6l45.7-157.7L186,112.1z M124.7,274.8l9.5,2.2l59.3-147.6
				l-26.6,9.3L124.7,274.8z M115.4,272.6l6.2,1.4l42.3-136.7l-5.4-12.9L115.4,272.6z M166.9,134.3l25.5-8l-7.6-10.5l-24.1,5.1
				L166.9,134.3z"/>
			<polygon class="st1" points="120.8,146.2 110.6,175.5 93.4,172.7 105.3,146.6 			"/>
			<polygon class="st2" points="213.6,308.3 207.9,313.2 95.2,177.1 111.4,180.3 			"/>
			<polygon class="st1" points="124.4,147.3 225.2,298.3 216.4,305.9 114.7,178.4 			"/>
			<path class="st0" d="M102.6,143.2l23.2-0.4l104.5,156.7l-22.5,19.4l-120-144.8L102.6,143.2z M216.4,305.9l8.7-7.6l-100.8-151
				l-9.7,31.2L216.4,305.9z M207.9,313.2l5.7-4.9l-102.2-128l-16.2-3.2L207.9,313.2z M110.6,175.5l10.2-29.3l-15.5,0.4l-12,26.1
				L110.6,175.5z"/>
			<polygon class="st1" points="307,193.4 263.5,206.2 234.8,190.1 285.4,176.9 			"/>
			<polygon class="st2" points="316.8,365.2 302.7,364.3 234.9,195.1 259.3,208.9 			"/>
			<polygon class="st1" points="310.6,197 345,367.1 323.6,365.7 266.4,210.1 			"/>
			<path class="st0" d="M225.1,187.9l72.4,180l55.1,3.7l-35.7-176.5L286.7,172L225.1,187.9z M266.4,210.1l44.1-13.1L345,367.1
				l-21.4-1.4L266.4,210.1z M234.9,195.1l24.5,13.8l57.5,156.3l-14-1L234.9,195.1z M234.9,190.1l50.6-13.1l21.6,16.4l-43.5,12.9
				L234.9,190.1z"/>
			<polygon class="st1" points="203.7,139.1 228.5,150.3 237.2,137.5 213.4,129.4 			"/>
			<polygon class="st2" points="249.9,297.5 256.6,296.8 238.9,141.3 231,153.7 			"/>
			<polygon class="st1" points="202.1,142.1 236.6,298.9 246.7,297.8 227.8,154.7 			"/>
			<path class="st0" d="M212.8,125.5l-14.3,14.8l35.8,162.6l26-2.8l-18.8-165.4L212.8,125.5z M246.7,297.8l-10.1,1.1l-34.5-156.8
				l25.7,12.6L246.7,297.8z M256.6,296.8l-6.6,0.7L231,153.7l7.9-12.4L256.6,296.8z M228.5,150.3l-24.8-11.1l9.7-9.8l23.8,8.1
				L228.5,150.3z"/>
			<path class="st0" d="M232.6,199.1c-3.5-1-1.8-7.2-7.9-6.5c-2.8,0.3-3.4,3.2-5.3,3.7s-5.6-2-10.1-0.7s-6.8,6.6-4.9,10.2
				s4.8,4.5,9.3,5.9s4.6,2,6.7,7.2c2.1,5.4,11.5,7.7,16,5.9c4-1.6,8.7-7,0-11.4C229.7,209.9,241.7,201.7,232.6,199.1z"/>
			<path class="st0" d="M150.7,172.2c-3.2,3.8-10.6-2.4-12.9,5.8c-1.1,3.8,2.5,6.4,2.1,9.2s-5.8,5.9-6.4,12.4s5.2,13,11,12.8
				s8.6-3.1,12.8-8s5.2-4.6,13.2-3.8c8.4,0.9,16.4-9.6,16.5-16.5c0.1-6.1-4.6-15.6-15.2-7.5C163.5,182.9,159,162.3,150.7,172.2z"/>
			<polygon class="st1" points="363.6,180.1 374.7,210.8 401.1,215.8 386.8,181.2 			"/>
			<polygon class="st2" points="225.9,281.4 233.4,288.1 397.1,219 374.6,214.7 			"/>
			<polygon class="st1" points="359.1,180.5 210.7,267.8 222.2,278.1 370.3,211.7 			"/>
			<path class="st0" d="M390,177.5l-32.5-1.4l-153.9,90.5l29.5,26.5l174.3-73.5L390,177.5z M222.2,278.1l-11.4-10.3l148.3-87.3
				l11.2,31.2L222.2,278.1z M233.4,288.1l-7.5-6.8l148.8-66.7l22.5,4.3L233.4,288.1z M374.7,210.8l-11.1-30.8l23.2,1.1l14.3,34.6
				L374.7,210.8z"/>
			<polygon class="st1" points="383.3,124.9 357.2,141.4 345.5,128.4 370.9,115.5 			"/>
			<polygon class="st2" points="356.4,310 348.9,310.4 344.2,133 355,145.7 			"/>
			<polygon class="st1" points="385.5,127.9 371.6,309.4 360.1,309.9 358.7,146.3 			"/>
			<path class="st0" d="M370.9,111.1l18.4,14.2l-14.4,188.3l-29.6,1.2l-5.1-188.6L370.9,111.1z M360.1,309.9l11.5-0.5l13.9-181.5
				l-26.8,18.4L360.1,309.9z M348.9,310.4l7.5-0.3L355,145.7L344.2,133L348.9,310.4z M357.2,141.4l26-16.6l-12.3-9.4l-25.4,12.9
				L357.2,141.4z"/>
			<polygon class="st1" points="278.5,158.4 303.8,167.7 311,154.5 287,148.2 			"/>
			<polygon class="st2" points="339,311.2 345.5,310 313,158.1 306.5,170.9 			"/>
			<polygon class="st1" points="277.3,161.4 326.1,313.5 335.9,311.7 303.6,172.1 			"/>
			<path class="st0" d="M286.1,144.4l-12.6,15.5l50.7,157.7l25.1-4.5L315,151.5L286.1,144.4z M335.9,311.7l-9.8,1.8l-48.9-152
				l26.3,10.7L335.9,311.7z M345.5,310l-6.5,1.2l-32.5-140.3l6.5-12.8L345.5,310z M303.8,167.7l-25.3-9.3l8.5-10.3l24,6.3
				L303.8,167.7z"/>
			<path class="st3" d="M207.6,214.8c6.4-1.2,19.4-8.9,26.8-10.6c13.4-2.9,28.5-1.2,37.9,1.8s4.1,21.1,4.1,21.1l-2.9,17.6l-51.2-4.1
				L207.6,214.8z"/>
			<path class="st3" d="M188,205.5c-4.4-0.9-19.8-10.5-36.8-5.9c-13.1,3.5-17.5,18.5-27.1,22.9c-8.6,3.9,21.8,20.3,21.8,20.3
				l40.2-13.2L188,205.5z"/>
			<polygon class="st1" points="93.5,195.1 90.6,231.1 66.9,234.7 71.9,194.3 			"/>
			<polygon class="st2" points="248.1,330.1 242.6,337.6 71.4,238.9 91.6,235.8 			"/>
			<polygon class="st1" points="97.9,196 259,315.1 250.7,326.5 94.9,232.6 			"/>
			<path class="st0" d="M68,189.4l30.3,1.3l167.1,123.5l-21.3,29.3L61.8,238.6L68,189.4z M250.7,326.5l8.3-11.4L97.9,196l-3,36.6
				L250.7,326.5z M242.6,337.5l5.4-7.5L91.6,235.8l-20.2,3L242.6,337.5z M90.6,231.1l2.9-36.1l-21.6-0.8l-5,40.4L90.6,231.1z"/>
			<polygon class="st1" points="217.4,178.4 184.3,195.8 164.9,177.2 203.2,159.2 			"/>
			<polygon class="st2" points="207.7,388.2 197.5,387.6 164.5,183.4 181,199.3 			"/>
			<polygon class="st1" points="219.6,182.8 228.1,389.5 212.6,388.5 186.1,200.4 			"/>
			<path class="st0" d="M204.7,153.1l19.7,27.2l8.8,214.4l-39.9-2.4L158.1,175L204.7,153.1z M212.6,388.5l15.5,0.9l-8.5-206.7
				l-33.6,17.7L212.6,388.5z M197.5,387.6l10.2,0.6L181,199.3l-16.5-15.9L197.5,387.6z M184.3,195.8l33.1-17.4l-14.2-19.2l-38.3,18
				L184.3,195.8z"/>
			<path class="st3" d="M130,246c-4.1,0-17.1,4-19.4,6.4s-6.6,7.1-7.1,9.4s24.4,2.3,24.4,2.3L130,246z"/>
			<polygon class="st1" points="170.7,230.7 143.9,250.5 127.3,236 158.3,215 			"/>
			<polygon class="st2" points="169.7,421.7 161.3,422.4 127.1,241.6 141.3,254 			"/>
			<polygon class="st1" points="172.6,234.4 186.7,420.3 173.8,421.3 145.5,254.4 			"/>
			<path class="st0" d="M159.3,209.3l17.2,22.2l14.6,192.8L158,427l-36.5-192.2L159.3,209.3z M173.8,421.3l12.8-1l-14-185.9
				l-27.1,20.1L173.8,421.3z M161.3,422.3l8.4-0.7L141.3,254l-14.2-12.4L161.3,422.3z M143.9,250.5l26.7-19.8L158.3,215l-31,20.9
				L143.9,250.5z"/>
			<path class="st3" d="M142.9,262.1c24-2.6,48.9-35.2,69.9-20.3C244.8,264.8,225,270,225,270L142.9,262.1"/>
			<polygon class="st1" points="417.3,182.4 385.1,190.5 375.1,170.7 411.7,163.2 			"/>
			<polygon class="st1" points="344.7,358.8 336.7,356.2 372.8,175.9 381.3,192.8 			"/>
			<polygon class="st2" points="417.7,186.6 360.9,364 348.6,360.1 385.1,194.8 			"/>
			<path class="st0" d="M414.8,158.3l7.6,27.1l-58.9,184l-31.6-10.1l38.4-191.9L414.8,158.3z M348.6,360.1l12.3,4l56.8-177.4
				l-32.6,8.2L348.6,360.1z M336.6,356.2l8,2.6l36.6-166l-8.5-16.9L336.6,356.2z M385,190.5l32.2-8.1l-5.6-19.2l-36.5,7.5L385,190.5
				z"/>
			<polygon class="st1" points="388.6,236.7 358.6,226.3 359.8,206.8 386.8,219.4 			"/>
			<polygon class="st2" points="235.6,346.8 230.2,340.5 355.6,209 353.9,227.4 			"/>
			<polygon class="st1" points="387.9,240.8 246.6,359.4 238.2,349.9 356,231 			"/>
			<path class="st0" d="M390,216.2l2.4,26l-146.6,123l-21.4-24.6l133.4-140L390,216.2z M238.2,349.9l8.3,9.5l141.4-118.6L356,231
				L238.2,349.9z M230.2,340.5l5.4,6.3l118.3-119.4l1.7-18.4L230.2,340.5z M358.6,226.3l30,10.5l-1.8-17.4l-27-12.6L358.6,226.3z"/>
			<path class="st3" d="M304,234.4c7-2.4,5.7-10.1,17.9-10.1c12.7,0,14,15.4,26.2,19.4c6,1.9,22.3,3.1,21.4,20
				c-0.7,13-67.5,9.4-67.5,9.4L304,234.4z"/>
			<path class="st0" d="M403.9,204.6c-6.3,6.3-18.5-1.2-23.2,8.2s6.4,11.4,8.7,17.3s-4.7,18,4.6,16.8s8.6-9.3,16.8-10.5
				s13.9,0.5,16.3-10s3.1-15.9-2.7-20.6S414.1,194.2,403.9,204.6z"/>
			<path class="st0" d="M292.5,186.1c-6.3,6.3-18.5-1.2-23.2,8.2s6.4,11.5,8.7,17.3s-4.7,18,4.6,16.8s8.6-9.3,16.7-10.5
				s13.9,0.6,16.3-10s3.1-16-2.7-20.7S302.8,175.7,292.5,186.1z"/>
			<path class="st0" d="M208.9,207.8c-2.6,3.5-10.5-2.4-11.9,5.2c-0.6,3.5,3.1,6,3.1,8.6s-5,5.4-4.8,11.5s6.5,12.2,12.1,12.2
				s8-2.8,11.5-7.3s4.5-4.2,12.4-3.4c8.2,0.9,14.8-8.8,14.2-15.2c-0.6-5.7-6.3-14.6-15.6-7.2C222.6,217.9,215.8,198.6,208.9,207.8z"
				/>
			<polygon class="st1" points="451.7,243.3 415.8,245.1 409.2,221.9 449.6,221.6 			"/>
			<polygon class="st1" points="339.2,415.6 331.2,411.2 405.8,226.9 411.4,246.7 			"/>
			<polygon class="st2" points="451.3,247.8 355.4,424.6 343.1,417.8 415,249.6 			"/>
			<path class="st0" d="M453.8,217.1l2.6,30.5L357,430.9l-31.5-17.5l79.2-196L453.8,217.1z M343.1,417.8l12.3,6.8l95.9-176.8
				l-36.3,1.8L343.1,417.8z M331.2,411.2l8,4.5l72.1-168.9l-5.6-19.7L331.2,411.2z M415.8,245.1l35.8-1.8l-2.1-21.7l-40.4,0.3
				L415.8,245.1z"/>
			<polygon class="st1" points="257.1,209.8 290.3,218.8 297.7,199.2 260.2,190.7 			"/>
			<polygon class="st1" points="352.4,388.1 360.1,385.7 300.7,204.5 294.4,221.2 			"/>
			<polygon class="st2" points="257.2,214 336.9,392.9 348.7,389.3 290.9,223.1 			"/>
			<path class="st0" d="M256.5,185.8l-4.1,26.9l82.7,185.5l30.2-9.3l-63.2-192.8L256.5,185.8z M348.7,389.3l-11.8,3.6L257.2,214
				l33.7,9.1L348.7,389.3z M360.1,385.7l-7.7,2.4l-58-166.9l6.3-16.7L360.1,385.7z M290.3,218.7l-33.2-8.9l3.1-19.1l37.5,8.5
				L290.3,218.7z"/>
			<polygon class="st1" points="237.3,225.8 234.9,259.4 214,266.1 219.4,234.6 			"/>
			<polygon class="st2" points="398.5,330.5 393.5,338.3 217.5,269.3 237.5,263.5 			"/>
			<polygon class="st2" points="241.8,224.8 408.7,314.6 401,326.6 240.7,260 			"/>
			<path class="st0" d="M215.1,232.8l26.9-13L415,313l-19.8,30.9L208,270.5L215.1,232.8z M401,326.6l7.7-12l-166.9-89.8l-1.1,35.2
				L401,326.6z M393.5,338.3l5-7.9l-161-66.9l-20,5.8L393.5,338.3z M234.9,259.4l2.3-33.6l-17.9,8.8l-5.4,31.5L234.9,259.4z"/>
			<path class="st0" d="M293.1,246.1c2.5,2.1-6.6,5.5-3,7.3s5.1-0.6,7.5-0.3s3.9,4.9,8.4,3s7.9-3,5.4-7.6c-3-5.5-8.1-0.2-10.2-4
				C298,238.8,287.7,241.5,293.1,246.1z"/>
			<path class="st0" d="M81.3,225.5c3,4.6-4.2,7.9,1.2,12.6s8.8,0.3,13.1,0.9s11.1,7.1,12,2.6s-4.6-6.4-3.8-10.4s2.9-6-3.7-10
				s-10-5.8-14.2-4.5S76.4,218.1,81.3,225.5z"/>
			<path class="st4" d="M424.8,263.9c-47-0.8-101-1.3-130.1-1.3h-0.9c-29.1,0-83.1,0.5-130.1,1.3c-40.8,0.7-83,1.8-88.6,3.6
				c-0.5,0.6-2.6,4.1,0.1,18.8h0.5c3,0,5.6,2.3,6,5.2L115.3,486c0.4,3,3,5.2,6,5.2h345.9c3,0,5.6-2.2,6-5.2l33.5-194.4
				c0.4-3,3-5.2,6-5.2h0.5c2.7-14.7,0.6-18.2,0.1-18.8C507.8,265.6,465.5,264.6,424.8,263.9z"/>
			<path class="st5" d="M424.8,263.9c-47-0.8-101-1.3-130.1-1.3h-0.9c-29.1,0-83.1,0.5-130.1,1.3c-40.8,0.7-83,1.8-88.6,3.6
				c-0.5,0.6-2.6,4.1,0.1,18.8h0.5c3,0,5.6,2.3,6,5.2L115.3,486c0.4,3,3,5.2,6,5.2h345.9c3,0,5.6-2.2,6-5.2l33.5-194.4
				c0.4-3,3-5.2,6-5.2h0.5c2.7-14.7,0.6-18.2,0.1-18.8C507.8,265.6,465.5,264.6,424.8,263.9z"/>
			<path class="st6" d="M296.4,285.3h-4.4c-74.7,0.2-147.4,1.8-197.4,4.1c0,0,21,130.4,71.6,150.7c24.3,9.7,76.6,13.6,128,13.1
				c51.4,0.5,103.6-3.4,128-13.1c50.6-20.3,71.6-150.7,71.6-150.7C443.9,287.1,371.1,285.5,296.4,285.3z"/>
			<path class="st7" d="M194.6,329.1c6.7,1.5,13.5,8.4,21.7,8.4c1.9,0,3.7-0.3,5.4-1c-0.6,6.2-3.2,10.2-6.7,10.2
				c-9.2,0-17.4-14.8-28.8-14.8c-0.5,0-1,0-1.5,0.1l9.6-45.1c-5.6,2.3-9,7.2-9,14.2c-0.1,1.5,0.2,3,0.9,4.4c-4.4,0-6.9-1.6-6.9-6.3
				c0-8.6,11.9-16.9,22.6-16.9c0.9,0,1.7,0.1,2.6,0.1L194.6,329.1z"/>
			<path class="st7" d="M234.3,297.9l-4.7,22.1c-0.2,0.7-0.2,1.4-0.2,2.1c0,1.8,0.8,2.4,2.6,2.4c0.5,0,1-0.1,1.4-0.3
				c-1.7,4.5-3,6.6-6.4,6.6s-5.8-2.3-6.3-6c-1.9,3-5,6-9.6,6c-4.4,0-8.6-2.7-8.6-10.5c0-8.8,5.4-22.8,16.6-22.8
				c3.7,0,5.2,1.4,5.2,3.3v0.5l0.7-3.5L234.3,297.9z M212.1,319.4c0,5,2.1,5.1,3.2,5.1c1.9,0,4.6-2,5.4-5.7l3.1-14.7
				c0-1.4-1.2-2.5-2.5-2.5c0,0-0.1,0-0.1,0C215.6,301.6,212.1,313.3,212.1,319.4z"/>
			<path class="st7" d="M131.4,318.2L120,372.3c16.2-1.3,28.1-22.5,28.1-39.9c0-12-5.8-22.1-19.9-22.1c-26,0-41.6,14.8-41.6,39.4
				c0,8.3,2.1,9.6,2.2,11c-11.1,0-17.2-4.1-17.2-15.7c0-21.6,29.6-42.2,56.4-42.2c26.4,0,37.9,15.2,37.9,31.9
				c0,20.6-17.5,43.5-46.5,43.5h-0.8l-9.8,46.2H85.8l21.9-103.1L131.4,318.2z"/>
			<path class="st7" d="M209.9,370.6c0.5,0.2,1.1,0.3,1.7,0.3c7,0,17-4.6,23.5-9.2l1.4,4.2c-5.8,6.3-15.9,11-27.1,12.8
				c-2.4,28.5-17.7,46.4-36.5,46.4c-14.2,0-24.5-6.8-24.5-24.4c0-17.7,10.4-54.8,41.9-54.8C203.5,345.9,209.9,354.4,209.9,370.6z
				 M196.7,379.1c-3.2-0.8-4.1-3.4-4.1-6.5c0-4.3,2-7.1,4.7-8.3c-0.3-6.5-1.8-8.9-5.8-8.9c-10.9,0-20.3,28.2-20.3,43.3
				c0,10.2,2,12.5,7.8,12.5C186.5,411.2,194.3,397.3,196.7,379.1z"/>
			<path class="st7" d="M287.8,347.3l-11,52.4c-0.4,1.6-0.6,3.3-0.6,4.9c0,4.3,2,5.7,6.3,5.7c6,0,10.1-5.9,12.4-13.6h6.4
				c-8.7,25.1-22.5,28.5-30.7,28.5c-8.7,0-14.2-5.1-15.1-14.7c-7.6,12.6-16.2,14.7-22.6,14.7c-9.2,0-16.4-5.5-16.4-18.5
				c0.1-3.4,0.5-6.7,1.2-10l10.4-49.5h22l-11,52.4c-0.3,1.4-0.4,2.9-0.5,4.3c0,3.5,1.2,6.3,4.6,6.3c6,0,9.9-5.9,12.2-13.6l10.4-49.5
				L287.8,347.3z"/>
			<path class="st7" d="M332.5,323l-5.2,24.4h9.2l-1.2,6.2H326l-9.8,46.3c-0.4,1.6-0.6,3.3-0.6,4.9c0,4.3,2,5.7,6.3,5.7
				c6,0,11.5-5.9,13.8-13.6h6.4c-8.7,25.1-23.9,28.5-32.1,28.5c-9.2,0-16.4-5.5-16.4-18.5c0.1-3.4,0.5-6.7,1.2-10l9.2-43.4h-5
				l1.2-6.2h5l4.6-21.3L332.5,323z"/>
			<path class="st7" d="M368.1,347.3l-11,52.4c-0.4,1.6-0.6,3.3-0.6,4.9c0,4.3,2,5.7,6.3,5.7c6,0,11.5-5.9,13.8-13.6h6.4
				c-8.7,25.2-23.9,28.5-32.1,28.5c-9.2,0-16.4-5.5-16.4-18.5c0.1-3.4,0.5-6.7,1.2-10l10.4-49.5L368.1,347.3z M361.2,314.5
				c6.8,0,12.2,5.6,12.2,12.3c0,6.7-5.5,12.2-12.2,12.2c0,0,0,0,0,0c-6.7,0-12.1-5.4-12.1-12c0-0.1,0-0.1,0-0.2
				C349,320.1,354.4,314.6,361.2,314.5C361.1,314.5,361.2,314.5,361.2,314.5z"/>
			<path class="st7" d="M415,360.7c-5.5,0-9.6,6.5-11.9,14.2l-10.4,49.5h-22l16.2-77.1h22l-1.7,8c6.4-7.4,13.1-8.6,17.9-8.6
				c9.8,0,17,5.1,17,17.4c0,12.5-7.3,31.2-7.3,39.8c0,3.9,1.5,6.5,6.1,6.5c6.7,0,9.5-5.5,12.8-13.6h6.4
				c-8.6,25.3-20.3,28.5-28.4,28.5c-13.3,0-18-8.6-18-17.4c0-10.5,6.9-29.5,6.9-39.3C420.5,363.5,418.6,360.7,415,360.7z"/>
			<path class="st7" d="M483.6,410.7c5.8,0,13.1-3.9,18-8.2c-3.2,17.6-14.2,22.8-26.4,22.8c-14.2,0-23.7-7.1-23.7-24.5
				c0-17.7,9.9-54.9,41.3-54.9c13.6,0,16.8,7.1,16.8,14.8c0,17.9-16.8,31.5-35.1,32.5c-0.1,1.5-0.3,3.2-0.3,4.6
				C474.1,407.6,478.2,410.7,483.6,410.7z M494,354.1c-7.6,0-15.3,17.1-18.5,31.8c11.9-0.6,22.3-12.5,22.3-25.4
				C497.8,356.6,496.9,354.1,494,354.1z"/>
			<path class="st7" d="M350.4,469.7l13.6-39.8h8.5v39.8l13.9-39.8h4.5l-17.9,48.5h-9.5v-33.1l-12.8,33.1h-9.5v-44.4
				c-7,2.2-10.4,7.3-10.4,14.4c-0.1,1.5,0.2,3,0.9,4.4c-4.5,0-6.9-1.6-6.9-6.3c0-8.6,11.9-16.9,22.6-16.9c0.9,0,1.7,0.1,2.6,0.1
				L350.4,469.7z"/>
			<path class="st7" d="M395.9,473.2c5.1,0,8.2-2.9,11.4-6.6h2.2c-3.7,6-9.1,12-17.7,12c-6.1,0-10.1-3-10.1-10.3s4.2-23.2,17.4-23.2
				c5.8,0,7.1,3,7.1,6.2c0,7.5-7.1,13.3-14.8,13.7c-0.1,0.9-0.1,1.8-0.1,2.6C391.2,472.2,392.8,473.2,395.9,473.2z M399.6,448.6
				c-3.3,0-6.4,7-7.7,13.4c5-0.3,9.4-5.3,9.4-10.7C401.2,449.7,400.9,448.6,399.6,448.6L399.6,448.6z"/>
			<path class="st7" d="M420.6,473.2c5.1,0,8.2-2.9,11.4-6.6h2.2c-3.7,6-9.2,12-17.7,12c-6.1,0-10.1-3-10.1-10.3s4.2-23.2,17.4-23.2
				c5.7,0,7.1,3,7.1,6.2c0,7.5-7.1,13.3-14.8,13.7c-0.1,0.9-0.1,1.8-0.1,2.6C416,472.2,417.5,473.2,420.6,473.2z M424.4,448.6
				c-3.3,0-6.5,7-7.7,13.4c5-0.3,9.4-5.3,9.4-10.7C426,449.7,425.6,448.6,424.4,448.6L424.4,448.6z"/>
			<path class="st7" d="M462.5,445.8l-12.9,9c0.7-0.1,1.4-0.2,2.1-0.2c4.8,0,7.1,3.4,7.1,7.6c0,0.8-0.1,1.7-0.3,2.5l-0.7,3.3
				c-0.2,0.7-0.3,1.4-0.3,2.1c0,1.3,0.5,2.4,2.5,2.4c0.8,0.1,1.6-0.1,2.2-0.4c-0.3,4.6-4.3,6.7-6,6.7c-5.3,0-8.1-2.7-8.1-7.4
				c0-1.1,0.1-2.3,0.4-3.4l0.5-2.5c0.2-0.8,0.3-1.6,0.3-2.4c0-1.9-0.6-3.1-2.3-3.1c-1.5,0-3,0.9-4.8,2.4l-3.4,16.1h-9.3l9.4-44.2
				l9.5-1.3l-4.8,22.9l12.4-9.9H462.5z"/>
			<path class="st8" d="M194.6,329.1c6.7,1.5,13.5,8.4,21.7,8.4c1.9,0,3.7-0.3,5.4-1c-0.6,6.2-3.2,10.2-6.7,10.2
				c-9.2,0-17.4-14.8-28.8-14.8c-0.5,0-1,0-1.5,0.1l9.6-45.1c-5.6,2.3-9,7.2-9,14.2c-0.1,1.5,0.2,3,0.9,4.4c-4.4,0-6.9-1.6-6.9-6.3
				c0-8.6,11.9-16.9,22.6-16.9c0.9,0,1.7,0.1,2.6,0.1L194.6,329.1z"/>
			<path class="st8" d="M234.3,297.9l-4.7,22.1c-0.2,0.7-0.2,1.4-0.2,2.1c0,1.8,0.8,2.4,2.6,2.4c0.5,0,1-0.1,1.4-0.3
				c-1.7,4.5-3,6.6-6.4,6.6s-5.8-2.3-6.3-6c-1.9,3-5,6-9.6,6c-4.4,0-8.6-2.7-8.6-10.5c0-8.8,5.4-22.8,16.6-22.8
				c3.7,0,5.2,1.4,5.2,3.3v0.5l0.7-3.5L234.3,297.9z M212.1,319.4c0,5,2.1,5.1,3.2,5.1c1.9,0,4.6-2,5.4-5.7l3.1-14.7
				c0-1.4-1.2-2.5-2.5-2.5c0,0-0.1,0-0.1,0C215.6,301.6,212.1,313.3,212.1,319.4z"/>
			<path class="st8" d="M131.4,318.2L120,372.3c16.2-1.3,28.1-22.5,28.1-39.9c0-12-5.8-22.1-19.9-22.1c-26,0-41.6,14.8-41.6,39.4
				c0,8.3,2.1,9.6,2.2,11c-11.1,0-17.2-4.1-17.2-15.7c0-21.6,29.6-42.2,56.4-42.2c26.4,0,37.9,15.2,37.9,31.9
				c0,20.6-17.5,43.5-46.5,43.5h-0.8l-9.8,46.2H85.8l21.9-103.1L131.4,318.2z"/>
			<path class="st8" d="M209.9,370.6c0.5,0.2,1.1,0.3,1.7,0.3c7,0,17-4.6,23.5-9.2l1.4,4.2c-5.8,6.3-15.9,11-27.1,12.8
				c-2.4,28.5-17.7,46.4-36.5,46.4c-14.2,0-24.5-6.8-24.5-24.4c0-17.7,10.4-54.8,41.9-54.8C203.5,345.9,209.9,354.4,209.9,370.6z
				 M196.7,379.1c-3.2-0.8-4.1-3.4-4.1-6.5c0-4.3,2-7.1,4.7-8.3c-0.3-6.5-1.8-8.9-5.8-8.9c-10.9,0-20.3,28.2-20.3,43.3
				c0,10.2,2,12.5,7.8,12.5C186.5,411.2,194.3,397.3,196.7,379.1z"/>
			<path class="st8" d="M287.8,347.3l-11,52.4c-0.4,1.6-0.6,3.3-0.6,4.9c0,4.3,2,5.7,6.3,5.7c6,0,10.1-5.9,12.4-13.6h6.4
				c-8.7,25.1-22.5,28.5-30.7,28.5c-8.7,0-14.2-5.1-15.1-14.7c-7.6,12.6-16.2,14.7-22.6,14.7c-9.2,0-16.4-5.5-16.4-18.5
				c0.1-3.4,0.5-6.7,1.2-10l10.4-49.5h22l-11,52.4c-0.3,1.4-0.4,2.9-0.5,4.3c0,3.5,1.2,6.3,4.6,6.3c6,0,9.9-5.9,12.2-13.6l10.4-49.5
				L287.8,347.3z"/>
			<path class="st8" d="M332.5,323l-5.2,24.4h9.2l-1.2,6.2H326l-9.8,46.3c-0.4,1.6-0.6,3.3-0.6,4.9c0,4.3,2,5.7,6.3,5.7
				c6,0,11.5-5.9,13.8-13.6h6.4c-8.7,25.1-23.9,28.5-32.1,28.5c-9.2,0-16.4-5.5-16.4-18.5c0.1-3.4,0.5-6.7,1.2-10l9.2-43.4h-5
				l1.2-6.2h5l4.6-21.3L332.5,323z"/>
			<path class="st8" d="M368.1,347.3l-11,52.4c-0.4,1.6-0.6,3.3-0.6,4.9c0,4.3,2,5.7,6.3,5.7c6,0,11.5-5.9,13.8-13.6h6.4
				c-8.7,25.2-23.9,28.5-32.1,28.5c-9.2,0-16.4-5.5-16.4-18.5c0.1-3.4,0.5-6.7,1.2-10l10.4-49.5L368.1,347.3z M361.2,314.5
				c6.8,0,12.2,5.6,12.2,12.3c0,6.7-5.5,12.2-12.2,12.2c0,0,0,0,0,0c-6.7,0-12.1-5.4-12.1-12c0-0.1,0-0.1,0-0.2
				C349,320.1,354.4,314.6,361.2,314.5C361.1,314.5,361.2,314.5,361.2,314.5z"/>
			<path class="st8" d="M415,360.7c-5.5,0-9.6,6.5-11.9,14.2l-10.4,49.5h-22l16.2-77.1h22l-1.7,8c6.4-7.4,13.1-8.6,17.9-8.6
				c9.8,0,17,5.1,17,17.4c0,12.5-7.3,31.2-7.3,39.8c0,3.9,1.5,6.5,6.1,6.5c6.7,0,9.5-5.5,12.8-13.6h6.4
				c-8.6,25.3-20.3,28.5-28.4,28.5c-13.3,0-18-8.6-18-17.4c0-10.5,6.9-29.5,6.9-39.3C420.5,363.5,418.6,360.7,415,360.7z"/>
			<path class="st8" d="M483.6,410.7c5.8,0,13.1-3.9,18-8.2c-3.2,17.6-14.2,22.8-26.4,22.8c-14.2,0-23.7-7.1-23.7-24.5
				c0-17.7,9.9-54.9,41.3-54.9c13.6,0,16.8,7.1,16.8,14.8c0,17.9-16.8,31.5-35.1,32.5c-0.1,1.5-0.3,3.2-0.3,4.6
				C474.1,407.6,478.2,410.7,483.6,410.7z M494,354.1c-7.6,0-15.3,17.1-18.5,31.8c11.9-0.6,22.3-12.5,22.3-25.4
				C497.8,356.6,496.9,354.1,494,354.1z"/>
			<path class="st8" d="M350.4,469.7l13.6-39.8h8.5v39.8l13.9-39.8h4.5l-17.9,48.5h-9.5v-33.1l-12.8,33.1h-9.5v-44.4
				c-7,2.2-10.4,7.3-10.4,14.4c-0.1,1.5,0.2,3,0.9,4.4c-4.5,0-6.9-1.6-6.9-6.3c0-8.6,11.9-16.9,22.6-16.9c0.9,0,1.7,0.1,2.6,0.1
				L350.4,469.7z"/>
			<path class="st8" d="M395.9,473.2c5.1,0,8.2-2.9,11.4-6.6h2.2c-3.7,6-9.1,12-17.7,12c-6.1,0-10.1-3-10.1-10.3s4.2-23.2,17.4-23.2
				c5.8,0,7.1,3,7.1,6.2c0,7.5-7.1,13.3-14.8,13.7c-0.1,0.9-0.1,1.8-0.1,2.6C391.2,472.2,392.8,473.2,395.9,473.2z M399.6,448.6
				c-3.3,0-6.4,7-7.7,13.4c5-0.3,9.4-5.3,9.4-10.7C401.2,449.7,400.9,448.6,399.6,448.6L399.6,448.6z"/>
			<path class="st8" d="M420.6,473.2c5.1,0,8.2-2.9,11.4-6.6h2.2c-3.7,6-9.2,12-17.7,12c-6.1,0-10.1-3-10.1-10.3s4.2-23.2,17.4-23.2
				c5.7,0,7.1,3,7.1,6.2c0,7.5-7.1,13.3-14.8,13.7c-0.1,0.9-0.1,1.8-0.1,2.6C416,472.2,417.5,473.2,420.6,473.2z M424.4,448.6
				c-3.3,0-6.5,7-7.7,13.4c5-0.3,9.4-5.3,9.4-10.7C426,449.7,425.6,448.6,424.4,448.6L424.4,448.6z"/>
			<path class="st8" d="M462.5,445.8l-12.9,9c0.7-0.1,1.4-0.2,2.1-0.2c4.8,0,7.1,3.4,7.1,7.6c0,0.8-0.1,1.7-0.3,2.5l-0.7,3.3
				c-0.2,0.7-0.3,1.4-0.3,2.1c0,1.3,0.5,2.4,2.5,2.4c0.8,0.1,1.6-0.1,2.2-0.4c-0.3,4.6-4.3,6.7-6,6.7c-5.3,0-8.1-2.7-8.1-7.4
				c0-1.1,0.1-2.3,0.4-3.4l0.5-2.5c0.2-0.8,0.3-1.6,0.3-2.4c0-1.9-0.6-3.1-2.3-3.1c-1.5,0-3,0.9-4.8,2.4l-3.4,16.1h-9.3l9.4-44.2
				l9.5-1.3l-4.8,22.9l12.4-9.9H462.5z"/>
			<path class="st0" d="M182.9,52.5L182.9,52.5L182.9,52.5z"/>
			<path class="st0" d="M106.7,104.1c-2.7-1.4-5.5-2.5-8.4-3.3c3-2.8,9-8.4,13.6-13C110.1,92.4,108,99.1,106.7,104.1 M319.2,52.5
				c-0.3-4.2-3-7.8-6.9-9.3c-3.1-1.1-6.8-0.4-10.8,1.8c0-0.1,0-0.2,0-0.2c0.5-1.4,1.1-2.7,1.7-3.9c0.6-1.2,1.2-2.4,1.8-3.7
				c1-2.2,4-9.1-0.7-15.7c-2.8-3.9-6.1-4.9-8.3-5.1s-5.8,0.4-9.4,4.1c-1.5,1.6-2.7,3.6-3.4,5.7c-0.6-0.5-1.2-1-1.9-1.3
				c-3.2-1.6-7.1-1.3-10.6,0.9c-1.2,0.8-3.2,2.1-6.3,8.7c-0.5,0.5-0.9,1-1.3,1.5c-4.6-3.2-10.5-3.8-15.6-1.7c-4.8,1.8-8.9,4.9-12,9
				c-0.3-0.4-0.6-0.7-0.9-1.1c-2.7-2.5-6.4-3.4-9.9-2.3c-4,1.1-7.7,4.7-12.4,12.3c-1.3-2.1-3.3-3.6-5.7-4.5c-2.8-1-8-1.7-12.6,4.2
				c-3.4-1.6-7.2-1.4-11.1,0.6l0,0l0,0c-0.3,0.1-0.6,0.2-0.8,0.4c-3.5,1.6-6.7,3.9-9.4,6.7c-0.4,0.4-0.8,0.8-1.1,1.2
				c-0.9-0.8-2-1.5-3.1-2c-3.7-1.5-8.4-0.3-13.5,3.6c-1.6-1.4-3.6-2.3-5.8-2.3c-1.5-0.1-3,0.1-4.4,0.7c-0.1-1.3-0.4-2.5-0.8-3.8
				c-0.8-2.3-2.5-4.1-4.7-5.1c-0.8-0.3-1.6-0.5-2.4-0.6c1-5.8-1.2-10.3-3.6-12.4c-5-4.3-10.8-1.8-14.3-0.3
				c-3.9,1.7-7.4,6.8-14.6,18.5c-1.4,2.2-3,4.8-4.9,7.7C97.2,54.1,89,52.2,86.3,51.8c-4-0.5-9.9,0.6-24,12.8
				C57.9,68.5,48.9,77,45.9,80.5c-1.2,1.6-2.2,3.3-2.8,5.2c-0.7,0.8-1.4,1.5-1.9,2.1c-2.4,3.1-3.3,6.5-2.6,9.7
				c0.6,2.7,2.3,5,4.7,6.2c4.7,2.5,9,0.4,12.5-2.6c6.2-1.1,11.2-7.2,13.7-10.3c0,0,0.7-0.8,0.7-0.9c0.5-0.7,1.1-1.3,1.7-2
				c-0.1,0.9-0.3,1.9-0.4,3s-0.3,2-0.6,2.9L70.8,94c-0.2,0.1-0.7,0.3-1.2,0.6c-2.2,1-5.5,2.5-7.5,5.9c-0.7,1.2-1.1,2.5-1.3,3.8
				c-1.3,0.8-2.3,1.9-3.1,3.2c-1.1,1.9-1.4,4.2-0.8,6.3c0.8,2.3,2.4,4.2,4.6,5.2c0.8,0.4,1.7,0.7,2.6,0.9c-0.1,1.2-0.3,2.3-0.6,3.4
				c-0.3,1.1-0.9,2.7-1.5,4.6c-1,2.9-2.3,6.5-3.3,10.3c-0.4,1.5-1,3.4-1.6,5.4c-1.7,5.4-2.7,8.9-2.7,11c0,5.5,0.9,11.2,7.4,12.6
				c2.9,0.7,6.9-0.8,9.5-3.5c3.6-0.6,6.8-2.5,9-5.4c3-4,6.6-15.4,7.8-22.9l0.8-4.6l0.2-0.9c1.5,1.2,2.9,2.4,4.2,3.8
				c3.4,3.4,12.2,11,16.4,14.7l1.8,1.5c3.5,3,9.4,2,12.5-0.7c0.4-0.3,0.8-0.7,1.1-1.1c2.5-0.3,4.8-1.4,6.7-3
				c3.2-2.6,4.8-6.6,4.4-10.7c-0.2-2.6-2.1-6-5.9-10.2c1.1,0.4,2.3,0.6,3.4,0.4c2.5-0.4,4.7-1.6,6.3-3.5h0.3
				c3.6-0.6,6.9-2.7,8.9-5.7c0.5-0.7,0.9-1.5,1.2-2.4c2.3,1.2,5.5,1.6,9.9,0.4c2.2-0.7,4.3-1.8,6-3.4c0.3-0.1,0.6-0.2,1-0.2
				c1.2-0.3,2.4-0.8,3.5-1.5c0.7,0.3,1.5,0.5,2.2,0.6c-2,1.4-3.4,3.5-4,5.9c-0.1,0.4-0.2,0.8-0.2,1.2c-2,1.1-3.4,3-3.9,5.2
				c-0.6,2.7,0.1,5.5,1.9,7.6c3.5,4.7,11.5,3.9,17.2,0.3c0.6-0.4,1.2-0.9,1.8-1.4c2-0.6,4-1.4,5.8-2.5c6-3.8,9.6-11.9,10.9-18.2
				c0.4-2,0.9-5.8,1.3-9.2c0.5,0.6,1.1,1.1,1.8,1.5c4.5,2.6,10,0.2,13.1-2.7c3.7-0.8,7.1-2.9,9.5-5.8c0.6-0.8,1.2-1.7,1.8-2.6
				c0.3-0.4,0.5-0.8,0.8-1.2c0.6,0.5,1.3,0.9,2,1.2c-0.1,0,0.6,0.3,0.6,0.3c4.2,1.9,7.6,3,14.8,0.6c2.2-0.8,4.2-1.9,6.1-3.3l1-0.3
				c1.6-0.6,3.2-1.3,4.7-2.3c3,1.4,6.4,1.5,9.4,0.2c-1.9,4.5-3.2,7.9-3.5,10c0,0.3-0.1,0.6-0.1,1c-0.4,2.9-1,7.3,3.1,11.6
				c1.7,1.5,4,2.1,6.2,1.7c2.5-0.3,4.8-1.6,6.4-3.5h0.3c3.6-0.4,6.7-2.5,8.6-5.5c1.9-3.3,6.4-13.9,7.9-17.7s4.9-8.6,7.6-12.1
				c2-2.5,5.7-4.4,7.2-5.3l0.4-0.2C317.4,61.2,319.6,57,319.2,52.5"/>
			<path class="st0" d="M182.9,52.5L182.9,52.5L182.9,52.5z"/>
			<path class="st0" d="M106.7,104.1c-2.7-1.4-5.5-2.5-8.4-3.3c3-2.8,9-8.4,13.6-13C110.1,92.4,108.1,99.1,106.7,104.1 M319.2,52.5
				c-0.3-4.2-3-7.8-6.9-9.3c-3.1-1.1-6.8-0.4-10.8,1.8c0-0.1,0-0.2,0-0.2c0.5-1.4,1.1-2.7,1.7-3.9c0.6-1.2,1.2-2.4,1.8-3.7
				c1-2.2,4-9.1-0.7-15.7c-2.8-3.9-6.1-4.9-8.4-5.1s-5.8,0.4-9.4,4.1c-1.5,1.6-2.6,3.6-3.3,5.7c-0.6-0.5-1.2-1-1.9-1.3
				c-3.2-1.6-7.1-1.3-10.6,0.9c-1.2,0.8-3.2,2.1-6.3,8.7c-0.5,0.5-0.9,1-1.3,1.5c-4.6-3.2-10.5-3.8-15.6-1.7c-4.8,1.8-8.9,4.9-12,9
				c-0.3-0.4-0.6-0.7-1-1c-2.7-2.5-6.4-3.4-9.9-2.4c-4,1.1-7.7,4.7-12.4,12.3c-1.3-2.1-3.3-3.6-5.7-4.5c-2.7-0.9-8-1.6-12.6,4.2
				c-3.4-1.6-7.2-1.4-11.1,0.6l0,0l0,0c-0.3,0.1-0.6,0.2-0.8,0.4c-3.5,1.6-6.7,3.9-9.4,6.7c-0.4,0.4-0.8,0.8-1.1,1.2
				c-0.9-0.9-2-1.5-3.1-2c-3.7-1.5-8.4-0.3-13.5,3.6c-1.6-1.4-3.6-2.2-5.7-2.3c-1.5-0.1-3,0.1-4.4,0.7c-0.1-1.3-0.4-2.5-0.8-3.7
				c-0.8-2.3-2.5-4.1-4.7-5.1c-0.8-0.3-1.6-0.5-2.4-0.6c1-5.8-1.2-10.3-3.6-12.4c-5-4.3-10.8-1.8-14.3-0.3
				c-3.9,1.7-7.4,6.8-14.6,18.5c-1.4,2.2-3,4.8-4.9,7.8C97.2,54.1,89,52.2,86.3,51.8c-4-0.5-10,0.6-24,12.8
				C57.9,68.4,48.9,77,46,80.5c-1.2,1.6-2.2,3.3-2.8,5.2c-0.8,0.8-1.4,1.5-1.9,2.1c-2.4,3.1-3.3,6.5-2.6,9.7c0.6,2.7,2.3,5,4.7,6.2
				c4.7,2.5,9,0.4,12.5-2.6c6.2-1.1,11.2-7.2,13.7-10.3l0.7-0.9c0.5-0.7,1.1-1.3,1.7-2c-0.1,0.9-0.3,1.9-0.4,3s-0.3,2-0.6,2.9
				L70.8,94c-0.2,0.1-0.7,0.3-1.2,0.6c-2.2,1-5.5,2.5-7.5,5.9c-0.7,1.2-1.1,2.5-1.3,3.8c-1.3,0.8-2.3,1.9-3.1,3.2
				c-1.1,1.9-1.4,4.2-0.8,6.3c0.8,2.3,2.4,4.2,4.7,5.2c0.8,0.4,1.7,0.7,2.6,0.9c-0.1,1.2-0.3,2.3-0.6,3.4c-0.3,1.2-0.9,2.7-1.5,4.6
				c-1,2.9-2.3,6.5-3.3,10.3c-0.4,1.5-1,3.4-1.6,5.4c-1.7,5.4-2.7,8.9-2.7,11c0,5.5,0.9,11.2,7.4,12.6c2.9,0.7,6.9-0.8,9.5-3.5
				c3.6-0.6,6.8-2.5,9-5.4c3-4,6.6-15.4,7.8-22.9l0.8-4.6l0.2-0.9c1.5,1.2,2.9,2.4,4.2,3.8c3.4,3.4,12.2,11,16.4,14.7l1.8,1.6
				c3.4,3.1,9.4,2.1,12.5-0.6c0.4-0.3,0.8-0.7,1.1-1.1c2.5-0.3,4.8-1.4,6.8-3c2-1.8,4.7-4.8,4.4-10.7c-0.2-2.6-2.1-6-5.9-10.2
				c1.1,0.4,2.3,0.5,3.4,0.4c2.5-0.4,4.7-1.6,6.3-3.5c0.1,0,0.2,0,0.3,0c3.6-0.6,6.9-2.7,8.9-5.7c0.5-0.7,0.9-1.5,1.2-2.3
				c2.3,1.2,5.5,1.6,9.9,0.4c2.2-0.7,4.3-1.8,6-3.4c0.3-0.1,0.7-0.1,1-0.2c1.2-0.3,2.4-0.8,3.5-1.5c0.7,0.3,1.5,0.5,2.2,0.6
				c-2,1.4-3.4,3.5-4,5.9c-0.1,0.4-0.2,0.8-0.2,1.2c-2,1.1-3.4,3-3.9,5.2c-0.6,2.7,0.1,5.5,1.9,7.6c3.5,4.8,11.5,3.9,17.2,0.3
				c0.6-0.4,1.2-0.9,1.8-1.4c2-0.6,4-1.4,5.8-2.5c6.1-3.8,9.6-11.9,10.9-18.2c0.4-2,0.9-5.8,1.3-9.2c0.5,0.6,1.1,1.1,1.8,1.5
				c4.5,2.6,10,0.2,13.1-2.7c3.7-0.8,7.1-2.9,9.5-5.8c0.6-0.9,1.2-1.7,1.7-2.7c0.3-0.4,0.5-0.8,0.8-1.2c0.6,0.5,1.3,0.9,2,1.2
				l0.6,0.3c4.3,1.9,7.6,3,14.8,0.6c2.2-0.8,4.2-1.9,6.1-3.3l1-0.3c1.6-0.6,3.2-1.3,4.7-2.3c3,1.4,6.4,1.5,9.4,0.2
				c-1.9,4.5-3.2,7.9-3.5,10c0,0.3-0.1,0.6-0.1,1c-0.4,2.9-1,7.3,3.1,11.6c1.7,1.5,4,2.1,6.2,1.7c2.5-0.3,4.8-1.6,6.4-3.5h0.3
				c3.6-0.4,6.7-2.5,8.6-5.5c1.9-3.3,6.4-13.9,7.9-17.7c1.4-3.7,4.9-8.6,7.6-12.1c2-2.5,5.7-4.4,7.2-5.2l0.4-0.2
				C317.4,61.2,319.6,57,319.2,52.5"/>
			<path class="st9" d="M133.2,119.1c-0.4-0.3-1.1-0.5-1.5-0.9c-1.1,1-2.2,2-3.4,2.9c1.1,1.2,2.1,2.5,3,3.9c0.5,0,2.3,0,2.4,0
				c-0.9-1.2-1.9-2.3-3.3-3.7c0.4-0.3,0.8-0.7,1.2-1l0.3,0.3c1.7,1.6,4,2.5,6.4,2.6c0.6-0.4,1.1-0.9,1.6-1.5
				C137.4,121.8,134.9,120.9,133.2,119.1"/>
			<path class="st9" d="M152,106.5c-0.1,2.4-0.6,4.7-1.4,7c0.4,0.2,1.2,0.4,1.7,0.5c0.5-1.3,0.8-2.6,1-4c3,2,6.6,2.8,10.1,2.4
				c1-0.6,1.9-1.2,2.7-1.9C159.1,112.1,154.6,109.1,152,106.5"/>
			<path class="st9" d="M176.4,106.8c1.1-0.4,2.1-0.7,3.2-0.9c-0.7-0.2-2.3-1-3-1.3c-1.6,1.5-3.4,2.8-5.3,3.9
				c0.3,0.1,1.2,0.4,1.5,0.5C173.9,108,175.1,107.3,176.4,106.8"/>
			<path class="st9" d="M210.5,96c-0.7-0.4-1.4-0.9-2-1.5c-0.5,0.5-1.1,0.9-1.7,1.3c-0.7,0.5-1.5,0.8-2.4,1.1
				c-0.1,0.8-0.2,1.3-0.3,2.1c0.3,0.2,0.6,0.5,0.9,0.6l0.4,0.2c0.1-0.7,0.1-1.2,0.2-2c0.6-0.2,1.3-0.6,1.8-0.9
				c0.3-0.2,0.6-0.4,0.9-0.6c0.4,0.3,0.8,0.6,1.3,0.9c1.9,1.2,4.1,1.8,6.3,1.8c0.8-0.5,1.6-1,2.3-1.7
				C215.7,97.9,212.9,97.4,210.5,96"/>
			<path class="st9" d="M116,146.2c-0.5-0.8-1-1.6-1.5-2.4l-0.4,0.7c-4.3-3.7-12.9-11.3-16.3-14.7c-2.2-2.3-4.6-4.4-7.1-6.3
				c-0.4,2.1-1.1,4.7-1.5,6.9c0.4,0.4,1.3,1,1.8,1.4l0.9-5.3c1.7,1.3,3.4,2.8,4.9,4.3c3.5,3.5,12.3,11.2,16.6,14.9l0,0l0,0l0.2-0.2
				l-0.1,0.2c0.4,0.4,0.9,0.9,1.7,1.5c2.2,2,5,3.1,8,3c0.2-0.2,1.7-1.4,2-1.8c-3.2,0.4-6.6,0-9.1-2.3"/>
			<path class="st9" d="M48.4,100c-2.8-1.9-5.4-4.2-5.8-7.8c-0.3-2.2-0.7-3.7,0-5.9c-0.7,0.8-1.4,1.5-1.8,2c-0.1,1.4,0,2.8,0.2,4.2
				c0.8,4,3.4,7.3,7,9.2c1.6,1,3.5,1.5,5.4,1.5c0.5-0.3,0.9-0.6,1.4-0.9c0.3-0.2,0.5-0.4,0.8-0.7C53,102.1,50.4,101.5,48.4,100"/>
			<path class="st9" d="M67.8,164c-9.7-2.1-9.9-12-10-15.3c0-2.5,1-5.9,2.8-11.8c0.6-2,1.2-3.9,1.6-5.3c1-3.9,2.3-7.6,3.4-10.5
				c0.6-1.8,1.2-3.3,1.5-4.4c0.1-0.2,0.1-0.4,0.2-0.7c-0.2-0.1-0.4-0.2-0.6-0.2c-2.9-1.4-5-3.9-5.9-6.9c-0.5-1.4-0.7-2.8-0.6-4.3
				c-0.5,0.4-1.1,0.8-1.5,1.3c-0.1,1.2,0.1,2.3,0.5,3.4c1.1,3.3,3.4,6,6.4,7.5c-0.3,1-0.8,2.3-1.3,3.8c-1,3-2.3,6.7-3.4,10.6
				c-0.4,1.4-1,3.3-1.5,5.3c-1.8,6-2.9,9.5-2.9,12.2c0,9.7,3.7,15.4,10.9,16.9c0.6,0.2,1.2,0.3,1.8,0.3c0.7-0.5,1.3-1,1.9-1.6
				C70,164.4,68.9,164.3,67.8,164"/>
			<path class="st9" d="M71,93.5c1.1-0.5,2.1-1,3.2-1.7c0.5-1.6,0.4-4.3,0.9-6.8c-1.3,1.7-1.8,2-3,3.5C72,88.6,71.2,92.9,71,93.5"/>
			<path class="st9" d="M171.4,124.4c-2.1-2.8-3.5-5.4-3.1-8.4c-0.5,0.4-1.1,0.7-1.5,1.2c0,3,1.1,6,3,8.3c3,4.1,7.4,5.4,12.4,4.9
				c0.5-0.3,1-0.5,1.5-0.8c0.6-0.4,1.2-0.8,1.8-1.3C179.8,129.8,174.8,128.9,171.4,124.4"/>
			<path class="st9" d="M273.2,102.1c-5.1-5.2-4.3-11-3.9-14c0-0.3,0.1-0.6,0.1-0.9c0.3-2,0.9-4,1.7-5.8c-2,0-4-0.5-5.8-1.3
				c-1.6,1.4-3.3,2.6-5.1,3.7c0.6,0.2,1.1,0.4,1.7,0.6c1.3-0.8,2.5-1.7,3.7-2.6c1.2,0.5,2.4,0.8,3.6,1c-0.5,1.4-0.9,2.9-1.1,4.3
				c0,0.3-0.1,0.6-0.1,0.8c-0.4,3.1-1.3,9.5,4.3,15.3c1.9,1.9,4.6,3,7.3,3c0.6-0.4,1.2-1,1.6-1.5
				C278.3,105.1,275.3,104.1,273.2,102.1"/>
			<path class="st9" d="M238.6,85.3L238,85l0,0l0,0c-0.9-0.4-1.7-0.9-2.5-1.5c-1.1,0.8-2.2,1.7-3.3,2.6c-0.5,0.4-1,1-1.3,1.5
				c0.4,0.3,0.8,0.5,1.2,0.7c0.3-0.4,0.6-0.8,1-1.2c0.7-0.6,1.4-1.2,2.1-1.8c0.2,0.1,1.3,0.7,2.6,1.2c3.8,1.9,6.9,2.9,11.7,2.2
				c1.5-0.8,3-1.6,4.4-2.6C246.7,88.4,242.8,87.4,238.6,85.3"/>
			<path class="st9" d="M109.5,103.8c0.4-2,3.3-13.8,4.5-17.9c-0.3,0.3-1.9,2.3-2.2,2.6c-1,2.9-4,13-4.8,15.8c0.3,0.2,1.7,0.6,2,0.8
				C108.9,104.9,109.5,103.9,109.5,103.8"/>
			<path class="st10" d="M182.6,51.9L182.6,51.9"/>
			<path class="st10" d="M238,85L238,85L238,85L238,85"/>
			<polygon class="st10" points="238,85 238,85 238,85 			"/>
			<path class="st10" d="M182.6,51.9"/>
			<polygon class="st10" points="238,85 238,85 238,85 			"/>
			<path class="st10" d="M182.6,51.9L182.6,51.9L182.6,51.9z"/>
			<path class="st10" d="M70.1,91.2c0,0,0.7-0.8,0.7-0.9c1.4-1.6,2.8-3.5,4.3-5.3c-0.4,2.2-0.9,4.4-1.6,6.5c-1.3,0.8-2.3,1.5-3,1.9
				c-0.2,0.1-0.7,0.3-1.2,0.6c-1,0.4-2,0.9-2.9,1.5C67.9,93.9,69.2,92.4,70.1,91.2 M108.7,104.6c-2.9-1.7-6-3.1-9.3-4.1
				c3.5-3.2,9.6-9,14-13.4c-1.9,5.8-3.6,12.2-4.3,15.1C109,103,108.9,103.8,108.7,104.6 M319.8,52.5c-0.3-4.4-3.1-8.2-7.3-9.8
				c-2.9-1-6.3-0.6-10,1.2c0.4-0.8,0.9-1.9,1.3-2.7c0.6-1.2,1.2-2.4,1.8-3.8c1-2.3,4.1-9.4-0.8-16.2c-3-4.1-6.4-5.2-8.8-5.4
				s-6.1,0.4-9.9,4.2c-1.4,1.5-2.5,3.2-3.2,5.1c-0.4-0.3-0.9-0.6-1.4-0.9c-3.4-1.7-7.5-1.4-11.2,0.9c-1.3,0.9-3.6,2.4-7.1,10.1
				c-4.7-3.2-10.7-3.8-16-1.6c-4.7,1.8-8.8,4.7-11.9,8.6c-0.2-0.2-0.3-0.4-0.5-0.6c-2.8-2.6-6.8-3.6-10.5-2.5
				c-4,1.1-7.7,4.6-12.2,11.8c-1.4-1.8-3.3-3.2-5.4-4c-2.8-1-8.2-1.7-12.9,4.1c-3.5-1.4-7.3-1.2-11.2,0.8l0,0l0,0
				c-0.3,0.1-0.6,0.2-0.8,0.4c-3.6,1.6-6.8,3.9-9.5,6.8c-0.2,0.2-0.5,0.5-0.8,0.8c-0.9-0.7-1.8-1.3-2.9-1.7
				c-3.8-1.6-8.6-0.4-13.7,3.4c-1.6-1.3-3.6-2.1-5.7-2.2c-1.3-0.1-2.7,0.1-3.9,0.5c-0.1-1.1-0.4-2.1-0.8-3.2c-0.9-2.4-2.7-4.4-5-5.4
				c-0.6-0.2-1.3-0.4-2-0.5c0.8-5.8-1.4-10.2-3.9-12.4c-5.3-4.5-11.6-1.9-14.9-0.5c-4.2,1.8-7.9,7.4-16,20.5c-1,1.7-2,3.3-3,4.8
				c-1.6-6.4-6.9-11.1-13.4-11.9c-4.1-0.5-10.2,0.6-24.5,13C57.5,68,48.5,76.6,45.5,80.1c-3,3.8-4.1,8.1-3.2,12.2
				c0.7,3.5,3,6.5,6.2,8.2c5.2,2.8,10,1.2,13.9-1.6c-2.1,2.8-2.8,6.5-1.8,9.8c1,3.1,3.2,5.6,6.2,6.9c0.2,0.1,0.4,0.2,0.6,0.2
				c-0.1,0.2-0.1,0.5-0.2,0.7c-0.3,1.1-0.8,2.6-1.5,4.4c-1,3-2.3,6.6-3.4,10.5c-0.4,1.4-1,3.3-1.6,5.3c-1.8,5.9-2.8,9.3-2.8,11.8
				c0,3.4,0,13.4,9.7,15.5c4.3,1.1,10-1.3,13.2-5.5s6.8-16.4,8-23.2c0,0,1.2-7,2-11.3c2.5,1.7,4.9,3.6,7,5.8
				c3.5,3.4,12.3,11.1,16.5,14.8l1.8,1.5c4.6,4.1,12.2,3,16.3-0.6c2.1-1.8,4.9-5,4.6-11.2c-0.1-2.2-1.3-5.9-8.6-13.4
				c1.2-0.9,2.3-1.8,3.4-2.9c0.3,0.4,0.7,0.8,1.1,1.2c2.1,1.8,4.9,2.7,7.7,2.3c3.8-0.6,7.2-2.8,9.3-6c1.3-1.9,2-4.4,2.4-8.3
				c2.7,2.8,7.5,5.2,15.3,3c3.2-1,6.2-2.8,8.5-5.2c0.7,0.3,1.4,0.5,2.1,0.6c-1,0.3-2,0.7-3,1.1c-4.5,2.2-6.1,5.4-6.7,7.8
				c-0.8,3.5,0.1,7.3,2.4,10.1c4.6,6.3,14.3,5.3,21,1.1c6.2-3.9,9.9-12.1,11.2-18.6c0.5-2.3,1-6.6,1.4-10.3c0.8-0.3,1.6-0.6,2.4-1.1
				c0.6-0.4,1.1-0.8,1.7-1.3c0.6,0.6,1.3,1.1,2,1.5c6.8,4,14.7-0.4,18.2-4.8c0.7-0.8,1.2-1.7,1.8-2.7c0.5-0.9,1-1.7,1.7-2.3
				c1-0.9,2.1-1.8,3.3-2.6c0.9,0.7,1.9,1.3,3,1.7c4.5,2.2,8.7,3.4,16.9,0.7c3.6-1.4,6.9-3.4,9.8-6c1.8,0.8,3.8,1.3,5.9,1.3
				c-0.8,1.9-1.3,3.8-1.7,5.8c0,0.3-0.1,0.6-0.1,0.9c-0.4,3.1-1.2,8.8,3.9,14c2.3,2.2,5.5,3.1,8.6,2.5c3.7-0.5,7-2.6,9-5.8
				c1.9-3.3,6.4-13.8,7.9-17.8c1.4-3.6,4.9-8.7,7.6-11.9c1.9-2.4,5.5-4.3,7-5.1l0.4-0.2C317.8,61.5,320.1,57,319.8,52.5"/>
			<path class="st11" d="M132.9,119.3c-0.4-0.4-0.8-0.8-1.1-1.2c-1.1,1-2.2,2-3.4,2.9c1.5,1.6,2.8,3,3.8,4.2c0.5,0,1,0,1.6,0
				c2.5-0.4,4.8-1.6,6.5-3.5C137.5,122,134.9,121.1,132.9,119.3"/>
			<path class="st11" d="M152.3,107.3c-0.1,2.2-0.6,4.5-1.4,6.6c0.5,0.2,1,0.4,1.5,0.5c2.7,0.6,5.4,0.4,8-0.4
				c2.2-0.7,4.3-1.9,6.1-3.4C159.3,112.2,154.9,110,152.3,107.3"/>
			<path class="st11" d="M178.2,105.7c-0.7-0.2-1.4-0.4-2.1-0.6c-1.6,1.5-3.4,2.8-5.3,3.9c0.3,0.1,0.6,0.2,0.9,0.2
				c1-1,2.2-1.8,3.5-2.4C176.2,106.4,177.2,106,178.2,105.7"/>
			<path class="st11" d="M210.5,96c-0.7-0.4-1.4-0.9-2-1.5c-0.5,0.5-1.1,0.9-1.7,1.3c-0.7,0.5-1.5,0.8-2.4,1.1
				c-0.1,0.8-0.2,1.5-0.3,2.3c0.3,0.2,0.6,0.5,0.9,0.6c4.6,2.7,10.1,0.4,13.5-2.6C215.9,97.9,213,97.4,210.5,96"/>
			<path class="st11" d="M116,146.2l-1.8-1.5c-4.2-3.7-13-11.4-16.5-14.8c-2.1-2.2-4.5-4.1-7-5.8c-0.4,2.1-0.8,4.7-1.2,6.9
				c1,0.9,2.1,1.9,3.3,3l0,0c3.4,3.3,12.1,11,16.3,14.6l1.8,1.6c1.9,1.6,4.4,2.3,6.9,2c2.3-0.2,4.5-1.1,6.2-2.6c0.4-0.3,0.7-0.6,1-1
				c-3.3,0.6-6.6-0.3-9.2-2.5"/>
			<path class="st11" d="M48.5,100.5c-3.2-1.7-5.5-4.7-6.2-8.2c-0.5-2.2-0.3-4.5,0.3-6.7c-0.7,0.8-1.3,1.5-1.8,2v0.1v0.1
				c-2.3,2.8-3.3,6.4-2.7,10c0,0.2,0.1,0.3,0.1,0.5c0.6,2.6,2.4,4.9,4.7,6.1c2.2,1.2,6.6,2.4,12.1-1.8c0.3-0.2,0.5-0.4,0.8-0.7
				C53.3,102.2,50.7,101.8,48.5,100.5"/>
			<path class="st11" d="M67.6,164.2c-9.7-2-9.7-12.1-9.7-15.5c0-2.5,1-5.9,2.8-11.8c0.6-2,1.2-3.9,1.6-5.3c1-3.9,2.3-7.6,3.4-10.5
				c0.6-1.8,1.2-3.3,1.5-4.4c0.1-0.2,0.1-0.4,0.2-0.7c-0.2-0.1-0.4-0.2-0.6-0.2c-2.9-1.3-5.2-3.8-6.2-6.9c-0.5-1.5-0.6-3.2-0.3-4.8
				c-1.3,0.8-2.3,2-3.1,3.3l0,0l0,0c-1.1,1.9-1.4,4.2-0.9,6.3l0.1,0.3c0.8,2.4,2.6,4.4,4.9,5.4c0.7,0.4,1.5,0.6,2.3,0.8
				c-0.1,1-0.3,2-0.6,2.9c-0.3,1.1-0.9,2.7-1.5,4.5c-1,2.9-2.3,6.5-3.3,10.4c-0.4,1.5-1,3.4-1.6,5.4c-1.8,6-2.7,9.1-2.7,11.1v0.1
				c0,2,0.2,4.1,0.7,6.1c0.2,0.9,0.6,1.8,1.1,2.7c1.3,2.2,3.5,3.8,6,4.2c3.1,0.7,7.2-0.7,9.8-3.4C70.1,164.4,68.9,164.4,67.6,164.2"
				/>
			<path class="st11" d="M70.5,93.5c0.7-0.4,1.7-1,3-1.9c0.7-2.1,1.2-4.3,1.6-6.5c-1.3,1.7-2.7,3.4-4,5c0,0.3-0.1,0.7-0.1,1
				C70.8,91.9,70.7,92.7,70.5,93.5"/>
			<path class="st11" d="M170.9,124.7c-2-2.5-2.9-5.7-2.6-8.9c-2,1.2-3.4,3.1-4,5.4c-0.3,1.4-0.3,2.8,0.1,4.2c0.4,1.4,1,2.7,1.9,3.8
				c3.7,5,11.9,4.1,17.9,0.5c0.6-0.4,1.1-0.8,1.6-1.2C180.1,130,174.2,129.2,170.9,124.7"/>
			<path class="st11" d="M273.2,102.1c-5.1-5.2-4.3-11-3.9-14c0-0.3,0.1-0.6,0.1-0.9c0.3-2,0.9-4,1.7-5.8c-2,0-4-0.5-5.8-1.3
				c-1.7,1.4-3.5,2.7-5.3,3.9c2.7,1.2,5.6,1.3,8.4,0.4c-1.7,4.1-2.8,7.1-3.1,9.1l-0.1,1c-0.4,2.2-0.4,4.4,0.1,6.6
				c0.6,2,1.6,3.9,3.1,5.4l0,0h0c1.8,1.5,4.2,2.2,6.5,1.7c2.5-0.3,4.9-1.6,6.5-3.5C278.4,105.1,275.4,104.1,273.2,102.1"/>
			<path class="st11" d="M238.6,85.3L238,85l0,0l0,0c-0.9-0.4-1.7-0.9-2.5-1.5c-1.1,0.8-2.2,1.7-3.3,2.6c-0.5,0.5-1,1.1-1.4,1.8
				c0.5,0.3,1,0.6,1.5,0.8h-0.1L233,89c1.9,1,4,1.7,6.2,2c3,0.2,6.1-0.2,8.9-1.3c2.2-0.8,4.2-1.9,6.1-3.3
				C246.8,88.6,242.8,87.4,238.6,85.3"/>
			<path class="st12" d="M108.8,104.6c0.1-0.8,0.2-1.6,0.4-2.4c0.6-2.9,2.4-9.3,4.3-15.1c-0.9,1-2,2-3,3c-1.4,4.1-3,9.1-4.1,13.1
				C107.1,103.6,108,104,108.8,104.6"/>
			<path class="st0" d="M186.7,81c-0.6,1-1.3,2-2,2.9c-0.1,0-0.1,0.1-0.2,0.1c-0.3-1.1-0.4-2.3-0.2-3.5c0.3-2.7,1.4-3.9,2.8-5.6
				c0.4-0.5,0.8-1,1.2-1.5c0.1-0.1,0.3-0.2,0.4-0.3C187.8,76.4,187,79.6,186.7,81 M124,72c-1.8,1.5-3.3,3.4-4.3,5.5
				c-2.5,4.4-7.1,20-8.2,25.2c-0.5,2-0.7,4.1-0.7,6.2c-4.5-3.3-9.7-5.6-15.2-6.9l-1.1-0.3c0.3-0.2,0.6-0.5,0.9-0.7
				c2-1.8,13.8-12.7,18.9-18.4c2.3-2.5,5.8-7.1,9.3-11.8C123.8,71.2,123.9,71.6,124,72 M317.4,52.7c-0.2-3.4-2.5-6.4-5.7-7.7
				c-4.4-1.5-9.5,1.5-13,4.3c0.1-0.4,0.2-0.8,0.3-1.2c0.4-1.7,0.7-2.8,0.9-3.5c0.5-1.5,1.1-3,1.9-4.4c0.6-1.2,1.2-2.4,1.7-3.6
				c1.5-3.5,3.2-8.7-0.5-13.9c-2.4-3.3-5.1-4.2-7-4.4s-4.9,0.4-8,3.5c-0.6,0.7-2.3,2.4-4,8c-0.8-1.4-1.9-2.6-3.4-3.3
				c-2.7-1.3-5.9-1-8.9,0.8c-1.1,0.7-3.5,2.3-7.4,12c-4.2-4.3-10.6-5.7-16.1-3.3c-5.3,2-9.9,5.7-12.8,10.6c-1.6-4.1-6.1-6.3-10.3-5
				c-4,1.1-7.8,5.3-13.1,14.5c-0.1-0.6-0.3-1.1-0.6-1.7c-1.1-2.3-3-4.1-5.4-5c-2.8-1-7-1.1-10.6,3.7c-0.3,0.4-0.6,0.8-0.8,1.2
				c-3.2-2.1-6.9-2.2-10.9-0.1l-0.9,0.4c-3.4,1.5-6.4,3.7-8.9,6.3c-0.8,0.8-1.6,1.7-2.3,2.6c-1-1.3-2.3-2.4-3.8-3
				c-4.3-1.8-9.3,1.3-13.1,4.4c-0.1-0.1-0.2-0.3-0.3-0.4c-1.3-1.5-3.2-2.5-5.2-2.6c-2.2-0.1-4.3,0.5-6.1,1.7c0.2-2,0-4.1-0.7-6
				c-0.6-1.8-2-3.3-3.7-4.1c-1.3-0.5-2.7-0.6-4-0.4c1.7-5.8,0.1-10.6-2.5-12.9c-4.1-3.5-9.1-1.4-12.4,0c-3.6,1.6-7.3,7.2-14.9,19.6
				c-2.2,3.5-4.3,6.9-5.7,8.9l-0.8,1.2c0-0.7,0-1.4-0.1-2.1c-1.1-11.3-8.7-13.6-12-14s-9,0.6-22.6,12.4
				c-4.4,3.8-13.3,12.2-16.2,15.7c-2.5,3.2-3.5,6.8-2.7,10.1c0.6,2.8,2.4,5.2,5,6.6c8.1,4.3,15.2-4.4,18.7-8.7l0.7-0.9
				c3.1-3.7,6.8-8.6,8.9-11.5c0.2-0.2,0.4-0.5,0.6-0.7c-0.2,2.8-0.5,5.6-1,8.4c-0.5,2.7-1.1,5.4-2,8.1c-1.2,0.8-2.8,1.9-3.8,2.5
				c-0.3,0.2-0.8,0.4-1.4,0.7c-2.1,1-5,2.2-6.6,5.1c-1.2,2-1.5,4.5-0.8,6.7c0.8,2.4,2.6,4.4,4.9,5.4c0.7,0.3,1.5,0.6,2.3,0.8
				c-0.1,1-0.3,2-0.6,3c-0.3,1.1-0.9,2.7-1.5,4.5c-1,2.9-2.3,6.5-3.3,10.4c-0.4,1.5-1,3.4-1.6,5.4c-1.7,5.5-2.7,9-2.7,11.1
				c0,3.5,0,11.4,7.8,13.1c3.4,0.8,8.2-1.2,10.8-4.6c2.8-3.7,6.3-14.9,7.5-22.1c0,0,1.6-8.8,2.6-14.7c2.4,1.1,5.9,3.3,10.4,7.8
				c3.4,3.4,12.2,11,16.4,14.7l1.8,1.6c3.6,3.2,9.8,2.3,13.2-0.6c2.7-2.2,4.2-5.7,3.8-9.2c-0.2-3.5-4.8-8.9-10.1-14
				c3-1.6,5.6-3.7,7.7-6.3c0.5,1.3,1.3,2.4,2.3,3.3c1.6,1.4,3.7,2,5.8,1.7c3.1-0.5,5.9-2.3,7.6-5c1.6-2.4,2.1-6.2,2.4-14v-1
				c0.4,1.2,1,2.4,1.6,3.6c2,3.6,6.2,7.5,14.9,5.1c3.3-0.9,6.4-3.5,8.6-5.7c2.3,1.2,5,1.6,7.5,1.3c0,0.1,0,0.2,0,0.3
				c-0.2,1.3-0.7,2.5-1.3,3.6c-1.9,0.2-3.8,0.7-5.5,1.6c-2.7,1.1-4.7,3.4-5.4,6.2c-0.6,2.8,0.2,5.8,2,8c3.6,5,11.9,4.1,17.8,0.5
				c5.6-3.5,8.9-11.1,10.1-17c0.5-2.5,1.1-7.9,1.5-11.7c1.2-0.2,2.3-0.6,3.3-1.3c1.2-0.8,2.2-1.8,3.2-2.8c0.7,1.2,1.8,2.3,3,3
				c5.5,3.2,12.3-0.7,15.1-4.3c0.6-0.8,1.1-1.6,1.6-2.4c0.6-1.1,1.3-2,2.2-2.9c1.6-1.4,3.3-2.7,5.1-3.8c0.9,1,2,1.7,3.2,2.3l0.6,0.3
				c4.2,1.9,7.8,3.1,15.2,0.6c3.6-1.2,7.4-4.1,10.2-6.6c3,1.9,6.6,2.3,10,1.3c-1.7,4-2.8,7.1-3,9.1c0,0.3-0.1,0.6-0.1,1
				c-0.4,3-1.1,7.6,3.2,12c1.8,1.6,4.2,2.3,6.6,1.8c3-0.4,5.7-2.1,7.3-4.6c1.8-3.2,6.3-13.6,7.8-17.4s5-9,8-12.6
				c2.2-2.8,6.1-4.8,7.8-5.7l0.4-0.2c3.2-1.8,5.1-5.3,4.7-9"/>
			<path class="st10" d="M51.8,94.1c-2.5-1.3-3.9-5.1-0.7-9.3c2.5-3.1,11-11.1,15.6-15.1C72.1,65,81,57.9,85.5,58.5
				c3.5,0.5,7.2,2.8,7.8,9.6s-1.7,16.6-1.7,16.6c4.1-4.2,7.9-8.6,11.4-13.3c4.6-6.6,14.9-25.2,18.5-26.8s5.8-2.1,7.3-0.8
				s2.6,5.2,0.3,10s-13.3,20.1-18.3,25.6s-16.7,16.3-18.5,18s-4.6,2.4-4,4.6s1.3,3.4,4,4.2c3.5,1.1,9.9,2,16.5,7.3
				c4.4,3.5,20.6,17.3,20.9,21.4c0.3,2-0.5,4-2.1,5.3c-1.9,1.6-5.3,2-6.8,0.7s-13.9-12.1-18-16.1c-7.5-7.4-13.5-10.2-17.6-10.2
				c0,0-2.4,13.2-3.5,19.8c-1.2,7.3-4.7,17.4-6.6,20c-1.5,2-4.4,3.2-6,2.8c-2.5-0.5-4-1.9-4-8.3c0-2.3,2.9-10.6,4.2-15.3
				c1.6-6.1,3.9-11.6,4.8-14.8c0.6-2.8,1-5.7,1.2-8.6c-1.9,0.1-3.7-0.2-5.5-0.9c-2.3-1.1-3.2-3.2-2-5.3s4.2-2.9,6.2-4
				s5.5-3.6,5.5-3.6c1.2-3.4,2.2-6.9,2.8-10.4c0.9-5.5,2.1-15.3-0.4-15.8s-5.7,1.5-7.9,4.5s-5.8,7.8-8.7,11.2S56.9,96.8,51.8,94.1"
				/>
			<path class="st10" d="M252.3,55.4c1.5-1.3,2.7-2.8,3.7-4.4c1-2.2-0.4-3.6-0.9-4.3s-3.1-0.9-4.3-0.4s-3.1,2.8-3.9,5.3
				s-0.4,7.9-0.4,7.9C248.6,58.4,250.6,57.1,252.3,55.4 M129.5,74.8c3-0.2,4.8,3.6,4.3,5.3c-0.9,3.1-3.1,5.7-4.3,9
				c-1.1,3.1-3,7.6-2.9,10s1,3.8,2.9,2.2s2.3-2.8,3.8-5.3s2.9-4.7,2.9-4.7s1.7-4.6,3.1-10.3s2.8-9.8,4.4-11.8
				c1.2-1.6,3.1-2.6,5.2-2.6c1.8,0.1,3.1,2.3,3,4.1s-2.5,6.3-2.5,6.3s2.9-3.3,5.9-6.3c2.9-2.9,8.1-6.9,10.7-5.8
				c2.6,1.1,3.7,4.5,2.3,8.8c-1,3.1-3.6,11.8-4.1,15.2c-0.5,3-1.4,6.1,1.9,7.2c2.4,0.7,5.8-4.3,5.8-4.3s-3.8-4.1-2.1-12.4
				c1.1-5.6,3.3-11.1,7.5-15.2c2.4-2.6,5.4-4.6,8.6-5.9c2.6-1.3,4.5-1.3,6.4,0c2.1,1.5,3.4,4.8,0.1,7c-1.5,1-6.3,2.9-8,5.1
				s-4.3,4.4-5,9.4c-0.5,4.1,0.9,8.2,2.8,8.8c2.1,0.6,4.5,0,6-1.6c1.1-1.4,2.1-2.8,2.9-4.3c0,0,2.2-9.4,3.7-14.6s2.6-10,4.3-12.2
				s3.4-2.7,5.3-2c2.3,0.8,3.5,3.3,2.7,5.6c0,0,0,0.1,0,0.1c-1,2.6-3.7,14.5-5.7,18l-0.9,2.7c1.8-0.4,3.3-1.5,4.3-3
				c2.5-4.3,7.7-12.7,10.9-18.2s7.3-12,10.6-12.9c1.9-0.7,4,0.4,4.7,2.3c0.2,0.7,0.3,1.4,0.1,2c-0.5,2.5-4.7,6.9-4.7,6.9
				s3.5,4.9,4,8.4c0.3,2.3,0.3,4.7,0.1,7l4.7-4.2c0,0-0.7-7.8,1-12.7c2.8-7.8,7-12.7,13.7-15.4c6.3-2.4,10.8,1.2,12.1,3.8
				s0.8,7.4-2.3,11.2s-8.8,9-12.7,9.7c0.2,1.5,0.9,3,1.9,4.2c1.6,1.8,4.4,1.9,6.2,0.3c0,0,0.1-0.1,0.1-0.1c1.4-1.2,7.3-7.8,9.1-11.9
				c0.4-4.2,1.3-8.3,2.7-12.3c2.5-6.9,5.2-12.8,7.1-14.1c3.2-2,5.9-0.6,6.2,3.2c0.1,1.8-3.5,7.6-5.6,13.1c-1.4,3.5-2.4,7.2-2.9,11
				c-0.6,5.2,3.2,4.3,5.2,3.2c2.7-1.5,3.5-2.7,5-7.3c1-2.7,4.3-14.7,4.8-17.1s2-10,4.3-12.4s5.1-3.3,7.7,0.3c1.5,2.2,2,4.6,0,9.1
				c-1.4,3.3-3.5,6.6-4,9.1s-4.8,17.2-4.6,24.2c0,0,4.8-8.3,7.5-11.4s9.2-7.9,12.2-6.9s3.6,6,0.3,7.9c-1.6,0.9-6.5,3.3-9.6,7.1
				c-3.1,3.8-7,9.4-8.7,13.9c-1.5,3.8-5.8,14-7.4,16.7c-1.3,2.3-5.3,2.8-6.3,1.8c-3-3-2.1-5.9-1.8-9s4.7-12.3,5.5-14.2
				c1.2-3-2.2-6.2-2.2-6.2s-2.4,4.2-5.5,5.6c-2.3,1.1-5,0.9-7.1-0.4c-1-0.7-1.7-1.8-2-3c0,0-6.7,7.3-12.1,9.2
				c-6.7,2.2-8.8,0.8-12.4-0.8c-1.9-0.8-4-4.2-4-4.2c-3.3,2-6.4,4.2-9.3,6.7c-2.2,2-3,4.2-4.3,5.8c-1.6,2.1-6,4.8-9,3.1
				c-2.6-1.5-3-6.3,0.4-9c2.3-1.8,4.9-3.2,7.6-4.4c0.6-2.4,0.9-4.8,0.9-7.3c-0.1-1.8-0.8-3.4-1.9-4.8c0,0-6.6,10.9-9.7,15.7
				c-3.7,5.5-7,8.9-8.4,9.9s-5,0.8-5,0.8s-1,11.5-1.8,15.2c-1,4.6-3.6,11.2-8,13.9c-4.1,2.5-9.7,3.2-11.5,0.8s-1.9-5.2,1.7-6.9
				c1.9-1,4-1.3,6.1-1.1c1.6-2.3,2.8-4.9,3.3-7.7c0.4-2.8,1.2-10.6,1.2-10.6s-2.8,3.8-6.4,4.7c-2.2,0.6-5.9-0.7-7.9-2.9
				c0,0-4.7,6.3-9,7.5s-7.5,0.8-9.4-2.8c-2.3-3.8-2.8-8.3-1.6-12.5c1.2-3.4,2.7-6.8,4.3-10c0,0-0.3-2.4-5.3,2
				c-2.5,2.2-5.5,5.6-6.6,8.2s-1.3,6.2-1.5,9.8s-0.3,11.4-1.7,13.4c-1.9,2.7-4.9,3.7-6.4,2.3s-2.9-6.3-2.1-10c0,0-2.5,1.6-6.6,6.8
				c-3.8,4.7-8.5,7.6-10.5,5.6c-2.3-2.3-3.6-5.9-2.1-12.4c1.2-5.7,5.7-20.4,7.7-23.9S127.3,74.9,129.5,74.8"/>
			<path class="st10" d="M137.2,66.8c1.6-3.7,1.1-8.2-0.6-8.9c-2.4-0.9-6.2,2.1-7.8,5.7s-0.6,8.4,1.8,9
				C132.6,73.2,135.7,70.6,137.2,66.8"/>
			<path class="st12" d="M312.6,26.7v-3.8h0.8l0.9,2.7c0.1,0.2,0.1,0.4,0.2,0.6c0-0.1,0.1-0.3,0.2-0.6l0.9-2.6h0.7v3.8h-0.5v-3.2
				l-1.1,3.2h-0.5l-1.1-3.2v3.2H312.6z"/>
			<path class="st12" d="M317.5,26.2h0.8c0.2,0,0.4,0,0.6-0.1c0.1,0,0.2-0.1,0.3-0.2c0.1-0.1,0.2-0.3,0.3-0.5
				c0.1-0.2,0.1-0.5,0.1-0.7c0-0.3,0-0.6-0.2-0.9c-0.1-0.2-0.3-0.3-0.5-0.4c-0.2-0.1-0.4-0.1-0.6-0.1h-0.8L317.5,26.2z M316.9,26.7
				v-3.8h1.3c0.2,0,0.4,0,0.7,0.1c0.2,0,0.4,0.1,0.5,0.3c0.2,0.2,0.4,0.4,0.5,0.6c0.1,0.3,0.1,0.6,0.1,0.9c0,0.3,0,0.5-0.1,0.8
				c-0.1,0.2-0.1,0.4-0.3,0.5c-0.1,0.1-0.2,0.3-0.3,0.4c-0.1,0.1-0.3,0.2-0.5,0.2c-0.2,0-0.4,0.1-0.6,0.1H316.9z"/>
			<polygon class="st12" points="320.4,26.7 321.4,22.8 321.8,22.8 320.7,26.7 			"/>
			<path class="st12" d="M323.2,24.7h0.4c0.1,0,0.3,0,0.4-0.1c0.1-0.1,0.1-0.1,0.1-0.2c0-0.1,0-0.1-0.1-0.2c0-0.1-0.1-0.1-0.1-0.1
				c-0.1,0-0.2,0-0.3,0h-0.4L323.2,24.7z M322.9,25.8v-2.1h0.7c0.2,0,0.4,0,0.5,0.1c0.1,0,0.2,0.1,0.3,0.2c0.1,0.1,0.1,0.2,0.1,0.3
				c0,0.1-0.1,0.3-0.2,0.4c-0.1,0.1-0.3,0.2-0.4,0.2c0.1,0,0.1,0.1,0.2,0.1c0.1,0.1,0.2,0.3,0.3,0.4l0.3,0.4h-0.4l-0.2-0.3
				c-0.1-0.2-0.2-0.4-0.4-0.5c-0.1-0.1-0.2-0.1-0.3-0.1h-0.2v0.9H322.9z M323.8,23.1c-0.3,0-0.5,0.1-0.8,0.2
				c-0.3,0.1-0.5,0.3-0.6,0.6c-0.1,0.2-0.2,0.5-0.2,0.8c0,0.3,0.1,0.6,0.2,0.8c0.1,0.3,0.3,0.5,0.6,0.6c0.2,0.1,0.5,0.2,0.8,0.2
				c0.3,0,0.6-0.1,0.8-0.2c0.3-0.1,0.5-0.3,0.6-0.6c0.1-0.2,0.2-0.5,0.2-0.8c0-0.3-0.1-0.6-0.2-0.8c-0.1-0.3-0.4-0.5-0.6-0.6
				C324.3,23.2,324,23.1,323.8,23.1 M323.8,22.8c0.3,0,0.7,0.1,1,0.2c0.3,0.2,0.6,0.4,0.7,0.7c0.3,0.6,0.3,1.3,0,2
				c-0.2,0.3-0.4,0.6-0.7,0.7c-0.3,0.2-0.6,0.3-1,0.3c-0.4,0-0.7-0.1-1-0.3c-0.3-0.2-0.5-0.4-0.7-0.7c-0.3-0.6-0.3-1.3,0-2
				c0.2-0.3,0.4-0.6,0.7-0.7C323,22.9,323.3,22.8,323.8,22.8"/>
			<text transform="matrix(0.99 0 0 1 333.2002 60.02)" class="st0 st13 st14">p</text>
			<text transform="matrix(0.99 0 0 1 359.4053 60.02)" class="st0 st13 st14">r</text>
			<text transform="matrix(0.99 0 0 1 376.6113 60.02)" class="st0 st13 st14">sente</text>
			<path class="st15" d="M195,529.1h204.7c21.5,0,38.8,17.4,38.8,38.8v0.4c0,21.5-17.4,38.8-38.8,38.8H195
				c-21.5,0-38.8-17.4-38.8-38.8v-0.4C156.1,546.5,173.5,529.1,195,529.1z"/>
			<path class="st16" d="M195,529.1h204.7c21.5,0,38.8,17.4,38.8,38.8v0.4c0,21.5-17.4,38.8-38.8,38.8H195
				c-21.5,0-38.8-17.4-38.8-38.8v-0.4C156.1,546.5,173.5,529.1,195,529.1z"/>
			<path class="st0" d="M332,578.9h-17.7v-28c0-0.2-0.2-0.3-0.4-0.3h-10.2c-0.2,0-0.3,0.2-0.3,0.3c0,0,0,0,0,0v37.8
				c0,0.2,0.2,0.3,0.3,0.3H332c0.2,0,0.4-0.2,0.4-0.3v-9.4C332.4,579,332.2,578.9,332,578.9"/>
			<path class="st0" d="M278.3,549.9c-11.7,0-20.1,8.4-20.1,19.9s8.5,19.9,20.1,19.9s20.1-8.4,20.1-19.9S290,549.9,278.3,549.9z
				 M284.2,577.3c-4,3.1-9.8,2.3-12.9-1.7c0,0,0-0.1-0.1-0.1c-3.1-4.1-2.3-10,1.8-13.1c4-3.1,9.8-2.3,12.9,1.7c0,0,0,0.1,0.1,0.1
				C289.1,568.3,288.3,574.1,284.2,577.3z"/>
			<path class="st0" d="M253.4,566.7h-18.6c-0.2,0-0.3,0.1-0.4,0.3c0,0,0,0,0,0v7.5c0,0.2,0.2,0.3,0.4,0.3h8.3
				c-1.1,3.3-3.7,4.8-8,4.8s-8.8-3.1-8.8-10c0-5.7,3.6-9.7,8.7-9.7c2.6-0.1,5.1,0.9,6.9,2.7c0.1,0.1,0.3,0.1,0.5,0c0,0,0,0,0,0
				l7.2-7.1c0.1-0.1,0.1-0.2,0.1-0.2c0-0.1,0-0.2-0.1-0.2c-3.5-3.5-8.2-5.3-13.9-5.3c-12,0-20.4,8.2-20.4,19.9s8.4,19.9,20.4,19.9
				c9.1,0,18.4-6.6,18.4-19.3c0-1.2-0.1-2.3-0.2-3.5C253.7,566.8,253.6,566.6,253.4,566.7"/>
			<path class="st0" d="M354.1,549.8c-11.7,0-20.1,8.4-20.1,19.9s8.5,19.9,20.1,19.9s20.1-8.4,20.1-19.9S365.7,549.8,354.1,549.8z
				 M360,577.2c-4,3.1-9.8,2.3-12.9-1.7c0,0,0-0.1-0.1-0.1c-3.1-4.1-2.3-10,1.8-13.1c4-3.1,9.8-2.3,12.9,1.7c0,0,0,0.1,0.1,0.1
				C364.9,568.2,364.1,574.1,360,577.2z"/>
			<path class="st17" d="M379.5,550.6c0,0,0,0.1,0,0.1l0,0l-3.9,9.7l0,0c-0.1,0.2-0.3,0.2-0.4,0.2c-0.1,0-0.1-0.1-0.2-0.2l0,0
				c-1.5-3.3-3.7-6.2-6.6-8.5h-0.1c-0.1-0.1-0.1-0.2-0.1-0.2c0-0.2,0.1-0.3,0.3-0.3h0.1l0,0l10.5-1l0,0
				C379.3,550.3,379.4,550.4,379.5,550.6z"/>
		</g>
	</g>
</g>
</svg>
