<svg xmlns="http://www.w3.org/2000/svg" viewBox="0 0 1912.89 507.59"><defs><style>.cls-1,.cls-14{fill:#fff;}.cls-2{fill:#e0cc00;}.cls-3{fill:#d0af21;}.cls-4{fill:#b68400;}.cls-5{fill:#4197cb;stroke-width:21.85px;}.cls-16,.cls-5,.cls-8{stroke:#fff;}.cls-16,.cls-5{stroke-miterlimit:10;}.cls-6,.cls-7{fill:#009ade;}.cls-7{opacity:0.3;}.cls-14,.cls-7{isolation:isolate;}.cls-8{stroke-linecap:round;stroke-linejoin:round;stroke-width:17.38px;}.cls-9{fill:#011e41;}.cls-10,.cls-11{fill:#eb1f26;}.cls-10,.cls-12{fill-rule:evenodd;}.cls-12,.cls-13{fill:#221f1f;}.cls-14{font-size:40.15px;font-family:Roboto-Bold, Roboto;font-weight:700;}.cls-15{fill:#282460;}.cls-16{fill:none;stroke-width:5.35px;}.cls-17{fill:#7098cf;}</style></defs><title>logotype</title><g id="Layer_2" data-name="Layer 2"><g id="Layer_1-2" data-name="Layer 1"><path class="cls-1" d="M1237.13,317.06c0-14.06,12-44.44,12-64.77,0-20.08-11.8-28.37-27.87-28.37-7.78,0-18.83,2-29.37,14.06l2.76-13h-36.15l-17.11,80.7c-3.78,12.49-12.79,22-22.55,22-7,0-10.29-2.26-10.29-9.29a34.93,34.93,0,0,1,1-8l18.07-85.35h-36.15l-17.07,80.58v0c-3.77,12.54-12.8,22.07-22.59,22.07-7,0-10.29-2.26-10.29-9.29a34.93,34.93,0,0,1,1-8L1058.64,235h15.06l2-10h-15.06l8.53-39.67-37.15,5-7.53,34.65h-8.29l-2,10h8.28l-15.06,70.54v0c-3.77,12.53-10.54,22.05-20.32,22.05-7,0-10.29-2.26-10.29-9.29a34.93,34.93,0,0,1,1-8l18.08-85.35H959.74l-17.08,80.58c-3.76,12.55-10.29,22.09-20.08,22.09-5.52,0-7.53-4.52-7.53-10.29a35.45,35.45,0,0,1,.75-7l18.08-85.35H897.73l-7.1,33.53c-7,2.91-14.12,4.88-20,4.88a5.8,5.8,0,0,1-2.76-.51c0-26.36-10.54-40.16-32.13-40.16-51.72,0-68.79,60.25-68.79,89.12,0,28.61,16.82,39.66,40.17,39.66,30.88,0,56-29.12,60-75.56a101.78,101.78,0,0,0,21-5.79l-7.5,35.41a82,82,0,0,0-2,16.32c0,21.08,11.8,30.12,26.86,30.12,10.55,0,24.6-3.26,37.15-23.85,1.51,15.57,10.55,23.85,24.86,23.85,10.2,0,25.51-3.13,38.56-22.09,2.66,15.36,13.21,22.09,26.2,22.09,10.27,0,27-3.18,40.75-22.5,2.55,15.66,13.18,22.5,26.28,22.5,9,0,23.14-2.48,35.77-16.31l-3.14,14.81h36.15l17.07-80.59c3.77-12.55,10.54-23.09,19.58-23.09,6,0,9,4.52,9,12.8,0,16.07-11.3,46.94-11.3,64,0,14.31,6,28.37,25.36,28.37,13.3,0,25.35-7.78,27.61-25.85-1.5,1-4,1.5-8.28,1.5C1239.64,327.6,1237.13,323.33,1237.13,317.06ZM846.27,276.64c-4,29.62-16.82,52.22-29.12,52.22-9.54,0-12.8-3.77-12.8-20.34,0-24.6,15.56-70.54,33.39-70.54,6.52,0,9,4,9.53,14.56-4.51,2-7.78,6.53-7.78,13.56C839.49,271.12,841,275.39,846.27,276.64Zm270.11-65.27a19.93,19.93,0,0,0,20.08-19.83,20.14,20.14,0,0,0-20.08-20.08,19.93,19.93,0,0,0-19.84,20.08A19.72,19.72,0,0,0,1116.38,211.37Zm-400.14-49.2c-41.93,0-88.12,31.88-88.12,65.27,0,18.07,9.54,24.35,26.86,24.35-.25-2.26-3.51-4.27-3.51-17.07,0-38.16,24.35-61,65-61,22.09,0,31.13,15.56,31.13,34.14,0,26.86-18.58,59.74-43.94,61.75l17.83-83.85-37.16,5L650.21,350.45h36.15l15.32-71.55h1.25c45.19,0,72.55-35.4,72.55-67.28C775.48,185.76,757.41,162.17,716.24,162.17Zm643.88,84.6c0-12.55-5.27-24.09-27.61-24.09-51.46,0-67.77,60.49-67.77,89.35,0,28.37,15.56,39.91,38.9,39.91,20.08,0,38.15-8.53,43.42-37.15-8,7-20.08,13.31-29.61,13.31-8.79,0-15.57-5-15.57-20.84,0-2.25.26-5,.51-7.53C1332.51,298,1360.12,275.89,1360.12,246.77ZM1334.51,236c4.77,0,6.28,4,6.28,10.29,0,21.09-17.07,40.41-36.65,41.42C1309.41,263.84,1322,236,1334.51,236Zm267.11-72.56-54,153.64V163.42h-32.88l-52.72,153.64-2.26-154.39c-3.26-.25-6.53-.5-10-.5-41.93,0-88.12,31.88-88.12,65.27,0,18.07,9.54,24.35,26.86,24.35-.25-2.26-3.51-4.27-3.51-17.07,0-27.62,13.31-47.2,40.67-55.73V350.45h36.9l49.71-127.78V350.45h37.15l69.79-187Zm130,143.85c0-2.26.25-5,.5-7.53,30.13-1.76,57.74-23.85,57.74-53,0-12.55-5.27-24.1-27.61-24.1-49.94,0-66.78,57-67.74,86.72-11.37,12.38-23,21.47-41,21.47-12,0-18.07-4-18.07-21.08,0-3,.25-6.53.5-10,30.13-1.76,57.74-24.1,57.74-53,0-12.55-5.27-24.1-27.61-24.1-51.47,0-67.78,60.5-67.78,89.37,0,28.36,15.56,39.91,39.16,39.91,25.5,0,44-13.63,57.65-30.36,3.21,21.43,17.72,30.36,38.24,30.36,20.08,0,38.16-8.53,43.43-37.15-8,7-20.08,13.3-29.62,13.3C1738.43,328.1,1731.65,323.08,1731.65,307.27Zm32.64-71.3c4.77,0,6.27,4,6.27,10.29,0,21.09-17.07,40.42-36.65,41.43C1739.18,263.84,1751.73,236,1764.29,236Zm-96.15,0c4.77,0,6.28,4,6.28,10.29,0,20.84-17.07,40.17-36.4,41.43C1643,262.83,1655.34,236,1668.14,236Zm225.42,82.34a41.43,41.43,0,0,1,1.26-8l2.76-12.55a42.77,42.77,0,0,0,1-9.54c0-16.07-9-29.37-27.61-29.37a45.91,45.91,0,0,0-8.28,1l50.2-34.89H1888l-48.44,38.15,18.82-88.35-37.14,5-36.4,170.68H1821l13.06-62c7-5.77,12.8-9.29,18.57-9.29,6.53,0,9,4.77,9,12.05a41.6,41.6,0,0,1-1,9.29l-2,9.79a63.38,63.38,0,0,0-1.5,13.05c0,18.32,11,28.61,31.63,28.61,6.52,0,22.08-8,23.34-25.85-1.76.75-2.76,1.51-8.79,1.51C1895.57,327.6,1893.56,323.33,1893.56,318.31ZM540.23,233.08,558,150.48c-1.5-.12-3-.23-4.6-.23-19.22,0-40.38,14.61-40.38,29.91,0,8.28,4.37,11.16,12.31,11.16-.12-1-1.62-2-1.62-7.83,0-12.31,6.1-20.93,16.11-25.08l-17.14,79.73a21.36,21.36,0,0,1,2.65-.11c20.36,0,34.86,26.12,51.31,26.12,6.21,0,10.81-7,12-18.07a24.74,24.74,0,0,1-9.66,1.84C564.28,247.92,552.2,235.73,540.23,233.08Zm70.85-55.19H594.52L593.26,184v-.8c0-3.34-2.76-5.87-9.32-5.87-20,0-29.56,24.73-29.56,40.25,0,13.69,7.48,18.52,15.3,18.52,8.17,0,13.69-5.41,17.14-10.7.92,6.67,5.06,10.7,11.27,10.7s8.39-3.57,11.5-11.62a5.81,5.81,0,0,1-2.53.46c-3.22,0-4.72-1-4.72-4.25a16.18,16.18,0,0,1,.46-3.68ZM586.7,214.8c-1.38,6.67-6.21,10.12-9.54,10.12-2.07,0-5.75-.11-5.75-9,0-10.81,6.32-31.51,16.1-31.51a4.46,4.46,0,0,1,4.71,4.37Z"/><g id="artwork"><path class="cls-1" d="M443,176.18l-16.48-40.56a6.58,6.58,0,0,0-7.69-4l-21.6,4.86,6.32-15.54a6.54,6.54,0,0,0,.34-3.84l-4.44-22.71a6.65,6.65,0,0,0-7.86-5.29L355.09,96l-3.76-22.45a6.81,6.81,0,0,0-3.67-5l-19.55-9.73a6.8,6.8,0,0,0-6.15.08L297.11,72.52a6.83,6.83,0,0,0-3.41,7.17l-5.3-4.1a6.71,6.71,0,0,0-7-.68L259,85.93l-4.7-16.57a6.84,6.84,0,0,0-7.43-4.87l-39.19,6a6.61,6.61,0,0,0-5.55,5.38l-1.79,9.39-9-27.32a6.79,6.79,0,0,0-5-4.53l-39.28-8.11a6.67,6.67,0,0,0-8,5.55l-3.5,23.31a7.37,7.37,0,0,0,.51,3.85l6,13.4-.25.26c0-.09-.09-.09-.09-.17L131.81,77.9a6.77,6.77,0,0,0-6.75-2.73L100.39,80a6.88,6.88,0,0,0-5.21,4.78l-8.37,29-6.32-9.48a6.84,6.84,0,0,0-5.63-3l-19.81.34a6.7,6.7,0,0,0-6,3.84L36.43,131.86a6.65,6.65,0,0,0,.86,7.26l2.13,2.56-13.57-.6a6.79,6.79,0,0,0-6.92,5.9l-5.29,42A6.75,6.75,0,0,0,17,195.73l12.12,7c-.43.09-.85.26-1.19.34l-1.37.52a6.64,6.64,0,0,0-3,2l-.94,1.11c-4.1,4.95-5,13-2.56,25.95l.77,4.27a6.63,6.63,0,0,0,5.72,5.47L28.66,255c-7.08,7.85-10.92,16.82-10.92,25.7,0,13.4,7,21.94,19.46,23.91L38,309l-7.85,37.22a11,11,0,0,0,2.3,9.14,10.81,10.81,0,0,0,8.45,4.1h6l7.43,43.29a17,17,0,0,0,17,14.68H366.53a17,17,0,0,0,17-14.43l8.2-47.47c6.06-3.67,12.64-10.59,15-23.82a11.15,11.15,0,0,0-4.7-11.1,36.83,36.83,0,0,0,11.7-26.56c0-8-2.9-14.43-8.2-18.52l5.72-33a6.6,6.6,0,0,0,5.72-5.46l.77-4.27c2.39-13,1.63-21-2.56-26l-.43-.52L441.33,184A7,7,0,0,0,443,176.18Z"/><polygon class="cls-2" points="250.07 93.01 221.72 98.65 212.84 80.72 245.03 75.77 250.07 93.01"/><polygon class="cls-2" points="187.22 245.08 180.14 242.44 210.88 85.24 218.47 100.53 187.22 245.08"/><polygon class="cls-3" points="250.49 96.68 201.57 250.38 190.72 246.36 221.81 102.41 250.49 96.68"/><path class="cls-1" d="M247.76,71.67l6.92,24.25L203.87,255.33,176,244.91,208.57,77.64Zm-57,174.69,10.85,4,48.92-153.7-28.77,5.73Zm-10.58-3.92,7.08,2.64,31.17-144.55-7.6-15.29ZM221.72,98.65,250.07,93l-5-17.24-32.19,5Z"/><polygon class="cls-2" points="145.9 73.12 174.5 80.29 180.91 63.3 148.54 56.55 145.9 73.12"/><polygon class="cls-2" points="228.12 225.19 234.78 222.97 183.47 67.74 178 82.25 228.12 225.19"/><polygon class="cls-3" points="145.98 76.7 214.8 229.54 224.96 226.21 175.01 83.96 145.98 76.7"/><path class="cls-1" d="M145.39,52.37l-3.51,23.31,71.3,158.47,26-8.53L184.66,60.48ZM225,226.21l-10.16,3.33L146,76.62l29,7.26Zm9.82-3.24-6.66,2.13L178,82.17l5.38-14.52ZM174.5,80.29l-28.6-7.17,2.64-16.57,32.28,6.75Z"/><path class="cls-4" d="M196.62,142.37c-1-3-6.92-8-12.9-12s-20.83-5-20.83-5l5.29,27.83Z"/><path class="cls-1" d="M196.19,117.43c-2.73,3.25-9.05-2.05-11,5-.93,3.24,2.14,5.46,1.8,7.85s-4.95,4.95-5.47,10.59,4.44,11.1,9.4,10.93,7.34-2.73,10.92-6.83,4.44-3.93,11.28-3.25c7.17.77,14-8.19,14.08-14.09.09-5.2-3.92-13.32-13-6.4C207.2,126.57,203.28,108.89,196.19,117.43Z"/><polygon class="cls-2" points="339.21 75.17 318.89 89.6 305.57 80.38 326.06 68.76 339.21 75.17"/><polygon class="cls-3" points="351.85 219.64 345.1 220.32 305.31 83.96 317.69 93.1 351.85 219.64"/><polygon class="cls-2" points="341.86 77.39 365.59 218.19 355.18 219.3 321.11 93.27 341.86 77.39"/><path class="cls-1" d="M325.21,65.35l19.55,9.73,24.59,146-26.64,2.82L300.36,78.84Zm30,154,10.33-1.11L341.77,77.39,321.11,93.27Zm-10.08,1,6.83-.68L317.69,93.1l-12.38-9ZM318.89,89.6l20.32-14.43-13.15-6.41L305.57,80.38Z"/><polygon class="cls-2" points="393.34 116.32 365.93 122.73 359.02 106.16 390.01 100.19 393.34 116.32"/><polygon class="cls-2" points="320.6 262.76 314.02 260.54 356.8 110.43 362.69 124.61 320.6 262.76"/><polygon class="cls-3" points="393.43 119.74 333.74 267.2 323.75 263.87 365.68 126.31 393.43 119.74"/><path class="cls-1" d="M392.92,96.17l4.44,22.71L335.45,271.72l-25.61-8.79,45.34-159.67Zm-69.17,167.7,10,3.41,59.69-147.54-27.75,6.57Zm-9.64-3.33,6.48,2.22,42.1-138.15-5.89-14.18Zm51.82-137.81,27.33-6.41-3.33-16.13-31,6Z"/><path class="cls-4" d="M373.62,182.5c-10.42-6-12.72-16.31-24.85-18-10.42-1.54-14.43-13.58-27.32-7.51-5.3,2.47-7.34,23.39-7.34,23.39l19.8,3.67,21.86,6Z"/><polygon class="cls-2" points="398.55 147.66 409.14 177.63 431.42 176.69 417.93 143.39 398.55 147.66"/><polygon class="cls-3" points="288.15 287.18 294.72 292.64 428.26 180.96 409.31 181.73 288.15 287.18"/><polygon class="cls-2" points="394.71 149.11 274.91 276.33 284.99 284.62 405.55 179.59 394.71 149.11"/><path class="cls-1" d="M420.41,138.69l-27.15,6.15L268.94,276.76l25.87,21.18L436.89,179.25ZM285,284.62l-10.08-8.29,119.8-127.22,10.84,30.4Zm9.73,8-6.57-5.38L409.22,181.73l19-.77Zm114.5-115-10.67-30,19.38-4.18,13.49,33.3Z"/><path class="cls-4" d="M342,192.66c3.24,0,19.72,5.63,30.91,7.17,5.29.68,9.3,1.88,16.05,7.94,3.58,3.24-46.28,5-46.28,5Z"/><path class="cls-1" d="M273.29,116.07c-5.38,5.38-15.79-1-19.81,7s5.47,9.73,7.43,14.77-4,15.37,3.93,14.43,7.34-7.94,14.26-9,11.87.52,13.92-8.53,2.64-13.58-2.31-17.59S282,107.27,273.29,116.07Z"/><path class="cls-1" d="M287.38,112c-5.38,5.38-15.8-1-19.81,7s5.47,9.82,7.43,14.77-4,15.37,3.93,14.43,7.34-7.94,14.34-9,11.87.51,13.92-8.54,2.65-13.58-2.31-17.59S296.17,103.17,287.38,112Z"/><path class="cls-1" d="M378.66,149.45c-3.5,3.93-10.34-.77-13,5s3.58,7.09,4.86,10.67-2.64,11.19,2.57,10.42,4.78-5.72,9.39-6.49,7.77.34,9.05-6.23,1.71-9.82-1.54-12.72S384.38,143.05,378.66,149.45Z"/><path class="cls-1" d="M151.28,109.66c-5.38,5.38-15.8-1-19.81,7s5.46,9.82,7.43,14.78-4,15.37,3.92,14.34,7.35-7.94,14.35-9,11.87.51,13.92-8.54,2.64-13.58-2.31-17.59S160.07,100.87,151.28,109.66Z"/><path class="cls-4" d="M221.46,141.34c2-5,17.93-15,24.85-15s16.91-1,21.86,2.05,5,29.55,5,29.55l-26.9,10.58Z"/><path class="cls-1" d="M254.68,140c-2.14,2.31-6.49-.17-8,3.16s2.39,3.93,3.33,6-1.36,6.4,1.88,5.81,2.9-3.33,5.72-3.93,4.87,0,5.55-3.76.85-5.63-1.19-7.17S258.18,136.22,254.68,140Z"/><polygon class="cls-2" points="131.89 94.38 110.12 101.21 104.83 89.77 125.41 85.41 131.89 94.38"/><polygon class="cls-3" points="71.44 220.58 66.15 219.3 102.95 92.76 107.56 103.77 71.44 220.58"/><polygon class="cls-2" points="132.75 96.94 82.11 222.97 74.09 221.18 109.95 104.88 132.75 96.94"/><path class="cls-1" d="M126.43,82.25,136,95.83,83.48,226.55l-20.83-4.78,39-134.65ZM74.09,221.18l8.11,1.87L132.83,97,110.12,105Zm-7.94-1.88,5.29,1.19,36.12-116.72-4.61-11Zm44-118.09,21.77-6.83-6.48-9-20.58,4.36Z"/><polygon class="cls-2" points="70.76 111.37 62.05 136.39 47.36 134 57.52 111.71 70.76 111.37"/><polygon class="cls-3" points="150 249.78 145.13 253.96 48.9 137.75 62.73 140.49 150 249.78"/><polygon class="cls-2" points="73.83 112.31 159.9 241.24 152.39 247.73 65.55 138.86 73.83 112.31"/><path class="cls-1" d="M55.22,108.81,75,108.47l89.23,133.8L145,258.83,42.58,135.19Zm97.17,138.92,7.43-6.49L73.75,112.31,65.47,139ZM145.13,254l4.87-4.18L62.73,140.49,48.9,137.75ZM62.05,136.39l8.71-25-13.24.34L47.28,134Z"/><polygon class="cls-2" points="229.75 151.67 192.6 162.6 168.1 148.85 211.3 137.58 229.75 151.67"/><polygon class="cls-3" points="238.11 298.36 226.07 297.6 168.18 153.12 189.02 164.91 238.11 298.36"/><polygon class="cls-2" points="232.82 154.75 262.19 299.99 243.92 298.79 195.08 165.93 232.82 154.75"/><path class="cls-1" d="M159.82,147l61.81,153.69,47.05,3.16L238.2,153.12,212.41,133.4Zm35.26,19,37.65-11.18L262.19,300l-18.27-1.2Zm-26.9-12.81,20.92,11.79,49.1,133.45-12-.85Zm0-4.27,43.21-11.18,18.44,14-37.14,11Z"/><polygon class="cls-2" points="141.54 105.31 162.72 114.87 170.15 103.94 149.82 97.03 141.54 105.31"/><polygon class="cls-3" points="180.99 240.56 186.71 239.96 171.6 107.19 164.85 117.77 180.99 240.56"/><polygon class="cls-2" points="140.18 107.87 169.63 241.75 178.26 240.81 162.12 118.63 140.18 107.87"/><path class="cls-1" d="M149.31,93.7,137.1,106.33l30.57,138.84,22.2-2.39L173.82,101.55Zm28.95,147.11-8.63.94L140.18,107.87l21.94,10.76Zm8.45-.85-5.63.6L164.85,117.77l6.75-10.58Zm-24-125.09-21.18-9.48L149.83,97l20.32,6.91Z"/><path class="cls-1" d="M166.22,156.54c-3-.85-1.54-6.15-6.75-5.55-2.39.26-2.9,2.73-4.52,3.16s-4.78-1.71-8.63-.6-5.8,5.64-4.18,8.71,4.1,3.84,7.94,5,3.93,1.71,5.72,6.15c1.8,4.61,9.82,6.57,13.66,5,3.42-1.36,7.43-6,0-9.73C163.74,165.76,174,158.76,166.22,156.54Z"/><path class="cls-1" d="M96.29,133.57c-2.73,3.25-9.05-2-11,5-.93,3.25,2.14,5.47,1.8,7.86s-4.95,5-5.47,10.59S86,168.07,91,167.9s7.34-2.65,10.92-6.84,4.44-3.92,11.28-3.24c7.17.77,14-8.2,14.08-14.09.09-5.21-3.92-13.32-13-6.4C107.22,142.71,103.38,125.12,96.29,133.57Z"/><polygon class="cls-2" points="278.07 140.32 287.55 166.53 310.09 170.8 297.88 141.25 278.07 140.32"/><polygon class="cls-3" points="160.5 226.81 166.9 232.53 306.68 173.53 287.47 169.86 160.5 226.81"/><polygon class="cls-2" points="274.23 140.66 147.52 215.2 157.34 223.99 283.79 167.3 274.23 140.66"/><path class="cls-1" d="M300.61,138.1l-27.75-1.2-131.4,77.27,25.19,22.63L315.47,174ZM157.34,224l-9.73-8.79,126.62-74.54,9.56,26.64Zm9.56,8.54-6.4-5.8,127.05-57,19.21,3.68Zm120.65-66-9.48-26.3,19.81.94,12.21,29.54Z"/><polygon class="cls-2" points="294.89 93.18 272.61 107.27 262.62 96.17 284.31 85.16 294.89 93.18"/><polygon class="cls-3" points="271.93 251.23 265.52 251.57 261.51 100.1 270.73 110.94 271.93 251.23"/><polygon class="cls-2" points="296.77 95.75 284.9 250.72 275.08 251.15 273.89 111.46 296.77 95.75"/><path class="cls-1" d="M284.31,81.4,300,93.53,287.72,254.3l-25.27,1-4.36-161Zm-9.23,169.75,9.82-.43,11.87-155-22.88,15.71Zm-9.56.42,6.41-.25-1.2-140.38-9.22-10.84Zm7.09-144.3,22.2-14.17-10.5-8-21.69,11Z"/><polygon class="cls-2" points="205.41 121.79 227.01 129.73 233.16 118.46 212.67 113.08 205.41 121.79"/><polygon class="cls-3" points="257.07 252.25 262.62 251.23 234.87 121.53 229.32 132.46 257.07 252.25"/><polygon class="cls-2" points="204.39 124.35 246.05 254.22 254.42 252.68 226.84 133.49 204.39 124.35"/><path class="cls-1" d="M211.9,109.83l-10.76,13.24,43.29,134.65,21.43-3.84-29.28-138Zm42.52,142.85-8.37,1.54L204.3,124.43l22.46,9.14Zm8.2-1.45-5.55,1-27.75-119.8,5.55-10.93ZM227,129.73l-21.6-7.94,7.26-8.8,20.49,5.38Z"/><path class="cls-4" d="M144.87,169.94c5.47-1,16.57-7.59,22.89-9.05a68.07,68.07,0,0,1,32.36,1.54c8,2.56,3.5,18,3.5,18l-2.48,15L157.42,192Z"/><path class="cls-4" d="M128.14,162c-3.76-.76-16.91-9-31.42-5-11.19,3-15,15.79-23.14,19.55-7.35,3.33,18.61,17.33,18.61,17.33l34.33-11.27Z"/><polygon class="cls-2" points="47.45 153.12 44.97 183.86 24.74 186.94 29.01 152.44 47.45 153.12"/><polygon class="cls-3" points="179.45 268.39 174.76 274.8 28.58 190.52 45.83 187.88 179.45 268.39"/><polygon class="cls-2" points="51.21 153.89 188.76 255.59 181.67 265.32 48.64 185.14 51.21 153.89"/><path class="cls-1" d="M25.68,148.26l25.87,1.11L194.23,254.82l-18.19,25L20.38,190.27Zm156,117.06,7.09-9.73L51.21,153.89l-2.57,31.25Zm-6.91,9.39,4.61-6.4L45.83,187.88l-17.25,2.56ZM45,183.86,47.45,153,29,152.36l-4.27,34.49Z"/><polygon class="cls-2" points="153.24 138.86 124.98 153.72 108.41 137.84 141.12 122.47 153.24 138.86"/><polygon class="cls-3" points="144.96 318 136.25 317.49 108.07 143.13 122.16 156.71 144.96 318"/><polygon class="cls-2" points="155.12 142.62 162.38 319.11 149.14 318.26 126.52 157.65 155.12 142.62"/><path class="cls-1" d="M142.4,117.26l16.82,23.23,7.51,183.06-34.07-2.05L102.61,136Zm6.74,201,13.24.77-7.26-176.49-28.69,15.11Zm-12.89-.77L145,318l-22.8-161.29-14.09-13.58ZM125,153.72l28.26-14.86-12.12-16.39-32.71,15.37Z"/><path class="cls-4" d="M78.61,196.58c-3.5,0-14.6,3.42-16.56,5.47s-5.64,6.06-6.06,8,20.83,2,20.83,2Z"/><polygon class="cls-2" points="113.37 183.52 90.48 200.43 76.31 188.05 102.78 170.12 113.37 183.52"/><polygon class="cls-3" points="112.51 346.61 105.34 347.2 76.14 192.83 88.26 203.41 112.51 346.61"/><polygon class="cls-2" points="114.99 186.68 127.03 345.41 116.01 346.26 91.85 203.76 114.99 186.68"/><path class="cls-1" d="M103.63,165.25l14.69,18.95,12.46,164.63-28.26,2.3L71.36,187Zm12.38,181,10.93-.85L115,186.68,91.85,203.84Zm-10.67.86,7.17-.6L88.26,203.42,76.14,192.83ZM90.48,200.43l22.8-16.91-10.5-13.4L76.31,188Z"/><path class="cls-4" d="M89.63,210.33c20.49-2.22,41.75-30.05,59.68-17.33,27.33,19.64,10.42,24.08,10.42,24.08l-70.1-6.75"/><polygon class="cls-2" points="323.93 142.28 296.43 149.2 287.89 132.29 319.14 125.89 323.93 142.28"/><polygon class="cls-2" points="261.94 292.9 255.1 290.68 285.93 136.73 293.19 151.16 261.94 292.9"/><polygon class="cls-3" points="324.27 145.87 275.77 297.34 265.26 294.01 296.43 152.87 324.27 145.87"/><path class="cls-1" d="M321.79,121.7l6.49,23.14L278,302l-27-8.62,32.78-163.86ZM265.27,294l10.5,3.41L324.27,146l-27.84,7ZM255,290.68l6.83,2.22L293.1,151.16l-7.26-14.43ZM296.35,149.2l27.49-6.92-4.78-16.39-31.17,6.4Z"/><polygon class="cls-2" points="299.42 188.64 273.8 179.76 274.83 163.11 297.88 173.87 299.42 188.64"/><polygon class="cls-3" points="168.78 282.65 164.17 277.27 271.24 164.99 269.79 180.7 168.78 282.65"/><polygon class="cls-2" points="298.82 192.15 178.17 293.41 171 285.3 271.58 183.78 298.82 192.15"/><path class="cls-1" d="M300.61,171.14l2.05,22.2-125.17,105-18.27-21,113.9-119.54ZM171,285.3l7.09,8.11L298.82,192.14l-27.24-8.36Zm-6.83-8,4.61,5.38,101-101.95L271.24,165ZM273.8,179.76l25.62,9-1.54-14.86-23.05-10.76Z"/><path class="cls-4" d="M227.18,186.68c6-2.05,4.87-8.62,15.29-8.62,10.84,0,11.95,13.15,22.37,16.56,5.12,1.62,19,2.65,18.27,17.08-.6,11.1-57.63,8-57.63,8Z"/><path class="cls-1" d="M312.48,161.24c-5.38,5.37-15.79-1-19.81,7S298.14,178,300.1,183s-4,15.37,3.93,14.34,7.34-7.94,14.34-9,11.87.42,13.92-8.54,2.65-13.58-2.3-17.59S321.19,152.36,312.48,161.24Z"/><path class="cls-1" d="M217.36,145.44c-5.37,5.38-15.79-1-19.8,7s5.46,9.82,7.42,14.77-4,15.37,3.93,14.35,7.34-7.94,14.26-9,11.87.51,13.92-8.54,2.65-13.66-2.31-17.67S226.16,136.56,217.36,145.44Z"/><path class="cls-1" d="M146,164c-2.22,3-9-2.05-10.16,4.44-.51,3,2.65,5.12,2.65,7.34s-4.27,4.61-4.1,9.82S139.92,196,144.7,196s6.83-2.39,9.82-6.24,3.84-3.58,10.59-2.9c7,.77,12.64-7.51,12.12-13-.51-4.86-5.38-12.46-13.32-6.15C157.68,172.59,151.87,156.11,146,164Z"/><polygon class="cls-2" points="353.3 194.28 322.64 195.82 317.01 176.01 351.5 175.75 353.3 194.28"/><polygon class="cls-2" points="257.24 341.4 250.41 337.64 314.11 180.28 318.89 197.18 257.24 341.4"/><polygon class="cls-3" points="352.96 198.12 271.07 349.08 260.57 343.28 321.96 199.66 352.96 198.12"/><path class="cls-1" d="M355.09,171.91l2.22,26L272.44,354.46l-26.9-14.94,67.63-167.36ZM260.57,343.28l10.5,5.8,81.89-151-31,1.54Zm-10.16-5.64,6.83,3.84L318.8,197.27,314,180.45Zm72.23-141.82,30.57-1.54-1.79-18.53-34.5.26Z"/><polygon class="cls-2" points="187.14 165.68 215.49 173.36 221.81 156.62 189.78 149.37 187.14 165.68"/><polygon class="cls-2" points="268.51 317.92 275.08 315.87 224.37 161.15 218.99 175.41 268.51 317.92"/><polygon class="cls-3" points="187.22 169.26 255.28 322.01 265.35 318.94 216 177.03 187.22 169.26"/><path class="cls-1" d="M186.63,145.18l-3.5,23,70.61,158.39,25.78-7.94L225.56,154Zm78.72,173.76L255.28,322,187.22,169.26,216,177Zm9.73-3.07-6.57,2.05L219,175.41l5.38-14.26Zm-59.59-142.6-28.35-7.59,2.65-16.31,32,7.25Z"/><polygon class="cls-2" points="170.23 179.34 168.18 208.03 150.34 213.75 154.95 186.85 170.23 179.34"/><polygon class="cls-3" points="307.87 268.74 303.6 275.39 153.33 216.48 170.4 211.53 307.87 268.74"/><polygon class="cls-3" points="174.07 178.48 316.58 255.16 310.01 265.4 173.13 208.54 174.07 178.48"/><path class="cls-1" d="M151.28,185.31l23-11.1L322,253.79l-16.91,26.39L145.21,217.5ZM310,265.4l6.57-10.24L174.07,178.48l-.93,30.06Zm-6.41,10,4.27-6.74L170.4,211.53l-17.07,4.95ZM168.18,208l2-28.69-15.29,7.51-4.61,26.9Z"/><path class="cls-1" d="M217.88,196.67c2.13,1.79-5.64,4.7-2.56,6.23s4.35-.51,6.4-.25,3.33,4.18,7.17,2.56,6.75-2.56,4.61-6.49c-2.56-4.7-6.91-.17-8.71-3.42C222.06,190.44,213.27,192.74,217.88,196.67Z"/><path class="cls-1" d="M37,179.08c2.56,3.93-3.58,6.75,1,10.76s7.51.26,11.18.77,9.48,6.06,10.25,2.22-3.93-5.47-3.25-8.88,2.48-5.13-3.16-8.54-8.53-4.95-12.12-3.84S32.85,172.76,37,179.08Z"/><path class="cls-5" d="M330.33,211.87c-40.13-.68-86.24-1.11-111.09-1.11h-.77c-24.84,0-70.95.43-111.08,1.11-34.84.6-70.87,1.54-75.65,3.07-.43.51-2.22,3.5.08,16.05h.43a5.23,5.23,0,0,1,5.12,4.44L66.06,401.51A5.16,5.16,0,0,0,71.19,406H366.53a5.15,5.15,0,0,0,5.12-4.44l28.61-166a5.15,5.15,0,0,1,5.12-4.44h.43c2.3-12.55.51-15.54.08-16.05C401.2,213.32,365.08,212.47,330.33,211.87Z"/><path class="cls-6" d="M330.33,211.87c-40.13-.68-86.24-1.11-111.09-1.11h-.77c-24.84,0-70.95.43-111.08,1.11-34.84.6-70.87,1.54-75.65,3.07-.43.51-2.22,3.5.08,16.05h.43a5.23,5.23,0,0,1,5.12,4.44L66.06,401.51A5.16,5.16,0,0,0,71.19,406H366.53a5.15,5.15,0,0,0,5.12-4.44l28.61-166a5.15,5.15,0,0,1,5.12-4.44h.43c2.3-12.55.51-15.54.08-16.05C401.2,213.32,365.08,212.47,330.33,211.87Z"/><path class="cls-7" d="M220.69,230.14h-3.75c-63.78.17-125.86,1.54-168.55,3.5,0,0,17.93,111.34,61.13,128.68,20.75,8.28,65.41,11.61,109.3,11.18,43.88.43,88.45-2.9,109.29-11.18,43.2-17.34,61.13-128.68,61.13-128.68C346.64,231.68,284.48,230.31,220.69,230.14Z"/><path class="cls-8" d="M133.77,267.54c5.72,1.28,11.53,7.17,18.53,7.17a11.91,11.91,0,0,0,4.61-.85c-.51,5.29-2.73,8.71-5.72,8.71-7.85,0-14.86-12.64-24.59-12.64a6.13,6.13,0,0,0-1.28.09l8.2-38.51c-4.78,2-7.69,6.14-7.69,12.12a7.32,7.32,0,0,0,.77,3.76c-3.76,0-5.89-1.37-5.89-5.38,0-7.34,10.16-14.43,19.3-14.43.76,0,1.45.08,2.22.08Z"/><path class="cls-8" d="M167.67,240.9l-4,18.87a6.4,6.4,0,0,0-.17,1.79c0,1.54.68,2.05,2.22,2.05a2.73,2.73,0,0,0,1.19-.25c-1.45,3.84-2.56,5.63-5.46,5.63s-4.95-2-5.38-5.12c-1.62,2.56-4.27,5.12-8.2,5.12-3.76,0-7.34-2.3-7.34-9,0-7.52,4.61-19.47,14.17-19.47,3.16,0,4.44,1.19,4.44,2.82v.42l.6-3Zm-18.95,18.36c0,4.27,1.79,4.35,2.73,4.35,1.62,0,3.93-1.71,4.61-4.87l2.65-12.55a2.17,2.17,0,0,0-2.14-2.13h-.08C151.7,244.06,148.72,254.05,148.72,259.26Z"/><path class="cls-8" d="M79.81,258.23l-9.73,46.2c13.83-1.11,24-19.22,24-34.07,0-10.25-4.95-18.87-17-18.87-22.2,0-35.52,12.63-35.52,33.64,0,7.09,1.79,8.2,1.88,9.39-9.48,0-14.69-3.5-14.69-13.4,0-18.45,25.27-36,48.16-36,22.54,0,32.36,13,32.36,27.24,0,17.59-14.94,37.14-39.71,37.14h-.68l-8.37,39.45H40.87l18.7-88Z"/><path class="cls-8" d="M146.84,303a4,4,0,0,0,1.45.26c6,0,14.51-3.93,20.06-7.86l1.2,3.59c-5,5.38-13.58,9.39-23.14,10.93-2,24.33-15.11,39.62-31.17,39.62-12.12,0-20.91-5.81-20.91-20.84s8.88-46.79,35.77-46.79C141.37,281.88,146.84,289.14,146.84,303Zm-11.27,7.26c-2.74-.68-3.5-2.9-3.5-5.55,0-3.67,1.7-6.06,4-7.09-.26-5.55-1.54-7.59-5-7.59-9.31,0-17.34,24.07-17.34,37,0,8.71,1.71,10.67,6.66,10.67C126.86,337.64,133.52,325.77,135.57,310.23Z"/><path class="cls-8" d="M213.35,283.08,204,327.82a17.64,17.64,0,0,0-.51,4.18c0,3.68,1.7,4.87,5.38,4.87,5.12,0,8.62-5,10.58-11.61h5.47c-7.43,21.43-19.21,24.33-26.21,24.33-7.43,0-12.13-4.35-12.9-12.55-6.49,10.76-13.83,12.55-19.29,12.55-7.86,0-14-4.69-14-15.79a47.79,47.79,0,0,1,1-8.54L162.38,283h18.78l-9.39,44.75a26.8,26.8,0,0,0-.43,3.67c0,3,1,5.38,3.93,5.38,5.12,0,8.45-5,10.42-11.62l8.88-42.26Z"/><path class="cls-8" d="M251.52,262.33l-4.44,20.83h7.85l-1,5.3H246L237.6,328a17.66,17.66,0,0,0-.51,4.19c0,3.67,1.71,4.86,5.38,4.86,5.12,0,9.82-5,11.78-11.61h5.47c-7.43,21.43-20.41,24.33-27.41,24.33-7.86,0-14-4.69-14-15.79a47.9,47.9,0,0,1,1-8.54l7.85-37.06h-4.27l1-5.29h4.27l3.93-18.19Z"/><path class="cls-8" d="M281.92,283.08l-9.4,44.74A17.64,17.64,0,0,0,272,332c0,3.68,1.71,4.87,5.38,4.87,5.12,0,9.82-5,11.78-11.61h5.47c-7.43,21.52-20.41,24.33-27.41,24.33-7.86,0-14-4.69-14-15.79a46.89,46.89,0,0,1,1-8.54L263.13,283Zm-5.9-28A10.46,10.46,0,0,1,276,276h0a10.29,10.29,0,0,1-10.33-10.24v-.17A10.41,10.41,0,0,1,276,255.07Z"/><path class="cls-8" d="M322,294.52c-4.7,0-8.2,5.55-10.16,12.13l-8.88,42.26H284.14L298,283.08h18.78l-1.45,6.83c5.47-6.32,11.19-7.34,15.28-7.34,8.37,0,14.52,4.35,14.52,14.85,0,10.68-6.23,26.64-6.23,34,0,3.33,1.28,5.55,5.21,5.55,5.72,0,8.11-4.7,10.92-11.62h5.47c-7.34,21.61-17.33,24.34-24.25,24.34-11.36,0-15.37-7.34-15.37-14.86,0-9,5.89-25.19,5.89-33.55C326.66,296.91,325,294.52,322,294.52Z"/><path class="cls-8" d="M380.53,337.21c5,0,11.19-3.33,15.37-7-2.73,15-12.12,19.47-22.54,19.47-12.12,0-20.23-6.06-20.23-20.92,0-15.11,8.45-46.88,35.26-46.88,11.61,0,14.34,6.07,14.34,12.64,0,15.28-14.34,26.9-30,27.75-.08,1.28-.25,2.73-.25,3.93C372.42,334.57,375.92,337.21,380.53,337.21Zm8.88-48.32c-6.48,0-13.06,14.6-15.79,27.15,10.16-.51,19-10.68,19-21.69C392.66,291,391.89,288.89,389.41,288.89Z"/><path class="cls-8" d="M266.8,387.59l11.61-34h7.26v34l11.87-34h3.84L286.1,395H278V366.76L267.06,395H259V357.11c-6,1.88-8.88,6.23-8.88,12.29a7.22,7.22,0,0,0,.77,3.76c-3.85,0-5.9-1.37-5.9-5.38,0-7.34,10.16-14.43,19.3-14.43.77,0,1.45.09,2.22.09Z"/><path class="cls-8" d="M305.65,390.58c4.36,0,7-2.48,9.74-5.64h1.87c-3.15,5.13-7.77,10.25-15.11,10.25-5.21,0-8.62-2.56-8.62-8.8s3.58-19.8,14.85-19.8c5,0,6.07,2.56,6.07,5.29,0,6.4-6.07,11.36-12.64,11.7a19,19,0,0,0-.09,2.22C301.64,389.72,303,390.58,305.65,390.58Zm3.16-21c-2.82,0-5.46,6-6.57,11.45,4.27-.26,8-4.53,8-9.14-.08-1.37-.34-2.31-1.45-2.31Z"/><path class="cls-8" d="M326.74,390.58c4.36,0,7-2.48,9.74-5.64h1.87c-3.15,5.13-7.85,10.25-15.11,10.25-5.21,0-8.62-2.56-8.62-8.8s3.58-19.8,14.85-19.8c4.87,0,6.07,2.56,6.07,5.29,0,6.4-6.07,11.36-12.64,11.7a19,19,0,0,0-.09,2.22C322.81,389.72,324.1,390.58,326.74,390.58Zm3.25-21c-2.82,0-5.55,6-6.58,11.45,4.27-.26,8-4.53,8-9.14-.09-1.37-.43-2.31-1.45-2.31Z"/><path class="cls-8" d="M362.52,367.18l-11,7.69a12.18,12.18,0,0,1,1.8-.17c4.1,0,6.06,2.9,6.06,6.49a9.13,9.13,0,0,1-.26,2.13l-.59,2.82a6.15,6.15,0,0,0-.26,1.79c0,1.11.43,2.05,2.13,2.05a3.3,3.3,0,0,0,1.88-.34,6.06,6.06,0,0,1-5.12,5.72c-4.53,0-6.92-2.31-6.92-6.32a11.49,11.49,0,0,1,.34-2.9L351,384a8.41,8.41,0,0,0,.26-2.05c0-1.62-.51-2.64-2-2.64-1.28,0-2.56.77-4.09,2.05l-2.91,13.74h-7.94l8-37.74,8.11-1.11-4.1,19.56L357,367.35h5.55Z"/><path class="cls-9" d="M133.77,267.54c5.72,1.28,11.53,7.17,18.53,7.17a11.91,11.91,0,0,0,4.61-.85c-.51,5.29-2.73,8.71-5.72,8.71-7.85,0-14.86-12.64-24.59-12.64a6.13,6.13,0,0,0-1.28.09l8.2-38.51c-4.78,2-7.69,6.14-7.69,12.12a7.32,7.32,0,0,0,.77,3.76c-3.76,0-5.89-1.37-5.89-5.38,0-7.34,10.16-14.43,19.3-14.43.76,0,1.45.08,2.22.08Z"/><path class="cls-9" d="M167.67,240.9l-4,18.87a6.4,6.4,0,0,0-.17,1.79c0,1.54.68,2.05,2.22,2.05a2.73,2.73,0,0,0,1.19-.25c-1.45,3.84-2.56,5.63-5.46,5.63s-4.95-2-5.38-5.12c-1.62,2.56-4.27,5.12-8.2,5.12-3.76,0-7.34-2.3-7.34-9,0-7.52,4.61-19.47,14.17-19.47,3.16,0,4.44,1.19,4.44,2.82v.42l.6-3Zm-18.95,18.36c0,4.27,1.79,4.35,2.73,4.35,1.62,0,3.93-1.71,4.61-4.87l2.65-12.55a2.17,2.17,0,0,0-2.14-2.13h-.08C151.7,244.06,148.72,254.05,148.72,259.26Z"/><path class="cls-9" d="M79.81,258.23l-9.73,46.2c13.83-1.11,24-19.22,24-34.07,0-10.25-4.95-18.87-17-18.87-22.2,0-35.52,12.63-35.52,33.64,0,7.09,1.79,8.2,1.88,9.39-9.48,0-14.69-3.5-14.69-13.4,0-18.45,25.27-36,48.16-36,22.54,0,32.36,13,32.36,27.24,0,17.59-14.94,37.14-39.71,37.14h-.68l-8.37,39.45H40.87l18.7-88Z"/><path class="cls-9" d="M146.84,303a4,4,0,0,0,1.45.26c6,0,14.51-3.93,20.06-7.86l1.2,3.59c-5,5.38-13.58,9.39-23.14,10.93-2,24.33-15.11,39.62-31.17,39.62-12.12,0-20.91-5.81-20.91-20.84s8.88-46.79,35.77-46.79C141.37,281.88,146.84,289.14,146.84,303Zm-11.27,7.26c-2.74-.68-3.5-2.9-3.5-5.55,0-3.67,1.7-6.06,4-7.09-.26-5.55-1.54-7.59-5-7.59-9.31,0-17.34,24.07-17.34,37,0,8.71,1.71,10.67,6.66,10.67C126.86,337.64,133.52,325.77,135.57,310.23Z"/><path class="cls-9" d="M213.35,283.08,204,327.82a17.64,17.64,0,0,0-.51,4.18c0,3.68,1.7,4.87,5.38,4.87,5.12,0,8.62-5,10.58-11.61h5.47c-7.43,21.43-19.21,24.33-26.21,24.33-7.43,0-12.13-4.35-12.9-12.55-6.49,10.76-13.83,12.55-19.29,12.55-7.86,0-14-4.69-14-15.79a47.79,47.79,0,0,1,1-8.54L162.38,283h18.78l-9.39,44.75a26.8,26.8,0,0,0-.43,3.67c0,3,1,5.38,3.93,5.38,5.12,0,8.45-5,10.42-11.62l8.88-42.26Z"/><path class="cls-9" d="M251.52,262.33l-4.44,20.83h7.85l-1,5.3H246L237.6,328a17.66,17.66,0,0,0-.51,4.19c0,3.67,1.71,4.86,5.38,4.86,5.12,0,9.82-5,11.78-11.61h5.47c-7.43,21.43-20.41,24.33-27.41,24.33-7.86,0-14-4.69-14-15.79a47.9,47.9,0,0,1,1-8.54l7.85-37.06h-4.27l1-5.29h4.27l3.93-18.19Z"/><path class="cls-9" d="M281.92,283.08l-9.4,44.74A17.64,17.64,0,0,0,272,332c0,3.68,1.71,4.87,5.38,4.87,5.12,0,9.82-5,11.78-11.61h5.47c-7.43,21.52-20.41,24.33-27.41,24.33-7.86,0-14-4.69-14-15.79a46.89,46.89,0,0,1,1-8.54L263.13,283Zm-5.9-28A10.46,10.46,0,0,1,276,276h0a10.29,10.29,0,0,1-10.33-10.24v-.17A10.41,10.41,0,0,1,276,255.07Z"/><path class="cls-9" d="M322,294.52c-4.7,0-8.2,5.55-10.16,12.13l-8.88,42.26H284.14L298,283.08h18.78l-1.45,6.83c5.47-6.32,11.19-7.34,15.28-7.34,8.37,0,14.52,4.35,14.52,14.85,0,10.68-6.23,26.64-6.23,34,0,3.33,1.28,5.55,5.21,5.55,5.72,0,8.11-4.7,10.92-11.62h5.47c-7.34,21.61-17.33,24.34-24.25,24.34-11.36,0-15.37-7.34-15.37-14.86,0-9,5.89-25.19,5.89-33.55C326.66,296.91,325,294.52,322,294.52Z"/><path class="cls-9" d="M380.53,337.21c5,0,11.19-3.33,15.37-7-2.73,15-12.12,19.47-22.54,19.47-12.12,0-20.23-6.06-20.23-20.92,0-15.11,8.45-46.88,35.26-46.88,11.61,0,14.34,6.07,14.34,12.64,0,15.28-14.34,26.9-30,27.75-.08,1.28-.25,2.73-.25,3.93C372.42,334.57,375.92,337.21,380.53,337.21Zm8.88-48.32c-6.48,0-13.06,14.6-15.79,27.15,10.16-.51,19-10.68,19-21.69C392.66,291,391.89,288.89,389.41,288.89Z"/><path class="cls-9" d="M266.8,387.59l11.61-34h7.26v34l11.87-34h3.84L286.1,395H278V366.76L267.06,395H259V357.11c-6,1.88-8.88,6.23-8.88,12.29a7.22,7.22,0,0,0,.77,3.76c-3.85,0-5.9-1.37-5.9-5.38,0-7.34,10.16-14.43,19.3-14.43.77,0,1.45.09,2.22.09Z"/><path class="cls-9" d="M305.65,390.58c4.36,0,7-2.48,9.74-5.64h1.87c-3.15,5.13-7.77,10.25-15.11,10.25-5.21,0-8.62-2.56-8.62-8.8s3.58-19.8,14.85-19.8c5,0,6.07,2.56,6.07,5.29,0,6.4-6.07,11.36-12.64,11.7a19,19,0,0,0-.09,2.22C301.64,389.72,303,390.58,305.65,390.58Zm3.16-21c-2.82,0-5.46,6-6.57,11.45,4.27-.26,8-4.53,8-9.14-.08-1.37-.34-2.31-1.45-2.31Z"/><path class="cls-9" d="M326.74,390.58c4.36,0,7-2.48,9.74-5.64h1.87c-3.15,5.13-7.85,10.25-15.11,10.25-5.21,0-8.62-2.56-8.62-8.8s3.58-19.8,14.85-19.8c4.87,0,6.07,2.56,6.07,5.29,0,6.4-6.07,11.36-12.64,11.7a19,19,0,0,0-.09,2.22C322.81,389.72,324.1,390.58,326.74,390.58Zm3.25-21c-2.82,0-5.55,6-6.58,11.45,4.27-.26,8-4.53,8-9.14-.09-1.37-.43-2.31-1.45-2.31Z"/><path class="cls-9" d="M362.52,367.18l-11,7.69a12.18,12.18,0,0,1,1.8-.17c4.1,0,6.06,2.9,6.06,6.49a9.13,9.13,0,0,1-.26,2.13l-.59,2.82a6.15,6.15,0,0,0-.26,1.79c0,1.11.43,2.05,2.13,2.05a3.3,3.3,0,0,0,1.88-.34,6.06,6.06,0,0,1-5.12,5.72c-4.53,0-6.92-2.31-6.92-6.32a11.49,11.49,0,0,1,.34-2.9L351,384a8.41,8.41,0,0,0,.26-2.05c0-1.62-.51-2.64-2-2.64-1.28,0-2.56.77-4.09,2.05l-2.91,13.74h-7.94l8-37.74,8.11-1.11-4.1,19.56L357,367.35h5.55Z"/><path class="cls-1" d="M58.72,75.42a37.17,37.17,0,0,0-7.17-2.81c2.56-2.39,7.68-7.18,11.61-11.1a137.79,137.79,0,0,0-4.44,13.91m181.44-44a9.21,9.21,0,0,0-5.89-7.95c-2.65-.93-5.81-.34-9.22,1.54v-.17a32.05,32.05,0,0,1,1.45-3.33c.51-1,1-2.05,1.54-3.16.85-1.88,3.41-7.77-.6-13.4A9.67,9.67,0,0,0,220.35.54c-1.88-.17-4.95.34-8,3.5a13.57,13.57,0,0,0-2.91,4.87A6.76,6.76,0,0,0,207.8,7.8a9.14,9.14,0,0,0-9.05.77c-1,.68-2.73,1.79-5.38,7.43a12.84,12.84,0,0,0-1.11,1.28,14,14,0,0,0-13.32-1.45,22.73,22.73,0,0,0-10.24,7.68c-.26-.34-.52-.6-.77-.94a8.58,8.58,0,0,0-8.46-2c-3.41.94-6.57,4-10.58,10.5A9.53,9.53,0,0,0,144,27.27c-2.39-.86-6.83-1.45-10.76,3.58a10.43,10.43,0,0,0-9.48.52h0a1.68,1.68,0,0,0-.68.34,26.5,26.5,0,0,0-8,5.72,10.9,10.9,0,0,0-.94,1,10.78,10.78,0,0,0-2.64-1.71c-3.16-1.28-7.17-.25-11.53,3.08a7.5,7.5,0,0,0-4.95-2,8.23,8.23,0,0,0-3.76.6,14.4,14.4,0,0,0-.68-3.24,7.49,7.49,0,0,0-4-4.36,9.76,9.76,0,0,0-2-.51c.85-4.95-1-8.79-3.08-10.59-4.27-3.67-9.22-1.53-12.21-.25C65.89,21,62.9,25.3,56.76,35.29c-1.2,1.88-2.57,4.1-4.19,6.58-2-9.14-9-10.76-11.27-11.1-3.41-.43-8.45.51-20.49,10.93C17.05,45,9.37,52.28,6.81,55.27a14.81,14.81,0,0,0-2.39,4.44c-.6.69-1.2,1.28-1.63,1.8A10,10,0,0,0,.57,69.79a7.76,7.76,0,0,0,4,5.29c4,2.14,7.68.34,10.67-2.22,5.29-.94,9.56-6.15,11.7-8.79a6.44,6.44,0,0,0,.59-.77c.43-.6.94-1.11,1.46-1.71-.09.77-.26,1.62-.35,2.56a10.17,10.17,0,0,1-.51,2.48l-.08.17c-.17.09-.6.26-1,.51-1.88.86-4.69,2.14-6.4,5a9,9,0,0,0-1.11,3.24,8.17,8.17,0,0,0-2.65,2.74,7,7,0,0,0-.68,5.38,7.51,7.51,0,0,0,3.93,4.44,9.7,9.7,0,0,0,2.22.76,15.93,15.93,0,0,1-.52,2.91c-.25.94-.76,2.3-1.28,3.93-.85,2.47-2,5.55-2.81,8.79-.35,1.28-.86,2.9-1.37,4.61-1.45,4.61-2.31,7.6-2.31,9.39,0,4.7.77,9.57,6.32,10.76,2.48.6,5.89-.68,8.11-3a12,12,0,0,0,7.69-4.61c2.56-3.41,5.63-13.15,6.66-19.55l.68-3.93.17-.77a32.6,32.6,0,0,1,3.59,3.25c2.9,2.9,10.42,9.39,14,12.55l1.54,1.28c3,2.56,8,1.71,10.67-.6a4.92,4.92,0,0,0,.94-.94,10.83,10.83,0,0,0,5.72-2.56,10.39,10.39,0,0,0,3.76-9.13c-.17-2.22-1.79-5.13-5-8.71a5.7,5.7,0,0,0,2.9.34,8.71,8.71,0,0,0,5.38-3h.26A11.5,11.5,0,0,0,95,85.07a7.42,7.42,0,0,0,1-2c2,1,4.7,1.37,8.46.34a13.2,13.2,0,0,0,5.12-2.9,2.67,2.67,0,0,1,.85-.17,10.2,10.2,0,0,0,3-1.28,7.31,7.31,0,0,0,1.88.51,8.73,8.73,0,0,0-3.42,5,4.53,4.53,0,0,0-.17,1A6.82,6.82,0,0,0,108.41,90,7.45,7.45,0,0,0,110,96.51c3,4,9.82,3.33,14.68.26a17.9,17.9,0,0,0,1.54-1.2,21,21,0,0,0,5-2.13c5.12-3.24,8.2-10.16,9.31-15.54.34-1.71.77-5,1.11-7.86a5.66,5.66,0,0,0,1.54,1.29c3.84,2.22,8.53.17,11.18-2.31a14.68,14.68,0,0,0,8.11-5c.51-.69,1-1.45,1.54-2.22.26-.34.43-.69.68-1a7,7,0,0,0,1.71,1c-.09,0,.51.25.51.25,3.59,1.63,6.49,2.57,12.64.52a20.87,20.87,0,0,0,5.21-2.82l.85-.26a19.31,19.31,0,0,0,4-2,9.78,9.78,0,0,0,8,.17c-1.62,3.84-2.73,6.74-3,8.54,0,.25-.08.51-.08.85-.34,2.48-.86,6.23,2.64,9.91a6.33,6.33,0,0,0,5.3,1.45,8.56,8.56,0,0,0,5.46-3h.26a10,10,0,0,0,7.34-4.7C217.19,68,221,58.94,222.32,55.7s4.18-7.34,6.49-10.33c1.7-2.14,4.86-3.76,6.14-4.53l.35-.17a9.6,9.6,0,0,0,4.86-9.3"/><path class="cls-1" d="M58.72,75.42a37.17,37.17,0,0,0-7.17-2.81c2.56-2.39,7.68-7.18,11.61-11.1-1.54,3.92-3.24,9.64-4.44,13.91m181.44-44a9.21,9.21,0,0,0-5.89-7.95c-2.65-.93-5.81-.34-9.22,1.54v-.17a32.05,32.05,0,0,1,1.45-3.33c.51-1,1-2.05,1.54-3.16.85-1.88,3.41-7.77-.6-13.4A9.67,9.67,0,0,0,220.27.54c-2-.17-5,.34-8,3.5a13.36,13.36,0,0,0-2.82,4.87A6.76,6.76,0,0,0,207.8,7.8a9.14,9.14,0,0,0-9.05.77c-1,.68-2.73,1.79-5.38,7.43a12.84,12.84,0,0,0-1.11,1.28,14,14,0,0,0-13.32-1.45,22.73,22.73,0,0,0-10.24,7.68,4.08,4.08,0,0,0-.86-.85,8.76,8.76,0,0,0-8.45-2.05c-3.42.94-6.58,4-10.59,10.5a9.53,9.53,0,0,0-4.87-3.84c-2.3-.77-6.83-1.37-10.75,3.58a10.43,10.43,0,0,0-9.48.52h0a1.72,1.72,0,0,0-.69.34,26.46,26.46,0,0,0-8,5.72,10.9,10.9,0,0,0-.94,1,8.84,8.84,0,0,0-2.65-1.71c-3.16-1.28-7.17-.25-11.52,3.08a8,8,0,0,0-4.87-2,8.23,8.23,0,0,0-3.76.6,12.9,12.9,0,0,0-.68-3.16,7.47,7.47,0,0,0-4-4.35,8.66,8.66,0,0,0-2-.51c.85-5-1-8.8-3.08-10.59-4.27-3.67-9.22-1.54-12.21-.26C65.89,21,62.9,25.39,56.76,35.38c-1.2,1.88-2.57,4.1-4.19,6.66-2-9.31-9-10.93-11.27-11.27-3.41-.43-8.54.51-20.49,10.93A176.13,176.13,0,0,0,6.89,55.27,15,15,0,0,0,4.5,59.71c-.68.69-1.19,1.28-1.62,1.8A9.94,9.94,0,0,0,.66,69.79a7.72,7.72,0,0,0,4,5.29c4,2.14,7.69.34,10.67-2.22,5.3-.94,9.57-6.15,11.7-8.79l.6-.77c.43-.6.94-1.11,1.45-1.71-.08.77-.25,1.62-.34,2.56a11.21,11.21,0,0,1-.51,2.48l-.17.17c-.17.09-.6.26-1,.51-1.88.86-4.69,2.14-6.4,5a9,9,0,0,0-1.11,3.24,8.17,8.17,0,0,0-2.65,2.74,7,7,0,0,0-.68,5.38,7.39,7.39,0,0,0,4,4.44,9.7,9.7,0,0,0,2.22.76,15.12,15.12,0,0,1-.51,2.91c-.26,1-.77,2.3-1.28,3.93-.86,2.47-2,5.55-2.82,8.79-.34,1.28-.85,2.9-1.37,4.61-1.45,4.61-2.3,7.6-2.3,9.39,0,4.7.77,9.57,6.32,10.76,2.47.6,5.89-.68,8.11-3a12,12,0,0,0,7.68-4.61c2.57-3.41,5.64-13.15,6.66-19.55l.69-3.93.17-.77a32.5,32.5,0,0,1,3.58,3.25c2.91,2.9,10.42,9.39,14,12.55l1.53,1.37c2.91,2.64,8,1.79,10.68-.52a4.65,4.65,0,0,0,.94-.94,11.44,11.44,0,0,0,5.8-2.56,10.57,10.57,0,0,0,3.76-9.13c-.17-2.22-1.79-5.13-5-8.71a6.91,6.91,0,0,0,2.9.34,8.71,8.71,0,0,0,5.38-3h.26a11.5,11.5,0,0,0,7.6-4.87,8.13,8.13,0,0,0,1-2c2,1,4.7,1.37,8.46.34a13.38,13.38,0,0,0,5.12-2.9c.26-.09.6-.09.85-.17a10.47,10.47,0,0,0,3-1.28,8.22,8.22,0,0,0,1.88.51,8.64,8.64,0,0,0-3.41,5,4.05,4.05,0,0,0-.18,1,6.79,6.79,0,0,0-3.33,4.44,7.45,7.45,0,0,0,1.63,6.49c3,4.1,9.82,3.33,14.68.26a18.36,18.36,0,0,0,1.54-1.2,20.85,20.85,0,0,0,4.95-2.13c5.21-3.25,8.2-10.16,9.31-15.54.34-1.71.77-5,1.11-7.86a5.63,5.63,0,0,0,1.54,1.28c3.84,2.22,8.53.17,11.18-2.3a14.7,14.7,0,0,0,8.11-5,18.61,18.61,0,0,0,1.45-2.3c.26-.34.43-.68.69-1a7,7,0,0,0,1.71,1l.51.25c3.67,1.63,6.49,2.57,12.63.52A20.87,20.87,0,0,0,184.83,60l.86-.26a19.56,19.56,0,0,0,4-2,9.78,9.78,0,0,0,8,.17c-1.63,3.84-2.74,6.75-3,8.54,0,.25-.09.51-.09.85-.34,2.48-.85,6.24,2.65,9.91a6.3,6.3,0,0,0,5.29,1.45,8.58,8.58,0,0,0,5.47-3h.25a10,10,0,0,0,7.35-4.7c1.62-2.81,5.46-11.86,6.74-15.11s4.19-7.34,6.49-10.33c1.71-2.14,4.87-3.76,6.15-4.44l.34-.17a10.33,10.33,0,0,0,4.78-9.56"/><path class="cls-10" d="M81.35,88.23a9.65,9.65,0,0,1-1.28-.77c-.94.86-1.88,1.71-2.91,2.48a23.35,23.35,0,0,1,2.56,3.33h2A28.49,28.49,0,0,0,79,90.11c.34-.26.68-.6,1-.85l.26.25a8.42,8.42,0,0,0,5.46,2.22,6.58,6.58,0,0,0,1.37-1.28,7.42,7.42,0,0,1-5.72-2.22"/><path class="cls-10" d="M97.4,77.47a20.58,20.58,0,0,1-1.2,6,7.79,7.79,0,0,0,1.46.43,15.71,15.71,0,0,0,.85-3.42,12.89,12.89,0,0,0,8.62,2.05,15,15,0,0,0,2.31-1.62,12.27,12.27,0,0,1-12-3.42"/><path class="cls-10" d="M118.23,77.73A16.53,16.53,0,0,1,121,77c-.6-.17-2-.85-2.57-1.11a24.63,24.63,0,0,1-4.52,3.33l1.28.43a9.57,9.57,0,0,1,3.07-1.88"/><path class="cls-10" d="M147.35,68.51a8,8,0,0,1-1.71-1.28,9.93,9.93,0,0,1-1.45,1.11,7.87,7.87,0,0,1-2.05.94c-.08.68-.17,1.11-.26,1.79a4.09,4.09,0,0,0,.77.51l.34.17c.09-.6.09-1,.18-1.71a8.73,8.73,0,0,0,1.53-.76l.77-.52a10.22,10.22,0,0,0,1.11.77A10,10,0,0,0,152,71.07a10.45,10.45,0,0,0,2-1.45,9.07,9.07,0,0,1-6.57-1.11"/><path class="cls-10" d="M66.66,111.37l-1.28-2.05-.34.6c-3.67-3.16-11-9.65-13.92-12.55A51.26,51.26,0,0,0,45.06,92c-.34,1.79-.94,4-1.28,5.89.34.34,1.11.85,1.53,1.2l.77-4.53a43.15,43.15,0,0,1,4.19,3.67c3,3,10.5,9.56,14.17,12.72h0l.17-.17-.08.17A11,11,0,0,0,66,112.22a9.63,9.63,0,0,0,6.83,2.57c.17-.17,1.45-1.2,1.71-1.54-2.74.34-5.64,0-7.77-2"/><path class="cls-10" d="M8.94,71.92C6.55,70.3,4.33,68.34,4,65.26c-.26-1.88-.6-3.16,0-5-.6.68-1.2,1.28-1.54,1.7a17.29,17.29,0,0,0,.17,3.59,11.46,11.46,0,0,0,6,7.85,8.7,8.7,0,0,0,4.61,1.29c.43-.26.77-.52,1.2-.77a4.5,4.5,0,0,0,.68-.6,7.77,7.77,0,0,1-6.15-1.37"/><path class="cls-10" d="M25.51,126.57c-8.29-1.79-8.46-10.25-8.54-13.06,0-2.14.85-5,2.39-10.08.51-1.71,1-3.33,1.36-4.53a87.08,87.08,0,0,1,2.91-9c.51-1.54,1-2.82,1.28-3.76.08-.17.08-.34.17-.6a1.28,1.28,0,0,0-.51-.17,9.56,9.56,0,0,1-5-5.89A8.78,8.78,0,0,1,19,75.85,7.56,7.56,0,0,0,17.74,77a6.61,6.61,0,0,0,.42,2.9,11,11,0,0,0,5.47,6.41c-.26.85-.69,2-1.11,3.24-.86,2.56-2,5.72-2.91,9-.34,1.2-.85,2.82-1.28,4.53-1.53,5.12-2.47,8.11-2.47,10.42,0,8.28,3.16,13.14,9.3,14.43a4.91,4.91,0,0,0,1.54.25,12.54,12.54,0,0,0,1.62-1.36,7.88,7.88,0,0,1-2.81-.26"/><path class="cls-10" d="M28.24,66.37A20.06,20.06,0,0,0,31,64.92c.43-1.36.34-3.67.77-5.8-1.11,1.45-1.54,1.7-2.56,3-.09.09-.77,3.76-.94,4.27"/><path class="cls-10" d="M114,92.76c-1.79-2.39-3-4.61-2.64-7.18a7.6,7.6,0,0,0-1.28,1,11.31,11.31,0,0,0,2.56,7.09c2.56,3.5,6.32,4.61,10.59,4.18.42-.26.85-.43,1.28-.68A18.4,18.4,0,0,0,126,96.09c-4.86,1.28-9.13.51-12-3.33"/><path class="cls-10" d="M200.89,73.72c-4.36-4.44-3.68-9.4-3.33-12,0-.25.08-.51.08-.77a19.88,19.88,0,0,1,1.45-5,12.37,12.37,0,0,1-5-1.11,31.71,31.71,0,0,1-4.35,3.16c.51.17.93.34,1.45.51,1.11-.68,2.13-1.45,3.16-2.22a13.58,13.58,0,0,0,3.07.86,18.85,18.85,0,0,0-.94,3.67c0,.25-.08.51-.08.68-.35,2.65-1.11,8.11,3.67,13.07a8.92,8.92,0,0,0,6.23,2.56,7,7,0,0,0,1.37-1.28,8.39,8.39,0,0,1-6.83-2.22"/><path class="cls-10" d="M171.34,59.37l-.51-.25h0a10.8,10.8,0,0,1-2.13-1.29c-.94.69-1.88,1.46-2.82,2.22a5.15,5.15,0,0,0-1.11,1.29,6.69,6.69,0,0,0,1,.59,8.63,8.63,0,0,1,.86-1l1.79-1.54a20.78,20.78,0,0,0,2.22,1c3.24,1.62,5.89,2.47,10,1.87a32.52,32.52,0,0,0,3.76-2.22c-6.15,2-9.48,1.11-13.07-.68"/><path class="cls-10" d="M61.11,75.17c.34-1.71,2.82-11.79,3.84-15.29-.25.26-1.62,2-1.88,2.22-.85,2.48-3.41,11.1-4.09,13.49.25.18,1.45.52,1.7.69-.08-.17.43-1,.43-1.11"/><path class="cls-11" d="M27.47,64.41a5.74,5.74,0,0,0,.6-.77c1.19-1.37,2.39-3,3.67-4.52a40.52,40.52,0,0,1-1.37,5.55c-1.11.68-2,1.28-2.56,1.62a8.47,8.47,0,0,0-1,.51,13.53,13.53,0,0,0-2.48,1.28c1.28-1.37,2.39-2.65,3.16-3.67m33,11.44a36.92,36.92,0,0,0-7.94-3.5c3-2.73,8.19-7.68,11.95-11.44-1.62,5-3.07,10.42-3.67,12.89a18.25,18.25,0,0,1-.34,2M240.67,31.37A9.6,9.6,0,0,0,234.44,23c-2.47-.86-5.38-.51-8.54,1,.34-.68.77-1.62,1.11-2.3.52-1,1-2,1.54-3.25.85-2,3.5-8-.68-13.83C225.31,1.14,222.4.2,220.35,0s-5.21.34-8.45,3.59A12.89,12.89,0,0,0,209.17,8,13.93,13.93,0,0,0,208,7.2a9.7,9.7,0,0,0-9.56.77c-1.11.77-3.07,2.05-6.06,8.62a14.42,14.42,0,0,0-13.66-1.36,23.61,23.61,0,0,0-10.17,7.34c-.17-.17-.25-.34-.42-.51a9.33,9.33,0,0,0-9-2.14c-3.41.94-6.57,3.93-10.41,10.08a10.78,10.78,0,0,0-4.62-3.42c-2.39-.85-7-1.45-11,3.5a11.2,11.2,0,0,0-9.56.69h0a1.66,1.66,0,0,0-.69.34,24.92,24.92,0,0,0-8.11,5.81l-.68.68a8.92,8.92,0,0,0-2.48-1.45c-3.24-1.37-7.34-.34-11.69,2.9A8.44,8.44,0,0,0,95,37.17a8.86,8.86,0,0,0-3.33.43A10.92,10.92,0,0,0,91,34.87a8.11,8.11,0,0,0-4.27-4.61A8.91,8.91,0,0,0,85,29.83c.68-4.95-1.2-8.71-3.33-10.59-4.53-3.84-9.91-1.62-12.72-.43-3.59,1.54-6.75,6.32-13.67,17.51Q54,38.5,52.74,40.42A13.46,13.46,0,0,0,41.3,30.26c-3.5-.43-8.71.51-20.92,11.1C16.71,44.6,9,51.94,6.46,54.93A12.37,12.37,0,0,0,3.73,65.35a10.24,10.24,0,0,0,5.3,7c4.44,2.39,8.53,1,11.86-1.37a9.32,9.32,0,0,0,3.76,14.26,1.14,1.14,0,0,0,.51.17c-.08.17-.08.43-.17.6a37.51,37.51,0,0,1-1.28,3.76c-.85,2.56-2,5.63-2.9,9-.34,1.2-.85,2.82-1.37,4.53-1.53,5-2.39,7.94-2.39,10.07,0,2.91,0,11.45,8.28,13.24,3.68.94,8.54-1.11,11.28-4.7s5.8-14,6.83-19.81c0,0,1-6,1.7-9.64a36.34,36.34,0,0,1,6,5c3,2.9,10.5,9.48,14.09,12.63l1.54,1.29c3.92,3.5,10.41,2.56,13.91-.52a10.94,10.94,0,0,0,3.93-9.56c-.08-1.88-1.11-5-7.34-11.44a26.82,26.82,0,0,0,2.9-2.48,11,11,0,0,0,.94,1,8.36,8.36,0,0,0,6.58,2,11.74,11.74,0,0,0,7.94-5.12c1.11-1.62,1.7-3.76,2-7.09,2.3,2.39,6.4,4.44,13.06,2.56A17.26,17.26,0,0,0,118,76.19a6.6,6.6,0,0,0,1.79.51c-.85.26-1.71.6-2.56.94a10,10,0,0,0-5.72,6.66,10.13,10.13,0,0,0,2.05,8.63c3.92,5.38,12.21,4.52,17.93.94,5.29-3.33,8.45-10.33,9.56-15.88.43-2,.85-5.64,1.2-8.8a11.3,11.3,0,0,0,2.05-.94,17,17,0,0,0,1.45-1.11,8.24,8.24,0,0,0,1.7,1.28c5.81,3.42,12.56-.34,15.54-4.1a15.1,15.1,0,0,0,1.54-2.3,7.24,7.24,0,0,1,1.45-2,27.91,27.91,0,0,1,2.82-2.22,9.66,9.66,0,0,0,2.56,1.46c3.84,1.87,7.43,2.9,14.43.59a27.15,27.15,0,0,0,8.37-5.12,12.46,12.46,0,0,0,5,1.11,24.81,24.81,0,0,0-1.45,5c0,.26-.09.52-.09.77-.34,2.65-1,7.52,3.33,12a8.33,8.33,0,0,0,7.34,2.13,10.76,10.76,0,0,0,7.69-5c1.62-2.82,5.46-11.79,6.74-15.2a43.84,43.84,0,0,1,6.49-10.16c1.63-2,4.7-3.67,6-4.36l.34-.17a10,10,0,0,0,5.12-9.47"/><path class="cls-12" d="M81.09,88.4a10.9,10.9,0,0,1-.94-1c-.94.85-1.88,1.71-2.9,2.47,1.28,1.37,2.39,2.57,3.24,3.59h1.37a9.41,9.41,0,0,0,5.55-3,8,8,0,0,1-6.32-2"/><path class="cls-12" d="M97.66,78.16a18.71,18.71,0,0,1-1.2,5.63,8,8,0,0,0,1.28.43,13.29,13.29,0,0,0,6.83-.34A15.77,15.77,0,0,0,109.78,81c-6.15,1.37-9.9-.51-12.12-2.81"/><path class="cls-12" d="M119.77,76.79,118,76.28a25,25,0,0,1-4.53,3.33,2.67,2.67,0,0,0,.77.17,10.14,10.14,0,0,1,3-2c.85-.34,1.71-.68,2.56-.94"/><path class="cls-12" d="M147.35,68.51a8,8,0,0,1-1.71-1.28,9.93,9.93,0,0,1-1.45,1.11,7.87,7.87,0,0,1-2.05.94c-.08.68-.17,1.28-.26,2a4.09,4.09,0,0,0,.77.51c3.93,2.31,8.63.34,11.53-2.22a9.24,9.24,0,0,1-6.83-1"/><path class="cls-12" d="M66.66,111.37l-1.54-1.28C61.54,106.93,54,100.36,51,97.45a37.19,37.19,0,0,0-6-5c-.34,1.79-.68,4-1,5.89.86.77,1.8,1.62,2.82,2.56h0c2.9,2.82,10.33,9.4,13.92,12.47l1.54,1.37a7.68,7.68,0,0,0,5.89,1.7,9.21,9.21,0,0,0,5.29-2.22,4.08,4.08,0,0,0,.86-.85,9.47,9.47,0,0,1-7.86-2.13"/><path class="cls-12" d="M9,72.35a10.24,10.24,0,0,1-5.3-7A11.94,11.94,0,0,1,4,59.63c-.6.68-1.11,1.28-1.54,1.71v.17A10.6,10.6,0,0,0,.15,70c0,.18.08.26.08.43a8,8,0,0,0,4,5.21c1.88,1,5.64,2,10.34-1.54a5,5,0,0,0,.68-.59A9.94,9.94,0,0,1,9,72.35"/><path class="cls-12" d="M25.33,126.74c-8.28-1.71-8.28-10.33-8.28-13.23,0-2.14.86-5,2.39-10.08.52-1.71,1-3.33,1.37-4.53a84.84,84.84,0,0,1,2.9-9c.51-1.54,1-2.82,1.28-3.76a3.76,3.76,0,0,0,.17-.6,1.28,1.28,0,0,0-.51-.17,9.77,9.77,0,0,1-5.29-5.89,8.35,8.35,0,0,1-.26-4.1,8.52,8.52,0,0,0-2.65,2.82h0a7.44,7.44,0,0,0-.76,5.38l.08.26A7.7,7.7,0,0,0,20,88.49a7.58,7.58,0,0,0,2,.68,12.39,12.39,0,0,1-.51,2.48c-.26.94-.77,2.3-1.28,3.84-.86,2.48-2,5.55-2.82,8.88-.34,1.28-.86,2.9-1.37,4.61-1.53,5.12-2.3,7.77-2.3,9.48v.08a22,22,0,0,0,.59,5.21,9.36,9.36,0,0,0,.94,2.31,7.39,7.39,0,0,0,5.13,3.58c2.64.6,6.14-.59,8.36-2.9a10.93,10.93,0,0,1-3.33,0"/><path class="cls-12" d="M27.81,66.37c.6-.34,1.45-.85,2.56-1.62a39.81,39.81,0,0,0,1.37-5.55c-1.11,1.45-2.31,2.9-3.42,4.27,0,.26-.08.6-.08.85-.17.69-.26,1.37-.43,2.05"/><path class="cls-12" d="M113.54,93a10.52,10.52,0,0,1-2.22-7.6A7.52,7.52,0,0,0,107.9,90a7.4,7.4,0,0,0,.09,3.59,8.87,8.87,0,0,0,1.62,3.25c3.16,4.26,10.16,3.5,15.28.42.52-.34.94-.68,1.37-1-4.87,1.28-9.91.6-12.72-3.25"/><path class="cls-12" d="M200.89,73.72c-4.36-4.44-3.68-9.4-3.33-12,0-.25.08-.51.08-.77a19.88,19.88,0,0,1,1.45-5,12.37,12.37,0,0,1-5-1.11,53.16,53.16,0,0,1-4.53,3.33,9.9,9.9,0,0,0,7.18.34,39.81,39.81,0,0,0-2.65,7.77l-.09.86a13.87,13.87,0,0,0,.09,5.63,10.85,10.85,0,0,0,2.65,4.61h0a6.54,6.54,0,0,0,5.55,1.45,8.74,8.74,0,0,0,5.55-3,8.75,8.75,0,0,1-7-2.22"/><path class="cls-12" d="M171.34,59.37l-.51-.25h0a10.8,10.8,0,0,1-2.13-1.29c-.94.69-1.88,1.46-2.82,2.22a7.27,7.27,0,0,0-1.2,1.54,9.37,9.37,0,0,0,1.28.68h-.08l.68.26a16.26,16.26,0,0,0,5.29,1.71,17.7,17.7,0,0,0,7.6-1.11,20.24,20.24,0,0,0,5.21-2.82c-6.32,1.88-9.73.85-13.32-.94"/><path class="cls-13" d="M60.51,75.85a18.25,18.25,0,0,1,.34-2c.52-2.47,2-7.94,3.68-12.89-.77.85-1.71,1.71-2.57,2.56-1.19,3.5-2.56,7.77-3.5,11.19a17.5,17.5,0,0,1,2,1.19"/><path class="cls-1" d="M127,55.7a25.33,25.33,0,0,1-1.71,2.48c-.09,0-.09.08-.17.08a7,7,0,0,1-.17-3c.25-2.3,1.19-3.33,2.39-4.78l1-1.28c.09-.08.26-.17.35-.26-.77,2.82-1.46,5.55-1.71,6.75M73.49,48a13.94,13.94,0,0,0-3.67,4.69c-2.13,3.76-6.06,17.08-7,21.52a21.74,21.74,0,0,0-.6,5.29,35.77,35.77,0,0,0-13-5.89l-.94-.26c.26-.17.52-.42.77-.59,1.71-1.54,11.78-10.85,16.14-15.71,2-2.14,5-6.07,7.94-10.08a4.44,4.44,0,0,1,.34,1M238.63,31.54A7.74,7.74,0,0,0,233.76,25c-3.76-1.28-8.11,1.28-11.1,3.67l.25-1c.35-1.45.6-2.39.77-3a20.76,20.76,0,0,1,1.63-3.76c.51-1,1-2.05,1.45-3.07,1.28-3,2.73-7.43-.43-11.87a8.35,8.35,0,0,0-6-3.76c-1.62-.17-4.18.35-6.83,3-.51.6-2,2.05-3.41,6.83a6.64,6.64,0,0,0-2.91-2.81,7.89,7.89,0,0,0-7.6.68c-.93.6-3,2-6.31,10.24a12.36,12.36,0,0,0-13.75-2.81,21.42,21.42,0,0,0-10.93,9,7.19,7.19,0,0,0-8.79-4.27c-3.42.94-6.66,4.52-11.19,12.38a5.24,5.24,0,0,0-.51-1.45,8.36,8.36,0,0,0-4.61-4.27c-2.39-.86-6-.94-9,3.16a6.79,6.79,0,0,0-.69,1c-2.73-1.79-5.89-1.88-9.3-.08l-.77.34a24,24,0,0,0-7.6,5.38,24.58,24.58,0,0,0-2,2.22,7.85,7.85,0,0,0-3.24-2.56C107.22,36.66,103,39.31,99.7,42c-.08-.08-.17-.25-.25-.34A6.41,6.41,0,0,0,95,39.39a8.69,8.69,0,0,0-5.21,1.45,11.59,11.59,0,0,0-.6-5.12A6.06,6.06,0,0,0,86,32.22a6.67,6.67,0,0,0-3.41-.34c1.45-4.95.08-9-2.14-11-3.5-3-7.77-1.19-10.58,0C66.83,22.23,63.67,27,57.18,37.6c-1.88,3-3.67,5.89-4.86,7.6l-.69,1a13.41,13.41,0,0,0-.08-1.79c-.94-9.65-7.43-11.61-10.25-12S33.62,33,22,43.06A177.18,177.18,0,0,0,8.17,56.47c-2.13,2.73-3,5.8-2.3,8.62a8.4,8.4,0,0,0,4.27,5.64c6.91,3.67,13-3.76,16-7.43l.6-.77c2.65-3.16,5.81-7.34,7.6-9.82.17-.17.34-.43.51-.6A67.53,67.53,0,0,1,34,59.29a51.24,51.24,0,0,1-1.71,6.91c-1,.69-2.39,1.62-3.24,2.14-.26.17-.69.34-1.2.59-1.79.86-4.27,1.88-5.63,4.36A7.06,7.06,0,0,0,21.49,79a7.7,7.7,0,0,0,4.19,4.61,12.54,12.54,0,0,0,2,.68,14.61,14.61,0,0,1-.51,2.57c-.26.93-.77,2.3-1.28,3.84-.86,2.47-2,5.55-2.82,8.88-.34,1.28-.85,2.9-1.37,4.61-1.45,4.69-2.3,7.68-2.3,9.48,0,3,0,9.73,6.66,11.18,2.9.68,7-1,9.22-3.93,2.39-3.16,5.38-12.72,6.4-18.87,0,0,1.37-7.51,2.22-12.55a31.7,31.7,0,0,1,8.88,6.66c2.91,2.91,10.42,9.39,14,12.55l1.53,1.37c3.08,2.73,8.37,2,11.27-.51a8.93,8.93,0,0,0,3.25-7.86c-.17-3-4.1-7.6-8.63-12a21.12,21.12,0,0,0,6.58-5.38,7.4,7.4,0,0,0,2,2.82,6.2,6.2,0,0,0,5,1.45,9.47,9.47,0,0,0,6.48-4.27c1.37-2,1.8-5.29,2-12v-.86a25.93,25.93,0,0,0,1.37,3.08c1.71,3.07,5.29,6.4,12.72,4.35,2.82-.77,5.47-3,7.35-4.87a11,11,0,0,0,6.4,1.11v.26a9.48,9.48,0,0,1-1.11,3.07,12.93,12.93,0,0,0-4.7,1.37,7.76,7.76,0,0,0-4.61,5.29,8.21,8.21,0,0,0,1.71,6.83c3.07,4.27,10.16,3.5,15.2.43,4.78-3,7.6-9.48,8.62-14.51.43-2.14.94-6.75,1.28-10a6.93,6.93,0,0,0,2.82-1.11,17.91,17.91,0,0,0,2.73-2.4,7.41,7.41,0,0,0,2.56,2.57c4.7,2.73,10.51-.6,12.9-3.68.51-.68.94-1.36,1.36-2a10.75,10.75,0,0,1,1.88-2.48A31.85,31.85,0,0,1,169,55.61a8.75,8.75,0,0,0,2.73,2l.51.25c3.59,1.63,6.66,2.65,13,.52,3.07-1,6.32-3.5,8.71-5.64a10.34,10.34,0,0,0,8.54,1.11A31.78,31.78,0,0,0,200,61.59c0,.26-.09.51-.09.86-.34,2.56-.94,6.48,2.73,10.24a6.44,6.44,0,0,0,5.64,1.54,8.77,8.77,0,0,0,6.23-3.93c1.54-2.73,5.38-11.61,6.66-14.86A46.33,46.33,0,0,1,228,44.69c1.88-2.4,5.21-4.1,6.66-4.87l.34-.17A7.86,7.86,0,0,0,239,32"/><path class="cls-11" d="M11.84,66.89c-2.13-1.11-3.33-4.36-.59-8,2.13-2.64,9.39-9.47,13.32-12.89,4.61-4,12.21-10.07,16-9.56,3,.43,6.15,2.39,6.66,8.2s-1.45,14.17-1.45,14.17A111.92,111.92,0,0,0,55.56,47.5C59.49,41.87,68.28,26,71.36,24.62s5-1.79,6.23-.68,2.22,4.44.26,8.54S66.49,49.64,62.22,54.33,48,68.25,46.42,69.7s-3.92,2-3.41,3.93a4.25,4.25,0,0,0,3.41,3.59c3,.94,8.46,1.7,14.09,6.23,3.76,3,17.59,14.77,17.85,18.27a4.93,4.93,0,0,1-1.79,4.53c-1.63,1.36-4.53,1.71-5.81.6S58.89,96.51,55.39,93.1c-6.4-6.32-11.53-8.71-15-8.71,0,0-2,11.27-3,16.91-1,6.23-4,14.85-5.63,17.07-1.28,1.71-3.76,2.73-5.12,2.39-2.14-.42-3.42-1.62-3.42-7.08,0-2,2.48-9.05,3.59-13.07,1.36-5.21,3.33-9.9,4.09-12.63a51.4,51.4,0,0,0,1-7.35,11,11,0,0,1-4.7-.77c-2-.94-2.73-2.73-1.7-4.52s3.58-2.48,5.29-3.42,4.7-3.07,4.7-3.07A55.78,55.78,0,0,0,37.89,60c.76-4.7,1.79-13.06-.35-13.49s-4.86,1.28-6.74,3.84S25.85,57,23.37,59.88s-7.17,9.31-11.53,7"/><path class="cls-11" d="M183,33.84a16.29,16.29,0,0,0,3.16-3.76,3.28,3.28,0,0,0-.77-3.67c-.43-.59-2.65-.77-3.67-.34s-2.65,2.39-3.33,4.53-.34,6.74-.34,6.74a20.11,20.11,0,0,0,4.95-3.5M78.19,50.41c2.56-.17,4.1,3.07,3.67,4.52-.77,2.65-2.65,4.87-3.67,7.69-.94,2.64-2.56,6.49-2.48,8.53s.86,3.25,2.48,1.88,2-2.39,3.24-4.52,2.48-4,2.48-4a91.16,91.16,0,0,0,2.65-8.79c1.19-4.87,2.39-8.37,3.75-10.08a5.57,5.57,0,0,1,4.44-2.22c1.54.09,2.65,2,2.56,3.51s-2.13,5.37-2.13,5.37,2.48-2.81,5-5.37,6.91-5.9,9.13-5,3.16,3.85,2,7.52a121.76,121.76,0,0,0-3.5,13c-.43,2.56-1.2,5.2,1.62,6.14,2,.6,5-3.67,5-3.67s-3.24-3.5-1.79-10.59c.94-4.78,2.82-9.47,6.4-13a20.57,20.57,0,0,1,7.34-5c2.22-1.11,3.85-1.11,5.47,0,1.79,1.28,2.9,4.1.08,6-1.28.86-5.37,2.48-6.83,4.36s-3.67,3.76-4.27,8c-.42,3.5.77,7,2.4,7.51a5.17,5.17,0,0,0,5.12-1.37,24.57,24.57,0,0,0,2.47-3.67s1.88-8,3.16-12.46,2.22-8.54,3.68-10.42,2.9-2.31,4.52-1.71a3.75,3.75,0,0,1,2.31,4.78v.09c-.86,2.22-3.16,12.38-4.87,15.37l-.77,2.3a5.94,5.94,0,0,0,3.67-2.56c2.14-3.67,6.58-10.84,9.31-15.54s6.23-10.25,9.05-11a3.17,3.17,0,0,1,4,2,3,3,0,0,1,.09,1.71c-.43,2.13-4,5.89-4,5.89s3,4.18,3.41,7.17a27.81,27.81,0,0,1,.09,6l4-3.59s-.6-6.66.85-10.84c2.39-6.66,6-10.85,11.7-13.15,5.38-2.05,9.22,1,10.33,3.24s.69,6.32-2,9.57-7.52,7.68-10.85,8.28a7.31,7.31,0,0,0,1.63,3.59,3.76,3.76,0,0,0,5.29.25l.09-.08c1.19-1,6.23-6.66,7.77-10.16a44.68,44.68,0,0,1,2.3-10.51c2.14-5.89,4.44-10.93,6.06-12,2.74-1.7,5-.51,5.3,2.74.08,1.53-3,6.49-4.78,11.18a39,39,0,0,0-2.48,9.39c-.51,4.44,2.73,3.68,4.44,2.74,2.31-1.28,3-2.31,4.27-6.24.85-2.3,3.67-12.55,4.1-14.6s1.71-8.54,3.67-10.59,4.35-2.81,6.57.26c1.28,1.88,1.71,3.93,0,7.77-1.19,2.82-3,5.64-3.41,7.77s-4.1,14.69-3.93,20.66c0,0,4.1-7.08,6.4-9.73s7.86-6.75,10.42-5.89,3.08,5.12.26,6.74c-1.37.77-5.55,2.82-8.2,6.07s-6,8-7.43,11.86c-1.28,3.25-4.95,12-6.32,14.26-1.11,2-4.52,2.39-5.38,1.54-2.56-2.56-1.79-5-1.53-7.68s4-10.51,4.69-12.13c1-2.56-1.87-5.29-1.87-5.29s-2.05,3.58-4.7,4.78a6.36,6.36,0,0,1-6.06-.34A4.45,4.45,0,0,1,194,46s-5.72,6.23-10.33,7.85c-5.72,1.88-7.52.68-10.59-.68-1.62-.68-3.42-3.59-3.42-3.59a59.91,59.91,0,0,0-7.94,5.72c-1.87,1.71-2.56,3.59-3.67,5-1.36,1.79-5.12,4.09-7.68,2.64-2.22-1.28-2.56-5.38.34-7.68a30.52,30.52,0,0,1,6.49-3.76,25.55,25.55,0,0,0,.77-6.23,7.23,7.23,0,0,0-1.63-4.1s-5.63,9.31-8.28,13.4c-3.16,4.7-6,7.6-7.17,8.46s-4.27.68-4.27.68-.85,9.82-1.54,13c-.85,3.93-3.07,9.56-6.83,11.87-3.5,2.13-8.28,2.73-9.82.68s-1.62-4.44,1.46-5.89a9.2,9.2,0,0,1,5.2-.94,16.68,16.68,0,0,0,2.82-6.57c.34-2.4,1-9.06,1-9.06s-2.39,3.25-5.47,4c-1.88.51-5-.6-6.74-2.48,0,0-4,5.38-7.69,6.41s-6.4.68-8-2.4a13.34,13.34,0,0,1-1.37-10.67,74.93,74.93,0,0,1,3.67-8.54s-.26-2-4.52,1.71c-2.14,1.88-4.7,4.78-5.64,7s-1.11,5.3-1.28,8.37-.26,9.73-1.45,11.44c-1.62,2.31-4.19,3.16-5.47,2S82.46,78.16,83.14,75c0,0-2.13,1.36-5.64,5.8-3.24,4-7.25,6.49-9,4.78-2-2-3.07-5-1.79-10.58,1-4.87,4.86-17.42,6.57-20.41s3-4.1,4.87-4.18"/><path class="cls-11" d="M84.76,43.58c1.37-3.16.94-7-.51-7.6-2-.77-5.29,1.79-6.66,4.86s-.51,7.18,1.54,7.69c1.7.51,4.35-1.71,5.63-5"/><path class="cls-13" d="M234.53,9.34V6.09h.68L236,8.4c.08.17.08.34.17.51a2.6,2.6,0,0,1,.17-.51l.77-2.22h.6V9.42h-.43V6.69l-.94,2.73h-.43L235,6.69V9.42h-.42Z"/><path class="cls-13" d="M238.71,8.91h.68a1.06,1.06,0,0,0,.52-.09c.08,0,.17-.08.25-.17a1.7,1.7,0,0,0,.26-.42,1.55,1.55,0,0,0,.08-.6,1.28,1.28,0,0,0-.17-.77.79.79,0,0,0-.42-.34,1.06,1.06,0,0,0-.52-.09h-.68Zm-.51.43V6.09h1.11a1.61,1.61,0,0,1,.6.09.45.45,0,0,1,.42.25,2.24,2.24,0,0,1,.43.52,2.2,2.2,0,0,1,.09.76,1.82,1.82,0,0,1-.09.69c-.09.17-.09.34-.26.42s-.17.26-.25.35a.7.7,0,0,1-.43.17c-.17,0-.34.08-.51.08H238.2Z"/><polygon class="cls-13" points="241.19 9.34 242.04 6.01 242.38 6.01 241.44 9.34 241.19 9.34"/><path class="cls-13" d="M243.58,7.63h.34a.49.49,0,0,0,.34-.09c.09-.08.09-.08.09-.17s0-.08-.09-.17a.08.08,0,0,0-.08-.08h-.6Zm-.26.94V6.77h.6a.63.63,0,0,1,.43.09c.08,0,.17.09.25.17a.31.31,0,0,1,.09.26.6.6,0,0,1-.51.51c.08,0,.08.08.17.08s.17.26.25.35l.26.34h-.34l-.17-.26a.87.87,0,0,0-.35-.43.31.31,0,0,0-.25-.08h-.17v.77Zm.77-2.31a2.06,2.06,0,0,0-.68.17.79.79,0,0,0-.52.52,1.66,1.66,0,0,0-.17.68,1.7,1.7,0,0,0,.17.68.76.76,0,0,0,.52.51,1.45,1.45,0,0,0,1.36,0,.76.76,0,0,0,.52-.51,1.7,1.7,0,0,0,.17-.68,1.66,1.66,0,0,0-.17-.68,1,1,0,0,0-.52-.52,2.79,2.79,0,0,0-.68-.17m0-.25a2.79,2.79,0,0,1,.85.17c.26.17.52.34.6.59a2,2,0,0,1,0,1.71,1.34,1.34,0,0,1-.6.6,1.52,1.52,0,0,1-1.7,0,1.91,1.91,0,0,1-.6-.6,2,2,0,0,1,0-1.71c.17-.25.34-.51.6-.59a1.75,1.75,0,0,1,.85-.17"/><text class="cls-14" transform="translate(252.12 37.79) scale(0.99 1)">p</text><text class="cls-14" transform="translate(274.49 37.79) scale(0.99 1)">r</text><text class="cls-14" transform="translate(289.18 37.79) scale(0.99 1)">sente</text><path class="cls-15" d="M134.11,438.31H308.9A33.11,33.11,0,0,1,342,471.44v.34a33.11,33.11,0,0,1-33.13,33.13H134.11A33.11,33.11,0,0,1,101,471.78v-.34A33,33,0,0,1,134.11,438.31Z"/><path class="cls-16" d="M134.11,438.31H308.9A33.11,33.11,0,0,1,342,471.44v.34a33.11,33.11,0,0,1-33.13,33.13H134.11A33.11,33.11,0,0,1,101,471.78v-.34A33,33,0,0,1,134.11,438.31Z"/><path class="cls-1" d="M251.09,480.83H236V456.92c0-.17-.17-.25-.34-.25h-8.71a.28.28,0,0,0-.26.25h0V489.2a.27.27,0,0,0,.26.25h24.16a.38.38,0,0,0,.34-.25v-8a.31.31,0,0,0-.34-.34"/><path class="cls-1" d="M205.24,456.07c-10,0-17.16,7.17-17.16,17s7.26,17,17.16,17,17.16-7.17,17.16-17S215.23,456.07,205.24,456.07Zm5,23.39a7.88,7.88,0,0,1-11-1.45.08.08,0,0,0-.08-.08,8,8,0,0,1,1.53-11.19,7.89,7.89,0,0,1,11,1.45s0,.09.08.09A8,8,0,0,1,210.28,479.46Z"/><path class="cls-1" d="M184,470.41H168.1c-.17,0-.26.09-.34.26h0v6.4c0,.17.17.26.34.26h7.08c-.93,2.82-3.15,4.1-6.83,4.1s-7.51-2.65-7.51-8.54c0-4.87,3.07-8.28,7.43-8.28a7.92,7.92,0,0,1,5.89,2.3.37.37,0,0,0,.43,0h0l6.14-6.06a.27.27,0,0,0,.09-.17c0-.09,0-.17-.09-.17A16.14,16.14,0,0,0,168.87,456c-10.25,0-17.42,7-17.42,17s7.17,17,17.42,17c7.77,0,15.71-5.64,15.71-16.48,0-1-.09-2-.17-3-.17,0-.26-.17-.43-.09"/><path class="cls-1" d="M270,456c-10,0-17.16,7.18-17.16,17s7.26,17,17.16,17,17.16-7.18,17.16-17S279.87,456,270,456Zm5,23.4a7.89,7.89,0,0,1-11-1.45s0-.09-.08-.09a8,8,0,0,1,1.54-11.18,7.87,7.87,0,0,1,11,1.45.08.08,0,0,0,.09.08A8,8,0,0,1,275,479.38Z"/><path class="cls-17" d="M291.65,456.67v.08h0L288.32,465h0a.35.35,0,0,1-.34.17c-.09,0-.09-.08-.17-.17h0a19.42,19.42,0,0,0-5.64-7.25h-.08a.27.27,0,0,1-.09-.17.23.23,0,0,1,.26-.26h.08l9-.85h0C291.48,456.41,291.56,456.5,291.65,456.67Z"/></g></g></g></svg>