<svg xmlns="http://www.w3.org/2000/svg" viewBox="0 0 503.45 436.17"><defs><style>.cls-1{isolation:isolate;}.cls-2{fill:#fff;}.cls-3{fill:#e0cc00;}.cls-4{fill:#d0af21;}.cls-5{fill:#b68400;}.cls-6{fill:#4197cb;stroke-miterlimit:10;stroke-width:25.59px;}.cls-6,.cls-9{stroke:#fff;}.cls-7,.cls-8{fill:#009ade;}.cls-8{opacity:0.3;mix-blend-mode:multiply;}.cls-9{stroke-linecap:round;stroke-linejoin:round;stroke-width:20.35px;}.cls-10{fill:#011e41;}</style></defs><title>logo-en</title><g class="cls-1"><g id="Layer_2" data-name="Layer 2"><g id="artwork"><path class="cls-2" d="M502.86,153.5,483.55,106a7.84,7.84,0,0,0-9-4.74L449.25,107l7.38-18.21a8,8,0,0,0,.43-4.54l-5.21-26.59a7.86,7.86,0,0,0-9.17-6.25l-42.77,8.16-4.43-26.31a7.92,7.92,0,0,0-4.27-5.78L368.28,16.05a7.78,7.78,0,0,0-7.22.14L331.93,32.07a8,8,0,0,0-4,8.39l-6.24-4.83a7.82,7.82,0,0,0-8.22-.84L287.13,47.7l-5.51-19.38a7.85,7.85,0,0,0-8.73-5.65l-45.94,7A7.88,7.88,0,0,0,220.42,36L218.28,47l-10.58-32a7.89,7.89,0,0,0-5.88-5.26l-46-9.52a7.75,7.75,0,0,0-6.07,1.27,7.94,7.94,0,0,0-3.28,5.31L142.32,34a8,8,0,0,0,.62,4.47L150,54.15l-.29.3a1.74,1.74,0,0,1-.11-.18L138.38,38.38a7.84,7.84,0,0,0-7.9-3.18l-28.89,5.64a7.87,7.87,0,0,0-6,5.56L85.7,80.32,78.31,69.24a7.77,7.77,0,0,0-6.64-3.5l-23.16.37a7.84,7.84,0,0,0-7,4.48l-14.79,31a8,8,0,0,0,1,8.53l2.49,3-15.93-.71a7.93,7.93,0,0,0-8.14,6.93L.06,168.5A7.94,7.94,0,0,0,4,176.38l14.21,8.18c-.55.14-1,.28-1.45.42l-1.64.55A8,8,0,0,0,11.55,188l-1.11,1.34c-4.85,5.83-5.76,15.22-2.95,30.44l.93,5a7.92,7.92,0,0,0,6.72,6.42l2.53,14.68C9.4,255,4.89,265.59,4.89,275.94c0,15.72,8.2,25.66,22.78,28l.89,5.16-9.25,43.62a12.86,12.86,0,0,0,2.55,10.75,12.6,12.6,0,0,0,9.89,4.78h7l8.72,50.68a20,20,0,0,0,19.86,17.23H413.15A19.9,19.9,0,0,0,433,419.24l9.57-55.61c7.11-4.27,14.78-12.41,17.62-27.92a12.91,12.91,0,0,0-5.52-13,43,43,0,0,0,13.67-31.07c0-9.4-3.37-16.91-9.63-21.73l6.66-38.67a7.9,7.9,0,0,0,6.72-6.42l.93-5c2.82-15.23,1.91-24.62-3-30.45l-.54-.65,31.12-26A8,8,0,0,0,502.86,153.5Z"/><polygon class="cls-3" points="276.84 56.13 243.63 62.76 233.21 41.79 270.93 35.98 276.84 56.13"/><polygon class="cls-3" points="203.22 234.25 194.89 231.14 230.88 47.03 239.77 64.92 203.22 234.25"/><polygon class="cls-4" points="277.35 60.46 220.01 240.49 207.29 235.76 243.69 67.17 277.35 60.46"/><path class="cls-2" d="M274.07,31.09l8.07,28.41L222.68,246.21,189.94,234,228.13,38.13ZM207.29,235.76,220,240.49l57.34-180-33.67,6.71Zm-12.4-4.62,8.33,3.11L239.77,64.92,230.88,47ZM243.63,62.76l33.21-6.63L270.93,36l-37.72,5.81Z"/><polygon class="cls-3" points="154.85 32.8 188.34 41.19 195.75 21.32 157.94 13.47 154.85 32.8"/><polygon class="cls-3" points="251.14 210.93 258.91 208.38 198.75 26.57 192.43 43.52 251.14 210.93"/><polygon class="cls-4" points="154.94 36.99 235.5 216.05 247.36 212.18 188.89 45.49 154.94 36.99"/><path class="cls-2" d="M154.19,8.52l-4.1,27.26,83.56,185.71,30.51-10L200.25,18Zm93.17,203.65-11.86,3.88L154.94,37l33.95,8.5Zm11.55-3.79-7.77,2.55L192.43,43.52l6.32-17ZM188.34,41.19,154.85,32.8l3.09-19.33,37.82,7.85Z"/><path class="cls-5" d="M214.21,114c-1.16-3.53-8.15-9.4-15.14-14.1S174.62,94,174.62,94l6.25,32.62Z"/><path class="cls-2" d="M213.72,84.73c-3.17,3.82-10.56-2.41-12.91,5.78-1.09,3.76,2.47,6.39,2.13,9.2s-5.79,5.84-6.43,12.35,5.18,13,11,12.84,8.57-3.16,12.84-8.05,5.16-4.59,13.21-3.77c8.4.85,16.42-9.65,16.51-16.48.09-6.14-4.61-15.59-15.21-7.5C226.57,95.41,222,74.77,213.72,84.73Z"/><polygon class="cls-3" points="381.21 35.26 357.38 52.19 341.79 41.37 365.83 27.75 381.21 35.26"/><polygon class="cls-4" points="396.06 204.42 388.1 205.26 341.51 45.58 355.97 56.2 396.06 204.42"/><polygon class="cls-3" points="384.26 37.84 412.07 202.72 399.93 204.01 360.04 56.44 384.26 37.84"/><path class="cls-2" d="M364.8,23.75l22.92,11.44,28.83,171-31.23,3.3L335.67,39.64ZM399.93,204l12.14-1.29L384.26,37.84,360,56.44Zm-11.84,1.25,8-.84L356,56.2,341.51,45.58ZM357.38,52.19l23.83-16.93-15.38-7.51-24,13.62Z"/><polygon class="cls-3" points="444.6 83.4 412.52 90.96 404.44 71.5 440.73 64.55 444.6 83.4"/><polygon class="cls-3" points="359.38 254.91 351.74 252.29 401.78 76.55 408.67 93.15 359.38 254.91"/><polygon class="cls-4" points="444.71 87.48 374.77 260.18 363.11 256.19 412.19 95.13 444.71 87.48"/><path class="cls-2" d="M444.14,59.8l5.21,26.59-72.54,179.1-30-10.26,53.14-187Zm-81,196.39,11.66,4,69.94-172.7-32.52,7.65Zm-11.37-3.9,7.65,2.62L408.67,93.15l-6.89-16.6ZM412.53,91,444.6,83.4l-3.87-18.85-36.29,7Z"/><path class="cls-5" d="M421.5,161c-12.23-7-14.88-19.1-29.12-21.15-12.23-1.76-16.88-15.86-32-8.81-6.17,2.87-8.6,27.4-8.6,27.4l23.15,4.33,25.62,7.05Z"/><polygon class="cls-3" points="450.68 120.1 463.15 155.22 489.19 154.18 473.38 115.18 450.68 120.1"/><polygon class="cls-4" points="321.45 283.59 329.16 289.92 485.49 159.14 463.27 160.04 321.45 283.59"/><polygon class="cls-3" points="446.24 121.88 305.94 270.86 317.69 280.51 458.88 157.49 446.24 121.88"/><path class="cls-2" d="M476.28,109.62l-31.85,7.19-145.5,154.5,30.26,24.84,166.4-139.06ZM317.69,280.51l-11.75-9.65,140.3-149,12.65,35.61Zm11.47,9.41-7.71-6.33L463.27,160l22.22-.9Zm134-134.7L450.68,120.1l22.7-4.92,15.81,39Z"/><path class="cls-5" d="M384.52,172.85c3.76,0,23.14,6.61,36.25,8.37,6.21.84,10.91,2.21,18.77,9.26,4.24,3.8-54.2,5.92-54.2,5.92Z"/><path class="cls-2" d="M304,83.17c-6.27,6.32-18.53-1.2-23.19,8.2s6.4,11.45,8.73,17.32-4.67,18,4.65,16.85,8.59-9.29,16.74-10.46,13.94.54,16.26-10,3.1-15.94-2.73-20.64S314.2,72.83,304,83.17Z"/><path class="cls-2" d="M320.54,78.32c-6.28,6.33-18.54-1.19-23.2,8.2s6.41,11.46,8.74,17.33-4.67,18,4.64,16.85,8.6-9.29,16.75-10.47,13.93.55,16.26-10,3.09-15.93-2.73-20.63S330.78,68,320.54,78.32Z"/><path class="cls-2" d="M427.39,122.19c-4.1,4.58-12.12-.87-15.17,5.94s4.19,8.29,5.72,12.54-3.06,13,3,12.19,5.63-6.72,11-7.57,9.12.39,10.64-7.26,2-11.54-1.79-14.94S434.1,114.71,427.39,122.19Z"/><path class="cls-2" d="M161.14,75.68c-6.26,6.33-18.53-1.19-23.19,8.2s6.41,11.46,8.74,17.33-4.68,18,4.64,16.84,8.59-9.28,16.74-10.46,13.94.55,16.27-10,3.09-15.93-2.73-20.63S171.38,65.35,161.14,75.68Z"/><path class="cls-5" d="M243.32,112.78c2.33-5.88,21-17.63,29.12-17.63S292.23,94,298.05,97.5s5.86,34.55,5.86,34.55L272.44,144.5Z"/><path class="cls-2" d="M282.26,111.16c-2.48,2.7-7.63-.2-9.4,3.73s2.81,4.61,3.85,7-1.64,7.47,2.17,6.84,3.39-4,6.72-4.56,5.73,0,6.53-4.37,1-6.6-1.45-8.44S286.31,106.75,282.26,111.16Z"/><polygon class="cls-3" points="138.39 57.77 112.86 65.73 106.71 52.34 130.81 47.24 138.39 57.77"/><polygon class="cls-4" points="67.63 205.5 61.42 204.07 104.48 55.84 109.9 68.76 67.63 205.5"/><polygon class="cls-3" points="139.38 60.78 80.12 208.37 70.66 206.19 112.74 70.06 139.38 60.78"/><path class="cls-2" d="M132,43.57l11.2,15.89L81.72,212.53l-24.37-5.61,45.73-157.7ZM70.65,206.19l9.47,2.18L139.38,60.78l-26.64,9.28Zm-9.23-2.12,6.21,1.43L109.9,68.76l-5.42-12.92ZM112.86,65.73l25.53-8-7.58-10.53-24.1,5.1Z"/><polygon class="cls-3" points="66.81 77.69 56.6 106.97 39.39 104.17 51.35 78.08 66.81 77.69"/><polygon class="cls-4" points="159.65 239.72 153.92 244.67 41.2 108.53 57.45 111.72 159.65 239.72"/><polygon class="cls-3" points="70.41 78.7 171.16 229.74 162.44 237.3 60.69 109.86 70.41 78.7"/><path class="cls-2" d="M48.63,74.62l23.16-.36L176.28,230.91l-22.46,19.44-120-144.77ZM162.43,237.3l8.73-7.56L70.41,78.7l-9.72,31.16Zm-8.51,7.37,5.73-4.95-102.2-128L41.2,108.53ZM56.6,107,66.81,77.69l-15.46.4-12,26.08Z"/><polygon class="cls-3" points="253.03 124.79 209.49 137.67 180.83 121.5 231.4 108.37 253.03 124.79"/><polygon class="cls-4" points="262.78 296.67 248.75 295.72 180.87 126.59 205.32 140.38 262.78 296.67"/><polygon class="cls-3" points="256.56 128.47 291.02 298.57 269.62 297.13 212.43 141.53 256.56 128.47"/><path class="cls-2" d="M171.13,119.37l72.37,180,55.1,3.7L262.86,126.61l-30.11-23.19Zm41.3,22.16,44.14-13.06L291,298.57l-21.4-1.44Zm-31.56-14.94,24.45,13.79,57.46,156.29-14-.95Zm0-5.09,50.57-13.13L253,124.79l-43.54,12.88Z"/><polygon class="cls-3" points="149.71 70.59 174.5 81.73 183.2 68.9 159.38 60.83 149.71 70.59"/><polygon class="cls-4" points="195.95 228.9 202.59 228.19 184.87 72.72 177 85.16 195.95 228.9"/><polygon class="cls-3" points="148.16 73.53 182.62 230.31 192.73 229.24 173.84 86.14 148.16 73.53"/><path class="cls-2" d="M158.83,57,144.49,71.73l35.75,162.6,26-2.75L187.48,66.17Zm33.9,172.27-10.11,1.07L148.16,73.53l25.68,12.61Zm9.86-1.05-6.64.71L177,85.16l7.87-12.44ZM174.5,81.73,149.71,70.59l9.67-9.76L183.2,68.9Z"/><path class="cls-2" d="M178.6,130.58c-3.5-1-1.8-7.19-7.88-6.5-2.79.32-3.38,3.22-5.31,3.75s-5.64-2.06-10.08-.75-6.81,6.63-4.88,10.19,4.78,4.49,9.32,5.85,4.64,2,6.67,7.22c2.11,5.44,11.49,7.66,16,5.93,4-1.56,8.69-7,.05-11.42C175.73,141.38,187.72,133.13,178.6,130.58Z"/><path class="cls-2" d="M96.69,103.68c-3.18,3.81-10.57-2.41-12.92,5.78-1.08,3.76,2.48,6.4,2.14,9.19S80.12,124.5,79.48,131s5.18,13,11,12.83,8.56-3.15,12.83-8,5.17-4.6,13.21-3.78c8.41.86,16.42-9.64,16.52-16.47.09-6.14-4.61-15.59-15.21-7.5C109.54,114.35,105,93.72,96.69,103.68Z"/><polygon class="cls-3" points="309.64 111.52 320.71 142.28 347.08 147.27 332.8 112.67 309.64 111.52"/><polygon class="cls-4" points="171.86 212.83 179.37 219.59 343.12 150.4 320.63 146.14 171.86 212.83"/><polygon class="cls-3" points="305.08 111.94 156.74 199.22 168.19 209.53 316.3 143.13 305.08 111.94"/><path class="cls-2" d="M336,108.9l-32.51-1.41L149.63,198l29.5,26.54L353.41,151ZM168.19,209.53l-11.45-10.31,148.34-87.28,11.22,31.19Zm11.18,10.06-7.51-6.76,148.77-66.69,22.49,4.26Zm141.34-77.31-11.07-30.76,23.16,1.15,14.28,34.6Z"/><polygon class="cls-3" points="329.28 56.3 303.26 72.87 291.49 59.89 316.91 46.94 329.28 56.3"/><polygon class="cls-4" points="302.43 241.49 294.9 241.79 290.23 64.45 301 77.13 302.43 241.49"/><polygon class="cls-3" points="331.47 59.34 317.59 240.88 306.1 241.34 304.69 77.7 331.47 59.34"/><path class="cls-2" d="M316.91,42.52l18.38,14.21L320.89,245l-29.57,1.19L286.26,57.53ZM306.1,241.34l11.49-.46L331.47,59.34,304.69,77.7Zm-11.2.45,7.53-.3L301,77.13,290.23,64.45Zm8.36-168.92,26-16.56-12.37-9.37-25.42,13Z"/><polygon class="cls-3" points="224.5 89.88 249.79 99.16 257.05 85.92 232.98 79.6 224.5 89.88"/><polygon class="cls-4" points="285.05 242.63 291.46 241.48 259.04 89.56 252.56 102.36 285.05 242.63"/><polygon class="cls-3" points="223.27 92.87 272.16 244.92 281.93 243.18 249.58 103.53 223.27 92.87"/><path class="cls-2" d="M232.08,75.83,219.51,91.35l50.72,157.7,25.14-4.49L261,82.94Zm49.85,167.35-9.77,1.74-48.89-152,26.31,10.66Zm9.53-1.7-6.41,1.15L252.56,102.36,259,89.56ZM249.79,99.16,224.5,89.88,233,79.6l24.07,6.32Z"/><path class="cls-5" d="M153.66,146.26c6.4-1.17,19.39-8.95,26.78-10.57,13.39-2.94,28.53-1.18,37.85,1.76s4.07,21.15,4.07,21.15l-2.91,17.63-51.23-4.11Z"/><path class="cls-5" d="M134,136.94c-4.37-.88-19.84-10.52-36.82-5.95-13.1,3.52-17.47,18.5-27.07,22.91-8.61,3.95,21.83,20.27,21.83,20.27L132.11,161Z"/><polygon class="cls-3" points="39.5 126.5 36.56 162.58 12.92 166.15 17.95 125.74 39.5 126.5"/><polygon class="cls-4" points="194.09 261.55 188.65 269 17.41 170.29 37.58 167.25 194.09 261.55"/><polygon class="cls-3" points="43.91 127.44 205.03 246.54 196.74 257.91 40.92 164.02 43.91 127.44"/><path class="cls-2" d="M14,120.89l30.3,1.34,167.1,123.51L190.09,275,7.86,170.08Zm182.71,137L205,246.54,43.91,127.44l-3,36.58ZM188.65,269l5.44-7.46L37.58,167.25l-20.17,3ZM36.56,162.58,39.5,126.5,18,125.74l-5,40.41Z"/><polygon class="cls-3" points="163.43 109.83 130.33 127.28 110.96 108.63 149.23 90.6 163.43 109.83"/><polygon class="cls-4" points="153.67 319.69 143.5 319.09 110.49 114.85 127.01 130.77 153.67 319.69"/><polygon class="cls-3" points="165.66 114.19 174.14 320.92 158.63 319.99 132.09 131.89 165.66 114.19"/><path class="cls-2" d="M150.71,84.49l19.74,27.18,8.78,214.39-39.92-2.38L104.08,106.4ZM158.63,320l15.51.93-8.48-206.73-33.56,17.7Zm-15.13-.9,10.17.6L127,130.77l-16.52-15.92ZM130.33,127.28l33.1-17.45L149.23,90.6l-38.27,18Z"/><path class="cls-5" d="M76,177.48c-4.08,0-17.1,4-19.43,6.39s-6.55,7-7.14,9.4,24.46,2.34,24.46,2.34Z"/><polygon class="cls-3" points="116.67 162.14 89.92 181.93 73.3 167.4 104.28 146.46 116.67 162.14"/><polygon class="cls-4" points="115.75 353.12 107.33 353.8 73.12 173.09 87.3 185.48 115.75 353.12"/><polygon class="cls-3" points="118.65 165.82 132.69 351.74 119.85 352.78 91.54 185.88 118.65 165.82"/><path class="cls-2" d="M105.29,140.76,122.52,163l14.55,192.82-33,2.68L67.54,166.22Zm14.56,212,12.84-1-14-185.92L91.54,185.88Zm-12.52,1,8.42-.68L87.3,185.48,73.12,173.09ZM89.92,181.93l26.75-19.79-12.39-15.68-31,20.94Z"/><path class="cls-5" d="M88.88,193.56c24-2.64,48.91-35.25,69.87-20.27,32.08,22.93,12.23,28.2,12.23,28.2l-82.1-7.93"/><polygon class="cls-3" points="363.26 113.87 331.09 121.97 321.15 102.17 357.69 94.63 363.26 113.87"/><polygon class="cls-3" points="290.72 290.27 282.67 287.68 318.85 107.36 327.33 124.26 290.72 290.27"/><polygon class="cls-4" points="363.72 118.04 306.92 295.48 294.64 291.54 331.1 126.25 363.72 118.04"/><path class="cls-2" d="M360.77,89.74l7.6,27.13-58.91,184-31.6-10.15,38.4-191.87ZM294.64,291.53l12.28,4L363.72,118l-32.62,8.2Zm-12-3.85,8.05,2.59,36.61-166-8.48-16.9ZM331.09,122l32.17-8.1-5.57-19.24-36.54,7.54Z"/><polygon class="cls-3" points="334.62 168.19 304.56 157.71 305.81 138.25 332.85 150.8 334.62 168.19"/><polygon class="cls-4" points="181.61 278.25 176.17 271.98 301.63 140.44 299.91 158.83 181.61 278.25"/><polygon class="cls-3" points="333.94 172.26 192.56 290.86 184.26 281.31 302.05 162.41 333.94 172.26"/><path class="cls-2" d="M336.06,147.62l2.43,26-146.63,123-21.36-24.6,133.41-140ZM184.26,281.31l8.3,9.55,141.38-118.6-31.89-9.85ZM176.17,272l5.44,6.27,118.3-119.42,1.72-18.39ZM304.56,157.71l30.06,10.48-1.77-17.39-27-12.55Z"/><path class="cls-5" d="M250,165.8c7-2.35,5.68-10.14,17.91-10.14,12.69,0,14,15.42,26.2,19.39,6,1.94,22.27,3.09,21.39,20-.68,13-67.54,9.4-67.54,9.4Z"/><path class="cls-2" d="M349.91,136c-6.28,6.33-18.54-1.2-23.2,8.21s6.41,11.44,8.74,17.32-4.67,18,4.64,16.85,8.6-9.29,16.75-10.47,13.93.55,16.26-10,3.09-15.93-2.73-20.63S360.15,125.68,349.91,136Z"/><path class="cls-2" d="M238.55,117.52c-6.27,6.32-18.53-1.2-23.19,8.2s6.4,11.45,8.73,17.32-4.67,18,4.65,16.84,8.59-9.28,16.74-10.46,13.94.55,16.26-10,3.1-15.94-2.73-20.64S248.79,107.18,238.55,117.52Z"/><path class="cls-2" d="M154.91,139.22c-2.65,3.52-10.53-2.4-11.89,5.22-.62,3.51,3.14,6,3.13,8.63s-5,5.4-4.84,11.47,6.51,12.21,12.12,12.16,7.95-2.83,11.54-7.34,4.49-4.23,12.4-3.35c8.26.91,14.84-8.8,14.17-15.18-.62-5.74-6.26-14.65-15.64-7.23C168.61,149.38,161.84,130,154.91,139.22Z"/><polygon class="cls-3" points="397.67 174.75 361.84 176.53 355.24 153.35 395.6 153.09 397.67 174.75"/><polygon class="cls-3" points="285.24 347.08 277.2 342.61 351.76 158.39 357.39 178.17 285.24 347.08"/><polygon class="cls-4" points="397.32 179.28 301.42 356.06 289.16 349.25 361 181.09 397.32 179.28"/><path class="cls-2" d="M399.85,148.54,402.5,179,303,362.36l-31.55-17.51,79.23-196ZM289.16,349.25l12.26,6.81,95.9-176.78L361,181.09Zm-12-6.64,8,4.47,72.15-168.91-5.63-19.78Zm84.64-166.07,35.83-1.79-2.07-21.66-40.36.26Z"/><polygon class="cls-3" points="203.14 141.27 236.34 150.22 243.71 130.69 206.22 122.18 203.14 141.27"/><polygon class="cls-3" points="298.43 319.54 306.13 317.17 246.68 135.94 240.39 152.6 298.43 319.54"/><polygon class="cls-4" points="203.22 145.42 282.92 324.31 294.67 320.7 236.88 154.5 203.22 145.42"/><path class="cls-2" d="M202.51,117.21l-4.09,26.92,82.66,185.52,30.25-9.3L248.17,127.52ZM294.67,320.7l-11.75,3.61-79.7-178.89,33.66,9.08Zm11.46-3.53-7.7,2.37-58-166.94,6.29-16.66Zm-69.79-167-33.2-8.95,3.08-19.09,37.49,8.51Z"/><polygon class="cls-3" points="183.27 157.27 180.95 190.88 159.98 197.57 165.39 166.07 183.27 157.27"/><polygon class="cls-4" points="344.52 261.92 339.47 269.78 163.52 200.77 183.5 194.97 344.52 261.92"/><polygon class="cls-4" points="187.79 156.28 354.68 246.09 346.98 258.08 186.67 191.42 187.79 156.28"/><path class="cls-2" d="M161.07,164.24l26.88-13L361,244.42l-19.82,30.86L154,202ZM347,258.08l7.7-12L187.79,156.28l-1.12,35.14Zm-7.51,11.7,5-7.86-161-67-20,5.8ZM181,190.88l2.32-33.61-17.88,8.8L160,197.57Z"/><path class="cls-2" d="M239.15,177.5c2.46,2.06-6.63,5.47-3,7.29s5.12-.61,7.53-.31,3.92,4.87,8.44,3,7.94-3,5.42-7.59c-3-5.47-8.11-.23-10.24-4C244,170.2,233.73,172.93,239.15,177.5Z"/><path class="cls-2" d="M27.34,156.91c3,4.55-4.19,7.9,1.18,12.59s8.76.34,13.07.94,11.08,7.1,12,2.63-4.57-6.4-3.86-10.35,2.92-6-3.66-10-10-5.8-14.16-4.53S22.37,149.49,27.34,156.91Z"/><path class="cls-6" d="M370.76,195.33c-47.05-.84-101.05-1.3-130.07-1.31h-.91c-29.07,0-83.08.47-130.07,1.31-40.77.74-83,1.75-88.57,3.62-.47.57-2.63,4.08.09,18.78h.54a6.14,6.14,0,0,1,6,5.25L61.28,417.41a6.09,6.09,0,0,0,6,5.24H413.15a6.09,6.09,0,0,0,6-5.24L452.66,223a6.14,6.14,0,0,1,6-5.25h.55c2.71-14.71.56-18.22.08-18.78C453.77,197.08,411.53,196.07,370.76,195.33Z"/><path class="cls-7" d="M370.76,195.33c-47.05-.84-101.05-1.3-130.07-1.31h-.91c-29.07,0-83.08.47-130.07,1.31-40.77.74-83,1.75-88.57,3.62-.47.57-2.63,4.08.09,18.78h.54a6.14,6.14,0,0,1,6,5.25L61.28,417.41a6.09,6.09,0,0,0,6,5.24H413.15a6.09,6.09,0,0,0,6-5.24L452.66,223a6.14,6.14,0,0,1,6-5.25h.55c2.71-14.71.56-18.22.08-18.78C453.77,197.08,411.53,196.07,370.76,195.33Z"/><path class="cls-8" d="M242.42,216.76h-4.37c-74.73.2-147.44,1.78-197.38,4.12,0,0,21,130.43,71.62,150.7,24.31,9.73,76.58,13.56,128,13.07,51.36.49,103.63-3.34,128-13.07,50.65-20.27,71.61-150.7,71.61-150.7C389.86,218.54,317.16,217,242.42,216.76Z"/><path class="cls-9" d="M140.61,260.53c6.7,1.5,13.47,8.4,21.66,8.4a13.81,13.81,0,0,0,5.42-1c-.64,6.24-3.22,10.21-6.71,10.21-9.22,0-17.34-14.77-28.75-14.77a10.62,10.62,0,0,0-1.49.07l9.61-45.09c-5.61,2.34-9,7.22-9,14.18a9,9,0,0,0,.9,4.42c-4.45,0-6.9-1.62-6.9-6.3,0-8.66,11.86-16.92,22.63-16.92.9,0,1.74.07,2.58.13Z"/><path class="cls-9" d="M180.32,229.3l-4.64,22.12a9.28,9.28,0,0,0-.25,2.08c0,1.83.83,2.41,2.64,2.41a3.34,3.34,0,0,0,1.42-.25c-1.74,4.55-3,6.56-6.45,6.56s-5.8-2.27-6.32-6.05c-1.93,3-5,6.05-9.6,6.05-4.39,0-8.58-2.73-8.58-10.47,0-8.78,5.35-22.77,16.57-22.77,3.67,0,5.22,1.43,5.22,3.32v.45l.71-3.45Zm-22.24,21.54c0,5,2.07,5.07,3.22,5.07,1.88,0,4.58-1.95,5.36-5.73l3.09-14.69a2.51,2.51,0,0,0-2.64-2.47C161.63,233,158.08,244.72,158.08,250.84Z"/><path class="cls-9" d="M77.41,249.6,66,303.78c16.24-1.3,28.14-22.55,28.14-39.9,0-12-5.79-22.07-19.94-22.07-26,0-41.63,14.76-41.63,39.42,0,8.27,2.09,9.57,2.25,11-11.09,0-17.2-4.06-17.2-15.73,0-21.57,29.58-42.17,56.42-42.17,26.36,0,37.93,15.24,37.93,31.94,0,20.61-17.51,43.48-46.45,43.48h-.8L54.9,356H31.75L53.61,252.85Z"/><path class="cls-9" d="M155.89,302.05a3.63,3.63,0,0,0,1.68.3c7,0,17-4.63,23.54-9.25l1.37,4.16c-5.8,6.33-15.89,10.95-27,12.8-2.45,28.53-17.73,46.42-36.53,46.42-14.21,0-24.45-6.79-24.45-24.36,0-17.74,10.39-54.75,41.87-54.75C149.47,277.37,155.89,285.85,155.89,302.05Zm-13.15,8.48c-3.2-.78-4.12-3.4-4.12-6.48,0-4.32,2-7.09,4.74-8.33-.31-6.48-1.84-8.94-5.81-8.94-10.85,0-20.32,28.21-20.32,43.33,0,10.18,2,12.49,7.79,12.49C132.51,342.6,140.3,328.72,142.74,310.53Z"/><path class="cls-9" d="M233.83,278.75l-11,52.44a21.49,21.49,0,0,0-.61,4.94c0,4.31,2,5.7,6.26,5.7,6,0,10.09-5.86,12.38-13.57h6.42c-8.71,25.13-22.46,28.53-30.71,28.53-8.72,0-14.22-5.09-15.13-14.65-7.65,12.64-16.21,14.65-22.62,14.65-9.17,0-16.36-5.55-16.36-18.51a51.27,51.27,0,0,1,1.22-10l10.39-49.51h22l-11,52.44a22.21,22.21,0,0,0-.46,4.31c0,3.55,1.22,6.33,4.59,6.33,5.95,0,9.93-5.86,12.23-13.57l10.38-49.51Z"/><path class="cls-9" d="M278.46,254.39l-5.2,24.36h9.17l-1.22,6.18H272l-9.78,46.26a21.57,21.57,0,0,0-.62,4.94c0,4.31,2,5.7,6.27,5.7,6,0,11.46-5.86,13.76-13.57h6.42c-8.72,25.13-23.85,28.53-32.1,28.53-9.17,0-16.35-5.55-16.35-18.51a50.52,50.52,0,0,1,1.22-10L250,284.93h-5l1.22-6.18h5l4.59-21.27Z"/><path class="cls-9" d="M314.07,278.75l-11,52.44a21.49,21.49,0,0,0-.61,4.94c0,4.31,2,5.7,6.27,5.7,6,0,11.46-5.86,13.75-13.57h6.42c-8.71,25.13-23.85,28.53-32.09,28.53-9.17,0-16.36-5.55-16.36-18.51a50.59,50.59,0,0,1,1.23-10l10.39-49.51Zm-6.88-32.84a12.32,12.32,0,0,1,12.23,12.34,12.19,12.19,0,0,1-12.23,12.18,12.05,12.05,0,0,1-12.07-12.18A12.18,12.18,0,0,1,307.19,245.91Z"/><path class="cls-9" d="M361,292.17c-5.5,0-9.63,6.48-11.92,14.19l-10.39,49.5h-22l16.2-77.11h22l-1.68,8c6.41-7.41,13.13-8.64,17.88-8.64,9.78,0,17,5.09,17,17.42,0,12.5-7.34,31.16-7.34,39.79,0,3.86,1.53,6.48,6.12,6.48,6.72,0,9.47-5.55,12.83-13.57h6.43c-8.57,25.29-20.33,28.53-28.43,28.53-13.3,0-18-8.63-18-17.42,0-10.49,6.88-29.46,6.88-39.33C366.48,295,364.64,292.17,361,292.17Z"/><path class="cls-9" d="M429.6,342.14c5.81,0,13.14-3.86,18-8.18-3.21,17.58-14.21,22.83-26.44,22.83-14.21,0-23.69-7.1-23.69-24.52,0-17.73,9.94-54.9,41.27-54.9,13.6,0,16.81,7.09,16.81,14.8,0,17.89-16.81,31.46-35.15,32.54-.16,1.55-.31,3.24-.31,4.63C420.12,339.05,424.25,342.14,429.6,342.14ZM440,285.54c-7.64,0-15.28,17.12-18.49,31.77,11.92-.61,22.31-12.49,22.31-25.45C443.81,288,442.89,285.54,440,285.54Z"/><path class="cls-9" d="M296.44,401.1,310,361.28h8.45V401.1l13.86-39.82h4.52l-17.93,48.47h-9.54V376.64l-12.77,33.11h-9.48V365.32c-7,2.21-10.44,7.28-10.44,14.44a9.27,9.27,0,0,0,.9,4.43c-4.45,0-6.9-1.63-6.9-6.32,0-8.65,11.86-16.91,22.63-16.91.91,0,1.75.06,2.58.13Z"/><path class="cls-9" d="M341.89,404.68c5.09,0,8.19-2.86,11.42-6.57h2.19c-3.68,6-9.15,12-17.73,12-6.06,0-10.06-3-10.06-10.34s4.19-23.16,17.4-23.16c5.75,0,7.1,3,7.1,6.24,0,7.48-7.1,13.27-14.83,13.73-.07.91-.13,1.82-.13,2.6C337.25,403.64,338.8,404.68,341.89,404.68Zm3.74-24.59c-3.28,0-6.44,7-7.74,13.4,5-.33,9.36-5.34,9.36-10.74C347.25,381.12,346.86,380.09,345.63,380.09Z"/><path class="cls-9" d="M366.65,404.68c5.09,0,8.19-2.86,11.41-6.57h2.2c-3.68,6-9.16,12-17.73,12-6.07,0-10.07-3-10.07-10.34s4.19-23.16,17.41-23.16c5.74,0,7.1,3,7.1,6.24,0,7.48-7.1,13.27-14.84,13.73-.06.91-.12,1.82-.12,2.6C362,403.64,363.56,404.68,366.65,404.68Zm3.74-24.59c-3.29,0-6.45,7-7.74,13.4,5-.33,9.35-5.34,9.35-10.74C372,381.12,371.62,380.09,370.39,380.09Z"/><path class="cls-9" d="M408.49,377.23l-12.89,9a12.77,12.77,0,0,1,2.12-.25c4.78,0,7.1,3.45,7.1,7.61a10.76,10.76,0,0,1-.26,2.47l-.71,3.25a10.75,10.75,0,0,0-.32,2.08c0,1.31.52,2.41,2.51,2.41a4.12,4.12,0,0,0,2.26-.39c-.32,4.62-4.32,6.7-6,6.7-5.3,0-8.13-2.66-8.13-7.41a16.49,16.49,0,0,1,.39-3.39l.51-2.54a11.12,11.12,0,0,0,.26-2.4c0-1.89-.64-3.12-2.32-3.12-1.48,0-3,.91-4.77,2.4l-3.36,16.07h-9.28L385,365.51l9.54-1.3-4.83,22.9,12.44-9.88Z"/><path class="cls-10" d="M140.61,260.53c6.7,1.5,13.47,8.4,21.66,8.4a13.81,13.81,0,0,0,5.42-1c-.64,6.24-3.22,10.21-6.71,10.21-9.22,0-17.34-14.77-28.75-14.77a10.62,10.62,0,0,0-1.49.07l9.61-45.09c-5.61,2.34-9,7.22-9,14.18a9,9,0,0,0,.9,4.42c-4.45,0-6.9-1.62-6.9-6.3,0-8.66,11.86-16.92,22.63-16.92.9,0,1.74.07,2.58.13Z"/><path class="cls-10" d="M180.32,229.3l-4.64,22.12a9.28,9.28,0,0,0-.25,2.08c0,1.83.83,2.41,2.64,2.41a3.34,3.34,0,0,0,1.42-.25c-1.74,4.55-3,6.56-6.45,6.56s-5.8-2.27-6.32-6.05c-1.93,3-5,6.05-9.6,6.05-4.39,0-8.58-2.73-8.58-10.47,0-8.78,5.35-22.77,16.57-22.77,3.67,0,5.22,1.43,5.22,3.32v.45l.71-3.45Zm-22.24,21.54c0,5,2.07,5.07,3.22,5.07,1.88,0,4.58-1.95,5.36-5.73l3.09-14.69a2.51,2.51,0,0,0-2.64-2.47C161.63,233,158.08,244.72,158.08,250.84Z"/><path class="cls-10" d="M77.41,249.6,66,303.78c16.24-1.3,28.14-22.55,28.14-39.9,0-12-5.79-22.07-19.94-22.07-26,0-41.63,14.76-41.63,39.42,0,8.27,2.09,9.57,2.25,11-11.09,0-17.2-4.06-17.2-15.73,0-21.57,29.58-42.17,56.42-42.17,26.36,0,37.93,15.24,37.93,31.94,0,20.61-17.51,43.48-46.45,43.48h-.8L54.9,356H31.75L53.61,252.85Z"/><path class="cls-10" d="M155.89,302.05a3.63,3.63,0,0,0,1.68.3c7,0,17-4.63,23.54-9.25l1.37,4.16c-5.8,6.33-15.89,10.95-27,12.8-2.45,28.53-17.73,46.42-36.53,46.42-14.21,0-24.45-6.79-24.45-24.36,0-17.74,10.39-54.75,41.87-54.75C149.47,277.37,155.89,285.85,155.89,302.05Zm-13.15,8.48c-3.2-.78-4.12-3.4-4.12-6.48,0-4.32,2-7.09,4.74-8.33-.31-6.48-1.84-8.94-5.81-8.94-10.85,0-20.32,28.21-20.32,43.33,0,10.18,2,12.49,7.79,12.49C132.51,342.6,140.3,328.72,142.74,310.53Z"/><path class="cls-10" d="M233.83,278.75l-11,52.44a21.49,21.49,0,0,0-.61,4.94c0,4.31,2,5.7,6.26,5.7,6,0,10.09-5.86,12.38-13.57h6.42c-8.71,25.13-22.46,28.53-30.71,28.53-8.72,0-14.22-5.09-15.13-14.65-7.65,12.64-16.21,14.65-22.62,14.65-9.17,0-16.36-5.55-16.36-18.51a51.27,51.27,0,0,1,1.22-10l10.39-49.51h22l-11,52.44a22.21,22.21,0,0,0-.46,4.31c0,3.55,1.22,6.33,4.59,6.33,5.95,0,9.93-5.86,12.23-13.57l10.38-49.51Z"/><path class="cls-10" d="M278.46,254.39l-5.2,24.36h9.17l-1.22,6.18H272l-9.78,46.26a21.57,21.57,0,0,0-.62,4.94c0,4.31,2,5.7,6.27,5.7,6,0,11.46-5.86,13.76-13.57h6.42c-8.72,25.13-23.85,28.53-32.1,28.53-9.17,0-16.35-5.55-16.35-18.51a50.52,50.52,0,0,1,1.22-10L250,284.93h-5l1.22-6.18h5l4.59-21.27Z"/><path class="cls-10" d="M314.07,278.75l-11,52.44a21.49,21.49,0,0,0-.61,4.94c0,4.31,2,5.7,6.27,5.7,6,0,11.46-5.86,13.75-13.57h6.42c-8.71,25.13-23.85,28.53-32.09,28.53-9.17,0-16.36-5.55-16.36-18.51a50.59,50.59,0,0,1,1.23-10l10.39-49.51Zm-6.88-32.84a12.32,12.32,0,0,1,12.23,12.34,12.19,12.19,0,0,1-12.23,12.18,12.05,12.05,0,0,1-12.07-12.18A12.18,12.18,0,0,1,307.19,245.91Z"/><path class="cls-10" d="M361,292.17c-5.5,0-9.63,6.48-11.92,14.19l-10.39,49.5h-22l16.2-77.11h22l-1.68,8c6.41-7.41,13.13-8.64,17.88-8.64,9.78,0,17,5.09,17,17.42,0,12.5-7.34,31.16-7.34,39.79,0,3.86,1.53,6.48,6.12,6.48,6.72,0,9.47-5.55,12.83-13.57h6.43c-8.57,25.29-20.33,28.53-28.43,28.53-13.3,0-18-8.63-18-17.42,0-10.49,6.88-29.46,6.88-39.33C366.48,295,364.64,292.17,361,292.17Z"/><path class="cls-10" d="M429.6,342.14c5.81,0,13.14-3.86,18-8.18-3.21,17.58-14.21,22.83-26.44,22.83-14.21,0-23.69-7.1-23.69-24.52,0-17.73,9.94-54.9,41.27-54.9,13.6,0,16.81,7.09,16.81,14.8,0,17.89-16.81,31.46-35.15,32.54-.16,1.55-.31,3.24-.31,4.63C420.12,339.05,424.25,342.14,429.6,342.14ZM440,285.54c-7.64,0-15.28,17.12-18.49,31.77,11.92-.61,22.31-12.49,22.31-25.45C443.81,288,442.89,285.54,440,285.54Z"/><path class="cls-10" d="M296.44,401.1,310,361.28h8.45V401.1l13.86-39.82h4.52l-17.93,48.47h-9.54V376.64l-12.77,33.11h-9.48V365.32c-7,2.21-10.44,7.28-10.44,14.44a9.27,9.27,0,0,0,.9,4.43c-4.45,0-6.9-1.63-6.9-6.32,0-8.65,11.86-16.91,22.63-16.91.91,0,1.75.06,2.58.13Z"/><path class="cls-10" d="M341.89,404.68c5.09,0,8.19-2.86,11.42-6.57h2.19c-3.68,6-9.15,12-17.73,12-6.06,0-10.06-3-10.06-10.34s4.19-23.16,17.4-23.16c5.75,0,7.1,3,7.1,6.24,0,7.48-7.1,13.27-14.83,13.73-.07.91-.13,1.82-.13,2.6C337.25,403.64,338.8,404.68,341.89,404.68Zm3.74-24.59c-3.28,0-6.44,7-7.74,13.4,5-.33,9.36-5.34,9.36-10.74C347.25,381.12,346.86,380.09,345.63,380.09Z"/><path class="cls-10" d="M366.65,404.68c5.09,0,8.19-2.86,11.41-6.57h2.2c-3.68,6-9.16,12-17.73,12-6.07,0-10.07-3-10.07-10.34s4.19-23.16,17.41-23.16c5.74,0,7.1,3,7.1,6.24,0,7.48-7.1,13.27-14.84,13.73-.06.91-.12,1.82-.12,2.6C362,403.64,363.56,404.68,366.65,404.68Zm3.74-24.59c-3.29,0-6.45,7-7.74,13.4,5-.33,9.35-5.34,9.35-10.74C372,381.12,371.62,380.09,370.39,380.09Z"/><path class="cls-10" d="M408.49,377.23l-12.89,9a12.77,12.77,0,0,1,2.12-.25c4.78,0,7.1,3.45,7.1,7.61a10.76,10.76,0,0,1-.26,2.47l-.71,3.25a10.75,10.75,0,0,0-.32,2.08c0,1.31.52,2.41,2.51,2.41a4.12,4.12,0,0,0,2.26-.39c-.32,4.62-4.32,6.7-6,6.7-5.3,0-8.13-2.66-8.13-7.41a16.49,16.49,0,0,1,.39-3.39l.51-2.54a11.12,11.12,0,0,0,.26-2.4c0-1.89-.64-3.12-2.32-3.12-1.48,0-3,.91-4.77,2.4l-3.36,16.07h-9.28L385,365.51l9.54-1.3-4.83,22.9,12.44-9.88Z"/></g></g></g></svg>