<svg xmlns="http://www.w3.org/2000/svg" viewBox="0 0 109.49 59.91"><defs><style>.cls-1,.cls-3{fill:#cd353e}.cls-2{fill:#fff}.cls-3{font-size:4.32px;font-family:HelveticaNeue-CondensedBold,Helvetica Neue;font-weight:700}</style></defs><title>Asset 4</title><g id="Layer_2" data-name="Layer 2"><g id="Layer_1-2" data-name="Layer 1"><ellipse cx="53.46" cy="29.95" class="cls-1" rx="53.46" ry="29.95"/><path d="M9.75,31.54c-.74,2.82.39,5.33,4,5.33A4.13,4.13,0,0,0,17.91,34c.45-1.89-.6-3-1.84-4.27L14.89,28.5c-1.53-1.56-2.7-3-2.14-5.31.8-3.36,4.34-5.46,8.34-5.46a7.38,7.38,0,0,1,5.08,1.74c2.66,2.67-.63,4.38-1.36,4.22a.8.8,0,0,1-.24-.08c.69-2.17-.05-4.57-3.06-4.57-1.69,0-3.77.9-4.14,2.44-.41,1.74.84,2.94,2,4.08l1.06,1.05c1.7,1.65,3.08,3.21,2.48,5.76C22,36,18.34,38.19,14,38.19c-2.39,0-4.75-.71-6.07-2.2C5.41,33,8.32,31.51,9.75,31.54Z" class="cls-2"/><path d="M39.76,45.33,44,36.05H44a3.38,3.38,0,0,0,3.41,2c5.39,0,9.16-5.22,9.63-9.06a5.8,5.8,0,0,0,0-1.12c-.16-1.86-1.42-3.22-4.1-3.22a7.13,7.13,0,0,0-4.93,2L48,26.55l.44-1.05a4.6,4.6,0,0,0-2.71-2.29L36.9,42.87A4.9,4.9,0,0,0,39.76,45.33ZM52.88,28.15c-.27,2.17-2.9,8.21-6.26,8.21a1.58,1.58,0,0,1-1.62-2c.23-1.84,2.75-8.13,6.07-8.13A1.61,1.61,0,0,1,52.88,28.15Z" class="cls-2"/><path d="M38.66,36.19a1.56,1.56,0,0,1-.66.18c-.52,0-.62-.7-.57-1.07a12,12,0,0,1,.87-2.23l3.83-8.14a5.49,5.49,0,0,0-3.87,0l-.94,1.64a3.37,3.37,0,0,0-3.45-2c-5.35,0-9.75,5.13-10.22,9C23.36,36,24.6,38,27.72,38a7.81,7.81,0,0,0,6-3.16l.06,0a8.18,8.18,0,0,0-.24,1.1c-.14,1.1.72,2,2.13,2a5.8,5.8,0,0,0,2.47-.6l.55-1.21ZM36.25,28C36,30.16,33,36.2,29.59,36.2a1.59,1.59,0,0,1-1.55-2c.26-2.14,3.17-8,6.45-8C35.79,26.27,36.37,27,36.25,28Z" class="cls-2"/><path d="M71.66,30.31l2.25-4.37-2-.13L70,25.64l-1.08,1.95c-1,2-4.35,8.46-7.4,8.46-.64,0-1-.24-1-.79A51.62,51.62,0,0,1,63.11,30a12.74,12.74,0,0,0,1.43-3.5c.15-1.18-.88-1.93-2.29-1.93a7.85,7.85,0,0,0-3.89,1.31,2.92,2.92,0,0,1,.32.75,4.37,4.37,0,0,1,1-.26.52.52,0,0,1,.56.64c-.06.48-2.3,5-2.3,5a13.48,13.48,0,0,0-1.48,3.63c-.18,1.48,1,2.39,2.76,2.38,3,0,5.34-1.94,7-4.25l.07.06a7.49,7.49,0,0,0-.55,2A2,2,0,0,0,67.88,38a6.32,6.32,0,0,0,3.74-1.38h0a1.85,1.85,0,0,1-.11-.91s0-.08,0-.12a2.23,2.23,0,0,1-1.09.46c-.59,0-.6-.58-.55-.94A22.85,22.85,0,0,1,71.66,30.31Z" class="cls-2"/><path d="M94.25,24.75c-2-1.37-5.51-2.51-11.64-2.65L84,19a5.24,5.24,0,0,0-3.78,0l-1.51,3.16c-4.06.19-8.87,1.27-17.64-.49l-.24.38c4.89,2,12.36,2.46,16.76,2.46l-3.19,6.71c-.28.63-.66,1.43-1,2.25a6.54,6.54,0,0,0-.69,2.27c-.17,1.35,1.05,2.35,2.72,2.35a7.26,7.26,0,0,0,4.8-2.29v0a3.76,3.76,0,0,1-.38-.87c-.25.23-.63.57-.85.73a2.48,2.48,0,0,1-1.37.55c-.71,0-.78-.5-.73-1a17.35,17.35,0,0,1,1.36-3.49l3.36-7.45c3.35-.33,7.54-.8,9.75.54C88.2,25,85,26,83,28.33A8.46,8.46,0,0,0,81,32.89a7.08,7.08,0,0,0,0,1.55c.43,2.18,2.4,3.63,5.49,3.63,5.2,0,9.74-4.1,10.24-8.16a4.61,4.61,0,0,0-.9-3.67,8,8,0,0,1,3.37,2.27,4.06,4.06,0,0,0,2.12-2C100.59,25.77,97.66,24.92,94.25,24.75ZM90,34.56c-2.46,3.42-6.37,3.5-5-1.37.22-.77,2-7,7.32-7.51a3.12,3.12,0,0,1,.48,1.15C93.21,28.74,91.73,32.23,90,34.56Z" class="cls-2"/><text class="cls-3" transform="translate(98.92 12.67)">MD/®</text></g></g></svg>