<svg xmlns="http://www.w3.org/2000/svg" viewBox="0 0 192.51 100.82"><defs><style>.cls-1{fill:#fff;}.cls-2,.cls-3{fill:#e8232f;}.cls-2,.cls-4{fill-rule:evenodd;}.cls-4,.cls-5{fill:#221f1f;}</style></defs><title>Asset 3</title><g id="Layer_2" data-name="Layer 2"><g id="Layer_1-2" data-name="Layer 1"><path class="cls-1" d="M97,24.3v0h0Z"/><path class="cls-1" d="M46.05,58.55a28.84,28.84,0,0,0-5.64-2.22c2-1.84,6-5.54,9.09-8.61-1.17,3.06-2.54,7.51-3.45,10.83m142.1-34.2a7.12,7.12,0,0,0-4.59-6.16c-2.07-.71-4.53-.28-7.22,1.22a.83.83,0,0,1,0-.15,17.27,17.27,0,0,1,1.16-2.6c.4-.8.81-1.61,1.18-2.48.67-1.48,2.68-6-.47-10.37A7.46,7.46,0,0,0,172.67.43a7.86,7.86,0,0,0-6.29,2.69,10.13,10.13,0,0,0-2.23,3.75A6.49,6.49,0,0,0,162.88,6a7.19,7.19,0,0,0-7.1.59c-.79.51-2.16,1.4-4.22,5.74a7.47,7.47,0,0,0-.87,1,11,11,0,0,0-10.44-1.09,18.16,18.16,0,0,0-8.05,5.94,6.13,6.13,0,0,0-.64-.71,6.86,6.86,0,0,0-6.64-1.55c-2.67.71-5.14,3.13-8.28,8.15a7.42,7.42,0,0,0-3.79-3c-1.84-.63-5.37-1.09-8.4,2.78A8.45,8.45,0,0,0,97,24.3l0,0h0a4.77,4.77,0,0,0-.55.24A20.26,20.26,0,0,0,90.15,29c-.25.24-.51.51-.76.79a7.14,7.14,0,0,0-2.08-1.3c-2.48-1-5.6-.18-9,2.38a6.1,6.1,0,0,0-3.8-1.58,7.26,7.26,0,0,0-3,.44A8.81,8.81,0,0,0,71,27.23a5.87,5.87,0,0,0-3.14-3.36,6.37,6.37,0,0,0-1.63-.4,8.91,8.91,0,0,0-2.39-8.24C60.45,12.4,56.56,14,54.24,15c-2.58,1.12-4.94,4.48-9.78,12.23-1,1.46-2,3.16-3.27,5.14a10.17,10.17,0,0,0-8.77-8.48c-2.66-.34-6.65.41-16,8.5A132.72,132.72,0,0,0,5.43,42.91a10.7,10.7,0,0,0-1.85,3.46c-.5.52-.93,1-1.24,1.37A7.65,7.65,0,0,0,.58,54.16a6,6,0,0,0,3.15,4.15c3.12,1.64,6,.25,8.37-1.72,4.14-.72,7.48-4.79,9.17-6.84l.48-.58,1.12-1.36c-.08.61-.17,1.28-.29,2s-.23,1.29-.38,1.91l-.17.1c-.15.08-.49.24-.82.38a10.13,10.13,0,0,0-5,3.9,7.36,7.36,0,0,0-.87,2.51,6.43,6.43,0,0,0-2.07,2.11,5.24,5.24,0,0,0-.51,4.21,5.73,5.73,0,0,0,3.11,3.42,9.12,9.12,0,0,0,1.73.6,18.45,18.45,0,0,1-.43,2.27c-.22.76-.59,1.81-1,3-.68,1.93-1.52,4.32-2.21,6.85-.27,1-.66,2.26-1.07,3.59-1.11,3.61-1.79,5.88-1.8,7.26,0,3.65.61,7.46,5,8.37,2,.48,4.63-.51,6.35-2.31a9.64,9.64,0,0,0,6-3.58c2-2.64,4.4-10.19,5.25-15.18,0,0,.54-3,.54-3l.12-.62a37.51,37.51,0,0,1,2.81,2.5c2.28,2.22,8.13,7.3,11,9.74l1.18,1c2.3,2,6.26,1.41,8.38-.43a7.28,7.28,0,0,0,.75-.73,8.83,8.83,0,0,0,4.51-2,8,8,0,0,0,2.93-7.1c-.12-1.72-1.44-4-3.94-6.78a4.84,4.84,0,0,0,2.29.27,6.89,6.89,0,0,0,4.21-2.33l.23,0A8.67,8.67,0,0,0,74.58,66a6.36,6.36,0,0,0,.78-1.54c1.55.77,3.68,1,6.61.26a11,11,0,0,0,4-2.24l.67-.15a10.75,10.75,0,0,0,2.31-1,9.79,9.79,0,0,0,1.48.39,7,7,0,0,0-2.67,3.9,7,7,0,0,0-.14.8A5.55,5.55,0,0,0,85,69.84a6,6,0,0,0,1.26,5.06c2.33,3.15,7.69,2.59,11.51.23a10.65,10.65,0,0,0,1.22-.9,15,15,0,0,0,3.85-1.67c4-2.5,6.43-7.87,7.31-12.06.29-1.36.6-3.84.85-6.12a4.93,4.93,0,0,0,1.21,1c3,1.75,6.66.16,8.79-1.78a11.61,11.61,0,0,0,6.36-3.88A14.8,14.8,0,0,0,128.49,48c.18-.29.34-.55.51-.79a5.71,5.71,0,0,0,1.31.79l.43.19c2.84,1.28,5.07,2,9.91.39a16.12,16.12,0,0,0,4.08-2.21l.67-.21a15.7,15.7,0,0,0,3.12-1.5,7.69,7.69,0,0,0,6.3.13,28.66,28.66,0,0,0-2.31,6.64l-.09.63c-.27,1.94-.69,4.87,2.08,7.67a4.77,4.77,0,0,0,4.13,1.11,6.54,6.54,0,0,0,4.25-2.33,1.66,1.66,0,0,0,.22,0,7.85,7.85,0,0,0,5.75-3.64c1.25-2.16,4.3-9.19,5.27-11.73a34,34,0,0,1,5.11-8,16.88,16.88,0,0,1,4.84-3.48l.28-.15a7.36,7.36,0,0,0,3.8-7.11"/><path class="cls-1" d="M97,24.29l0,0h0Z"/><path class="cls-1" d="M46.07,58.53a30.05,30.05,0,0,0-5.64-2.21c2-1.84,6-5.54,9.09-8.62-1.17,3.07-2.55,7.52-3.45,10.83M188.16,24.35a7.13,7.13,0,0,0-4.58-6.17c-2.08-.71-4.53-.28-7.22,1.22,0,0,0-.11,0-.15a17,17,0,0,1,1.17-2.61c.39-.79.8-1.6,1.18-2.47.66-1.48,2.68-6-.47-10.38A7.54,7.54,0,0,0,172.69.41a7.91,7.91,0,0,0-6.29,2.7,10.24,10.24,0,0,0-2.24,3.75A6.09,6.09,0,0,0,162.89,6a7.19,7.19,0,0,0-7.09.58c-.8.52-2.17,1.41-4.22,5.75a7.47,7.47,0,0,0-.87,1,10.94,10.94,0,0,0-10.45-1.09,18.22,18.22,0,0,0-8,5.94,5.24,5.24,0,0,0-.63-.7,6.84,6.84,0,0,0-6.64-1.56c-2.68.71-5.15,3.12-8.28,8.15a7.52,7.52,0,0,0-3.8-3c-1.83-.62-5.36-1.09-8.39,2.79a8.38,8.38,0,0,0-7.46.41v0h0c-.19.07-.38.16-.55.24A20.38,20.38,0,0,0,90.16,29c-.25.24-.5.51-.76.8a6.61,6.61,0,0,0-2.07-1.31c-2.49-1-5.61-.18-9,2.38a6.1,6.1,0,0,0-3.8-1.58,7.4,7.4,0,0,0-3,.43A8.82,8.82,0,0,0,71,27.22a5.78,5.78,0,0,0-3.14-3.36,6.62,6.62,0,0,0-1.62-.4,8.94,8.94,0,0,0-2.4-8.24c-3.34-2.83-7.23-1.2-9.55-.23-2.59,1.12-4.94,4.48-9.79,12.23-.95,1.46-2,3.16-3.26,5.14a10.19,10.19,0,0,0-8.77-8.48c-2.66-.34-6.65.4-16,8.5A134.51,134.51,0,0,0,5.44,42.89,11,11,0,0,0,3.6,46.36c-.5.52-.94,1-1.25,1.37A7.69,7.69,0,0,0,.59,54.16,6.12,6.12,0,0,0,3.74,58.3c3.13,1.64,6,.25,8.38-1.71,4.13-.73,7.48-4.79,9.16-6.85l.49-.58,1.12-1.36c-.09.61-.18,1.27-.3,2s-.23,1.29-.37,1.9l-.17.11-.82.38a10.08,10.08,0,0,0-5,3.89,7.08,7.08,0,0,0-.87,2.52,6.46,6.46,0,0,0-2.08,2.11,5.24,5.24,0,0,0-.51,4.21,5.77,5.77,0,0,0,3.12,3.42,8.15,8.15,0,0,0,1.72.59,16.62,16.62,0,0,1-.43,2.28c-.21.76-.59,1.81-1,3-.68,1.93-1.53,4.31-2.21,6.85-.27,1-.66,2.25-1.07,3.59-1.11,3.6-1.8,5.88-1.81,7.26,0,3.65.61,7.45,5,8.37,2,.48,4.62-.52,6.35-2.31a9.61,9.61,0,0,0,6-3.58c2-2.64,4.41-10.19,5.25-15.18,0,0,.55-3,.55-3l.11-.62a35.63,35.63,0,0,1,2.81,2.5c2.28,2.22,8.14,7.3,11,9.74l1.18,1c2.31,2,6.27,1.41,8.38-.43a8.49,8.49,0,0,0,.75-.73,8.75,8.75,0,0,0,4.52-2,8,8,0,0,0,2.92-7.1c-.12-1.72-1.44-4-3.94-6.78a4.84,4.84,0,0,0,2.29.27,6.87,6.87,0,0,0,4.21-2.33l.23,0A8.69,8.69,0,0,0,74.6,66a6.72,6.72,0,0,0,.77-1.54c1.56.77,3.68,1,6.61.26a11.12,11.12,0,0,0,4-2.24c.22,0,.43-.09.66-.16a9.83,9.83,0,0,0,2.31-1,8.09,8.09,0,0,0,1.48.39,7,7,0,0,0-2.66,3.91,7.27,7.27,0,0,0-.14.79A5.61,5.61,0,0,0,85,69.83a6.06,6.06,0,0,0,1.26,5.06c2.34,3.15,7.69,2.59,11.52.23a10.54,10.54,0,0,0,1.21-.9,15.17,15.17,0,0,0,3.85-1.67c4.05-2.5,6.43-7.87,7.32-12.06.29-1.36.59-3.84.84-6.12a5.12,5.12,0,0,0,1.21,1c3,1.75,6.66.16,8.79-1.78a11.66,11.66,0,0,0,6.37-3.88A16.2,16.2,0,0,0,128.51,48c.18-.29.34-.55.51-.79a5.51,5.51,0,0,0,1.31.79l.43.19c2.84,1.28,5.07,2,9.91.39a16.46,16.46,0,0,0,4.08-2.21l.66-.21a15.06,15.06,0,0,0,3.13-1.51,7.63,7.63,0,0,0,6.29.14,30,30,0,0,0-2.31,6.63c0,.21-.05.42-.08.64-.28,1.94-.69,4.87,2.08,7.67a4.76,4.76,0,0,0,4.12,1.11,6.52,6.52,0,0,0,4.25-2.33l.23,0a7.86,7.86,0,0,0,5.74-3.66,128.23,128.23,0,0,0,5.27-11.72,33.81,33.81,0,0,1,5.12-8,16.72,16.72,0,0,1,4.83-3.48l.28-.15a7.35,7.35,0,0,0,3.8-7.1"/><path class="cls-2" d="M63.8,68.43c-.27-.24-.76-.31-1-.61a19.08,19.08,0,0,1-2.28,1.92,26.93,26.93,0,0,1,2,2.59c.34,0,1.54,0,1.6,0-.63-.79-1.28-1.5-2.2-2.47l.78-.66.19.18a6.75,6.75,0,0,0,4.25,1.74,8.39,8.39,0,0,0,1.1-1,5.71,5.71,0,0,1-4.48-1.7"/><path class="cls-2" d="M76.33,60.12a17.65,17.65,0,0,1-.91,4.67,8.84,8.84,0,0,0,1.14.35,11.11,11.11,0,0,0,.7-2.65A9.83,9.83,0,0,0,84,64.06a13.82,13.82,0,0,0,1.82-1.28,9.59,9.59,0,0,1-9.49-2.66"/><path class="cls-2" d="M92.68,60.27a13.77,13.77,0,0,1,2.18-.59c-.48-.11-1.53-.68-2-.85a16.81,16.81,0,0,1-3.53,2.57l1,.32a9.32,9.32,0,0,1,2.37-1.45"/><path class="cls-2" d="M115.5,53.14a7.59,7.59,0,0,1-1.33-1A10.47,10.47,0,0,1,113,53a7.05,7.05,0,0,1-1.59.73c0,.5-.11.9-.17,1.41a5.39,5.39,0,0,0,.63.43l.28.13c0-.45.1-.79.16-1.29a6.93,6.93,0,0,0,1.22-.61c.19-.12.39-.27.59-.42A6.49,6.49,0,0,0,115,54a7.9,7.9,0,0,0,4.22,1.14A11,11,0,0,0,120.76,54a7.34,7.34,0,0,1-5.26-.86"/><path class="cls-2" d="M52.3,86.44a13.28,13.28,0,0,0-1-1.56l-.26.45c-2.86-2.48-8.63-7.49-10.94-9.73a35.92,35.92,0,0,0-4.77-4.18c-.24,1.37-.72,3.09-1,4.57.27.23.88.68,1.17.94l.62-3.49a31.84,31.84,0,0,1,3.29,2.85c2.35,2.29,8.24,7.4,11.08,9.86l0,0h0l.11-.13-.09.15c.26.27.62.58,1.11,1a7.67,7.67,0,0,0,5.38,2c.17-.12,1.13-.91,1.36-1.15a7.46,7.46,0,0,1-6.1-1.53"/><path class="cls-2" d="M7.05,55.82c-1.88-1.28-3.59-2.75-3.91-5.16a7.85,7.85,0,0,1,0-3.91c-.49.51-.91,1-1.22,1.35A13.43,13.43,0,0,0,2,50.91,9,9,0,0,0,6.69,57a7.28,7.28,0,0,0,3.62,1,9.2,9.2,0,0,0,.91-.62c.18-.14.34-.29.51-.43a6.12,6.12,0,0,1-4.68-1.15"/><path class="cls-2" d="M20.09,98.21c-6.47-1.36-6.66-7.93-6.67-10.14,0-1.66.7-3.94,1.9-7.83.4-1.31.79-2.55,1.05-3.52.71-2.6,1.56-5,2.25-7,.42-1.19.78-2.21,1-2.91,0-.13.07-.28.11-.45l-.38-.16a7.41,7.41,0,0,1-4-4.58A5.76,5.76,0,0,1,15,58.81a7.21,7.21,0,0,0-1,.84,6.16,6.16,0,0,0,.33,2.28,8.59,8.59,0,0,0,4.29,5c-.2.65-.51,1.51-.86,2.5-.69,2-1.55,4.42-2.27,7.06-.26,1-.64,2.18-1,3.49-1.23,4-1.92,6.31-1.94,8.1,0,6.43,2.47,10.2,7.27,11.21a5.62,5.62,0,0,0,1.24.18,8.49,8.49,0,0,0,1.28-1,5.18,5.18,0,0,1-2.16-.21"/><path class="cls-2" d="M22.22,51.51a21.56,21.56,0,0,0,2.11-1.1c.33-1,.3-2.82.59-4.51-.89,1.12-1.2,1.26-2.06,2.28,0,.09-.55,2.92-.64,3.33"/><path class="cls-2" d="M89.33,72c-1.39-1.84-2.35-3.55-2.09-5.54a7.21,7.21,0,0,0-1,.79,8.82,8.82,0,0,0,2,5.53c2,2.73,5,3.56,8.28,3.22a10.66,10.66,0,0,0,1-.55,11.81,11.81,0,0,0,1.2-.84c-3.72,1-7.12.4-9.35-2.61"/><path class="cls-2" d="M157.42,57.18c-3.44-3.48-2.9-7.26-2.62-9.29,0-.2.06-.41.08-.6A17.3,17.3,0,0,1,156,43.42a9.86,9.86,0,0,1-3.92-.89A25.38,25.38,0,0,1,148.63,45a9.88,9.88,0,0,0,1.16.39,28,28,0,0,0,2.44-1.74,10.91,10.91,0,0,0,2.43.65,14.43,14.43,0,0,0-.73,2.91c0,.17-.06.37-.08.56-.29,2-.89,6.29,2.88,10.12a6.89,6.89,0,0,0,4.88,2,7.17,7.17,0,0,0,1.11-1,6.19,6.19,0,0,1-5.3-1.65"/><path class="cls-2" d="M134.24,46l-.37-.18v0a0,0,0,0,0,0,0h0a11.16,11.16,0,0,1-1.67-1,23.88,23.88,0,0,0-2.2,1.72,4.41,4.41,0,0,0-.87,1,6.27,6.27,0,0,0,.83.47,3.38,3.38,0,0,1,.69-.78c.35-.32.84-.71,1.44-1.16.17.08.9.44,1.76.76a12,12,0,0,0,7.84,1.44,22.82,22.82,0,0,0,2.91-1.74c-4.92,1.46-7.52.82-10.36-.58"/><path class="cls-2" d="M47.93,58.31c.29-1.32,2.22-9.15,3-11.83-.22.21-1.29,1.5-1.51,1.72-.64,1.92-2.69,8.61-3.22,10.44.22.1,1.12.4,1.33.51,0-.11.35-.73.38-.84"/><path class="cls-3" d="M96.83,23.93h0"/><path class="cls-3" d="M133.86,45.88v0h0a0,0,0,0,1,0,0"/><polygon class="cls-3" points="133.85 45.87 133.85 45.87 133.85 45.87 133.85 45.87"/><path class="cls-3" d="M96.84,23.93Z"/><polygon class="cls-3" points="133.87 45.85 133.88 45.85 133.88 45.85 133.87 45.85"/><path class="cls-3" d="M96.84,23.94v0h0Z"/><path class="cls-3" d="M21.59,50l.48-.58c.91-1.08,1.9-2.31,2.85-3.52a32.89,32.89,0,0,1-1.07,4.31c-.85.56-1.56,1-2,1.26-.14.08-.49.23-.79.37a20.63,20.63,0,0,0-1.95,1c1-1,1.86-2.06,2.48-2.81m25.84,8.84a28.14,28.14,0,0,0-6.21-2.7c2.33-2.14,6.41-6,9.33-8.91-1.26,3.87-2.42,8.07-2.85,10-.12.54-.19,1.07-.27,1.6M188.56,24.31a7.51,7.51,0,0,0-4.85-6.5,8.72,8.72,0,0,0-6.66.8c.24-.55.6-1.25.86-1.79.4-.79.81-1.61,1.2-2.49.68-1.53,2.77-6.23-.52-10.77A7.89,7.89,0,0,0,172.72,0a8.22,8.22,0,0,0-6.6,2.82A10.25,10.25,0,0,0,164,6.21a5.86,5.86,0,0,0-.92-.57,7.57,7.57,0,0,0-7.49.6c-.88.56-2.43,1.56-4.74,6.69a11.35,11.35,0,0,0-10.73-1.07,18.52,18.52,0,0,0-7.93,5.71c-.12-.13-.21-.28-.34-.4a7.26,7.26,0,0,0-7-1.65c-2.68.72-5.14,3-8.19,7.82A7.8,7.8,0,0,0,113,20.72c-1.9-.65-5.51-1.13-8.65,2.69a8.77,8.77,0,0,0-7.5.52v0h0c-.22.08-.41.17-.56.24a20.35,20.35,0,0,0-6.38,4.5c-.17.15-.34.34-.51.52a7.05,7.05,0,0,0-1.91-1.12c-2.55-1.05-5.72-.26-9.18,2.25a6.44,6.44,0,0,0-3.79-1.48,7.55,7.55,0,0,0-2.63.31,8.82,8.82,0,0,0-.53-2.11A6.2,6.2,0,0,0,68,23.49a6.77,6.77,0,0,0-1.32-.35,9.26,9.26,0,0,0-2.58-8.22c-3.54-3-7.73-1.24-10-.3-2.82,1.23-5.3,4.89-10.72,13.6-.69,1.12-1.37,2.21-2,3.18a10.5,10.5,0,0,0-8.9-7.92c-2.75-.35-6.84.4-16.36,8.59a133.94,133.94,0,0,0-11,10.57A9.63,9.63,0,0,0,3,50.7a8,8,0,0,0,4.15,5.45c3.5,1.84,6.69.78,9.28-1a8.63,8.63,0,0,0-.52.77,7.18,7.18,0,0,0-.69,5.75,7.68,7.68,0,0,0,4.13,4.58l.38.16c0,.17-.07.32-.11.45-.2.7-.56,1.72-1,2.91-.69,2-1.54,4.38-2.25,7-.26,1-.65,2.21-1.05,3.52-1.2,3.89-1.88,6.17-1.9,7.83,0,2.21,0,8.9,6.51,10.26,2.89.71,6.72-.86,8.83-3.67s4.57-10.9,5.33-15.35l1.34-7.52a28.65,28.65,0,0,1,4.65,3.81c2.33,2.27,8.21,7.37,11,9.82l1.18,1c3.08,2.73,8.13,2,10.9-.43a8.4,8.4,0,0,0,3.06-7.42c-.1-1.44-.85-3.88-5.74-8.85a19.08,19.08,0,0,0,2.28-1.92,5.9,5.9,0,0,0,.76.81,6.54,6.54,0,0,0,5.14,1.52,9.1,9.1,0,0,0,6.23-4c.9-1.28,1.34-2.92,1.61-5.53,1.83,1.87,5,3.43,10.21,2a14.15,14.15,0,0,0,5.71-3.47,11.84,11.84,0,0,0,1.44.41,11.46,11.46,0,0,0-2,.76,7.72,7.72,0,0,0-4.5,5.14A7.92,7.92,0,0,0,89,72.18c3.1,4.18,9.56,3.49,14.06.71,4.16-2.57,6.6-8,7.5-12.32.32-1.5.66-4.37.92-6.83A7.05,7.05,0,0,0,113,53a10.47,10.47,0,0,0,1.13-.87,7.59,7.59,0,0,0,1.33,1c4.54,2.62,9.84-.3,12.16-3.22a16.51,16.51,0,0,0,1.19-1.75A6.71,6.71,0,0,1,130,46.61a23.88,23.88,0,0,1,2.2-1.72,12.36,12.36,0,0,0,2,1.15c3,1.48,5.82,2.28,11.3.46a21.2,21.2,0,0,0,6.53-4,9.86,9.86,0,0,0,3.92.89,17.3,17.3,0,0,0-1.11,3.87c0,.19,0,.4-.08.6-.28,2-.82,5.81,2.62,9.29a6.69,6.69,0,0,0,5.75,1.66,8.2,8.2,0,0,0,6-3.85,128.63,128.63,0,0,0,5.31-11.78,33.81,33.81,0,0,1,5.05-7.88A16.57,16.57,0,0,1,184.27,32l.28-.15a7.74,7.74,0,0,0,4-7.49"/><path class="cls-4" d="M63.56,68.63a5.9,5.9,0,0,1-.76-.81,19.08,19.08,0,0,1-2.28,1.92c1,1,1.86,2,2.55,2.79a6,6,0,0,0,1,0,7.27,7.27,0,0,0,4.33-2.34,6.5,6.5,0,0,1-4.88-1.54"/><path class="cls-4" d="M76.54,60.64a15.19,15.19,0,0,1-1,4.35,6.29,6.29,0,0,0,1,.34,10.78,10.78,0,0,0,5.37-.26A11.37,11.37,0,0,0,86,62.82c-4.76,1.06-7.71-.4-9.45-2.18"/><path class="cls-4" d="M93.9,59.6a11.84,11.84,0,0,1-1.44-.41,17.12,17.12,0,0,1-3.54,2.57l.63.16a9,9,0,0,1,2.33-1.56,11.46,11.46,0,0,1,2-.76"/><path class="cls-4" d="M115.5,53.14a7.59,7.59,0,0,1-1.33-1A10.47,10.47,0,0,1,113,53a7.05,7.05,0,0,1-1.59.73c0,.5-.11,1-.17,1.53a5.39,5.39,0,0,0,.63.43c3.09,1.77,6.78.25,9-1.7a7.76,7.76,0,0,1-5.42-.86"/><path class="cls-4" d="M52.3,86.44l-1.18-1c-2.83-2.45-8.71-7.55-11-9.82a28.65,28.65,0,0,0-4.65-3.81c-.24,1.36-.55,3.12-.82,4.6.69.58,1.42,1.25,2.2,2h0c2.27,2.21,8.12,7.27,10.91,9.7L49,89.18a6,6,0,0,0,4.63,1.3,7.42,7.42,0,0,0,4.15-1.72,8.74,8.74,0,0,0,.7-.67,7.62,7.62,0,0,1-6.14-1.65"/><path class="cls-4" d="M7.13,56.15A8,8,0,0,1,3,50.7a8.58,8.58,0,0,1,.23-4.43c-.49.51-.91,1-1.23,1.35l0,0,0,0A7.91,7.91,0,0,0,.16,54.3a1.77,1.77,0,0,0,.08.31,6.38,6.38,0,0,0,3.23,4.06c1.45.76,4.41,1.58,8.11-1.23.18-.13.34-.29.51-.44a7.72,7.72,0,0,1-5-.85"/><path class="cls-4" d="M19.93,98.33c-6.47-1.36-6.5-8-6.51-10.26,0-1.66.7-3.94,1.9-7.83.4-1.31.79-2.55,1.05-3.52.71-2.6,1.56-5,2.25-7,.42-1.19.78-2.21,1-2.91,0-.13.07-.28.11-.45l-.38-.16a7.68,7.68,0,0,1-4.13-4.58A7,7,0,0,1,15,58.49a6.77,6.77,0,0,0-2.08,2.17h0v0a5.53,5.53,0,0,0-.57,4.2,2,2,0,0,0,.06.23,6.1,6.1,0,0,0,3.27,3.6,8.17,8.17,0,0,0,1.52.55,15.35,15.35,0,0,1-.38,2c-.22.75-.58,1.79-1,3-.69,1.94-1.54,4.34-2.23,6.9-.26,1-.65,2.24-1.06,3.57-1.24,4-1.82,6-1.83,7.35v0a16.12,16.12,0,0,0,.43,4,7.36,7.36,0,0,0,.72,1.78,5.8,5.8,0,0,0,4,2.82,7.62,7.62,0,0,0,6.58-2.28,6.84,6.84,0,0,1-2.48-.09"/><path class="cls-4" d="M21.85,51.47c.45-.25,1.15-.7,2-1.26a32.89,32.89,0,0,0,1.07-4.31C24,47,23.11,48.16,22.26,49.19c0,.23-.06.43-.1.67-.09.55-.19,1.09-.31,1.61"/><path class="cls-4" d="M89,72.18a8,8,0,0,1-1.73-5.9,5.85,5.85,0,0,0-2.69,3.57,5.66,5.66,0,0,0,0,2.8,7.5,7.5,0,0,0,1.26,2.51c2.45,3.3,8,2.75,11.94.32a10.48,10.48,0,0,0,1.08-.81c-3.72,1-7.68.52-9.91-2.49"/><path class="cls-4" d="M157.42,57.18c-3.44-3.48-2.9-7.26-2.62-9.29,0-.2.06-.41.08-.6A17.3,17.3,0,0,1,156,43.42a9.86,9.86,0,0,1-3.92-.89,27.65,27.65,0,0,1-3.56,2.56,8,8,0,0,0,5.62.3,26.44,26.44,0,0,0-2,6l-.09.63a10.66,10.66,0,0,0,.07,4.38,7.85,7.85,0,0,0,2.1,3.56l0,0,0,0a5.08,5.08,0,0,0,4.32,1.14,6.9,6.9,0,0,0,4.37-2.34,6.59,6.59,0,0,1-5.5-1.68"/><path class="cls-4" d="M134.24,46l-.37-.18v0a0,0,0,0,0,0,0h0a11.16,11.16,0,0,1-1.67-1,23.88,23.88,0,0,0-2.2,1.72,5.58,5.58,0,0,0-.91,1.18,6,6,0,0,0,1,.55l-.06,0,.5.23a12.84,12.84,0,0,0,4.14,1.27,14.42,14.42,0,0,0,6-.88,16.3,16.3,0,0,0,4.07-2.19c-4.93,1.46-7.64.7-10.48-.7"/><path class="cls-5" d="M47.43,58.84c.08-.53.15-1.06.27-1.6.43-1.94,1.59-6.14,2.85-10-.63.64-1.32,1.32-2,2-1,2.73-2,6-2.72,8.7.53.27,1.08.56,1.63.89"/><path class="cls-1" d="M99.54,43.24a17.08,17.08,0,0,1-1.34,1.93l-.13.07a5.82,5.82,0,0,1-.17-2.32,6.25,6.25,0,0,1,1.87-3.71c.26-.3.53-.62.8-1a1.56,1.56,0,0,1,.26-.23c-.56,2.19-1.07,4.3-1.29,5.23m-41.88-6a11.9,11.9,0,0,0-2.9,3.64C53.07,43.79,50,54.11,49.27,57.58a18.48,18.48,0,0,0-.46,4.08,27.61,27.61,0,0,0-10.15-4.57l-.75-.2a6.73,6.73,0,0,0,.63-.49c1.35-1.2,9.24-8.44,12.67-12.17,1.52-1.66,3.9-4.67,6.21-7.82.07.28.15.55.24.8M187,24.45a5.91,5.91,0,0,0-3.79-5.13c-2.93-1-6.36,1-8.73,2.82.06-.27.13-.53.19-.77.29-1.14.49-1.89.57-2.35a18.77,18.77,0,0,1,1.27-2.92c.39-.77.79-1.57,1.16-2.41,1-2.31,2.12-5.79-.34-9.18a6.32,6.32,0,0,0-4.69-2.89A6.65,6.65,0,0,0,167.27,4c-.44.44-1.54,1.56-2.66,5.32a5.29,5.29,0,0,0-2.26-2.21,6,6,0,0,0-5.91.53c-.77.49-2.36,1.51-5,8a9.71,9.71,0,0,0-10.78-2.2,17.07,17.07,0,0,0-8.58,7,5.61,5.61,0,0,0-1.37-2,5.67,5.67,0,0,0-5.5-1.28c-2.65.71-5.21,3.51-8.74,9.58a7.54,7.54,0,0,0-.38-1.1,6.35,6.35,0,0,0-3.65-3.31c-1.88-.64-4.65-.74-7.1,2.43a7.12,7.12,0,0,0-.53.78c-2.17-1.38-4.63-1.42-7.3-.08l-.59.28a18.93,18.93,0,0,0-6,4.2,18.36,18.36,0,0,0-1.55,1.73,5.94,5.94,0,0,0-2.56-2c-2.85-1.17-6.25.83-8.75,2.88-.07-.09-.13-.2-.21-.29a5,5,0,0,0-3.5-1.71,6.78,6.78,0,0,0-4.1,1.15,8.91,8.91,0,0,0-.48-4A4.65,4.65,0,0,0,67.36,25a5.13,5.13,0,0,0-2.68-.27c1.16-3.82.07-7-1.67-8.58-2.76-2.33-6.08-.94-8.29,0-2.38,1-4.86,4.75-10,13C43.28,31.43,41.89,33.66,41,35l-.57.76c0-.47,0-.94-.07-1.39-.71-7.53-5.85-9-8-9.27s-6,.38-15.11,8.21A134.24,134.24,0,0,0,6.37,43.66a8,8,0,0,0-1.82,6.7,6.39,6.39,0,0,0,3.31,4.36c5.43,2.85,10.2-2.95,12.49-5.74l.49-.6c2.05-2.44,4.55-5.68,6-7.61.13-.17.26-.31.39-.45a54.33,54.33,0,0,1-.64,5.58,34.09,34.09,0,0,1-1.35,5.34c-.79.54-1.86,1.24-2.56,1.63-.21.12-.56.27-.93.43a9,9,0,0,0-4.44,3.4,5.55,5.55,0,0,0-.53,4.46A6,6,0,0,0,20,64.77a7.79,7.79,0,0,0,1.51.54,15.77,15.77,0,0,1-.39,2c-.21.75-.58,1.8-1,3-.68,1.92-1.53,4.32-2.22,6.86-.27,1-.66,2.25-1.07,3.58C15.73,84.35,15,86.65,15,88.08c0,2.3,0,7.59,5.23,8.68,2.28.56,5.5-.78,7.22-3.07,1.85-2.46,4.22-9.89,5-14.65l1.74-9.73a25.17,25.17,0,0,1,7,5.14c2.29,2.23,8.15,7.31,11,9.75l1.18,1c2.43,2.14,6.58,1.5,8.8-.43a6.81,6.81,0,0,0,2.5-6.11c-.16-2.34-3.23-5.92-6.73-9.27a16.89,16.89,0,0,0,5.13-4.22,6.53,6.53,0,0,0,1.55,2.21,4.91,4.91,0,0,0,3.91,1.14,7.41,7.41,0,0,0,5.09-3.29c1.11-1.57,1.4-4.12,1.64-9.24l0-.66a16.77,16.77,0,0,0,1.09,2.38c1.32,2.4,4.13,4.95,10,3.37a13.76,13.76,0,0,0,5.74-3.79,8.83,8.83,0,0,0,5.05.85c0,.07,0,.16,0,.22a8.48,8.48,0,0,1-.85,2.39,10.88,10.88,0,0,0-3.67,1,6.12,6.12,0,0,0-3.63,4.08,6.32,6.32,0,0,0,1.32,5.33c2.44,3.29,8,2.74,11.92.3,3.73-2.3,5.95-7.34,6.78-11.28.35-1.68.75-5.22,1-7.74a6.23,6.23,0,0,0,2.2-.83,14.25,14.25,0,0,0,2.14-1.88,5.66,5.66,0,0,0,2,2c3.67,2.12,8.2-.42,10.1-2.82a14.43,14.43,0,0,0,1.08-1.59,8,8,0,0,1,1.45-1.91,29.14,29.14,0,0,1,3.38-2.54,7,7,0,0,0,2.16,1.51l.43.19c2.81,1.27,5.19,2,10.13.4a22,22,0,0,0,6.82-4.38,8,8,0,0,0,6.67.84,25.93,25.93,0,0,0-2,6l-.09.63c-.28,2-.71,5,2.17,7.94a5.07,5.07,0,0,0,4.39,1.2,6.65,6.65,0,0,0,4.87-3.06c1.23-2.11,4.23-9,5.18-11.55a35.06,35.06,0,0,1,5.32-8.33,18.12,18.12,0,0,1,5.19-3.78l.28-.15A6.11,6.11,0,0,0,187,24.45"/><path class="cls-3" d="M9.33,51.86c-1.67-.86-2.64-3.4-.49-6.14a129.28,129.28,0,0,1,10.43-10c3.64-3.13,9.6-7.84,12.6-7.46,2.37.31,4.81,1.86,5.24,6.4s-1.12,11-1.12,11a90.26,90.26,0,0,0,7.57-8.83C46.67,32.51,53.5,20.13,56,19.07s3.89-1.41,4.92-.55,1.71,3.45.19,6.61S52.16,38.44,48.84,42.06,37.7,52.84,36.43,54s-3.09,1.6-2.7,3.07a3.3,3.3,0,0,0,2.69,2.76c2.36.72,6.62,1.33,11.06,4.85,3,2.34,13.78,11.48,14,14.22A3.71,3.71,0,0,1,60,82.38c-1.25,1.09-3.55,1.33-4.56.44s-9.31-8-12-10.66c-5-4.9-9-6.74-11.77-6.77,0,0-1.62,8.76-2.35,13.11-.83,4.86-3.15,11.55-4.42,13.26a4.67,4.67,0,0,1-4,1.86c-1.65-.35-2.66-1.26-2.67-5.51,0-1.55,1.93-7,2.77-10.12,1.1-4,2.61-7.71,3.21-9.84a34.38,34.38,0,0,0,.82-5.67,8.33,8.33,0,0,1-3.65-.61c-1.53-.73-2.15-2.15-1.35-3.55s2.81-1.91,4.16-2.65,3.67-2.37,3.67-2.37a37.58,37.58,0,0,0,1.84-6.9c.58-3.67,1.39-10.16-.26-10.48s-3.81,1-5.26,3S20.31,44,18.38,46.32s-5.63,7.34-9,5.54"/><path class="cls-3" d="M143.41,26.25a13.07,13.07,0,0,0,2.49-2.89,2.56,2.56,0,0,0-.64-2.87c-.37-.49-2-.62-2.89-.28a5.9,5.9,0,0,0-2.58,3.49,20.42,20.42,0,0,0-.24,5.23,14,14,0,0,0,3.86-2.68M61.34,39.12c2-.11,3.19,2.35,2.87,3.5-.59,2.09-2.06,3.81-2.85,6-.74,2-2,5-2,6.6s.68,2.56,2,1.44a11.15,11.15,0,0,0,2.52-3.51c1-1.78,1.93-3.14,1.93-3.14s1.13-3,2.08-6.8,1.9-6.53,3-7.83a4.42,4.42,0,0,1,3.46-1.7c1.18.06,2.07,1.56,2,2.75s-1.68,4.2-1.68,4.2,1.91-2.16,3.93-4.2,5.42-4.56,7.17-3.85,2.46,3,1.56,5.83c-.66,2.07-2.39,7.82-2.75,10.07-.31,2-.91,4.06,1.27,4.76,1.61.49,3.87-2.83,3.87-2.83s-2.53-2.71-1.42-8.21a19,19,0,0,1,5-10A17.08,17.08,0,0,1,99,28.24c1.73-.86,3-.88,4.31,0s2.24,3.2.08,4.67c-1,.64-4.18,1.9-5.35,3.37s-2.91,2.9-3.32,6.26c-.31,2.73.61,5.41,1.87,5.84a4.09,4.09,0,0,0,4-1.08,21.61,21.61,0,0,0,2-2.85S104,38.22,105,34.8s1.71-6.7,2.88-8.17,2.24-1.79,3.54-1.34a2.91,2.91,0,0,1,1.79,3.79c-.69,1.75-2.47,9.65-3.81,11.94l-.6,1.79a4.53,4.53,0,0,0,2.88-2c1.66-2.88,5.17-8.39,7.29-12.08s4.89-8,7.08-8.56A2.44,2.44,0,0,1,129.27,23c-.32,1.65-3.13,4.59-3.13,4.59s2.35,3.25,2.65,5.53a23.06,23.06,0,0,1,.08,4.65L132,35s-.49-5.18.67-8.44c1.84-5.19,4.65-8.44,9.16-10.18a6.38,6.38,0,0,1,8.1,2.53c.84,1.71.52,4.92-1.53,7.44s-5.85,6-8.47,6.44a5.53,5.53,0,0,0,1.28,2.8,2.93,2.93,0,0,0,4.22.11c.92-.76,4.86-5.2,6.09-7.86a35.05,35.05,0,0,1,1.81-8.13c1.64-4.58,3.46-8.51,4.78-9.35,2.13-1.32,3.93-.41,4.15,2.12.07,1.19-2.32,5-3.72,8.69a27.54,27.54,0,0,0-1.93,7.3c-.39,3.48,2.14,2.86,3.47,2.16,1.78-1,2.34-1.77,3.38-4.84.64-1.76,2.87-9.72,3.22-11.36s1.32-6.62,2.86-8.2S173,4,174.68,6.39c1,1.43,1.31,3.08,0,6-1,2.21-2.3,4.35-2.64,6s-3.19,11.39-3.11,16a69.3,69.3,0,0,1,5-7.56c1.79-2,6.13-5.24,8.16-4.54a2.92,2.92,0,0,1,.18,5.2,21.32,21.32,0,0,0-6.42,4.72A37.24,37.24,0,0,0,170,41.5c-1,2.55-3.9,9.25-5,11.08-.88,1.53-3.52,1.86-4.18,1.22-2-2-1.43-3.91-1.18-5.93s3.13-8.15,3.68-9.39c.82-2-1.47-4.08-1.47-4.08s-1.58,2.77-3.67,3.73a4.87,4.87,0,0,1-4.75-.3,3.57,3.57,0,0,1-1.32-2s-4.46,4.86-8.12,6.08c-4.46,1.48-5.89.56-8.33-.51-1.26-.52-2.68-2.8-2.68-2.8A49.2,49.2,0,0,0,126.77,43c-1.51,1.36-2,2.81-2.88,3.88-1.1,1.39-4,3.16-6,2-1.7-1-2-4.19.27-6a25,25,0,0,1,5.08-2.92,24.06,24.06,0,0,0,.64-4.85A5.66,5.66,0,0,0,122.63,32s-4.51,7.2-6.58,10.36A27.27,27.27,0,0,1,110.4,49c-1,.65-3.37.51-3.37.51s-.69,7.6-1.21,10.08c-.65,3.07-2.43,7.43-5.32,9.22-2.73,1.68-6.47,2.13-7.68.5s-1.27-3.45,1.12-4.58A7.21,7.21,0,0,1,98,64a13.15,13.15,0,0,0,2.22-5.08c.3-1.87.78-7,.78-7A9.07,9.07,0,0,1,96.79,55,6.26,6.26,0,0,1,91.53,53s-3.12,4.19-6,5-5,.5-6.33-1.83a10.37,10.37,0,0,1-1.06-8.3A62.2,62.2,0,0,1,81,41.24s-.2-1.6-3.53,1.35a17.74,17.74,0,0,0-4.38,5.47,21.88,21.88,0,0,0-1,6.5C72,57,71.87,62.13,71,63.44,69.71,65.26,67.7,65.87,66.7,65s-1.91-4.16-1.41-6.65a22.68,22.68,0,0,0-4.43,4.5c-2.55,3.14-5.7,5-7,3.68-1.5-1.55-2.38-3.89-1.41-8.23.83-3.78,3.8-13.5,5.13-15.82s2.31-3.28,3.8-3.33"/><path class="cls-3" d="M66.5,33.83c1.08-2.46.76-5.41-.4-5.9-1.57-.62-4.12,1.38-5.2,3.81s-.42,5.56,1.22,6c1.24.32,3.32-1.41,4.38-3.87"/><path class="cls-1" d="M183.74,7.2V4.68h.5l.59,1.78a3.67,3.67,0,0,1,.12.38c0-.1.08-.23.14-.41l.6-1.75h.45V7.2h-.32V5.1l-.73,2.1h-.3l-.73-2.14V7.2Z"/><path class="cls-1" d="M187,6.9h.53a1.27,1.27,0,0,0,.39-.05.47.47,0,0,0,.23-.13.67.67,0,0,0,.18-.31,1.45,1.45,0,0,0,.07-.49,1.11,1.11,0,0,0-.13-.6A.61.61,0,0,0,188,5a1.2,1.2,0,0,0-.43,0H187Zm-.34.3V4.68h.87a2.31,2.31,0,0,1,.45,0,.85.85,0,0,1,.37.18.94.94,0,0,1,.29.43,1.57,1.57,0,0,1,.1.6,1.85,1.85,0,0,1-.06.5,1.84,1.84,0,0,1-.17.37,1,1,0,0,1-.23.23.9.9,0,0,1-.3.12,1.7,1.7,0,0,1-.41,0Z"/><polygon class="cls-1" points="188.94 7.24 189.67 4.64 189.91 4.64 189.19 7.24 188.94 7.24"/><path class="cls-1" d="M190.87,5.87h.27a.43.43,0,0,0,.27-.06.19.19,0,0,0,.07-.16.2.2,0,0,0,0-.11.26.26,0,0,0-.1-.07.59.59,0,0,0-.22,0h-.26Zm-.22.78V5.26h.48a1,1,0,0,1,.35,0,.34.34,0,0,1,.18.13.39.39,0,0,1,.06.21.36.36,0,0,1-.11.26.41.41,0,0,1-.29.13.35.35,0,0,1,.12.07,1.54,1.54,0,0,1,.21.28l.17.27h-.28l-.12-.22a1.38,1.38,0,0,0-.23-.32.33.33,0,0,0-.19-.05h-.13v.59Zm.57-1.79a1.09,1.09,0,0,0-.53.13,1,1,0,0,0-.41.4,1.1,1.1,0,0,0-.15.54,1,1,0,0,0,.15.54,1,1,0,0,0,.4.4,1.09,1.09,0,0,0,1.07,0,1,1,0,0,0,.4-.4,1.14,1.14,0,0,0,.14-.54,1.21,1.21,0,0,0-.14-.54,1.12,1.12,0,0,0-.41-.4,1.08,1.08,0,0,0-.52-.13m0-.22a1.35,1.35,0,0,1,.63.17,1.19,1.19,0,0,1,.49.48,1.33,1.33,0,0,1,.17.64,1.37,1.37,0,0,1-.17.65,1.3,1.3,0,0,1-.48.48,1.31,1.31,0,0,1-1.29,0,1.29,1.29,0,0,1-.65-1.13,1.24,1.24,0,0,1,.18-.64,1.11,1.11,0,0,1,.48-.48,1.36,1.36,0,0,1,.64-.17"/></g></g></svg>