<svg xmlns="http://www.w3.org/2000/svg" viewBox="0 0 225.28 54.21"><defs><style>.cls-1{fill:#260863;}.cls-2{fill:#7199cd;}</style></defs><title>logo-golo</title><g id="Layer_2" data-name="Layer 2"><g id="Layer_1-2" data-name="Layer 1"><path class="cls-1" d="M160.2,39.47H136v-38a.48.48,0,0,0-.48-.48H121.57a.48.48,0,0,0-.48.48V52.78a.48.48,0,0,0,.48.48H160.2a.49.49,0,0,0,.48-.48V40a.48.48,0,0,0-.48-.48"/><path class="cls-1" d="M86.6,0C70.6,0,59,11.42,59,27.12S70.6,54.21,86.6,54.21s27.6-11.39,27.6-27.09S102.59,0,86.6,0Zm8.06,37.23a12.72,12.72,0,1,1,2.43-17.84A12.73,12.73,0,0,1,94.66,37.26Z"/><path class="cls-1" d="M52.45,22.89H26.94a.49.49,0,0,0-.48.48V33.56a.48.48,0,0,0,.48.48H38.31c-1.55,4.49-5.05,6.59-11,6.59S15.22,36.45,15.22,27.11C15.22,19.39,20.11,14,27.13,14a12.67,12.67,0,0,1,9.45,3.64.48.48,0,0,0,.67,0L47.07,8a.53.53,0,0,0,.15-.34.54.54,0,0,0-.14-.34C42.3,2.46,35.87,0,28,0,11.5,0,0,11.16,0,27.11S11.5,54.16,28,54.16c12.55,0,25.25-9,25.25-26.17a29.72,29.72,0,0,0-.29-4.69.48.48,0,0,0-.48-.41"/><path class="cls-1" d="M190.48,0c-16,0-27.61,11.39-27.61,27.09s11.61,27.09,27.61,27.09,27.6-11.39,27.6-27.09S206.47,0,190.48,0Zm8.06,37.23A12.73,12.73,0,1,1,201,19.39,12.72,12.72,0,0,1,198.54,37.23Z"/><path class="cls-2" d="M225.28,1a.8.8,0,0,1,0,.15l0,.05-5.31,13.15,0,0a.46.46,0,0,1-.85,0l0,0a29.41,29.41,0,0,0-2.81-5A31,31,0,0,0,210,2.83l-.09-.07a.44.44,0,0,1-.13-.32.47.47,0,0,1,.35-.45.53.53,0,0,1,.12,0h0L224.78.55h0A.47.47,0,0,1,225.28,1Z"/></g></g></svg>