<svg xmlns="http://www.w3.org/2000/svg" xmlns:xlink="http://www.w3.org/1999/xlink" id="Layer_1" x="0" y="0" version="1.1" viewBox="0 0 225.3 54.2" xml:space="preserve" style="enable-background:new 0 0 225.3 54.2"><style type="text/css">.st0{fill:#260863}</style><title>logo-golo</title><g id="Layer_2_1_"><g id="Layer_1-2"><path d="M160.2,39.5H136v-38c0-0.3-0.2-0.5-0.5-0.5h-14c-0.3,0-0.5,0.2-0.5,0.5c0,0,0,0,0,0v51.3 c0,0.3,0.2,0.5,0.5,0.5l0,0h38.6c0.3,0,0.5-0.2,0.5-0.5V40C160.7,39.7,160.5,39.5,160.2,39.5" class="st0"/><path d="M86.6,0C70.6,0,59,11.4,59,27.1s11.6,27.1,27.6,27.1s27.6-11.4,27.6-27.1S102.6,0,86.6,0z M94.7,37.2 c-5.6,4.2-13.6,3.2-17.8-2.4S73.7,21.2,79.3,17c5.6-4.2,13.6-3.2,17.8,2.4C101.4,25,100.3,33,94.7,37.2 C94.7,37.2,94.7,37.3,94.7,37.2L94.7,37.2z" class="st0"/><path d="M52.5,22.9H26.9c-0.3,0-0.5,0.2-0.5,0.5v10.2c0,0.3,0.2,0.5,0.5,0.5h11.4c-1.5,4.5-5,6.6-11,6.6 s-12.1-4.2-12.1-13.5c0-7.7,4.9-13.1,11.9-13.1c3.5-0.2,6.9,1.2,9.4,3.6c0.2,0.2,0.5,0.2,0.7,0L47.1,8c0.1-0.1,0.1-0.2,0.2-0.3 c0-0.1-0.1-0.2-0.1-0.3C42.3,2.5,35.9,0,28,0C11.5,0,0,11.2,0,27.1s11.5,27,28,27c12.5,0,25.2-9,25.2-26.2c0-1.6-0.1-3.1-0.3-4.7 C52.9,23.1,52.7,22.9,52.5,22.9" class="st0"/><path d="M190.5,0c-16,0-27.6,11.4-27.6,27.1s11.6,27.1,27.6,27.1s27.6-11.4,27.6-27.1S206.5,0,190.5,0z M198.5,37.2 c-5.6,4.2-13.6,3.1-17.8-2.5c-4.2-5.6-3.1-13.6,2.5-17.8c5.6-4.2,13.6-3.1,17.8,2.5C205.2,25,204.2,33,198.5,37.2 C198.6,37.2,198.5,37.2,198.5,37.2z" class="st0"/><path d="M225.3,1c0,0,0,0.1,0,0.1v0L220,14.3l0,0c-0.1,0.2-0.4,0.3-0.6,0.2c-0.1,0-0.2-0.1-0.2-0.2l0,0 c-0.8-1.8-1.7-3.4-2.8-5c-1.8-2.5-3.9-4.7-6.3-6.5l-0.1-0.1c-0.1-0.1-0.1-0.2-0.1-0.3c0-0.2,0.1-0.4,0.4-0.5c0,0,0.1,0,0.1,0l0,0 l14.5-1.4l0,0C225,0.5,225.3,0.7,225.3,1C225.3,1,225.3,1,225.3,1z" class="st0"/></g></g></svg>