<svg xmlns="http://www.w3.org/2000/svg" xmlns:xlink="http://www.w3.org/1999/xlink" viewBox="0 0 3291.97 1530.62"><defs><style>.cls-1,.cls-10,.cls-11,.cls-12,.cls-13,.cls-14,.cls-15,.cls-16,.cls-17,.cls-18,.cls-19,.cls-2,.cls-21,.cls-22,.cls-24,.cls-25,.cls-26,.cls-28,.cls-29,.cls-30,.cls-31,.cls-32,.cls-33,.cls-34,.cls-35,.cls-36,.cls-37,.cls-4,.cls-5,.cls-6,.cls-7,.cls-8,.cls-9{fill:none;}.cls-14,.cls-16,.cls-18,.cls-2,.cls-24,.cls-29,.cls-7,.cls-9{stroke:#fedc70;}.cls-12,.cls-13,.cls-14,.cls-15,.cls-16,.cls-17,.cls-19,.cls-2,.cls-21,.cls-22,.cls-24,.cls-25,.cls-26,.cls-28,.cls-29,.cls-30,.cls-31,.cls-32,.cls-33,.cls-34,.cls-35,.cls-36,.cls-37,.cls-4,.cls-5,.cls-6,.cls-7{stroke-linejoin:round;}.cls-10,.cls-11,.cls-12,.cls-13,.cls-14,.cls-15,.cls-17,.cls-2,.cls-22,.cls-30,.cls-31,.cls-32,.cls-4,.cls-5,.cls-8,.cls-9{stroke-width:8px;}.cls-3{fill:url(#linear-gradient);}.cls-11,.cls-12,.cls-34,.cls-37,.cls-4{stroke:#fff;}.cls-14,.cls-15,.cls-22,.cls-25,.cls-26,.cls-28,.cls-31,.cls-4{stroke-linecap:round;}.cls-21,.cls-31,.cls-32,.cls-36,.cls-5,.cls-6,.cls-8{stroke:#009ade;}.cls-33,.cls-34,.cls-6,.cls-7{stroke-width:6px;}.cls-10,.cls-11,.cls-18,.cls-8,.cls-9{stroke-miterlimit:10;}.cls-10,.cls-13,.cls-15,.cls-19,.cls-26,.cls-35{stroke:#b68400;}.cls-16{stroke-width:7.12px;}.cls-17,.cls-22,.cls-25,.cls-30{stroke:#f7f8f9;}.cls-18,.cls-19,.cls-21,.cls-25,.cls-26,.cls-28,.cls-29{stroke-width:4px;}.cls-20{clip-path:url(#clip-path);}.cls-23{clip-path:url(#clip-path-2);}.cls-24,.cls-35,.cls-36,.cls-37{stroke-width:3px;}.cls-27{clip-path:url(#clip-path-3);}.cls-28{stroke:#4197cb;}.cls-30,.cls-32{stroke-dasharray:12;}.cls-33{stroke:#ab7029;}</style><linearGradient id="linear-gradient" x1="439.95" y1="1966.57" x2="2842.46" y2="-435.95" gradientUnits="userSpaceOnUse"><stop offset="0.48" stop-color="#011e41"/><stop offset="1" stop-color="#263657"/></linearGradient><clipPath id="clip-path"><rect class="cls-1" x="2400.04" y="923.67" width="527.82" height="51.53"/></clipPath><clipPath id="clip-path-2"><rect class="cls-2" x="2735.99" y="502.95" width="55.21" height="89.69"/></clipPath><clipPath id="clip-path-3"><polygon class="cls-1" points="1995.73 1147.71 1715.73 1147.71 1755.73 1249.7 1955.73 1249.7 1995.73 1147.71"/></clipPath></defs><title>la-poutine-week-jumbotron-banner-illustration-by-loogart</title><g id="Layer_2" data-name="Layer 2"><g id="illustration"><rect class="cls-3" y="4" width="3282.41" height="1522.62"/><line class="cls-4" x1="2927.85" y1="1180.39" x2="3010.52" y2="1180.39"/><line class="cls-5" x1="2927.85" y1="1133.98" x2="2927.85" y2="1526.62"/><line class="cls-6" x1="2972.83" y1="232.22" x2="2972.83" y2="371.11"/><polygon class="cls-7" points="2972.82 177.47 2981.72 204.84 3010.5 204.84 2987.22 221.76 2996.11 249.14 2972.82 232.22 2949.54 249.14 2958.43 221.76 2935.15 204.84 2963.93 204.84 2972.82 177.47"/><polyline class="cls-2" points="2567.07 344.35 2567.07 598.71 2382.51 598.71"/><line class="cls-2" x1="2623.24" y1="430.26" x2="2623.24" y2="530.02"/><line class="cls-2" x1="2510.91" y1="430.26" x2="2510.91" y2="556.22"/><path class="cls-2" d="M2595.16,402.25V657H2486.89a51.16,51.16,0,0,0-51.16,51.17V817.63"/><line class="cls-2" x1="2538.99" y1="402.25" x2="2538.99" y2="582.43"/><line class="cls-8" x1="1322.18" y1="1124.71" x2="1322.18" y2="929.28"/><line class="cls-9" x1="1271.07" y1="1124.71" x2="1271.07" y2="957.74"/><line class="cls-10" x1="1296.63" y1="1124.71" x2="1296.63" y2="957.03"/><line class="cls-11" x1="1244.53" y1="1124.71" x2="1244.53" y2="929.28"/><path class="cls-5" d="M1283.35,907.47c1.49-9.28,10.77-19.74,22.72-19.74s20.28,11.37,20.28,23.93c0,23.8-21.5,41-43,54.17-21.49-13.16-43-30.37-43-54.17,0-12.56,8.33-23.93,20.28-23.93S1281.86,898.19,1283.35,907.47Z"/><line class="cls-5" x1="1921.37" y1="295.25" x2="1866.28" y2="240.17"/><polygon class="cls-12" points="1812.9 186.78 1848.27 204.81 1876.33 176.74 1870.12 215.94 1905.49 233.96 1866.28 240.17 1860.08 279.37 1842.06 244.01 1802.85 250.22 1830.92 222.15 1812.9 186.78"/><rect class="cls-13" x="3097.07" y="592.3" width="18.54" height="77.56"/><circle class="cls-5" cx="3106.34" cy="525.59" r="67.35"/><line class="cls-5" x1="3106.34" y1="592.94" x2="3106.34" y2="458.25"/><line class="cls-5" x1="3106.34" y1="501.17" x2="3154.79" y2="478.83"/><line class="cls-5" x1="3106.34" y1="539.55" x2="3170.02" y2="510.19"/><line class="cls-5" x1="3106.34" y1="570.95" x2="3170.08" y2="541.56"/><line class="cls-5" x1="3106.34" y1="501.17" x2="3057.88" y2="478.83"/><line class="cls-5" x1="3106.34" y1="539.55" x2="3042.66" y2="510.19"/><line class="cls-5" x1="3106.34" y1="570.95" x2="3042.6" y2="541.56"/><line class="cls-5" x1="2400.04" y1="1133.98" x2="2264.56" y2="1133.98"/><polygon class="cls-5" points="2927.85 1180.39 2878.23 1131.77 2878.23 975.2 2927.85 975.2 2927.85 1180.39"/><line class="cls-5" x1="2400.04" y1="1133.98" x2="2400.04" y2="1525.62"/><line class="cls-5" x1="2449.66" y1="1133.98" x2="2449.66" y2="1525.62"/><rect class="cls-2" x="1476.73" y="1140.53" width="17.58" height="51.96" transform="translate(1711.1 3041.78) rotate(-135)"/><rect class="cls-12" x="1428.98" y="1139.31" width="17.58" height="48.58" rx="3.79" ry="3.79"/><rect class="cls-13" x="1393.33" y="1187.27" width="17.58" height="54.45"/><rect class="cls-13" x="1508.55" y="1170.31" width="17.58" height="17.58" transform="translate(338.24 2696.44) rotate(-90)"/><rect class="cls-2" x="1375.75" y="1135.77" width="17.58" height="52.74" transform="translate(222.4 2546.68) rotate(-90)"/><rect class="cls-2" x="1468.76" y="1165.68" width="17.58" height="97.16" transform="translate(263.29 2691.82) rotate(-90)"/><rect class="cls-12" x="1393.33" y="1118.19" width="17.58" height="17.58" rx="3.79" ry="3.79"/><rect class="cls-12" x="1358.17" y="1205.7" width="17.58" height="17.58" rx="3.79" ry="3.79"/><rect class="cls-12" x="1446.56" y="1118.19" width="17.58" height="45.42" rx="3.79" ry="3.79"/><line class="cls-8" x1="2081.39" y1="185.18" x2="2380.39" y2="185.18"/><line class="cls-9" x1="2081.39" y1="134.07" x2="2485.72" y2="134.07"/><line class="cls-10" x1="2081.39" y1="159.62" x2="2399.6" y2="159.62"/><line class="cls-11" x1="2081.39" y1="107.52" x2="2567.07" y2="107.52"/><line class="cls-2" x1="1373.36" y1="1122.74" y2="1122.74"/><polyline class="cls-2" points="1674.72 883.77 1567.99 991.18 1567.99 1122.74 1485.52 1122.74"/><line class="cls-14" x1="3181.69" y1="1090.08" x2="2977.47" y2="1090.08"/><line class="cls-15" x1="3198.93" y1="1064.52" x2="2977.47" y2="1064.52"/><path class="cls-8" d="M3228.26,1039h-178a38.73,38.73,0,0,1-38.72-38.73V1000"/><path class="cls-4" d="M3165,1116.62H3042.64a31.12,31.12,0,0,0-31.12,31.12v378.88"/><path class="cls-14" d="M3138.21,1149.82h-62.6a24.14,24.14,0,0,0-24.14,24.14v351.66"/><path class="cls-8" d="M3018.84,739.82h55.63v-70H3155l73.23,73.23v363.54a74.17,74.17,0,0,1-73.23,74.16h-42.42a23.86,23.86,0,0,0-23.86,23.86v321"/><line class="cls-8" x1="3011.52" y1="1000.24" x2="3011.52" y2="975.2"/><rect class="cls-13" x="2021.53" y="884.09" width="18.54" height="77.56"/><circle class="cls-16" cx="2030.8" cy="817.38" r="67.35"/><line class="cls-16" x1="2030.8" y1="884.73" x2="2030.8" y2="750.04"/><line class="cls-16" x1="2030.8" y1="792.96" x2="2079.26" y2="770.61"/><line class="cls-16" x1="2030.8" y1="831.34" x2="2094.48" y2="801.98"/><line class="cls-16" x1="2030.8" y1="862.74" x2="2094.55" y2="833.35"/><line class="cls-16" x1="2030.8" y1="792.96" x2="1982.35" y2="770.61"/><line class="cls-16" x1="2030.8" y1="831.34" x2="1967.13" y2="801.98"/><line class="cls-16" x1="2030.8" y1="862.74" x2="1967.06" y2="833.35"/><path class="cls-17" d="M2972.69,488.94v39.91a24,24,0,0,1-24,24H2852a24,24,0,0,0-24,24V811.3a24,24,0,0,1-24,24h-423.2A56.77,56.77,0,0,0,2324,892.07v182.45a59.45,59.45,0,0,1-59.45,59.45h-8.63"/><line class="cls-17" x1="1703.54" y1="1133.97" x2="2233.89" y2="1133.97"/><path class="cls-17" d="M1677.14,1118.13h10.56a15.85,15.85,0,0,1,0,31.69h-10.56Z"/><line class="cls-17" x1="1677.14" y1="1118.13" x2="1628.54" y2="1118.13"/><line class="cls-17" x1="1677.14" y1="1133.98" x2="1628.54" y2="1133.98"/><line class="cls-17" x1="1677.14" y1="1149.82" x2="1628.54" y2="1149.82"/><line class="cls-2" x1="1812.03" y1="1078.07" x2="2224.89" y2="1078.07"/><ellipse class="cls-2" cx="1774.53" cy="1078.07" rx="37.5" ry="22.51"/><path class="cls-18" d="M1793.78,1070.66a7.54,7.54,0,0,1,0,15.08"/><path class="cls-13" d="M2029.88,842.64h0A11.09,11.09,0,0,1,2041,853.73v335.35a22.18,22.18,0,0,1-22.18,22.18h0a0,0,0,0,1,0,0V853.73A11.09,11.09,0,0,1,2029.88,842.64Z" transform="translate(3056.83 -1002.92) rotate(90)"/><line class="cls-13" x1="1951.27" y1="1015.87" x2="1951.27" y2="1038.05"/><rect class="cls-13" x="2449.66" y="975.2" width="49.62" height="205.19"/><line class="cls-19" x1="2449.66" y1="975.2" x2="2499.28" y2="1024.82"/><line class="cls-19" x1="2449.66" y1="1070.82" x2="2499.28" y2="1120.44"/><line class="cls-19" x1="2449.66" y1="1120.44" x2="2499.28" y2="1170.06"/><line class="cls-19" x1="2449.66" y1="1023.01" x2="2499.28" y2="1072.63"/><g class="cls-20"><line class="cls-21" x1="2664.71" y1="551.19" x2="2314.38" y2="901.52"/><line class="cls-21" x1="2693.42" y1="579.9" x2="2343.09" y2="930.23"/><line class="cls-21" x1="2722.13" y1="608.61" x2="2371.8" y2="958.94"/><line class="cls-21" x1="2750.84" y1="637.32" x2="2400.51" y2="987.65"/><line class="cls-21" x1="2779.55" y1="666.03" x2="2429.22" y2="1016.36"/><line class="cls-21" x1="2808.26" y1="694.74" x2="2457.93" y2="1045.07"/><line class="cls-21" x1="2836.97" y1="723.44" x2="2486.64" y2="1073.78"/><line class="cls-21" x1="2865.68" y1="752.15" x2="2515.35" y2="1102.49"/><line class="cls-21" x1="2894.39" y1="780.86" x2="2544.06" y2="1131.19"/><line class="cls-21" x1="2923.1" y1="809.57" x2="2572.77" y2="1159.9"/><line class="cls-21" x1="2951.81" y1="838.28" x2="2601.48" y2="1188.61"/><line class="cls-21" x1="2980.52" y1="866.99" x2="2630.19" y2="1217.32"/><line class="cls-21" x1="3009.23" y1="895.7" x2="2658.9" y2="1246.03"/><line class="cls-21" x1="3037.94" y1="924.41" x2="2687.6" y2="1274.74"/></g><path class="cls-9" d="M2077.31,552.85H1846.22a46.5,46.5,0,0,1-46.51-46.5h0a46.51,46.51,0,0,1,46.51-46.51H1911a27.49,27.49,0,0,1,27.49,27.49v47.85"/><ellipse class="cls-9" cx="2114.81" cy="552.85" rx="37.5" ry="22.51"/><path class="cls-18" d="M2095.56,545.44a7.54,7.54,0,0,0,0,15.08"/><rect class="cls-2" x="2129.99" y="287.27" width="18.55" height="54.83" transform="translate(3429.45 2049.89) rotate(-135)"/><rect class="cls-13" x="1935.65" y="280.28" width="18.55" height="102.52" transform="translate(335.22 1472.38) rotate(-45)"/><rect class="cls-2" x="2004.88" y="285.99" width="18.55" height="108.06"/><rect class="cls-12" x="2079.6" y="285.99" width="18.55" height="51.26" rx="4" ry="4"/><rect class="cls-12" x="1984.13" y="228.79" width="18.55" height="51.26" rx="4" ry="4" transform="translate(2247.82 -1738.99) rotate(90)"/><rect class="cls-13" x="2041.98" y="336.59" width="18.55" height="57.46"/><rect class="cls-12" x="1930.31" y="355.8" width="18.55" height="18.55" rx="4" ry="4" transform="translate(1574.51 2304.66) rotate(-90)"/><rect class="cls-12" x="1855.73" y="355.8" width="18.55" height="18.55" rx="4" ry="4" transform="translate(1499.93 2230.09) rotate(-90)"/><rect class="cls-2" x="2163.57" y="318.7" width="18.55" height="18.55" transform="translate(1844.88 2500.82) rotate(-90)"/><rect class="cls-2" x="2041.98" y="300.8" width="18.55" height="18.55" transform="translate(1741.18 2361.34) rotate(-90)"/><rect class="cls-2" x="2121.59" y="313.82" width="18.55" height="102.52" transform="translate(1765.78 2495.94) rotate(-90)"/><rect class="cls-2" x="1892.84" y="324.24" width="18.55" height="51.26"/><rect class="cls-2" x="1967.77" y="285.33" width="18.55" height="51.26"/><rect class="cls-12" x="2041.98" y="263.69" width="18.55" height="18.55" rx="4" ry="4"/><rect class="cls-12" x="2098.15" y="263.69" width="18.55" height="47.92" rx="4" ry="4"/><rect class="cls-12" x="1949.22" y="263.69" width="18.55" height="18.55" rx="4" ry="4"/><rect class="cls-2" x="1865.01" y="314.96" width="18.55" height="18.55" transform="translate(778.24 -1230.35) rotate(45)"/><polygon class="cls-5" points="2158.93 394.05 1878.93 394.05 1918.93 486.04 2118.93 486.04 2158.93 394.05"/><line class="cls-5" x1="1888.61" y1="416.32" x2="2149.25" y2="416.32"/><line class="cls-21" x1="2140.93" y1="430.2" x2="2115.93" y2="430.2"/><line class="cls-21" x1="2135.38" y1="448.2" x2="2095.93" y2="448.2"/><line class="cls-21" x1="2137.26" y1="439.2" x2="2105.93" y2="439.2"/><line class="cls-21" x1="2127.56" y1="466.2" x2="2075.93" y2="466.2"/><line class="cls-21" x1="2131.47" y1="457.2" x2="2085.93" y2="457.2"/><line class="cls-21" x1="2123.64" y1="475.2" x2="2065.93" y2="475.2"/><rect class="cls-2" x="2498.13" y="708.83" width="18.55" height="54.83" transform="translate(213.8 1988.65) rotate(-45)"/><rect class="cls-2" x="2692.47" y="701.85" width="18.55" height="102.52" transform="translate(4079.65 3196.07) rotate(-135)"/><rect class="cls-13" x="2623.24" y="707.55" width="18.55" height="108.06" transform="translate(5265.04 1523.16) rotate(180)"/><rect class="cls-12" x="2548.52" y="707.55" width="18.55" height="51.26" rx="4" ry="4" transform="translate(5115.6 1466.36) rotate(180)"/><rect class="cls-12" x="2643.99" y="650.35" width="18.55" height="51.26" rx="4" ry="4" transform="translate(3329.25 -1977.29) rotate(90)"/><rect class="cls-2" x="2586.14" y="758.16" width="18.55" height="57.46" transform="translate(5190.83 1573.77) rotate(180)"/><rect class="cls-12" x="2697.81" y="777.36" width="18.55" height="18.55" rx="4" ry="4" transform="translate(1920.45 3493.73) rotate(-90)"/><rect class="cls-12" x="2772.39" y="777.36" width="18.55" height="18.55" rx="4" ry="4" transform="translate(1995.02 3568.3) rotate(-90)"/><rect class="cls-2" x="2464.55" y="740.26" width="18.55" height="18.55" transform="translate(1724.29 3223.36) rotate(-90)"/><rect class="cls-2" x="2586.14" y="722.36" width="18.55" height="18.55" transform="translate(1863.78 3327.05) rotate(-90)"/><rect class="cls-13" x="2506.54" y="735.38" width="18.55" height="102.52" transform="translate(1729.17 3302.45) rotate(-90)"/><rect class="cls-2" x="2735.28" y="745.8" width="18.55" height="51.26" transform="translate(5489.12 1542.86) rotate(180)"/><rect class="cls-2" x="2660.35" y="706.89" width="18.55" height="51.26" transform="translate(5339.25 1465.05) rotate(180)"/><rect class="cls-12" x="2586.14" y="685.26" width="18.55" height="18.55" rx="4" ry="4" transform="translate(5190.83 1389.07) rotate(180)"/><rect class="cls-12" x="2529.97" y="685.26" width="18.55" height="47.92" rx="4" ry="4" transform="translate(5078.49 1418.44) rotate(180)"/><rect class="cls-12" x="2678.9" y="685.26" width="18.55" height="18.55" rx="4" ry="4" transform="translate(5376.35 1389.07) rotate(180)"/><rect class="cls-13" x="2763.11" y="736.52" width="18.55" height="18.55" transform="translate(5260.12 -687.21) rotate(135)"/><rect class="cls-2" x="2985.42" y="616.67" width="17.58" height="51.96" transform="translate(4657.02 3214.29) rotate(-135)"/><rect class="cls-12" x="2937.66" y="615.45" width="17.58" height="48.58" rx="3.79" ry="3.79"/><rect class="cls-13" x="2902.01" y="663.41" width="17.58" height="54.45"/><rect class="cls-13" x="3017.24" y="646.45" width="17.58" height="17.58" transform="translate(2370.79 3681.27) rotate(-90)"/><rect class="cls-2" x="2884.43" y="611.91" width="17.58" height="52.74" transform="translate(2254.95 3531.5) rotate(-90)"/><rect class="cls-2" x="2977.45" y="641.82" width="17.58" height="97.16" transform="translate(2295.84 3676.64) rotate(-90)"/><rect class="cls-12" x="2902.01" y="594.32" width="17.58" height="17.58" rx="3.79" ry="3.79"/><rect class="cls-12" x="2866.85" y="681.84" width="17.58" height="17.58" rx="3.79" ry="3.79"/><rect class="cls-12" x="2955.24" y="594.32" width="17.58" height="45.42" rx="3.79" ry="3.79"/><path class="cls-5" d="M3018.3,848.05v10.52a29.85,29.85,0,0,1-29.85,29.86h-75.23a29.86,29.86,0,0,1-29.85-29.86V717.86H3018.3v46.57"/><rect class="cls-5" x="2883.37" y="717.86" width="135.47" height="22.74"/><line class="cls-22" x1="2244.66" y1="580.22" x2="2244.66" y2="396.23"/><path class="cls-22" d="M2228.83,369.82v10.57a15.84,15.84,0,0,0,31.68,0V369.82Z"/><line class="cls-22" x1="2228.83" y1="369.82" x2="2228.83" y2="321.22"/><line class="cls-22" x1="2244.67" y1="369.82" x2="2244.67" y2="321.22"/><line class="cls-22" x1="2260.51" y1="369.82" x2="2260.51" y2="321.22"/><path class="cls-9" d="M2288.21,249.85h0A22.18,22.18,0,0,1,2310.39,272V484.38a11.09,11.09,0,0,1-11.09,11.09h0a11.09,11.09,0,0,1-11.09-11.09V249.85a0,0,0,0,1,0,0Z"/><line class="cls-9" x1="2288.21" y1="425.55" x2="2310.39" y2="425.55"/><rect class="cls-5" x="2400.04" y="923.67" width="527.82" height="51.53"/><polygon class="cls-5" points="2449.66 1180.39 2400.04 1133.97 2400.04 975.2 2449.66 975.2 2449.66 1180.39"/><rect class="cls-13" x="2927.85" y="975.2" width="49.62" height="205.19"/><line class="cls-19" x1="2977.47" y1="975.2" x2="2927.85" y2="1024.82"/><line class="cls-19" x1="2977.47" y1="1070.82" x2="2927.85" y2="1120.44"/><line class="cls-19" x1="2977.47" y1="1120.44" x2="2927.85" y2="1170.06"/><line class="cls-19" x1="2977.47" y1="1023.01" x2="2927.85" y2="1072.63"/><rect class="cls-2" x="2927.85" y="924.15" width="275" height="51.05" transform="translate(6130.71 1899.35) rotate(180)"/><rect class="cls-2" x="2930.65" y="388.68" width="84.09" height="84.09" transform="translate(1175.25 -1975.85) rotate(45)"/><path class="cls-5" d="M3032.31,329.06h0a42,42,0,0,1,42,42v42a0,0,0,0,1,0,0h-84.09a0,0,0,0,1,0,0v-42a42,42,0,0,1,42-42Z" transform="translate(1150.56 -2035.47) rotate(45)"/><path class="cls-2" d="M2871.35,329.06h84.09a0,0,0,0,1,0,0v42a42,42,0,0,1-42,42h0a42,42,0,0,1-42-42v-42A0,0,0,0,1,2871.35,329.06Z" transform="translate(5235.88 -1426.56) rotate(135)"/><path class="cls-13" d="M1700.68,873h0a36.71,36.71,0,0,1,36.71,36.71v36.71a0,0,0,0,1,0,0H1664a0,0,0,0,1,0,0V909.73A36.71,36.71,0,0,1,1700.68,873Z" transform="translate(-145.16 1469.02) rotate(-45)"/><path class="cls-5" d="M1664,976.86h73.43a0,0,0,0,1,0,0v36.71a36.71,36.71,0,0,1-36.71,36.71h0a36.71,36.71,0,0,1-36.71-36.71V976.86a0,0,0,0,1,0,0Z" transform="translate(1214.82 -905.69) rotate(45)"/><rect class="cls-5" x="1716.03" y="925.08" width="73.43" height="73.43" transform="translate(-166.72 1521.08) rotate(-45)"/><path class="cls-5" d="M2653.27,561V366.26a24,24,0,0,0-24-24H2507.1a24,24,0,0,0-24,24v166a24,24,0,0,1-24,24H2268.66a24,24,0,0,0-24,24v946"/><path class="cls-5" d="M2669.11,587.35V576.79a15.84,15.84,0,0,0-31.68,0v10.56Z"/><line class="cls-5" x1="2669.11" y1="587.35" x2="2669.11" y2="635.95"/><line class="cls-5" x1="2653.27" y1="587.35" x2="2653.27" y2="635.95"/><line class="cls-5" x1="2637.43" y1="587.35" x2="2637.43" y2="635.95"/><g class="cls-23"><circle class="cls-24" cx="2704.47" cy="517.16" r="3.63"/><circle class="cls-24" cx="2743.83" cy="517.16" r="3.63"/><circle class="cls-24" cx="2714.31" cy="536.84" r="3.63"/><circle class="cls-24" cx="2753.67" cy="536.84" r="3.63"/><circle class="cls-24" cx="2733.99" cy="536.84" r="3.63"/><circle class="cls-24" cx="2724.15" cy="517.16" r="3.63"/><circle class="cls-24" cx="2704.47" cy="595.88" r="3.63"/><circle class="cls-24" cx="2743.83" cy="595.88" r="3.63"/><circle class="cls-24" cx="2714.31" cy="576.2" r="3.63"/><circle class="cls-24" cx="2753.67" cy="576.2" r="3.63"/><circle class="cls-24" cx="2733.99" cy="576.2" r="3.63"/><circle class="cls-24" cx="2724.15" cy="595.88" r="3.63"/><circle class="cls-24" cx="2704.47" cy="556.52" r="3.63"/><circle class="cls-24" cx="2743.83" cy="556.52" r="3.63"/><circle class="cls-24" cx="2724.15" cy="556.52" r="3.63"/><circle class="cls-24" cx="2802.87" cy="517.16" r="3.63"/><circle class="cls-24" cx="2763.51" cy="517.16" r="3.63"/><circle class="cls-24" cx="2793.03" cy="536.84" r="3.63"/><circle class="cls-24" cx="2773.35" cy="536.84" r="3.63"/><circle class="cls-24" cx="2783.19" cy="517.16" r="3.63"/><circle class="cls-24" cx="2802.87" cy="595.88" r="3.63"/><circle class="cls-24" cx="2763.51" cy="595.88" r="3.63"/><circle class="cls-24" cx="2793.03" cy="576.2" r="3.63"/><circle class="cls-24" cx="2773.35" cy="576.2" r="3.63"/><circle class="cls-24" cx="2783.19" cy="595.88" r="3.63"/><circle class="cls-24" cx="2802.87" cy="556.52" r="3.63"/><circle class="cls-24" cx="2763.51" cy="556.52" r="3.63"/><circle class="cls-24" cx="2783.19" cy="556.52" r="3.63"/><circle class="cls-24" cx="2812.71" cy="536.84" r="3.63"/><circle class="cls-24" cx="2812.71" cy="576.2" r="3.63"/></g><rect class="cls-2" x="2735.99" y="502.95" width="55.21" height="89.69"/><path class="cls-2" d="M2724,467.8,2736,374.89h26.77l12,92.91a39.64,39.64,0,0,1,16.14,32V631h-83.14V499.76A39.7,39.7,0,0,1,2724,467.8Z"/><rect class="cls-2" x="2735.99" y="502.95" width="55.21" height="89.69"/><path class="cls-5" d="M2731.4,350.69a9,9,0,0,0,18,0"/><path class="cls-5" d="M2749.42,350.69a9,9,0,0,0,18,0"/><line class="cls-22" x1="2735.25" y1="332.65" x2="2763.59" y2="332.65"/><line class="cls-5" x1="2567.07" y1="342.26" x2="2567.07" y2="165.27"/><rect class="cls-22" x="2427.15" y="164.27" width="139.92" height="41.74"/><polyline class="cls-22" points="2427.15 185.14 2345.8 185.14 2375.45 206.01 2345.8 226.88 2485.72 226.88 2485.72 208.71"/><polyline class="cls-2" points="2058.07 101.84 1969.05 101.84 1969.05 190.86 2058.07 190.86 2058.07 135.1"/><rect class="cls-5" x="1970.42" y="138.78" width="59.82" height="23.52" transform="translate(692.33 -1370.35) rotate(45)"/><rect class="cls-5" x="1992.1" y="129.16" width="87.03" height="23.52" transform="translate(3574.67 -1198.83) rotate(135)"/><polyline class="cls-5" points="2829.07 1015.54 2712.47 1015.54 2712.47 1132.15 2829.07 1132.15 2829.07 1059.11"/><rect class="cls-22" x="2714.26" y="1063.93" width="78.36" height="30.81" transform="translate(1569.67 -1630.85) rotate(45)"/><rect class="cls-22" x="2742.66" y="1051.33" width="114" height="30.81" transform="translate(5533.62 -158.63) rotate(135)"/><path class="cls-5" d="M2643.81,237.09a22.78,22.78,0,1,0,0,45.56h88.73a22.78,22.78,0,1,0,0-45.56c-.59,0-1.19,0-1.77.06a29.55,29.55,0,0,0,.22-3.55,28.1,28.1,0,0,0-51.61-15.38,22.8,22.8,0,0,0-35.57,18.87Z"/><line class="cls-5" x1="1804.66" y1="961.79" x2="1855.73" y2="961.79"/><circle class="cls-24" cx="1836.72" cy="842.83" r="5.48"/><circle class="cls-24" cx="1836.72" cy="902.24" r="5.48"/><circle class="cls-24" cx="1836.72" cy="872.53" r="5.48"/><circle class="cls-24" cx="1747.61" cy="827.98" r="5.48"/><circle class="cls-24" cx="1777.31" cy="842.83" r="5.48"/><circle class="cls-24" cx="1777.31" cy="872.53" r="5.48"/><circle class="cls-24" cx="1747.61" cy="857.68" r="5.48"/><circle class="cls-24" cx="1807.02" cy="827.98" r="5.48"/><circle class="cls-24" cx="1807.02" cy="887.39" r="5.48"/><circle class="cls-24" cx="1807.02" cy="857.68" r="5.48"/><path class="cls-5" d="M1732.36,750.1a28.92,28.92,0,1,0,0,57.84H1845a28.92,28.92,0,1,0,0-57.84c-.76,0-1.51,0-2.25.09a37.28,37.28,0,0,0,.28-4.51,35.67,35.67,0,0,0-65.52-19.52,28.92,28.92,0,0,0-45.15,23.94Z"/><rect class="cls-5" x="2284.33" y="598.71" width="58.33" height="58.33"/><rect class="cls-5" x="2342.66" y="598.71" width="58.33" height="58.33"/><rect class="cls-5" x="2284.33" y="657.03" width="58.33" height="58.33"/><line class="cls-5" x1="2284.33" y1="598.71" x2="2342.66" y2="657.03"/><line class="cls-5" x1="2342.66" y1="598.71" x2="2284.33" y2="657.03"/><rect class="cls-2" x="2342.66" y="657.03" width="58.33" height="58.33"/><line class="cls-2" x1="2342.66" y1="657.03" x2="2400.99" y2="715.36"/><line class="cls-2" x1="2400.99" y1="657.03" x2="2342.66" y2="715.36"/><line class="cls-5" x1="2284.33" y1="742.54" x2="2400.99" y2="742.54"/><line class="cls-16" x1="2284.33" y1="769.71" x2="2400.99" y2="769.71"/><line class="cls-13" x1="2284.33" y1="792.83" x2="2400.99" y2="792.83"/><path class="cls-22" d="M2505.85,319.69a99.21,99.21,0,1,0-47.12,174.87"/><circle class="cls-25" cx="2384.46" cy="423.46" r="18.52"/><circle class="cls-25" cx="2429.84" cy="382.36" r="26.85"/><path class="cls-26" d="M2453.82,485.61a26.85,26.85,0,1,0-52.82-9.72"/><circle class="cls-25" cx="2407.91" cy="334.99" r="9.26"/><path class="cls-12" d="M2986,795.43c1.49-9.28,10.77-19.74,22.72-19.74S3029,787.06,3029,799.62c0,23.8-21.49,41-43,54.17-21.49-13.16-43-30.37-43-54.17,0-12.56,8.33-23.93,20.28-23.93S2984.47,786.15,2986,795.43Z"/><line class="cls-2" x1="2604.69" y1="1085.74" x2="2604.69" y2="1527.62"/><path class="cls-2" d="M2635.52,1086.41v64.53a29.44,29.44,0,0,0,29.45,29.45h81.48a29.45,29.45,0,0,1,29.45,29.45V1526.2"/><path class="cls-2" d="M2649.06,1040.84a22.79,22.79,0,0,1,0,45.57h-88.74a22.79,22.79,0,0,1,0-45.57c.6,0,1.19,0,1.78.07a27.74,27.74,0,0,1-.22-3.55,28.1,28.1,0,0,1,51.61-15.38,22.79,22.79,0,0,1,35.57,18.86Z"/><line class="cls-5" x1="2449.66" y1="1180.39" x2="2572.93" y2="1180.39"/><line class="cls-2" x1="2572.93" y1="1085.74" x2="2572.93" y2="1527.62"/><line class="cls-22" x1="2510.91" y1="416.32" x2="2510.91" y2="374.35"/><line class="cls-22" x1="2538.99" y1="389.62" x2="2538.99" y2="374.35"/><line class="cls-22" x1="2623.24" y1="416.32" x2="2623.24" y2="374.35"/><line class="cls-22" x1="2595.16" y1="389.62" x2="2595.16" y2="374.35"/><line class="cls-22" x1="2567.07" y1="627.87" x2="2430.74" y2="627.87"/><path class="cls-9" d="M1938.51,569.45v32.36a27.68,27.68,0,0,0,27.68,27.68h36.94a27.67,27.67,0,0,1,27.67,27.67v21.39a27.68,27.68,0,0,0,27.68,27.68h21.27a27.68,27.68,0,0,1,27.68,27.68h0a27.67,27.67,0,0,0,27.68,27.67h4.16"/><line class="cls-5" x1="2193.52" y1="706.23" x2="2193.52" y2="496.37"/><circle class="cls-5" cx="2193.52" cy="486.04" r="10.32"/><circle class="cls-11" cx="2586.14" cy="106.93" r="18.55"/><circle class="cls-2" cx="2641.8" cy="106.93" r="18.55"/><circle class="cls-5" cx="2697.45" cy="106.93" r="18.55"/><circle class="cls-11" cx="2285.89" cy="840.29" r="16.23"/><circle class="cls-2" cx="2285.89" cy="888.99" r="16.23"/><circle class="cls-5" cx="2285.89" cy="937.69" r="16.23"/><path class="cls-5" d="M2285.89,953.92v72.44a33.74,33.74,0,0,1-9.89,23.86l-28.94,28.94"/><line class="cls-22" x1="2217.19" y1="731.57" x2="2175.85" y2="731.57"/><line class="cls-22" x1="2217.19" y1="754.58" x2="2175.85" y2="754.58"/><line class="cls-22" x1="2217.19" y1="777.6" x2="2175.85" y2="777.6"/><line class="cls-14" x1="2217.19" y1="800.61" x2="2175.85" y2="800.61"/><line class="cls-14" x1="2217.19" y1="823.62" x2="2175.85" y2="823.62"/><line class="cls-22" x1="2217.19" y1="846.64" x2="2175.85" y2="846.64"/><line class="cls-22" x1="2217.19" y1="869.65" x2="2175.85" y2="869.65"/><line class="cls-22" x1="2217.19" y1="892.67" x2="2175.85" y2="892.67"/><line class="cls-22" x1="2217.19" y1="915.68" x2="2175.85" y2="915.68"/><line class="cls-14" x1="2196.52" y1="934.87" x2="2196.52" y2="987.72"/><line class="cls-22" x1="2175.85" y1="934.87" x2="2175.85" y2="987.72"/><line class="cls-14" x1="2217.19" y1="934.87" x2="2217.19" y2="987.72"/><rect class="cls-22" x="2799.66" y="73.33" width="49.87" height="49.87" rx="5.32" ry="5.32"/><rect class="cls-22" x="2849.53" y="120.9" width="28.97" height="28.97" rx="3.09" ry="3.09"/><rect class="cls-22" x="2803.52" y="222.31" width="28.97" height="28.97" rx="3.09" ry="3.09" transform="translate(4978.06 -1588.4) rotate(135)"/><line class="cls-22" x1="2818" y1="218.49" x2="2818" y2="123.2"/><rect class="cls-2" x="2760.15" y="154.8" width="28.97" height="28.97" rx="3.09" ry="3.09" transform="translate(5549.27 338.57) rotate(-180)"/><line class="cls-2" x1="2774.63" y1="150.99" x2="2774.63" y2="75.24"/><path class="cls-22" d="M2878.5,149.86h25a0,0,0,0,1,0,0v81.75A12.51,12.51,0,0,1,2891,244.13h0a12.51,12.51,0,0,1-12.51-12.51V149.86A0,0,0,0,1,2878.5,149.86Z"/><path class="cls-2" d="M2799.66,4V85.75a12.52,12.52,0,1,1-25,0V53.9H2764a39.23,39.23,0,0,1-39.23-39.23V4h49.86V4Z"/><path class="cls-5" d="M2386.83,873.48H2799a0,0,0,0,1,0,0v0a16.86,16.86,0,0,1-16.86,16.86H2370a0,0,0,0,1,0,0v0A16.86,16.86,0,0,1,2386.83,873.48Z"/><g class="cls-27"><circle class="cls-28" cx="1698.04" cy="1096.55" r="6.37"/><circle class="cls-28" cx="1767.05" cy="1096.55" r="6.37"/><circle class="cls-28" cx="1715.29" cy="1131.06" r="6.37"/><circle class="cls-28" cx="1784.3" cy="1131.06" r="6.37"/><circle class="cls-28" cx="1749.8" cy="1131.06" r="6.37"/><circle class="cls-28" cx="1732.55" cy="1096.55" r="6.37"/><circle class="cls-28" cx="1698.04" cy="1234.58" r="6.37"/><circle class="cls-28" cx="1767.05" cy="1234.58" r="6.37"/><circle class="cls-28" cx="1715.29" cy="1200.07" r="6.37"/><circle class="cls-28" cx="1784.3" cy="1200.07" r="6.37"/><circle class="cls-28" cx="1749.8" cy="1200.07" r="6.37"/><circle class="cls-28" cx="1732.55" cy="1234.58" r="6.37"/><circle class="cls-28" cx="1698.04" cy="1165.56" r="6.37"/><circle class="cls-28" cx="1767.05" cy="1165.56" r="6.37"/><circle class="cls-28" cx="1732.55" cy="1165.56" r="6.37"/><circle class="cls-28" cx="1870.57" cy="1096.55" r="6.37"/><circle class="cls-28" cx="1801.56" cy="1096.55" r="6.37"/><circle class="cls-28" cx="1853.32" cy="1131.06" r="6.37"/><circle class="cls-28" cx="1818.81" cy="1131.06" r="6.37"/><circle class="cls-28" cx="1836.06" cy="1096.55" r="6.37"/><circle class="cls-28" cx="1870.57" cy="1234.58" r="6.37"/><circle class="cls-28" cx="1801.56" cy="1234.58" r="6.37"/><circle class="cls-28" cx="1853.32" cy="1200.07" r="6.37"/><circle class="cls-28" cx="1818.81" cy="1200.07" r="6.37"/><circle class="cls-28" cx="1836.06" cy="1234.58" r="6.37"/><circle class="cls-28" cx="1870.57" cy="1165.56" r="6.37"/><circle class="cls-28" cx="1801.56" cy="1165.56" r="6.37"/><circle class="cls-28" cx="1836.06" cy="1165.56" r="6.37"/><circle class="cls-28" cx="1887.82" cy="1131.06" r="6.37"/><circle class="cls-28" cx="1887.82" cy="1200.07" r="6.37"/><circle class="cls-28" cx="1715.29" cy="1269.08" r="6.37"/><circle class="cls-28" cx="1784.3" cy="1269.08" r="6.37"/><circle class="cls-28" cx="1749.8" cy="1269.08" r="6.37"/><circle class="cls-28" cx="1698.04" cy="1303.59" r="6.37"/><circle class="cls-28" cx="1767.05" cy="1303.59" r="6.37"/><circle class="cls-28" cx="1732.55" cy="1303.59" r="6.37"/><circle class="cls-28" cx="1853.32" cy="1269.08" r="6.37"/><circle class="cls-28" cx="1818.81" cy="1269.08" r="6.37"/><circle class="cls-28" cx="1870.57" cy="1303.59" r="6.37"/><circle class="cls-28" cx="1801.56" cy="1303.59" r="6.37"/><circle class="cls-28" cx="1836.06" cy="1303.59" r="6.37"/><circle class="cls-28" cx="1991.34" cy="1131.06" r="6.37"/><circle class="cls-28" cx="1991.34" cy="1200.07" r="6.37"/><circle class="cls-28" cx="1905.07" cy="1096.55" r="6.37"/><circle class="cls-28" cx="1974.09" cy="1096.55" r="6.37"/><circle class="cls-28" cx="1922.33" cy="1131.06" r="6.37"/><circle class="cls-28" cx="1956.83" cy="1131.06" r="6.37"/><circle class="cls-28" cx="1939.58" cy="1096.55" r="6.37"/><circle class="cls-28" cx="1905.07" cy="1234.58" r="6.37"/><circle class="cls-28" cx="1974.09" cy="1234.58" r="6.37"/><circle class="cls-28" cx="1922.33" cy="1200.07" r="6.37"/><circle class="cls-28" cx="1956.83" cy="1200.07" r="6.37"/><circle class="cls-28" cx="1939.58" cy="1234.58" r="6.37"/><circle class="cls-28" cx="1905.07" cy="1165.56" r="6.37"/><circle class="cls-28" cx="1974.09" cy="1165.56" r="6.37"/><circle class="cls-28" cx="1939.58" cy="1165.56" r="6.37"/><circle class="cls-28" cx="1991.34" cy="1269.08" r="6.37"/><circle class="cls-28" cx="1922.33" cy="1269.08" r="6.37"/><circle class="cls-28" cx="1956.83" cy="1269.08" r="6.37"/><circle class="cls-28" cx="1905.07" cy="1303.59" r="6.37"/><circle class="cls-28" cx="1974.09" cy="1303.59" r="6.37"/><circle class="cls-28" cx="1939.58" cy="1303.59" r="6.37"/><circle class="cls-28" cx="1887.82" cy="1269.08" r="6.37"/></g><rect class="cls-29" x="1604.28" y="1002.77" width="17.7" height="17.7"/><rect class="cls-29" x="1604.28" y="1038.98" width="17.7" height="17.7"/><rect class="cls-29" x="1604.28" y="1075.19" width="17.7" height="17.7"/><rect class="cls-2" x="3119.69" y="710.27" width="18.55" height="147.78" transform="translate(3913.13 -2344.8) rotate(90)"/><rect class="cls-13" x="3119.69" y="748.83" width="18.55" height="147.78" transform="translate(3951.69 -2306.24) rotate(90)"/><rect class="cls-12" x="3119.69" y="787.01" width="18.55" height="147.78" transform="translate(3989.86 -2268.07) rotate(90)"/><circle class="cls-22" cx="2818" cy="312.39" r="15.43"/><circle class="cls-22" cx="2818" cy="425.55" r="14.57"/><line class="cls-30" x1="2818" y1="410.97" x2="2818" y2="327.82"/><circle class="cls-31" cx="3176.69" cy="283.21" r="15.43"/><circle class="cls-31" cx="3063.54" cy="283.21" r="14.57"/><line class="cls-32" x1="3078.11" y1="283.21" x2="3161.26" y2="283.21"/><rect class="cls-7" x="3093.11" y="89.98" width="12.35" height="36.49" transform="translate(831.23 2223.22) rotate(-45)"/><rect class="cls-33" x="3222.45" y="85.33" width="12.35" height="68.23" transform="translate(5427.14 2486.89) rotate(-135)"/><rect class="cls-7" x="3176.37" y="89.13" width="12.35" height="71.92" transform="translate(6365.09 250.17) rotate(180)"/><rect class="cls-34" x="3126.65" y="89.13" width="12.35" height="34.11" rx="2.66" ry="2.66" transform="translate(6265.64 212.37) rotate(180)"/><rect class="cls-34" x="3190.18" y="51.06" width="12.35" height="34.11" rx="2.66" ry="2.66" transform="translate(3264.47 -3128.24) rotate(90)"/><rect class="cls-33" x="3151.68" y="122.81" width="12.35" height="38.24" transform="translate(6315.71 283.85) rotate(180)"/><rect class="cls-34" x="3226" y="135.59" width="12.35" height="12.35" rx="2.66" ry="2.66" transform="translate(3090.41 3373.94) rotate(-90)"/><rect class="cls-34" x="3275.63" y="135.59" width="12.35" height="12.35" rx="2.66" ry="2.66" transform="translate(3140.04 3423.56) rotate(-90)"/><rect class="cls-7" x="3070.76" y="110.9" width="12.35" height="12.35" transform="translate(2959.87 3194.01) rotate(-90)"/><rect class="cls-7" x="3151.68" y="98.99" width="12.35" height="12.35" transform="translate(3052.69 3263.01) rotate(-90)"/><rect class="cls-7" x="3098.71" y="107.65" width="12.35" height="68.23" transform="translate(2963.12 3246.64) rotate(-90)"/><rect class="cls-33" x="3250.93" y="114.58" width="12.35" height="34.11" transform="translate(6514.22 263.28) rotate(180)"/><rect class="cls-7" x="3201.07" y="88.69" width="12.35" height="34.11" transform="translate(6414.48 211.5) rotate(180)"/><rect class="cls-34" x="3151.68" y="74.29" width="12.35" height="12.35" rx="2.66" ry="2.66" transform="translate(6315.71 160.93) rotate(180)"/><rect class="cls-34" x="3114.3" y="74.29" width="12.35" height="31.89" rx="2.66" ry="2.66" transform="translate(6240.95 180.48) rotate(180)"/><rect class="cls-34" x="3213.41" y="74.29" width="12.35" height="12.35" rx="2.66" ry="2.66" transform="translate(6439.17 160.93) rotate(180)"/><rect class="cls-33" x="3269.45" y="108.41" width="12.35" height="12.35" transform="translate(5672.87 -2120.61) rotate(135)"/><polygon class="cls-5" points="3089.4 234.02 3069.4 177.16 3287.97 177.16 3267.97 234.02 3089.4 234.02"/><polygon class="cls-5" points="3107.24 234.02 3091.24 177.16 3266.13 177.16 3250.13 234.02 3107.24 234.02"/><polygon class="cls-5" points="3129.03 234.02 3117.91 177.16 3239.46 177.16 3228.34 234.02 3129.03 234.02"/><polygon class="cls-5" points="3152.81 234.02 3147.01 177.16 3210.36 177.16 3204.56 234.02 3152.81 234.02"/><circle class="cls-35" cx="1330.79" cy="843.94" r="7.94"/><circle class="cls-36" cx="1372.97" cy="896.76" r="7.94"/><circle class="cls-37" cx="1207.85" cy="929.28" r="7.94"/><circle class="cls-36" cx="1199.91" cy="860.9" r="7.94"/><circle class="cls-36" cx="1207.85" cy="774.89" r="7.94"/><circle class="cls-36" cx="1308.72" cy="806.42" r="7.94"/><circle class="cls-24" cx="1286.99" cy="840.29" r="7.94"/><polyline class="cls-5" points="1945.63 961.58 2149.25 961.58 2149.25 706.23 2244.66 706.23"/><path class="cls-5" d="M1919.22,945.74h10.56a15.85,15.85,0,1,1,0,31.69h-10.56Z"/><line class="cls-5" x1="1919.22" y1="945.74" x2="1870.62" y2="945.74"/><line class="cls-5" x1="1919.22" y1="961.58" x2="1870.62" y2="961.58"/><line class="cls-5" x1="1919.22" y1="977.43" x2="1870.62" y2="977.43"/><line class="cls-5" x1="2878.23" y1="1101.2" x2="2878.23" y2="1525.62"/></g></g></svg>