<svg xmlns="http://www.w3.org/2000/svg" viewBox="0 0 2159.9 303.1"><defs><style>.cls-1{isolation:isolate}.cls-2{fill:#e0cc00}.cls-3{fill:#d0af21}.cls-4{fill:#fff}.cls-5{fill:#b68400}.cls-6{fill:#4197cb;stroke-miterlimit:10;stroke-width:15.79px}.cls-6,.cls-9{stroke:#fff}.cls-7,.cls-8{fill:#009ade}.cls-8{opacity:.3;mix-blend-mode:multiply}.cls-9{stroke-linecap:round;stroke-linejoin:round;stroke-width:12.56px}.cls-10{fill:#011e41}</style></defs><title>logo-poutineweek-full</title><g class="cls-1"><g id="Layer_2" data-name="Layer 2"><g id="Layer_1-2" data-name="Layer 1"><polygon points="193.47 33.94 169.59 38.67 162.09 23.72 189.22 19.57 193.47 33.94" class="cls-2"/><polygon points="140.52 160.91 134.52 158.69 160.41 27.46 166.81 40.2 140.52 160.91" class="cls-2"/><polygon points="193.84 37.02 152.59 165.35 143.44 161.98 169.62 41.81 193.84 37.02" class="cls-3"/><path d="M191.48,16.09l5.81,20.25L154.51,169.43,131,160.76,158.43,21.11ZM143.44,162l9.16,3.38L193.84,37l-24.22,4.79Zm-8.92-3.29,6,2.22L166.81,40.2l-6.4-12.74Zm35.07-120,23.88-4.73-4.25-14.37-27.13,4.15Z" class="cls-4"/><polygon points="105.73 17.31 129.82 23.29 135.15 9.13 107.95 3.53 105.73 17.31" class="cls-2"/><polygon points="174.99 144.29 180.57 142.47 137.31 12.87 132.76 24.95 174.99 144.29" class="cls-2"/><polygon points="105.79 20.3 163.74 147.94 172.26 145.17 130.21 26.36 105.79 20.3" class="cls-3"/><path d="M105.26,0l-3,19.44,60.11,132.37,21.94-7.12-46-137.9Zm67,145.17-8.52,2.77L105.79,20.3l24.42,6.06Zm8.31-2.7L175,144.29,132.76,25l4.55-12.08ZM129.82,23.29l-24.09-6L108,3.53l27.2,5.6Z" class="cls-4"/><path d="M148.42,75.16c-.83-2.52-5.86-6.7-10.89-10S120,60.92,120,60.92l4.49,23.24Z" class="cls-5"/><path d="M148.07,54.33c-2.28,2.72-7.6-1.72-9.29,4.12C138,61.13,140.56,63,140.32,65s-4.16,4.17-4.63,8.81,3.73,9.25,7.89,9.15,6.16-2.25,9.23-5.74,3.72-3.27,9.51-2.69c6,.61,11.81-6.87,11.88-11.74.06-4.38-3.32-11.12-10.95-5.35C157.31,61.94,154,47.23,148.07,54.33Z" class="cls-4"/><polygon points="268.54 19.07 251.4 31.13 240.19 23.42 257.48 13.71 268.54 19.07" class="cls-2"/><polygon points="279.22 139.65 273.49 140.25 239.99 26.42 250.39 33.99 279.22 139.65" class="cls-3"/><polygon points="270.74 20.9 290.74 138.44 282 139.35 253.31 34.16 270.74 20.9" class="cls-2"/><path d="M256.73,10.86,273.23,19,294,140.91l-22.46,2.36L235.78,22.18ZM282,139.35l8.73-.91-20-117.54L253.31,34.16Zm-8.52.9,5.73-.6L250.39,34,240,26.42ZM251.4,31.13l17.14-12.06-11.06-5.36-17.29,9.71Z" class="cls-4"/><polygon points="314.14 53.38 291.07 58.77 285.25 44.9 311.35 39.94 314.14 53.38" class="cls-2"/><polygon points="252.84 175.64 247.34 173.77 283.33 48.49 288.29 60.33 252.84 175.64" class="cls-2"/><polygon points="314.22 56.28 263.91 179.39 255.53 176.55 290.83 61.74 314.22 56.28" class="cls-3"/><path d="M313.8,36.56l3.75,18.95L265.38,183.18l-21.59-7.32L282,42.57Zm-58.27,140,8.38,2.84L314.22,56.28l-23.39,5.46Zm-8.19-2.78,5.5,1.87L288.29,60.33l-5-11.84Zm43.73-115,23.07-5.39-2.79-13.44-26.1,5Z" class="cls-4"/><path d="M297.52,108.66c-8.8-5-10.71-13.61-20.94-15.08-8.8-1.25-12.15-11.31-23-6.28-4.43,2-6.18,19.53-6.18,19.53L264,109.92l18.43,5Z" class="cls-5"/><polygon points="318.51 79.54 327.48 104.58 346.21 103.83 334.83 76.03 318.51 79.54" class="cls-2"/><polygon points="225.56 196.08 231.1 200.59 343.55 107.37 327.57 108.01 225.56 196.08" class="cls-3"/><polygon points="315.31 80.81 214.4 187 222.85 193.88 324.41 106.19 315.31 80.81" class="cls-2"/><path d="M336.92,72.07,314,77.19,209.36,187.33,231.12,205l119.69-99.12ZM222.85,193.88,214.4,187,315.31,80.81l9.1,25.39Zm8.25,6.71-5.54-4.51,102-88.07,16-.64Zm96.38-96-9-25L334.83,76l11.38,27.8Z" class="cls-4"/><path d="M270.92,117.14c2.71,0,16.65,4.71,26.07,6,4.47.6,7.86,1.57,13.51,6.6,3.05,2.71-39,4.22-39,4.22Z" class="cls-5"/><path d="M213,53.21c-4.51,4.51-13.33-.85-16.68,5.85s4.6,8.16,6.28,12.35-3.36,12.84,3.34,12S212.1,76.8,218,76s10,.39,11.7-7.15,2.23-11.36-2-14.71S220.35,45.85,213,53.21Z" class="cls-4"/><path d="M224.9,49.76c-4.51,4.51-13.33-.85-16.68,5.85s4.61,8.16,6.28,12.35-3.36,12.84,3.34,12,6.18-6.63,12-7.46,10,.39,11.7-7.15,2.23-11.36-2-14.71S232.27,42.39,224.9,49.76Z" class="cls-4"/><path d="M301.76,81c-2.95,3.26-8.72-.62-10.91,4.23s3,5.91,4.11,8.94-2.2,9.3,2.18,8.69,4.05-4.79,7.88-5.4,6.56.29,7.65-5.17,1.46-8.22-1.28-10.65S306.58,75.69,301.76,81Z" class="cls-4"/><path d="M110.25,47.88c-4.5,4.51-13.33-.85-16.68,5.84s4.61,8.17,6.29,12.35-3.37,12.85,3.33,12,6.19-6.62,12-7.46,10,.39,11.7-7.14,2.22-11.37-2-14.71S117.62,40.51,110.25,47.88Z" class="cls-4"/><path d="M169.36,74.32c1.68-4.19,15.08-12.57,20.94-12.57s14.24-.83,18.43,1.68,4.21,24.63,4.21,24.63L190.3,96.93Z" class="cls-5"/><path d="M197.37,73.17c-1.78,1.92-5.49-.14-6.77,2.66s2,3.28,2.78,5-1.18,5.33,1.56,4.88,2.43-2.82,4.83-3.26,4.13,0,4.7-3.11.73-4.71-1-6S200.28,70,197.37,73.17Z" class="cls-4"/><polygon points="93.89 35.11 75.52 40.78 71.1 31.24 88.43 27.6 93.89 35.11" class="cls-2"/><polygon points="42.99 140.42 38.52 139.4 69.5 33.73 73.39 42.94 42.99 140.42" class="cls-3"/><polygon points="94.6 37.26 51.98 142.46 45.17 140.91 75.44 43.87 94.6 37.26" class="cls-2"/><path d="M89.28,25l8,11.32L53.12,145.42l-17.52-4L68.49,29ZM45.17,140.91,52,142.46,94.6,37.26,75.44,43.87Zm-6.65-1.51,4.47,1,30.4-97.48-3.9-9.21Zm37-98.62,18.37-5.67L88.43,27.6,71.1,31.24Z" class="cls-4"/><polygon points="42.4 49.31 35.05 70.18 22.68 68.18 31.29 49.59 42.4 49.31" class="cls-2"/><polygon points="109.18 164.81 105.06 168.33 23.98 71.29 35.67 73.57 109.18 164.81" class="cls-3"/><polygon points="44.99 50.03 117.46 157.7 111.18 163.09 38 72.24 44.99 50.03" class="cls-2"/><path d="M29.33,47.12,46,46.86l75.16,111.67L105,172.39,18.69,69.19Zm81.85,116,6.28-5.39L45,50,38,72.24Zm-6.12,5.24,4.12-3.52L35.67,73.57,24,71.29Zm-70-98.15L42.4,49.31l-11.12.28-8.6,18.59Z" class="cls-4"/><polygon points="176.34 82.88 145.03 92.06 124.41 80.54 160.79 71.18 176.34 82.88" class="cls-2"/><polygon points="183.36 205.4 173.26 204.73 124.44 84.17 142.03 94 183.36 205.4" class="cls-3"/><polygon points="178.89 85.51 203.67 206.76 188.28 205.74 147.14 94.81 178.89 85.51" class="cls-2"/><path d="M117.44,79l52.05,128.27,39.63,2.64L183.42,84.18,161.76,67.65Zm29.7,15.79,31.75-9.3,24.78,121.25-15.39-1Zm-22.7-10.65L142,94l41.33,111.4-10.1-.67Zm0-3.62,36.38-9.36,15.55,11.7L145,92.06Z" class="cls-4"/><polygon points="102.03 44.25 119.86 52.19 126.12 43.04 108.98 37.29 102.03 44.25" class="cls-2"/><polygon points="135.29 157.09 140.06 156.59 127.32 45.77 121.66 54.64 135.29 157.09" class="cls-3"/><polygon points="100.91 46.34 125.7 158.1 132.97 157.34 119.39 55.33 100.91 46.34" class="cls-2"/><path d="M108.59,34.54,98.28,45.06,124,161l18.71-2L129.2,41.09ZM133,157.34l-7.27.76L100.91,46.34l18.48,9Zm7.09-.75-4.77.5L121.66,54.64l5.66-8.87Zm-20.2-104.4L102,44.25l7-7L126.12,43Z" class="cls-4"/><path d="M122.81,87c-2.52-.69-1.29-5.12-5.67-4.63-2,.22-2.43,2.29-3.81,2.67s-4.07-1.47-7.26-.53-4.9,4.72-3.51,7.26S106,95,109.27,96s3.33,1.43,4.79,5.14c1.52,3.89,8.27,5.47,11.49,4.23,2.9-1.11,6.25-5,0-8.14C120.75,94.71,129.37,88.83,122.81,87Z" class="cls-4"/><path d="M63.89,67.83c-2.28,2.72-7.6-1.71-9.29,4.12-.77,2.68,1.78,4.57,1.54,6.56S52,82.68,51.52,87.32s3.72,9.24,7.88,9.15,6.16-2.25,9.24-5.74,3.71-3.27,9.5-2.69c6,.61,11.81-6.88,11.88-11.75.06-4.37-3.32-11.11-11-5.34C73.14,75.44,69.87,60.74,63.89,67.83Z" class="cls-4"/><polygon points="217.06 73.42 225.03 95.35 243.99 98.91 233.72 74.24 217.06 73.42" class="cls-2"/><polygon points="117.96 145.64 123.36 150.46 241.15 101.14 224.97 98.1 117.96 145.64" class="cls-3"/><polygon points="213.78 73.72 107.08 135.94 115.32 143.29 221.86 95.96 213.78 73.72" class="cls-2"/><path d="M236,71.56l-23.38-1L102,135.08,123.19,154l125.36-52.42ZM115.32,143.29l-8.24-7.35,106.7-62.22L221.86,96Zm8,7.17-5.4-4.82L225,98.1l16.18,3ZM225,95.35l-8-21.93,16.66.82L244,98.91Z" class="cls-4"/><polygon points="231.19 34.06 212.47 45.87 204.01 36.62 222.29 27.39 231.19 34.06" class="cls-2"/><polygon points="211.88 166.07 206.46 166.28 203.1 39.87 210.85 48.91 211.88 166.07" class="cls-3"/><polygon points="232.77 36.23 222.78 165.64 214.52 165.97 213.5 49.32 232.77 36.23" class="cls-2"/><path d="M222.29,24.24l13.22,10.13L225.15,168.58l-21.26.84L200.25,34.94ZM214.52,166l8.26-.32,10-129.41L213.5,49.32Zm-8.06.32,5.42-.21-1-117.16-7.75-9Zm6-120.41,18.72-11.8-8.9-6.68L204,36.62Z" class="cls-4"/><polygon points="155.82 57.99 174.02 64.61 179.23 55.17 161.93 50.67 155.82 57.99" class="cls-2"/><polygon points="199.38 166.88 203.99 166.06 180.67 57.77 176.01 66.89 199.38 166.88" class="cls-3"/><polygon points="154.94 60.13 190.11 168.51 197.13 167.27 173.86 67.73 154.94 60.13" class="cls-2"/><path d="M161.28,48l-9.05,11.07,36.49,112.41,18.08-3.2L182.05,53.05Zm35.85,119.29-7,1.24L154.94,60.13l18.92,7.6Zm6.86-1.21-4.61.82L176,66.89l4.66-9.12ZM174,64.61,155.82,58l6.11-7.32,17.3,4.5Z" class="cls-4"/><path d="M104.87,98.19c4.6-.84,13.94-6.38,19.26-7.54a57.81,57.81,0,0,1,27.23,1.26c6.7,2.09,2.93,15.07,2.93,15.07l-2.1,12.57-36.85-2.93Z" class="cls-5"/><path d="M90.73,91.54c-3.14-.63-14.27-7.5-26.49-4.24-9.42,2.51-12.56,13.19-19.47,16.34-6.18,2.81,15.71,14.44,15.71,14.44l28.89-9.42Z" class="cls-5"/><polygon points="22.76 84.11 20.64 109.82 3.64 112.36 7.26 83.56 22.76 84.11" class="cls-2"/><polygon points="133.95 180.37 130.04 185.68 6.87 115.32 21.38 113.15 133.95 180.37" class="cls-3"/><polygon points="25.93 84.78 141.82 169.67 135.85 177.77 23.78 110.85 25.93 84.78" class="cls-2"/><path d="M4.44,80.11l21.79,1,120.19,88L131.07,190,0,115.17Zm131.42,97.66,6-8.1L25.93,84.77l-2.15,26.08ZM130,185.68l3.91-5.31L21.38,113.15,6.87,115.32ZM20.64,109.82,22.76,84.1l-15.5-.54-3.62,28.8Z" class="cls-4"/><polygon points="111.9 72.22 88.09 84.66 74.16 71.37 101.68 58.51 111.9 72.22" class="cls-2"/><polygon points="104.88 221.82 97.56 221.38 73.82 75.8 85.7 87.14 104.88 221.82" class="cls-3"/><polygon points="113.5 75.33 119.6 222.69 108.44 222.03 89.36 87.94 113.5 75.33" class="cls-2"/><path d="M102.75,54.15l14.19,19.38,6.33,152.82-28.72-1.69L69.21,69.77ZM108.44,222l11.16.66L113.5,75.33,89.36,88Zm-10.88-.65,7.32.44L85.7,87.14,73.82,75.8ZM88.09,84.66,111.9,72.22,101.68,58.51,74.16,71.37Z" class="cls-4"/><path d="M49,120.44c-2.93,0-12.3,2.88-14,4.55s-4.71,5-5.13,6.71,17.59,1.67,17.59,1.67Z" class="cls-5"/><polygon points="78.26 109.51 59.03 123.61 47.07 113.26 69.35 98.33 78.26 109.51" class="cls-2"/><polygon points="77.6 245.64 71.55 246.13 46.94 117.31 57.14 126.14 77.6 245.64" class="cls-3"/><polygon points="79.69 112.13 89.79 244.66 80.55 245.4 60.19 126.43 79.69 112.13" class="cls-2"/><path d="M70.08,94.27l12.39,15.82L92.94,247.54l-23.77,1.91-26.25-137ZM80.55,245.4l9.24-.74L79.69,112.13l-19.5,14.3Zm-9,.73,6-.49L57.14,126.14l-10.2-8.83ZM59,123.61l19.23-14.1L69.35,98.33,47.07,113.26Z" class="cls-4"/><path d="M58.28,131.9c17.27-1.88,35.18-25.12,50.25-14.44,23.08,16.34,8.8,20.1,8.8,20.1l-59-5.66" class="cls-5"/><polygon points="255.63 75.1 232.49 80.87 225.34 66.76 251.62 61.38 255.63 75.1" class="cls-2"/><polygon points="203.45 200.84 197.67 199 223.69 70.46 229.78 82.5 203.45 200.84" class="cls-2"/><polygon points="255.96 78.07 215.1 204.55 206.27 201.74 232.5 83.92 255.96 78.07" class="cls-3"/><path d="M253.84,57.9l5.47,19.34L216.93,208.41l-22.72-7.23L221.83,64.41ZM206.27,201.74l8.83,2.81L256,78.07,232.5,83.92Zm-8.6-2.74,5.78,1.84L229.78,82.5l-6.09-12ZM232.49,80.87l23.14-5.77-4-13.71-26.28,5.37Z" class="cls-4"/><polygon points="235.03 113.82 213.41 106.35 214.31 92.47 233.76 101.43 235.03 113.82" class="cls-2"/><polygon points="124.97 192.27 121.06 187.8 211.3 94.04 210.06 107.14 124.97 192.27" class="cls-3"/><polygon points="234.54 116.72 132.85 201.26 126.88 194.46 211.6 109.7 234.54 116.72" class="cls-2"/><path d="M236.06,99.16l1.75,18.56L132.35,205.4,117,187.87l96-99.81ZM126.88,194.45l6,6.81,101.69-84.54-22.94-7Zm-5.82-6.65,3.91,4.47,85.09-85.13L211.3,94Zm92.35-81.45L235,113.82l-1.27-12.39-19.45-9Z" class="cls-4"/><path d="M174.18,112.12c5-1.68,4.08-7.23,12.88-7.23,9.13,0,10.05,11,18.85,13.82,4.29,1.38,16,2.2,15.38,14.24-.48,9.24-48.58,6.7-48.58,6.7Z" class="cls-5"/><path d="M246,90.89c-4.52,4.51-13.33-.85-16.69,5.85s4.61,8.16,6.29,12.35-3.36,12.84,3.34,12,6.18-6.62,12-7.45,10,.38,11.7-7.15,2.22-11.36-2-14.71S253.39,83.52,246,90.89Z" class="cls-4"/><path d="M165.93,77.7c-4.51,4.51-13.33-.85-16.68,5.84s4.61,8.17,6.28,12.35-3.36,12.85,3.34,12,6.18-6.62,12-7.46,10,.39,11.7-7.15,2.23-11.36-2-14.7S173.3,70.33,165.93,77.7Z" class="cls-4"/><path d="M105.77,93.17c-1.91,2.51-7.58-1.71-8.55,3.72-.45,2.5,2.25,4.29,2.25,6.15s-3.57,3.85-3.48,8.18,4.68,8.71,8.71,8.67,5.72-2,8.3-5.24,3.24-3,8.93-2.39c5.94.66,10.67-6.27,10.18-10.82-.44-4.08-4.5-10.44-11.24-5.15C115.62,100.41,110.75,86.61,105.77,93.17Z" class="cls-4"/><polygon points="280.38 118.5 254.61 119.77 249.86 103.24 278.89 103.06 280.38 118.5" class="cls-2"/><polygon points="199.51 241.34 193.73 238.15 247.36 106.83 251.41 120.93 199.51 241.34" class="cls-2"/><polygon points="280.13 121.73 211.15 247.74 202.33 242.88 254 123.01 280.13 121.73" class="cls-3"/><path d="M282,99.81l1.91,21.73L212.31,252.23l-22.7-12.48L246.6,100ZM202.33,242.88l8.82,4.86,69-126L254,123Zm-8.6-4.73,5.78,3.19,51.9-120.41-4-14.1Zm60.88-118.38,25.77-1.27-1.49-15.44-29,.18Z" class="cls-4"/><polygon points="140.46 94.63 164.34 101.01 169.64 87.09 142.68 81.03 140.46 94.63" class="cls-2"/><polygon points="209 221.71 214.54 220.01 171.78 90.83 167.25 102.71 209 221.71" class="cls-2"/><polygon points="140.52 97.59 197.84 225.11 206.3 222.53 164.73 104.06 140.52 97.59" class="cls-3"/><path d="M140,77.48l-2.95,19.19,59.46,132.25,21.76-6.64L172.85,84.83ZM206.3,222.53l-8.46,2.58L140.52,97.59l24.21,6.47Zm8.24-2.52-5.54,1.7-41.75-119,4.52-11.88Zm-50.2-119-23.88-6.38L142.68,81l27,6.06Z" class="cls-4"/><polygon points="126.17 106.04 124.5 129.99 109.41 134.76 113.31 112.31 126.17 106.04" class="cls-2"/><polygon points="242.15 180.63 238.52 186.23 111.96 137.04 126.33 132.91 242.15 180.63" class="cls-3"/><polygon points="129.42 105.33 249.46 169.35 243.92 177.9 128.61 130.38 129.42 105.33" class="cls-3"/><path d="M110.2,111l19.33-9.24L254,168.16l-14.26,22L105.1,137.89Zm133.72,66.9,5.54-8.55-120-64-.81,25Zm-5.4,8.33,3.63-5.6L126.33,132.91,112,137ZM124.5,130l1.67-24-12.86,6.27-3.9,22.45Z" class="cls-4"/><path d="M166.36,120.45c1.77,1.48-4.77,3.9-2.17,5.2s3.69-.43,5.42-.22,2.82,3.47,6.06,2.17,5.71-2.16,3.91-5.41c-2.17-3.9-5.84-.17-7.37-2.82C169.83,115.25,162.46,117.2,166.36,120.45Z" class="cls-4"/><path d="M14,105.78c2.19,3.24-3,5.63.85,9s6.3.25,9.4.68,8,5.06,8.64,1.87-3.29-4.56-2.77-7.38,2.1-4.3-2.64-7.14-7.18-4.14-10.18-3.23S10.44,100.49,14,105.78Z" class="cls-4"/><path d="M261,133.17c-33.85-.6-72.69-.93-93.56-.94h-.65c-20.91,0-59.76.34-93.56.94-29.32.53-59.71,1.24-63.71,2.57-.34.41-1.89,2.92.07,13.39H10a4.4,4.4,0,0,1,4.34,3.74l24.07,138.6a4.37,4.37,0,0,0,4.35,3.74H291.51a4.37,4.37,0,0,0,4.35-3.74l24.07-138.6a4.42,4.42,0,0,1,4.35-3.74h.39c2-10.48.4-13,.06-13.39C320.74,134.41,290.35,133.7,261,133.17Z" class="cls-6"/><path d="M261,133.17c-33.85-.6-72.69-.93-93.56-.94h-.65c-20.91,0-59.76.34-93.56.94-29.32.53-59.71,1.24-63.71,2.57-.34.41-1.89,2.92.07,13.39H10a4.4,4.4,0,0,1,4.34,3.74l24.07,138.6a4.37,4.37,0,0,0,4.35,3.74H291.51a4.37,4.37,0,0,0,4.35-3.74l24.07-138.6a4.42,4.42,0,0,1,4.35-3.74h.39c2-10.48.4-13,.06-13.39C320.74,134.41,290.35,133.7,261,133.17Z" class="cls-7"/><path d="M168.71,148.44h-3.14c-53.75.14-106,1.27-142,2.94,0,0,15.08,93,51.51,107.42,17.49,6.93,55.09,9.67,92,9.32,37,.35,74.55-2.39,92-9.32,36.44-14.45,51.52-107.42,51.52-107.42C274.77,149.71,222.47,148.58,168.71,148.44Z" class="cls-8"/><path d="M95.48,179.65c4.83,1.06,9.7,6,15.59,6a10.07,10.07,0,0,0,3.89-.74c-.46,4.45-2.32,7.28-4.82,7.28-6.63,0-12.48-10.53-20.69-10.53a9.39,9.39,0,0,0-1.06,0l6.91-32.13c-4,1.67-6.49,5.15-6.49,10.11a6.63,6.63,0,0,0,.64,3.15c-3.2,0-5-1.16-5-4.5,0-6.17,8.53-12.06,16.28-12.06.65,0,1.25.05,1.86.1Z" class="cls-9"/><path d="M124.05,157.38l-3.34,15.77a6.4,6.4,0,0,0-.18,1.48c0,1.3.6,1.72,1.9,1.72a2.35,2.35,0,0,0,1-.18c-1.25,3.24-2.13,4.68-4.64,4.68s-4.17-1.62-4.54-4.31c-1.4,2.13-3.62,4.31-6.91,4.31s-6.17-1.95-6.17-7.47c0-6.26,3.85-16.23,11.92-16.23,2.64,0,3.75,1,3.75,2.37v.32l.51-2.46Zm-16,15.36c0,3.57,1.49,3.61,2.32,3.61,1.34,0,3.29-1.39,3.85-4.08l2.23-10.48a1.8,1.8,0,0,0-1.91-1.76C110.6,160,108.05,168.37,108.05,172.74Z" class="cls-9"/><path d="M50,171.85l-8.22,38.62c11.68-.92,20.24-16.07,20.24-28.44,0-8.56-4.16-15.73-14.34-15.73-18.73,0-29.94,10.52-29.94,28.1,0,5.89,1.5,6.82,1.61,7.86-8,0-12.37-2.89-12.37-11.21C7,175.67,28.29,161,47.6,161c19,0,27.28,10.86,27.28,22.77,0,14.68-12.6,31-33.41,31h-.58l-7,32.95H17.19l15.72-73.53Z" class="cls-9"/><path d="M106.47,209.24a2.73,2.73,0,0,0,1.22.21c5,0,12.2-3.29,16.92-6.59l1,3c-4.18,4.51-11.43,7.8-19.46,9.12C104.38,235.29,93.39,248,79.87,248c-10.22,0-17.59-4.84-17.59-17.37s7.47-39,30.12-39C101.86,191.65,106.47,197.69,106.47,209.24Zm-9.45,6c-2.31-.55-3-2.42-3-4.62,0-3.08,1.43-5,3.41-5.93-.22-4.62-1.32-6.38-4.18-6.38-7.8,0-14.62,20.11-14.62,30.89,0,7.25,1.43,8.91,5.61,8.91C89.66,238.15,95.26,228.25,97,215.28Z" class="cls-9"/><path d="M162.54,192.63,154.62,230a15.27,15.27,0,0,0-.44,3.52c0,3.08,1.43,4.06,4.51,4.06,4.29,0,7.26-4.17,8.9-9.67h4.62c-6.26,17.92-16.16,20.34-22.09,20.34-6.27,0-10.23-3.63-10.89-10.45-5.49,9-11.65,10.45-16.27,10.45-6.59,0-11.76-4-11.76-13.2a36.08,36.08,0,0,1,.88-7.14l7.47-35.29h15.83L127.47,230a15.38,15.38,0,0,0-.33,3.07c0,2.54.88,4.51,3.3,4.51,4.28,0,7.14-4.17,8.79-9.67l7.48-35.29Z" class="cls-9"/><path d="M194.63,175.27l-3.74,17.36h6.6l-.88,4.4H190l-7,33a15.27,15.27,0,0,0-.44,3.52c0,3.08,1.43,4.06,4.51,4.06,4.29,0,8.24-4.17,9.89-9.67h4.62c-6.27,17.92-17.15,20.34-23.08,20.34-6.6,0-11.77-4-11.77-13.2a36.08,36.08,0,0,1,.88-7.14l6.6-30.89h-3.63l.88-4.4h3.63l3.3-15.16Z" class="cls-9"/><path d="M220.25,192.63,212.33,230a15.27,15.27,0,0,0-.44,3.52c0,3.08,1.43,4.06,4.51,4.06,4.29,0,8.24-4.17,9.89-9.67h4.62c-6.27,17.92-17.15,20.34-23.08,20.34-6.6,0-11.77-4-11.77-13.2a36.08,36.08,0,0,1,.88-7.14l7.48-35.29Zm-4.95-23.41a8.82,8.82,0,0,1,8.79,8.8,8.72,8.72,0,0,1-8.79,8.68,8.63,8.63,0,0,1-8.68-8.68A8.72,8.72,0,0,1,215.3,169.22Z" class="cls-9"/><path d="M254,202.2c-4,0-6.93,4.62-8.58,10.11l-7.47,35.29H222.11l11.66-55H249.6l-1.22,5.72c4.62-5.28,9.45-6.15,12.87-6.15,7,0,12.2,3.62,12.2,12.41s-5.28,22.21-5.28,28.37c0,2.75,1.1,4.61,4.4,4.61,4.83,0,6.81-4,9.23-9.67h4.62c-6.16,18-14.62,20.34-20.45,20.34-9.56,0-13-6.16-13-12.42,0-7.48,4.95-21,4.95-28C258,204.18,256.62,202.2,254,202.2Z" class="cls-9"/><path d="M303.35,237.81c4.17,0,9.45-2.75,13-5.82-2.31,12.53-10.23,16.27-19,16.27-10.22,0-17-5.06-17-17.48,0-12.64,7.15-39.13,29.68-39.13,9.78,0,12.09,5,12.09,10.55,0,12.75-12.09,22.42-25.28,23.19-.11,1.1-.22,2.31-.22,3.3C296.53,235.62,299.5,237.81,303.35,237.81Zm7.47-40.34c-5.5,0-11,12.2-13.3,22.64,8.57-.43,16-8.9,16-18.13C313.56,199.23,312.91,197.47,310.82,197.47Z" class="cls-9"/><path d="M207.57,279.84l9.73-28.38h6.08v28.38l10-28.38h3.24L223.7,286h-6.86v-23.6L207.66,286h-6.82V254.34c-5.06,1.58-7.52,5.19-7.52,10.29a6.58,6.58,0,0,0,.65,3.16c-3.2,0-5-1.16-5-4.5,0-6.17,8.53-12.06,16.28-12.06.65,0,1.25.05,1.86.09Z" class="cls-9"/><path d="M240.26,282.39c3.66,0,5.89-2,8.21-4.68h1.58c-2.65,4.27-6.59,8.58-12.76,8.58-4.35,0-7.23-2.14-7.23-7.37s3-16.51,12.52-16.51c4.13,0,5.1,2.13,5.1,4.45,0,5.33-5.1,9.46-10.67,9.78,0,.65-.08,1.3-.08,1.86C236.93,281.65,238,282.39,240.26,282.39ZM243,264.87c-2.36,0-4.64,5-5.57,9.55,3.58-.23,6.73-3.8,6.73-7.65C244.11,265.6,243.83,264.87,243,264.87Z" class="cls-9"/><path d="M258.07,282.39c3.66,0,5.89-2,8.21-4.68h1.58c-2.65,4.27-6.59,8.58-12.76,8.58-4.36,0-7.23-2.14-7.23-7.37s3-16.51,12.52-16.51c4.13,0,5.1,2.13,5.1,4.45,0,5.33-5.1,9.46-10.67,9.78,0,.65-.09,1.3-.09,1.86C254.73,281.65,255.84,282.39,258.07,282.39Zm2.69-17.52c-2.37,0-4.64,5-5.57,9.55,3.58-.23,6.73-3.8,6.73-7.65C261.92,265.6,261.64,264.87,260.76,264.87Z" class="cls-9"/><path d="M288.17,262.83l-9.28,6.44a8.87,8.87,0,0,1,1.53-.18c3.43,0,5.1,2.45,5.1,5.42a7.74,7.74,0,0,1-.18,1.76l-.51,2.32a7.14,7.14,0,0,0-.23,1.49c0,.93.37,1.71,1.8,1.71a3,3,0,0,0,1.63-.28,5.1,5.1,0,0,1-4.31,4.78c-3.81,0-5.85-1.9-5.85-5.28a11.39,11.39,0,0,1,.28-2.42l.37-1.81a7.65,7.65,0,0,0,.19-1.71c0-1.35-.47-2.23-1.67-2.23s-2.14.65-3.44,1.72L271.19,286h-6.68l6.73-31.53,6.86-.93-3.47,16.32,8.94-7Z" class="cls-9"/><path d="M95.48,179.65c4.83,1.06,9.7,6,15.59,6a10.07,10.07,0,0,0,3.89-.74c-.46,4.45-2.32,7.28-4.82,7.28-6.63,0-12.48-10.53-20.69-10.53a9.39,9.39,0,0,0-1.06,0l6.91-32.13c-4,1.67-6.49,5.15-6.49,10.11a6.63,6.63,0,0,0,.64,3.15c-3.2,0-5-1.16-5-4.5,0-6.17,8.53-12.06,16.28-12.06.65,0,1.25.05,1.86.1Z" class="cls-10"/><path d="M124.05,157.38l-3.34,15.77a6.4,6.4,0,0,0-.18,1.48c0,1.3.6,1.72,1.9,1.72a2.35,2.35,0,0,0,1-.18c-1.25,3.24-2.13,4.68-4.64,4.68s-4.17-1.62-4.54-4.31c-1.4,2.13-3.62,4.31-6.91,4.31s-6.17-1.95-6.17-7.47c0-6.26,3.85-16.23,11.92-16.23,2.64,0,3.75,1,3.75,2.37v.32l.51-2.46Zm-16,15.36c0,3.57,1.49,3.61,2.32,3.61,1.34,0,3.29-1.39,3.85-4.08l2.23-10.48a1.8,1.8,0,0,0-1.91-1.76C110.6,160,108.05,168.37,108.05,172.74Z" class="cls-10"/><path d="M50,171.85l-8.22,38.62c11.68-.92,20.24-16.07,20.24-28.44,0-8.56-4.16-15.73-14.34-15.73-18.73,0-29.94,10.52-29.94,28.1,0,5.89,1.5,6.82,1.61,7.86-8,0-12.37-2.89-12.37-11.21C7,175.67,28.29,161,47.6,161c19,0,27.28,10.86,27.28,22.77,0,14.68-12.6,31-33.41,31h-.58l-7,32.95H17.19l15.72-73.53Z" class="cls-10"/><path d="M106.47,209.24a2.73,2.73,0,0,0,1.22.21c5,0,12.2-3.29,16.92-6.59l1,3c-4.18,4.51-11.43,7.8-19.46,9.12C104.38,235.29,93.39,248,79.87,248c-10.22,0-17.59-4.84-17.59-17.37s7.47-39,30.12-39C101.86,191.65,106.47,197.69,106.47,209.24Zm-9.45,6c-2.31-.55-3-2.42-3-4.62,0-3.08,1.43-5,3.41-5.93-.22-4.62-1.32-6.38-4.18-6.38-7.8,0-14.62,20.11-14.62,30.89,0,7.25,1.43,8.91,5.61,8.91C89.66,238.15,95.26,228.25,97,215.28Z" class="cls-10"/><path d="M162.54,192.63,154.62,230a15.27,15.27,0,0,0-.44,3.52c0,3.08,1.43,4.06,4.51,4.06,4.29,0,7.26-4.17,8.9-9.67h4.62c-6.26,17.92-16.16,20.34-22.09,20.34-6.27,0-10.23-3.63-10.89-10.45-5.49,9-11.65,10.45-16.27,10.45-6.59,0-11.76-4-11.76-13.2a36.08,36.08,0,0,1,.88-7.14l7.47-35.29h15.83L127.47,230a15.38,15.38,0,0,0-.33,3.07c0,2.54.88,4.51,3.3,4.51,4.28,0,7.14-4.17,8.79-9.67l7.48-35.29Z" class="cls-10"/><path d="M194.63,175.27l-3.74,17.36h6.6l-.88,4.4H190l-7,33a15.27,15.27,0,0,0-.44,3.52c0,3.08,1.43,4.06,4.51,4.06,4.29,0,8.24-4.17,9.89-9.67h4.62c-6.27,17.92-17.15,20.34-23.08,20.34-6.6,0-11.77-4-11.77-13.2a36.08,36.08,0,0,1,.88-7.14l6.6-30.89h-3.63l.88-4.4h3.63l3.3-15.16Z" class="cls-10"/><path d="M220.25,192.63,212.33,230a15.27,15.27,0,0,0-.44,3.52c0,3.08,1.43,4.06,4.51,4.06,4.29,0,8.24-4.17,9.89-9.67h4.62c-6.27,17.92-17.15,20.34-23.08,20.34-6.6,0-11.77-4-11.77-13.2a36.08,36.08,0,0,1,.88-7.14l7.48-35.29Zm-4.95-23.41a8.82,8.82,0,0,1,8.79,8.8,8.72,8.72,0,0,1-8.79,8.68,8.63,8.63,0,0,1-8.68-8.68A8.72,8.72,0,0,1,215.3,169.22Z" class="cls-10"/><path d="M254,202.2c-4,0-6.93,4.62-8.58,10.11l-7.47,35.29H222.11l11.66-55H249.6l-1.22,5.72c4.62-5.28,9.45-6.15,12.87-6.15,7,0,12.2,3.62,12.2,12.41s-5.28,22.21-5.28,28.37c0,2.75,1.1,4.61,4.4,4.61,4.83,0,6.81-4,9.23-9.67h4.62c-6.16,18-14.62,20.34-20.45,20.34-9.56,0-13-6.16-13-12.42,0-7.48,4.95-21,4.95-28C258,204.18,256.62,202.2,254,202.2Z" class="cls-10"/><path d="M303.35,237.81c4.17,0,9.45-2.75,13-5.82-2.31,12.53-10.23,16.27-19,16.27-10.22,0-17-5.06-17-17.48,0-12.64,7.15-39.13,29.68-39.13,9.78,0,12.09,5,12.09,10.55,0,12.75-12.09,22.42-25.28,23.19-.11,1.1-.22,2.31-.22,3.3C296.53,235.62,299.5,237.81,303.35,237.81Zm7.47-40.34c-5.5,0-11,12.2-13.3,22.64,8.57-.43,16-8.9,16-18.13C313.56,199.23,312.91,197.47,310.82,197.47Z" class="cls-10"/><path d="M207.57,279.84l9.73-28.38h6.08v28.38l10-28.38h3.24L223.7,286h-6.86v-23.6L207.66,286h-6.82V254.34c-5.06,1.58-7.52,5.19-7.52,10.29a6.58,6.58,0,0,0,.65,3.16c-3.2,0-5-1.16-5-4.5,0-6.17,8.53-12.06,16.28-12.06.65,0,1.25.05,1.86.09Z" class="cls-10"/><path d="M240.26,282.39c3.66,0,5.89-2,8.21-4.68h1.58c-2.65,4.27-6.59,8.58-12.76,8.58-4.35,0-7.23-2.14-7.23-7.37s3-16.51,12.52-16.51c4.13,0,5.1,2.13,5.1,4.45,0,5.33-5.1,9.46-10.67,9.78,0,.65-.08,1.3-.08,1.86C236.93,281.65,238,282.39,240.26,282.39ZM243,264.87c-2.36,0-4.64,5-5.57,9.55,3.58-.23,6.73-3.8,6.73-7.65C244.11,265.6,243.83,264.87,243,264.87Z" class="cls-10"/><path d="M258.07,282.39c3.66,0,5.89-2,8.21-4.68h1.58c-2.65,4.27-6.59,8.58-12.76,8.58-4.36,0-7.23-2.14-7.23-7.37s3-16.51,12.52-16.51c4.13,0,5.1,2.13,5.1,4.45,0,5.33-5.1,9.46-10.67,9.78,0,.65-.09,1.3-.09,1.86C254.73,281.65,255.84,282.39,258.07,282.39Zm2.69-17.52c-2.37,0-4.64,5-5.57,9.55,3.58-.23,6.73-3.8,6.73-7.65C261.92,265.6,261.64,264.87,260.76,264.87Z" class="cls-10"/><path d="M288.17,262.83l-9.28,6.44a8.87,8.87,0,0,1,1.53-.18c3.43,0,5.1,2.45,5.1,5.42a7.74,7.74,0,0,1-.18,1.76l-.51,2.32a7.14,7.14,0,0,0-.23,1.49c0,.93.37,1.71,1.8,1.71a3,3,0,0,0,1.63-.28,5.1,5.1,0,0,1-4.31,4.78c-3.81,0-5.85-1.9-5.85-5.28a11.39,11.39,0,0,1,.28-2.42l.37-1.81a7.65,7.65,0,0,0,.19-1.71c0-1.35-.47-2.23-1.67-2.23s-2.14.65-3.44,1.72L271.19,286h-6.68l6.73-31.53,6.86-.93-3.47,16.32,8.94-7Z" class="cls-10"/><path d="M419.94,226.92h73.45v32.45H377.75v-175h42.19Z" class="cls-10"/><path d="M577.67,259.37a28.15,28.15,0,0,1-2.22-5.34c-.6-2-1.14-4.07-1.62-6.32a39.54,39.54,0,0,1-12.15,10q-7.45,4.1-19.11,4.09a49.57,49.57,0,0,1-17-2.89,44.85,44.85,0,0,1-14-8A37.87,37.87,0,0,1,502,238.58a35.41,35.41,0,0,1-3.55-15.87,42.43,42.43,0,0,1,3.67-18,34.16,34.16,0,0,1,11.18-13.41,55.38,55.38,0,0,1,19-8.41,110.24,110.24,0,0,1,27.23-3H572v-6.85q0-8.3-3.61-13.1t-11.9-4.81q-7,0-10.7,3.48t-3.72,10.7H501.57a36.27,36.27,0,0,1,4-16.83A39.57,39.57,0,0,1,517.08,139a57.64,57.64,0,0,1,18-8.9,79.73,79.73,0,0,1,23.51-3.24,77.19,77.19,0,0,1,21.58,2.88,48.33,48.33,0,0,1,17.13,8.72A40.6,40.6,0,0,1,608.57,153a47.34,47.34,0,0,1,4.09,20.26v53.26c0,4.24.11,7.93.36,11.06a68,68,0,0,0,1.08,8.23,42.74,42.74,0,0,0,1.74,6.31,37.67,37.67,0,0,0,2.34,5.17v2Zm-25.36-26.44q7.56,0,12.56-3.25a20.36,20.36,0,0,0,7.15-7.33v-20.8H559.28a25.82,25.82,0,0,0-9.56,1.56,16.37,16.37,0,0,0-6.25,4.21,15.92,15.92,0,0,0-3.37,6.07,25,25,0,0,0-1,7.15,11.58,11.58,0,0,0,3.73,9A13.46,13.46,0,0,0,552.31,232.93Z" class="cls-10"/><path d="M730.6,200v59.38H688.4v-175h69.85a84.92,84.92,0,0,1,28.37,4.45A62.41,62.41,0,0,1,808,101.17,54,54,0,0,1,821.48,120a59.33,59.33,0,0,1,4.69,23.75,55.19,55.19,0,0,1-4.69,23.08A50,50,0,0,1,808,184.54,62.08,62.08,0,0,1,786.62,196a93,93,0,0,1-28.37,4Zm0-32.58h27.65a33.13,33.13,0,0,0,11.36-1.74,20.92,20.92,0,0,0,7.81-4.87,19.18,19.18,0,0,0,4.51-7.46,29.49,29.49,0,0,0,1.44-9.37,36,36,0,0,0-1.44-10.28,24.25,24.25,0,0,0-4.51-8.6,22.18,22.18,0,0,0-7.81-6,26.67,26.67,0,0,0-11.36-2.22H730.6Z" class="cls-10"/><path d="M835.19,193.14a81.88,81.88,0,0,1,4.09-26.33,59.77,59.77,0,0,1,12-21A54.46,54.46,0,0,1,871,131.89q11.73-5,26.87-5,15.39,0,27.11,5a54.5,54.5,0,0,1,19.66,13.88,59.92,59.92,0,0,1,12,21,82.15,82.15,0,0,1,4.09,26.33v2.52a83.16,83.16,0,0,1-4,26.39,58.7,58.7,0,0,1-12,20.91,54.78,54.78,0,0,1-19.66,13.83q-11.71,5-27,5t-27-5A55.42,55.42,0,0,1,851.36,243a58.8,58.8,0,0,1-12.08-20.91,81.77,81.77,0,0,1-4.09-26.39Zm40.51,2.52a86.65,86.65,0,0,0,1,13.7,33.86,33.86,0,0,0,3.61,11.06,19.86,19.86,0,0,0,6.91,7.4,20.1,20.1,0,0,0,10.82,2.7,18.38,18.38,0,0,0,17.43-10.1,35.6,35.6,0,0,0,3.61-11.06,81.94,81.94,0,0,0,1.08-13.7v-2.52a85.24,85.24,0,0,0-1-13.47,34.38,34.38,0,0,0-3.61-11.12,20.6,20.6,0,0,0-6.91-7.57,19.41,19.41,0,0,0-10.82-2.83A18.91,18.91,0,0,0,887.18,161a20.38,20.38,0,0,0-6.79,7.57,37,37,0,0,0-3.61,11.12,80.61,80.61,0,0,0-1.08,13.47Z" class="cls-10"/><path d="M1051.1,245.31a43,43,0,0,1-14.78,12.14,44,44,0,0,1-20,4.33,54.48,54.48,0,0,1-17.61-2.71A34.2,34.2,0,0,1,985,250.54a39.7,39.7,0,0,1-8.89-15q-3.2-9.19-3.19-22.06V129.3h40.52v84.39q0,8.66,4.14,12.75t12.08,4.08q7.58,0,12.33-2.64a19.68,19.68,0,0,0,7.51-7.34V129.3h40.75V259.37h-38Z" class="cls-10"/><path d="M1154.73,97V129.3h21.4v28.13h-21.4v59.51a25.21,25.21,0,0,0,.67,6.37,8.59,8.59,0,0,0,2.16,4,8.23,8.23,0,0,0,4,2.1,27.49,27.49,0,0,0,6.25.6c2.32,0,4.24-.06,5.77-.18s3-.3,4.33-.54v29a76.42,76.42,0,0,1-10.82,2.59,75.1,75.1,0,0,1-12,.9,61.88,61.88,0,0,1-17.37-2.23,31.73,31.73,0,0,1-12.86-7,30.18,30.18,0,0,1-7.93-12.38,54,54,0,0,1-2.71-18.15V157.43h-16.59V129.3h16.59V97Z" class="cls-10"/><path d="M1186.84,95.76a19.09,19.09,0,0,1,1.62-7.93,18.12,18.12,0,0,1,4.63-6.26,21.28,21.28,0,0,1,7.09-4.08,29.5,29.5,0,0,1,18.27,0,21.43,21.43,0,0,1,7.1,4.08,18.38,18.38,0,0,1,4.63,6.26,20.22,20.22,0,0,1,0,15.86,18.38,18.38,0,0,1-4.63,6.26,21.43,21.43,0,0,1-7.1,4.08,29.5,29.5,0,0,1-18.27,0,21.28,21.28,0,0,1-7.09-4.08,18.12,18.12,0,0,1-4.63-6.26A19.09,19.09,0,0,1,1186.84,95.76Zm43,163.61h-40.63V129.3h40.63Z" class="cls-10"/><path d="M1287.1,129.3l1.33,15.27a43.7,43.7,0,0,1,16-13.17,48.42,48.42,0,0,1,21.1-4.5,50.63,50.63,0,0,1,16.53,2.58A30.71,30.71,0,0,1,1355,138a40.39,40.39,0,0,1,8.35,15.62q2.94,9.69,2.95,23.87v81.86h-40.64v-82a30.6,30.6,0,0,0-1.26-9.62,13.82,13.82,0,0,0-3.61-5.89,12.46,12.46,0,0,0-5.77-2.95,35,35,0,0,0-7.75-.78,20.77,20.77,0,0,0-10.76,2.53,19.7,19.7,0,0,0-6.91,6.85v91.84h-40.52V129.3Z" class="cls-10"/><path d="M1446.75,261.78a75.2,75.2,0,0,1-28.37-5,61.34,61.34,0,0,1-21-13.7,59.38,59.38,0,0,1-13-20.08,65.63,65.63,0,0,1-4.51-24.28V194.1a87.41,87.41,0,0,1,3.91-26.51,59.07,59.07,0,0,1,11.78-21.34,55,55,0,0,1,19.6-14.18q11.72-5.17,27.35-5.17a65.82,65.82,0,0,1,24.82,4.44,50.92,50.92,0,0,1,18.63,12.75,56,56,0,0,1,11.67,20.07,81.62,81.62,0,0,1,4,26.45v16.47H1421q2.16,10.93,9.5,17.19t19,6.25a44.46,44.46,0,0,0,16.29-3.12,32.73,32.73,0,0,0,13.76-10.34l18.52,21.88a47.32,47.32,0,0,1-8,8.41,55.65,55.65,0,0,1-11.36,7.28,72.31,72.31,0,0,1-32,7.15Zm-4.56-103.63a20.13,20.13,0,0,0-8.9,1.81,17.34,17.34,0,0,0-6.19,4.92,24.44,24.44,0,0,0-3.91,7.46,53.62,53.62,0,0,0-2.16,9.37h40.87v-3.12q.24-9.74-4.93-15.09T1442.19,158.15Z" class="cls-10"/><path d="M1706.79,194.1l20.08-109.76h41.83l-37.14,175H1687.8l-23.44-99.77-23,99.77h-43.64l-37.27-175h42l20.08,109.76,24-109.76h35.83Z" class="cls-10"/><path d="M1837.59,261.78a75.16,75.16,0,0,1-28.37-5,61.38,61.38,0,0,1-21-13.7,59.36,59.36,0,0,1-13-20.08,65.43,65.43,0,0,1-4.51-24.28V194.1a87.1,87.1,0,0,1,3.91-26.51,59.07,59.07,0,0,1,11.78-21.34,55,55,0,0,1,19.6-14.18q11.71-5.17,27.34-5.17a65.83,65.83,0,0,1,24.83,4.44,50.92,50.92,0,0,1,18.63,12.75,55.84,55.84,0,0,1,11.66,20.07,81.34,81.34,0,0,1,4,26.45v16.47h-80.54q2.16,10.93,9.49,17.19t19,6.25a44.46,44.46,0,0,0,16.29-3.12,32.86,32.86,0,0,0,13.76-10.34l18.51,21.88a46.89,46.89,0,0,1-8,8.41,55.93,55.93,0,0,1-11.36,7.28,72.4,72.4,0,0,1-32,7.15ZM1833,158.15a20.11,20.11,0,0,0-8.89,1.81,17.34,17.34,0,0,0-6.19,4.92,24.22,24.22,0,0,0-3.91,7.46,53.62,53.62,0,0,0-2.16,9.37h40.87v-3.12q.24-9.74-4.93-15.09T1833,158.15Z" class="cls-10"/><path d="M1966.71,261.78a75.13,75.13,0,0,1-28.37-5,61.38,61.38,0,0,1-21-13.7,59.36,59.36,0,0,1-13-20.08,65.43,65.43,0,0,1-4.51-24.28V194.1a87.1,87.1,0,0,1,3.91-26.51,59.07,59.07,0,0,1,11.78-21.34A55,55,0,0,1,1935,132.07q11.73-5.17,27.35-5.17a65.87,65.87,0,0,1,24.83,4.44,50.92,50.92,0,0,1,18.63,12.75,56,56,0,0,1,11.66,20.07,81.61,81.61,0,0,1,4,26.45v16.47H1941q2.16,10.93,9.5,17.19t19,6.25a44.46,44.46,0,0,0,16.29-3.12,32.82,32.82,0,0,0,13.77-10.34L2018,238.94a47.25,47.25,0,0,1-8,8.41,56.2,56.2,0,0,1-11.36,7.28,72.4,72.4,0,0,1-32,7.15Zm-4.57-103.63a20.16,20.16,0,0,0-8.9,1.81,17.51,17.51,0,0,0-6.19,4.92,24.42,24.42,0,0,0-3.9,7.46,52.72,52.72,0,0,0-2.17,9.37h40.88v-3.12q.24-9.74-4.93-15.09T1962.14,158.15Z" class="cls-10"/><path d="M2085.13,210.93l-11.42,11.42v37h-40.52V74.6h40.52v98.1l4.08-5.41,30.54-38h48.57l-45.57,53.5,48.57,76.57h-46.4Z" class="cls-10"/></g></g></g></svg>