<svg width="141" height="49" viewBox="0 0 141 49" fill="none" xmlns="http://www.w3.org/2000/svg">
<g clip-path="url(#clip0_202_3197)">
<path d="M43.3049 44.5165C43.0204 44.8012 42.6464 44.9784 42.2464 45.018C41.8465 45.0576 41.4451 44.9572 41.1106 44.7339C40.776 44.5106 40.529 44.178 40.4113 43.7928C40.2937 43.4076 40.3127 42.9934 40.4652 42.6206C40.6177 42.2478 40.8942 41.9395 41.2478 41.7479C41.6014 41.5563 42.0102 41.4934 42.4049 41.5697C42.7996 41.646 43.1557 41.8569 43.4128 42.1666C43.67 42.4762 43.8122 42.8656 43.8154 43.2684C43.8207 43.5005 43.778 43.7311 43.6902 43.9459C43.6023 44.1607 43.4711 44.3549 43.3049 44.5165ZM41.0137 42.2169C40.7348 42.5011 40.5785 42.8838 40.5785 43.2825C40.5785 43.6811 40.7348 44.0638 41.0137 44.348C41.1521 44.4884 41.3169 44.5998 41.4986 44.6759C41.6803 44.752 41.8752 44.7911 42.0721 44.7911C42.269 44.7911 42.4639 44.752 42.6456 44.6759C42.8273 44.5998 42.9921 44.4884 43.1305 44.348C43.275 44.2098 43.3904 44.0441 43.4701 43.8606C43.5498 43.6771 43.5922 43.4794 43.5947 43.2793C43.5972 43.0792 43.5599 42.8806 43.4848 42.6951C43.4098 42.5096 43.2986 42.341 43.1577 42.1992C43.0168 42.0573 42.8491 41.9451 42.6644 41.8691C42.4796 41.793 42.2816 41.7547 42.082 41.7564C41.8823 41.758 41.6849 41.7996 41.5015 41.8787C41.3181 41.9578 41.1522 42.0728 41.0137 42.2169ZM42.0379 42.3137C42.2151 42.3049 42.3925 42.3292 42.5609 42.3854C42.6556 42.4233 42.7355 42.4909 42.7888 42.578C42.8421 42.6652 42.8659 42.7673 42.8566 42.869C42.8616 42.9429 42.8469 43.0168 42.8141 43.0831C42.7813 43.1495 42.7315 43.2059 42.6698 43.2466C42.585 43.2969 42.4906 43.3288 42.3927 43.3402C42.4575 43.3474 42.5201 43.3678 42.5769 43.3999C42.6336 43.4321 42.6832 43.4755 42.7227 43.5274C42.7864 43.6134 42.8222 43.7168 42.8255 43.8238V43.9642C42.8255 44.0079 42.8255 44.0578 42.8255 44.1078C42.8195 44.1408 42.8195 44.1746 42.8255 44.2076V44.2294H42.5142C42.5156 44.2233 42.5156 44.2169 42.5142 44.2107C42.5142 44.2107 42.5142 44.2107 42.5142 44.192V44.1296V43.9767C42.5265 43.8943 42.5162 43.8101 42.4844 43.7332C42.4526 43.6562 42.4004 43.5894 42.3336 43.5399C42.2159 43.4893 42.0878 43.4679 41.96 43.4775H41.7141V44.2045H41.3748V42.2887L42.0379 42.3137ZM42.4021 42.6257C42.2737 42.5697 42.134 42.5451 41.9943 42.5539H41.7141V43.2497H42.0254C42.1309 43.2529 42.2362 43.2381 42.3367 43.206C42.3982 43.1817 42.4504 43.1383 42.4857 43.0822C42.521 43.0261 42.5375 42.9602 42.5328 42.894C42.5423 42.8376 42.5349 42.7797 42.5116 42.7276C42.4884 42.6754 42.4503 42.6313 42.4021 42.6007V42.6257Z" fill="#EE3124"/>
<path d="M40.9359 32.0355C41.3165 31.6946 41.5464 31.2161 41.575 30.7052C41.6036 30.1944 41.4286 29.6931 41.0884 29.3116C40.7483 28.9301 40.2708 28.6997 39.7612 28.671C39.2515 28.6423 38.7514 28.8178 38.3708 29.1587L31.2545 35.552C33.4336 37.5551 33.2063 38.9592 33.2063 38.9592L40.9359 32.0355Z" fill="#EE3124"/>
<path d="M27.4286 31.5177L25.9188 29.9202L30.7004 25.5987C30.9169 25.41 31.1984 25.3133 31.485 25.3294C31.7715 25.3454 32.0405 25.4728 32.2348 25.6846C32.429 25.8964 32.5332 26.1757 32.5251 26.4633C32.517 26.7508 32.3973 27.0239 32.1915 27.2244L27.4286 31.5177Z" fill="#EE3124"/>
<path d="M30.4451 34.6999L28.266 32.3754L33.9099 27.2364C34.06 27.0792 34.2405 26.9544 34.4404 26.8695C34.6403 26.7846 34.8554 26.7415 35.0725 26.7427C35.2896 26.7439 35.5041 26.7895 35.7031 26.8767C35.902 26.9638 36.0811 27.0907 36.2294 27.2496C36.3778 27.4085 36.4922 27.596 36.5658 27.8007C36.6394 28.0055 36.6706 28.2231 36.6574 28.4403C36.6443 28.6575 36.5871 28.8697 36.4894 29.064C36.3916 29.2583 36.2554 29.4306 36.0889 29.5703L30.4451 34.6999Z" fill="#EE3124"/>
<path d="M14.7556 24.2974C16.8631 24.4659 18.0803 24.6094 19.5963 25.4862C20.8415 26.21 21.9404 27.3583 22.9895 28.5034L23.0299 28.5502L23.8985 29.4862L31.4163 37.4147C31.8328 37.8995 32.0454 38.5273 32.0095 39.166C31.9736 39.8047 31.692 40.4046 31.2238 40.8395C30.7557 41.2744 30.1376 41.5103 29.4994 41.4977C28.8613 41.4851 28.2529 41.225 27.8022 40.772L21.0594 33.6579C20.95 33.5496 20.8028 33.4882 20.6491 33.4868C20.4953 33.4854 20.347 33.5441 20.2357 33.6504C20.1243 33.7567 20.0587 33.9023 20.0526 34.0563C20.0466 34.2104 20.1007 34.3607 20.2033 34.4754L20.2189 34.4942L26.3982 41.0466C26.9963 41.7036 27.7276 42.2248 28.543 42.5755C29.2964 42.8407 30.7221 42.7252 31.3447 42.279C31.7145 42.0113 32.0679 41.7217 32.4032 41.4116L43.529 31.3521L43.5726 31.324C44.0769 30.9616 44.7002 30.8057 45.3153 30.888C45.9304 30.9702 46.491 31.2846 46.8829 31.7669C47.2747 32.2492 47.4683 32.8631 47.4241 33.4835C47.3799 34.1039 47.1013 34.6841 46.6451 35.1057L38.8626 42.1418C37.1723 43.5833 35.4663 45.6364 33.3962 46.6816C27.7399 49.5335 22.5443 48.0795 18.4289 45.0123C16.4086 43.5053 14.382 41.8453 11.7204 40.9561C10.4348 40.5255 7.08518 40.435 4.32706 40.4381L0 40.41V24.2069C0.383849 17.9468 2.93981 12.0184 7.22526 7.44832C11.462 2.98957 17.274 0.209473 23.6774 0.209473C30.277 0.209473 36.2508 3.1643 40.5187 7.86955C45.0069 12.8909 47.4655 19.4093 47.414 26.1508C47.414 26.9027 47.414 27.4644 47.3549 28.1976C47.3189 28.6479 47.115 29.0681 46.7839 29.3745C46.4528 29.681 46.0187 29.8512 45.568 29.8513H45.4248C44.9502 29.8139 44.5098 29.5891 44.2004 29.2263C43.891 28.8636 43.738 28.3926 43.7749 27.9168C43.8247 27.274 43.8216 26.806 43.8216 26.1476C43.8739 20.3029 41.7493 14.6488 37.8633 10.2908C34.1931 6.25953 29.1937 3.81018 23.6774 3.81018C18.3262 3.81018 13.4637 6.11288 9.82461 9.932C6.15909 13.8529 3.95942 18.9238 3.59862 24.2849H4.98079C5.16146 19.4202 7.0882 14.7844 10.4067 11.23C12.1026 9.40544 14.1533 7.94838 16.4324 6.94864C18.7116 5.94889 21.1709 5.42766 23.6588 5.41708C26.1491 5.42627 28.6112 5.94681 30.8931 6.94657C33.1749 7.94633 35.2283 9.40412 36.9263 11.23C40.4604 15.0054 42.4176 19.9941 42.3959 25.171C42.3959 25.7951 42.3699 26.4025 42.318 26.9932C42.2864 27.3453 42.1171 27.6705 41.847 27.8979C41.577 28.1253 41.2282 28.2364 40.8767 28.207C40.5251 28.176 40.2002 28.0065 39.9731 27.7357C39.7461 27.4648 39.6356 27.1148 39.6658 26.7623C39.7125 26.2381 39.7343 25.7077 39.7343 25.171C39.7615 20.6754 38.068 16.3403 35.0025 13.0584C33.5548 11.4938 31.8023 10.2435 29.8533 9.38476C27.9042 8.52607 25.8002 8.07727 23.6712 8.06612C21.5422 8.07727 19.4382 8.52607 17.4892 9.38476C15.5401 10.2435 13.7876 11.4938 12.3399 13.0584C9.48108 16.1182 7.81019 20.103 7.62995 24.2911H9.24559C9.30357 20.4554 10.8071 16.7837 13.4544 14.0132C14.7705 12.6272 16.3534 11.523 18.1073 10.7674C19.8612 10.0118 21.7497 9.62037 23.6588 9.61686C25.5689 9.61953 27.4586 10.0105 29.2136 10.7662C30.9686 11.5218 32.5525 12.6264 33.8694 14.0132C36.5869 16.8555 38.097 20.6446 38.0813 24.5813C38.0813 25.0369 38.0626 25.4893 38.0221 25.9355C38.0104 26.0736 37.9715 26.208 37.9079 26.3311C37.8443 26.4542 37.757 26.5635 37.6512 26.6527C37.5454 26.742 37.4231 26.8095 37.2912 26.8513C37.1593 26.8931 37.0205 26.9085 36.8828 26.8965C36.745 26.8847 36.6108 26.8458 36.488 26.782C36.3652 26.7182 36.2562 26.6308 36.1671 26.5247C36.0781 26.4187 36.0108 26.296 35.9691 26.1639C35.9273 26.0317 35.912 25.8926 35.924 25.7545C35.9582 25.3676 35.9738 24.9776 35.9738 24.5813C35.9968 21.1936 34.7066 17.9294 32.3751 15.4766C31.252 14.2916 29.9 13.348 28.4016 12.7033C26.9031 12.0585 25.2895 11.7261 23.6588 11.7261C22.0322 11.7282 20.4229 12.0611 18.9285 12.7047C17.434 13.3483 16.0853 14.2892 14.9642 15.4703C12.6943 17.8506 11.4047 21.002 11.3531 24.2942H13.0217C13.1524 18.3066 17.8375 13.4703 23.6588 13.4672C29.5734 13.4672 34.3519 18.5874 34.3612 24.6718C34.3612 24.9018 34.2701 25.1225 34.1078 25.2851C33.9455 25.4478 33.7253 25.5392 33.4958 25.5392C33.3819 25.5396 33.269 25.5175 33.1637 25.4741C33.0583 25.4307 32.9626 25.3668 32.8819 25.2862C32.8012 25.2057 32.7372 25.1099 32.6935 25.0045C32.6498 24.899 32.6273 24.786 32.6273 24.6718C32.6204 22.1634 31.6635 19.7511 29.9501 17.9228C29.1397 17.0664 28.1642 16.3839 27.0827 15.9167C26.0013 15.4495 24.8364 15.2075 23.6588 15.2051C22.4812 15.2076 21.3163 15.4498 20.2349 15.917C19.1534 16.3841 18.1779 17.0665 17.3674 17.9228C15.7311 19.6391 14.7968 21.9083 14.7494 24.2818L14.7556 24.2974Z" fill="#EE3124"/>
<path d="M24.3654 20.3941C24.284 20.4767 24.1871 20.5423 24.0802 20.5871C23.9733 20.6319 23.8586 20.655 23.7428 20.655C23.627 20.655 23.5123 20.6319 23.4054 20.5871C23.2985 20.5423 23.2016 20.4767 23.1202 20.3941L20.9816 18.4783C20.7972 18.3154 20.5563 18.232 20.311 18.246C20.0656 18.26 19.8357 18.3704 19.671 18.5532C19.5082 18.7376 19.4244 18.9788 19.4378 19.2247C19.4512 19.4706 19.5607 19.7013 19.7426 19.8668L21.7567 21.6609C21.7567 21.6609 22.7404 22.4628 22.7404 24.6375V26.0728V26.5752C22.7404 26.8234 22.8388 27.0615 23.014 27.2371C23.1891 27.4126 23.4266 27.5112 23.6743 27.5112H23.8051C24.0528 27.5112 24.2903 27.4126 24.4654 27.2371C24.6406 27.0615 24.739 26.8234 24.739 26.5752V26.0635V24.6313C24.739 22.4472 25.7258 21.6546 25.7258 21.6546L27.7555 19.8668C27.9383 19.7021 28.049 19.4719 28.0635 19.226C28.0781 18.9801 27.9954 18.7383 27.8333 18.5532C27.6689 18.369 27.4386 18.2575 27.1925 18.2429C26.9464 18.2282 26.7045 18.3117 26.5196 18.4752L24.3654 20.3941Z" fill="#EE3124"/>
<path d="M25.0005 18.1724C25.0005 18.4192 24.9274 18.6605 24.7906 18.8658C24.6538 19.071 24.4593 19.231 24.2318 19.3255C24.0042 19.4199 23.7539 19.4446 23.5123 19.3965C23.2708 19.3483 23.0489 19.2295 22.8748 19.0549C22.7006 18.8804 22.582 18.658 22.534 18.4159C22.4859 18.1738 22.5106 17.9228 22.6048 17.6948C22.6991 17.4667 22.8587 17.2718 23.0635 17.1347C23.2682 16.9975 23.509 16.9243 23.7553 16.9243C24.0855 16.9243 24.4022 17.0558 24.6357 17.2899C24.8693 17.5239 25.0005 17.8414 25.0005 18.1724Z" fill="#EE3124"/>
<path d="M65.0398 31.7949C64.7698 31.4851 64.4338 31.2401 64.0566 31.0781C63.6794 30.916 63.2707 30.8411 62.8607 30.8589C60.9275 30.8589 59.5018 32.419 59.5018 34.6031C59.5018 36.7872 60.9275 38.3473 62.7766 38.3473C63.2481 38.3602 63.7151 38.2524 64.1335 38.034C64.5518 37.8156 64.9077 37.4939 65.1674 37.0993L67.2967 38.6906C66.3317 40.0697 64.6943 40.7093 63.1035 40.7093C59.4862 40.7093 56.8495 38.3286 56.8495 34.6031C56.8495 30.8776 59.4862 28.5 63.1035 28.5C64.3985 28.5 66.0359 28.9431 67.0197 30.2067L65.0398 31.7949Z" fill="#5F6062"/>
<path d="M75.1477 39.0153C74.7378 39.5082 74.2239 39.9038 73.6431 40.1736C73.0622 40.4433 72.4289 40.5806 71.7888 40.5754C69.3326 40.5754 67.3683 38.9342 67.3683 36.3912C67.3683 33.8483 69.3326 32.207 71.7888 32.207C74.083 32.207 75.5244 33.8483 75.5244 36.3912V37.1619H69.8245C69.8923 37.6027 70.1174 38.0039 70.4581 38.2908C70.7988 38.5778 71.2318 38.731 71.6767 38.722C72.0256 38.7193 72.3682 38.6294 72.6737 38.4605C72.9792 38.2916 73.2378 38.049 73.4262 37.7547L75.1477 39.0153ZM73.0682 35.5051C73.0725 35.3053 73.0363 35.1068 72.9619 34.9214C72.8875 34.7361 72.7764 34.5677 72.6353 34.4266C72.4942 34.2855 72.326 34.1744 72.1409 34.1003C71.9559 34.0261 71.7577 33.9902 71.5584 33.9949C71.1295 33.9682 70.7073 34.1116 70.3829 34.3941C70.0585 34.6766 69.858 35.0757 69.8245 35.5051H73.0682Z" fill="#5F6062"/>
<path d="M76.4396 32.4191H78.7961V33.5018H78.8304C79.0664 33.0978 79.4073 32.7655 79.8168 32.5402C80.2262 32.3149 80.689 32.2051 81.1558 32.2225C83.6462 32.2225 84.1007 33.8637 84.1007 35.9979V40.3943H81.6476V36.4909C81.6476 35.5549 81.6289 34.3879 80.3682 34.3879C79.1074 34.3879 78.8957 35.3895 78.8957 36.4254V40.3943H76.4396V32.4191Z" fill="#5F6062"/>
<path d="M91.357 34.4132H88.5242V37.0716C88.5242 37.9265 88.6207 38.5475 89.6854 38.5475C89.9781 38.5564 90.2698 38.5088 90.5446 38.407V40.4164C90.0304 40.5621 89.4973 40.6295 88.9632 40.6161C87.3257 40.6161 86.065 39.9422 86.065 38.2042V34.4132H84.4929V32.4444H86.065V29.293H88.5211V32.4444H93.8132V33.7236H93.8474C94.3704 32.7564 95.0584 32.2478 96.1386 32.2478C96.4138 32.2396 96.689 32.2669 96.9573 32.3289V34.5755C96.6178 34.4732 96.2658 34.4186 95.9114 34.4132C94.0436 34.4132 93.8132 35.4959 93.8132 37.0872V40.4196H91.3602L91.357 34.4132Z" fill="#5F6062"/>
<path d="M102.022 39.3931H101.991C101.449 40.248 100.469 40.5913 99.4695 40.5913C97.9815 40.5913 96.6367 39.7394 96.6367 38.1325C96.6367 35.3743 99.9769 35.3244 102.022 35.3244C102.022 34.457 101.303 33.8953 100.466 33.8953C100.083 33.8983 99.7059 33.9853 99.3606 34.1503C99.0153 34.3152 98.7103 34.5541 98.4671 34.8501L97.1566 33.5022C98.1242 32.6513 99.3749 32.1949 100.662 32.2229C103.526 32.2229 104.295 33.6831 104.295 36.3416V40.3978H102.035L102.022 39.3931ZM101.4 36.8969C100.646 36.8969 98.9777 36.9625 98.9777 38.0452C98.9777 38.6349 99.6003 38.9157 100.142 38.9157C101.107 38.9157 102.01 38.4071 102.01 37.4211V36.8969H101.4Z" fill="#5F6062"/>
<path d="M105.362 32.4189H107.819V40.3942H105.362V32.4189Z" fill="#5F6062"/>
<path d="M117.36 40.3944H115.1V39.346H115.069C114.785 39.7284 114.418 40.04 113.994 40.2565C113.571 40.473 113.103 40.5885 112.628 40.5941C110.272 40.5941 108.715 38.8873 108.715 36.4754C108.715 34.2601 110.091 32.2257 112.351 32.2257C113.366 32.2257 114.315 32.5066 114.873 33.2772H114.904V29.2803H117.36V40.3944ZM113.136 34.388C111.909 34.388 111.171 35.2086 111.171 36.4068C111.171 37.6049 111.909 38.4256 113.136 38.4256C114.362 38.4256 115.1 37.6049 115.1 36.4068C115.1 35.2086 114.368 34.388 113.139 34.388H113.136Z" fill="#5F6062"/>
<path d="M126.048 39.037C125.641 39.5327 125.128 39.9312 124.547 40.2037C123.967 40.4763 123.333 40.616 122.692 40.6127C120.236 40.6127 118.272 38.9715 118.272 36.4285C118.272 33.8856 120.236 32.2412 122.692 32.2412C124.984 32.2412 126.428 33.8824 126.428 36.4285V37.1992H120.731C120.802 37.6366 121.028 38.0337 121.368 38.317C121.708 38.6003 122.138 38.7508 122.58 38.7406C122.93 38.7386 123.273 38.6491 123.579 38.4802C123.885 38.3112 124.145 38.0682 124.333 37.7733L126.048 39.037ZM123.969 35.5237C123.974 35.3242 123.939 35.1258 123.865 34.9404C123.791 34.7551 123.681 34.5867 123.54 34.4455C123.399 34.3043 123.232 34.1932 123.047 34.1189C122.862 34.0446 122.664 34.0088 122.465 34.0135C122.036 33.9859 121.613 34.1289 121.288 34.4115C120.963 34.6941 120.762 35.0937 120.728 35.5237H123.969Z" fill="#5F6062"/>
<path d="M105.366 29.271H107.822V31.2991H105.366V29.271Z" fill="#5F6062"/>
<path d="M124.439 13.7918L121.164 25.0245H118.873L116.295 17.4018H116.261L113.696 25.012H111.486L108.164 13.7793H110.947L112.69 20.8028H112.722L115.159 13.7855H117.55L119.978 21.0025H120.012L121.852 13.7793L124.439 13.7918Z" fill="#5F6062"/>
<path d="M67.0415 20.4909C67.0415 23.2523 65.3573 25.3023 62.126 25.3023C58.8947 25.3023 57.1982 23.2585 57.1982 20.4909V13.7856H59.7695V20.4005C59.7695 21.8357 60.7563 22.9278 62.126 22.9278C63.4958 22.9278 64.467 21.8357 64.467 20.4005V13.7856H67.0415V20.4909Z" fill="#5F6062"/>
<path d="M68.2213 16.9777H70.5965V18.0697H70.6307C70.8681 17.6628 71.2112 17.328 71.6235 17.101C72.0357 16.8741 72.5017 16.7635 72.9717 16.7811C75.4777 16.7811 75.9384 18.4317 75.9384 20.5815V25.0091H73.4667V21.0776C73.4667 20.1416 73.448 18.9621 72.181 18.9621C70.914 18.9621 70.6961 19.9699 70.6961 21.009V25.0091H68.2213V16.9777Z" fill="#5F6062"/>
<path d="M79.7269 25.0087H77.2365V16.9773H81.7223V13.7822H84.1972V16.9773H86.3763V18.9617H84.1972V21.6389C84.1972 22.4969 84.2937 23.1272 85.3676 23.1272C85.6291 23.1272 86.1583 23.0929 86.3731 22.8932V24.9588C85.8149 25.1414 85.2293 25.2258 84.6423 25.2084C82.9924 25.2084 81.7223 24.5313 81.7223 22.7777V18.9617H79.7238L79.7269 25.0087Z" fill="#5F6062"/>
<path d="M94.635 23.6107C94.2238 24.1093 93.7072 24.5102 93.1225 24.7843C92.5379 25.0584 91.8998 25.1989 91.2543 25.1957C88.7826 25.1957 86.8027 23.542 86.8027 20.9803C86.8027 18.4186 88.7826 16.7681 91.2543 16.7681C93.5642 16.7681 95.0148 18.4186 95.0148 20.9803V21.7697H89.29C89.36 22.2124 89.588 22.6146 89.9315 22.9015C90.275 23.1885 90.7108 23.3406 91.1578 23.3298C91.5081 23.3278 91.8523 23.2383 92.1594 23.0694C92.4665 22.9005 92.7268 22.6576 92.9167 22.3626L94.635 23.6107ZM92.5524 20.0848C92.5575 19.8837 92.5219 19.6837 92.4475 19.4969C92.3732 19.31 92.2618 19.1402 92.12 18.9979C91.9782 18.8555 91.8091 18.7434 91.6228 18.6685C91.4365 18.5937 91.237 18.5575 91.0364 18.5622C90.6042 18.5355 90.1788 18.6802 89.8521 18.965C89.5254 19.2499 89.3235 19.6521 89.29 20.0848H92.5524Z" fill="#5F6062"/>
<path d="M104.36 25.0088H102.084V23.951H102.05C101.765 24.3352 101.395 24.6478 100.968 24.8643C100.542 25.0809 100.072 25.1955 99.594 25.1991C97.2188 25.1991 95.653 23.4799 95.653 21.0492C95.653 18.8183 97.0383 16.7715 99.3139 16.7715C100.338 16.7715 101.294 17.0523 101.854 17.8292H101.885V13.7729H104.36V25.0088ZM100.105 18.9618C98.8594 18.9618 98.1278 19.7887 98.1278 20.9931C98.1278 22.1975 98.8687 23.0274 100.105 23.0274C101.34 23.0274 102.084 22.2006 102.084 20.9931C102.084 19.7856 101.344 18.9618 100.105 18.9618Z" fill="#5F6062"/>
<path d="M128.937 24.0013H128.903C128.358 24.8624 127.371 25.2088 126.366 25.2088C124.865 25.2088 123.511 24.3507 123.511 22.7126C123.511 19.9388 126.876 19.8889 128.937 19.8889C128.937 19.0121 128.212 18.4504 127.353 18.4504C126.968 18.4534 126.589 18.5407 126.241 18.7062C125.894 18.8717 125.587 19.1113 125.342 19.4083L124.025 18.0542C124.997 17.1956 126.256 16.7355 127.552 16.7655C130.438 16.7655 131.213 18.2352 131.213 20.9123V25.0091H128.937V24.0013ZM128.315 21.5051C127.555 21.5051 125.874 21.5706 125.874 22.6627C125.874 23.2555 126.497 23.5395 127.044 23.5395C128.019 23.5395 128.912 23.0246 128.912 22.0355V21.4895L128.315 21.5051Z" fill="#5F6062"/>
<path d="M136.757 26.316C136.097 28.0197 135.72 28.9744 133.361 28.9744C132.733 28.9713 132.109 28.8659 131.515 28.6624L131.845 26.6312C132.207 26.7942 132.599 26.8782 132.996 26.8777C134.12 26.8777 134.301 26.3972 134.646 25.5235L134.827 25.0617L131.315 16.9492H133.986L136.047 22.2535H136.081L137.846 16.9492H140.396L136.757 26.316Z" fill="#5F6062"/>
<path d="M77.2583 13.7856H79.73V15.8294H77.2583V13.7856Z" fill="#5F6062"/>
</g>
<defs>
<clipPath id="clip0_202_3197">
<rect width="140.384" height="47.9792" fill="white" transform="translate(0 0.208984)"/>
</clipPath>
</defs>
</svg>
