<svg xmlns="http://www.w3.org/2000/svg" viewBox="0 0 499.48 600.51"><defs><style>.cls-1{isolation:isolate;}.cls-16,.cls-2{fill:none;}.cls-3{fill:#ff141e;}.cls-4{fill:#fff;}.cls-5{fill:#edb458;}.cls-6{fill:#7f5b49;}.cls-7{fill:#d19d50;}.cls-8{fill:#b68400;}.cls-9{fill:#4197cb;stroke-width:28.18px;}.cls-12,.cls-9{stroke:#fff;}.cls-16,.cls-9{stroke-miterlimit:10;}.cls-10,.cls-11{fill:#009ade;}.cls-11{mix-blend-mode:multiply;opacity:0.3;}.cls-12{stroke-linecap:round;stroke-linejoin:round;stroke-width:22.41px;}.cls-13{fill:#ff3008;}.cls-14{fill:#0075bf;}.cls-15{fill:#5f9e43;}.cls-16{stroke:#000;}</style></defs><g class="cls-1"><g id="Layer_2" data-name="Layer 2"><g id="logo_fr" data-name="logo fr"><path class="cls-2" d="M215.05,17.17a1,1,0,0,0,.34.23,1.08,1.08,0,0,0,.44.09,1,1,0,0,0,.43-.09,1,1,0,0,0,.34-.23,1.11,1.11,0,0,0,.23-.36,1.16,1.16,0,0,0,.08-.42,1.22,1.22,0,0,0-.08-.43,1.07,1.07,0,0,0-.23-.35,1,1,0,0,0-.34-.24,1,1,0,0,0-.43-.09,1.08,1.08,0,0,0-.44.09,1,1,0,0,0-.34.24.91.91,0,0,0-.22.35,1,1,0,0,0-.09.43,1,1,0,0,0,.09.42A1,1,0,0,0,215.05,17.17Zm.17-1.62h.65a.82.82,0,0,1,.49.13.5.5,0,0,1,.15.39.49.49,0,0,1-.11.33.52.52,0,0,1-.3.13l.41.69h-.4l-.39-.67h-.13v.67h-.37Z"/><path class="cls-2" d="M211.89,17.2a1.17,1.17,0,0,0,.07-.33c0-.14,0-.31,0-.51s0-.32,0-.45a1,1,0,0,0-.07-.32.4.4,0,0,0-.15-.19.54.54,0,0,0-.27-.06h-.26v2.09h.27a.47.47,0,0,0,.25-.05A.4.4,0,0,0,211.89,17.2Z"/><path class="cls-2" d="M216.07,16.22a.18.18,0,0,0,.08-.17.16.16,0,0,0,0-.11.16.16,0,0,0-.08-.06.19.19,0,0,0-.1,0h-.35v.42h.28A.59.59,0,0,0,216.07,16.22Z"/><path class="cls-3" d="M188.09,46.21c-1.92,6.73,3.48,6.61,6.88,1.89,2.37-3.23,4.42-8,3.89-10.68a4.47,4.47,0,0,0-.65-1.58C190.85,36.51,188.39,45.14,188.09,46.21Z"/><path class="cls-3" d="M217.94,41.74c0-22.6-32.95-41-73.45-41S71,19.14,71,41.74s32.95,41,73.45,41S217.94,64.34,217.94,41.74ZM155,30.26c12.11,2.43,18.76.93,24.37.68l2.08-4.37a7.31,7.31,0,0,1,5.23,0l-1.94,4.3c8.47.2,13.31,1.78,16.07,3.67,4.71.23,8.76,1.41,9.77,2.39a5.64,5.64,0,0,1-2.93,2.8A10.89,10.89,0,0,0,203,36.61a6.38,6.38,0,0,1,1.25,5.07c-.69,5.6-7,11.27-14.14,11.27-4.27,0-7-2-7.58-5a8.7,8.7,0,0,1-.05-2.15,11.6,11.6,0,0,1,2.83-6.3c2.75-3.19,7.15-4.54,11.56-4.89-3.05-1.84-8.83-1.2-13.46-.74l-4.63,10.3A23.12,23.12,0,0,0,176.9,49c-.08.63,0,1.31,1,1.31a3.46,3.46,0,0,0,1.89-.76,14.18,14.18,0,0,0,1.17-1,5.4,5.4,0,0,0,.53,1.2v.06c-1.71,1.6-4,3.16-6.62,3.16-2.32,0-4-1.37-3.77-3.24a9.46,9.46,0,0,1,1-3.14c.44-1.12,1-2.24,1.36-3.1l4.41-9.28c-6.08,0-16.4-.59-23.15-3.38Zm-2,6.57a6,6,0,0,0-1.33.36,3.83,3.83,0,0,0-.44-1,10.86,10.86,0,0,1,5.37-1.81c2,0,3.37,1,3.17,2.67a17.61,17.61,0,0,1-2,4.83s-3.41,6.31-3.53,7.23c-.09.75.48,1.09,1.37,1.09,4.2,0,8.8-9,10.21-11.68l1.5-2.7S169.2,36,170,36l2.78.18-3.12,6c-.76,1.67-2.25,5-2.46,6.63-.06.5,0,1.3.77,1.3a3.13,3.13,0,0,0,1.51-.64,1,1,0,0,0,0,.17,2.49,2.49,0,0,0,.15,1.25v0a8.74,8.74,0,0,1-5.16,1.9,2.7,2.7,0,0,1-3-3,10.55,10.55,0,0,1,.75-2.74L162.1,47c-2.33,3.19-5.6,5.85-9.71,5.87-2.36,0-4.06-1.24-3.81-3.28a18.27,18.27,0,0,1,2-5s3.09-6.19,3.17-6.85A.71.71,0,0,0,153,36.83Zm-50.77,8.24c-1.2,5.06-6.27,8-12.24,8-3.29,0-6.55-1-8.37-3-3.52-4.07.51-6.18,2.48-6.15-1,3.9.54,7.36,5.5,7.36,2.78,0,5.21-1.61,5.78-4,.61-2.61-.84-4.16-2.56-5.9l-1.61-1.68c-2.12-2.17-3.74-4.12-3-7.35,1.1-4.64,6-7.53,11.51-7.53a10.22,10.22,0,0,1,7,2.39c3.67,3.7-.87,6.06-1.88,5.84a1.2,1.2,0,0,1-.34-.11c1-3-.07-6.31-4.22-6.31-2.33,0-5.2,1.24-5.71,3.36-.58,2.41,1.16,4.07,2.71,5.64l1.47,1.45C101.19,39.4,103.1,41.55,102.26,45.07Zm14.7,5a11.1,11.1,0,0,1,.34-1.51l-.1-.08A10.76,10.76,0,0,1,109,52.87c-4.31,0-6-2.79-5.62-6,.65-5.38,6.72-12.48,14.12-12.48,2.41,0,4,1,4.75,2.72l1.3-2.28a7.64,7.64,0,0,1,5.35,0l-5.3,11.25a15.57,15.57,0,0,0-1.19,3.08c-.07.5.07,1.46.79,1.46a2.06,2.06,0,0,0,.91-.24v0L123.32,52a8,8,0,0,1-3.42.84C118,52.87,116.76,51.61,117,50.08Zm14.5.08h-.1L125.57,63a6.86,6.86,0,0,1-3.94-3.4l12.16-27.15a6.43,6.43,0,0,1,3.75,3.16L136.93,37l.09.08a9.88,9.88,0,0,1,6.81-2.74c3.71,0,5.44,1.88,5.67,4.45a7.21,7.21,0,0,1,0,1.54c-.65,5.3-5.84,12.51-13.3,12.51C133.81,52.87,132.17,51.88,131.46,50.16Z"/><path class="cls-3" d="M141.19,36.65c-4.57,0-8.05,8.68-8.37,11.22a2.17,2.17,0,0,0,2.23,2.71c4.63,0,8.27-8.34,8.65-11.34A2.23,2.23,0,0,0,141.19,36.65Z"/><path class="cls-3" d="M118.3,36.65c-4.53,0-8.55,8.05-8.9,11a2.18,2.18,0,0,0,2.12,2.71c4.68,0,8.84-8.34,9.21-11.34C120.89,37.7,120.09,36.65,118.3,36.65Z"/><path class="cls-4" d="M196.87,12.16C182.87,4.32,164.27,0,144.49,0S106.11,4.32,92.11,12.16,70.3,30.55,70.3,41.74,78,63.43,92.11,71.31s32.6,12.17,52.38,12.17,38.38-4.32,52.38-12.17,21.81-18.38,21.81-29.57S210.94,20,196.87,12.16ZM71,41.74c0-22.6,32.95-41,73.45-41s73.45,18.39,73.45,41-32.95,41-73.45,41S71,64.34,71,41.74Z"/><path class="cls-4" d="M98.84,37.12l-1.47-1.45c-1.55-1.57-3.29-3.23-2.71-5.64.51-2.12,3.38-3.36,5.71-3.36,4.15,0,5.18,3.32,4.22,6.31a1.2,1.2,0,0,0,.34.11c1,.22,5.55-2.14,1.88-5.84a10.22,10.22,0,0,0-7-2.39c-5.52,0-10.41,2.89-11.51,7.53-.78,3.23.84,5.18,3,7.35l1.61,1.68c1.72,1.74,3.17,3.29,2.56,5.9-.57,2.35-3,4-5.78,4-5,0-6.53-3.46-5.5-7.36-2,0-6,2.08-2.48,6.15,1.82,2.06,5.08,3,8.37,3,6,0,11-3,12.24-8C103.1,41.55,101.19,39.4,98.84,37.12Z"/><path class="cls-4" d="M149.46,40.36a7.21,7.21,0,0,0,0-1.54c-.23-2.57-2-4.45-5.67-4.45A9.88,9.88,0,0,0,137,37.11l-.09-.08.61-1.44a6.43,6.43,0,0,0-3.75-3.16L121.63,59.58a6.86,6.86,0,0,0,3.94,3.4l5.79-12.82h.1c.71,1.72,2.35,2.71,4.7,2.71C143.62,52.87,148.81,45.66,149.46,40.36Zm-5.76-1.12c-.38,3-4,11.34-8.65,11.34a2.17,2.17,0,0,1-2.23-2.71c.32-2.54,3.8-11.22,8.37-11.22A2.23,2.23,0,0,1,143.7,39.24Z"/><path class="cls-4" d="M124.07,50.37v0a2.06,2.06,0,0,1-.91.24c-.72,0-.86-1-.79-1.46a15.57,15.57,0,0,1,1.19-3.08l5.3-11.25a7.64,7.64,0,0,0-5.35,0l-1.3,2.28c-.71-1.76-2.34-2.72-4.75-2.72-7.4,0-13.47,7.1-14.12,12.48-.4,3.25,1.31,6,5.62,6a10.76,10.76,0,0,0,8.25-4.38l.1.08a11.1,11.1,0,0,0-.34,1.51c-.2,1.53,1,2.79,2.94,2.79a8,8,0,0,0,3.42-.84ZM120.73,39c-.37,3-4.53,11.34-9.21,11.34a2.18,2.18,0,0,1-2.12-2.71c.35-3,4.37-11,8.9-11C120.09,36.65,120.89,37.7,120.73,39Z"/><path class="cls-4" d="M150.63,44.57a18.27,18.27,0,0,0-2,5c-.25,2,1.45,3.29,3.81,3.28,4.11,0,7.38-2.68,9.71-5.87l.09.09a10.55,10.55,0,0,0-.75,2.74,2.7,2.7,0,0,0,3,3,8.74,8.74,0,0,0,5.16-1.9v0a2.49,2.49,0,0,1-.15-1.25,1,1,0,0,1,0-.17,3.13,3.13,0,0,1-1.51.64c-.81,0-.83-.8-.77-1.3.21-1.63,1.7-5,2.46-6.63l3.12-6L170,36c-.76,0-2.59-.23-2.59-.23l-1.5,2.7c-1.41,2.71-6,11.68-10.21,11.68-.89,0-1.46-.34-1.37-1.09.12-.92,3.53-7.23,3.53-7.23a17.61,17.61,0,0,0,2-4.83c.2-1.63-1.22-2.67-3.17-2.67a10.86,10.86,0,0,0-5.37,1.81,3.83,3.83,0,0,1,.44,1,6,6,0,0,1,1.33-.36.71.71,0,0,1,.77.89C153.72,38.38,150.63,44.57,150.63,44.57Z"/><path class="cls-4" d="M173.43,43.45c-.39.86-.92,2-1.36,3.1a9.46,9.46,0,0,0-1,3.14c-.22,1.87,1.45,3.24,3.77,3.24,2.66,0,4.91-1.56,6.62-3.16v-.06a5.4,5.4,0,0,1-.53-1.2,14.18,14.18,0,0,1-1.17,1,3.46,3.46,0,0,1-1.89.76c-1,0-1.08-.68-1-1.31a23.12,23.12,0,0,1,1.88-4.81l4.63-10.3c4.63-.46,10.41-1.1,13.46.74-4.41.35-8.81,1.7-11.56,4.89a11.6,11.6,0,0,0-2.83,6.3,8.7,8.7,0,0,0,.05,2.15c.58,3,3.31,5,7.58,5,7.17,0,13.45-5.67,14.14-11.27A6.38,6.38,0,0,0,203,36.61a10.89,10.89,0,0,1,4.66,3.14,5.64,5.64,0,0,0,2.93-2.8c-1-1-5.06-2.16-9.77-2.39-2.76-1.89-7.6-3.47-16.07-3.67l1.94-4.3a7.31,7.31,0,0,0-5.23,0l-2.08,4.37c-5.61.25-12.26,1.75-24.37-.68l-.32.53c6.75,2.79,17.07,3.38,23.15,3.38Zm25.43-6c.53,2.65-1.52,7.45-3.89,10.68-3.4,4.72-8.8,4.84-6.88-1.89.3-1.07,2.76-9.7,10.12-10.37A4.47,4.47,0,0,1,198.86,37.42Z"/><polygon class="cls-3" points="208.05 15.5 208.06 15.5 208.59 17.88 209.06 17.88 209.59 15.5 209.6 15.5 209.6 17.88 210.15 17.88 210.15 14.89 209.26 14.89 208.83 17 208.82 17 208.4 14.89 207.5 14.89 207.5 17.88 208.05 17.88 208.05 15.5"/><path class="cls-3" d="M212.05,17.78a.71.71,0,0,0,.32-.27,1.29,1.29,0,0,0,.16-.48,4.54,4.54,0,0,0,.05-.69,3.57,3.57,0,0,0,0-.59,1.24,1.24,0,0,0-.14-.46.7.7,0,0,0-.3-.29,1.06,1.06,0,0,0-.5-.1h-1v3h.95A1,1,0,0,0,212.05,17.78Zm-.84-.35V15.34h.26a.54.54,0,0,1,.27.06.4.4,0,0,1,.15.19,1,1,0,0,1,.07.32c0,.13,0,.28,0,.45s0,.37,0,.51a1.17,1.17,0,0,1-.07.33.4.4,0,0,1-.16.18.47.47,0,0,1-.25.05Z"/><polygon class="cls-3" points="214.17 14.84 213.7 14.84 212.77 17.92 213.22 17.92 214.17 14.84"/><path class="cls-3" d="M214.73,17.48a1.51,1.51,0,0,0,.49.33,1.72,1.72,0,0,0,1.21,0,1.54,1.54,0,0,0,.82-.82,1.59,1.59,0,0,0,0-1.21,1.54,1.54,0,0,0-.82-.82,1.59,1.59,0,0,0-1.21,0,1.54,1.54,0,0,0-.82.82,1.59,1.59,0,0,0,0,1.21A1.51,1.51,0,0,0,214.73,17.48Zm.1-1.52a.91.91,0,0,1,.22-.35,1,1,0,0,1,.34-.24,1.08,1.08,0,0,1,.44-.09,1,1,0,0,1,.43.09,1,1,0,0,1,.34.24,1.07,1.07,0,0,1,.23.35,1.22,1.22,0,0,1,.08.43,1.16,1.16,0,0,1-.08.42,1.11,1.11,0,0,1-.23.36,1,1,0,0,1-.34.23,1,1,0,0,1-.43.09,1.08,1.08,0,0,1-.44-.09,1,1,0,0,1-.34-.23,1,1,0,0,1-.22-.36,1,1,0,0,1-.09-.42A1,1,0,0,1,214.83,16Z"/><path class="cls-3" d="M215.59,16.55h.13l.39.67h.4l-.41-.69a.52.52,0,0,0,.3-.13.49.49,0,0,0,.11-.33.5.5,0,0,0-.15-.39.82.82,0,0,0-.49-.13h-.65v1.67h.37Zm0-.71h.35a.19.19,0,0,1,.1,0,.16.16,0,0,1,.08.06.16.16,0,0,1,0,.11.18.18,0,0,1-.08.17.59.59,0,0,1-.2,0h-.28Z"/><polygon class="cls-2" points="205.86 342.05 206.67 342.65 206.88 342.43 205.86 342.05"/><polygon class="cls-5" points="281.21 160.31 275.32 140.2 237.68 146 248.08 166.92 281.21 160.31"/><path class="cls-5" d="M228.74,189.62l7.81-9.65,5.06,1.24,2.62-12.13-8.88-17.85L228,188.91C228.24,189.14,228.49,189.37,228.74,189.62Z"/><polygon class="cls-5" points="209.94 327.94 210.34 326.06 209.7 325.81 209.94 327.94"/><polygon class="cls-5" points="207.76 338.03 208.28 335.64 202.86 336.21 207.76 338.03"/><polygon class="cls-5" points="200.31 125.58 162.58 117.74 159.49 137.03 192.91 145.4 200.31 125.58"/><path class="cls-5" d="M211.86,190.11c2.41.1,4.87.55,6.38-1.26a7.28,7.28,0,0,1,3.43-2.53L203.3,130.81,197,147.72Z"/><polygon class="cls-5" points="385.36 139.49 370.01 131.99 346.02 145.58 361.58 156.37 385.36 139.49"/><polygon class="cls-5" points="385.27 238.45 397.44 195.64 388.4 142.06 364.23 160.62 385.27 238.45"/><polygon class="cls-5" points="448.61 187.52 444.75 168.71 408.54 175.65 416.6 195.06 448.61 187.52"/><path class="cls-5" d="M398.46,244.18l14.3-46.93-6.88-16.57-17.13,60.16a20.64,20.64,0,0,0,7.75,2.95C397.19,243.89,397.82,244,398.46,244.18Z"/><path class="cls-4" d="M381,369.21l5.59-13.79,112.92-94.37-19.26-47.37-31.78,7.18L443.6,226a19.86,19.86,0,0,0-3.44-2.93l13.19-32.56L448.14,164l-44.09,8.41L399.88,187l-8-47.62L369,128l-29.07,15.85,15.21,52-5.76,1.18c.86-6,.18-9.88-4.12-13.35-2.41-1.95-4.58-4.25-7-5.56l1.32-17.23-18.35-14.18-30.57,15,.77,29a8.57,8.57,0,0,0-6.26,4.8,10,10,0,0,0-1.07,3.63c2.52,0,5.09-.06,7.56.06l.38,14.07c-1.43-.68-3-.56-5.38,2-2.47,2.7-7.61-.19-9.38,3.73s2.8,4.6,3.85,7a3.83,3.83,0,0,1,.24,1.22l-6.6,3.89-6.29-29.53-3.07-14.43-19.59-4.82,2.35-10.91,33.59-6.7-11.51,36.15a26.16,26.16,0,0,1,4.92-1.4l11.38-35.71-8.06-28.34-45.84,7-7.87,40.36-20-60.4-45.95-9.51L154.75,140l9.64,21.43-.93-.3-14.3,14.74,1.55,7c-3.31.35-6.27,1.43-8.08,5.08-1.42,2.86-1.36,5-.56,6.85l-8.33,3.91,14.11-35.13-11.18-15.86-28.83,5.64-14.51,50L76.62,178.39l-23.11.37L38.75,209.65l19,22.9-8.51-6.29L19,224.93,12.82,274l51.46,29.63-2.07,7.13,18.69,4.3L108.78,462l33-2.67-6.46-85.69,8.7,53.66,39.83,2.37-1.88-46,14.48,16.68,37.74-31.66L248,403l24.75,1.67,10.93,24.54-7.76,19.22,31.48,17.47,43.93-81,21.94-18.33Zm-2-5.3-1.8-.62,3.1-2.59Zm98.39-144.68,15.78,38.91-26,1-12.45-35Zm-27.08,6.69,12.62,35.53-84.59,73.7,28.33-52.22-.85-9.77,16.4-17.42c.43.85,1.28,1.31,2.88,1.09,6.08-.85,5.61-6.71,10.93-7.56s9.1.4,10.62-7.25c1.17-5.87,1.71-9.5.19-12.42ZM366,280.45l-6.59-23.13,40.27-.26,2.07,21.61Zm-7.15,69.4-7.68,12-160-66.52,1.12-35.06Zm-48.44,70.92-7.68,2.37-24.51-70.48,11.3,4.42Zm-8.19-37.67-.36-1.11L306,363.51l3.63,1.42Zm-2.87-8.76-5-15.38,7.76,3Zm5,15.38,9.37-23.14,10,3.92-14.54,34.05ZM168.14,304.63l19.94-5.78,160.67,66.79-5,7.85Zm13.07,61.16-.47-11.3,9.31,5.6-6.64,7Zm-.69-16.66-.85-20.93,23.92,17.68-10.38,10.89Zm12.87-29.71-9.43,4-4.66-4.2-.16-3.74,1.93-.87Zm12.88,5.05.85,7.53-6.62.7-1.42-10.81.28-.12Zm-9,8.57-3.16.33-8.1-6,10-4.2Zm12.65-5.1-.24-2.13.64.26Zm-1.66,7.7-.52,2.39-4.9-1.82Zm-2.42,6.41,1,.38-.21.22Zm8.52-14.4,3.89,1.52.37.91-6.18,6.49Zm-26.21-88.5-6.58-49.87,7.86-12.42,7,61.43a78.92,78.92,0,0,1,8,.05L203,248.11l7.47,16.77L196,257.13a9.65,9.65,0,0,0,.06-2.33c-.62-5.72-6.24-14.62-15.6-7.21a4.46,4.46,0,0,1-4.1.93l-.23-5.59a52.6,52.6,0,0,1,8.86-3.24C186.06,239.47,187.12,239.32,188.17,239.15ZM254,207.61l2.21,9.52c-3.4-1.74-7.34-1.49-13.21,4.43a10.24,10.24,0,0,1-6.47,2.72L227.76,197Zm15.77,89.2-13.46-7.24-11.47-33L251.12,240ZM216,267.86l-8.22-18.46,33.58,9.06,9.87,28.36Zm-5.23-41.64,37.41,8.48-7.36,19.49-33.12-8.93ZM230,214l3.37,10.49c-2.92,0-5.88,0-8.42.83l-17.87-4-2.31,15.19-5.54-3.12-1.25-11Zm-60,56,17.84-8.78-2.31,33.53-20.93,6.68Zm138.87-8.35,1.25-19.42,19.79,9.2c-.75,5.45,4.79,7.94,8,11.42l.94,9.26Zm14.25-50.23,8.46,16.85-3.8,17.26-10.48-5.08Zm40.75,23.24c-2.65-.07-5.76,1.31-9.76,5.35-6,6-17.44-.54-22.49,7.12l3.72-16.87,32.56-8.19Zm-24.24,45.51c.43,1.3,1.41,2.13,3.32,2.19l-17.87,44.22-9.82-5.29,5.6-25.38ZM329.1,328.74,356,262.34l5.62,19.74-22.28,52.16Zm115.65-160,3.86,18.81-32,7.54-8.06-19.41Zm-47.31,26.93-12.17,42.81-21-77.83,24.17-18.56ZM370,132l15.35,7.5-23.78,16.88L346,145.58Zm-24.27,17.79,14.43,10.59,20.3,75.07c2.79,1.58,5.4,3.67,8.28,5.4l17.13-60.16,6.88,16.57-14.3,46.93a21.67,21.67,0,0,1,3.75,1.2l14.06-46.16,32.45-7.63-12.57,31a12.08,12.08,0,0,0-4.71,3.59c-4.1,4.57-12.1-.86-15.14,5.93s4.18,8.27,5.7,12.51a9.65,9.65,0,0,1,.24,4l-7,7.49-10,10.62L404,252.51l-25.07.14c.43-4.92-.53-8.31-4.34-11.38-2.33-1.88-4.43-4.1-6.77-5.43l.71-2.23c.55-.14,1.1-.28,1.61-.36l-.71-2.45,3.17-9.89L365,193.85l-6,1.23Zm16.15,48.95,5.56,19.19L335.34,226l-9.91-19.76Zm-29,1.69L320.55,203l-7.13,35.62-3.94-1.91L309,181.83l26.73-18.31Zm-11.7-49.28,12.34,9.34-26,16.53-11.75-12.95Zm-26.63,17.47,10.76,12.65.49,57.32-9.15,9.61Zm-16.79,92.2a15.13,15.13,0,0,1,3.84,2.58l-5.88-27.6,16.6-9.76.7,26-11.13,11.68a35.32,35.32,0,0,1,2.78,3L306,244.43l-1.72,18.35L292,275.15a19.49,19.49,0,0,0,3.31,2.38l11.08-11.18,31.82,9.83-19.13,16.05a19.25,19.25,0,0,1,.75,6.67c-.11,2.08-1.94,3.73-4.9,5l-3.39,15.34-9-4.87.74-3.67,5.89-4.94a79.11,79.11,0,0,1-7.87,1.39l-4.76,4-5.6-3-16-8.6-12.13-37-3.4-10.36a7.88,7.88,0,0,0,4.33-2.83l2.59,11.18a15.58,15.58,0,0,1,3.08-.71l-3.53-15.2c.11-.4.23-.79.32-1.23,2.33-10.55,3.09-15.9-2.72-20.59-1.14-.92-2.23-1.92-3.31-2.86L257,206.44l6.47-12.77ZM261.46,190l-7.23,13.21L229,194l8.47-10.25Zm13.86-49.83,5.89,20.11-33.13,6.61L237.68,146Zm-40,11,8.88,17.85-2.62,12.13L236.55,180l-7.81,9.65c-.25-.25-.5-.48-.75-.71Zm-13.68,35.09a7.28,7.28,0,0,0-3.43,2.53c-1.51,1.81-4,1.36-6.38,1.26L197,147.72l6.31-16.91Zm-59.09-68.58,37.73,7.84-7.4,19.82L159.49,137Zm-3,23.47,33.88,8.48,14.42,41.13a6,6,0,0,0-2.53,3.79c-1.08,3.76,2.47,6.38,2.13,9.18a4.76,4.76,0,0,1-1,2.13c-1.68,2.35-4.91,5.28-5.39,10.2,0,.24,0,.48,0,.73l-3.64.94-1.94-17.13-3.44-30.34-22.66-7.27ZM164,165l23.77,8.05-8.68,12.8-24.74-11.11Zm-11.19,12.67,25.63,12.58L184.36,235a8.74,8.74,0,0,0-1.17-.43c-3.44-.95-1.88-7-7.63-6.48l-.51-12.39L155.36,188.6l-.13.06Zm1.07,17,14.17,19.19L135,231.3,115.7,212.7Zm-24.17,6-17.43,8.19a15.85,15.85,0,0,0-4.46-3.42l9.65-31.21L144.05,165Zm5.78-49.21,7.57,10.5-25.48,7.94-6.13-13.35ZM109.23,160l5.41,12.89-10,32.38a7.75,7.75,0,0,0-3.17,2.46c-1.08,1.3-2.66,1.43-4.35,1.36l-1.49-2.23Zm-16.45,49.1c-1.78.33-3.34,1.37-4.21,4.4-1.08,3.75,2.47,6.39,2.13,9.18s-5.77,5.83-6.41,12.32a10.72,10.72,0,0,0,.06,2.47L65.54,213.92l9.69-31.09Zm-36.56-26.9,15.43-.4L61.45,211l-17.17-2.79ZM46.09,212.59l16.21,3.19,24.52,30.7c4-4.85,8.42-9.67,15.13-11.48a36.46,36.46,0,0,1,10.67-1.17l2.92,18-5.49-7.08L91.32,257.38l-8.39-6.2-12.59-9.3Zm48.62,73.24-16.59-14.5L109,250.44l12.35,15.65ZM87.42,260l-15,10.15,3,15.59-16.8-10.13c-.29-3.52-4.55-5.45-3.91-9,.71-3.93,2.91-6-3.66-10-1.49-.91-2.81-1.69-4-2.36l1.86-22.84ZM22.89,229.77l21.51.76-1.78,21.8a9.06,9.06,0,0,0-5.79-.18c-4.17,1.27-9.52,1.31-4.57,8.72,1.75,2.61.1,4.83-.59,7.13l-13.8,2.08Zm-.53,44.45,10.31-1.56a8,8,0,0,0,.77.77c5.36,4.68,8.74.34,13,.94a11.3,11.3,0,0,1,3,1l27,16.28,2.93,15.44Zm43.91,33.7.78-2.69,5.68,3.27-.26.85Zm45.81,149.4L77.94,277l14.15,12.36,28.38,167.28Zm12.49-1L96.32,289.78l27.05-20,14,185.51Zm23.6-33.62L131,316.19l-3.72-49.29L121.87,260l-6.64-41.09,16.49,15.88,26.59,188.51Zm30.57,1.82-15.48-.92L136.79,235.9l33.49-17.65,1.11,27.16c-4-3.37-7.88-7.45-11.84-2.19-2.64,3.51-10.51-2.4-11.86,5.21-.62,3.5,3.13,6,3.12,8.61s-4.94,5.38-4.82,11.44,6.49,12.19,12.08,12.13a10.84,10.84,0,0,0,5.56-1.4l-5,26.6,15.5,6.07,2.55,62.25-1.56,1.64,1.71,2Zm2-48.83,42.49-44.55,9.56,3.74-46.63,47.07Zm16.35,18.84L188.84,385l48.07-48.52,6.57,2.57,5.38,12.08Zm56.06,4.86-14-34.92L250.5,355l16.69,45.37ZM248.58,341l24.87,9.74L299,424.3l-11.73,3.6Zm33,105.12L287,432.75l11.76-3.62-9.17,21.49Zm24.16,13.42-12.23-6.79,10.83-25.37L315.63,424l-4.25-13L328,372.13,345.45,379l19.77-30.8-22-11.83L365.19,285l36.24-1.8Zm51.76-86.14,14.24-26.25,95.5-83.2,22.17-.89Z"/><polygon class="cls-5" points="493.1 258.14 477.32 219.23 454.67 224.14 467.12 259.19 493.1 258.14"/><path class="cls-5" d="M446.58,242c-1.52,7.65-5.3,6.4-10.62,7.25S431.11,256,425,256.83c-1.6.22-2.45-.24-2.88-1.09l-16.4,17.42.85,9.77-28.33,52.22,84.59-73.7-12.62-35.53-3.47,3.68C448.29,232.52,447.75,236.15,446.58,242Z"/><polygon class="cls-5" points="143.07 161.94 135.5 151.44 111.46 156.53 117.59 169.88 143.07 161.94"/><path class="cls-5" d="M107.83,205.42a15.85,15.85,0,0,1,4.46,3.42l17.43-8.19L144.05,165l-26.57,9.26Z"/><polygon class="cls-5" points="71.65 181.82 56.22 182.22 44.28 208.24 61.45 211.03 71.65 181.82"/><path class="cls-5" d="M84.35,237.49a10.72,10.72,0,0,1-.06-2.47c.64-6.49,6.08-9.53,6.41-12.32s-3.21-5.43-2.13-9.18c.87-3,2.43-4.07,4.21-4.4L75.23,182.83l-9.69,31.09Z"/><path class="cls-5" d="M198,222.28l1.25,11,5.54,3.12,2.31-15.19,17.87,4c2.54-.85,5.5-.78,8.42-.83L230,214Z"/><polygon class="cls-5" points="179.1 185.85 187.78 173.05 164.01 165 154.36 174.74 179.1 185.85"/><polygon class="cls-5" points="194.13 333.37 197.29 333.04 195.99 323.19 186.03 327.39 194.13 333.37"/><path class="cls-5" d="M155.36,188.6l19.69,27.13.51,12.39c5.75-.48,4.19,5.53,7.63,6.48a8.74,8.74,0,0,1,1.17.43l-5.91-44.78-25.63-12.58,2.41,11Z"/><path class="cls-5" d="M293,252l-.7-26-16.6,9.76,5.88,27.6.29.29Z"/><polygon class="cls-5" points="333.54 160.48 321.2 151.14 295.83 164.06 307.58 177.01 333.54 160.48"/><polygon class="cls-5" points="309.48 236.67 313.42 238.58 320.55 202.96 332.9 200.43 335.73 163.52 309 181.83 309.48 236.67"/><polygon class="cls-5" points="237.46 183.73 228.99 193.98 254.23 203.24 261.46 190.03 237.46 183.73"/><path class="cls-5" d="M227.76,197l8.78,27.32a10.24,10.24,0,0,0,6.47-2.72c5.87-5.92,9.81-6.17,13.21-4.43L254,207.61Z"/><path class="cls-5" d="M263.69,249.35a7.88,7.88,0,0,1-4.33,2.83l3.4,10.36a11,11,0,0,1,3.52-2Z"/><path class="cls-5" d="M32.26,260.87c-4.95-7.41.4-7.45,4.57-8.72a9.06,9.06,0,0,1,5.79.18l1.78-21.8-21.51-.76-5,40.31L31.67,268C32.36,265.7,34,263.48,32.26,260.87Z"/><polygon class="cls-5" points="179.66 328.2 180.52 349.13 193.21 356.77 203.59 345.88 179.66 328.2"/><path class="cls-5" d="M51,256.67c6.57,4,4.37,6.06,3.66,10-.64,3.51,3.62,5.44,3.91,9l16.8,10.13-3-15.59,15-10.15L48.79,231.47l-1.86,22.84C48.15,255,49.47,255.76,51,256.67Z"/><polygon class="cls-5" points="115.7 212.7 135.03 231.31 168.06 213.89 153.88 194.7 115.7 212.7"/><path class="cls-5" d="M176.67,374.13l-2.55-62.25-15.5-6.07,5-26.6a10.84,10.84,0,0,1-5.56,1.4c-5.59.06-12-6.06-12.08-12.13s4.81-8.83,4.82-11.44-3.74-5.11-3.12-8.61c1.35-7.61,9.22-1.7,11.86-5.21,4-5.26,7.86-1.18,11.84,2.19l-1.11-27.16L136.79,235.9l26.47,187.69,15.48.92-1.92-46.76-1.71-2Z"/><polygon class="cls-5" points="109.04 250.44 78.12 271.33 94.71 285.83 121.39 266.09 109.04 250.44"/><polygon class="cls-5" points="123.37 269.76 96.32 289.78 124.57 456.31 137.38 455.27 123.37 269.76"/><polygon class="cls-5" points="325.43 206.25 335.34 226 367.45 217.92 361.89 198.73 325.43 206.25"/><polygon class="cls-5" points="299.38 374.34 302.1 362 294.34 358.96 299.38 374.34"/><polygon class="cls-5" points="317.31 240.46 327.79 245.53 331.59 228.28 323.13 211.43 317.31 240.46"/><path class="cls-5" d="M309.1,305.8l-5.89,4.94-.74,3.67,9,4.87,3.39-15.34A34.93,34.93,0,0,1,309.1,305.8Z"/><path class="cls-5" d="M338.87,272.12l-.94-9.26c-3.22-3.48-8.76-6-8-11.42l-19.79-9.2-1.25,19.42Z"/><polygon class="cls-5" points="248.86 351.12 243.48 339.04 236.91 336.47 188.84 384.99 197.13 394.52 248.86 351.12"/><path class="cls-5" d="M290.87,308.17l5.6,3,4.76-4C298,307.62,294.45,307.94,290.87,308.17Z"/><path class="cls-5" d="M298.46,279c5.05,1.64,17.44,2.74,20.6,13.26l19.13-16.05-31.82-9.83-11.08,11.18A16.65,16.65,0,0,0,298.46,279Z"/><path class="cls-6" d="M195.5,200.66l1.94,17.13,3.64-.94c0-.25,0-.49,0-.73.48-4.92,3.71-7.85,5.39-10.2-.94-.68-1.89-1.35-2.84-2A28.16,28.16,0,0,0,195.5,200.66Z"/><path class="cls-6" d="M370.09,233.25c-.51.08-1.06.22-1.61.36l-.71,2.23c2.34,1.33,4.44,3.55,6.77,5.43,3.81,3.07,4.77,6.46,4.34,11.38l25.07-.14,1.24,14.27,10-10.62c-4-4.28-7.49-8.45-13-10.78a21.67,21.67,0,0,0-3.75-1.2c-.64-.15-1.27-.29-2-.39a20.64,20.64,0,0,1-7.75-2.95c-2.88-1.73-5.49-3.82-8.28-5.4A15.2,15.2,0,0,0,370.09,233.25Z"/><path class="cls-6" d="M268.44,201.49,274.73,231l6.6-3.89a3.83,3.83,0,0,0-.24-1.22c-1-2.37-5.61-3-3.85-7s6.91-1,9.38-3.73c2.34-2.54,3.95-2.66,5.38-2l-.38-14.07c-2.47-.12-5-.11-7.56-.06s-5,.14-7.24.14a11.54,11.54,0,0,0-1.69.14,26.16,26.16,0,0,0-4.92,1.4C269.63,201,269,201.23,268.44,201.49Z"/><path class="cls-6" d="M176.17,242.93l.23,5.59a4.46,4.46,0,0,0,4.1-.93c9.36-7.41,15,1.49,15.6,7.21a9.65,9.65,0,0,1-.06,2.33l14.4,7.75L203,248.11l1.48-9.77a78.92,78.92,0,0,0-8-.05,69.78,69.78,0,0,0-8.28.86c-1,.17-2.11.32-3.14.54A52.6,52.6,0,0,0,176.17,242.93Z"/><path class="cls-6" d="M91.32,257.38l18.73-12.63,5.49,7.08-2.92-18A36.46,36.46,0,0,0,102,235c-6.71,1.81-11.12,6.63-15.13,11.48-1.32,1.6-2.59,3.2-3.89,4.7Z"/><path class="cls-6" d="M272.32,259.62a23.77,23.77,0,0,0-3,.2,15.58,15.58,0,0,0-3.08.71,11,11,0,0,0-3.52,2l12.13,37,16,8.6c3.58-.23,7.09-.55,10.36-1a79.11,79.11,0,0,0,7.87-1.39,34.93,34.93,0,0,0,5.81-1.86c3-1.31,4.79-3,4.9-5a19.25,19.25,0,0,0-.75-6.67c-3.16-10.52-15.55-11.62-20.6-13.26a16.65,16.65,0,0,1-3.17-1.44,19.49,19.49,0,0,1-3.31-2.38c-2.83-2.51-5-5.63-7.29-8.43a35.32,35.32,0,0,0-2.78-3l-.29-.29a15.13,15.13,0,0,0-3.84-2.58A12.73,12.73,0,0,0,272.32,259.62Z"/><polygon class="cls-5" points="399.71 257.06 359.44 257.31 366.03 280.45 401.78 278.67 399.71 257.06"/><polygon class="cls-5" points="355.97 262.34 329.1 328.74 339.31 334.24 361.59 282.08 355.97 262.34"/><polygon class="cls-5" points="287 432.75 281.58 446.16 289.6 450.62 298.77 429.13 287 432.75"/><polygon class="cls-5" points="323.82 370.5 313.79 366.58 304.42 389.72 309.28 404.55 323.82 370.5"/><polygon class="cls-5" points="207.68 245.26 240.8 254.19 248.16 234.7 210.75 226.22 207.68 245.26"/><polygon class="cls-5" points="251.12 239.95 244.85 256.57 256.32 289.57 269.77 296.81 251.12 239.95"/><polygon class="cls-5" points="289.55 357.08 278.25 352.66 302.76 423.14 310.44 420.77 289.55 357.08"/><polygon class="cls-5" points="164.61 301.44 185.54 294.76 187.85 261.23 170.01 270.01 164.61 301.44"/><path class="cls-7" d="M281.72,164.63l-33.59,6.7-2.35,10.91,19.59,4.82,3.07,14.43c.6-.26,1.19-.49,1.77-.71Z"/><polygon class="cls-7" points="218.27 329.17 214.38 327.65 212.46 336.57 218.64 330.08 218.27 329.17"/><path class="cls-7" d="M195.5,200.66a28.16,28.16,0,0,1,8.12,3.27c.95.64,1.9,1.31,2.84,2a4.76,4.76,0,0,0,1-2.13c.34-2.8-3.21-5.42-2.13-9.18a6,6,0,0,1,2.53-3.79l-14.42-41.13-33.88-8.48,9.82,21.84,22.66,7.27Z"/><path class="cls-7" d="M372.55,220.91l-3.17,9.89.71,2.45a15.2,15.2,0,0,1,10.38,2.19l-20.3-75.07-14.43-10.59L359,195.08l6-1.23Z"/><polygon class="cls-7" points="378.94 363.91 380.23 360.7 377.13 363.29 378.94 363.91"/><path class="cls-7" d="M415.2,256.16l7-7.49a9.65,9.65,0,0,0-.24-4c-1.52-4.24-8.74-5.72-5.7-12.51s11-1.36,15.14-5.93a12.08,12.08,0,0,1,4.71-3.59l12.57-31-32.45,7.63-14.06,46.16C407.71,247.71,411.22,251.88,415.2,256.16Z"/><polygon class="cls-7" points="489.41 263.1 467.24 263.99 371.74 347.19 357.5 373.44 489.41 263.1"/><path class="cls-7" d="M101.46,207.75a7.75,7.75,0,0,1,3.17-2.46l10-32.38L109.23,160,95.62,206.88l1.49,2.23C98.8,209.18,100.38,209.05,101.46,207.75Z"/><polygon class="cls-7" points="67.05 305.24 66.27 307.92 72.47 309.35 72.73 308.5 67.05 305.24"/><path class="cls-7" d="M82.93,251.18c1.3-1.5,2.57-3.1,3.89-4.7L62.3,215.78l-16.21-3.19,24.25,29.29Z"/><polygon class="cls-7" points="239.17 364.46 253.18 399.38 267.19 400.32 250.5 354.95 239.17 364.46"/><polygon class="cls-7" points="200.5 332.7 207.12 332 206.27 324.47 199.36 321.76 199.08 321.89 200.5 332.7"/><path class="cls-7" d="M196.45,238.29l-7-61.43-7.86,12.42,6.58,49.87A69.78,69.78,0,0,1,196.45,238.29Z"/><polygon class="cls-7" points="179.14 315.46 179.3 319.21 183.96 323.41 193.39 319.43 181.07 314.6 179.14 315.46"/><polygon class="cls-7" points="296.67 248.19 305.82 238.58 305.33 181.26 294.57 168.61 296.67 248.19"/><path class="cls-7" d="M260.12,219.94c1.08.94,2.17,1.94,3.31,2.86,5.81,4.69,5.05,10,2.72,20.59-.09.44-.21.83-.32,1.23l3.53,15.2a23.77,23.77,0,0,1,3-.2,12.73,12.73,0,0,1,5.46,1.19l-14.32-67.14L257,206.44Z"/><polygon class="cls-7" points="180.74 354.49 181.21 365.79 183.41 367.06 190.05 360.09 180.74 354.49"/><path class="cls-7" d="M79.38,307.09l-2.93-15.44-27-16.28a11.3,11.3,0,0,0-3-1c-4.3-.6-7.68,3.74-13-.94a8,8,0,0,1-.77-.77l-10.31,1.56Z"/><polygon class="cls-7" points="131.72 234.78 115.23 218.9 121.87 259.99 127.23 266.9 130.95 316.19 148.17 422.69 158.31 423.29 131.72 234.78"/><polygon class="cls-7" points="92.09 289.37 77.94 277.01 112.08 457.32 120.47 456.65 92.09 289.37"/><polygon class="cls-7" points="301.89 381.99 302.25 383.1 309.6 364.94 305.96 363.51 301.89 381.99"/><path class="cls-7" d="M335.35,230.27l-3.72,16.87c5.05-7.66,16.5-1.07,22.49-7.12,4-4,7.11-5.42,9.76-5.35l4-12.59Z"/><path class="cls-7" d="M320.87,295.92l-5.6,25.38,9.82,5.29L343,282.37c-1.91-.06-2.89-.89-3.32-2.19Z"/><path class="cls-7" d="M292,275.15l12.25-12.37L306,244.43l-21.26,22.29C287,269.52,289.15,272.64,292,275.15Z"/><polygon class="cls-7" points="232.82 334.87 223.26 331.13 180.76 375.69 186.19 381.94 232.82 334.87"/><polygon class="cls-7" points="401.43 283.19 365.19 284.99 343.24 336.36 365.22 348.18 345.45 378.98 327.96 372.13 311.38 410.96 315.63 423.95 304.34 427.42 293.51 452.79 305.74 459.58 401.43 283.19"/><polygon class="cls-7" points="241.34 258.46 207.76 249.4 215.98 267.86 251.21 286.82 241.34 258.46"/><polygon class="cls-7" points="299.01 424.3 273.44 350.78 248.58 341.04 287.28 427.9 299.01 424.3"/><polygon class="cls-7" points="343.71 373.49 348.75 365.64 188.08 298.85 168.14 304.63 343.71 373.49"/><polygon class="cls-7" points="192.36 260.24 191.24 295.3 351.2 361.82 358.88 349.85 192.36 260.24"/><path class="cls-8" d="M380.22,277.69c3.65,0,22.49,6.62,35.23,8.37,6,.85,10.61,2.21,18.25,9.27,4.12,3.8-52.69,5.92-52.69,5.92Z"/><path class="cls-8" d="M80.33,282.32c-4,0-16.62,4-18.88,6.39s-6.37,7.06-6.94,9.41,23.77,2.34,23.77,2.34Z"/><path class="cls-8" d="M92.86,298.41c23.34-2.64,47.54-35.26,67.91-20.28,31.18,22.94,11.89,28.22,11.89,28.22l-79.8-7.94"/><path class="cls-4" d="M238.92,282.34c2.39,2.07-6.45,5.47-2.94,7.3s5-.61,7.32-.31,3.81,4.86,8.2,3,7.72-3,5.27-7.6c-2.92-5.47-7.88-.23-9.95-3.95C243.6,275.05,233.65,277.78,238.92,282.34Z"/><path class="cls-9" d="M366.84,300.18c-45.73-.84-98.22-1.3-126.43-1.31h-.88c-28.25,0-80.75.47-126.42,1.31-39.63.74-80.7,1.75-86.1,3.62-.46.57-2.55,4.09.09,18.79h.52a6,6,0,0,1,5.88,5.25L66,522.34a6,6,0,0,0,5.87,5.24H408a6,6,0,0,0,5.88-5.24l32.53-194.5a6,6,0,0,1,5.87-5.25h.53c2.64-14.71.55-18.22.09-18.79C447.53,301.93,406.47,300.92,366.84,300.18Z"/><path class="cls-10" d="M366.84,300.18c-45.73-.84-98.22-1.3-126.43-1.31h-.88c-28.25,0-80.75.47-126.42,1.31-39.63.74-80.7,1.75-86.1,3.62-.46.57-2.55,4.09.09,18.79h.52a6,6,0,0,1,5.88,5.25L66,522.34a6,6,0,0,0,5.87,5.24H408a6,6,0,0,0,5.88-5.24l32.53-194.5a6,6,0,0,1,5.87-5.25h.53c2.64-14.71.55-18.22.09-18.79C447.53,301.93,406.47,300.92,366.84,300.18Z"/><path class="cls-11" d="M242.09,321.62h-4.24c-72.64.2-143.32,1.78-191.86,4.12,0,0,20.38,130.47,69.62,150.74C139.24,486.22,190,490.05,240,489.56c49.93.49,100.74-3.34,124.37-13.08C413.58,456.21,434,325.74,434,325.74,385.41,323.4,314.74,321.82,242.09,321.62Z"/><path class="cls-12" d="M101.36,387.3l-11.1,54.19c15.79-1.3,27.35-22.55,27.35-39.91,0-12-5.63-22.08-19.38-22.08-25.31,0-40.46,14.77-40.46,39.44,0,8.27,2,9.57,2.18,11-10.78,0-16.72-4.06-16.72-15.74,0-21.58,28.76-42.18,54.85-42.18C123.7,372.05,135,387.3,135,404c0,20.61-17,43.49-45.15,43.49H89l-9.53,46.24H57L78.23,390.54Z"/><path class="cls-12" d="M177.64,439.76a3.48,3.48,0,0,0,1.64.3c6.83,0,16.49-4.63,22.88-9.25l1.33,4.16c-5.64,6.33-15.45,10.95-26.29,12.8-2.38,28.54-17.23,46.43-35.51,46.43-13.81,0-23.76-6.78-23.76-24.36,0-17.75,10.09-54.77,40.7-54.77C171.41,415.07,177.64,423.56,177.64,439.76Zm-12.77,8.48c-3.12-.77-4-3.39-4-6.48,0-4.32,1.93-7.09,4.6-8.33-.3-6.48-1.78-8.95-5.64-8.95-10.55,0-19.76,28.23-19.76,43.35,0,10.18,1.93,12.5,7.57,12.5C154.92,480.33,162.49,466.44,164.87,448.24Z"/><path class="cls-12" d="M253.4,416.46l-10.69,52.45a22,22,0,0,0-.59,4.94c0,4.32,1.93,5.7,6.09,5.7,5.79,0,9.8-5.86,12-13.57h6.24c-8.47,25.14-21.84,28.54-29.86,28.54-8.47,0-13.82-5.09-14.71-14.66-7.43,12.65-15.74,14.66-22,14.66C191,494.52,184,489,184,476a52.61,52.61,0,0,1,1.19-10l10.1-49.52h21.39L206,468.91a22.17,22.17,0,0,0-.45,4.31c0,3.56,1.19,6.33,4.46,6.33,5.79,0,9.65-5.86,11.88-13.57L232,416.46Z"/><path class="cls-12" d="M296.78,392.09l-5,24.37h8.91l-1.19,6.17h-8.91L281,468.91a21.47,21.47,0,0,0-.6,4.94c0,4.32,1.93,5.7,6.08,5.7,5.8,0,11.15-5.86,13.38-13.57h6.24c-8.47,25.14-23.18,28.54-31.2,28.54-8.91,0-15.89-5.56-15.89-18.52a51.81,51.81,0,0,1,1.19-10l8.92-43.35h-4.91l1.18-6.17h4.91l4.46-21.28Z"/><path class="cls-12" d="M331.39,416.46l-10.7,52.45a22.55,22.55,0,0,0-.59,4.94c0,4.32,1.93,5.7,6.09,5.7,5.79,0,11.14-5.86,13.37-13.57h6.24c-8.47,25.14-23.18,28.54-31.19,28.54-8.92,0-15.9-5.56-15.9-18.52a51.81,51.81,0,0,1,1.19-10L310,416.46Zm-6.68-32.86a12.15,12.15,0,0,1,11.88,12.34,12,12,0,0,1-11.88,12.19A11.9,11.9,0,0,1,313,395.94C313,389.15,318.17,383.6,324.71,383.6Z"/><path class="cls-12" d="M377,429.88c-5.35,0-9.36,6.48-11.59,14.19l-10.1,49.52H333.91l15.75-77.13h21.39l-1.64,8c6.24-7.4,12.78-8.64,17.39-8.64,9.5,0,16.49,5.09,16.49,17.43,0,12.5-7.14,31.17-7.14,39.8,0,3.86,1.49,6.48,5.94,6.48,6.54,0,9.21-5.55,12.48-13.57h6.25c-8.33,25.3-19.76,28.54-27.64,28.54-12.92,0-17.53-8.64-17.53-17.43,0-10.5,6.69-29.47,6.69-39.34C382.34,432.66,380.55,429.88,377,429.88Z"/><path class="cls-12" d="M443.69,479.86c5.64,0,12.77-3.86,17.53-8.18-3.12,17.59-13.82,22.84-25.7,22.84-13.82,0-23-7.1-23-24.53,0-17.74,9.66-54.92,40.11-54.92,13.22,0,16.34,7.1,16.34,14.81,0,17.89-16.34,31.47-34.17,32.55-.15,1.55-.3,3.24-.3,4.63C434.47,476.78,438.49,479.86,443.69,479.86Zm10.1-56.61c-7.43,0-14.86,17.12-18,31.77,11.58-.61,21.68-12.49,21.68-25.45C457.5,425.72,456.61,423.25,453.79,423.25Z"/><path d="M101.36,387.3l-11.1,54.19c15.79-1.3,27.35-22.55,27.35-39.91,0-12-5.63-22.08-19.38-22.08-25.31,0-40.46,14.77-40.46,39.44,0,8.27,2,9.57,2.18,11-10.78,0-16.72-4.06-16.72-15.74,0-21.58,28.76-42.18,54.85-42.18C123.7,372.05,135,387.3,135,404c0,20.61-17,43.49-45.15,43.49H89l-9.53,46.24H57L78.23,390.54Z"/><path d="M177.64,439.76a3.48,3.48,0,0,0,1.64.3c6.83,0,16.49-4.63,22.88-9.25l1.33,4.16c-5.64,6.33-15.45,10.95-26.29,12.8-2.38,28.54-17.23,46.43-35.51,46.43-13.81,0-23.76-6.78-23.76-24.36,0-17.75,10.09-54.77,40.7-54.77C171.41,415.07,177.64,423.56,177.64,439.76Zm-12.77,8.48c-3.12-.77-4-3.39-4-6.48,0-4.32,1.93-7.09,4.6-8.33-.3-6.48-1.78-8.95-5.64-8.95-10.55,0-19.76,28.23-19.76,43.35,0,10.18,1.93,12.5,7.57,12.5C154.92,480.33,162.49,466.44,164.87,448.24Z"/><path d="M253.4,416.46l-10.69,52.45a22,22,0,0,0-.59,4.94c0,4.32,1.93,5.7,6.09,5.7,5.79,0,9.8-5.86,12-13.57h6.24c-8.47,25.14-21.84,28.54-29.86,28.54-8.47,0-13.82-5.09-14.71-14.66-7.43,12.65-15.74,14.66-22,14.66C191,494.52,184,489,184,476a52.61,52.61,0,0,1,1.19-10l10.1-49.52h21.39L206,468.91a22.17,22.17,0,0,0-.45,4.31c0,3.56,1.19,6.33,4.46,6.33,5.79,0,9.65-5.86,11.88-13.57L232,416.46Z"/><path d="M296.78,392.09l-5,24.37h8.91l-1.19,6.17h-8.91L281,468.91a21.47,21.47,0,0,0-.6,4.94c0,4.32,1.93,5.7,6.08,5.7,5.8,0,11.15-5.86,13.38-13.57h6.24c-8.47,25.14-23.18,28.54-31.2,28.54-8.91,0-15.89-5.56-15.89-18.52a51.81,51.81,0,0,1,1.19-10l8.92-43.35h-4.91l1.18-6.17h4.91l4.46-21.28Z"/><path d="M331.39,416.46l-10.7,52.45a22.55,22.55,0,0,0-.59,4.94c0,4.32,1.93,5.7,6.09,5.7,5.79,0,11.14-5.86,13.37-13.57h6.24c-8.47,25.14-23.18,28.54-31.19,28.54-8.92,0-15.9-5.56-15.9-18.52a51.81,51.81,0,0,1,1.19-10L310,416.46Zm-6.68-32.86a12.15,12.15,0,0,1,11.88,12.34,12,12,0,0,1-11.88,12.19A11.9,11.9,0,0,1,313,395.94C313,389.15,318.17,383.6,324.71,383.6Z"/><path d="M377,429.88c-5.35,0-9.36,6.48-11.59,14.19l-10.1,49.52H333.91l15.75-77.13h21.39l-1.64,8c6.24-7.4,12.78-8.64,17.39-8.64,9.5,0,16.49,5.09,16.49,17.43,0,12.5-7.14,31.17-7.14,39.8,0,3.86,1.49,6.48,5.94,6.48,6.54,0,9.21-5.55,12.48-13.57h6.25c-8.33,25.3-19.76,28.54-27.64,28.54-12.92,0-17.53-8.64-17.53-17.43,0-10.5,6.69-29.47,6.69-39.34C382.34,432.66,380.55,429.88,377,429.88Z"/><path d="M443.69,479.86c5.64,0,12.77-3.86,17.53-8.18-3.12,17.59-13.82,22.84-25.7,22.84-13.82,0-23-7.1-23-24.53,0-17.74,9.66-54.92,40.11-54.92,13.22,0,16.34,7.1,16.34,14.81,0,17.89-16.34,31.47-34.17,32.55-.15,1.55-.3,3.24-.3,4.63C434.47,476.78,438.49,479.86,443.69,479.86Zm10.1-56.61c-7.43,0-14.86,17.12-18,31.77,11.58-.61,21.68-12.49,21.68-25.45C457.5,425.72,456.61,423.25,453.79,423.25Z"/><path d="M20,464.23c6.57,1.45,13.2,8.14,21.22,8.14a13.55,13.55,0,0,0,5.3-1c-.63,6.07-3.15,9.92-6.56,9.92-9,0-17-14.34-28.17-14.34a10.2,10.2,0,0,0-1.46.07l9.42-43.77c-5.5,2.27-8.85,7-8.85,13.77a8.65,8.65,0,0,0,.89,4.29C7.4,441.3,5,439.72,5,435.18c0-8.41,11.62-16.43,22.17-16.43.88,0,1.7.07,2.52.13Z"/><path d="M58.87,433.91l-4.54,21.47a8.92,8.92,0,0,0-.26,2c0,1.76.82,2.33,2.59,2.33a3.2,3.2,0,0,0,1.39-.25c-1.7,4.42-2.9,6.38-6.31,6.38s-5.69-2.21-6.19-5.87c-1.9,2.9-4.93,5.87-9.41,5.87-4.3,0-8.4-2.65-8.4-10.17,0-8.53,5.24-22.1,16.23-22.1,3.6,0,5.11,1.38,5.11,3.22v.44l.7-3.35ZM37.09,454.82c0,4.86,2,4.92,3.15,4.92,1.83,0,4.49-1.89,5.24-5.55l3-14.28a2.45,2.45,0,0,0-2.59-2.4C40.56,437.51,37.09,448.88,37.09,454.82Z"/><path d="M20,464.23c6.57,1.45,13.2,8.14,21.22,8.14a13.55,13.55,0,0,0,5.3-1c-.63,6.07-3.15,9.92-6.56,9.92-9,0-17-14.34-28.17-14.34a10.2,10.2,0,0,0-1.46.07l9.42-43.77c-5.5,2.27-8.85,7-8.85,13.77a8.65,8.65,0,0,0,.89,4.29C7.4,441.3,5,439.72,5,435.18c0-8.41,11.62-16.43,22.17-16.43.88,0,1.7.07,2.52.13Z"/><path d="M58.87,433.91l-4.54,21.47a8.92,8.92,0,0,0-.26,2c0,1.76.82,2.33,2.59,2.33a3.2,3.2,0,0,0,1.39-.25c-1.7,4.42-2.9,6.38-6.31,6.38s-5.69-2.21-6.19-5.87c-1.9,2.9-4.93,5.87-9.41,5.87-4.3,0-8.4-2.65-8.4-10.17,0-8.53,5.24-22.1,16.23-22.1,3.6,0,5.11,1.38,5.11,3.22v.44l.7-3.35ZM37.09,454.82c0,4.86,2,4.92,3.15,4.92,1.83,0,4.49-1.89,5.24-5.55l3-14.28a2.45,2.45,0,0,0-2.59-2.4C40.56,437.51,37.09,448.88,37.09,454.82Z"/><path class="cls-4" d="M27.17,418.75c.88,0,1.7.07,2.52.13L20,464.23c6.57,1.45,13.2,8.14,21.22,8.14a13.55,13.55,0,0,0,5.3-1c-.63,6.07-3.15,9.92-6.56,9.92-9,0-17-14.34-28.17-14.34a10.2,10.2,0,0,0-1.46.07l9.42-43.77c-5.5,2.27-8.85,7-8.85,13.77a8.65,8.65,0,0,0,.89,4.29C7.4,441.3,5,439.72,5,435.18c0-8.41,11.62-16.43,22.17-16.43m0-5a31.45,31.45,0,0,0-18,6C3.35,424,0,429.61,0,435.18c0,3.11,1,10.05,9.67,11L5.42,466A5,5,0,0,0,10.3,472c.21,0,.42,0,.63,0a5.68,5.68,0,0,1,.83,0c4.14,0,8.2,3.23,12.49,6.65,4.75,3.78,9.65,7.69,15.68,7.69,4.85,0,10.43-3.78,11.54-14.4a5,5,0,0,0-5-5.52,5.12,5.12,0,0,0-1.91.38,8.61,8.61,0,0,1-3.39.63c-3.44,0-6.92-1.9-10.59-3.91-1.57-.86-3.17-1.73-4.82-2.48l8.8-41.05a5,5,0,0,0-4.5-6c-.85-.07-1.82-.15-2.91-.15Z"/><path class="cls-4" d="M44,433.6c3.6,0,5.11,1.38,5.11,3.22v.44l.7-3.35h9.09l-4.54,21.47a8.92,8.92,0,0,0-.26,2c0,1.76.82,2.33,2.59,2.33a3.2,3.2,0,0,0,1.39-.25c-1.7,4.42-2.9,6.38-6.31,6.38s-5.69-2.21-6.19-5.87c-1.9,2.9-4.93,5.87-9.41,5.87-4.3,0-8.4-2.65-8.4-10.17,0-8.53,5.24-22.1,16.23-22.1m-3.73,26.14c1.83,0,4.49-1.89,5.24-5.55l3-14.28a2.45,2.45,0,0,0-2.59-2.4c-5.37,0-8.85,11.37-8.85,17.31,0,4.86,2,4.92,3.16,4.92M44,428.6c-6.67,0-12.53,3.65-16.52,10.27a34.09,34.09,0,0,0-4.71,16.83c0,11.2,7.22,15.17,13.4,15.17a14.48,14.48,0,0,0,8.33-2.59,10.91,10.91,0,0,0,7.27,2.59c7.28,0,9.51-5.77,11-9.58a5,5,0,0,0-3.14-6.56L63.76,435a5,5,0,0,0-4.89-6H49.78a5.14,5.14,0,0,0-1.62.27A13.91,13.91,0,0,0,44,428.6Z"/><path class="cls-4" d="M125.93,376.43c-10,0-16.48-5.77-16.48-14.7s6.12-13.88,12.09-14.19c-2.53-3-4.8-6.5-4.8-11.26,0-8.61,7.56-15.11,17.59-15.11,8.34,0,13.51,4.42,13.51,11.54,0,5.28-2.88,9.29-7.06,10.2a19.76,19.76,0,0,1,5.66,14.1C146.44,368.44,138,376.43,125.93,376.43Zm1.34-16.36c-.63,0-2.71.1-2.71,1.42,0,1.55.93,1.55,1.49,1.55,1.56,0,2.44-1,2.62-3Zm7.3-27.51c-1.21,0-1.26.23-1.26,1.24a5.46,5.46,0,0,0,0,.58l.81-.5a2.41,2.41,0,0,0,.6-1.32Z"/><path d="M138.94,338.83a3.27,3.27,0,0,1-2.68-1.27,6.42,6.42,0,0,0,2.62-5.21c0-2.13-1.1-4.06-4.31-4.06s-5.37,1.87-5.37,5.51c0,8.91,13.13,10.12,13.13,23.21,0,10.18-7.94,15.15-16.4,15.15-6.65,0-12.37-3-12.37-10.43,0-6.54,4.49-9.93,8.58-9.93,2,0,5,.85,5.13,4-3.15,0-6.82,1.51-6.82,5.69,0,3,1.86,5.82,5.6,5.82,3.91,0,6.77-3,6.77-8.06,0-10.36-12-14.06-12-23,0-6.3,6-10.84,13.48-10.84,2.75,0,9.4.6,9.4,7.27C143.73,336.23,141.86,338.83,138.94,338.83Z"/><path class="cls-4" d="M153.59,375.52c-8.27,0-13.21-5.2-13.21-13.91,0-10.73,6.16-25.84,19.87-25.84,6.59,0,10.53,3.77,10.53,10.09a16.06,16.06,0,0,1-3.54,9.91H177l-3.89,6.52C167.9,371.07,161.32,375.52,153.59,375.52Z"/><path d="M157.33,366.16c4.61,0,7.41-2.67,10.33-6.12h2c-3.33,5.57-8.29,11.21-16,11.21-5.48,0-9.1-2.79-9.1-9.64S148.28,340,160.25,340c5.19,0,6.41,2.79,6.41,5.82,0,7-6.41,12.36-13.42,12.78-.06.85-.11,1.7-.11,2.43C153.13,365.19,154.53,366.16,157.33,366.16Zm3.38-22.91c-3,0-5.83,6.49-7,12.49,4.49-.31,8.46-5,8.46-10C162.17,344.22,161.82,343.25,160.71,343.25Z"/><path class="cls-4" d="M203.14,375.52c-5.56,0-8.87-3-10.25-6.75l-1.3,6.39H160.36l7.93-38.85h15.34a13.52,13.52,0,0,1,2.88-.3,10,10,0,0,1,6.81,2.42,12.07,12.07,0,0,1,7.31-2.36c6.43,0,10.59,4.37,10.59,11.12a38.88,38.88,0,0,1-1.32,8.58h9.84l-1.86,5.65C214.81,370.78,209.85,375.52,203.14,375.52Z"/><path d="M196.78,345.86c-2.11,0-3.68,2.54-4.55,5.57l-4,19.46h-8.41L184.11,350a6.15,6.15,0,0,0,.18-1.52c0-1.33-.47-2.66-1.75-2.66-2.28,0-3.85,2.6-4.73,5.63l-4,19.46h-8.4l6.19-30.3H180l-.64,3.15a8.83,8.83,0,0,1,7.12-3.46c3.09,0,5.36,1.46,6,5.22,2.8-4.49,5.95-5.16,8.11-5.16,3.73,0,6.47,2,6.47,6.85s-2.8,12.24-2.8,15.64c0,1.51.59,2.54,2.34,2.54,2.57,0,3.62-2.18,4.9-5.33H214c-3.27,9.94-7.76,11.21-10.85,11.21-5.08,0-6.89-3.39-6.89-6.85,0-4.12,2.63-11.57,2.63-15.45C198.88,347,198.18,345.86,196.78,345.86Z"/><path class="cls-4" d="M233,375.52a9.46,9.46,0,0,1-6.75-2.59,12.67,12.67,0,0,1-7.66,2.59c-5.48,0-11.88-3.67-11.88-14S212.75,336,225.78,336a13.3,13.3,0,0,1,2.89.3h16l-4,19.46h9.83l-1.92,5.68C244.66,373.08,237.92,375.52,233,375.52Z"/><path d="M239.56,340.59l-4.21,20.6a9,9,0,0,0-.23,1.94c0,1.69.76,2.6,2.39,2.6,2.28,0,3.86-2.66,4.73-5.69h2.45c-3.32,9.88-8.58,11.21-11.73,11.21s-5.37-1.94-5.72-5.58c-1.81,2.79-4.55,5.58-8.69,5.58-4,0-7.76-2.55-7.76-9.76,0-8.18,4.84-21.21,15-21.21,3.33,0,4.73,1.34,4.73,3.1v.42l.64-3.21Zm-20.14,20.06c0,4.66,1.87,4.72,2.92,4.72,1.69,0,4.14-1.82,4.84-5.33l2.8-13.7a2.31,2.31,0,0,0-2.39-2.3C222.63,344,219.42,355,219.42,360.65Z"/><path class="cls-4" d="M248,375.52c-6.2,0-10.36-4.64-10.36-11.54a24.1,24.1,0,0,1,.56-4.81l4.66-22.86h1.18a9.31,9.31,0,0,1-.8-3.78,8.76,8.76,0,1,1,17.51,0,9.25,9.25,0,0,1-1.26,4.68l-3.79,18.56h10.35l-1.91,5.68C260,373.69,252.28,375.52,248,375.52Z"/><path d="M254.61,340.59l-4.2,20.6a9,9,0,0,0-.23,1.94c0,1.69.76,2.24,2.39,2.24,2.28,0,4.38-2.3,5.25-5.33h2.45c-3.32,9.88-9.1,11.21-12.25,11.21-3.5,0-6.24-2.18-6.24-7.27a20.68,20.68,0,0,1,.46-3.94l4-19.45ZM252,327.68a4.77,4.77,0,0,1,4.67,4.85,4.72,4.72,0,0,1-4.67,4.78,4.67,4.67,0,0,1-4.61-4.78A4.72,4.72,0,0,1,252,327.68Z"/><path class="cls-4" d="M278.89,375.52c-5.55,0-8.86-3-10.24-6.75l-1.31,6.39H250.53l7.93-38.85h15.42a12.85,12.85,0,0,1,2.5-.24c6.43,0,10.59,4.37,10.59,11.12a38.88,38.88,0,0,1-1.32,8.58h9.85l-1.86,5.65C290.56,370.78,285.6,375.52,278.89,375.52Z"/><path d="M272.53,345.86c-2.1,0-3.68,2.54-4.55,5.57l-4,19.46h-8.4l6.18-30.3h8.4l-.64,3.15a8.55,8.55,0,0,1,6.83-3.4c3.74,0,6.48,2,6.48,6.85s-2.8,12.24-2.8,15.64c0,1.51.58,2.54,2.33,2.54,2.57,0,3.62-2.18,4.9-5.33h2.45c-3.26,9.94-7.76,11.21-10.85,11.21-5.08,0-6.89-3.39-6.89-6.85,0-4.12,2.63-11.57,2.63-15.45C274.63,347,273.93,345.86,272.53,345.86Z"/><path class="cls-4" d="M295.52,375.52c-8.23,0-13.15-5.2-13.15-13.91,0-10.73,6.16-25.84,19.86-25.84,6.6,0,10.54,3.77,10.54,10.09a15.93,15.93,0,0,1-1.06,5.69l-2,11.51C308.24,371.09,303.22,375.52,295.52,375.52Z"/><path d="M298.73,365.49c2.22,0,5-1.51,6.89-3.21-1.23,6.91-5.43,9-10.1,9-5.42,0-9-2.79-9-9.64S290.27,340,302.23,340c5.2,0,6.42,2.79,6.42,5.82,0,7-6.42,12.36-13.42,12.78-.06.61-.11,1.28-.11,1.82C295.12,364.28,296.69,365.49,298.73,365.49Zm4-22.24c-2.92,0-5.83,6.73-7.06,12.49,4.55-.25,8.52-4.91,8.52-10C304.16,344.22,303.81,343.25,302.7,343.25Z"/><path class="cls-4" d="M328.32,375.52c-5.48,0-11.87-3.67-11.87-14S322.52,336,335.56,336a13.16,13.16,0,0,1,2.05.15l2.11-10.31,17.3-2.43-6.63,32.35h9.81l-1.91,5.68c-3.07,9.1-8.32,13.71-15.61,13.71a9.62,9.62,0,0,1-6.54-2.33A12.7,12.7,0,0,1,328.32,375.52Z"/><path d="M351.78,328.47l-6.71,32.72a8.4,8.4,0,0,0-.23,1.94c0,1.69.75,2.24,2.39,2.24,2.27,0,3.85-2.3,4.72-5.33h2.46c-3.33,9.88-8.58,10.85-11.73,10.85s-5.25-1.82-5.72-5.22c-1.75,2.79-4.49,5.58-8.64,5.58-4,0-7.76-2.55-7.76-9.76,0-8.18,4.84-21.21,15-21.21,3.32,0,4.72,1.34,4.72,3.1v.24l2.86-13.94ZM336.9,360l2.86-13.88a2.35,2.35,0,0,0-2.39-2.12c-5,0-8.17,10.91-8.17,16.61,0,4.66,1.86,4.72,2.91,4.72,1.64,0,4-1.7,4.79-5Z"/><path class="cls-4" d="M360.19,375.52c-8.24,0-13.16-5.2-13.16-13.91,0-10.73,6.16-25.84,19.87-25.84,6.59,0,10.53,3.77,10.53,10.09a15.71,15.71,0,0,1-1.06,5.69l-2,11.51C372.9,371.09,367.88,375.52,360.19,375.52Z"/><path d="M363.4,365.49c2.21,0,5-1.51,6.88-3.21-1.22,6.91-5.43,9-10.09,9-5.43,0-9.05-2.79-9.05-9.64S354.93,340,366.9,340c5.19,0,6.42,2.79,6.42,5.82,0,7-6.42,12.36-13.43,12.78-.05.61-.11,1.28-.11,1.82C359.78,364.28,361.35,365.49,363.4,365.49Zm4-22.24c-2.91,0-5.83,6.73-7.06,12.49,4.55-.25,8.52-4.91,8.52-10C368.82,344.22,368.47,343.25,367.36,343.25Z"/><path d="M35.48,573.49h3v14.63h7.63v2.68H35.48Z"/><path d="M48.48,574.5a1.7,1.7,0,0,1,1.68-1.69,1.69,1.69,0,0,1,0,3.38A1.71,1.71,0,0,1,48.48,574.5Zm.33,3.76h2.73V590.8H48.81Z"/><path d="M53.25,578.26h2.91l3.66,9.4,3.66-9.4h2.93L61.3,590.8H58.37Z"/><path d="M68.12,578.26h2.73v1.85A5.33,5.33,0,0,1,74.92,578v2.7a3.51,3.51,0,0,0-.85-.08,4.35,4.35,0,0,0-3.22,1.66v8.54H68.12Z"/><path d="M82.71,578c3.76,0,6.18,2.88,6.18,6.83v.65H79.21a3.79,3.79,0,0,0,4,3.45,5.33,5.33,0,0,0,3.56-1.38L88,589.29a7.25,7.25,0,0,1-5.08,1.82A6.58,6.58,0,0,1,82.71,578Zm-3.53,5.56h7.06a3.35,3.35,0,0,0-3.53-3.33A3.46,3.46,0,0,0,79.18,583.51Zm2.47-7.14,3.63-3.74h2.59l-4.28,3.74Z"/><path d="M97.17,578c3.76,0,6.17,2.88,6.17,6.83v.65H93.66a3.8,3.8,0,0,0,4,3.45,5.35,5.35,0,0,0,3.56-1.38l1.24,1.79a7.28,7.28,0,0,1-5.09,1.82,6.58,6.58,0,0,1-.2-13.16Zm-3.53,5.56h7.06a3.37,3.37,0,0,0-3.53-3.33A3.46,3.46,0,0,0,93.64,583.51Z"/><path d="M120.37,589.45a5.32,5.32,0,0,1-4.05,1.66A4.17,4.17,0,0,1,112,587c0-2.88,2.31-4.08,4.36-4.08a5.2,5.2,0,0,1,4.05,1.61v-1.87c0-1.45-1.2-2.33-2.94-2.33a5.15,5.15,0,0,0-3.71,1.58L112.61,580a7.44,7.44,0,0,1,5.27-2c2.77,0,5.21,1.17,5.21,4.54v8.31h-2.72Zm0-3.4a3.67,3.67,0,0,0-3-1.3c-1.53,0-2.67.88-2.67,2.26s1.14,2.23,2.67,2.23a3.67,3.67,0,0,0,3-1.3Z"/><path d="M124.8,578.26h2.91l3.66,9.4,3.66-9.4H138l-5.11,12.54h-2.93Z"/><path d="M145.26,578c3.76,0,6.17,2.88,6.17,6.83v.65h-9.68a3.8,3.8,0,0,0,4,3.45,5.35,5.35,0,0,0,3.56-1.38l1.24,1.79a7.28,7.28,0,0,1-5.09,1.82,6.58,6.58,0,0,1-.2-13.16Zm-3.53,5.56h7.06a3.37,3.37,0,0,0-3.53-3.33A3.46,3.46,0,0,0,141.73,583.51Z"/><path d="M159.84,578a5.62,5.62,0,0,1,4.8,2.23l-1.79,1.66a3.36,3.36,0,0,0-2.88-1.48c-2.28,0-3.79,1.72-3.79,4.16s1.51,4.18,3.79,4.18a3.41,3.41,0,0,0,2.88-1.48l1.79,1.66a5.62,5.62,0,0,1-4.8,2.23,6.58,6.58,0,0,1,0-13.16Z"/><g id="Layer_2-2" data-name="Layer 2"><g id="Layer_1-2" data-name="Layer 1-2"><path class="cls-13" d="M263.92,576.66v14.51h3.71a7.17,7.17,0,0,0,7.09-7.24h0a7.06,7.06,0,0,0-6.83-7.26h-4Zm3.71-4.55a11.81,11.81,0,1,1,0,23.61h-8.16a.58.58,0,0,1-.59-.58V572.72a.58.58,0,0,1,.59-.59Z"/><path class="cls-13" d="M297.63,591.68a7.76,7.76,0,1,0-7.76-7.76,7.76,7.76,0,0,0,7.76,7.76m0-20.08a12.34,12.34,0,1,1-12.82,12.33,12.51,12.51,0,0,1,12.82-12.33"/><path class="cls-13" d="M328.11,591.68a7.76,7.76,0,1,0-7.75-7.77h0a7.77,7.77,0,0,0,7.75,7.76m0-20.08a12.34,12.34,0,1,1-12.82,12.33,12.5,12.5,0,0,1,12.82-12.33"/><path class="cls-13" d="M357.93,576.66H352.7v6.24h5.23a3.06,3.06,0,0,0,3.2-2.92v-.11a3.1,3.1,0,0,0-3-3.21h-.2m-10.29-3.94a.58.58,0,0,1,.58-.59h9.85a7.77,7.77,0,0,1,8.1,7.76,7.63,7.63,0,0,1-4.22,6.92l4.56,8a.59.59,0,0,1-.16.82.6.6,0,0,1-.37.09h-4a.56.56,0,0,1-.53-.31l-4.38-7.95H352.7v7.63a.59.59,0,0,1-.59.59h-3.84a.6.6,0,0,1-.59-.59Z"/><path class="cls-13" d="M379.36,576.77v14.51h3.71a7.17,7.17,0,0,0,7.09-7.25h0a7,7,0,0,0-6.83-7.25h-4Zm3.71-4.55a11.81,11.81,0,1,1,0,23.62h-8.16a.59.59,0,0,1-.58-.59V572.83a.58.58,0,0,1,.58-.59Z"/><path class="cls-13" d="M410.65,578l-2.87,7.76h5.74Zm-4.56,12.15-1.88,5.16a.58.58,0,0,1-.58.41h-4.08a.58.58,0,0,1-.64-.53.57.57,0,0,1,.06-.31l8.8-22.39a.58.58,0,0,1,.59-.39h4.56a.58.58,0,0,1,.59.39l8.8,22.39a.58.58,0,0,1-.27.78.56.56,0,0,1-.31.06h-4.08a.58.58,0,0,1-.58-.41l-1.88-5.16Z"/><path class="cls-13" d="M427.05,578.47c0-3.71,3.2-6.91,8.26-6.91a10.48,10.48,0,0,1,7.35,2.81.62.62,0,0,1,0,.86l-2.28,2.27a.59.59,0,0,1-.83,0h0a6,6,0,0,0-3.92-1.54c-2,0-3.52,1.17-3.52,2.53,0,4.39,12,1.86,12,10.29,0,4.22-3.2,7.42-8.94,7.42a12,12,0,0,1-8.54-3.43.59.59,0,0,1,0-.83l0,0,2.19-2.18a.58.58,0,0,1,.83,0l0,0a7.56,7.56,0,0,0,5.15,2.1c2.54,0,4.21-1.35,4.21-3,0-4.39-12-1.86-12-10.29"/><path class="cls-13" d="M465.78,572.69v8.84H455.66v-8.81a.58.58,0,0,0-.56-.61h-3.87a.57.57,0,0,0-.58.58v22.39a.58.58,0,0,0,.55.62h3.87a.58.58,0,0,0,.59-.59v-9h10.12v9a.59.59,0,0,0,.56.62h3.89a.59.59,0,0,0,.62-.56V572.69a.58.58,0,0,0-.56-.61H466.4a.58.58,0,0,0-.62.55Z"/><path class="cls-13" d="M238.9,575.18a14.79,14.79,0,0,0-13.13-7.86H184.18a1.43,1.43,0,0,0-1.42,1.44,1.38,1.38,0,0,0,.42,1l9.06,9.11a4.21,4.21,0,0,0,3,1.27h29.33a3.78,3.78,0,1,1,.08,7.56H204.44a1.42,1.42,0,0,0-1.42,1.44,1.4,1.4,0,0,0,.42,1l9.06,9.11a4.23,4.23,0,0,0,3,1.26h9.14c11.89,0,20.88-12.72,14.24-25.33"/></g></g><path class="cls-14" d="M308.86,24.37a29.24,29.24,0,0,0-10.43-2.17c-3.25,0-7.46,1.4-7.46,6.48,0,8.08,20.76,4.67,20.76,20.3,0,10.22-8.21,14.09-17.77,14.09-5.16,0-7.46-.66-12.15-1.8V52.86a27,27,0,0,0,11.62,2.87c3.59,0,8.41-1.81,8.41-6,0-8.89-20.76-5.21-20.76-20.64,0-10.42,8.21-14.23,16.55-14.23A36.42,36.42,0,0,1,309,16.52Z"/><path class="cls-14" d="M363.25,36a24.53,24.53,0,0,0-8.37-1.43c-2.37,0-5.2.84-5.2,3.7,0,5.31,15.34,1.94,15.34,14,0,7.78-7,10.9-14.22,10.9a40.19,40.19,0,0,1-10-1.43l.52-7.13a19.68,19.68,0,0,0,8.7,2.2c2.24,0,5.79-.84,5.79-4.08,0-6.55-15.34-2.08-15.34-14.14,0-7.2,6.38-10.37,13.3-10.37a41,41,0,0,1,9.62,1.23Z"/><path class="cls-14" d="M391.2,36.21a13.53,13.53,0,0,0-6-1.23c-5.47,0-9,4.28-9,10.57s3,10.89,9.15,10.89a19,19,0,0,0,6.79-1.55l.39,7.19a29.09,29.09,0,0,1-8.82,1.11c-11.13,0-16.73-7.46-16.73-17.64,0-9.66,5.8-17.31,16.4-17.31a29.29,29.29,0,0,1,8.56,1.1Z"/><path class="cls-14" d="M411.3,28.24c10.07,0,17.78,6.67,17.78,17.7,0,9.6-6.52,17.25-17.78,17.25s-17.72-7.65-17.72-17.25C393.58,34.91,401.29,28.24,411.3,28.24Zm0,28.2c6.78,0,8.56-6,8.56-11.54,0-5.12-2.77-9.92-8.56-9.92s-8.5,4.93-8.5,9.92C402.8,50.41,404.58,56.44,411.3,56.44Z"/><polygon class="cls-14" points="341.45 28.56 332.49 28.56 315.64 74.44 323.73 74.44 341.45 28.56"/><path class="cls-15" d="M304.83,27.74A54.28,54.28,0,0,1,315,41.56a52.37,52.37,0,0,1,4.52,14.32c0,.17.15.16.21,0,3.22-5.62,5.19-13.28,2.31-19-3-6-10.27-8.84-17.09-9.4C304.72,27.46,304.68,27.58,304.83,27.74Z"/><path class="cls-14" d="M428.91,29H427.7v-.44h2.95V29h-1.22v3.54h-.52Z"/><path class="cls-14" d="M434.44,30.76c0-.55-.06-1.23-.06-1.72h0c-.14.46-.3,1-.5,1.51l-.71,1.93h-.39l-.65-1.89c-.19-.56-.34-1.08-.45-1.55h0c0,.5,0,1.17-.08,1.76l-.11,1.71H431l.28-4h.66l.68,1.92c.16.49.29.94.4,1.35h0q.17-.6.42-1.35l.71-1.92h.66l.25,4h-.51Z"/><path d="M246.27,39.62c3.77,0,6.2,2.89,6.2,6.85v.65h-9.72a3.81,3.81,0,0,0,4,3.46,5.3,5.3,0,0,0,3.57-1.38l1.25,1.8a7.32,7.32,0,0,1-5.1,1.82,6.32,6.32,0,0,1-6.59-6.61A6.35,6.35,0,0,1,246.27,39.62Zm-3.54,5.57h7.08a3.36,3.36,0,0,0-3.54-3.33A3.45,3.45,0,0,0,242.73,45.19Z"/><path d="M255.72,49.59V42.33h-2.08v-2.4h2.08V36.49h2.74v3.44H261v2.4h-2.55v6.59c0,.85.41,1.48,1.19,1.48a1.79,1.79,0,0,0,1.23-.44l.65,2.06a3.64,3.64,0,0,1-2.58.8A2.9,2.9,0,0,1,255.72,49.59Z"/><path d="M195,111.25v-16h2.51v1.58A4.61,4.61,0,0,1,201.2,95c3,0,5.11,2.25,5.11,6s-2.12,6.08-5.11,6.08a4.55,4.55,0,0,1-3.71-1.89v6Zm5.47-14a3.74,3.74,0,0,0-3,1.55v4.57a3.83,3.83,0,0,0,3,1.55c2,0,3.26-1.6,3.26-3.85S202.44,97.24,200.45,97.24Z"/><path d="M208.85,95.3h2.51V97a4.93,4.93,0,0,1,3.75-2v2.48a4.28,4.28,0,0,0-.79-.07,4,4,0,0,0-3,1.53v7.87h-2.51Z"/><path d="M222.28,95c3.47,0,5.7,2.66,5.7,6.29v.6h-8.92a3.5,3.5,0,0,0,3.68,3.18,4.94,4.94,0,0,0,3.28-1.27l1.14,1.65a6.71,6.71,0,0,1-4.68,1.68,6.07,6.07,0,0,1-.2-12.13ZM219,100.13h6.51a3.09,3.09,0,0,0-3.26-3.06A3.19,3.19,0,0,0,219,100.13Zm2.27-6.58,3.35-3.44H227l-3.94,3.44Z"/><path d="M230.61,103.52a5.93,5.93,0,0,0,3.92,1.63c1.5,0,2.27-.55,2.27-1.41s-1.22-1.36-2.63-1.67c-2-.43-4.35-1-4.35-3.54,0-1.89,1.62-3.52,4.54-3.52a6.6,6.6,0,0,1,4.49,1.63l-1,1.77A4.64,4.64,0,0,0,234.38,97c-1.31,0-2.15.48-2.15,1.29s1.15,1.2,2.51,1.51c2,.43,4.47,1,4.47,3.73,0,2-1.69,3.59-4.8,3.59a7,7,0,0,1-4.95-1.8Z"/><path d="M246.89,95c3.47,0,5.69,2.66,5.69,6.29v.6h-8.92a3.5,3.5,0,0,0,3.68,3.18,4.9,4.9,0,0,0,3.28-1.27l1.15,1.65a6.75,6.75,0,0,1-4.69,1.68A6.07,6.07,0,0,1,246.89,95Zm-3.25,5.12h6.5a3.09,3.09,0,0,0-3.25-3.06A3.19,3.19,0,0,0,243.64,100.13Z"/><path d="M262.86,99.63c0-1.8-.91-2.39-2.32-2.39a3.78,3.78,0,0,0-3,1.55v8.06h-2.51V95.3h2.51v1.58A5.44,5.44,0,0,1,261.64,95c2.49,0,3.73,1.34,3.73,3.71v8.13h-2.51Z"/><path d="M269.13,104.17V97.5h-1.92V95.3h1.92V92.14h2.51V95.3H274v2.2h-2.34v6c0,.79.38,1.36,1.1,1.36a1.65,1.65,0,0,0,1.12-.4l.6,1.88a3.33,3.33,0,0,1-2.37.75A2.66,2.66,0,0,1,269.13,104.17Z"/><path d="M281.39,95c3.47,0,5.69,2.66,5.69,6.29v.6h-8.92a3.51,3.51,0,0,0,3.69,3.18,4.89,4.89,0,0,0,3.27-1.27l1.15,1.65a6.75,6.75,0,0,1-4.69,1.68A6.07,6.07,0,0,1,281.39,95Zm-3.25,5.12h6.5a3.08,3.08,0,0,0-3.25-3.06A3.19,3.19,0,0,0,278.14,100.13Z"/><path d="M297.36,99.63c0-1.8-.9-2.39-2.32-2.39a3.78,3.78,0,0,0-3,1.55v8.06h-2.51V95.3h2.51v1.58A5.48,5.48,0,0,1,296.15,95c2.48,0,3.72,1.34,3.72,3.71v8.13h-2.51Z"/><path d="M303.63,104.17V97.5h-1.91V95.3h1.91V92.14h2.51V95.3h2.34v2.2h-2.34v6c0,.79.38,1.36,1.1,1.36a1.63,1.63,0,0,0,1.12-.4l.6,1.88a3.3,3.3,0,0,1-2.37.75A2.67,2.67,0,0,1,303.63,104.17Z"/><line class="cls-16" x1="325.89" y1="103.46" x2="436.96" y2="103.46"/><line class="cls-16" x1="178.59" y1="103.46" x2="67.52" y2="103.46"/></g></g></g></svg>