<svg xmlns="http://www.w3.org/2000/svg" viewBox="0 0 487.43 600.51"><defs><style>.cls-1{isolation:isolate;}.cls-2{fill:#b68400;}.cls-3{fill:#fff;}.cls-16,.cls-4{fill:none;}.cls-5{fill:#edb458;}.cls-6{fill:#7f5b49;}.cls-7{fill:#d19d50;}.cls-8{fill:#4197cb;stroke-width:25.53px;}.cls-11,.cls-8{stroke:#fff;}.cls-16,.cls-8{stroke-miterlimit:10;}.cls-10,.cls-9{fill:#009ade;}.cls-10{mix-blend-mode:multiply;opacity:0.3;}.cls-11{stroke-linecap:round;stroke-linejoin:round;stroke-width:20.31px;}.cls-12{fill:#0075bf;}.cls-13{fill:#5f9e43;}.cls-14{fill:#ff141e;}.cls-15{fill:#ff3008;}.cls-16{stroke:#000;}</style></defs><g class="cls-1"><g id="Layer_2" data-name="Layer 2"><g id="logo_fr" data-name="logo fr"><path class="cls-2" d="M376.61,277.85c3.75,0,23.09,6.6,36.16,8.35,6.2.84,10.89,2.2,18.74,9.24,4.23,3.79-54.09,5.91-54.09,5.91Z"/><path class="cls-2" d="M68.76,282.46c-4.06,0-17.06,4-19.39,6.38s-6.53,7-7.11,9.38,24.4,2.34,24.4,2.34Z"/><path class="cls-2" d="M81.62,298.51c24-2.63,48.8-35.17,69.71-20.22,32,22.88,12.2,28.14,12.2,28.14l-81.91-7.92"/><path class="cls-3" d="M231.55,282.48c2.46,2.07-6.61,5.46-3,7.28s5.11-.6,7.52-.3,3.91,4.85,8.41,3,7.93-3,5.42-7.58c-3-5.46-8.1-.23-10.22-3.94C236.36,275.21,226.14,277.93,231.55,282.48Z"/><polygon class="cls-4" points="193.81 343.12 194.62 343.72 194.83 343.5 193.81 343.12"/><polygon class="cls-5" points="269.16 161.39 263.27 141.28 225.63 147.08 236.03 168 269.16 161.39"/><path class="cls-5" d="M216.68,190.69,224.5,181l5.05,1.25,2.62-12.14-8.87-17.84L215.93,190Z"/><polygon class="cls-5" points="197.88 329.01 198.29 327.14 197.64 326.89 197.88 329.01"/><polygon class="cls-5" points="195.71 339.11 196.22 336.71 190.81 337.29 195.71 339.11"/><polygon class="cls-5" points="188.25 126.66 150.52 118.81 147.44 138.11 180.86 146.48 188.25 126.66"/><path class="cls-5" d="M199.8,191.19c2.42.09,4.88.55,6.38-1.26a7.21,7.21,0,0,1,3.43-2.53l-18.36-55.51-6.31,16.91Z"/><polygon class="cls-5" points="373.3 140.56 357.96 133.06 333.97 146.66 349.52 157.45 373.3 140.56"/><polygon class="cls-5" points="373.22 239.53 385.38 196.71 376.35 143.13 352.17 161.69 373.22 239.53"/><polygon class="cls-5" points="436.56 188.6 432.69 169.78 396.48 176.72 404.55 196.14 436.56 188.6"/><path class="cls-5" d="M386.4,245.25l14.3-46.93-6.88-16.56L376.7,241.91a20.49,20.49,0,0,0,7.75,3C385.13,245,385.77,245.11,386.4,245.25Z"/><path class="cls-3" d="M368.92,370.29l5.58-13.8,112.93-94.36-19.26-47.37-31.78,7.17-4.84,5.14a18.73,18.73,0,0,0-3.45-2.93l13.19-32.57-5.2-26.52L392,173.46l-4.16,14.65-8-47.62-22.88-11.41-29.06,15.85,15.2,52-5.76,1.19c.87-6,.18-9.89-4.12-13.36-2.41-1.94-4.58-4.24-7-5.55L327.49,162,309.14,147.8l-30.58,15,.78,29a8.51,8.51,0,0,0-6.26,4.8,10,10,0,0,0-1.07,3.63c2.52-.06,5.08-.06,7.56.06L280,214.3c-1.43-.67-3.05-.55-5.38,2-2.47,2.7-7.62-.19-9.38,3.73s2.8,4.6,3.84,7a3.31,3.31,0,0,1,.24,1.22l-6.6,3.88-6.28-29.53-3.08-14.43-19.59-4.82,2.36-10.91,33.59-6.7-11.51,36.15a25.14,25.14,0,0,1,4.92-1.39l11.37-35.71L266.4,136.4l-45.84,7-7.87,40.35-19.95-60.4-46-9.5-4.1,27.2,9.65,21.44-.93-.3L137.1,177l1.55,7.05c-3.3.35-6.26,1.43-8.07,5.08-1.42,2.86-1.37,5-.56,6.84l-8.33,3.92,14.1-35.13-11.17-15.86-28.83,5.64-14.52,50L64.56,179.47l-23.11.37L26.69,210.73l19,22.9-8.51-6.29L6.93,226,.77,275.09l51.45,29.63-2.06,7.12,18.68,4.3L96.73,463.05l33-2.67-6.47-85.7,8.7,53.67,39.84,2.37-1.89-46,14.49,16.67,37.73-31.65L235.9,404l24.75,1.66,10.93,24.55-7.77,19.22,31.49,17.47,43.93-81,21.94-18.33Zm-2-5.31-1.8-.61,3.1-2.59ZM465.27,220.3l15.78,38.92-26,1-12.44-35ZM438.19,227l12.62,35.54-84.59,73.7L394.55,284l-.85-9.78,16.4-17.41c.43.85,1.28,1.31,2.88,1.08,6.08-.85,5.61-6.7,10.93-7.55s9.1.39,10.62-7.25c1.17-5.87,1.71-9.51.18-12.42ZM354,281.53l-6.58-23.14,40.27-.25,2.06,21.61Zm-7.14,69.4-7.68,12-160-66.51,1.12-35.07Zm-48.44,70.92-7.68,2.37L266.2,353.74l11.3,4.42Zm-8.19-37.67-.37-1.11,4.08-18.48,3.63,1.42Zm-2.87-8.76-5-15.38,7.76,3Zm5,15.38,9.36-23.15,10,3.93-14.54,34ZM156.09,305.7,176,299.92l160.66,66.8-5,7.84Zm13.06,61.16-.46-11.3,9.3,5.61-6.63,7Zm-.68-16.65-.86-20.93L191.53,347l-10.38,10.89Zm12.86-29.71-9.42,4-4.67-4.2-.15-3.75,1.93-.86Zm12.88,5.05.86,7.52-6.62.7L187,323l.28-.12Zm-9,8.57-3.17.33-8.09-6,10-4.2Zm12.64-5.1-.24-2.13.65.25Zm-1.66,7.69-.51,2.4-4.9-1.82Zm-2.41,6.41,1,.38-.21.22Zm8.52-14.4,3.89,1.53.37.91-6.19,6.49Zm-26.21-88.5-6.58-49.86,7.85-12.42,7,61.43c2.71-.12,5.39-.1,8,0l-1.49,9.78L198.38,266,184,258.21a10.26,10.26,0,0,0,0-2.34c-.61-5.72-6.24-14.61-15.59-7.21a4.44,4.44,0,0,1-4.1.93l-.23-5.58a51.44,51.44,0,0,1,8.86-3.24C174,240.54,175.07,240.39,176.12,240.22ZM242,208.68l2.21,9.53c-3.4-1.74-7.34-1.5-13.21,4.43a10.24,10.24,0,0,1-6.47,2.72L215.71,198Zm15.76,89.21-13.45-7.24-11.48-33L239.06,241Zm-53.79-28.95-8.23-18.46,33.59,9,9.86,28.37Zm-5.23-41.65,37.4,8.49-7.35,19.49-33.13-8.93ZM217.91,215l3.38,10.5c-2.92.05-5.88,0-8.42.83l-17.87-4-2.31,15.19-5.54-3.13-1.25-11Zm-60,56,17.85-8.79-2.32,33.54-20.93,6.67Zm138.87-8.35,1.25-19.42,19.8,9.2c-.76,5.45,4.79,7.94,8,11.41l.95,9.27Zm14.26-50.23,8.46,16.85-3.81,17.25-10.47-5.07Zm40.74,23.24c-2.65-.07-5.75,1.31-9.75,5.35-6,6-17.44-.54-22.49,7.12l3.72-16.87,32.55-8.19Zm-24.24,45.51c.44,1.3,1.41,2.13,3.33,2.18L313,327.66l-9.82-5.28,5.6-25.38ZM317,329.82l26.88-66.4,5.61,19.74-22.28,52.15Zm115.65-160,3.86,18.82-32,7.54-8.07-19.42Zm-47.31,26.93-12.16,42.82-21.05-77.84,24.18-18.56ZM358,133.07l15.34,7.49-23.77,16.89L334,146.66Zm-24.27,17.79,14.43,10.59,20.3,75.06c2.79,1.59,5.39,3.68,8.28,5.4l17.12-60.15,6.88,16.56-14.3,46.93a22,22,0,0,1,3.75,1.21l14.07-46.16,32.44-7.64-12.57,31a12,12,0,0,0-4.7,3.6c-4.1,4.57-12.1-.87-15.14,5.92s4.18,8.28,5.7,12.52a9.65,9.65,0,0,1,.24,4l-7.05,7.48-10,10.62-1.24-14.26-25.08.14c.43-4.92-.52-8.31-4.33-11.39-2.33-1.88-4.44-4.09-6.78-5.42l.72-2.23c.54-.14,1.09-.28,1.61-.36l-.71-2.45,3.16-9.89-7.58-27.07-6,1.24Zm16.14,48.94L355.4,219l-32.11,8.08-9.92-19.76Zm-29,1.7L308.5,204l-7.13,35.61-3.95-1.91L297,182.91l26.72-18.32Zm-11.71-49.28,12.35,9.34-26,16.53-11.74-13Zm-26.62,17.47,10.75,12.65.5,57.32-9.16,9.61Zm-16.79,92.2a14.87,14.87,0,0,1,3.84,2.58l-5.88-27.6,16.6-9.76.7,26-11.13,11.68a31.18,31.18,0,0,1,2.77,3l21.27-22.29-1.72,18.35-12.25,12.37a19.49,19.49,0,0,0,3.31,2.38l11.07-11.18,31.83,9.83L307,293.3a19.58,19.58,0,0,1,.75,6.68c-.11,2.08-1.94,3.72-4.91,5l-3.38,15.35-9.05-4.87.74-3.67,5.89-4.95c-2.37.56-5,1-7.88,1.4l-4.75,4-5.6-3-16-8.6-12.13-37-3.39-10.35a7.89,7.89,0,0,0,4.32-2.83l2.59,11.18a14.57,14.57,0,0,1,3.08-.71l-3.52-15.2c.11-.4.22-.79.32-1.23,2.32-10.55,3.09-15.9-2.72-20.59-1.14-.92-2.23-1.92-3.32-2.86l-3.12-13.51,6.46-12.77Zm-16.32-70.78-7.24,13.21-25.24-9.26,8.47-10.26Zm13.86-49.83,5.89,20.11L236,168l-10.4-20.92Zm-40,11,8.87,17.84-2.62,12.14L224.5,181l-7.82,9.65-.75-.71ZM209.61,187.4a7.21,7.21,0,0,0-3.43,2.53c-1.5,1.81-4,1.35-6.38,1.26L184.94,148.8l6.31-16.91Zm-59.09-68.58,37.74,7.84-7.4,19.82-33.42-8.37Zm-3,23.47,33.88,8.48,14.42,41.13a6,6,0,0,0-2.54,3.79c-1.07,3.75,2.47,6.38,2.13,9.18a4.89,4.89,0,0,1-1,2.13c-1.69,2.34-4.91,5.28-5.4,10.19,0,.25,0,.49,0,.74l-3.64.94-1.95-17.13L180,171.4l-22.65-7.27ZM152,166.07l23.78,8.06-8.68,12.8-24.74-11.12Zm-11.19,12.68,25.63,12.58,5.91,44.78a6.86,6.86,0,0,0-1.17-.43c-3.43-1-1.87-7-7.62-6.49L163,216.8l-19.7-27.12-.12.06Zm1.07,17L156,215l-33,17.41-19.32-18.61Zm-24.16,5.95-17.43,8.19a15.7,15.7,0,0,0-4.47-3.42l9.65-31.22L132,166Zm5.78-49.21L131,163,105.54,171,99.4,157.6Zm-26.27,8.57,5.41,12.9-10,32.38a7.75,7.75,0,0,0-3.17,2.46c-1.09,1.3-2.66,1.43-4.36,1.36L83.56,208ZM80.72,210.2c-1.77.32-3.33,1.37-4.2,4.39-1.08,3.76,2.47,6.39,2.13,9.18s-5.77,5.84-6.41,12.33a10.11,10.11,0,0,0,.06,2.46L53.49,215l9.69-31.1ZM44.17,183.29l15.43-.39L49.4,212.11l-17.17-2.79ZM34,213.67l16.21,3.18,24.52,30.71c4-4.86,8.41-9.68,15.12-11.48a36.58,36.58,0,0,1,10.68-1.18l2.92,18L98,245.83,79.26,258.46l-8.38-6.2L58.29,243Zm48.62,73.24-16.6-14.5L97,251.52l12.36,15.64Zm-7.3-25.82-15,10.15,3,15.58L46.47,276.7c-.29-3.53-4.54-5.45-3.91-9,.72-3.94,2.92-6-3.65-10-1.5-.91-2.82-1.69-4-2.36l1.86-22.85ZM10.84,230.84l21.5.76-1.77,21.81a9.13,9.13,0,0,0-5.79-.19c-4.17,1.28-9.53,1.32-4.57,8.73,1.74,2.61.1,4.83-.59,7.13l-13.8,2.08Zm-.54,44.45,10.32-1.55a9.07,9.07,0,0,0,.76.76c5.36,4.68,8.74.35,13.05.95a10.61,10.61,0,0,1,3,1l27,16.28,2.93,15.44ZM54.21,309l.79-2.69,5.67,3.27-.26.85ZM100,458.4,65.89,278.08,80,290.45l28.38,167.27Zm12.5-1L84.27,290.85l27.05-20,14,185.52Zm23.59-33.63L118.9,317.26,115.18,268l-5.36-6.91L103.18,220l16.48,15.88,26.6,188.51Zm30.57,1.83-15.47-.92L124.73,237l33.5-17.66,1.11,27.16c-4-3.37-7.88-7.44-11.84-2.19-2.65,3.52-10.51-2.39-11.86,5.21-.62,3.5,3.12,6,3.11,8.62s-4.94,5.38-4.82,11.44,6.49,12.18,12.09,12.13a10.87,10.87,0,0,0,5.55-1.4l-5,26.6,15.5,6.07,2.55,62.25-1.57,1.64,1.72,2Zm2-48.83,42.5-44.56,9.56,3.74L174.14,383Zm16.36,18.84-8.29-9.53,48.08-48.52,6.57,2.57,5.38,12.08Zm56.06,4.85-14-34.92,11.33-9.5,16.68,45.37Zm-4.6-58.33,24.86,9.73L287,425.37,275.23,429Zm33,105.12L275,433.83l11.77-3.62-9.18,21.49Zm24.16,13.41-12.23-6.79,10.84-25.36L303.58,425l-4.26-13,16.59-38.83,17.48,6.85,19.78-30.79-22-11.83,21.94-51.36,36.25-1.8Zm51.76-86.13,14.24-26.25,95.51-83.21,22.17-.89Z"/><polygon class="cls-5" points="481.05 259.22 465.27 220.3 442.62 225.22 455.06 260.26 481.05 259.22"/><path class="cls-5" d="M434.53,243.1c-1.52,7.64-5.3,6.4-10.62,7.25s-4.85,6.7-10.93,7.55c-1.6.23-2.45-.23-2.88-1.08l-16.4,17.41.85,9.78-28.33,52.22,84.59-73.7L438.19,227l-3.48,3.69C436.24,233.59,435.7,237.23,434.53,243.1Z"/><polygon class="cls-5" points="131.02 163.02 123.45 152.51 99.4 157.6 105.54 170.96 131.02 163.02"/><path class="cls-5" d="M95.77,206.5a15.7,15.7,0,0,1,4.47,3.42l17.43-8.19L132,166l-26.58,9.25Z"/><polygon class="cls-5" points="59.6 182.9 44.17 183.29 32.23 209.32 49.4 212.11 59.6 182.9"/><path class="cls-5" d="M72.3,238.56a10.11,10.11,0,0,1-.06-2.46c.64-6.49,6.07-9.53,6.41-12.33s-3.21-5.42-2.13-9.18c.87-3,2.43-4.07,4.2-4.39L63.18,183.9,53.49,215Z"/><path class="cls-5" d="M185.9,223.36l1.25,11,5.54,3.13L195,222.33l17.87,4c2.54-.85,5.5-.78,8.42-.83L217.91,215Z"/><polygon class="cls-5" points="167.05 186.93 175.73 174.13 151.96 166.07 142.31 175.81 167.05 186.93"/><polygon class="cls-5" points="182.07 334.45 185.24 334.12 183.94 324.27 173.98 328.47 182.07 334.45"/><path class="cls-5" d="M143.3,189.68,163,216.8l.51,12.39c5.75-.47,4.19,5.54,7.62,6.49a6.86,6.86,0,0,1,1.17.43l-5.91-44.78-25.63-12.58,2.42,11Z"/><path class="cls-5" d="M281,253.08l-.7-26-16.6,9.76,5.88,27.6c.1.09.19.19.29.29Z"/><polygon class="cls-5" points="321.49 161.56 309.14 152.22 283.78 165.14 295.52 178.09 321.49 161.56"/><polygon class="cls-5" points="297.42 237.74 301.37 239.65 308.5 204.04 320.85 201.5 323.67 164.59 296.95 182.91 297.42 237.74"/><polygon class="cls-5" points="225.4 184.8 216.93 195.06 242.17 204.32 249.41 191.11 225.4 184.8"/><path class="cls-5" d="M215.71,198l8.78,27.32a10.24,10.24,0,0,0,6.47-2.72c5.87-5.93,9.81-6.17,13.21-4.43L242,208.68Z"/><path class="cls-5" d="M251.63,250.43a7.89,7.89,0,0,1-4.32,2.83l3.39,10.35a11.09,11.09,0,0,1,3.52-2Z"/><path class="cls-5" d="M20.21,262c-5-7.41.4-7.45,4.57-8.73a9.13,9.13,0,0,1,5.79.19l1.77-21.81-21.5-.76-5,40.32,13.8-2.08C20.31,266.78,22,264.56,20.21,262Z"/><polygon class="cls-5" points="167.61 329.28 168.47 350.21 181.15 357.85 191.53 346.96 167.61 329.28"/><path class="cls-5" d="M38.91,257.75c6.57,4,4.37,6.05,3.65,10-.63,3.51,3.62,5.43,3.91,9l16.81,10.12-3-15.58,15-10.15L36.74,232.54l-1.86,22.85C36.09,256.06,37.41,256.84,38.91,257.75Z"/><polygon class="cls-5" points="103.65 213.77 122.97 232.38 156 214.97 141.83 195.78 103.65 213.77"/><path class="cls-5" d="M164.62,375.21,162.07,313l-15.5-6.07,5-26.6a10.87,10.87,0,0,1-5.55,1.4c-5.6.05-12-6.07-12.09-12.13s4.82-8.83,4.82-11.44S135,253,135.64,249.5c1.35-7.6,9.21-1.69,11.86-5.21,4-5.25,7.86-1.18,11.84,2.19l-1.11-27.16L124.73,237l26.48,187.69,15.47.92-1.91-46.77-1.72-2Z"/><polygon class="cls-5" points="96.98 251.51 66.06 272.41 82.66 286.91 109.34 267.16 96.98 251.51"/><polygon class="cls-5" points="111.32 270.83 84.27 290.85 112.52 457.39 125.33 456.35 111.32 270.83"/><polygon class="cls-5" points="313.37 207.32 323.29 227.08 355.4 219 349.83 199.8 313.37 207.32"/><polygon class="cls-5" points="287.33 375.42 290.05 363.08 282.29 360.04 287.33 375.42"/><polygon class="cls-5" points="305.26 241.54 315.73 246.61 319.54 229.36 311.08 212.51 305.26 241.54"/><path class="cls-5" d="M297.05,306.87l-5.89,4.95-.74,3.67,9.05,4.87L302.85,305A33,33,0,0,1,297.05,306.87Z"/><path class="cls-5" d="M326.82,273.2l-.95-9.27c-3.21-3.47-8.76-6-8-11.41l-19.8-9.2-1.25,19.42Z"/><polygon class="cls-5" points="236.81 352.2 231.43 340.12 224.85 337.55 176.78 386.07 185.07 395.6 236.81 352.2"/><path class="cls-5" d="M278.82,309.24l5.6,3,4.75-4C285.9,308.7,282.4,309,278.82,309.24Z"/><path class="cls-5" d="M286.41,280.05c5,1.63,17.43,2.74,20.6,13.25l19.13-16-31.83-9.83-11.07,11.18A17,17,0,0,0,286.41,280.05Z"/><path class="cls-6" d="M183.44,201.74l1.95,17.13,3.64-.94c0-.25,0-.49,0-.74.49-4.91,3.71-7.85,5.4-10.19-.94-.68-1.89-1.35-2.84-2A28.23,28.23,0,0,0,183.44,201.74Z"/><path class="cls-6" d="M358,234.33c-.52.08-1.07.22-1.61.36l-.72,2.23c2.34,1.33,4.45,3.54,6.78,5.42,3.81,3.08,4.76,6.47,4.33,11.39l25.08-.14,1.24,14.26,10-10.62c-4-4.27-7.48-8.45-13-10.77a22,22,0,0,0-3.75-1.21c-.63-.14-1.27-.28-1.95-.38a20.49,20.49,0,0,1-7.75-3c-2.89-1.72-5.49-3.81-8.28-5.4A15.26,15.26,0,0,0,358,234.33Z"/><path class="cls-6" d="M256.39,202.56l6.28,29.53,6.6-3.88A3.31,3.31,0,0,0,269,227c-1-2.37-5.61-3-3.84-7s6.91-1,9.38-3.73c2.33-2.54,3.95-2.66,5.38-2l-.38-14.06c-2.48-.12-5-.12-7.56-.06s-5,.14-7.24.14a11.54,11.54,0,0,0-1.69.14,25.14,25.14,0,0,0-4.92,1.39C257.57,202.07,257,202.31,256.39,202.56Z"/><path class="cls-6" d="M164.12,244l.23,5.58a4.44,4.44,0,0,0,4.1-.93c9.35-7.4,15,1.49,15.59,7.21a10.26,10.26,0,0,1,0,2.34L198.38,266l-7.47-16.77,1.49-9.78c-2.62-.14-5.3-.16-8,0a69.38,69.38,0,0,0-8.27.85c-1.05.17-2.11.32-3.14.55A51.44,51.44,0,0,0,164.12,244Z"/><path class="cls-6" d="M79.26,258.46,98,245.83l5.5,7.08-2.92-18a36.58,36.58,0,0,0-10.68,1.18c-6.71,1.8-11.12,6.62-15.12,11.48-1.32,1.6-2.6,3.2-3.89,4.7Z"/><path class="cls-6" d="M260.27,260.7a22,22,0,0,0-3,.2,14.57,14.57,0,0,0-3.08.71,11.09,11.09,0,0,0-3.52,2l12.13,37,16,8.6c3.58-.23,7.08-.54,10.35-1,2.84-.38,5.51-.84,7.88-1.4a33,33,0,0,0,5.8-1.86c3-1.31,4.8-2.95,4.91-5a19.58,19.58,0,0,0-.75-6.68c-3.17-10.51-15.56-11.62-20.6-13.25a17,17,0,0,1-3.17-1.44,19.49,19.49,0,0,1-3.31-2.38c-2.84-2.52-5-5.63-7.3-8.43a31.18,31.18,0,0,0-2.77-3c-.1-.1-.19-.2-.29-.29a14.87,14.87,0,0,0-3.84-2.58A12.73,12.73,0,0,0,260.27,260.7Z"/><polygon class="cls-5" points="387.66 258.14 347.39 258.39 353.98 281.53 389.72 279.75 387.66 258.14"/><polygon class="cls-5" points="343.92 263.42 317.05 329.82 327.25 335.31 349.53 283.16 343.92 263.42"/><polygon class="cls-5" points="274.95 433.83 269.52 447.24 277.54 451.7 286.72 430.21 274.95 433.83"/><polygon class="cls-5" points="311.76 371.58 301.73 367.65 292.37 390.8 297.22 405.62 311.76 371.58"/><polygon class="cls-5" points="195.62 246.34 228.75 255.27 236.1 235.78 198.7 227.29 195.62 246.34"/><polygon class="cls-5" points="239.06 241.02 232.79 257.65 244.27 290.65 257.72 297.89 239.06 241.02"/><polygon class="cls-5" points="277.5 358.16 266.2 353.74 290.71 424.22 298.39 421.85 277.5 358.16"/><polygon class="cls-5" points="152.55 302.51 173.48 295.84 175.8 262.3 157.95 271.09 152.55 302.51"/><path class="cls-7" d="M269.67,165.7l-33.59,6.7-2.36,10.91,19.59,4.82,3.08,14.43c.6-.25,1.18-.49,1.77-.71Z"/><polygon class="cls-7" points="206.22 330.25 202.33 328.73 200.41 337.65 206.59 331.16 206.22 330.25"/><path class="cls-7" d="M183.44,201.74a28.23,28.23,0,0,1,8.13,3.27c1,.64,1.9,1.31,2.84,2a4.89,4.89,0,0,0,1-2.13c.34-2.8-3.2-5.43-2.13-9.18a6,6,0,0,1,2.54-3.79l-14.42-41.13-33.88-8.48,9.82,21.84L180,171.4Z"/><path class="cls-7" d="M360.49,222l-3.16,9.89.71,2.45a15.26,15.26,0,0,1,10.38,2.18l-20.3-75.06-14.43-10.59,13.21,45.3,6-1.24Z"/><polygon class="cls-7" points="366.88 364.98 368.18 361.78 365.08 364.37 366.88 364.98"/><path class="cls-7" d="M403.14,257.23l7.05-7.48a9.65,9.65,0,0,0-.24-4c-1.52-4.24-8.75-5.72-5.7-12.52s11-1.35,15.14-5.92a12,12,0,0,1,4.7-3.6l12.57-31-32.44,7.64-14.07,46.16C395.66,248.78,399.17,253,403.14,257.23Z"/><polygon class="cls-7" points="477.36 264.17 455.19 265.06 359.68 348.27 345.44 374.52 477.36 264.17"/><path class="cls-7" d="M89.41,208.83a7.75,7.75,0,0,1,3.17-2.46l10-32.38-5.41-12.9L83.56,208l1.49,2.23C86.75,210.26,88.32,210.13,89.41,208.83Z"/><polygon class="cls-7" points="54.99 306.31 54.21 309 60.41 310.43 60.67 309.58 54.99 306.31"/><path class="cls-7" d="M70.88,252.26c1.29-1.5,2.57-3.1,3.89-4.7L50.25,216.85,34,213.67,58.29,243Z"/><polygon class="cls-7" points="227.12 365.53 241.13 400.45 255.13 401.4 238.45 356.03 227.12 365.53"/><polygon class="cls-7" points="188.45 333.77 195.07 333.07 194.21 325.55 187.31 322.84 187.03 322.96 188.45 333.77"/><path class="cls-7" d="M184.39,239.37l-7-61.43-7.85,12.42,6.58,49.86A69.38,69.38,0,0,1,184.39,239.37Z"/><polygon class="cls-7" points="167.09 316.54 167.24 320.29 171.91 324.49 181.33 320.5 169.02 315.68 167.09 316.54"/><polygon class="cls-7" points="284.62 249.27 293.77 239.66 293.27 182.34 282.52 169.69 284.62 249.27"/><path class="cls-7" d="M248.06,221c1.09.94,2.18,1.94,3.32,2.86,5.81,4.69,5,10,2.72,20.59-.1.44-.21.83-.32,1.23l3.52,15.2a22,22,0,0,1,3-.2,12.73,12.73,0,0,1,5.46,1.19L251.4,194.74l-6.46,12.77Z"/><polygon class="cls-7" points="168.69 355.56 169.15 366.86 171.36 368.13 177.99 361.17 168.69 355.56"/><path class="cls-7" d="M67.33,308.17,64.4,292.73l-27-16.28a10.61,10.61,0,0,0-3-1c-4.31-.6-7.69,3.73-13-.95a9.07,9.07,0,0,1-.76-.76L10.3,275.29Z"/><polygon class="cls-7" points="119.66 235.86 103.18 219.98 109.82 261.07 115.18 267.98 118.9 317.26 136.11 423.76 146.26 424.37 119.66 235.86"/><polygon class="cls-7" points="80.04 290.45 65.89 278.08 100.02 458.4 108.42 457.72 80.04 290.45"/><polygon class="cls-7" points="289.83 383.07 290.2 384.18 297.54 366.01 293.91 364.59 289.83 383.07"/><path class="cls-7" d="M323.3,231.35l-3.72,16.87c5.05-7.66,16.49-1.08,22.49-7.12,4-4,7.1-5.42,9.75-5.35l4-12.59Z"/><path class="cls-7" d="M308.82,297l-5.6,25.38,9.82,5.28,17.87-44.22c-1.92-.05-2.89-.88-3.33-2.18Z"/><path class="cls-7" d="M279.93,276.23l12.25-12.37,1.72-18.35L272.63,267.8C274.92,270.6,277.09,273.71,279.93,276.23Z"/><polygon class="cls-7" points="220.77 335.94 211.21 332.2 168.71 376.76 174.14 383.01 220.77 335.94"/><polygon class="cls-7" points="389.38 284.27 353.13 286.07 331.19 337.43 353.17 349.26 333.39 380.05 315.91 373.2 299.32 412.03 303.58 425.03 292.29 428.5 281.45 453.86 293.68 460.65 389.38 284.27"/><polygon class="cls-7" points="229.29 259.53 195.7 250.48 203.93 268.94 239.15 287.9 229.29 259.53"/><polygon class="cls-7" points="286.96 425.37 261.39 351.85 236.53 342.12 275.23 428.98 286.96 425.37"/><polygon class="cls-7" points="331.65 374.56 336.69 366.72 176.03 299.92 156.09 305.7 331.65 374.56"/><polygon class="cls-7" points="180.31 261.31 179.19 296.38 339.15 362.89 346.83 350.93 180.31 261.31"/><path class="cls-8" d="M362.88,300.28c-46.95-.84-100.83-1.3-129.79-1.31h-.91c-29,0-82.89.47-129.78,1.31C61.72,301,19.57,302,14,303.89c-.47.57-2.62,4.08.09,18.74h.54a6.12,6.12,0,0,1,6,5.24l33.39,194a6.08,6.08,0,0,0,6,5.23H405.17a6.07,6.07,0,0,0,6-5.23l33.4-194a6.11,6.11,0,0,1,6-5.24h.55c2.71-14.67.56-18.18.09-18.74C445.71,302,403.56,301,362.88,300.28Z"/><path class="cls-9" d="M362.88,300.28c-46.95-.84-100.83-1.3-129.79-1.31h-.91c-29,0-82.89.47-129.78,1.31C61.72,301,19.57,302,14,303.89c-.47.57-2.62,4.08.09,18.74h.54a6.12,6.12,0,0,1,6,5.24l33.39,194a6.08,6.08,0,0,0,6,5.23H405.17a6.07,6.07,0,0,0,6-5.23l33.4-194a6.11,6.11,0,0,1,6-5.24h.55c2.71-14.67.56-18.18.09-18.74C445.71,302,403.56,301,362.88,300.28Z"/><path class="cls-10" d="M234.82,321.66h-4.36c-74.57.2-147.12,1.78-197,4.11,0,0,20.92,130.14,71.46,150.37,24.26,9.71,76.41,13.53,127.67,13.05,51.25.48,103.41-3.34,127.67-13.05,50.54-20.23,71.46-150.37,71.46-150.37C381.94,323.44,309.39,321.86,234.82,321.66Z"/><path class="cls-11" d="M133.23,365.34c6.69,1.49,13.45,8.37,21.62,8.37a13.7,13.7,0,0,0,5.4-1c-.64,6.23-3.22,10.19-6.69,10.19-9.2,0-17.31-14.74-28.69-14.74a10.41,10.41,0,0,0-1.48.07l9.58-45c-5.59,2.34-9,7.21-9,14.15a9,9,0,0,0,.9,4.41c-4.44,0-6.89-1.62-6.89-6.29,0-8.64,11.84-16.88,22.58-16.88.9,0,1.74.07,2.58.13Z"/><path class="cls-11" d="M172.86,334.18l-4.64,22.07a9.91,9.91,0,0,0-.25,2.08c0,1.81.83,2.4,2.64,2.4a3.29,3.29,0,0,0,1.41-.26c-1.73,4.54-3,6.56-6.43,6.56s-5.79-2.28-6.3-6c-1.93,3-5,6-9.59,6-4.37,0-8.56-2.73-8.56-10.45,0-8.77,5.34-22.73,16.54-22.73,3.66,0,5.21,1.43,5.21,3.32v.45l.71-3.44Zm-22.2,21.49c0,5,2.06,5.06,3.22,5.06,1.87,0,4.57-2,5.34-5.72l3.09-14.66a2.51,2.51,0,0,0-2.64-2.47C154.2,337.88,150.66,349.56,150.66,355.67Z"/><path class="cls-11" d="M70.17,354.43,58.78,408.49C75,407.2,86.85,386,86.85,368.68c0-12-5.78-22-19.89-22-26,0-41.54,14.73-41.54,39.33,0,8.25,2.08,9.55,2.24,11C16.59,397,10.5,393,10.5,381.3c0-21.53,29.51-42.08,56.3-42.08,26.3,0,37.85,15.21,37.85,31.88,0,20.56-17.48,43.38-46.35,43.38h-.81L47.71,460.6H24.61L46.43,357.67Z"/><path class="cls-11" d="M148.47,406.76a3.59,3.59,0,0,0,1.69.31c7,0,16.92-4.62,23.48-9.23L175,402c-5.79,6.31-15.86,10.92-27,12.77-2.44,28.47-17.69,46.31-36.45,46.31-14.18,0-24.4-6.77-24.4-24.3,0-17.7,10.37-54.63,41.78-54.63C142.07,382.14,148.47,390.6,148.47,406.76Zm-13.11,8.47c-3.2-.78-4.12-3.39-4.12-6.47,0-4.31,2-7.08,4.73-8.31-.3-6.46-1.83-8.92-5.79-8.92-10.83,0-20.28,28.15-20.28,43.24,0,10.15,2,12.46,7.77,12.46C125.15,447.23,132.92,433.38,135.36,415.23Z"/><path class="cls-11" d="M226.25,383.52l-11,52.32a21.41,21.41,0,0,0-.61,4.93c0,4.3,2,5.69,6.25,5.69,6,0,10.07-5.85,12.35-13.54h6.41C231,458,217.25,461.38,209,461.38c-8.69,0-14.19-5.07-15.1-14.62-7.63,12.62-16.16,14.62-22.57,14.62-9.15,0-16.32-5.53-16.32-18.46a51,51,0,0,1,1.22-10l10.37-49.4h22l-11,52.32a21.48,21.48,0,0,0-.47,4.3c0,3.55,1.23,6.32,4.58,6.32,5.94,0,9.91-5.85,12.2-13.54l10.37-49.4Z"/><path class="cls-11" d="M270.78,359.21l-5.19,24.31h9.15l-1.22,6.16h-9.15l-9.76,46.16a21.41,21.41,0,0,0-.61,4.93c0,4.3,2,5.69,6.25,5.69,5.95,0,11.44-5.85,13.73-13.54h6.4c-8.69,25.08-23.79,28.46-32,28.46-9.15,0-16.32-5.53-16.32-18.46a51,51,0,0,1,1.22-10l9.16-43.24h-5l1.22-6.16h5l4.58-21.23Z"/><path class="cls-11" d="M306.31,383.52l-11,52.32a21.41,21.41,0,0,0-.61,4.93c0,4.3,2,5.69,6.26,5.69,5.95,0,11.43-5.85,13.72-13.54h6.41c-8.7,25.08-23.8,28.46-32,28.46-9.15,0-16.32-5.53-16.32-18.46a50.25,50.25,0,0,1,1.22-10l10.37-49.4Zm-6.86-32.77a12.28,12.28,0,0,1,12.19,12.31,12.15,12.15,0,0,1-12.19,12.15,12,12,0,0,1-12.05-12.15A12.16,12.16,0,0,1,299.45,350.75Z"/><path class="cls-11" d="M353.11,396.91c-5.48,0-9.6,6.46-11.89,14.16l-10.37,49.39h-22l16.17-76.94h22l-1.68,8c6.4-7.39,13.11-8.62,17.84-8.62,9.76,0,16.93,5.08,16.93,17.38,0,12.47-7.32,31.09-7.32,39.7,0,3.85,1.52,6.47,6.1,6.47,6.7,0,9.45-5.54,12.81-13.54h6.41c-8.55,25.23-20.29,28.46-28.37,28.46-13.27,0-18-8.61-18-17.38,0-10.47,6.87-29.39,6.87-39.24C358.61,399.68,356.77,396.91,353.11,396.91Z"/><path class="cls-11" d="M421.59,446.76c5.79,0,13.11-3.84,18-8.15-3.2,17.54-14.18,22.77-26.38,22.77-14.18,0-23.64-7.08-23.64-24.46,0-17.7,9.92-54.78,41.18-54.78,13.56,0,16.77,7.08,16.77,14.77,0,17.85-16.77,31.39-35.08,32.47-.15,1.54-.3,3.23-.3,4.61C412.13,443.69,416.25,446.76,421.59,446.76ZM432,390.29c-7.62,0-15.25,17.08-18.45,31.7,11.9-.61,22.26-12.46,22.26-25.39C435.76,392.76,434.85,390.29,432,390.29Z"/><path class="cls-11" d="M288.71,505.6l13.51-39.73h8.43V505.6l13.83-39.73H329L311.1,514.23h-9.52v-33l-12.74,33h-9.46V469.9c-7,2.2-10.42,7.26-10.42,14.41a9.23,9.23,0,0,0,.9,4.41c-4.44,0-6.88-1.62-6.88-6.3,0-8.63,11.83-16.88,22.58-16.88.9,0,1.74.07,2.57.13Z"/><path class="cls-11" d="M334.07,509.17c5.08,0,8.17-2.86,11.39-6.55h2.19c-3.67,6-9.14,12-17.7,12-6,0-10-3-10-10.32s4.18-23.11,17.36-23.11c5.74,0,7.08,3,7.08,6.23,0,7.47-7.08,13.24-14.79,13.7-.07.91-.13,1.82-.13,2.59C329.44,508.13,331,509.17,334.07,509.17Zm3.73-24.54c-3.28,0-6.43,6.95-7.72,13.37,4.95-.32,9.33-5.32,9.33-10.71C339.41,485.66,339,484.63,337.8,484.63Z"/><path class="cls-11" d="M358.77,509.17c5.08,0,8.18-2.86,11.39-6.55h2.19c-3.67,6-9.14,12-17.69,12-6.05,0-10-3-10-10.32s4.18-23.11,17.37-23.11c5.73,0,7.08,3,7.08,6.23,0,7.47-7.08,13.24-14.8,13.7-.06.91-.12,1.82-.12,2.59C354.15,508.13,355.69,509.17,358.77,509.17Zm3.73-24.54c-3.27,0-6.43,6.95-7.71,13.37,4.95-.32,9.33-5.32,9.33-10.71C364.12,485.66,363.73,484.63,362.5,484.63Z"/><path class="cls-11" d="M400.53,481.78l-12.87,9a11.81,11.81,0,0,1,2.12-.26c4.77,0,7.08,3.44,7.08,7.59a10.76,10.76,0,0,1-.26,2.47l-.7,3.24a10.75,10.75,0,0,0-.33,2.08c0,1.3.52,2.4,2.51,2.4a4.07,4.07,0,0,0,2.25-.39c-.32,4.61-4.31,6.69-6,6.69-5.28,0-8.11-2.66-8.11-7.4a16.47,16.47,0,0,1,.39-3.38l.51-2.53a10.52,10.52,0,0,0,.26-2.4c0-1.88-.64-3.11-2.31-3.11-1.48,0-3,.91-4.77,2.4l-3.34,16h-9.27L377,470.09l9.52-1.3-4.82,22.85,12.42-9.86Z"/><path d="M133.23,365.34c6.69,1.49,13.45,8.37,21.62,8.37a13.7,13.7,0,0,0,5.4-1c-.64,6.23-3.22,10.19-6.69,10.19-9.2,0-17.31-14.74-28.69-14.74a10.41,10.41,0,0,0-1.48.07l9.58-45c-5.59,2.34-9,7.21-9,14.15a9,9,0,0,0,.9,4.41c-4.44,0-6.89-1.62-6.89-6.29,0-8.64,11.84-16.88,22.58-16.88.9,0,1.74.07,2.58.13Z"/><path d="M172.86,334.18l-4.64,22.07a9.91,9.91,0,0,0-.25,2.08c0,1.81.83,2.4,2.64,2.4a3.29,3.29,0,0,0,1.41-.26c-1.73,4.54-3,6.56-6.43,6.56s-5.79-2.28-6.3-6c-1.93,3-5,6-9.59,6-4.37,0-8.56-2.73-8.56-10.45,0-8.77,5.34-22.73,16.54-22.73,3.66,0,5.21,1.43,5.21,3.32v.45l.71-3.44Zm-22.2,21.49c0,5,2.06,5.06,3.22,5.06,1.87,0,4.57-2,5.34-5.72l3.09-14.66a2.51,2.51,0,0,0-2.64-2.47C154.2,337.88,150.66,349.56,150.66,355.67Z"/><path d="M70.17,354.43,58.78,408.49C75,407.2,86.85,386,86.85,368.68c0-12-5.78-22-19.89-22-26,0-41.54,14.73-41.54,39.33,0,8.25,2.08,9.55,2.24,11C16.59,397,10.5,393,10.5,381.3c0-21.53,29.51-42.08,56.3-42.08,26.3,0,37.85,15.21,37.85,31.88,0,20.56-17.48,43.38-46.35,43.38h-.81L47.71,460.6H24.61L46.43,357.67Z"/><path d="M148.47,406.76a3.59,3.59,0,0,0,1.69.31c7,0,16.92-4.62,23.48-9.23L175,402c-5.79,6.31-15.86,10.92-27,12.77-2.44,28.47-17.69,46.31-36.45,46.31-14.18,0-24.4-6.77-24.4-24.3,0-17.7,10.37-54.63,41.78-54.63C142.07,382.14,148.47,390.6,148.47,406.76Zm-13.11,8.47c-3.2-.78-4.12-3.39-4.12-6.47,0-4.31,2-7.08,4.73-8.31-.3-6.46-1.83-8.92-5.79-8.92-10.83,0-20.28,28.15-20.28,43.24,0,10.15,2,12.46,7.77,12.46C125.15,447.23,132.92,433.38,135.36,415.23Z"/><path d="M226.25,383.52l-11,52.32a21.41,21.41,0,0,0-.61,4.93c0,4.3,2,5.69,6.25,5.69,6,0,10.07-5.85,12.35-13.54h6.41C231,458,217.25,461.38,209,461.38c-8.69,0-14.19-5.07-15.1-14.62-7.63,12.62-16.16,14.62-22.57,14.62-9.15,0-16.32-5.53-16.32-18.46a51,51,0,0,1,1.22-10l10.37-49.4h22l-11,52.32a21.48,21.48,0,0,0-.47,4.3c0,3.55,1.23,6.32,4.58,6.32,5.94,0,9.91-5.85,12.2-13.54l10.37-49.4Z"/><path d="M270.78,359.21l-5.19,24.31h9.15l-1.22,6.16h-9.15l-9.76,46.16a21.41,21.41,0,0,0-.61,4.93c0,4.3,2,5.69,6.25,5.69,5.95,0,11.44-5.85,13.73-13.54h6.4c-8.69,25.08-23.79,28.46-32,28.46-9.15,0-16.32-5.53-16.32-18.46a51,51,0,0,1,1.22-10l9.16-43.24h-5l1.22-6.16h5l4.58-21.23Z"/><path d="M306.31,383.52l-11,52.32a21.41,21.41,0,0,0-.61,4.93c0,4.3,2,5.69,6.26,5.69,5.95,0,11.43-5.85,13.72-13.54h6.41c-8.7,25.08-23.8,28.46-32,28.46-9.15,0-16.32-5.53-16.32-18.46a50.25,50.25,0,0,1,1.22-10l10.37-49.4Zm-6.86-32.77a12.28,12.28,0,0,1,12.19,12.31,12.15,12.15,0,0,1-12.19,12.15,12,12,0,0,1-12.05-12.15A12.16,12.16,0,0,1,299.45,350.75Z"/><path d="M353.11,396.91c-5.48,0-9.6,6.46-11.89,14.16l-10.37,49.39h-22l16.17-76.94h22l-1.68,8c6.4-7.39,13.11-8.62,17.84-8.62,9.76,0,16.93,5.08,16.93,17.38,0,12.47-7.32,31.09-7.32,39.7,0,3.85,1.52,6.47,6.1,6.47,6.7,0,9.45-5.54,12.81-13.54h6.41c-8.55,25.23-20.29,28.46-28.37,28.46-13.27,0-18-8.61-18-17.38,0-10.47,6.87-29.39,6.87-39.24C358.61,399.68,356.77,396.91,353.11,396.91Z"/><path d="M421.59,446.76c5.79,0,13.11-3.84,18-8.15-3.2,17.54-14.18,22.77-26.38,22.77-14.18,0-23.64-7.08-23.64-24.46,0-17.7,9.92-54.78,41.18-54.78,13.56,0,16.77,7.08,16.77,14.77,0,17.85-16.77,31.39-35.08,32.47-.15,1.54-.3,3.23-.3,4.61C412.13,443.69,416.25,446.76,421.59,446.76ZM432,390.29c-7.62,0-15.25,17.08-18.45,31.7,11.9-.61,22.26-12.46,22.26-25.39C435.76,392.76,434.85,390.29,432,390.29Z"/><path d="M288.71,505.6l13.51-39.73h8.43V505.6l13.83-39.73H329L311.1,514.23h-9.52v-33l-12.74,33h-9.46V469.9c-7,2.2-10.42,7.26-10.42,14.41a9.23,9.23,0,0,0,.9,4.41c-4.44,0-6.88-1.62-6.88-6.3,0-8.63,11.83-16.88,22.58-16.88.9,0,1.74.07,2.57.13Z"/><path d="M334.07,509.17c5.08,0,8.17-2.86,11.39-6.55h2.19c-3.67,6-9.14,12-17.7,12-6,0-10-3-10-10.32s4.18-23.11,17.36-23.11c5.74,0,7.08,3,7.08,6.23,0,7.47-7.08,13.24-14.79,13.7-.07.91-.13,1.82-.13,2.59C329.44,508.13,331,509.17,334.07,509.17Zm3.73-24.54c-3.28,0-6.43,6.95-7.72,13.37,4.95-.32,9.33-5.32,9.33-10.71C339.41,485.66,339,484.63,337.8,484.63Z"/><path d="M358.77,509.17c5.08,0,8.18-2.86,11.39-6.55h2.19c-3.67,6-9.14,12-17.69,12-6.05,0-10-3-10-10.32s4.18-23.11,17.37-23.11c5.73,0,7.08,3,7.08,6.23,0,7.47-7.08,13.24-14.8,13.7-.06.91-.12,1.82-.12,2.59C354.15,508.13,355.69,509.17,358.77,509.17Zm3.73-24.54c-3.27,0-6.43,6.95-7.71,13.37,4.95-.32,9.33-5.32,9.33-10.71C364.12,485.66,363.73,484.63,362.5,484.63Z"/><path d="M400.53,481.78l-12.87,9a11.81,11.81,0,0,1,2.12-.26c4.77,0,7.08,3.44,7.08,7.59a10.76,10.76,0,0,1-.26,2.47l-.7,3.24a10.75,10.75,0,0,0-.33,2.08c0,1.3.52,2.4,2.51,2.4a4.07,4.07,0,0,0,2.25-.39c-.32,4.61-4.31,6.69-6,6.69-5.28,0-8.11-2.66-8.11-7.4a16.47,16.47,0,0,1,.39-3.38l.51-2.53a10.52,10.52,0,0,0,.26-2.4c0-1.88-.64-3.11-2.31-3.11-1.48,0-3,.91-4.77,2.4l-3.34,16h-9.27L377,470.09l9.52-1.3-4.82,22.85,12.42-9.86Z"/><path class="cls-12" d="M300.34,24.37a29.33,29.33,0,0,0-10.43-2.17c-3.26,0-7.46,1.4-7.46,6.48,0,8.08,20.75,4.67,20.75,20.3,0,10.22-8.2,14.09-17.77,14.09-5.15,0-7.46-.66-12.14-1.8V52.86a26.9,26.9,0,0,0,11.61,2.87c3.59,0,8.41-1.81,8.41-6,0-8.89-20.76-5.21-20.76-20.64,0-10.42,8.21-14.23,16.55-14.23a36.42,36.42,0,0,1,11.33,1.67Z"/><path class="cls-12" d="M354.73,36a24.59,24.59,0,0,0-8.38-1.43c-2.37,0-5.2.84-5.2,3.7,0,5.31,15.35,1.94,15.35,14,0,7.78-7.05,10.9-14.23,10.9a40.26,40.26,0,0,1-10-1.43l.53-7.13a19.6,19.6,0,0,0,8.69,2.2c2.24,0,5.8-.84,5.8-4.08,0-6.55-15.35-2.08-15.35-14.14,0-7.2,6.39-10.37,13.31-10.37a41,41,0,0,1,9.61,1.23Z"/><path class="cls-12" d="M382.67,36.21a13.53,13.53,0,0,0-6-1.23c-5.47,0-9,4.28-9,10.57s3,10.89,9.16,10.89a18.89,18.89,0,0,0,6.78-1.55l.4,7.19a29.16,29.16,0,0,1-8.83,1.11c-11.13,0-16.73-7.46-16.73-17.64,0-9.66,5.8-17.31,16.4-17.31a29.2,29.2,0,0,1,8.56,1.1Z"/><path class="cls-12" d="M402.77,28.24c10.08,0,17.78,6.67,17.78,17.7,0,9.6-6.52,17.25-17.78,17.25s-17.72-7.65-17.72-17.25C385.05,34.91,392.76,28.24,402.77,28.24Zm0,28.2c6.78,0,8.56-6,8.56-11.54,0-5.12-2.76-9.92-8.56-9.92s-8.49,4.93-8.49,9.92C394.28,50.41,396.05,56.44,402.77,56.44Z"/><polygon class="cls-12" points="332.92 28.56 323.96 28.56 307.11 74.44 315.21 74.44 332.92 28.56"/><path class="cls-13" d="M296.31,27.74a54.52,54.52,0,0,1,10.17,13.82A52,52,0,0,1,311,55.88c0,.17.15.16.21,0,3.22-5.62,5.19-13.28,2.31-19-3-6-10.27-8.84-17.08-9.4C296.19,27.46,296.15,27.58,296.31,27.74Z"/><path class="cls-12" d="M420.39,29h-1.21v-.44h2.94V29H420.9v3.54h-.51Z"/><path class="cls-12" d="M425.92,30.76c0-.55-.07-1.23-.07-1.72h0c-.14.46-.3,1-.5,1.51l-.7,1.93h-.39l-.65-1.89c-.19-.56-.35-1.08-.46-1.55h0c0,.5,0,1.17-.08,1.76l-.1,1.71h-.49l.28-4h.65l.68,1.92c.16.49.29.94.4,1.35h0c.11-.4.25-.85.43-1.35l.71-1.92h.65l.25,4H426Z"/><path d="M249.71,52.51h-3.57c-.42-.39-1-.94-1.54-1.51a7.38,7.38,0,0,1-4.87,1.82c-3.1,0-5.6-1.64-5.6-5,0-2.68,1.8-4,3.78-5.08a8.09,8.09,0,0,1-1.22-3.8c0-2.34,2-4.11,4.71-4.11,2.37,0,4.3,1.3,4.3,3.56,0,2.64-2.16,3.76-4.33,4.82.58.81,1.2,1.57,1.7,2.14s1.14,1.35,1.72,2a15.29,15.29,0,0,0,1.72-3.62l2.24,1a22.62,22.62,0,0,1-2.4,4.3C247.39,50.19,248.48,51.31,249.71,52.51Zm-6.64-3.1c-.86-.94-1.67-1.85-2.14-2.4-.62-.75-1.3-1.61-1.93-2.5a3.68,3.68,0,0,0-1.95,3.13,2.91,2.91,0,0,0,3,3A4.67,4.67,0,0,0,243.07,49.41Zm-2.76-7.76c1.64-.78,3-1.62,3-3.07a1.61,1.61,0,0,0-1.75-1.67A2,2,0,0,0,239.45,39,5.81,5.81,0,0,0,240.31,41.65Z"/><path class="cls-4" d="M205.59,17.17a.93.93,0,0,0,.35.23,1.07,1.07,0,0,0,.86,0,.89.89,0,0,0,.34-.23,1,1,0,0,0,.23-.36,1.16,1.16,0,0,0,.08-.42,1.22,1.22,0,0,0-.08-.43.93.93,0,0,0-.23-.35.92.92,0,0,0-.34-.24,1.07,1.07,0,0,0-.86,0,1,1,0,0,0-.35.24,1,1,0,0,0-.22.35,1,1,0,0,0-.08.43,1,1,0,0,0,.08.42A1.09,1.09,0,0,0,205.59,17.17Zm.17-1.62h.66a.81.81,0,0,1,.48.13.47.47,0,0,1,.16.39.45.45,0,0,1-.12.33.52.52,0,0,1-.3.13l.42.69h-.4l-.4-.67h-.13v.67h-.37Z"/><path class="cls-4" d="M202.43,17.2a.9.9,0,0,0,.07-.33,3.86,3.86,0,0,0,0-.51c0-.17,0-.32,0-.45a1.38,1.38,0,0,0-.07-.32.49.49,0,0,0-.16-.19.51.51,0,0,0-.27-.06h-.25v2.09H202a.5.5,0,0,0,.26-.05A.45.45,0,0,0,202.43,17.2Z"/><path class="cls-4" d="M206.61,16.22a.18.18,0,0,0,.08-.17.16.16,0,0,0,0-.11.12.12,0,0,0-.08-.06.17.17,0,0,0-.1,0h-.35v.42h.28A.54.54,0,0,0,206.61,16.22Z"/><path class="cls-14" d="M178.64,46.21c-1.92,6.73,3.48,6.61,6.87,1.89,2.38-3.23,4.42-8,3.9-10.68a4.48,4.48,0,0,0-.66-1.58C181.39,36.51,178.93,45.14,178.64,46.21Z"/><path class="cls-14" d="M208.48,41.74c0-22.6-32.95-41-73.45-41s-73.45,18.39-73.45,41,33,41,73.45,41S208.48,64.34,208.48,41.74ZM145.55,30.26c12.12,2.43,18.76.93,24.37.68L172,26.57a7.31,7.31,0,0,1,5.23,0l-1.94,4.3c8.47.2,13.31,1.78,16.08,3.67,4.71.23,8.75,1.41,9.76,2.39a5.6,5.6,0,0,1-2.93,2.8,10.76,10.76,0,0,0-4.66-3.14,6.33,6.33,0,0,1,1.25,5.07c-.68,5.6-7,11.27-14.14,11.27-4.27,0-7-2-7.57-5a9.11,9.11,0,0,1-.06-2.15,11.68,11.68,0,0,1,2.83-6.3C178.6,36.3,183,35,187.41,34.6c-3-1.84-8.83-1.2-13.46-.74l-4.63,10.3A23.12,23.12,0,0,0,167.44,49c-.07.63,0,1.31,1,1.31a3.44,3.44,0,0,0,1.89-.76c.31-.22.83-.69,1.18-1a5.38,5.38,0,0,0,.52,1.2l0,.06c-1.72,1.6-4,3.16-6.63,3.16-2.31,0-4-1.37-3.76-3.24a9.13,9.13,0,0,1,1-3.14c.45-1.12,1-2.24,1.36-3.1l4.41-9.28c-6.08,0-16.4-.59-23.15-3.38Zm-2,6.57a5.69,5.69,0,0,0-1.33.36,4.17,4.17,0,0,0-.44-1,10.86,10.86,0,0,1,5.37-1.81c1.94,0,3.37,1,3.16,2.67a17.61,17.61,0,0,1-2,4.83s-3.41,6.31-3.52,7.23c-.09.75.48,1.09,1.36,1.09,4.21,0,8.81-9,10.21-11.68l1.5-2.7s1.83.18,2.59.23l2.78.18-3.11,6c-.77,1.67-2.26,5-2.46,6.63-.06.5-.05,1.3.76,1.3a3.09,3.09,0,0,0,1.51-.64c0,.06,0,.11,0,.17a2.49,2.49,0,0,0,.15,1.25v0a8.79,8.79,0,0,1-5.17,1.9,2.7,2.7,0,0,1-3-3,10.56,10.56,0,0,1,.76-2.74l-.1-.09c-2.33,3.19-5.6,5.85-9.7,5.87-2.37,0-4.06-1.24-3.82-3.28a18.31,18.31,0,0,1,2.06-5s3.08-6.19,3.16-6.85A.7.7,0,0,0,143.58,36.83ZM92.8,45.07c-1.2,5.06-6.26,8-12.23,8-3.29,0-6.56-1-8.38-3-3.51-4.07.52-6.18,2.49-6.15-1,3.9.53,7.36,5.49,7.36,2.78,0,5.22-1.61,5.78-4,.62-2.61-.84-4.16-2.55-5.9l-1.62-1.68c-2.12-2.17-3.73-4.12-3-7.35,1.1-4.64,6-7.53,11.52-7.53a10.24,10.24,0,0,1,7,2.39c3.66,3.7-.87,6.06-1.88,5.84a1,1,0,0,1-.34-.11c1-3-.07-6.31-4.23-6.31-2.33,0-5.2,1.24-5.71,3.36-.57,2.41,1.16,4.07,2.71,5.64l1.48,1.45C91.73,39.4,93.64,41.55,92.8,45.07Zm14.7,5a13,13,0,0,1,.34-1.51l-.1-.08a10.72,10.72,0,0,1-8.24,4.38c-4.32,0-6-2.79-5.63-6,.66-5.38,6.72-12.48,14.12-12.48,2.41,0,4.05,1,4.76,2.72l1.3-2.28a7.64,7.64,0,0,1,5.35,0l-5.3,11.25a15.63,15.63,0,0,0-1.2,3.08c-.06.5.07,1.46.79,1.46a2.07,2.07,0,0,0,.92-.24v0L113.86,52a8,8,0,0,1-3.42.84C108.5,52.87,107.3,51.61,107.5,50.08Zm14.5.08h-.1L116.12,63a6.85,6.85,0,0,1-4-3.4l12.17-27.15a6.41,6.41,0,0,1,3.74,3.16L127.47,37l.09.08a9.89,9.89,0,0,1,6.82-2.74c3.7,0,5.44,1.88,5.66,4.45a7.65,7.65,0,0,1,0,1.54c-.65,5.3-5.85,12.51-13.3,12.51C124.35,52.87,122.72,51.88,122,50.16Z"/><path class="cls-14" d="M131.73,36.65c-4.57,0-8,8.68-8.37,11.22a2.18,2.18,0,0,0,2.24,2.71c4.63,0,8.27-8.34,8.64-11.34A2.22,2.22,0,0,0,131.73,36.65Z"/><path class="cls-14" d="M108.84,36.65c-4.52,0-8.54,8.05-8.9,11a2.18,2.18,0,0,0,2.13,2.71c4.67,0,8.83-8.34,9.21-11.34C111.44,37.7,110.64,36.65,108.84,36.65Z"/><path class="cls-3" d="M187.42,12.16C173.42,4.32,154.82,0,135,0S96.65,4.32,82.65,12.16,60.84,30.55,60.84,41.74s7.75,21.69,21.81,29.57S115.25,83.48,135,83.48s38.39-4.32,52.39-12.17,21.81-18.38,21.81-29.57S201.48,20,187.42,12.16ZM61.58,41.74c0-22.6,33-41,73.45-41s73.45,18.39,73.45,41-32.95,41-73.45,41S61.58,64.34,61.58,41.74Z"/><path class="cls-3" d="M89.39,37.12l-1.48-1.45C86.36,34.1,84.63,32.44,85.2,30c.51-2.12,3.38-3.36,5.71-3.36,4.16,0,5.19,3.32,4.23,6.31a1,1,0,0,0,.34.11c1,.22,5.54-2.14,1.88-5.84a10.24,10.24,0,0,0-7-2.39c-5.52,0-10.42,2.89-11.52,7.53-.77,3.23.84,5.18,3,7.35l1.62,1.68c1.71,1.74,3.17,3.29,2.55,5.9-.56,2.35-3,4-5.78,4-5,0-6.52-3.46-5.49-7.36-2,0-6,2.08-2.49,6.15,1.82,2.06,5.09,3,8.38,3,6,0,11-3,12.23-8C93.64,41.55,91.73,39.4,89.39,37.12Z"/><path class="cls-3" d="M140,40.36a7.65,7.65,0,0,0,0-1.54c-.22-2.57-2-4.45-5.66-4.45a9.89,9.89,0,0,0-6.82,2.74l-.09-.08.61-1.44a6.41,6.41,0,0,0-3.74-3.16L112.17,59.58a6.85,6.85,0,0,0,4,3.4l5.78-12.82h.1c.72,1.72,2.35,2.71,4.71,2.71C134.16,52.87,139.36,45.66,140,40.36Zm-5.77-1.12c-.37,3-4,11.34-8.64,11.34a2.18,2.18,0,0,1-2.24-2.71c.32-2.54,3.8-11.22,8.37-11.22A2.22,2.22,0,0,1,134.24,39.24Z"/><path class="cls-3" d="M114.61,50.37v0a2.07,2.07,0,0,1-.92.24c-.72,0-.85-1-.79-1.46a15.63,15.63,0,0,1,1.2-3.08l5.3-11.25a7.64,7.64,0,0,0-5.35,0l-1.3,2.28c-.71-1.76-2.35-2.72-4.76-2.72-7.4,0-13.46,7.1-14.12,12.48-.4,3.25,1.31,6,5.63,6a10.72,10.72,0,0,0,8.24-4.38l.1.08a13,13,0,0,0-.34,1.51c-.2,1.53,1,2.79,2.94,2.79a8,8,0,0,0,3.42-.84ZM111.28,39c-.38,3-4.54,11.34-9.21,11.34a2.18,2.18,0,0,1-2.13-2.71c.36-3,4.38-11,8.9-11C110.64,36.65,111.44,37.7,111.28,39Z"/><path class="cls-3" d="M141.18,44.57a18.31,18.31,0,0,0-2.06,5c-.24,2,1.45,3.29,3.82,3.28,4.1,0,7.37-2.68,9.7-5.87l.1.09a10.56,10.56,0,0,0-.76,2.74,2.7,2.7,0,0,0,3,3,8.79,8.79,0,0,0,5.17-1.9v0a2.49,2.49,0,0,1-.15-1.25c0-.06,0-.11,0-.17a3.09,3.09,0,0,1-1.51.64c-.81,0-.82-.8-.76-1.3.2-1.63,1.69-5,2.46-6.63l3.11-6L160.5,36c-.76,0-2.59-.23-2.59-.23l-1.5,2.7c-1.4,2.71-6,11.68-10.21,11.68-.88,0-1.45-.34-1.36-1.09.11-.92,3.52-7.23,3.52-7.23a17.61,17.61,0,0,0,2-4.83c.21-1.63-1.22-2.67-3.16-2.67a10.86,10.86,0,0,0-5.37,1.81,4.17,4.17,0,0,1,.44,1,5.69,5.69,0,0,1,1.33-.36.7.7,0,0,1,.76.89C144.26,38.38,141.18,44.57,141.18,44.57Z"/><path class="cls-3" d="M164,43.45c-.39.86-.91,2-1.36,3.1a9.13,9.13,0,0,0-1,3.14c-.23,1.87,1.45,3.24,3.76,3.24,2.67,0,4.91-1.56,6.63-3.16l0-.06a5.38,5.38,0,0,1-.52-1.2c-.35.32-.87.79-1.18,1a3.44,3.44,0,0,1-1.89.76c-1,0-1.07-.68-1-1.31a23.12,23.12,0,0,1,1.88-4.81L174,33.86c4.63-.46,10.41-1.1,13.46.74-4.4.35-8.81,1.7-11.56,4.89a11.68,11.68,0,0,0-2.83,6.3,9.11,9.11,0,0,0,.06,2.15c.58,3,3.3,5,7.57,5,7.18,0,13.46-5.67,14.14-11.27a6.33,6.33,0,0,0-1.25-5.07,10.76,10.76,0,0,1,4.66,3.14,5.6,5.6,0,0,0,2.93-2.8c-1-1-5-2.16-9.76-2.39-2.77-1.89-7.61-3.47-16.08-3.67l1.94-4.3a7.31,7.31,0,0,0-5.23,0l-2.08,4.37c-5.61.25-12.25,1.75-24.37-.68l-.32.53c6.75,2.79,17.07,3.38,23.15,3.38Zm25.44-6c.52,2.65-1.52,7.45-3.9,10.68-3.39,4.72-8.79,4.84-6.87-1.89.29-1.07,2.75-9.7,10.11-10.37A4.48,4.48,0,0,1,189.41,37.42Z"/><polygon class="cls-14" points="198.6 15.5 198.61 15.5 199.14 17.88 199.6 17.88 200.13 15.5 200.14 15.5 200.14 17.88 200.69 17.88 200.69 14.89 199.81 14.89 199.38 17 199.37 17 198.94 14.89 198.05 14.89 198.05 17.88 198.6 17.88 198.6 15.5"/><path class="cls-14" d="M202.6,17.78a.74.74,0,0,0,.31-.27,1.5,1.5,0,0,0,.17-.48,4.66,4.66,0,0,0,0-.69,5.28,5.28,0,0,0,0-.59,1.46,1.46,0,0,0-.15-.46.7.7,0,0,0-.3-.29,1,1,0,0,0-.5-.1h-1v3h.95A1.06,1.06,0,0,0,202.6,17.78Zm-.84-.35V15.34H202a.51.51,0,0,1,.27.06.49.49,0,0,1,.16.19,1.38,1.38,0,0,1,.07.32c0,.13,0,.28,0,.45a3.86,3.86,0,0,1,0,.51.9.9,0,0,1-.07.33.45.45,0,0,1-.15.18.5.5,0,0,1-.26.05Z"/><polygon class="cls-14" points="204.71 14.84 204.24 14.84 203.31 17.92 203.77 17.92 204.71 14.84"/><path class="cls-14" d="M205.27,17.48a1.56,1.56,0,0,0,.5.33,1.64,1.64,0,0,0,.6.11,1.73,1.73,0,0,0,.6-.11,1.67,1.67,0,0,0,.5-.33,1.51,1.51,0,0,0,.33-.49,1.59,1.59,0,0,0,0-1.21,1.51,1.51,0,0,0-.33-.49A1.67,1.67,0,0,0,207,15a1.53,1.53,0,0,0-.6-.12,1.46,1.46,0,0,0-.6.12,1.56,1.56,0,0,0-.5.33,1.51,1.51,0,0,0-.33.49,1.59,1.59,0,0,0,0,1.21A1.51,1.51,0,0,0,205.27,17.48Zm.1-1.52a1,1,0,0,1,.22-.35,1,1,0,0,1,.35-.24,1.07,1.07,0,0,1,.86,0,.92.92,0,0,1,.34.24.93.93,0,0,1,.23.35,1.22,1.22,0,0,1,.08.43,1.16,1.16,0,0,1-.08.42,1,1,0,0,1-.23.36.89.89,0,0,1-.34.23,1.07,1.07,0,0,1-.86,0,.93.93,0,0,1-.35-.23,1.09,1.09,0,0,1-.22-.36,1,1,0,0,1-.08-.42A1,1,0,0,1,205.37,16Z"/><path class="cls-14" d="M206.13,16.55h.13l.4.67h.4l-.42-.69a.52.52,0,0,0,.3-.13.45.45,0,0,0,.12-.33.47.47,0,0,0-.16-.39.81.81,0,0,0-.48-.13h-.66v1.67h.37Zm0-.71h.35a.17.17,0,0,1,.1,0,.12.12,0,0,1,.08.06.16.16,0,0,1,0,.11.18.18,0,0,1-.08.17.54.54,0,0,1-.2,0h-.28Z"/><path d="M10,573.49h6.44c5.4,0,9.06,3.58,9.06,8.66s-3.66,8.65-9.06,8.65H10Zm6.44,14.63a5.69,5.69,0,0,0,5.95-6,5.61,5.61,0,0,0-5.95-6H13v12Z"/><path d="M33.88,578c3.77,0,6.18,2.88,6.18,6.83v.65H30.38a3.8,3.8,0,0,0,4,3.45,5.3,5.3,0,0,0,3.55-1.38l1.25,1.79a7.29,7.29,0,0,1-5.09,1.82A6.58,6.58,0,0,1,33.88,578Zm-3.53,5.56h7.06a3.35,3.35,0,0,0-3.53-3.33A3.46,3.46,0,0,0,30.35,583.51Z"/><path d="M42.76,573.49h2.72V590.8H42.76Z"/><path d="M48.68,574.5a1.69,1.69,0,1,1,1.68,1.69A1.69,1.69,0,0,1,48.68,574.5Zm.33,3.76h2.73V590.8H49Z"/><path d="M53.45,578.26h2.91l3.66,9.4,3.66-9.4h2.93L61.5,590.8H58.56Z"/><path d="M73.9,578c3.77,0,6.18,2.88,6.18,6.83v.65H70.4a3.8,3.8,0,0,0,4,3.45A5.3,5.3,0,0,0,78,587.5l1.25,1.79a7.29,7.29,0,0,1-5.09,1.82A6.58,6.58,0,0,1,73.9,578Zm-3.53,5.56h7.06a3.35,3.35,0,0,0-3.53-3.33A3.46,3.46,0,0,0,70.37,583.51Z"/><path d="M82.78,578.26H85.5v1.85A5.35,5.35,0,0,1,89.58,578v2.7a3.59,3.59,0,0,0-.86-.08,4.35,4.35,0,0,0-3.22,1.66v8.54H82.78Z"/><path d="M97.36,578c3.77,0,6.18,2.88,6.18,6.83v.65H93.86a3.8,3.8,0,0,0,4,3.45,5.3,5.3,0,0,0,3.55-1.38l1.25,1.79a7.29,7.29,0,0,1-5.09,1.82A6.58,6.58,0,0,1,97.36,578Zm-3.53,5.56h7.06a3.35,3.35,0,0,0-3.53-3.33A3.46,3.46,0,0,0,93.83,583.51Z"/><path d="M115.06,589.09a5.08,5.08,0,0,1-4,2c-3.22,0-5.58-2.44-5.58-6.57S107.8,578,111,578a5,5,0,0,1,4,2v-6.51h2.73V590.8h-2.73Zm0-7a4.12,4.12,0,0,0-3.24-1.69c-2.16,0-3.53,1.74-3.53,4.18s1.37,4.16,3.53,4.16a4.07,4.07,0,0,0,3.24-1.67Z"/><path d="M136,581.61l-2.91,9.19h-2.86l-3.89-12.54h2.83l2.65,9.11,3-9.11h2.39l3,9.11,2.64-9.11h2.83l-3.89,12.54h-2.86Z"/><path d="M147.22,574.5a1.7,1.7,0,0,1,1.69-1.69,1.69,1.69,0,0,1,0,3.38A1.71,1.71,0,0,1,147.22,574.5Zm.34,3.76h2.72V590.8h-2.72Z"/><path d="M154.35,587.89v-7.24h-2.07v-2.39h2.07v-3.42h2.73v3.42h2.54v2.39h-2.54v6.57c0,.85.42,1.48,1.19,1.48a1.72,1.72,0,0,0,1.22-.45l.65,2.06a3.61,3.61,0,0,1-2.57.8A2.89,2.89,0,0,1,154.35,587.89Z"/><path d="M170.58,582.91c0-1.95-1-2.55-2.55-2.55a4.22,4.22,0,0,0-3.22,1.69v8.75h-2.72V573.49h2.72V580a6,6,0,0,1,4.44-2c2.7,0,4.05,1.4,4.05,4v8.88h-2.72Z"/><g id="Layer_2-2" data-name="Layer 2"><g id="Layer_1-2" data-name="Layer 1-2"><path class="cls-15" d="M270.43,576.66v14.51h3.71a7.16,7.16,0,0,0,7.08-7.24h0a7,7,0,0,0-6.83-7.26h-4Zm3.71-4.55a11.81,11.81,0,1,1,0,23.61H266a.58.58,0,0,1-.59-.58V572.72a.58.58,0,0,1,.59-.59Z"/><path class="cls-15" d="M304.14,591.68a7.76,7.76,0,1,0-7.76-7.76,7.77,7.77,0,0,0,7.76,7.76m0-20.08a12.34,12.34,0,1,1-12.83,12.33,12.51,12.51,0,0,1,12.83-12.33"/><path class="cls-15" d="M334.62,591.68a7.76,7.76,0,1,0-7.76-7.77h0a7.78,7.78,0,0,0,7.76,7.76m0-20.08a12.34,12.34,0,1,1-12.82,12.33,12.51,12.51,0,0,1,12.82-12.33"/><path class="cls-15" d="M364.44,576.66h-5.23v6.24h5.23a3.06,3.06,0,0,0,3.2-2.92v-.11a3.11,3.11,0,0,0-3-3.21h-.2m-10.3-3.94a.59.59,0,0,1,.59-.59h9.85a7.78,7.78,0,0,1,8.1,7.76,7.66,7.66,0,0,1-4.22,6.92l4.56,8a.6.6,0,0,1-.17.82.56.56,0,0,1-.36.09h-4a.58.58,0,0,1-.54-.31l-4.37-7.95h-4.38v7.63a.6.6,0,0,1-.59.59h-3.84a.59.59,0,0,1-.59-.59Z"/><path class="cls-15" d="M385.87,576.77v14.51h3.71a7.18,7.18,0,0,0,7.09-7.25h0a7,7,0,0,0-6.83-7.25h-4Zm3.71-4.55a11.81,11.81,0,1,1,0,23.62h-8.16a.6.6,0,0,1-.59-.59V572.83a.59.59,0,0,1,.59-.59Z"/><path class="cls-15" d="M417.16,578l-2.87,7.76H420Zm-4.56,12.15-1.88,5.16a.58.58,0,0,1-.59.41h-4.07a.58.58,0,0,1-.64-.53.67.67,0,0,1,.05-.31l8.81-22.39a.58.58,0,0,1,.59-.39h4.56a.58.58,0,0,1,.59.39l8.8,22.39a.58.58,0,0,1-.27.78.59.59,0,0,1-.32.06h-4.07a.6.6,0,0,1-.59-.41l-1.88-5.16Z"/><path class="cls-15" d="M433.55,578.47c0-3.71,3.2-6.91,8.27-6.91a10.45,10.45,0,0,1,7.34,2.81.6.6,0,0,1,0,.86l-2.27,2.27a.59.59,0,0,1-.83,0h0a6,6,0,0,0-3.91-1.54c-2,0-3.53,1.17-3.53,2.53,0,4.39,12,1.86,12,10.29,0,4.22-3.21,7.42-8.94,7.42a12,12,0,0,1-8.54-3.43.59.59,0,0,1,0-.83l0,0,2.19-2.18a.58.58,0,0,1,.83,0l0,0a7.54,7.54,0,0,0,5.15,2.1c2.54,0,4.21-1.35,4.21-3,0-4.39-12-1.86-12-10.29"/><path class="cls-15" d="M472.29,572.69v8.84H462.17v-8.81a.58.58,0,0,0-.56-.61h-3.87a.58.58,0,0,0-.59.58v22.39a.6.6,0,0,0,.56.62h3.87a.58.58,0,0,0,.59-.59v-9h10.12v9a.59.59,0,0,0,.56.62h3.89a.59.59,0,0,0,.62-.56V572.69a.59.59,0,0,0-.56-.61h-3.89a.58.58,0,0,0-.62.55Z"/><path class="cls-15" d="M245.41,575.18a14.8,14.8,0,0,0-13.13-7.86H190.69a1.43,1.43,0,0,0-1.42,1.44,1.41,1.41,0,0,0,.41,1l9.06,9.11a4.25,4.25,0,0,0,3,1.27h29.33a3.78,3.78,0,1,1,.08,7.56H211a1.44,1.44,0,0,0-1,2.44l9.06,9.11a4.25,4.25,0,0,0,3,1.26h9.14c11.89,0,20.88-12.72,14.24-25.33"/></g></g><path d="M203.7,111.25v-16h2.52v1.58a4.59,4.59,0,0,1,3.7-1.87c3,0,5.12,2.25,5.12,6s-2.13,6.08-5.12,6.08a4.53,4.53,0,0,1-3.7-1.89v6Zm5.48-14a3.72,3.72,0,0,0-3,1.55v4.57a3.81,3.81,0,0,0,3,1.55c2,0,3.25-1.6,3.25-3.85S211.16,97.24,209.18,97.24Z"/><path d="M217.57,95.3h2.51V97a4.94,4.94,0,0,1,3.76-2v2.48a4.37,4.37,0,0,0-.79-.07,4,4,0,0,0-3,1.53v7.87h-2.51Z"/><path d="M231,95c3.47,0,5.69,2.66,5.69,6.29v.6h-8.92a3.5,3.5,0,0,0,3.68,3.18,4.9,4.9,0,0,0,3.28-1.27l1.15,1.65a6.75,6.75,0,0,1-4.69,1.68A6.07,6.07,0,0,1,231,95Zm-3.25,5.12h6.5A3.09,3.09,0,0,0,231,97.07,3.19,3.19,0,0,0,227.76,100.13Z"/><path d="M239.33,103.52a6,6,0,0,0,3.92,1.63c1.51,0,2.27-.55,2.27-1.41s-1.22-1.36-2.63-1.67c-2-.43-4.35-1-4.35-3.54,0-1.89,1.63-3.52,4.55-3.52a6.6,6.6,0,0,1,4.49,1.63l-1.05,1.77A4.68,4.68,0,0,0,243.11,97c-1.32,0-2.15.48-2.15,1.29s1.14,1.2,2.51,1.51c2,.43,4.47,1,4.47,3.73,0,2-1.7,3.59-4.81,3.59a7,7,0,0,1-4.95-1.8Z"/><path d="M255.61,95c3.47,0,5.7,2.66,5.7,6.29v.6h-8.92a3.5,3.5,0,0,0,3.68,3.18,4.89,4.89,0,0,0,3.27-1.27l1.15,1.65a6.72,6.72,0,0,1-4.68,1.68,6.07,6.07,0,0,1-.2-12.13Zm-3.25,5.12h6.51a3.09,3.09,0,0,0-3.26-3.06A3.19,3.19,0,0,0,252.36,100.13Z"/><path d="M271.59,99.63c0-1.8-.91-2.39-2.32-2.39a3.82,3.82,0,0,0-3,1.55v8.06h-2.51V95.3h2.51v1.58A5.48,5.48,0,0,1,270.37,95c2.48,0,3.73,1.34,3.73,3.71v8.13h-2.51Z"/><path d="M277.85,104.17V97.5h-1.91V95.3h1.91V92.14h2.51V95.3h2.34v2.2h-2.34v6c0,.79.38,1.36,1.1,1.36a1.68,1.68,0,0,0,1.13-.4l.59,1.88a3.29,3.29,0,0,1-2.36.75A2.67,2.67,0,0,1,277.85,104.17Z"/><line class="cls-16" x1="297.37" y1="103.46" x2="428.43" y2="103.46"/><line class="cls-16" x1="190.06" y1="103.46" x2="59" y2="103.46"/></g></g></g></svg>