<svg id="Layer_1" data-name="Layer 1" xmlns="http://www.w3.org/2000/svg" viewBox="0 0 177 21"><defs><style>.cls-1{fill:#fff;}</style></defs><path class="cls-1" d="M50.07,6.16V15h2.34a4.36,4.36,0,0,0,4.35-4.52A4.55,4.55,0,0,0,52.58,6h-.17Zm2.34-2.68a7.32,7.32,0,0,1,7.52,7.19,7.21,7.21,0,0,1-7.52,7.19h-5a.36.36,0,0,1-.33-.34V3.81a.36.36,0,0,1,.33-.33Z"/><path class="cls-1" d="M70.8,15.35a4.67,4.67,0,0,0,4.68-4.68A4.78,4.78,0,0,0,70.8,6a4.67,4.67,0,0,0-4.68,4.68A4.47,4.47,0,0,0,70.8,15.35Zm0-12.2a7.53,7.53,0,1,1-7.86,7.52A7.57,7.57,0,0,1,70.8,3.15Z"/><path class="cls-1" d="M89.53,15.35a4.81,4.81,0,0,0,4.84-4.68,4.93,4.93,0,0,0-4.68-4.85,4.82,4.82,0,0,0-4.85,4.68A4.53,4.53,0,0,0,89.53,15.35Zm0-12.2a7.53,7.53,0,1,1-7.86,7.52A7.57,7.57,0,0,1,89.53,3.15Z"/><path class="cls-1" d="M107.75,6.16h-3.18V10h3.18a2.15,2.15,0,0,0,2-1.84,2.15,2.15,0,0,0-2-2ZM101.4,3.81a.35.35,0,0,1,.33-.33h6a4.86,4.86,0,0,1,5,4.68,4.54,4.54,0,0,1-2.5,4.18l2.84,4.85c.17.17,0,.33-.17.5h-2.67c-.17,0-.34,0-.34-.17l-2.67-4.68h-2.68v4.68a.36.36,0,0,1-.33.34H101.9a.37.37,0,0,1-.34-.34Z"/><path class="cls-1" d="M121,6.32v8.86h2.34a4.34,4.34,0,0,0,4.34-4.51,4.53,4.53,0,0,0-4.18-4.51H121Zm2.34-2.84a7.32,7.32,0,0,1,7.52,7.19,7.22,7.22,0,0,1-7.52,7.19h-5a.36.36,0,0,1-.33-.34V3.81a.35.35,0,0,1,.33-.33Z"/><path class="cls-1" d="M140.18,7l-1.83,4.68h3.51Zm-2.84,7.52-1.17,3.18c0,.17-.17.34-.33.17h-2.51a.37.37,0,0,1-.34-.34v-.16l5.36-13.71c0-.17.16-.17.33-.17h2.84a.59.59,0,0,1,.34.17l5.35,13.71c.16.16,0,.33-.17.5h-2.68a.59.59,0,0,1-.33-.17l-1.17-3.18Z"/><path class="cls-1" d="M150.22,7.33c0-2.35,2-4.18,5-4.18a6.34,6.34,0,0,1,4.52,1.67.32.32,0,0,1,0,.5l-1.34,1.34a.32.32,0,0,1-.5,0,3.31,3.31,0,0,0-2.34-1c-1.17,0-2.18.67-2.18,1.51,0,2.67,7.36,1.17,7.36,6.35,0,2.51-2,4.52-5.52,4.52a6.7,6.7,0,0,1-5.18-2.18.31.31,0,0,1,0-.5L151.39,14a.32.32,0,0,1,.5,0,3.78,3.78,0,0,0,3,1.51c1.5,0,2.5-.84,2.5-1.84C157.57,11,150.22,12.51,150.22,7.33Z"/><path class="cls-1" d="M174,3.81V9.16h-6.19V3.81a.36.36,0,0,0-.33-.33H165.1a.36.36,0,0,0-.34.33V17.52a.37.37,0,0,0,.34.34h2.34a.36.36,0,0,0,.33-.34V12H174v5.51a.36.36,0,0,0,.33.34h2.34a.37.37,0,0,0,.34-.34V3.81a.36.36,0,0,0-.34-.33h-2.34C174.12,3.31,174,3.48,174,3.81Z"/><path class="cls-1" d="M34.69,5.32a9,9,0,0,0-8-4.85H1.08a.79.79,0,0,0-.83.84A1.27,1.27,0,0,0,.58,2L6.1,7.49a2.69,2.69,0,0,0,1.84.84H26a2.28,2.28,0,0,1,2.34,2.34A2.28,2.28,0,0,1,26,13H13.62a.93.93,0,0,0-1,.84,1.22,1.22,0,0,0,.33.66L18.47,20a2.69,2.69,0,0,0,1.84.84H26A10.29,10.29,0,0,0,34.69,5.32Z"/></svg>