<svg xmlns="http://www.w3.org/2000/svg" width="122" height="48" fill="none" viewBox="0 0 122 48"><g clip-path="url(#clip0)"><path fill="#0075BF" d="M21.8915 7.7271C19.6462 6.59844 16.2783 6.03411 13.7524 6.03411C11.2264 6.03411 7.8585 7.16277 7.8585 11.1131C7.8585 17.6029 24.1368 14.7812 24.1368 27.1965C24.1368 35.3793 17.6816 38.2009 10.1038 38.2009C6.17453 38.2009 4.20991 37.6366 0.561321 36.7901V30.0181C3.08727 31.429 6.73585 32.2755 9.82312 32.2755C12.6297 32.2755 16.559 30.8646 16.559 27.4787C16.2783 20.7067 0 23.5283 0 11.3952C0 3.21246 6.45519 0.108643 12.9104 0.108643C15.9977 0.108643 19.0849 0.390808 21.8915 1.51947V7.7271Z"/><path fill="#0075BF" d="M64.5519 16.7556C62.3066 15.9091 60.6227 15.6269 58.0967 15.6269C56.1321 15.6269 53.8868 16.1913 53.8868 18.4486C53.8868 22.6811 65.9552 19.8594 65.9552 29.453C65.9552 35.6607 60.342 38.2001 54.7288 38.2001C52.2028 38.2001 49.3962 37.6358 46.8703 37.0715L47.1509 31.4282C49.3962 32.5568 51.6415 33.1212 53.8868 33.1212C55.5708 33.1212 58.3774 32.5568 58.3774 30.0174C58.3774 24.9384 46.309 28.3244 46.309 18.7308C46.309 13.0875 51.3609 10.548 56.6934 10.548C60.0613 10.548 62.026 11.1123 64.2712 11.3945L64.5519 16.7556Z"/><path fill="#0075BF" d="M86.7241 17.0389C85.6015 16.4745 84.1982 16.1924 81.9529 16.1924C77.743 16.1924 74.9363 19.5784 74.9363 24.6573C74.9363 29.4541 77.1816 33.4045 82.2335 33.4045C84.1981 33.4045 86.4434 32.558 87.5661 32.2758L87.8467 37.9191C85.8821 38.4834 83.6368 38.7656 80.8302 38.7656C72.1297 38.7656 67.6392 32.8401 67.6392 24.9395C67.6392 17.321 72.1297 11.1134 80.5496 11.1134C83.3562 11.1134 85.3208 11.3956 87.2854 11.9599L86.7241 17.0389Z"/><path fill="#0075BF" d="M102.441 10.8307C110.3 10.8307 116.474 16.1918 116.474 24.9389C116.474 32.5574 111.422 38.4829 102.441 38.4829C93.7406 38.4829 88.4081 32.5574 88.4081 24.9389C88.4081 15.9097 94.5826 10.8307 102.441 10.8307ZM102.441 33.1217C107.774 33.1217 109.177 28.3249 109.177 24.0924C109.177 20.1421 106.932 16.1918 102.441 16.1918C97.9505 16.1918 95.7053 20.1421 95.7053 24.0924C95.7053 28.3249 97.1086 33.1217 102.441 33.1217Z"/><path fill="#0075BF" d="M47.4316 10.8307H40.4151L27.224 47.23H33.6792L47.4316 10.8307Z"/><path fill="#5F9E43" d="M18.8042 10.2658C21.6108 13.3696 24.6981 17.0378 26.9433 21.2702C28.908 25.2205 29.7499 28.8887 30.5919 32.5568C30.5919 32.5568 30.5919 32.5568 30.8726 32.5568C33.3985 28.0422 35.0825 22.1167 32.5566 17.6021C29.75 12.8053 24.1367 10.548 18.8042 10.2658C18.5235 10.2658 18.5235 9.98362 18.8042 10.2658Z"/></g><defs><clipPath id="clip0"><rect width="121.245" height="47.122" fill="#fff" transform="translate(0 0.108643)"/></clipPath></defs></svg>