<svg xmlns="http://www.w3.org/2000/svg" viewBox="0 0 527.04 650"><defs><style>.cls-1{isolation:isolate;}.cls-2{fill:#b68400;}.cls-3{fill:#fff;}.cls-16,.cls-4{fill:none;}.cls-5{fill:#edb458;}.cls-6{fill:#7f5b49;}.cls-7{fill:#d19d50;}.cls-8{fill:#4197cb;stroke-width:25.53px;}.cls-11,.cls-8{stroke:#fff;}.cls-16,.cls-8{stroke-miterlimit:10;}.cls-10,.cls-9{fill:#009ade;}.cls-10{mix-blend-mode:multiply;opacity:0.3;}.cls-11{stroke-linecap:round;stroke-linejoin:round;stroke-width:20.31px;}.cls-12{fill:#0075bf;}.cls-13{fill:#5f9e43;}.cls-14{fill:#ff141e;}.cls-15{fill:#ff3008;}.cls-16{stroke:#000;}</style></defs><g class="cls-1"><g id="Layer_2" data-name="Layer 2"><g id="logo_fr" data-name="logo fr"><path class="cls-2" d="M407,300.75c4.06,0,25,7.14,39.17,9,6.71.9,11.79,2.38,20.29,10,4.58,4.1-58.58,6.4-58.58,6.4Z"/><path class="cls-2" d="M73.63,305.74c-4.4,0-18.48,4.37-21,6.91s-7.07,7.61-7.7,10.15,26.42,2.53,26.42,2.53Z"/><path class="cls-2" d="M87.55,323.12c26-2.86,52.86-38.08,75.51-21.9,34.66,24.77,13.21,30.47,13.21,30.47l-88.72-8.57"/><path class="cls-3" d="M249.93,305.77c2.66,2.23-7.16,5.9-3.26,7.88s5.54-.66,8.14-.34,4.23,5.25,9.11,3.29,8.58-3.28,5.87-8.21c-3.26-5.91-8.77-.25-11.07-4.27C255.14,297.89,244.07,300.84,249.93,305.77Z"/><polygon class="cls-4" points="209.05 371.4 209.93 372.05 210.16 371.81 209.05 371.4"/><polygon class="cls-5" points="290.66 174.69 284.27 152.92 243.51 159.2 254.78 181.85 290.66 174.69"/><path class="cls-5" d="M233.83,206.41,242.29,196l5.48,1.35,2.83-13.13L241,164.86l-8,40.78Z"/><polygon class="cls-5" points="213.47 356.13 213.91 354.1 213.21 353.83 213.47 356.13"/><polygon class="cls-5" points="211.11 367.06 211.67 364.47 205.81 365.08 211.11 367.06"/><polygon class="cls-5" points="203.04 137.09 162.18 128.61 158.84 149.49 195.03 158.55 203.04 137.09"/><path class="cls-5" d="M215.55,206.94c2.61.11,5.27.6,6.91-1.36a7.9,7.9,0,0,1,3.71-2.74l-19.89-60.08-6.83,18.31Z"/><polygon class="cls-5" points="403.44 152.15 386.83 144.03 360.85 158.74 377.69 170.43 403.44 152.15"/><polygon class="cls-5" points="403.35 259.27 416.53 212.93 406.74 154.93 380.56 175.02 403.35 259.27"/><polygon class="cls-5" points="471.94 204.14 467.76 183.78 428.55 191.29 437.28 212.3 471.94 204.14"/><path class="cls-5" d="M417.63,265.47l15.49-50.8-7.45-17.93-18.55,65.11a22.36,22.36,0,0,0,8.39,3.2C416.26,265.16,416.94,265.31,417.63,265.47Z"/><path class="cls-3" d="M398.69,400.81l6.05-14.94L527,283.73l-20.86-51.27-34.42,7.76-5.24,5.56a21,21,0,0,0-3.73-3.17l14.28-35.25-5.63-28.71-47.76,9.1-4.51,15.86-8.69-51.54-24.77-12.35-31.48,17.15,16.47,56.31-6.25,1.27c.95-6.53.2-10.69-4.46-14.45-2.61-2.1-4.95-4.59-7.59-6l1.43-18.66L334,160,300.84,176.2l.84,31.35a9.23,9.23,0,0,0-6.77,5.2,10.78,10.78,0,0,0-1.17,3.93c2.73-.06,5.51-.07,8.19.06l.41,15.22c-1.55-.73-3.3-.59-5.82,2.16-2.68,2.91-8.25-.21-10.17,4s3,5,4.17,7.55a3.61,3.61,0,0,1,.26,1.32l-7.15,4.2-6.8-32-3.33-15.62-21.22-5.22,2.55-11.81,36.38-7.25-12.47,39.13a27.24,27.24,0,0,1,5.34-1.51l12.31-38.65-8.72-30.68L238,155.25l-8.52,43.68-21.61-65.38-49.76-10.29-4.43,29.45,10.44,23.2-1-.32-15.49,15.95,1.67,7.63c-3.58.37-6.78,1.54-8.74,5.49-1.54,3.1-1.48,5.45-.61,7.41l-9,4.24,15.28-38-12.11-17.16-31.22,6.1L87.18,221.38l-18.1-27.12-25,.4-16,33.44,20.56,24.79-9.22-6.81L6.67,244.63,0,297.76l55.72,32.07-2.24,7.72,20.24,4.65,30.2,159,35.71-2.89-7-92.76,9.43,58.09,43.14,2.57-2.05-49.8,15.69,18.06,40.87-34.27,14.93,37.13,26.81,1.8,11.84,26.57-8.41,20.8L319,505.42l47.57-87.64,23.76-19.84Zm-2.2-5.75-1.95-.66,3.35-2.81ZM503,238.46l17.09,42.12L492,281.71l-13.48-37.93Zm-29.33,7.24,13.67,38.46-91.61,79.78,30.68-56.52-.92-10.58L443.29,278c.47.93,1.39,1.42,3.12,1.18,6.59-.92,6.08-7.26,11.84-8.18s9.85.43,11.5-7.84c1.26-6.36,1.85-10.3.2-13.45Zm-91.2,59-7.13-25,43.61-.28,2.24,23.39Zm-7.74,75.12-8.32,12.95-173.23-72,1.21-38Zm-52.45,76.77L314,459.18l-26.54-76.29,12.24,4.79Zm-8.88-40.78-.39-1.2,4.41-20,3.94,1.54Zm-3.11-9.48-5.45-16.65,8.4,3.29ZM315.79,423,325.94,398l10.86,4.26-15.75,36.84ZM168.2,330.9l21.6-6.26,174,72.3-5.46,8.49Zm14.15,66.2-.5-12.23,10.08,6.07-7.19,7.53Zm-.74-18-.93-22.65,25.91,19.13-11.24,11.79Zm13.93-32.15-10.2,4.31-5.05-4.54-.17-4.06,2.09-.93Zm14,5.46.93,8.14-7.17.76-1.54-11.7.31-.13Zm-9.72,9.27-3.43.36-8.76-6.47L198.36,351Zm13.7-5.52-.26-2.3.7.27Zm-1.8,8.34-.56,2.59-5.3-2Zm-2.62,6.93,1.11.41-.23.24Zm9.23-15.58,4.21,1.65.4,1-6.69,7ZM189.89,260l-7.12-54,8.51-13.44,7.58,66.49c2.93-.12,5.83-.1,8.67.06l-1.61,10.58L214,287.87l-15.59-8.38a10.29,10.29,0,0,0,.06-2.53c-.67-6.19-6.76-15.82-16.89-7.8a4.8,4.8,0,0,1-4.44,1l-.25-6a56.22,56.22,0,0,1,9.59-3.51C187.61,260.37,188.76,260.21,189.89,260Zm71.31-34.14,2.39,10.32c-3.68-1.89-7.95-1.63-14.31,4.78a11,11,0,0,1-7,3l-9.51-29.57Zm17.07,96.56L263.7,314.6l-12.43-35.72,6.8-18ZM220,291.11l-8.91-20,36.37,9.8,10.68,30.71ZM214.35,246l40.51,9.18-8,21.1L211,266.64Zm20.81-13.26,3.66,11.36c-3.17.05-6.37,0-9.12.89l-19.36-4.37-2.5,16.44-6-3.38-1.35-11.94Zm-64.94,60.66,19.33-9.51L187,320.22l-22.66,7.23Zm150.4-9,1.35-21,21.44,10c-.82,5.9,5.18,8.6,8.67,12.36l1,10ZM336.06,230l9.16,18.24-4.12,18.68-11.35-5.5Zm44.12,25.16c-2.87-.08-6.23,1.42-10.56,5.79-6.49,6.54-18.89-.58-24.36,7.71l4-18.27,35.26-8.86Zm-26.25,49.26c.47,1.41,1.53,2.3,3.6,2.36l-19.35,47.87L327.55,349l6.06-27.47ZM342.52,357l29.1-71.87,6.08,21.36L353.57,363ZM467.76,183.77l4.18,20.37-34.66,8.16-8.73-21Zm-51.23,29.15-13.18,46.35L380.56,175l26.18-20.09ZM386.83,144l16.61,8.12-25.75,18.28-16.84-11.69Zm-26.29,19.26,15.63,11.47,22,81.24c3,1.73,5.84,4,9,5.85l18.55-65.11,7.45,17.93-15.49,50.8a23.55,23.55,0,0,1,4.06,1.3l15.23-50,35.14-8.27-13.61,33.6a13,13,0,0,0-5.1,3.89c-4.43,4.94-13.1-.93-16.4,6.42s4.53,8.95,6.18,13.54a10.52,10.52,0,0,1,.26,4.34l-7.63,8.1-10.83,11.5-1.35-15.44-27.15.15c.46-5.33-.57-9-4.7-12.32-2.52-2-4.8-4.43-7.34-5.88l.78-2.41c.59-.15,1.18-.3,1.74-.39l-.77-2.65,3.43-10.7L381.35,211l-6.5,1.33Zm17.49,53,6,20.78-34.77,8.74-10.74-21.38Zm-31.39,1.84-13.38,2.74-7.72,38.56-4.27-2.07L320.76,198l28.94-19.83ZM334,164.76l13.37,10.12-28.12,17.88-12.72-14Zm-28.83,18.91,11.64,13.69.54,62.05-9.91,10.4Zm-18.19,99.8a16.26,16.26,0,0,1,4.16,2.8l-6.36-29.88,18-10.57.76,28.12-12.06,12.64a35.19,35.19,0,0,1,3,3.29l23-24.13-1.86,19.86L302.32,299a21.27,21.27,0,0,0,3.59,2.58l12-12.1,34.46,10.64-20.71,17.37a21.07,21.07,0,0,1,.81,7.22c-.12,2.25-2.1,4-5.31,5.45l-3.67,16.61-9.8-5.27.8-4,6.38-5.35a84.51,84.51,0,0,1-8.53,1.51L307.18,338l-6.06-3.26-17.31-9.31-13.14-40.08L267,274.13a8.54,8.54,0,0,0,4.68-3.06l2.8,12.1a16.63,16.63,0,0,1,3.34-.77L274,266c.12-.43.24-.86.35-1.33,2.52-11.43,3.34-17.22-3-22.29-1.24-1-2.41-2.08-3.59-3.1l-3.38-14.61,7-13.83Zm-17.67-76.61-7.84,14.3-27.33-10L243.27,200Zm15-53.94,6.38,21.77-35.88,7.16L243.51,159.2ZM241,164.86l9.61,19.32-2.83,13.13L242.29,196l-8.46,10.45-.81-.77Zm-14.82,38a7.9,7.9,0,0,0-3.71,2.74c-1.64,2-4.3,1.47-6.91,1.36l-16.1-45.87,6.83-18.31Zm-64-74.23L203,137.09l-8,21.46-36.19-9.06ZM158.93,154l36.69,9.18,15.62,44.51a6.52,6.52,0,0,0-2.74,4.11c-1.17,4.06,2.67,6.9,2.31,9.93a5.39,5.39,0,0,1-1.1,2.31c-1.83,2.54-5.33,5.71-5.85,11a7.12,7.12,0,0,0,0,.8l-3.94,1-2.11-18.54-3.73-32.85-24.53-7.87Zm4.8,25.74,25.75,8.72-9.41,13.86-26.79-12Zm-12.12,13.72,27.75,13.62,6.4,48.46a10.59,10.59,0,0,0-1.26-.46c-3.72-1-2-7.53-8.26-7l-.55-13.41-21.33-29.36-.14.07Zm1.16,18.43,15.34,20.78-35.77,18.84-20.93-20.14Zm-26.18,6.45-18.87,8.86a17.27,17.27,0,0,0-4.84-3.71l10.45-33.78,28.79-10Zm6.27-53.27,8.19,11.37-27.59,8.59-6.64-14.46Zm-28.46,9.28,5.86,14-10.84,35A8.42,8.42,0,0,0,96,226c-1.17,1.41-2.88,1.54-4.72,1.47l-1.61-2.41ZM86.59,227.53c-1.93.34-3.62,1.48-4.56,4.75-1.17,4.06,2.68,6.92,2.31,9.93s-6.25,6.32-6.94,13.35a11.35,11.35,0,0,0,.06,2.67L57.09,232.72l10.5-33.66ZM47,198.4,63.71,198l-11,31.62-18.6-3ZM36,231.28l17.55,3.45L80.14,268c4.33-5.25,9.11-10.47,16.38-12.42a39.6,39.6,0,0,1,11.56-1.28l3.16,19.49-5.95-7.66L85,279.76l-9.09-6.71L62.29,263Zm52.65,79.28-18-15.7,33.48-22.62,13.39,16.94Zm-7.9-27.95-16.29,11,3.2,16.87-18.19-11c-.32-3.81-4.93-5.9-4.24-9.69.78-4.27,3.15-6.52-4-10.82-1.62-1-3-1.83-4.36-2.55l2-24.73ZM10.9,249.87l23.29.82-1.92,23.6a9.85,9.85,0,0,0-6.27-.2c-4.52,1.38-10.32,1.43-4.95,9.44,1.89,2.83.11,5.23-.64,7.73L5.47,293.51ZM10.32,298l11.17-1.68a10.82,10.82,0,0,0,.83.83c5.81,5.06,9.47.37,14.13,1a12.2,12.2,0,0,1,3.2,1.08L68.9,316.85l3.18,16.71Zm47.56,36.49.84-2.91,6.15,3.54-.28.91Zm49.61,161.71L70.52,301l15.33,13.39,30.73,181.06Zm13.53-1.1L90.43,314.82l29.29-21.66L134.89,494Zm25.55-36.39L127.93,343.41l-4-53.35-5.81-7.48-7.19-44.47,17.86,17.19,28.8,204.05Zm33.11,2-16.76-1L134.25,256.51l36.27-19.11,1.21,29.4c-4.31-3.65-8.54-8.06-12.82-2.37-2.87,3.8-11.39-2.59-12.85,5.64-.67,3.79,3.38,6.5,3.37,9.32s-5.35,5.82-5.22,12.39,7,13.19,13.09,13.13a11.83,11.83,0,0,0,6-1.52l-5.43,28.79,16.79,6.57,2.76,67.38-1.69,1.78L177.6,410Zm2.2-52.86,46-48.23,10.35,4.05-50.5,50.95Zm17.71,20.4-9-10.32,52.06-52.52,7.11,2.78,5.83,13.07Zm60.71,5.25-15.17-37.8,12.27-10.29,18.07,49.11Zm-5-63.15,26.93,10.54,27.68,79.58-12.7,3.9ZM291.05,484.1l5.88-14.52,12.75-3.91-9.94,23.25Zm26.17,14.52L304,491.27l11.74-27.46,12.22-3.75L323.32,446l18-42,18.93,7.41L381.64,378l-23.8-12.8,23.76-55.59,39.25-2Zm56-93.24L388.69,377l103.43-90.06,24-1Z"/><polygon class="cls-5" points="520.13 280.58 503.04 238.46 478.51 243.78 491.99 281.71 520.13 280.58"/><path class="cls-5" d="M469.75,263.14c-1.65,8.27-5.74,6.92-11.5,7.84s-5.25,7.26-11.84,8.18c-1.73.24-2.65-.25-3.12-1.18l-17.76,18.86.92,10.58-30.68,56.52,91.61-79.78L473.71,245.7l-3.76,4C471.6,252.84,471,256.78,469.75,263.14Z"/><polygon class="cls-5" points="141.05 176.46 132.86 165.09 106.81 170.59 113.46 185.05 141.05 176.46"/><path class="cls-5" d="M102.88,223.51a17.27,17.27,0,0,1,4.84,3.71l18.87-8.86,15.53-38.65-28.79,10Z"/><polygon class="cls-5" points="63.71 197.97 47 198.4 34.07 226.57 52.66 229.59 63.71 197.97"/><path class="cls-5" d="M77.46,258.23a11.35,11.35,0,0,1-.06-2.67c.69-7,6.58-10.32,6.94-13.35s-3.48-5.87-2.31-9.93c.94-3.27,2.63-4.41,4.56-4.75l-19-28.47-10.5,33.66Z"/><path class="cls-5" d="M200.49,241.77l1.35,11.94,6,3.38,2.5-16.44L229.7,245c2.75-.92,6-.84,9.12-.89l-3.66-11.36Z"/><polygon class="cls-5" points="180.07 202.34 189.48 188.48 163.73 179.76 153.28 190.31 180.07 202.34"/><polygon class="cls-5" points="196.34 362.01 199.77 361.65 198.36 350.99 187.58 355.54 196.34 362.01"/><path class="cls-5" d="M154.36,205.31l21.33,29.36.55,13.41c6.23-.51,4.54,6,8.26,7a10.59,10.59,0,0,1,1.26.46l-6.4-48.46-27.75-13.62,2.61,11.9Z"/><path class="cls-5" d="M303.47,273.94l-.76-28.12-18,10.57,6.36,29.88.31.31Z"/><polygon class="cls-5" points="347.33 174.88 333.96 164.76 306.49 178.75 319.21 192.76 347.33 174.88"/><polygon class="cls-5" points="321.27 257.34 325.54 259.41 333.26 220.85 346.64 218.11 349.7 178.16 320.75 197.99 321.27 257.34"/><polygon class="cls-5" points="243.27 200.03 234.1 211.13 261.43 221.16 269.27 206.86 243.27 200.03"/><path class="cls-5" d="M232.77,214.36l9.51,29.57a11,11,0,0,0,7-3c6.36-6.41,10.63-6.67,14.31-4.78l-2.39-10.32Z"/><path class="cls-5" d="M271.68,271.07a8.54,8.54,0,0,1-4.68,3.06l3.67,11.21a12.09,12.09,0,0,1,3.81-2.17Z"/><path class="cls-5" d="M21.05,283.53c-5.37-8,.43-8.06,4.95-9.44a9.85,9.85,0,0,1,6.27.2l1.92-23.6-23.29-.82L5.47,293.51l14.94-2.25C21.16,288.76,22.94,286.36,21.05,283.53Z"/><polygon class="cls-5" points="180.68 356.42 181.61 379.07 195.35 387.34 206.59 375.56 180.68 356.42"/><path class="cls-5" d="M41.3,279c7.11,4.3,4.74,6.55,4,10.82-.69,3.79,3.92,5.88,4.24,9.69l18.19,11-3.2-16.87,16.29-11L39,251.71l-2,24.73C38.25,277.16,39.68,278,41.3,279Z"/><polygon class="cls-5" points="111.41 231.39 132.34 251.53 168.11 232.69 152.76 211.91 111.41 231.39"/><path class="cls-5" d="M177.44,406.13l-2.76-67.38-16.79-6.57,5.43-28.79a11.83,11.83,0,0,1-6,1.52c-6.06.06-13-6.57-13.09-13.13s5.22-9.56,5.22-12.39-4-5.53-3.37-9.32c1.46-8.23,10-1.84,12.85-5.64,4.28-5.69,8.51-1.28,12.82,2.37l-1.21-29.4-36.27,19.11,28.67,203.16,16.76,1L177.6,410l-1.85-2.13Z"/><polygon class="cls-5" points="104.19 272.24 70.71 294.86 88.68 310.56 117.58 289.18 104.19 272.24"/><polygon class="cls-5" points="119.72 293.16 90.43 314.82 121.02 495.08 134.89 493.96 119.72 293.16"/><polygon class="cls-5" points="338.54 224.41 349.28 245.79 384.05 237.05 378.03 216.27 338.54 224.41"/><polygon class="cls-5" points="310.33 406.36 313.28 393 304.88 389.71 310.33 406.36"/><polygon class="cls-5" points="329.75 261.44 341.1 266.94 345.22 248.26 336.06 230.02 329.75 261.44"/><path class="cls-5" d="M320.86,332.16l-6.38,5.35-.8,4,9.8,5.27,3.67-16.61A35.61,35.61,0,0,1,320.86,332.16Z"/><path class="cls-5" d="M353.1,295.71l-1-10c-3.49-3.76-9.49-6.46-8.67-12.36l-21.44-10-1.35,21Z"/><polygon class="cls-5" points="255.62 381.23 249.79 368.15 242.68 365.37 190.62 417.89 199.59 428.21 255.62 381.23"/><path class="cls-5" d="M301.12,334.73l6.06,3.26,5.15-4.32C308.79,334.14,305,334.48,301.12,334.73Z"/><path class="cls-5" d="M309.34,303.13c5.46,1.77,18.88,3,22.31,14.35l20.71-17.37L317.9,289.47l-12,12.1A18.2,18.2,0,0,0,309.34,303.13Z"/><path class="cls-6" d="M197.83,218.37l2.11,18.54,3.94-1a7.12,7.12,0,0,1,0-.8c.52-5.32,4-8.49,5.85-11-1-.74-2.05-1.46-3.08-2.15A30.4,30.4,0,0,0,197.83,218.37Z"/><path class="cls-6" d="M386.91,253.64c-.56.09-1.15.24-1.74.39l-.78,2.41c2.54,1.45,4.82,3.84,7.34,5.88,4.13,3.32,5.16,7,4.7,12.32l27.15-.15,1.35,15.44,10.83-11.5c-4.3-4.63-8.11-9.14-14.07-11.66a23.55,23.55,0,0,0-4.06-1.3c-.69-.16-1.37-.31-2.12-.42a22.36,22.36,0,0,1-8.39-3.2c-3.12-1.87-5.94-4.12-9-5.85A16.59,16.59,0,0,0,386.91,253.64Z"/><path class="cls-6" d="M276.83,219.26l6.8,32,7.15-4.2a3.61,3.61,0,0,0-.26-1.32c-1.13-2.57-6.07-3.29-4.17-7.55s7.49-1.12,10.17-4c2.52-2.75,4.27-2.89,5.82-2.16l-.41-15.22c-2.68-.13-5.46-.12-8.19-.06s-5.44.15-7.84.15a12,12,0,0,0-1.82.15,27.24,27.24,0,0,0-5.34,1.51C278.11,218.73,277.48,219,276.83,219.26Z"/><path class="cls-6" d="M176.9,264.12l.25,6a4.8,4.8,0,0,0,4.44-1c10.13-8,16.22,1.61,16.89,7.8a10.29,10.29,0,0,1-.06,2.53L214,287.87l-8.09-18.14,1.61-10.58c-2.84-.16-5.74-.18-8.67-.06a75.12,75.12,0,0,0-9,.93c-1.13.19-2.28.35-3.4.59A56.22,56.22,0,0,0,176.9,264.12Z"/><path class="cls-6" d="M85,279.76l20.28-13.67,5.95,7.66-3.16-19.49a39.6,39.6,0,0,0-11.56,1.28c-7.27,2-12,7.17-16.38,12.42-1.43,1.73-2.81,3.47-4.22,5.09Z"/><path class="cls-6" d="M281,282.19a25.55,25.55,0,0,0-3.21.21,16.63,16.63,0,0,0-3.34.77,12.09,12.09,0,0,0-3.81,2.17l13.14,40.08,17.31,9.31c3.87-.25,7.67-.59,11.21-1.06a84.51,84.51,0,0,0,8.53-1.51,35.61,35.61,0,0,0,6.29-2c3.21-1.42,5.19-3.2,5.31-5.45a21.07,21.07,0,0,0-.81-7.22c-3.43-11.38-16.85-12.58-22.31-14.35a18.2,18.2,0,0,1-3.43-1.56,21.27,21.27,0,0,1-3.59-2.58c-3.07-2.72-5.43-6.09-7.9-9.12a35.19,35.19,0,0,0-3-3.29l-.31-.31a16.26,16.26,0,0,0-4.16-2.8A13.79,13.79,0,0,0,281,282.19Z"/><polygon class="cls-5" points="418.99 279.41 375.38 279.69 382.51 304.73 421.23 302.8 418.99 279.41"/><polygon class="cls-5" points="371.62 285.13 342.52 357 353.57 362.95 377.7 306.49 371.62 285.13"/><polygon class="cls-5" points="296.93 469.58 291.05 484.1 299.74 488.92 309.68 465.67 296.93 469.58"/><polygon class="cls-5" points="336.8 402.2 325.94 397.95 315.79 423.01 321.05 439.05 336.8 402.2"/><polygon class="cls-5" points="211.02 266.64 246.9 276.31 254.86 255.21 214.35 246.03 211.02 266.64"/><polygon class="cls-5" points="258.07 260.89 251.27 278.88 263.7 314.61 278.27 322.44 258.07 260.89"/><polygon class="cls-5" points="299.69 387.68 287.45 382.89 313.99 459.18 322.31 456.62 299.69 387.68"/><polygon class="cls-5" points="164.38 327.45 187.04 320.22 189.55 283.92 170.22 293.43 164.38 327.45"/><path class="cls-7" d="M291.21,179.36l-36.38,7.25-2.55,11.81,21.22,5.22,3.33,15.62c.65-.28,1.28-.53,1.91-.77Z"/><polygon class="cls-7" points="222.49 357.46 218.28 355.82 216.2 365.48 222.89 358.45 222.49 357.46"/><path class="cls-7" d="M197.83,218.37a30.4,30.4,0,0,1,8.8,3.54c1,.69,2.06,1.41,3.08,2.15a5.39,5.39,0,0,0,1.1-2.31c.36-3-3.48-5.87-2.31-9.93a6.52,6.52,0,0,1,2.74-4.11L195.62,163.2,158.93,154l10.64,23.63,24.53,7.87Z"/><path class="cls-7" d="M389.57,240.29,386.14,251l.77,2.65A16.59,16.59,0,0,1,398.16,256l-22-81.24-15.63-11.47,14.31,49,6.5-1.33Z"/><polygon class="cls-7" points="396.49 395.06 397.89 391.59 394.54 394.4 396.49 395.06"/><path class="cls-7" d="M435.76,278.43l7.63-8.1a10.52,10.52,0,0,0-.26-4.34c-1.65-4.59-9.47-6.19-6.18-13.54s12-1.48,16.4-6.42a13,13,0,0,1,5.1-3.89l13.61-33.6-35.14,8.27-15.23,50C427.65,269.29,431.46,273.8,435.76,278.43Z"/><polygon class="cls-7" points="516.13 285.94 492.12 286.91 388.69 376.97 373.27 405.38 516.13 285.94"/><path class="cls-7" d="M96,226a8.42,8.42,0,0,1,3.43-2.67l10.84-35-5.86-14L89.66,225.1l1.61,2.41C93.11,227.58,94.82,227.45,96,226Z"/><polygon class="cls-7" points="58.72 331.56 57.88 334.47 64.59 336.01 64.87 335.1 58.72 331.56"/><path class="cls-7" d="M75.92,273.05c1.41-1.62,2.79-3.36,4.22-5.09L53.58,234.73,36,231.28,62.29,263Z"/><polygon class="cls-7" points="245.13 395.66 260.3 433.46 275.47 434.48 257.4 385.37 245.13 395.66"/><polygon class="cls-7" points="203.25 361.28 210.42 360.52 209.49 352.38 202.02 349.45 201.71 349.58 203.25 361.28"/><path class="cls-7" d="M198.86,259.09l-7.58-66.49L182.77,206l7.12,54A75.12,75.12,0,0,1,198.86,259.09Z"/><polygon class="cls-7" points="180.12 342.63 180.28 346.69 185.34 351.23 195.54 346.92 182.21 341.69 180.12 342.63"/><polygon class="cls-7" points="307.4 269.81 317.31 259.41 316.77 197.36 305.13 183.67 307.4 269.81"/><path class="cls-7" d="M267.81,239.23c1.18,1,2.35,2.11,3.59,3.1,6.29,5.07,5.47,10.86,3,22.29-.11.47-.23.9-.35,1.33l3.82,16.45a25.55,25.55,0,0,1,3.21-.21,13.79,13.79,0,0,1,5.91,1.28l-15.51-72.68-7,13.83Z"/><polygon class="cls-7" points="181.85 384.87 182.35 397.1 184.74 398.48 191.93 390.94 181.85 384.87"/><path class="cls-7" d="M72.08,333.56,68.9,316.85,39.65,299.23a12.2,12.2,0,0,0-3.2-1.08c-4.66-.65-8.32,4-14.13-1a10.82,10.82,0,0,1-.83-.83L10.32,298Z"/><polygon class="cls-7" points="128.76 255.3 110.9 238.11 118.09 282.58 123.9 290.06 127.93 343.41 146.57 458.69 157.56 459.35 128.76 255.3"/><polygon class="cls-7" points="85.85 314.39 70.52 301 107.49 496.18 116.58 495.45 85.85 314.39"/><polygon class="cls-7" points="313.05 414.64 313.44 415.84 321.39 396.18 317.46 394.64 313.05 414.64"/><path class="cls-7" d="M349.29,250.41l-4,18.27c5.47-8.29,17.87-1.17,24.36-7.71,4.33-4.37,7.69-5.87,10.56-5.79l4.37-13.63Z"/><path class="cls-7" d="M333.61,321.48,327.55,349l10.63,5.72,19.35-47.87c-2.07-.06-3.13-.95-3.6-2.36Z"/><path class="cls-7" d="M302.32,299l13.27-13.39,1.86-19.86-23,24.13C296.89,292.9,299.25,296.27,302.32,299Z"/><polygon class="cls-7" points="238.25 363.63 227.9 359.58 181.88 407.81 187.75 414.58 238.25 363.63"/><polygon class="cls-7" points="420.85 307.69 381.6 309.65 357.84 365.24 381.64 378.04 360.22 411.38 341.29 403.96 323.32 445.99 327.93 460.06 315.71 463.81 303.97 491.27 317.22 498.62 420.85 307.69"/><polygon class="cls-7" points="247.48 280.92 211.11 271.12 220.01 291.11 258.16 311.63 247.48 280.92"/><polygon class="cls-7" points="309.93 460.43 282.25 380.85 255.32 370.31 297.23 464.33 309.93 460.43"/><polygon class="cls-7" points="358.34 405.43 363.8 396.94 189.8 324.64 168.2 330.9 358.34 405.43"/><polygon class="cls-7" points="194.43 282.85 193.22 320.81 366.45 392.8 374.77 379.85 194.43 282.85"/><path class="cls-8" d="M392.15,325c-50.84-.91-109.19-1.41-140.55-1.42h-1c-31.41,0-89.78.51-140.56,1.42-44,.8-89.7,1.89-95.71,3.9-.51.62-2.84,4.42.1,20.29H15a6.63,6.63,0,0,1,6.53,5.67l36.17,210a6.58,6.58,0,0,0,6.53,5.66H438a6.59,6.59,0,0,0,6.54-5.66l36.16-210a6.63,6.63,0,0,1,6.53-5.67h.59c2.94-15.88.6-19.67.09-20.29C481.86,326.92,436.21,325.83,392.15,325Z"/><path class="cls-9" d="M392.15,325c-50.84-.91-109.19-1.41-140.55-1.42h-1c-31.41,0-89.78.51-140.56,1.42-44,.8-89.7,1.89-95.71,3.9-.51.62-2.84,4.42.1,20.29H15a6.63,6.63,0,0,1,6.53,5.67l36.17,210a6.58,6.58,0,0,0,6.53,5.66H438a6.59,6.59,0,0,0,6.54-5.66l36.16-210a6.63,6.63,0,0,1,6.53-5.67h.59c2.94-15.88.6-19.67.09-20.29C481.86,326.92,436.21,325.83,392.15,325Z"/><path class="cls-10" d="M253.46,348.17h-4.71c-80.76.22-159.33,1.93-213.3,4.45,0,0,22.66,140.87,77.39,162.76C139.11,525.89,195.6,530,251.11,529.5c55.5.53,112-3.61,138.26-14.12,54.74-21.89,77.39-162.76,77.39-162.76C412.79,350.1,334.23,348.39,253.46,348.17Z"/><path class="cls-11" d="M143.45,395.45c7.24,1.62,14.56,9.06,23.41,9.06a14.76,14.76,0,0,0,5.85-1.12c-.69,6.75-3.48,11-7.24,11-10,0-18.75-16-31.08-16a12.24,12.24,0,0,0-1.6.07l10.38-48.69c-6.06,2.53-9.75,7.8-9.75,15.32a9.85,9.85,0,0,0,1,4.77c-4.81,0-7.45-1.75-7.45-6.81,0-9.35,12.81-18.28,24.45-18.28,1,0,1.88.08,2.79.15Z"/><path class="cls-11" d="M186.37,361.72l-5,23.89a9.86,9.86,0,0,0-.28,2.25c0,2,.91,2.6,2.86,2.6a3.49,3.49,0,0,0,1.53-.28c-1.87,4.92-3.2,7.1-7,7.1s-6.27-2.46-6.83-6.54c-2.09,3.24-5.44,6.54-10.38,6.54-4.74,0-9.27-3-9.27-11.32,0-9.48,5.78-24.59,17.91-24.59,4,0,5.64,1.55,5.64,3.59v.48l.77-3.72Zm-24,23.26c0,5.41,2.23,5.48,3.48,5.48,2,0,4.95-2.11,5.79-6.19l3.34-15.87a2.72,2.72,0,0,0-2.86-2.67C166.16,365.73,162.33,378.37,162.33,385Z"/><path class="cls-11" d="M75.16,383.65,62.82,442.16c17.55-1.4,30.4-24.35,30.4-43.09,0-13-6.26-23.84-21.54-23.84-28.14,0-45,15.94-45,42.58,0,8.93,2.26,10.33,2.43,11.9-12,0-18.59-4.37-18.59-17,0-23.29,32-45.54,61-45.54,28.48,0,41,16.47,41,34.5,0,22.25-18.93,47-50.2,47h-.87l-10.6,49.92h-25L49.44,387.15Z"/><path class="cls-11" d="M160,440.28a3.78,3.78,0,0,0,1.82.34c7.59,0,18.33-5,25.43-10l1.49,4.5c-6.28,6.83-17.18,11.82-29.24,13.82-2.64,30.82-19.15,50.13-39.46,50.13-15.37,0-26.43-7.33-26.43-26.31,0-19.16,11.23-59.12,45.25-59.12C153,413.64,160,422.8,160,440.28Zm-14.2,9.17c-3.47-.84-4.46-3.67-4.46-7,0-4.66,2.14-7.65,5.12-9-.33-7-2-9.66-6.27-9.66-11.73,0-22,30.47-22,46.8,0,11,2.14,13.49,8.42,13.49C134.69,484.09,143.12,469.09,145.76,449.45Z"/><path class="cls-11" d="M244.19,415.13,232.3,471.76a23.07,23.07,0,0,0-.66,5.33c0,4.67,2.15,6.16,6.77,6.16,6.44,0,10.9-6.32,13.37-14.65h6.94c-9.41,27.14-24.28,30.81-33.19,30.81-9.42,0-15.36-5.5-16.35-15.83-8.26,13.66-17.51,15.83-24.44,15.83-9.91,0-17.68-6-17.68-20a54.74,54.74,0,0,1,1.33-10.82l11.22-53.47h23.78l-11.88,56.63a23.65,23.65,0,0,0-.5,4.66c0,3.84,1.32,6.83,5,6.83,6.44,0,10.74-6.32,13.22-14.65l11.23-53.47Z"/><path class="cls-11" d="M292.41,388.82l-5.62,26.31h9.91l-1.32,6.67h-9.91l-10.56,50a22.62,22.62,0,0,0-.67,5.33c0,4.67,2.15,6.16,6.77,6.16,6.45,0,12.39-6.32,14.87-14.65h6.93c-9.41,27.14-25.76,30.81-34.68,30.81-9.91,0-17.67-6-17.67-20a54.67,54.67,0,0,1,1.32-10.82l9.92-46.8h-5.46l1.32-6.67H263l5-23Z"/><path class="cls-11" d="M330.89,415.13,319,471.76a23.64,23.64,0,0,0-.66,5.33c0,4.67,2.15,6.16,6.78,6.16,6.44,0,12.38-6.32,14.86-14.65h6.93c-9.41,27.14-25.76,30.81-34.67,30.81-9.91,0-17.68-6-17.68-20a54.74,54.74,0,0,1,1.33-10.82l11.23-53.47Zm-7.43-35.48A13.31,13.31,0,0,1,336.67,393a13.17,13.17,0,0,1-13.21,13.16,13,13,0,0,1-13-13.16A13.17,13.17,0,0,1,323.46,379.65Z"/><path class="cls-11" d="M381.58,429.62c-5.94,0-10.4,7-12.88,15.32l-11.23,53.47H333.69l17.51-83.28H375l-1.82,8.67c6.93-8,14.2-9.33,19.32-9.33,10.57,0,18.34,5.49,18.34,18.81,0,13.5-7.93,33.65-7.93,43,0,4.16,1.65,7,6.6,7,7.26,0,10.24-6,13.87-14.65h6.94c-9.25,27.31-22,30.81-30.72,30.81-14.36,0-19.49-9.32-19.49-18.82,0-11.33,7.44-31.81,7.44-42.47C387.53,432.62,385.54,429.62,381.58,429.62Z"/><path class="cls-11" d="M455.73,483.58c6.28,0,14.2-4.16,19.49-8.82-3.47,19-15.36,24.65-28.57,24.65-15.36,0-25.6-7.67-25.6-26.49,0-19.15,10.74-59.28,44.59-59.28,14.69,0,18.16,7.66,18.16,16,0,19.32-18.16,34-38,35.15-.16,1.66-.33,3.49-.33,5C445.49,480.26,450,483.58,455.73,483.58ZM467,422.46c-8.26,0-16.51,18.49-20,34.31,12.88-.66,24.1-13.49,24.1-27.48C471.08,425.13,470.1,422.46,467,422.46Z"/><path class="cls-11" d="M311.84,547.27l14.62-43h9.13v43l15-43h4.88l-19.37,52.34H325.77V520.85L312,556.61H301.73v-48c-7.59,2.39-11.29,7.87-11.29,15.6a9.89,9.89,0,0,0,1,4.78c-4.81,0-7.46-1.76-7.46-6.82,0-9.35,12.82-18.27,24.46-18.27,1,0,1.88.07,2.79.14Z"/><path class="cls-11" d="M361,551.13c5.5,0,8.85-3.09,12.33-7.09h2.37c-4,6.46-9.89,13-19.16,13-6.55,0-10.87-3.23-10.87-11.17s4.53-25,18.81-25c6.2,0,7.66,3.23,7.66,6.74,0,8.08-7.66,14.33-16,14.83-.07,1-.14,2-.14,2.81C355.94,550,357.62,551.13,361,551.13Zm4-26.56c-3.55,0-7,7.52-8.37,14.47,5.37-.35,10.11-5.76,10.11-11.59C366.74,525.69,366.32,524.57,365,524.57Z"/><path class="cls-11" d="M387.71,551.13c5.5,0,8.85-3.09,12.33-7.09h2.37c-4,6.46-9.9,13-19.16,13-6.55,0-10.87-3.23-10.87-11.17s4.53-25,18.81-25c6.2,0,7.67,3.23,7.67,6.74,0,8.08-7.67,14.33-16,14.83-.07,1-.13,2-.13,2.81C382.7,550,384.37,551.13,387.71,551.13Zm4-26.56c-3.55,0-7,7.52-8.36,14.47,5.37-.35,10.1-5.76,10.1-11.59C393.49,525.69,393.08,524.57,391.75,524.57Z"/><path class="cls-11" d="M432.92,521.48,419,531.24a13.87,13.87,0,0,1,2.3-.27c5.16,0,7.67,3.72,7.67,8.22a11.86,11.86,0,0,1-.28,2.66l-.77,3.52a11.5,11.5,0,0,0-.35,2.25c0,1.41.56,2.6,2.72,2.6a4.53,4.53,0,0,0,2.44-.42c-.35,5-4.67,7.23-6.48,7.23-5.72,0-8.78-2.88-8.78-8a18.38,18.38,0,0,1,.41-3.66l.56-2.74a11.83,11.83,0,0,0,.28-2.6c0-2-.69-3.37-2.51-3.37-1.6,0-3.2,1-5.15,2.6l-3.63,17.35h-10l10.11-47.78,10.3-1.41-5.22,24.74L426,521.48Z"/><path d="M143.45,395.45c7.24,1.62,14.56,9.06,23.41,9.06a14.76,14.76,0,0,0,5.85-1.12c-.69,6.75-3.48,11-7.24,11-10,0-18.75-16-31.08-16a12.24,12.24,0,0,0-1.6.07l10.38-48.69c-6.06,2.53-9.75,7.8-9.75,15.32a9.85,9.85,0,0,0,1,4.77c-4.81,0-7.45-1.75-7.45-6.81,0-9.35,12.81-18.28,24.45-18.28,1,0,1.88.08,2.79.15Z"/><path d="M186.37,361.72l-5,23.89a9.86,9.86,0,0,0-.28,2.25c0,2,.91,2.6,2.86,2.6a3.49,3.49,0,0,0,1.53-.28c-1.87,4.92-3.2,7.1-7,7.1s-6.27-2.46-6.83-6.54c-2.09,3.24-5.44,6.54-10.38,6.54-4.74,0-9.27-3-9.27-11.32,0-9.48,5.78-24.59,17.91-24.59,4,0,5.64,1.55,5.64,3.59v.48l.77-3.72Zm-24,23.26c0,5.41,2.23,5.48,3.48,5.48,2,0,4.95-2.11,5.79-6.19l3.34-15.87a2.72,2.72,0,0,0-2.86-2.67C166.16,365.73,162.33,378.37,162.33,385Z"/><path d="M75.16,383.65,62.82,442.16c17.55-1.4,30.4-24.35,30.4-43.09,0-13-6.26-23.84-21.54-23.84-28.14,0-45,15.94-45,42.58,0,8.93,2.26,10.33,2.43,11.9-12,0-18.59-4.37-18.59-17,0-23.29,32-45.54,61-45.54,28.48,0,41,16.47,41,34.5,0,22.25-18.93,47-50.2,47h-.87l-10.6,49.92h-25L49.44,387.15Z"/><path d="M160,440.28a3.78,3.78,0,0,0,1.82.34c7.59,0,18.33-5,25.43-10l1.49,4.5c-6.28,6.83-17.18,11.82-29.24,13.82-2.64,30.82-19.15,50.13-39.46,50.13-15.37,0-26.43-7.33-26.43-26.31,0-19.16,11.23-59.12,45.25-59.12C153,413.64,160,422.8,160,440.28Zm-14.2,9.17c-3.47-.84-4.46-3.67-4.46-7,0-4.66,2.14-7.65,5.12-9-.33-7-2-9.66-6.27-9.66-11.73,0-22,30.47-22,46.8,0,11,2.14,13.49,8.42,13.49C134.69,484.09,143.12,469.09,145.76,449.45Z"/><path d="M244.19,415.13,232.3,471.76a23.07,23.07,0,0,0-.66,5.33c0,4.67,2.15,6.16,6.77,6.16,6.44,0,10.9-6.32,13.37-14.65h6.94c-9.41,27.14-24.28,30.81-33.19,30.81-9.42,0-15.36-5.5-16.35-15.83-8.26,13.66-17.51,15.83-24.44,15.83-9.91,0-17.68-6-17.68-20a54.74,54.74,0,0,1,1.33-10.82l11.22-53.47h23.78l-11.88,56.63a23.65,23.65,0,0,0-.5,4.66c0,3.84,1.32,6.83,5,6.83,6.44,0,10.74-6.32,13.22-14.65l11.23-53.47Z"/><path d="M292.41,388.82l-5.62,26.31h9.91l-1.32,6.67h-9.91l-10.56,50a22.62,22.62,0,0,0-.67,5.33c0,4.67,2.15,6.16,6.77,6.16,6.45,0,12.39-6.32,14.87-14.65h6.93c-9.41,27.14-25.76,30.81-34.68,30.81-9.91,0-17.67-6-17.67-20a54.67,54.67,0,0,1,1.32-10.82l9.92-46.8h-5.46l1.32-6.67H263l5-23Z"/><path d="M330.89,415.13,319,471.76a23.64,23.64,0,0,0-.66,5.33c0,4.67,2.15,6.16,6.78,6.16,6.44,0,12.38-6.32,14.86-14.65h6.93c-9.41,27.14-25.76,30.81-34.67,30.81-9.91,0-17.68-6-17.68-20a54.74,54.74,0,0,1,1.33-10.82l11.23-53.47Zm-7.43-35.48A13.31,13.31,0,0,1,336.67,393a13.17,13.17,0,0,1-13.21,13.16,13,13,0,0,1-13-13.16A13.17,13.17,0,0,1,323.46,379.65Z"/><path d="M381.58,429.62c-5.94,0-10.4,7-12.88,15.32l-11.23,53.47H333.69l17.51-83.28H375l-1.82,8.67c6.93-8,14.2-9.33,19.32-9.33,10.57,0,18.34,5.49,18.34,18.81,0,13.5-7.93,33.65-7.93,43,0,4.16,1.65,7,6.6,7,7.26,0,10.24-6,13.87-14.65h6.94c-9.25,27.31-22,30.81-30.72,30.81-14.36,0-19.49-9.32-19.49-18.82,0-11.33,7.44-31.81,7.44-42.47C387.53,432.62,385.54,429.62,381.58,429.62Z"/><path d="M455.73,483.58c6.28,0,14.2-4.16,19.49-8.82-3.47,19-15.36,24.65-28.57,24.65-15.36,0-25.6-7.67-25.6-26.49,0-19.15,10.74-59.28,44.59-59.28,14.69,0,18.16,7.66,18.16,16,0,19.32-18.16,34-38,35.15-.16,1.66-.33,3.49-.33,5C445.49,480.26,450,483.58,455.73,483.58ZM467,422.46c-8.26,0-16.51,18.49-20,34.31,12.88-.66,24.1-13.49,24.1-27.48C471.08,425.13,470.1,422.46,467,422.46Z"/><path d="M311.84,547.27l14.62-43h9.13v43l15-43h4.88l-19.37,52.34H325.77V520.85L312,556.61H301.73v-48c-7.59,2.39-11.29,7.87-11.29,15.6a9.89,9.89,0,0,0,1,4.78c-4.81,0-7.46-1.76-7.46-6.82,0-9.35,12.82-18.27,24.46-18.27,1,0,1.88.07,2.79.14Z"/><path d="M361,551.13c5.5,0,8.85-3.09,12.33-7.09h2.37c-4,6.46-9.89,13-19.16,13-6.55,0-10.87-3.23-10.87-11.17s4.53-25,18.81-25c6.2,0,7.66,3.23,7.66,6.74,0,8.08-7.66,14.33-16,14.83-.07,1-.14,2-.14,2.81C355.94,550,357.62,551.13,361,551.13Zm4-26.56c-3.55,0-7,7.52-8.37,14.47,5.37-.35,10.11-5.76,10.11-11.59C366.74,525.69,366.32,524.57,365,524.57Z"/><path d="M387.71,551.13c5.5,0,8.85-3.09,12.33-7.09h2.37c-4,6.46-9.9,13-19.16,13-6.55,0-10.87-3.23-10.87-11.17s4.53-25,18.81-25c6.2,0,7.67,3.23,7.67,6.74,0,8.08-7.67,14.33-16,14.83-.07,1-.13,2-.13,2.81C382.7,550,384.37,551.13,387.71,551.13Zm4-26.56c-3.55,0-7,7.52-8.36,14.47,5.37-.35,10.1-5.76,10.1-11.59C393.49,525.69,393.08,524.57,391.75,524.57Z"/><path d="M432.92,521.48,419,531.24a13.87,13.87,0,0,1,2.3-.27c5.16,0,7.67,3.72,7.67,8.22a11.86,11.86,0,0,1-.28,2.66l-.77,3.52a11.5,11.5,0,0,0-.35,2.25c0,1.41.56,2.6,2.72,2.6a4.53,4.53,0,0,0,2.44-.42c-.35,5-4.67,7.23-6.48,7.23-5.72,0-8.78-2.88-8.78-8a18.38,18.38,0,0,1,.41-3.66l.56-2.74a11.83,11.83,0,0,0,.28-2.6c0-2-.69-3.37-2.51-3.37-1.6,0-3.2,1-5.15,2.6l-3.63,17.35h-10l10.11-47.78,10.3-1.41-5.22,24.74L426,521.48Z"/><path class="cls-12" d="M324.42,26.38A31.56,31.56,0,0,0,313.13,24c-3.53,0-8.08,1.52-8.08,7,0,8.75,22.48,5.06,22.48,22,0,11.06-8.89,15.25-19.25,15.25-5.58,0-8.08-.72-13.15-2V57.21a29,29,0,0,0,12.57,3.11c3.9,0,9.11-2,9.11-6.51,0-9.61-22.48-5.63-22.48-22.33,0-11.28,8.89-15.4,17.93-15.4a39.26,39.26,0,0,1,12.27,1.81Z"/><path class="cls-12" d="M383.33,39a26.55,26.55,0,0,0-9.07-1.55c-2.57,0-5.64.91-5.64,4,0,5.76,16.62,2.11,16.62,15.16,0,8.43-7.63,11.8-15.41,11.8A43.65,43.65,0,0,1,359,66.85l.57-7.72A21.36,21.36,0,0,0,369,61.52c2.42,0,6.28-.92,6.28-4.43,0-7.08-16.62-2.24-16.62-15.3,0-7.79,6.91-11.23,14.41-11.23a44.76,44.76,0,0,1,10.41,1.34Z"/><path class="cls-12" d="M413.59,39.2a14.51,14.51,0,0,0-6.49-1.34c-5.92,0-9.7,4.64-9.7,11.44s3.21,11.79,9.91,11.79a20.59,20.59,0,0,0,7.35-1.68l.43,7.79a31.71,31.71,0,0,1-9.56,1.2c-12,0-18.12-8.08-18.12-19.1,0-10.45,6.28-18.74,17.76-18.74a31.64,31.64,0,0,1,9.28,1.2Z"/><path class="cls-12" d="M435.36,30.56c10.91,0,19.25,7.23,19.25,19.17,0,10.38-7.06,18.67-19.25,18.67s-19.19-8.29-19.19-18.67C416.17,37.79,424.51,30.56,435.36,30.56Zm0,30.53c7.34,0,9.27-6.45,9.27-12.49,0-5.54-3-10.74-9.27-10.74s-9.2,5.34-9.2,10.74C426.16,54.57,428.08,61.09,435.36,61.09Z"/><polygon class="cls-12" points="359.71 30.91 350.01 30.91 331.76 80.57 340.53 80.57 359.71 30.91"/><path class="cls-13" d="M320.06,30a59.19,59.19,0,0,1,11,15A56.67,56.67,0,0,1,336,60.49c0,.18.16.17.23,0,3.49-6.08,5.62-14.36,2.5-20.61-3.27-6.55-11.12-9.56-18.5-10.17C319.93,29.72,319.89,29.86,320.06,30Z"/><path class="cls-12" d="M454.43,31.35h-1.31v-.47h3.19v.47H455v3.84h-.56Z"/><path class="cls-12" d="M460.42,33.3c0-.6-.07-1.33-.07-1.86h0c-.15.49-.33,1-.54,1.63L459,35.16h-.43l-.7-2c-.2-.61-.37-1.16-.49-1.67h0c0,.53-.05,1.25-.09,1.9l-.11,1.85h-.53l.3-4.31h.71l.73,2.08c.18.53.32,1,.44,1.46h0c.11-.43.27-.91.46-1.46l.77-2.08h.71l.26,4.31h-.54Z"/><path d="M269.6,56.84h-3.87c-.45-.42-1-1-1.66-1.64a8,8,0,0,1-5.28,2c-3.36,0-6.06-1.78-6.06-5.36,0-2.91,1.94-4.37,4.09-5.5a8.81,8.81,0,0,1-1.33-4.12c0-2.53,2.17-4.45,5.11-4.45,2.56,0,4.65,1.41,4.65,3.86,0,2.85-2.34,4.06-4.68,5.22.62.87,1.3,1.69,1.83,2.31s1.24,1.47,1.86,2.17a15.92,15.92,0,0,0,1.87-3.92l2.42,1.1A23.78,23.78,0,0,1,266,53.14C267.09,54.33,268.27,55.54,269.6,56.84Zm-7.2-3.36c-.93-1-1.8-2-2.31-2.59-.68-.82-1.41-1.75-2.09-2.71a4,4,0,0,0-2.11,3.38,3.15,3.15,0,0,0,3.27,3.25A5,5,0,0,0,262.4,53.48Zm-3-8.4c1.78-.85,3.22-1.75,3.22-3.33a1.74,1.74,0,0,0-1.89-1.8,2.23,2.23,0,0,0-2.26,2.31A6.45,6.45,0,0,0,259.41,45.08Z"/><path class="cls-4" d="M221.82,18.58a1.08,1.08,0,0,0,.37.26,1.19,1.19,0,0,0,.47.09,1.23,1.23,0,0,0,.47-.09,1.18,1.18,0,0,0,.37-.26,1.23,1.23,0,0,0,.24-.38,1.22,1.22,0,0,0,.09-.46,1.23,1.23,0,0,0-.09-.47,1.15,1.15,0,0,0-.61-.64,1.23,1.23,0,0,0-.47-.09,1.19,1.19,0,0,0-.47.09,1.23,1.23,0,0,0-.37.26,1.19,1.19,0,0,0-.25.38,1.39,1.39,0,0,0,0,.93A1.09,1.09,0,0,0,221.82,18.58Zm.18-1.75h.71a.77.77,0,0,1,.52.15.48.48,0,0,1,.17.41.51.51,0,0,1-.12.36.55.55,0,0,1-.32.14l.44.75H223l-.43-.73h-.14v.73H222Z"/><path class="cls-4" d="M218.39,18.62a1.07,1.07,0,0,0,.08-.36,4.45,4.45,0,0,0,0-.55,3.47,3.47,0,0,0,0-.48,1.08,1.08,0,0,0-.07-.35.44.44,0,0,0-.17-.21.59.59,0,0,0-.29-.07h-.28v2.27H218a.58.58,0,0,0,.28-.06A.38.38,0,0,0,218.39,18.62Z"/><path class="cls-4" d="M222.92,17.56a.19.19,0,0,0,.09-.19.16.16,0,0,0,0-.12.19.19,0,0,0-.08-.07l-.11,0h-.38v.45h.3A.67.67,0,0,0,222.92,17.56Z"/><path class="cls-14" d="M192.63,50c-2.08,7.29,3.76,7.17,7.44,2.05,2.57-3.49,4.79-8.69,4.22-11.55a5,5,0,0,0-.71-1.72C195.61,39.52,193,48.86,192.63,50Z"/><path class="cls-14" d="M225,45.18C225,20.71,189.26.81,145.4.81S65.86,20.71,65.86,45.18s35.68,44.37,79.54,44.37S225,69.64,225,45.18ZM156.8,32.75c13.12,2.64,20.31,1,26.38.74l2.26-4.73a7.84,7.84,0,0,1,5.66,0L189,33.43c9.18.22,14.42,1.93,17.41,4,5.1.25,9.48,1.52,10.57,2.58a6.07,6.07,0,0,1-3.17,3,11.66,11.66,0,0,0-5-3.4,6.86,6.86,0,0,1,1.35,5.48c-.74,6.07-7.54,12.2-15.31,12.2-4.63,0-7.58-2.17-8.21-5.42a10.06,10.06,0,0,1-.06-2.33,12.64,12.64,0,0,1,3.07-6.81c3-3.45,7.75-4.92,12.52-5.29-3.31-2-9.57-1.31-14.58-.8l-5,11.13a25.56,25.56,0,0,0-2,5.22c-.08.67,0,1.42,1.08,1.42a3.72,3.72,0,0,0,2-.83,16.24,16.24,0,0,0,1.27-1.09,5.83,5.83,0,0,0,.57,1.3l0,.06c-1.86,1.73-4.29,3.42-7.18,3.42-2.5,0-4.32-1.49-4.07-3.51a10,10,0,0,1,1-3.4c.48-1.21,1-2.41,1.47-3.35l4.78-10c-6.58,0-17.76-.65-25.07-3.67Zm-2.14,7.12a5.57,5.57,0,0,0-1.44.39,4.52,4.52,0,0,0-.48-1.13,11.82,11.82,0,0,1,5.82-2c2.1,0,3.64,1.12,3.42,2.89a18.94,18.94,0,0,1-2.14,5.23s-3.7,6.83-3.82,7.82c-.1.82.52,1.19,1.48,1.19,4.55,0,9.53-9.72,11.06-12.65l1.62-2.92s2,.2,2.81.25c1.12.06,3,.2,3,.2l-3.38,6.53c-.83,1.81-2.44,5.41-2.66,7.18-.07.54-.05,1.41.83,1.41a3.59,3.59,0,0,0,1.63-.7,1.1,1.1,0,0,1,0,.18,2.82,2.82,0,0,0,.17,1.36v0A9.51,9.51,0,0,1,167,57.21a2.92,2.92,0,0,1-3.22-3.28,11.41,11.41,0,0,1,.81-3l-.1-.1C162,54.31,158.41,57.2,154,57.21c-2.56,0-4.39-1.34-4.13-3.55a19.86,19.86,0,0,1,2.23-5.42s3.34-6.69,3.42-7.42A.76.76,0,0,0,154.66,39.87Zm-55,8.92c-1.3,5.47-6.79,8.7-13.25,8.7-3.57,0-7.1-1.07-9.08-3.29-3.8-4.41.56-6.7,2.7-6.66-1.12,4.23.57,8,5.95,8,3,0,5.65-1.74,6.26-4.29.66-2.83-.91-4.5-2.77-6.39L87.73,43c-2.29-2.34-4-4.45-3.2-7.95C85.72,30,91,26.9,97,26.9a11.08,11.08,0,0,1,7.6,2.6c4,4-.94,6.55-2,6.31a1.16,1.16,0,0,1-.37-.12c1-3.23-.07-6.82-4.57-6.82-2.52,0-5.63,1.34-6.18,3.64-.63,2.6,1.25,4.4,2.93,6.1L96,40.18C98.51,42.65,100.58,45,99.67,48.79Zm15.92,5.42a13.55,13.55,0,0,1,.36-1.64l-.1-.08a11.65,11.65,0,0,1-8.93,4.74c-4.67,0-6.53-3-6.1-6.54.72-5.83,7.28-13.51,15.29-13.51,2.62,0,4.39,1,5.16,3l1.41-2.47a8.24,8.24,0,0,1,5.79,0l-5.74,12.17a17,17,0,0,0-1.29,3.34c-.07.54.07,1.58.85,1.58a2.25,2.25,0,0,0,1-.26v0l-.82,1.8a8.63,8.63,0,0,1-3.7.91C116.66,57.23,115.37,55.87,115.59,54.21Zm15.7.09h-.11l-6.26,13.87a7.39,7.39,0,0,1-4.28-3.68L133.82,35.1a6.93,6.93,0,0,1,4.06,3.42l-.67,1.57.1.08a10.68,10.68,0,0,1,7.38-3c4,0,5.89,2,6.14,4.82a8.53,8.53,0,0,1,0,1.67c-.7,5.74-6.33,13.54-14.4,13.54C133.83,57.23,132.07,56.15,131.29,54.3Z"/><path class="cls-14" d="M141.83,39.67c-5,0-8.72,9.4-9.07,12.15-.17,1.4.43,2.93,2.42,2.93,5,0,9-9,9.36-12.27C144.72,41,143.88,39.67,141.83,39.67Z"/><path class="cls-14" d="M117,39.67c-4.9,0-9.26,8.71-9.64,11.91-.17,1.31.41,2.94,2.3,2.94,5.06,0,9.57-9,10-12.27C119.85,40.8,119,39.67,117,39.67Z"/><path class="cls-3" d="M202.13,13.17C187,4.68,166.83,0,145.4,0S103.83,4.68,88.67,13.17s-23.62,19.9-23.62,32,8.39,23.48,23.62,32S124,90.36,145.4,90.36,187,85.68,202.13,77.19s23.62-19.9,23.62-32S217.37,21.7,202.13,13.17Zm-136.27,32C65.86,20.71,101.54.81,145.4.81S225,20.71,225,45.18,189.26,89.55,145.4,89.55,65.86,69.64,65.86,45.18Z"/><path class="cls-3" d="M96,40.18l-1.6-1.57c-1.68-1.7-3.56-3.5-2.93-6.1.55-2.3,3.66-3.64,6.18-3.64,4.5,0,5.62,3.59,4.57,6.82a1.16,1.16,0,0,0,.37.12c1.1.24,6-2.31,2-6.31A11.08,11.08,0,0,0,97,26.9c-6,0-11.28,3.14-12.47,8.16-.84,3.5.91,5.61,3.2,7.95l1.75,1.82c1.86,1.89,3.43,3.56,2.77,6.39C91.64,53.77,89,55.51,86,55.51c-5.38,0-7.07-3.74-5.95-8-2.14,0-6.5,2.25-2.7,6.66,2,2.22,5.51,3.29,9.08,3.29,6.46,0,12-3.23,13.25-8.7C100.58,45,98.51,42.65,96,40.18Z"/><path class="cls-3" d="M150.79,43.69a8.53,8.53,0,0,0,0-1.67c-.25-2.78-2.13-4.82-6.14-4.82a10.68,10.68,0,0,0-7.38,3l-.1-.08.67-1.57a6.93,6.93,0,0,0-4.06-3.42L120.64,64.49a7.39,7.39,0,0,0,4.28,3.68l6.26-13.87h.11c.78,1.85,2.54,2.93,5.1,2.93C144.46,57.23,150.09,49.43,150.79,43.69Zm-6.25-1.21c-.4,3.24-4.34,12.27-9.36,12.27-2,0-2.59-1.53-2.42-2.93.35-2.75,4.12-12.15,9.07-12.15C143.88,39.67,144.72,41,144.54,42.48Z"/><path class="cls-3" d="M123.29,54.52v0a2.25,2.25,0,0,1-1,.26c-.78,0-.92-1-.85-1.58a17,17,0,0,1,1.29-3.34l5.74-12.17a8.24,8.24,0,0,0-5.79,0l-1.41,2.47c-.77-1.91-2.54-3-5.16-3-8,0-14.57,7.68-15.29,13.51-.43,3.52,1.43,6.54,6.1,6.54a11.65,11.65,0,0,0,8.93-4.74l.1.08a13.55,13.55,0,0,0-.36,1.64c-.22,1.66,1.07,3,3.18,3a8.63,8.63,0,0,0,3.7-.91Zm-3.62-12.27c-.4,3.24-4.91,12.27-10,12.27-1.89,0-2.47-1.63-2.3-2.94.38-3.2,4.74-11.91,9.64-11.91C119,39.67,119.85,40.8,119.67,42.25Z"/><path class="cls-3" d="M152.06,48.24a19.86,19.86,0,0,0-2.23,5.42c-.26,2.21,1.57,3.57,4.13,3.55,4.45,0,8-2.9,10.51-6.35l.1.1a11.41,11.41,0,0,0-.81,3A2.92,2.92,0,0,0,167,57.21a9.51,9.51,0,0,0,5.59-2.05v0a2.82,2.82,0,0,1-.17-1.36,1.1,1.1,0,0,0,0-.18,3.59,3.59,0,0,1-1.63.7c-.88,0-.9-.87-.83-1.41.22-1.77,1.83-5.37,2.66-7.18L176,39.18s-1.89-.14-3-.2c-.83,0-2.81-.25-2.81-.25l-1.62,2.92C167,44.58,162.05,54.3,157.5,54.3c-1,0-1.58-.37-1.48-1.19.12-1,3.82-7.82,3.82-7.82A18.94,18.94,0,0,0,162,40.06c.22-1.77-1.32-2.89-3.42-2.89a11.82,11.82,0,0,0-5.82,2,4.52,4.52,0,0,1,.48,1.13,5.57,5.57,0,0,1,1.44-.39.76.76,0,0,1,.82,1C155.4,41.55,152.06,48.24,152.06,48.24Z"/><path class="cls-3" d="M176.74,47c-.42.94-1,2.14-1.47,3.35a10,10,0,0,0-1,3.4c-.25,2,1.57,3.51,4.07,3.51,2.89,0,5.32-1.69,7.18-3.42l0-.06a5.83,5.83,0,0,1-.57-1.3,16.24,16.24,0,0,1-1.27,1.09,3.72,3.72,0,0,1-2,.83c-1.05,0-1.16-.75-1.08-1.42a25.56,25.56,0,0,1,2-5.22l5-11.13c5-.51,11.27-1.21,14.58.8-4.77.37-9.54,1.84-12.52,5.29a12.64,12.64,0,0,0-3.07,6.81,10.06,10.06,0,0,0,.06,2.33c.63,3.25,3.58,5.42,8.21,5.42,7.77,0,14.57-6.13,15.31-12.2a6.86,6.86,0,0,0-1.35-5.48,11.66,11.66,0,0,1,5,3.4A6.07,6.07,0,0,0,217,40c-1.09-1.06-5.47-2.33-10.57-2.58-3-2-8.23-3.76-17.41-4l2.1-4.64a7.84,7.84,0,0,0-5.66,0l-2.26,4.73c-6.07.27-13.26,1.9-26.38-.74l-.35.57c7.31,3,18.49,3.67,25.07,3.67Zm27.55-6.52c.57,2.86-1.65,8.06-4.22,11.55-3.68,5.12-9.52,5.24-7.44-2.05.32-1.15,3-10.49,11-11.22A5,5,0,0,1,204.29,40.51Z"/><polygon class="cls-14" points="214.24 16.77 214.25 16.77 214.82 19.35 215.33 19.35 215.91 16.77 215.91 16.77 215.91 19.35 216.51 19.35 216.51 16.12 215.55 16.12 215.08 18.4 215.07 18.4 214.61 16.12 213.65 16.12 213.65 19.35 214.24 19.35 214.24 16.77"/><path class="cls-14" d="M218.57,19.25a.77.77,0,0,0,.34-.3,1.28,1.28,0,0,0,.18-.52,4.1,4.1,0,0,0,0-.74,4.36,4.36,0,0,0,0-.65,1.41,1.41,0,0,0-.15-.49.85.85,0,0,0-.33-.32,1.17,1.17,0,0,0-.54-.11H217v3.23h1A1.19,1.19,0,0,0,218.57,19.25Zm-.91-.38V16.6h.28a.59.59,0,0,1,.29.07.44.44,0,0,1,.17.21,1.08,1.08,0,0,1,.07.35,3.47,3.47,0,0,1,0,.48,4.45,4.45,0,0,1,0,.55,1.07,1.07,0,0,1-.08.36.38.38,0,0,1-.16.19.58.58,0,0,1-.28.06Z"/><polygon class="cls-14" points="220.86 16.06 220.36 16.06 219.35 19.4 219.84 19.4 220.86 16.06"/><path class="cls-14" d="M221.47,18.92a1.58,1.58,0,0,0,.53.35,1.65,1.65,0,0,0,.66.13,1.57,1.57,0,0,0,.65-.13,1.73,1.73,0,0,0,.54-.35,1.76,1.76,0,0,0,.49-1.18,1.63,1.63,0,0,0-.14-.66,1.58,1.58,0,0,0-.35-.53,2,2,0,0,0-.54-.36,1.57,1.57,0,0,0-.65-.13,1.65,1.65,0,0,0-.66.13,1.71,1.71,0,0,0-.89.89,1.62,1.62,0,0,0-.13.66,1.57,1.57,0,0,0,.13.65A1.77,1.77,0,0,0,221.47,18.92Zm.1-1.65a1.19,1.19,0,0,1,.25-.38,1.23,1.23,0,0,1,.37-.26,1.19,1.19,0,0,1,.47-.09,1.23,1.23,0,0,1,.47.09,1.15,1.15,0,0,1,.61.64,1.23,1.23,0,0,1,.09.47,1.22,1.22,0,0,1-.09.46,1.23,1.23,0,0,1-.24.38,1.18,1.18,0,0,1-.37.26,1.23,1.23,0,0,1-.47.09,1.19,1.19,0,0,1-.47-.09,1.08,1.08,0,0,1-.37-.26,1.09,1.09,0,0,1-.25-.38,1.39,1.39,0,0,1,0-.93Z"/><path class="cls-14" d="M222.4,17.91h.14l.43.73h.43l-.44-.75a.55.55,0,0,0,.32-.14.51.51,0,0,0,.12-.36.48.48,0,0,0-.17-.41.77.77,0,0,0-.52-.15H222v1.81h.4Zm0-.76h.38l.11,0a.19.19,0,0,1,.08.07.16.16,0,0,1,0,.12.19.19,0,0,1-.09.19.67.67,0,0,1-.22,0h-.3Z"/><path class="cls-3" d="M10,620.75h7c5.84,0,9.8,3.88,9.8,9.39s-4,9.35-9.8,9.35H10Zm7,15.85a6.15,6.15,0,0,0,6.43-6.46c0-3.63-2.25-6.49-6.43-6.49H13.23v13Z"/><path class="cls-3" d="M35.86,625.58c4.07,0,6.69,3.12,6.69,7.39v.71H32.06a4.12,4.12,0,0,0,4.33,3.73,5.71,5.71,0,0,0,3.85-1.49l1.35,1.94a7.92,7.92,0,0,1-5.51,2,7.13,7.13,0,0,1-.22-14.25Zm-3.82,6h7.64a3.62,3.62,0,0,0-3.82-3.6A3.74,3.74,0,0,0,32,631.6Z"/><path class="cls-3" d="M45.47,620.75h3v18.74h-3Z"/><path class="cls-3" d="M51.88,621.85A1.84,1.84,0,0,1,53.71,620a1.83,1.83,0,1,1-1.83,1.83Zm.36,4.07h3v13.57h-3Z"/><path class="cls-3" d="M57.05,625.92H60.2l4,10.17,4-10.17H71.3l-5.54,13.57H62.59Z"/><path class="cls-3" d="M79.2,625.58c4.07,0,6.69,3.12,6.69,7.39v.71H75.4a4.12,4.12,0,0,0,4.33,3.73,5.71,5.71,0,0,0,3.85-1.49l1.35,1.94a7.92,7.92,0,0,1-5.51,2,7.13,7.13,0,0,1-.22-14.25Zm-3.82,6H83A3.62,3.62,0,0,0,79.2,628,3.74,3.74,0,0,0,75.38,631.6Z"/><path class="cls-3" d="M88.81,625.92h3v2a5.78,5.78,0,0,1,4.42-2.31v2.92a5,5,0,0,0-.93-.08,4.68,4.68,0,0,0-3.49,1.8v9.24h-3Z"/><path class="cls-3" d="M104.61,625.58c4.07,0,6.69,3.12,6.69,7.39v.71H100.81a4.12,4.12,0,0,0,4.33,3.73,5.71,5.71,0,0,0,3.85-1.49l1.35,1.94a7.92,7.92,0,0,1-5.51,2,7.13,7.13,0,0,1-.22-14.25Zm-3.83,6h7.65a3.63,3.63,0,0,0-3.82-3.6A3.75,3.75,0,0,0,100.78,631.6Z"/><path class="cls-3" d="M123.78,637.64a5.53,5.53,0,0,1-4.36,2.19c-3.49,0-6-2.64-6-7.11s2.53-7.14,6-7.14a5.48,5.48,0,0,1,4.36,2.22v-7h3v18.74h-3Zm0-7.62a4.47,4.47,0,0,0-3.52-1.82c-2.33,0-3.82,1.88-3.82,4.52s1.49,4.49,3.82,4.49a4.45,4.45,0,0,0,3.52-1.79Z"/><path class="cls-3" d="M146.46,629.55l-3.15,9.94h-3.09L136,625.92h3.06l2.87,9.86,3.23-9.86h2.59l3.23,9.86,2.87-9.86h3.06l-4.21,13.57h-3.1Z"/><path class="cls-3" d="M158.6,621.85a1.84,1.84,0,0,1,1.83-1.83,1.83,1.83,0,1,1-1.83,1.83Zm.36,4.07h2.95v13.57H159Z"/><path class="cls-3" d="M166.33,636.34v-7.83h-2.25v-2.59h2.25v-3.71h2.95v3.71H172v2.59h-2.75v7.1c0,.93.45,1.6,1.29,1.6a1.91,1.91,0,0,0,1.32-.47l.71,2.22a4,4,0,0,1-2.79.87A3.13,3.13,0,0,1,166.33,636.34Z"/><path class="cls-3" d="M183.89,631c0-2.11-1.09-2.75-2.75-2.75a4.6,4.6,0,0,0-3.49,1.82v9.47h-3V620.75h3v7a6.49,6.49,0,0,1,4.81-2.2c2.92,0,4.38,1.52,4.38,4.3v9.61h-3Z"/><g id="Layer_2-2" data-name="Layer 2"><g id="Layer_1-2" data-name="Layer 1-2"><path class="cls-15" d="M292,624.19v15.7h4a7.75,7.75,0,0,0,7.67-7.83v0a7.62,7.62,0,0,0-7.39-7.85H292Zm4-4.93a12.79,12.79,0,1,1,0,25.56h-8.84a.63.63,0,0,1-.63-.63V619.92a.64.64,0,0,1,.63-.64Z"/><path class="cls-15" d="M328.54,640.44a8.4,8.4,0,1,0-8.41-8.4,8.4,8.4,0,0,0,8.41,8.4m0-21.73a13.36,13.36,0,1,1-13.89,13.34,13.53,13.53,0,0,1,13.89-13.34"/><path class="cls-15" d="M361.55,640.44a8.4,8.4,0,1,0-8.4-8.4h0a8.41,8.41,0,0,0,8.4,8.4m0-21.73a13.36,13.36,0,1,1-13.89,13.34,13.53,13.53,0,0,1,13.89-13.34"/><path class="cls-15" d="M393.84,624.19h-5.66v6.75h5.66a3.32,3.32,0,0,0,3.47-3.16v-.12a3.36,3.36,0,0,0-3.25-3.47.81.81,0,0,0-.22,0m-11.14-4.27a.64.64,0,0,1,.63-.64H394a8.43,8.43,0,0,1,8.78,8.4,8.28,8.28,0,0,1-4.57,7.49l4.94,8.67a.64.64,0,0,1-.18.88.7.7,0,0,1-.4.1h-4.32a.64.64,0,0,1-.58-.34l-4.73-8.61h-4.75v8.26a.64.64,0,0,1-.64.64h-4.16a.63.63,0,0,1-.63-.64Z"/><path class="cls-15" d="M417.05,624.3V640h4a7.76,7.76,0,0,0,7.68-7.85h0a7.65,7.65,0,0,0-7.4-7.86h-4.3Zm4-4.92a12.79,12.79,0,1,1,0,25.56h-8.84a.63.63,0,0,1-.63-.63V620a.64.64,0,0,1,.63-.64Z"/><path class="cls-15" d="M450.94,625.62l-3.11,8.4H454ZM446,638.76l-2,5.6a.65.65,0,0,1-.64.44h-4.41a.64.64,0,0,1-.64-.91l9.54-24.24a.64.64,0,0,1,.64-.43h4.94a.64.64,0,0,1,.63.43l9.54,24.24a.64.64,0,0,1-.64.91h-4.41a.65.65,0,0,1-.64-.44l-2-5.6Z"/><path class="cls-15" d="M468.69,626.15c0-4,3.47-7.49,9-7.49a11.42,11.42,0,0,1,8,3,.68.68,0,0,1,0,.94l-2.47,2.46a.64.64,0,0,1-.9,0h0a6.4,6.4,0,0,0-4.24-1.67c-2.19,0-3.82,1.27-3.82,2.74,0,4.75,13,2,13,11.14,0,4.56-3.47,8-9.68,8a13,13,0,0,1-9.25-3.71.64.64,0,0,1,0-.9l0,0,2.37-2.37a.64.64,0,0,1,.9,0l0,0a8.14,8.14,0,0,0,5.58,2.28c2.75,0,4.56-1.46,4.56-3.29,0-4.75-13-2-13-11.14"/><path class="cls-15" d="M510.64,619.89v9.57h-11v-9.54a.62.62,0,0,0-.6-.66h-4.19a.64.64,0,0,0-.64.63v24.24a.64.64,0,0,0,.61.66h4.19a.64.64,0,0,0,.63-.64v-9.75h11v9.72a.65.65,0,0,0,.61.67h4.21a.65.65,0,0,0,.67-.61v-24.3a.64.64,0,0,0-.6-.67h-4.22a.65.65,0,0,0-.67.61Z"/><path class="cls-15" d="M264.94,622.58a16.05,16.05,0,0,0-14.22-8.5h-45a1.54,1.54,0,0,0-1.54,1.56,1.51,1.51,0,0,0,.45,1.08l9.81,9.86a4.57,4.57,0,0,0,3.27,1.37h31.76a4.09,4.09,0,1,1,.08,8.18H227.62a1.55,1.55,0,0,0-1.54,1.57,1.53,1.53,0,0,0,.45,1.08l9.81,9.86a4.63,4.63,0,0,0,3.27,1.36h9.9c12.88,0,22.62-13.76,15.43-27.42"/></g></g><path d="M219.77,120.42V103.15h2.72v1.71a5,5,0,0,1,4-2c3.24,0,5.55,2.44,5.55,6.55S229.74,116,226.5,116a4.92,4.92,0,0,1-4-2v6.5Zm5.93-15.17a4.07,4.07,0,0,0-3.21,1.68v4.95a4.15,4.15,0,0,0,3.21,1.68c2.15,0,3.52-1.74,3.52-4.17S227.85,105.25,225.7,105.25Z"/><path d="M234.79,103.15h2.72V105a5.33,5.33,0,0,1,4.06-2.12v2.69a4,4,0,0,0-.85-.08,4.31,4.31,0,0,0-3.21,1.66v8.51h-2.72Z"/><path d="M249.34,102.84c3.76,0,6.17,2.88,6.17,6.81v.65h-9.66a3.78,3.78,0,0,0,4,3.44,5.29,5.29,0,0,0,3.54-1.37l1.25,1.78a7.32,7.32,0,0,1-5.08,1.81,6.56,6.56,0,0,1-.21-13.12Zm-3.52,5.54h7a3.34,3.34,0,0,0-3.52-3.31A3.44,3.44,0,0,0,245.82,108.38Z"/><path d="M258.36,112.06a6.47,6.47,0,0,0,4.24,1.76c1.63,0,2.46-.6,2.46-1.53,0-1.09-1.32-1.48-2.85-1.81-2.15-.47-4.71-1-4.71-3.83,0-2.05,1.76-3.81,4.92-3.81a7.16,7.16,0,0,1,4.87,1.76l-1.14,1.92a5,5,0,0,0-3.7-1.5c-1.43,0-2.33.51-2.33,1.4s1.24,1.29,2.71,1.63c2.18.46,4.85,1.08,4.85,4,0,2.2-1.84,3.88-5.21,3.88a7.61,7.61,0,0,1-5.36-1.94Z"/><path d="M276,102.84c3.75,0,6.16,2.88,6.16,6.81v.65h-9.66a3.79,3.79,0,0,0,4,3.44,5.29,5.29,0,0,0,3.55-1.37l1.24,1.78A7.28,7.28,0,0,1,276.2,116a6.56,6.56,0,0,1-.21-13.12Zm-3.52,5.54h7a3.34,3.34,0,0,0-3.52-3.31A3.44,3.44,0,0,0,272.47,108.38Z"/><path d="M293.29,107.84c0-1.94-1-2.59-2.51-2.59a4.16,4.16,0,0,0-3.22,1.68v8.72h-2.71v-12.5h2.71v1.71a6,6,0,0,1,4.41-2c2.69,0,4,1.45,4,4v8.8h-2.72Z"/><path d="M300.07,112.76v-7.23H298v-2.38h2.07V99.74h2.72v3.41h2.54v2.38h-2.54v6.55c0,.86.41,1.48,1.19,1.48a1.78,1.78,0,0,0,1.22-.44l.65,2a3.6,3.6,0,0,1-2.57.8A2.88,2.88,0,0,1,300.07,112.76Z"/><line class="cls-16" x1="321.2" y1="111.99" x2="463.15" y2="111.99"/><line class="cls-16" x1="205" y1="111.99" x2="63.06" y2="111.99"/></g></g></g></svg>