<svg id="Layer_1" data-name="Layer 1" xmlns="http://www.w3.org/2000/svg" viewBox="0 0 122 48"><defs><style>.cls-1{fill:#fff;}</style></defs><path class="cls-1" d="M21.89,7.73A20,20,0,0,0,13.75,6c-2.52,0-5.89,1.13-5.89,5.08,0,6.49,16.28,3.67,16.28,16.09,0,8.18-6.46,11-14,11A35.32,35.32,0,0,1,.56,36.79V30a20.46,20.46,0,0,0,9.26,2.26c2.81,0,6.74-1.42,6.74-4.8C16.28,20.71,0,23.53,0,11.4,0,3.21,6.46.11,12.91.11a24,24,0,0,1,9,1.41Z"/><path class="cls-1" d="M64.55,16.76a16.3,16.3,0,0,0-6.45-1.13c-2,0-4.21.56-4.21,2.82,0,4.23,12.07,1.41,12.07,11,0,6.21-5.62,8.75-11.23,8.75a37.36,37.36,0,0,1-7.86-1.13l.28-5.64a14.88,14.88,0,0,0,6.74,1.69c1.68,0,4.49-.56,4.49-3.1,0-5.08-12.07-1.7-12.07-11.29,0-5.64,5-8.18,10.38-8.18a47.66,47.66,0,0,1,7.58.84Z"/><path class="cls-1" d="M86.72,17A10.2,10.2,0,0,0,82,16.19c-4.21,0-7,3.39-7,8.47,0,4.79,2.24,8.74,7.29,8.74a22.07,22.07,0,0,0,5.34-1.12l.28,5.64a25.33,25.33,0,0,1-7,.85c-8.7,0-13.19-5.93-13.19-13.83,0-7.62,4.49-13.83,12.91-13.83a23.24,23.24,0,0,1,6.74.85Z"/><path class="cls-1" d="M102.44,10.83c7.86,0,14,5.36,14,14.11,0,7.62-5,13.54-14,13.54-8.7,0-14-5.92-14-13.54C88.41,15.91,94.58,10.83,102.44,10.83Zm0,22.29c5.33,0,6.74-4.8,6.74-9,0-3.95-2.25-7.9-6.74-7.9s-6.73,3.95-6.73,7.9C95.71,28.32,97.11,33.12,102.44,33.12Z"/><path class="cls-1" d="M47.43,10.83h-7l-13.2,36.4h6.46Z"/><path class="cls-1" d="M18.8,10.27a55.38,55.38,0,0,1,8.14,11,47.56,47.56,0,0,1,3.65,11.29h.28c2.53-4.52,4.21-10.44,1.69-15-2.81-4.79-8.42-7-13.76-7.33C18.52,10.27,18.52,10,18.8,10.27Z"/></svg>