<svg xmlns="http://www.w3.org/2000/svg" viewBox="0 0 540.65 650"><defs><style>.cls-1{isolation:isolate;}.cls-16,.cls-2{fill:none;}.cls-3{fill:#ff141e;}.cls-4{fill:#fff;}.cls-5{fill:#edb458;}.cls-6{fill:#7f5b49;}.cls-7{fill:#d19d50;}.cls-8{fill:#b68400;}.cls-9{fill:#4197cb;stroke-width:28.18px;}.cls-12,.cls-9{stroke:#fff;}.cls-16,.cls-9{stroke-miterlimit:10;}.cls-10,.cls-11{fill:#009ade;}.cls-11{mix-blend-mode:multiply;opacity:0.3;}.cls-12{stroke-linecap:round;stroke-linejoin:round;stroke-width:22.41px;}.cls-13{fill:#ff3008;}.cls-14{fill:#0075bf;}.cls-15{fill:#5f9e43;}.cls-16{stroke:#000;}</style></defs><g class="cls-1"><g id="Layer_2" data-name="Layer 2"><g id="logo_fr" data-name="logo fr"><path class="cls-2" d="M232.54,18.58a1.08,1.08,0,0,0,.37.26,1.19,1.19,0,0,0,.47.09,1.14,1.14,0,0,0,.46-.09,1.12,1.12,0,0,0,.38-.26,1.23,1.23,0,0,0,.24-.38,1.22,1.22,0,0,0,.09-.46,1.23,1.23,0,0,0-.09-.47,1.36,1.36,0,0,0-.24-.38,1.28,1.28,0,0,0-.38-.26,1.14,1.14,0,0,0-.46-.09,1.19,1.19,0,0,0-.47.09,1.23,1.23,0,0,0-.37.26,1.19,1.19,0,0,0-.25.38,1.23,1.23,0,0,0-.09.47,1.22,1.22,0,0,0,.09.46A1.09,1.09,0,0,0,232.54,18.58Zm.18-1.75h.71A.77.77,0,0,1,234,17a.48.48,0,0,1,.17.41.47.47,0,0,1-.13.36.5.5,0,0,1-.31.14l.44.75h-.43l-.43-.73h-.14v.73h-.4Z"/><path class="cls-2" d="M229.11,18.62a1.07,1.07,0,0,0,.08-.36c0-.15,0-.33,0-.55s0-.35,0-.48a1.08,1.08,0,0,0-.07-.35.51.51,0,0,0-.17-.21.6.6,0,0,0-.3-.07h-.27v2.27h.29a.54.54,0,0,0,.27-.06A.4.4,0,0,0,229.11,18.62Z"/><path class="cls-2" d="M233.64,17.56c.06,0,.08-.09.08-.19a.21.21,0,0,0,0-.12.27.27,0,0,0-.08-.07l-.11,0h-.38v.45h.3A.67.67,0,0,0,233.64,17.56Z"/><path class="cls-3" d="M203.34,50c-2.08,7.29,3.76,7.17,7.44,2.05,2.58-3.49,4.79-8.69,4.22-11.55a4.81,4.81,0,0,0-.71-1.72C206.32,39.52,203.66,48.86,203.34,50Z"/><path class="cls-3" d="M235.67,45.18C235.67,20.71,200,.81,156.1.81S76.54,20.71,76.54,45.18s35.69,44.37,79.56,44.37S235.67,69.64,235.67,45.18ZM167.5,32.75c13.12,2.64,20.32,1,26.39.74l2.26-4.73a7.84,7.84,0,0,1,5.66,0l-2.1,4.64c9.18.22,14.42,1.93,17.42,4,5.1.25,9.48,1.52,10.57,2.58a6.07,6.07,0,0,1-3.17,3,11.71,11.71,0,0,0-5.05-3.4,6.88,6.88,0,0,1,1.36,5.48c-.75,6.07-7.55,12.2-15.32,12.2-4.63,0-7.58-2.17-8.21-5.42a10.06,10.06,0,0,1-.06-2.33,12.64,12.64,0,0,1,3.07-6.81c3-3.45,7.75-4.92,12.52-5.29-3.3-2-9.56-1.31-14.58-.8l-5,11.13a25.56,25.56,0,0,0-2,5.22c-.08.67,0,1.42,1.08,1.42a3.72,3.72,0,0,0,2.05-.83,16.24,16.24,0,0,0,1.27-1.09,5.83,5.83,0,0,0,.57,1.3l0,.06c-1.86,1.73-4.29,3.42-7.18,3.42-2.51,0-4.32-1.49-4.08-3.51a10.13,10.13,0,0,1,1-3.4c.48-1.21,1.05-2.41,1.47-3.35l4.77-10c-6.58,0-17.76-.65-25.07-3.67Zm-2.14,7.12a5.57,5.57,0,0,0-1.44.39,4.52,4.52,0,0,0-.48-1.13,11.82,11.82,0,0,1,5.82-2c2.1,0,3.65,1.12,3.43,2.89a19.29,19.29,0,0,1-2.15,5.23s-3.7,6.83-3.82,7.82c-.1.82.52,1.19,1.48,1.19,4.55,0,9.54-9.72,11.06-12.65l1.62-2.92s2,.2,2.81.25c1.13.06,3,.2,3,.2l-3.37,6.53c-.83,1.81-2.45,5.41-2.67,7.18-.06.54,0,1.41.83,1.41a3.58,3.58,0,0,0,1.64-.7,1.1,1.1,0,0,0,0,.18,2.81,2.81,0,0,0,.16,1.36v0a9.46,9.46,0,0,1-5.59,2.05,2.92,2.92,0,0,1-3.22-3.28,11.42,11.42,0,0,1,.82-3l-.1-.1c-2.53,3.45-6.07,6.34-10.52,6.35-2.56,0-4.39-1.34-4.13-3.55a20.18,20.18,0,0,1,2.23-5.42s3.34-6.69,3.42-7.42A.76.76,0,0,0,165.36,39.87Zm-55,8.92c-1.3,5.47-6.79,8.7-13.26,8.7-3.56,0-7.1-1.07-9.07-3.29-3.81-4.41.56-6.7,2.69-6.66-1.11,4.23.58,8,6,8,3,0,5.65-1.74,6.26-4.29.67-2.83-.9-4.5-2.76-6.39L98.41,43c-2.29-2.34-4-4.45-3.2-7.95,1.19-5,6.49-8.16,12.48-8.16a11.08,11.08,0,0,1,7.6,2.6c4,4-.94,6.55-2,6.31a1.16,1.16,0,0,1-.37-.12c1.05-3.23-.07-6.82-4.57-6.82-2.53,0-5.64,1.34-6.19,3.64-.62,2.6,1.26,4.4,2.94,6.1l1.59,1.57C109.19,42.65,111.27,45,110.36,48.79Zm15.92,5.42a13.55,13.55,0,0,1,.36-1.64l-.1-.08a11.65,11.65,0,0,1-8.93,4.74c-4.68,0-6.53-3-6.1-6.54.71-5.83,7.28-13.51,15.3-13.51,2.61,0,4.38,1,5.15,3l1.41-2.47a8.24,8.24,0,0,1,5.79,0l-5.74,12.17a17,17,0,0,0-1.29,3.34c-.07.54.08,1.58.86,1.58a2.25,2.25,0,0,0,1-.26v0l-.82,1.8a8.6,8.6,0,0,1-3.7.91C127.35,57.23,126.06,55.87,126.28,54.21ZM142,54.3h-.11l-6.27,13.87a7.37,7.37,0,0,1-4.27-3.68L144.51,35.1a6.9,6.9,0,0,1,4.06,3.42l-.66,1.57.1.08a10.68,10.68,0,0,1,7.38-3c4,0,5.89,2,6.14,4.82a8.53,8.53,0,0,1,0,1.67c-.7,5.74-6.33,13.54-14.41,13.54C144.53,57.23,142.76,56.15,142,54.3Z"/><path class="cls-3" d="M152.53,39.67c-5,0-8.73,9.4-9.07,12.15-.17,1.4.42,2.93,2.42,2.93,5,0,9-9,9.36-12.27C155.42,41,154.58,39.67,152.53,39.67Z"/><path class="cls-3" d="M127.73,39.67c-4.9,0-9.26,8.71-9.64,11.91-.17,1.31.41,2.94,2.3,2.94,5.06,0,9.57-9,10-12.27C130.54,40.8,129.67,39.67,127.73,39.67Z"/><path class="cls-4" d="M212.85,13.17C197.68,4.68,177.53,0,156.1,0S114.52,4.68,99.36,13.17s-23.63,19.9-23.63,32,8.39,23.48,23.63,32,35.31,13.17,56.74,13.17,41.58-4.68,56.75-13.17,23.62-19.9,23.62-32S228.08,21.7,212.85,13.17Zm-136.31,32C76.54,20.71,112.23.81,156.1.81s79.57,19.9,79.57,44.37S200,89.55,156.1,89.55,76.54,69.64,76.54,45.18Z"/><path class="cls-4" d="M106.65,40.18l-1.59-1.57c-1.68-1.7-3.56-3.5-2.94-6.1.55-2.3,3.66-3.64,6.19-3.64,4.5,0,5.62,3.59,4.57,6.82a1.16,1.16,0,0,0,.37.12c1.1.24,6-2.31,2-6.31a11.08,11.08,0,0,0-7.6-2.6c-6,0-11.29,3.14-12.48,8.16-.84,3.5.91,5.61,3.2,7.95l1.76,1.82c1.86,1.89,3.43,3.56,2.76,6.39-.61,2.55-3.24,4.29-6.26,4.29-5.37,0-7.06-3.74-6-8-2.13,0-6.5,2.25-2.69,6.66,2,2.22,5.51,3.29,9.07,3.29,6.47,0,12-3.23,13.26-8.7C111.27,45,109.19,42.65,106.65,40.18Z"/><path class="cls-4" d="M161.49,43.69a8.53,8.53,0,0,0,0-1.67c-.25-2.78-2.13-4.82-6.14-4.82a10.68,10.68,0,0,0-7.38,3l-.1-.08.66-1.57a6.9,6.9,0,0,0-4.06-3.42L131.34,64.49a7.37,7.37,0,0,0,4.27,3.68l6.27-13.87H142c.77,1.85,2.54,2.93,5.09,2.93C155.16,57.23,160.79,49.43,161.49,43.69Zm-6.25-1.21c-.4,3.24-4.35,12.27-9.36,12.27-2,0-2.59-1.53-2.42-2.93.34-2.75,4.11-12.15,9.07-12.15C154.58,39.67,155.42,41,155.24,42.48Z"/><path class="cls-4" d="M134,54.52v0a2.25,2.25,0,0,1-1,.26c-.78,0-.93-1-.86-1.58a17,17,0,0,1,1.29-3.34l5.74-12.17a8.24,8.24,0,0,0-5.79,0L132,40.13c-.77-1.91-2.54-3-5.15-3-8,0-14.59,7.68-15.3,13.51-.43,3.52,1.42,6.54,6.1,6.54a11.65,11.65,0,0,0,8.93-4.74l.1.08a13.55,13.55,0,0,0-.36,1.64c-.22,1.66,1.07,3,3.18,3a8.6,8.6,0,0,0,3.7-.91Zm-3.61-12.27c-.41,3.24-4.92,12.27-10,12.27-1.89,0-2.47-1.63-2.3-2.94.38-3.2,4.74-11.91,9.64-11.91C129.67,39.67,130.54,40.8,130.37,42.25Z"/><path class="cls-4" d="M162.76,48.24a20.18,20.18,0,0,0-2.23,5.42c-.26,2.21,1.57,3.57,4.13,3.55,4.45,0,8-2.9,10.52-6.35l.1.1a11.42,11.42,0,0,0-.82,3,2.92,2.92,0,0,0,3.22,3.28,9.46,9.46,0,0,0,5.59-2.05v0a2.81,2.81,0,0,1-.16-1.36,1.1,1.1,0,0,1,0-.18,3.58,3.58,0,0,1-1.64.7c-.88,0-.89-.87-.83-1.41.22-1.77,1.84-5.37,2.67-7.18l3.37-6.53s-1.88-.14-3-.2c-.82,0-2.81-.25-2.81-.25l-1.62,2.92c-1.52,2.93-6.51,12.65-11.06,12.65-1,0-1.58-.37-1.48-1.19.12-1,3.82-7.82,3.82-7.82a19.29,19.29,0,0,0,2.15-5.23c.22-1.77-1.33-2.89-3.43-2.89a11.82,11.82,0,0,0-5.82,2,4.52,4.52,0,0,1,.48,1.13,5.57,5.57,0,0,1,1.44-.39.76.76,0,0,1,.82,1C166.1,41.55,162.76,48.24,162.76,48.24Z"/><path class="cls-4" d="M187.45,47c-.42.94-1,2.14-1.47,3.35a10.13,10.13,0,0,0-1,3.4c-.24,2,1.57,3.51,4.08,3.51,2.89,0,5.32-1.69,7.18-3.42l0-.06a5.83,5.83,0,0,1-.57-1.3,16.24,16.24,0,0,1-1.27,1.09,3.72,3.72,0,0,1-2.05.83c-1,0-1.16-.75-1.08-1.42a25.56,25.56,0,0,1,2-5.22l5-11.13c5-.51,11.28-1.21,14.58.8-4.77.37-9.54,1.84-12.52,5.29a12.64,12.64,0,0,0-3.07,6.81,10.06,10.06,0,0,0,.06,2.33c.63,3.25,3.58,5.42,8.21,5.42,7.77,0,14.57-6.13,15.32-12.2a6.88,6.88,0,0,0-1.36-5.48,11.71,11.71,0,0,1,5.05,3.4,6.07,6.07,0,0,0,3.17-3c-1.09-1.06-5.47-2.33-10.57-2.58-3-2-8.24-3.76-17.42-4l2.1-4.64a7.84,7.84,0,0,0-5.66,0l-2.26,4.73c-6.07.27-13.27,1.9-26.39-.74l-.35.57c7.31,3,18.49,3.67,25.07,3.67ZM215,40.51c.57,2.86-1.64,8.06-4.22,11.55-3.68,5.12-9.52,5.24-7.44-2.05.32-1.15,3-10.49,10.95-11.22A4.81,4.81,0,0,1,215,40.51Z"/><polygon class="cls-3" points="224.96 16.77 224.97 16.77 225.54 19.35 226.05 19.35 226.62 16.77 226.63 16.77 226.63 19.35 227.23 19.35 227.23 16.12 226.26 16.12 225.8 18.4 225.79 18.4 225.33 16.12 224.36 16.12 224.36 19.35 224.96 19.35 224.96 16.77"/><path class="cls-3" d="M229.29,19.25a.83.83,0,0,0,.34-.3,1.28,1.28,0,0,0,.18-.52,5.27,5.27,0,0,0,.05-.74,4.36,4.36,0,0,0,0-.65,1.41,1.41,0,0,0-.16-.49.76.76,0,0,0-.32-.32,1.22,1.22,0,0,0-.55-.11h-1.06v3.23h1A1.21,1.21,0,0,0,229.29,19.25Zm-.91-.38V16.6h.27a.6.6,0,0,1,.3.07.51.51,0,0,1,.17.21,1.08,1.08,0,0,1,.07.35c0,.13,0,.3,0,.48s0,.4,0,.55a1.07,1.07,0,0,1-.08.36.4.4,0,0,1-.17.19.54.54,0,0,1-.27.06Z"/><polygon class="cls-3" points="231.58 16.06 231.07 16.06 230.06 19.4 230.56 19.4 231.58 16.06"/><path class="cls-3" d="M232.19,18.92a1.58,1.58,0,0,0,.53.35,1.62,1.62,0,0,0,.66.13,1.69,1.69,0,0,0,1.18-.48,1.47,1.47,0,0,0,.36-.53,1.57,1.57,0,0,0,.13-.65,1.62,1.62,0,0,0-.13-.66,1.47,1.47,0,0,0-.36-.53,1.77,1.77,0,0,0-.53-.36,1.57,1.57,0,0,0-.65-.13,1.62,1.62,0,0,0-.66.13,1.71,1.71,0,0,0-.89.89,1.62,1.62,0,0,0-.13.66,1.57,1.57,0,0,0,.13.65A1.77,1.77,0,0,0,232.19,18.92Zm.1-1.65a1.19,1.19,0,0,1,.25-.38,1.23,1.23,0,0,1,.37-.26,1.19,1.19,0,0,1,.47-.09,1.14,1.14,0,0,1,.46.09,1.28,1.28,0,0,1,.38.26,1.36,1.36,0,0,1,.24.38,1.23,1.23,0,0,1,.09.47,1.22,1.22,0,0,1-.09.46,1.23,1.23,0,0,1-.24.38,1.12,1.12,0,0,1-.38.26,1.14,1.14,0,0,1-.46.09,1.19,1.19,0,0,1-.47-.09,1.08,1.08,0,0,1-.37-.26,1.09,1.09,0,0,1-.25-.38,1.22,1.22,0,0,1-.09-.46A1.23,1.23,0,0,1,232.29,17.27Z"/><path class="cls-3" d="M233.12,17.91h.14l.43.73h.43l-.44-.75a.5.5,0,0,0,.31-.14.47.47,0,0,0,.13-.36A.48.48,0,0,0,234,17a.77.77,0,0,0-.52-.15h-.71v1.81h.4Zm0-.76h.38l.11,0a.27.27,0,0,1,.08.07.21.21,0,0,1,0,.12c0,.1,0,.16-.08.19a.67.67,0,0,1-.22,0h-.3Z"/><polygon class="cls-2" points="222.58 370.24 223.46 370.88 223.69 370.65 222.58 370.24"/><polygon class="cls-5" points="304.21 173.53 297.82 151.75 257.05 158.04 268.32 180.68 304.21 173.53"/><path class="cls-5" d="M247.36,205.24l8.47-10.44,5.48,1.34L264.14,183l-9.61-19.32-8,40.79Z"/><polygon class="cls-5" points="227 354.97 227.44 352.94 226.74 352.67 227 354.97"/><polygon class="cls-5" points="224.64 365.89 225.2 363.3 219.33 363.92 224.64 365.89"/><polygon class="cls-5" points="216.57 135.93 175.69 127.44 172.35 148.32 208.56 157.38 216.57 135.93"/><path class="cls-5" d="M229.08,205.78c2.61.1,5.28.59,6.91-1.37a7.87,7.87,0,0,1,3.71-2.73l-19.89-60.09L213,159.9Z"/><polygon class="cls-5" points="417.02 150.98 400.4 142.87 374.41 157.58 391.26 169.26 417.02 150.98"/><polygon class="cls-5" points="416.93 258.11 430.11 211.76 420.32 153.76 394.13 173.85 416.93 258.11"/><polygon class="cls-5" points="485.54 202.98 481.36 182.61 442.13 190.12 450.87 211.14 485.54 202.98"/><path class="cls-5" d="M431.21,264.3l15.49-50.8-7.45-17.93L420.7,260.69a22.34,22.34,0,0,0,8.4,3.2C429.84,264,430.53,264.15,431.21,264.3Z"/><path class="cls-4" d="M412.27,399.64l6.05-14.93L540.65,282.56l-20.87-51.27-34.42,7.77-5.24,5.56a20.67,20.67,0,0,0-3.74-3.17l14.29-35.25L485,177.49l-47.77,9.1-4.51,15.86-8.7-51.55-24.78-12.35-31.49,17.16L384.26,212,378,213.29c.94-6.53.2-10.7-4.46-14.45-2.61-2.11-5-4.6-7.6-6l1.43-18.65-19.87-15.35L314.39,175l.85,31.36a9.19,9.19,0,0,0-6.78,5.19,10.83,10.83,0,0,0-1.17,3.93c2.73-.06,5.51-.06,8.19.07l.41,15.22c-1.55-.73-3.3-.6-5.82,2.15-2.68,2.92-8.25-.21-10.17,4s3,5,4.17,7.54a3.87,3.87,0,0,1,.26,1.32l-7.15,4.2-6.81-32L287,202.47l-21.22-5.22,2.55-11.8,36.39-7.26-12.47,39.13a28.62,28.62,0,0,1,5.33-1.51l12.32-38.65-8.72-30.68-49.66,7.6L243,197.76l-21.62-65.37L171.65,122.1l-4.44,29.45,10.45,23.2-1-.33-15.5,16,1.68,7.63c-3.58.37-6.79,1.55-8.75,5.5-1.54,3.09-1.48,5.44-.6,7.4l-9,4.24,15.28-38L147.63,160l-31.23,6.1-15.72,54.17L82.58,193.1l-25,.39-16,33.44,20.56,24.79-9.22-6.81-32.75-1.44L13.48,296.6l55.73,32.06L67,336.38,87.21,341l30.21,159,35.72-2.89-7-92.76,9.43,58.08,43.15,2.57-2-49.79,15.69,18.05,40.87-34.26,15,37.13L295,438l11.84,26.57-8.41,20.81,34.1,18.91,47.59-87.65,23.76-19.84Zm-2.21-5.74-1.95-.67,3.36-2.8ZM516.64,237.3l17.1,42.12-28.15,1.13-13.48-37.94Zm-29.33,7.24L501,283l-91.63,79.77L440,306.25l-.92-10.58,17.77-18.85c.46.92,1.38,1.42,3.12,1.17,6.59-.92,6.08-7.25,11.84-8.18s9.86.43,11.5-7.84c1.27-6.35,1.86-10.29.2-13.44Zm-91.23,59-7.13-25,43.62-.28,2.24,23.4Zm-7.74,75.13L380,391.64l-173.27-72,1.21-38Zm-52.47,76.76L327.55,458,301,381.73l12.24,4.78ZM327,414.68l-.4-1.2,4.42-20L335,395Zm-3.11-9.48-5.46-16.65,8.41,3.29Zm5.46,16.64,10.14-25L350.36,401l-15.75,36.85ZM181.72,329.73l21.6-6.25,174,72.3-5.45,8.49Zm14.15,66.2-.5-12.23,10.08,6.07-7.19,7.54Zm-.73-18-.93-22.66,25.91,19.14-11.24,11.79Zm13.93-32.16-10.21,4.31-5.05-4.54-.17-4.06,2.09-.93Zm14,5.46.93,8.15-7.17.76-1.54-11.71.3-.13Zm-9.72,9.28-3.43.36-8.77-6.48,10.79-4.54ZM227,355l-.26-2.31.7.28Zm-1.8,8.33-.56,2.59-5.31-2Zm-2.62,6.94,1.11.41-.23.24Zm9.24-15.59L236,356.3l.39,1-6.69,7Zm-28.4-95.79-7.13-54,8.51-13.44,7.58,66.49a86.5,86.5,0,0,1,8.68.05l-1.61,10.58,8.09,18.15-15.6-8.39a10.73,10.73,0,0,0,.07-2.52c-.67-6.2-6.76-15.82-16.9-7.81a4.81,4.81,0,0,1-4.44,1l-.25-6.05a55.31,55.31,0,0,1,9.6-3.5C201.14,259.2,202.28,259,203.42,258.86Zm71.32-34.14,2.4,10.31c-3.69-1.89-8-1.62-14.32,4.79a11,11,0,0,1-7,2.94L246.3,213.2Zm17.08,96.56-14.58-7.84-12.43-35.73,6.8-18Zm-58.27-31.34-8.91-20,36.38,9.8,10.68,30.7Zm-5.67-45.08,40.52,9.19-8,21.09-35.88-9.66Zm20.81-13.26L252.35,243c-3.16.06-6.37,0-9.12.9l-19.36-4.37-2.5,16.44-6-3.39L214,240.6Zm-64.95,60.66,19.34-9.5-2.51,36.3-22.68,7.22Zm150.44-9,1.35-21,21.44,10c-.82,5.91,5.19,8.6,8.67,12.36l1,10Zm15.44-54.38,9.16,18.25-4.12,18.67-11.35-5.49ZM393.75,254c-2.87-.07-6.23,1.42-10.57,5.79-6.49,6.55-18.89-.58-24.36,7.71l4-18.26,35.26-8.86ZM367.5,303.27c.46,1.41,1.52,2.31,3.6,2.37L351.74,353.5l-10.63-5.72,6.06-27.47Zm-11.42,52.57L385.19,284l6.08,21.36-24.13,56.45ZM481.36,182.61,485.54,203l-34.67,8.16-8.74-21Zm-51.25,29.15-13.18,46.35-22.8-84.26,26.19-20.09ZM400.4,142.87,417,151l-25.76,18.28-16.85-11.68Zm-26.29,19.25,15.63,11.47,22,81.25c3,1.72,5.84,4,9,5.85l18.55-65.12,7.45,17.93-15.49,50.8a24.45,24.45,0,0,1,4.06,1.3l15.24-50,35.15-8.26L472,241a13,13,0,0,0-5.1,3.9c-4.44,4.94-13.11-.94-16.4,6.41s4.53,9,6.18,13.54a10.59,10.59,0,0,1,.26,4.35l-7.63,8.1-10.84,11.49-1.35-15.44-27.16.15c.47-5.32-.57-9-4.69-12.32-2.53-2-4.81-4.43-7.34-5.87l.77-2.41c.59-.15,1.19-.3,1.75-.39l-.78-2.65,3.43-10.71-8.21-29.3-6.51,1.34Zm17.49,53,6,20.78-34.78,8.75L352.1,223.24Zm-31.4,1.84-13.38,2.75-7.72,38.55-4.28-2.07-.51-59.35L363.26,177Zm-12.68-53.35,13.37,10.12L332.77,191.6l-12.73-14Zm-28.84,18.92,11.65,13.69.54,62.05L321,268.65ZM300.49,282.3a16.26,16.26,0,0,1,4.16,2.8l-6.37-29.87,18-10.57.76,28.11L305,285.41a35.32,35.32,0,0,1,3,3.3l23-24.14-1.87,19.87-13.27,13.39a21.85,21.85,0,0,0,3.59,2.58l12-12.1,34.47,10.63-20.72,17.37a21.13,21.13,0,0,1,.81,7.23c-.12,2.24-2.1,4-5.31,5.45L337,345.6l-9.8-5.28.8-4,6.38-5.35c-2.57.61-5.45,1.1-8.53,1.51l-5.16,4.32-6.06-3.26-17.32-9.32-13.14-40.08L280.54,273a8.55,8.55,0,0,0,4.68-3.07L288,282a15.9,15.9,0,0,1,3.33-.76l-3.81-16.46c.12-.43.24-.85.34-1.33,2.52-11.42,3.35-17.21-2.95-22.28-1.23-1-2.41-2.08-3.58-3.1L278,223.45l7-13.82Zm-17.68-76.61L275,220l-27.34-10,9.18-11.1Zm15-53.94,6.39,21.78-35.89,7.15L257.05,158Zm-43.29,11.94L264.14,183l-2.83,13.13-5.48-1.34-8.47,10.44-.81-.76Zm-14.83,38a7.87,7.87,0,0,0-3.71,2.73c-1.63,2-4.3,1.47-6.91,1.37L213,159.9l6.84-18.31Zm-64-74.24,40.87,8.49-8,21.45-36.21-9Zm-3.25,25.41,36.7,9.18,15.62,44.51a6.58,6.58,0,0,0-2.74,4.11c-1.17,4.07,2.67,6.91,2.3,9.94a5.26,5.26,0,0,1-1.09,2.3c-1.83,2.54-5.33,5.72-5.85,11,0,.26,0,.53,0,.79l-3.94,1-2.1-18.54-3.73-32.84-24.54-7.87Zm4.8,25.74L203,187.31l-9.41,13.86-26.8-12Zm-12.13,13.72,27.76,13.62,6.41,48.47a9.72,9.72,0,0,0-1.27-.47c-3.72-1-2-7.53-8.26-7l-.55-13.41-21.33-29.36-.14.06Zm1.16,18.44,15.35,20.77-35.78,18.85-20.93-20.14Zm-26.18,6.44-18.88,8.87a16.87,16.87,0,0,0-4.83-3.71l10.45-33.79,28.79-10Zm6.27-53.27,8.2,11.37L127,183.89l-6.64-14.46Zm-28.46,9.28,5.86,14-10.85,35.05a8.38,8.38,0,0,0-3.43,2.66c-1.17,1.41-2.88,1.55-4.72,1.48l-1.61-2.42Zm-17.83,53.16c-1.92.35-3.61,1.48-4.55,4.75-1.17,4.07,2.67,6.92,2.3,9.94s-6.25,6.31-6.94,13.34a10.83,10.83,0,0,0,.07,2.67l-20.38-25.5,10.5-33.67ZM60.49,197.23l16.71-.43-11,31.63-18.6-3Zm-11,32.89,17.56,3.44L93.63,266.8c4.34-5.26,9.12-10.48,16.39-12.43a39.24,39.24,0,0,1,11.56-1.27l3.16,19.49-5.95-7.67L98.5,278.59l-9.08-6.7L75.78,261.81Zm52.67,79.27-18-15.69,33.5-22.62L131.08,288Zm-7.9-27.95-16.3,11,3.2,16.88-18.2-11c-.31-3.82-4.92-5.9-4.23-9.7.77-4.26,3.15-6.52-4-10.82-1.62-1-3-1.82-4.37-2.55l2-24.73ZM24.38,248.7l23.3.83-1.93,23.6a9.78,9.78,0,0,0-6.27-.2c-4.51,1.38-10.32,1.42-4.95,9.44,1.89,2.83.11,5.23-.64,7.72L19,292.34Zm-.58,48.12L35,295.13a9.28,9.28,0,0,0,.83.83c5.81,5.07,9.47.37,14.14,1a11.45,11.45,0,0,1,3.19,1.08L82.4,315.69l3.17,16.71ZM71.37,333.3l.84-2.91,6.16,3.54-.29.92ZM121,495,84,299.84l15.34,13.38,30.74,181.06Zm13.53-1.1L103.93,313.66,133.23,292l15.17,200.8Zm25.56-36.4L141.44,342.24l-4-53.34-5.81-7.48-7.19-44.48,17.86,17.19,28.81,204.05Zm33.12,2-16.76-1L147.76,255.35,184,236.23l1.21,29.4c-4.32-3.65-8.54-8.05-12.83-2.37-2.87,3.81-11.38-2.59-12.85,5.64-.67,3.79,3.39,6.5,3.38,9.32s-5.36,5.83-5.23,12.39,7,13.19,13.09,13.13a11.7,11.7,0,0,0,6-1.52L171.41,331l16.79,6.57L191,405l-1.69,1.78,1.85,2.14Zm2.2-52.85,46-48.23,10.36,4.05-50.51,50.94ZM213.12,427l-9-10.32,52.07-52.52,7.12,2.78,5.83,13.08Zm60.73,5.25-15.19-37.8,12.28-10.29L289,433.31Zm-5-63.14,26.93,10.54,27.7,79.58-12.71,3.9ZM304.6,482.93l5.88-14.51,12.75-3.92-9.94,23.26Zm26.17,14.52-13.25-7.35,11.74-27.45,12.23-3.76-4.61-14.06,18-42,18.94,7.41,21.42-33.33-23.81-12.8,23.77-55.6,39.27-2Zm56.07-93.23,15.43-28.42,103.45-90.06,24-1Z"/><polygon class="cls-5" points="533.74 279.42 516.64 237.29 492.11 242.61 505.59 280.55 533.74 279.42"/><path class="cls-5" d="M483.34,262c-1.64,8.27-5.74,6.92-11.5,7.84S466.59,277.07,460,278c-1.74.25-2.66-.25-3.12-1.17l-17.77,18.85.92,10.58-30.68,56.52L501,283l-13.67-38.46-3.77,4C485.2,251.68,484.61,255.62,483.34,262Z"/><polygon class="cls-5" points="154.56 175.29 146.37 163.92 120.32 169.43 126.97 183.89 154.56 175.29"/><path class="cls-5" d="M116.39,222.35a16.87,16.87,0,0,1,4.83,3.71l18.88-8.87,15.53-38.65-28.79,10Z"/><polygon class="cls-5" points="77.2 196.8 60.49 197.23 47.55 225.4 66.15 228.43 77.2 196.8"/><path class="cls-5" d="M91,257.06a10.83,10.83,0,0,1-.07-2.67c.69-7,6.58-10.32,6.94-13.34s-3.47-5.87-2.3-9.94c.94-3.27,2.63-4.4,4.55-4.75l-19-28.47-10.5,33.67Z"/><path class="cls-5" d="M214,240.6l1.36,11.94,6,3.39,2.5-16.44,19.36,4.37c2.75-.92,6-.84,9.12-.9l-3.66-11.36Z"/><polygon class="cls-5" points="193.59 201.17 203 187.31 177.25 178.59 166.79 189.14 193.59 201.17"/><polygon class="cls-5" points="209.87 360.85 213.3 360.49 211.89 349.82 201.1 354.37 209.87 360.85"/><path class="cls-5" d="M167.88,204.15l21.33,29.36.55,13.41c6.23-.52,4.54,6,8.26,7a9.72,9.72,0,0,1,1.27.47l-6.41-48.47-27.76-13.62,2.62,11.9Z"/><path class="cls-5" d="M317,272.77l-.76-28.11-18,10.57,6.37,29.87c.11.1.21.21.31.31Z"/><polygon class="cls-5" points="360.89 173.71 347.52 163.59 320.04 177.58 332.76 191.6 360.89 173.71"/><polygon class="cls-5" points="334.82 256.17 339.1 258.24 346.82 219.69 360.2 216.94 363.26 176.99 334.31 196.82 334.82 256.17"/><polygon class="cls-5" points="256.81 198.87 247.63 209.97 274.97 219.99 282.81 205.69 256.81 198.87"/><path class="cls-5" d="M246.3,213.2l9.52,29.56a11,11,0,0,0,7-2.94c6.36-6.41,10.63-6.68,14.32-4.79l-2.4-10.31Z"/><path class="cls-5" d="M285.22,269.9a8.55,8.55,0,0,1-4.68,3.07l3.67,11.2A12,12,0,0,1,288,282Z"/><path class="cls-5" d="M34.53,282.37c-5.37-8,.44-8.06,4.95-9.44a9.78,9.78,0,0,1,6.27.2l1.93-23.6-23.3-.83L19,292.34l14.94-2.25C34.64,287.6,36.42,285.2,34.53,282.37Z"/><polygon class="cls-5" points="194.21 355.25 195.13 377.91 208.88 386.18 220.12 374.39 194.21 355.25"/><path class="cls-5" d="M54.79,277.82c7.11,4.3,4.73,6.56,4,10.82-.69,3.8,3.92,5.88,4.23,9.7l18.2,11L78,292.42l16.3-11-41.84-30.9-2,24.73C51.74,276,53.17,276.84,54.79,277.82Z"/><polygon class="cls-5" points="124.92 230.23 145.85 250.37 181.63 231.52 166.28 210.75 124.92 230.23"/><path class="cls-5" d="M191,405l-2.76-67.38L171.41,331l5.42-28.79a11.7,11.7,0,0,1-6,1.52c-6.06.06-13-6.57-13.09-13.13s5.22-9.56,5.23-12.39-4-5.53-3.38-9.32c1.47-8.23,10-1.83,12.85-5.64,4.29-5.68,8.51-1.28,12.83,2.37L184,236.23l-36.28,19.12L176.44,458.5l16.76,1-2.08-50.62-1.85-2.14Z"/><polygon class="cls-5" points="117.7 271.08 84.2 293.69 102.18 309.39 131.08 288.02 117.7 271.08"/><polygon class="cls-5" points="133.23 291.99 103.93 313.66 134.53 493.92 148.4 492.79 133.23 291.99"/><polygon class="cls-5" points="352.1 223.24 362.84 244.63 397.62 235.88 391.6 215.1 352.1 223.24"/><polygon class="cls-5" points="323.89 405.2 326.84 391.84 318.43 388.55 323.89 405.2"/><polygon class="cls-5" points="343.31 260.28 354.66 265.77 358.78 247.1 349.62 228.85 343.31 260.28"/><path class="cls-5" d="M334.42,331,328,336.35l-.8,4,9.8,5.28L340.71,329A37.35,37.35,0,0,1,334.42,331Z"/><path class="cls-5" d="M366.67,294.55l-1-10c-3.48-3.76-9.49-6.45-8.67-12.36l-21.44-10-1.35,21Z"/><polygon class="cls-5" points="269.16 380.06 263.33 366.99 256.21 364.2 204.14 416.72 213.12 427.04 269.16 380.06"/><path class="cls-5" d="M314.67,333.57l6.06,3.26,5.16-4.32C322.35,333,318.55,333.31,314.67,333.57Z"/><path class="cls-5" d="M322.9,302c5.46,1.77,18.88,3,22.31,14.35l20.72-17.37-34.47-10.63-12,12.1A18,18,0,0,0,322.9,302Z"/><path class="cls-6" d="M211.36,217.2l2.1,18.54,3.94-1c0-.26,0-.53,0-.79.52-5.32,4-8.5,5.85-11-1-.73-2.05-1.45-3.09-2.15A30.33,30.33,0,0,0,211.36,217.2Z"/><path class="cls-6" d="M400.49,252.48c-.56.09-1.16.24-1.75.39l-.77,2.41c2.53,1.44,4.81,3.84,7.34,5.87,4.12,3.33,5.16,7,4.69,12.32l27.16-.15,1.35,15.44,10.84-11.49c-4.31-4.63-8.11-9.15-14.08-11.67a24.45,24.45,0,0,0-4.06-1.3c-.68-.15-1.37-.31-2.11-.41a22.34,22.34,0,0,1-8.4-3.2c-3.13-1.87-5.95-4.13-9-5.85A16.5,16.5,0,0,0,400.49,252.48Z"/><path class="cls-6" d="M290.37,218.09l6.81,32,7.15-4.2a3.87,3.87,0,0,0-.26-1.32c-1.13-2.57-6.08-3.29-4.17-7.54s7.49-1.12,10.17-4c2.52-2.75,4.27-2.88,5.82-2.15l-.41-15.22c-2.68-.13-5.46-.13-8.19-.07s-5.44.15-7.84.15a13.64,13.64,0,0,0-1.83.15,28.62,28.62,0,0,0-5.33,1.51C291.66,217.56,291,217.81,290.37,218.09Z"/><path class="cls-6" d="M190.42,263l.25,6.05a4.81,4.81,0,0,0,4.44-1c10.14-8,16.23,1.61,16.9,7.81a10.73,10.73,0,0,1-.07,2.52l15.6,8.39-8.09-18.15L221.06,258a86.5,86.5,0,0,0-8.68-.05,74.75,74.75,0,0,0-9,.93c-1.14.18-2.28.34-3.4.59A55.31,55.31,0,0,0,190.42,263Z"/><path class="cls-6" d="M98.5,278.59l20.29-13.67,5.95,7.67-3.16-19.49A39.24,39.24,0,0,0,110,254.37c-7.27,1.95-12,7.17-16.39,12.43-1.42,1.73-2.81,3.46-4.21,5.09Z"/><path class="cls-6" d="M294.57,281a23.93,23.93,0,0,0-3.21.22A15.9,15.9,0,0,0,288,282a12,12,0,0,0-3.82,2.17l13.14,40.08,17.32,9.32c3.88-.26,7.68-.6,11.22-1.06,3.08-.41,6-.9,8.53-1.51a37.35,37.35,0,0,0,6.29-2c3.21-1.42,5.19-3.21,5.31-5.45a21.13,21.13,0,0,0-.81-7.23c-3.43-11.38-16.85-12.58-22.31-14.35a18,18,0,0,1-3.44-1.55,21.85,21.85,0,0,1-3.59-2.58c-3.07-2.72-5.42-6.1-7.9-9.12a35.32,35.32,0,0,0-3-3.3c-.1-.1-.2-.21-.31-.31a16.26,16.26,0,0,0-4.16-2.8A14,14,0,0,0,294.57,281Z"/><polygon class="cls-5" points="432.57 278.25 388.95 278.52 396.08 303.56 434.81 301.64 432.57 278.25"/><polygon class="cls-5" points="385.19 283.96 356.08 355.83 367.14 361.78 391.27 305.33 385.19 283.96"/><polygon class="cls-5" points="310.48 468.42 304.6 482.94 313.29 487.76 323.23 464.5 310.48 468.42"/><polygon class="cls-5" points="350.36 401.04 339.49 396.79 329.35 421.84 334.61 437.89 350.36 401.04"/><polygon class="cls-5" points="224.55 265.48 260.43 275.14 268.4 254.05 227.88 244.86 224.55 265.48"/><polygon class="cls-5" points="271.61 259.72 264.81 277.71 277.24 313.44 291.82 321.28 271.61 259.72"/><polygon class="cls-5" points="313.24 386.51 301 381.73 327.55 458.02 335.87 455.45 313.24 386.51"/><polygon class="cls-5" points="177.9 326.28 200.56 319.06 203.08 282.76 183.74 292.26 177.9 326.28"/><path class="cls-7" d="M304.76,178.19l-36.39,7.26-2.55,11.8L287,202.47l3.33,15.62c.65-.28,1.29-.53,1.92-.77Z"/><polygon class="cls-7" points="236.03 356.3 231.82 354.65 229.73 364.31 236.43 357.29 236.03 356.3"/><path class="cls-7" d="M211.36,217.2a30.33,30.33,0,0,1,8.79,3.54c1,.7,2.07,1.42,3.09,2.15a5.26,5.26,0,0,0,1.09-2.3c.37-3-3.47-5.87-2.3-9.94a6.58,6.58,0,0,1,2.74-4.11L209.15,162l-36.7-9.18,10.64,23.64,24.54,7.87Z"/><path class="cls-7" d="M403.14,239.12l-3.43,10.71.78,2.65a16.5,16.5,0,0,1,11.24,2.36l-22-81.25-15.63-11.47,14.31,49,6.51-1.34Z"/><polygon class="cls-7" points="410.06 393.9 411.47 390.43 408.11 393.23 410.06 393.9"/><path class="cls-7" d="M449.35,277.27l7.63-8.1a10.59,10.59,0,0,0-.26-4.35c-1.65-4.59-9.47-6.19-6.18-13.54s12-1.47,16.4-6.41A13,13,0,0,1,472,241l13.62-33.59-35.15,8.26-15.24,50C441.24,268.12,445,272.64,449.35,277.27Z"/><polygon class="cls-7" points="529.74 284.78 505.72 285.74 402.27 375.8 386.84 404.22 529.74 284.78"/><path class="cls-7" d="M109.49,224.87a8.38,8.38,0,0,1,3.43-2.66l10.85-35.05-5.86-14-14.75,50.73,1.61,2.42C106.61,226.42,108.32,226.28,109.49,224.87Z"/><polygon class="cls-7" points="72.21 330.39 71.37 333.3 78.08 334.85 78.37 333.93 72.21 330.39"/><path class="cls-7" d="M89.42,271.89c1.4-1.63,2.79-3.36,4.21-5.09L67.07,233.56l-17.56-3.44,26.27,31.69Z"/><polygon class="cls-7" points="258.67 394.5 273.85 432.29 289.01 433.31 270.94 384.2 258.67 394.5"/><polygon class="cls-7" points="216.78 360.12 223.95 359.36 223.02 351.21 215.54 348.28 215.24 348.41 216.78 360.12"/><path class="cls-7" d="M212.38,257.93l-7.58-66.49-8.51,13.44,7.13,54A74.75,74.75,0,0,1,212.38,257.93Z"/><polygon class="cls-7" points="193.64 341.46 193.81 345.52 198.86 350.06 209.07 345.75 195.73 340.53 193.64 341.46"/><polygon class="cls-7" points="320.95 268.65 330.87 258.25 330.33 196.2 318.68 182.51 320.95 268.65"/><path class="cls-7" d="M281.36,238.07c1.17,1,2.35,2.1,3.58,3.1,6.3,5.07,5.47,10.86,2.95,22.28-.1.48-.22.9-.34,1.33l3.81,16.46a23.93,23.93,0,0,1,3.21-.22,14,14,0,0,1,5.92,1.28L285,209.63l-7,13.82Z"/><polygon class="cls-7" points="195.37 383.7 195.88 395.93 198.26 397.31 205.45 389.77 195.37 383.7"/><path class="cls-7" d="M85.57,332.4,82.4,315.69,53.13,298.07A11.45,11.45,0,0,0,49.94,297c-4.67-.66-8.33,4-14.14-1a9.28,9.28,0,0,1-.83-.83L23.8,296.82Z"/><polygon class="cls-7" points="142.27 254.13 124.41 236.94 131.6 281.42 137.41 288.9 141.44 342.24 160.09 457.52 171.08 458.18 142.27 254.13"/><polygon class="cls-7" points="99.34 313.22 84.01 299.84 120.99 495.01 130.09 494.28 99.34 313.22"/><polygon class="cls-7" points="326.6 413.48 327 414.68 334.95 395.01 331.02 393.47 326.6 413.48"/><path class="cls-7" d="M362.86,249.25l-4,18.26c5.47-8.29,17.87-1.16,24.36-7.71,4.34-4.37,7.7-5.86,10.57-5.79l4.37-13.62Z"/><path class="cls-7" d="M347.17,320.31l-6.06,27.47,10.63,5.72,19.36-47.86c-2.08-.06-3.14-1-3.6-2.37Z"/><path class="cls-7" d="M315.87,297.83l13.27-13.39L331,264.57l-23,24.14C310.45,291.73,312.8,295.11,315.87,297.83Z"/><polygon class="cls-7" points="251.79 362.47 241.43 358.42 195.4 406.65 201.28 413.42 251.79 362.47"/><polygon class="cls-7" points="434.44 306.53 395.17 308.48 371.4 364.08 395.21 376.88 373.79 410.21 354.85 402.8 336.88 444.82 341.49 458.89 329.26 462.65 317.52 490.1 330.77 497.45 434.44 306.53"/><polygon class="cls-7" points="261.02 279.76 224.64 269.96 233.55 289.94 271.7 310.46 261.02 279.76"/><polygon class="cls-7" points="323.49 459.27 295.79 379.69 268.86 369.15 310.78 463.17 323.49 459.27"/><polygon class="cls-7" points="371.9 404.27 377.36 395.78 203.32 323.48 181.72 329.73 371.9 404.27"/><polygon class="cls-7" points="207.96 281.68 206.75 319.64 380.02 391.64 388.34 378.69 207.96 281.68"/><path class="cls-8" d="M411.45,300.58c4,0,24.37,7.16,38.17,9.06,6.53.91,11.49,2.39,19.77,10,4.46,4.11-57.08,6.41-57.08,6.41Z"/><path class="cls-8" d="M86.61,305.59c-4.3,0-18,4.37-20.46,6.92s-6.9,7.63-7.51,10.18,25.75,2.54,25.75,2.54Z"/><path class="cls-8" d="M100.17,323c25.29-2.86,51.5-38.16,73.57-21.94,33.78,24.83,12.87,30.53,12.87,30.53L100.17,323"/><path class="cls-4" d="M258.39,305.61c2.59,2.24-7,5.92-3.18,7.9s5.4-.66,7.93-.33,4.13,5.26,8.88,3.29,8.36-3.28,5.72-8.23c-3.18-5.92-8.54-.25-10.79-4.28C263.46,297.71,252.68,300.67,258.39,305.61Z"/><path class="cls-9" d="M397,324.92C347.43,324,290.57,323.51,260,323.5h-.95c-30.61,0-87.48.51-137,1.42-42.92.8-87.4,1.89-93.25,3.92-.51.62-2.77,4.42.09,20.34h.57a6.52,6.52,0,0,1,6.36,5.68L71.11,565.38a6.47,6.47,0,0,0,6.36,5.68H441.59a6.48,6.48,0,0,0,6.37-5.68L483.2,354.86a6.52,6.52,0,0,1,6.36-5.68h.57c2.87-15.93.59-19.73.1-20.34C484.37,326.81,439.89,325.72,397,324.92Z"/><path class="cls-10" d="M397,324.92C347.43,324,290.57,323.51,260,323.5h-.95c-30.61,0-87.48.51-137,1.42-42.92.8-87.4,1.89-93.25,3.92-.51.62-2.77,4.42.09,20.34h.57a6.52,6.52,0,0,1,6.36,5.68L71.11,565.38a6.47,6.47,0,0,0,6.36,5.68H441.59a6.48,6.48,0,0,0,6.37-5.68L483.2,354.86a6.52,6.52,0,0,1,6.36-5.68h.57c2.87-15.93.59-19.73.1-20.34C484.37,326.81,439.89,325.72,397,324.92Z"/><path class="cls-11" d="M261.83,348.12h-4.59c-78.7.22-155.25,1.93-207.83,4.47,0,0,22.07,141.22,75.4,163.16,25.6,10.54,80.64,14.69,134.72,14.16,54.09.53,109.13-3.62,134.72-14.16,53.34-21.94,75.41-163.16,75.41-163.16C417.08,350.05,340.53,348.34,261.83,348.12Z"/><path class="cls-12" d="M109.38,419.22l-12,58.66c17.1-1.41,29.62-24.42,29.62-43.2,0-13-6.09-23.9-21-23.9-27.41,0-43.83,16-43.83,42.68,0,9,2.2,10.37,2.37,11.94-11.68,0-18.11-4.39-18.11-17,0-23.36,31.14-45.66,59.41-45.66,27.75,0,39.94,16.51,39.94,34.59,0,22.31-18.45,47.07-48.92,47.07H96l-10.33,50H61.31l23-111.69Z"/><path class="cls-12" d="M192,476a3.75,3.75,0,0,0,1.78.33c7.4,0,17.86-5,24.78-10l1.44,4.51c-6.11,6.85-16.73,11.85-28.48,13.86-2.57,30.89-18.66,50.25-38.46,50.25-15,0-25.74-7.34-25.74-26.37,0-19.21,10.93-59.28,44.08-59.28C185.26,449.28,192,458.47,192,476Zm-13.83,9.18c-3.38-.84-4.35-3.67-4.35-7,0-4.67,2.09-7.67,5-9-.32-7-1.93-9.68-6.11-9.68-11.43,0-21.4,30.55-21.4,46.92,0,11,2.08,13.52,8.2,13.52C167.4,519.91,175.6,504.88,178.18,485.18Z"/><path class="cls-12" d="M274.08,450.78,262.5,507.56a23.48,23.48,0,0,0-.64,5.34c0,4.67,2.09,6.17,6.59,6.17,6.28,0,10.62-6.34,13-14.68h6.76c-9.17,27.21-23.65,30.88-32.33,30.88-9.18,0-15-5.51-15.94-15.86-8.05,13.69-17.06,15.86-23.82,15.86-9.65,0-17.22-6-17.22-20a57,57,0,0,1,1.29-10.84l10.94-53.61h23.18l-11.59,56.78a24.36,24.36,0,0,0-.48,4.67c0,3.84,1.29,6.84,4.83,6.84,6.27,0,10.46-6.34,12.87-14.68l10.94-53.61Z"/><path class="cls-12" d="M321.07,424.4l-5.47,26.38h9.66l-1.3,6.68h-9.65L304,507.56a23.56,23.56,0,0,0-.65,5.34c0,4.67,2.09,6.17,6.59,6.17,6.28,0,12.07-6.34,14.49-14.68h6.76c-9.18,27.21-25.11,30.88-33.8,30.88-9.65,0-17.21-6-17.21-20a56.87,56.87,0,0,1,1.28-10.84l9.67-46.93h-5.32l1.28-6.68h5.32l4.83-23Z"/><path class="cls-12" d="M358.57,450.78,347,507.56a24.06,24.06,0,0,0-.64,5.34c0,4.67,2.09,6.17,6.6,6.17,6.28,0,12.07-6.34,14.48-14.68h6.76c-9.17,27.21-25.11,30.88-33.79,30.88-9.65,0-17.22-6-17.22-20a56.15,56.15,0,0,1,1.29-10.84l10.94-53.61Zm-7.25-35.56a13.16,13.16,0,0,1,12.87,13.36,13,13,0,0,1-12.87,13.18,12.87,12.87,0,0,1-12.71-13.18C338.61,421.23,344.24,415.22,351.32,415.22Z"/><path class="cls-12" d="M408,465.31c-5.79,0-10.13,7-12.55,15.36l-10.94,53.6H361.29l17.06-83.49h23.18l-1.78,8.69c6.76-8,13.84-9.36,18.83-9.36,10.3,0,17.86,5.51,17.86,18.87,0,13.53-7.72,33.74-7.72,43.08,0,4.18,1.61,7,6.43,7,7.08,0,10-6,13.52-14.68h6.76c-9,27.37-21.4,30.88-29.93,30.88-14,0-19-9.34-19-18.86,0-11.36,7.24-31.9,7.24-42.58C413.75,468.32,411.82,465.31,408,465.31Z"/><path class="cls-12" d="M480.21,519.41c6.11,0,13.84-4.18,19-8.85-3.38,19-15,24.71-27.84,24.71-15,0-24.95-7.68-24.95-26.55,0-19.2,10.47-59.44,43.45-59.44,14.32,0,17.7,7.68,17.7,16,0,19.37-17.7,34.06-37,35.23-.16,1.68-.32,3.51-.32,5C470.23,516.07,474.58,519.41,480.21,519.41Zm10.94-61.28c-8,0-16.09,18.53-19.47,34.39,12.55-.66,23.49-13.52,23.49-27.55C495.17,460.8,494.21,458.13,491.15,458.13Z"/><path d="M109.38,419.22l-12,58.66c17.1-1.41,29.62-24.42,29.62-43.2,0-13-6.09-23.9-21-23.9-27.41,0-43.83,16-43.83,42.68,0,9,2.2,10.37,2.37,11.94-11.68,0-18.11-4.39-18.11-17,0-23.36,31.14-45.66,59.41-45.66,27.75,0,39.94,16.51,39.94,34.59,0,22.31-18.45,47.07-48.92,47.07H96l-10.33,50H61.31l23-111.69Z"/><path d="M192,476a3.75,3.75,0,0,0,1.78.33c7.4,0,17.86-5,24.78-10l1.44,4.51c-6.11,6.85-16.73,11.85-28.48,13.86-2.57,30.89-18.66,50.25-38.46,50.25-15,0-25.74-7.34-25.74-26.37,0-19.21,10.93-59.28,44.08-59.28C185.26,449.28,192,458.47,192,476Zm-13.83,9.18c-3.38-.84-4.35-3.67-4.35-7,0-4.67,2.09-7.67,5-9-.32-7-1.93-9.68-6.11-9.68-11.43,0-21.4,30.55-21.4,46.92,0,11,2.08,13.52,8.2,13.52C167.4,519.91,175.6,504.88,178.18,485.18Z"/><path d="M274.08,450.78,262.5,507.56a23.48,23.48,0,0,0-.64,5.34c0,4.67,2.09,6.17,6.59,6.17,6.28,0,10.62-6.34,13-14.68h6.76c-9.17,27.21-23.65,30.88-32.33,30.88-9.18,0-15-5.51-15.94-15.86-8.05,13.69-17.06,15.86-23.82,15.86-9.65,0-17.22-6-17.22-20a57,57,0,0,1,1.29-10.84l10.94-53.61h23.18l-11.59,56.78a24.36,24.36,0,0,0-.48,4.67c0,3.84,1.29,6.84,4.83,6.84,6.27,0,10.46-6.34,12.87-14.68l10.94-53.61Z"/><path d="M321.07,424.4l-5.47,26.38h9.66l-1.3,6.68h-9.65L304,507.56a23.56,23.56,0,0,0-.65,5.34c0,4.67,2.09,6.17,6.59,6.17,6.28,0,12.07-6.34,14.49-14.68h6.76c-9.18,27.21-25.11,30.88-33.8,30.88-9.65,0-17.21-6-17.21-20a56.87,56.87,0,0,1,1.28-10.84l9.67-46.93h-5.32l1.28-6.68h5.32l4.83-23Z"/><path d="M358.57,450.78,347,507.56a24.06,24.06,0,0,0-.64,5.34c0,4.67,2.09,6.17,6.6,6.17,6.28,0,12.07-6.34,14.48-14.68h6.76c-9.17,27.21-25.11,30.88-33.79,30.88-9.65,0-17.22-6-17.22-20a56.15,56.15,0,0,1,1.29-10.84l10.94-53.61Zm-7.25-35.56a13.16,13.16,0,0,1,12.87,13.36,13,13,0,0,1-12.87,13.18,12.87,12.87,0,0,1-12.71-13.18C338.61,421.23,344.24,415.22,351.32,415.22Z"/><path d="M408,465.31c-5.79,0-10.13,7-12.55,15.36l-10.94,53.6H361.29l17.06-83.49h23.18l-1.78,8.69c6.76-8,13.84-9.36,18.83-9.36,10.3,0,17.86,5.51,17.86,18.87,0,13.53-7.72,33.74-7.72,43.08,0,4.18,1.61,7,6.43,7,7.08,0,10-6,13.52-14.68h6.76c-9,27.37-21.4,30.88-29.93,30.88-14,0-19-9.34-19-18.86,0-11.36,7.24-31.9,7.24-42.58C413.75,468.32,411.82,465.31,408,465.31Z"/><path d="M480.21,519.41c6.11,0,13.84-4.18,19-8.85-3.38,19-15,24.71-27.84,24.71-15,0-24.95-7.68-24.95-26.55,0-19.2,10.47-59.44,43.45-59.44,14.32,0,17.7,7.68,17.7,16,0,19.37-17.7,34.06-37,35.23-.16,1.68-.32,3.51-.32,5C470.23,516.07,474.58,519.41,480.21,519.41Zm10.94-61.28c-8,0-16.09,18.53-19.47,34.39,12.55-.66,23.49-13.52,23.49-27.55C495.17,460.8,494.21,458.13,491.15,458.13Z"/><path d="M21.21,502.49c7.12,1.57,14.3,8.81,23,8.81A14.77,14.77,0,0,0,50,510.21c-.69,6.56-3.42,10.73-7.12,10.73-9.78,0-18.4-15.51-30.51-15.51a13.65,13.65,0,0,0-1.57.06l10.19-47.37c-6,2.46-9.58,7.59-9.58,14.9a9.46,9.46,0,0,0,1,4.65C7.6,477.67,5,476,5,471c0-9.09,12.59-17.77,24-17.77,1,0,1.85.06,2.74.13Z"/><path d="M63.36,469.67l-4.93,23.25a9.67,9.67,0,0,0-.27,2.18c0,1.92.89,2.53,2.8,2.53a3.57,3.57,0,0,0,1.51-.27c-1.85,4.78-3.15,6.9-6.84,6.9s-6.16-2.39-6.71-6.35c-2.05,3.14-5.33,6.35-10.19,6.35-4.65,0-9.1-2.87-9.1-11,0-9.23,5.68-23.93,17.58-23.93,3.9,0,5.54,1.5,5.54,3.49v.48l.76-3.63ZM39.76,492.3c0,5.26,2.18,5.33,3.42,5.33,2,0,4.85-2.05,5.67-6l3.29-15.45a2.66,2.66,0,0,0-2.81-2.6C43.52,473.57,39.76,485.87,39.76,492.3Z"/><path d="M21.21,502.49c7.12,1.57,14.3,8.81,23,8.81A14.77,14.77,0,0,0,50,510.21c-.69,6.56-3.42,10.73-7.12,10.73-9.78,0-18.4-15.51-30.51-15.51a13.65,13.65,0,0,0-1.57.06l10.19-47.37c-6,2.46-9.58,7.59-9.58,14.9a9.46,9.46,0,0,0,1,4.65C7.6,477.67,5,476,5,471c0-9.09,12.59-17.77,24-17.77,1,0,1.85.06,2.74.13Z"/><path d="M63.36,469.67l-4.93,23.25a9.67,9.67,0,0,0-.27,2.18c0,1.92.89,2.53,2.8,2.53a3.57,3.57,0,0,0,1.51-.27c-1.85,4.78-3.15,6.9-6.84,6.9s-6.16-2.39-6.71-6.35c-2.05,3.14-5.33,6.35-10.19,6.35-4.65,0-9.1-2.87-9.1-11,0-9.23,5.68-23.93,17.58-23.93,3.9,0,5.54,1.5,5.54,3.49v.48l.76-3.63ZM39.76,492.3c0,5.26,2.18,5.33,3.42,5.33,2,0,4.85-2.05,5.67-6l3.29-15.45a2.66,2.66,0,0,0-2.81-2.6C43.52,473.57,39.76,485.87,39.76,492.3Z"/><path class="cls-4" d="M29,453.27c1,0,1.85.06,2.74.13L21.21,502.49c7.12,1.57,14.3,8.81,23,8.81A14.77,14.77,0,0,0,50,510.21c-.69,6.56-3.42,10.73-7.12,10.73-9.78,0-18.4-15.51-30.51-15.51a13.65,13.65,0,0,0-1.57.06l10.19-47.37c-6,2.46-9.58,7.59-9.58,14.9a9.46,9.46,0,0,0,1,4.65C7.6,477.67,5,476,5,471c0-9.09,12.59-17.77,24-17.77m0-5a33.69,33.69,0,0,0-19.22,6.42C3.57,459.19,0,465.15,0,471c0,6.82,3.82,11,10.56,11.56l-4.7,21.84a5,5,0,0,0,4.89,6.05l.62,0a7.74,7.74,0,0,1,1,0c4.63,0,9.08,3.54,13.8,7.29,5.08,4,10.34,8.22,16.71,8.22,5.08,0,10.92-4,12.09-15.21A5,5,0,0,0,48,505.59a9.7,9.7,0,0,1-3.84.71c-3.84,0-7.64-2.08-11.67-4.28-1.79-1-3.62-2-5.5-2.81l9.61-44.76a5,5,0,0,0-4.51-6c-.91-.07-2-.15-3.12-.15Z"/><path class="cls-4" d="M47.21,469.33c3.9,0,5.54,1.5,5.54,3.49v.48l.76-3.63h9.85l-4.93,23.25a9.67,9.67,0,0,0-.27,2.18c0,1.92.89,2.53,2.8,2.53a3.57,3.57,0,0,0,1.51-.27c-1.85,4.78-3.15,6.9-6.84,6.9s-6.16-2.39-6.71-6.35c-2.05,3.14-5.33,6.35-10.19,6.35-4.65,0-9.1-2.87-9.1-11,0-9.23,5.68-23.93,17.58-23.93m-4,28.3c2,0,4.85-2.05,5.67-6l3.29-15.45a2.66,2.66,0,0,0-2.81-2.6c-5.81,0-9.57,12.3-9.57,18.73,0,5.26,2.18,5.33,3.42,5.33m4-33.3c-7.06,0-13.29,3.88-17.54,10.92a36.55,36.55,0,0,0-5,18c0,11.81,7.6,16,14.1,16a15.3,15.3,0,0,0,9.06-2.92,11.36,11.36,0,0,0,7.84,2.92c7.6,0,9.95-6.08,11.5-10.1a5,5,0,0,0-3.5-6.66l4.62-21.79a5,5,0,0,0-4.89-6H53.51a5,5,0,0,0-1.73.31,14.93,14.93,0,0,0-4.57-.65Z"/><path class="cls-4" d="M136,407.45c-10.85,0-17.86-6.24-17.86-15.9s6.63-15,13.1-15.37c-2.73-3.25-5.2-7-5.2-12.18,0-9.33,8.2-16.36,19.06-16.36,9,0,14.63,4.78,14.63,12.49,0,5.72-3.11,10.06-7.65,11a21.38,21.38,0,0,1,6.14,15.26C158.22,398.81,149.08,407.45,136,407.45Zm1.45-17.7c-.69,0-2.94.11-2.94,1.54,0,1.67,1,1.67,1.61,1.67,1.69,0,2.65-1.08,2.84-3.21Zm7.9-29.78c-1.31,0-1.36.25-1.36,1.34a4.34,4.34,0,0,0,0,.63l.87-.54a2.53,2.53,0,0,0,.65-1.43Z"/><path d="M150.09,366.76a3.56,3.56,0,0,1-2.9-1.38,7,7,0,0,0,2.84-5.64c0-2.3-1.2-4.4-4.68-4.4s-5.81,2-5.81,6c0,9.64,14.22,10.95,14.22,25.12,0,11-8.6,16.4-17.76,16.4-7.21,0-13.4-3.28-13.4-11.28,0-7.09,4.86-10.76,9.29-10.76,2.21,0,5.37.92,5.56,4.33-3.41,0-7.39,1.64-7.39,6.17,0,3.28,2,6.29,6.06,6.29,4.24,0,7.34-3.21,7.34-8.72,0-11.22-13-15.22-13-24.86,0-6.82,6.45-11.74,14.6-11.74,3,0,10.18.65,10.18,7.87C155.28,363.94,153.25,366.76,150.09,366.76Z"/><path class="cls-4" d="M166,406.47c-9,0-14.31-5.63-14.31-15.05,0-11.62,6.67-28,21.52-28,7.14,0,11.41,4.09,11.41,10.92a17.36,17.36,0,0,1-3.84,10.73h10.61l-4.22,7.06C181.46,401.65,174.33,406.47,166,406.47Z"/><path d="M170,396.34c5,0,8-2.89,11.19-6.63h2.15c-3.61,6-9,12.14-17.39,12.14-5.94,0-9.86-3-9.86-10.43s4.11-23.35,17.07-23.35c5.63,0,7,3,7,6.29,0,7.55-7,13.38-14.54,13.84-.06.92-.12,1.84-.12,2.63C165.46,395.29,167,396.34,170,396.34Zm3.66-24.8c-3.22,0-6.32,7-7.58,13.51,4.87-.32,9.17-5.37,9.17-10.82C175.26,372.59,174.88,371.54,173.67,371.54Z"/><path class="cls-4" d="M219.63,406.47c-6,0-9.6-3.23-11.09-7.31l-1.42,6.92H173.3L181.89,364H198.5a14.48,14.48,0,0,1,3.12-.32,10.72,10.72,0,0,1,7.37,2.62,13.11,13.11,0,0,1,7.92-2.56c7,0,11.48,4.73,11.48,12a42.36,42.36,0,0,1-1.43,9.28h10.66l-2,6.12C232.27,401.33,226.9,406.47,219.63,406.47Z"/><path d="M212.74,374.36c-2.27,0-4,2.76-4.93,6l-4.3,21.05h-9.1L199,378.82a7.09,7.09,0,0,0,.19-1.64c0-1.44-.51-2.88-1.9-2.88-2.47,0-4.17,2.82-5.12,6.1l-4.3,21.05h-9.1l6.7-32.79h9.1l-.7,3.41a9.58,9.58,0,0,1,7.72-3.74c3.35,0,5.81,1.57,6.51,5.64,3-4.85,6.45-5.58,8.78-5.58,4.05,0,7,2.17,7,7.42s-3,13.25-3,16.92c0,1.64.63,2.75,2.52,2.75,2.79,0,3.92-2.36,5.31-5.77h2.66c-3.54,10.76-8.41,12.14-11.76,12.14-5.5,0-7.46-3.68-7.46-7.42,0-4.46,2.85-12.52,2.85-16.72C215,375.54,214.26,374.36,212.74,374.36Z"/><path class="cls-4" d="M251.94,406.47a10.28,10.28,0,0,1-7.31-2.8,13.83,13.83,0,0,1-8.3,2.8c-5.94,0-12.87-4-12.87-15.18s6.58-27.58,20.7-27.58a14.15,14.15,0,0,1,3.13.32h17.29l-4.3,21.06h10.64l-2.07,6.15C264.61,403.83,257.31,406.47,251.94,406.47Z"/><path d="M259.08,368.66,254.53,391a9.38,9.38,0,0,0-.25,2.1c0,1.83.82,2.82,2.59,2.82,2.47,0,4.17-2.89,5.12-6.17h2.65c-3.6,10.69-9.29,12.14-12.7,12.14s-5.82-2.1-6.2-6c-2,3-4.93,6-9.41,6-4.3,0-8.41-2.76-8.41-10.56,0-8.86,5.24-23,16.24-23,3.61,0,5.12,1.44,5.12,3.34v.46l.7-3.47Zm-21.81,21.71c0,5.05,2,5.11,3.16,5.11,1.84,0,4.49-2,5.25-5.77l3-14.82a2.49,2.49,0,0,0-2.59-2.49C240.75,372.4,237.27,384.2,237.27,390.37Z"/><path class="cls-4" d="M268.25,406.47c-6.71,0-11.22-5-11.22-12.5a26.93,26.93,0,0,1,.6-5.2L262.68,364H264a10,10,0,0,1-.87-4.1,9.49,9.49,0,1,1,19,0,10,10,0,0,1-1.37,5.07l-4.09,20.09h11.2l-2.07,6.15C281.27,404.49,272.86,406.47,268.25,406.47Z"/><path d="M275.39,368.66,270.84,391a9.38,9.38,0,0,0-.25,2.1c0,1.83.82,2.42,2.59,2.42,2.47,0,4.74-2.49,5.69-5.77h2.66c-3.61,10.69-9.87,12.14-13.28,12.14-3.79,0-6.76-2.36-6.76-7.88a22.81,22.81,0,0,1,.5-4.26l4.3-21Zm-2.84-14a5.17,5.17,0,0,1,5.06,5.24,5.11,5.11,0,0,1-5.06,5.18,5.05,5.05,0,0,1-5-5.18A5.11,5.11,0,0,1,272.55,354.69Z"/><path class="cls-4" d="M301.69,406.47c-6,0-9.6-3.23-11.1-7.3l-1.41,6.91H271L279.56,364h16.7a14.23,14.23,0,0,1,2.71-.26c7,0,11.48,4.73,11.48,12a41.77,41.77,0,0,1-1.43,9.28h10.66l-2,6.12C314.33,401.33,309,406.47,301.69,406.47Z"/><path d="M294.8,374.36c-2.27,0-4,2.76-4.93,6l-4.3,21.05h-9.1l6.7-32.79h9.1l-.69,3.41a9.24,9.24,0,0,1,7.39-3.68c4,0,7,2.17,7,7.42s-3,13.25-3,16.92c0,1.64.63,2.75,2.52,2.75,2.78,0,3.92-2.36,5.31-5.77h2.66c-3.54,10.76-8.41,12.14-11.76,12.14-5.5,0-7.46-3.68-7.46-7.42,0-4.46,2.85-12.52,2.85-16.72C297.08,375.54,296.32,374.36,294.8,374.36Z"/><path class="cls-4" d="M319.71,406.47c-8.92,0-14.25-5.63-14.25-15.05,0-11.62,6.68-28,21.52-28,7.14,0,11.41,4.09,11.41,10.92a17.15,17.15,0,0,1-1.15,6.16L335,393C333.48,401.68,328,406.47,319.71,406.47Z"/><path d="M323.19,395.62c2.4,0,5.43-1.65,7.46-3.48-1.33,7.48-5.88,9.71-10.94,9.71-5.88,0-9.8-3-9.8-10.43S314,368.07,327,368.07c5.62,0,6.95,3,6.95,6.29,0,7.61-6.95,13.38-14.54,13.84-.06.66-.12,1.38-.12,2C319.27,394.3,321,395.62,323.19,395.62Zm4.3-24.08c-3.17,0-6.33,7.28-7.65,13.51,4.93-.26,9.22-5.31,9.22-10.82C329.06,372.59,328.69,371.54,327.49,371.54Z"/><path class="cls-4" d="M355.24,406.47c-5.94,0-12.87-4-12.87-15.18s6.58-27.58,20.71-27.58a15.5,15.5,0,0,1,2.22.15l2.29-11.16,18.74-2.62-7.19,35h10.63l-2.07,6.15c-3.32,9.84-9,14.84-16.91,14.84a10.39,10.39,0,0,1-7.08-2.53A13.75,13.75,0,0,1,355.24,406.47Z"/><path d="M380.65,355.54,373.38,391a9.38,9.38,0,0,0-.25,2.1c0,1.83.82,2.42,2.59,2.42,2.46,0,4.17-2.49,5.12-5.77h2.65c-3.6,10.69-9.29,11.74-12.7,11.74s-5.69-2-6.2-5.64c-1.89,3-4.86,6-9.35,6-4.3,0-8.41-2.76-8.41-10.56,0-8.86,5.25-23,16.25-23,3.6,0,5.12,1.44,5.12,3.34v.27l3.09-15.09Zm-16.12,34.17,3.1-15A2.55,2.55,0,0,0,365,372.4c-5.38,0-8.85,11.8-8.85,18,0,5.05,2,5.11,3.16,5.11,1.77,0,4.36-1.83,5.18-5.44Z"/><path class="cls-4" d="M389.76,406.47c-8.93,0-14.26-5.63-14.26-15.05,0-11.62,6.68-28,21.52-28,7.15,0,11.41,4.09,11.41,10.92a17.14,17.14,0,0,1-1.14,6.16L405.07,393C403.53,401.68,398.09,406.47,389.76,406.47Z"/><path d="M393.23,395.62c2.4,0,5.44-1.65,7.46-3.48-1.33,7.48-5.88,9.71-10.93,9.71-5.88,0-9.8-3-9.8-10.43s4.11-23.35,17.06-23.35c5.63,0,7,3,7,6.29,0,7.61-7,13.38-14.54,13.84-.06.66-.13,1.38-.13,2C389.31,394.3,391,395.62,393.23,395.62Zm4.3-24.08c-3.16,0-6.32,7.28-7.65,13.51,4.93-.26,9.23-5.31,9.23-10.82C399.11,372.59,398.73,371.54,397.53,371.54Z"/><path class="cls-4" d="M38,620.75H41.3V636.6h8.26v2.89H38Z"/><path class="cls-4" d="M52.1,621.85a1.83,1.83,0,1,1,1.82,1.83A1.84,1.84,0,0,1,52.1,621.85Zm.36,4.07h2.95v13.57H52.46Z"/><path class="cls-4" d="M57.27,625.92h3.15l4,10.17,4-10.17h3.18L66,639.49H62.81Z"/><path class="cls-4" d="M73.38,625.92h3v2a5.77,5.77,0,0,1,4.41-2.31v2.92a4.8,4.8,0,0,0-.93-.08,4.67,4.67,0,0,0-3.48,1.8v9.24h-3Z"/><path class="cls-4" d="M89.18,625.59c4.07,0,6.69,3.11,6.69,7.38v.71H85.38a4.11,4.11,0,0,0,4.33,3.73,5.73,5.73,0,0,0,3.85-1.49l1.35,1.94a7.92,7.92,0,0,1-5.51,2,7.12,7.12,0,0,1-.22-14.24Zm-3.83,6H93a3.63,3.63,0,0,0-3.82-3.6A3.75,3.75,0,0,0,85.35,631.6ZM88,623.87l3.94-4h2.81l-4.64,4Z"/><path class="cls-4" d="M104.84,625.59c4.07,0,6.68,3.11,6.68,7.38v.71H101a4.11,4.11,0,0,0,4.33,3.73,5.73,5.73,0,0,0,3.85-1.49l1.35,1.94a7.94,7.94,0,0,1-5.51,2,7.12,7.12,0,0,1-.22-14.24Zm-3.83,6h7.65a3.63,3.63,0,0,0-3.82-3.6A3.75,3.75,0,0,0,101,631.6Z"/><path class="cls-4" d="M130,638a5.75,5.75,0,0,1-4.39,1.8,4.51,4.51,0,0,1-4.72-4.5c0-3.11,2.5-4.41,4.72-4.41a5.63,5.63,0,0,1,4.39,1.74v-2c0-1.57-1.29-2.53-3.18-2.53a5.57,5.57,0,0,0-4,1.72l-1.21-2.05a8.08,8.08,0,0,1,5.71-2.19c3,0,5.65,1.26,5.65,4.91v9H130Zm0-3.68a4,4,0,0,0-3.23-1.4c-1.66,0-2.9.95-2.9,2.44s1.24,2.42,2.9,2.42A4,4,0,0,0,130,636.4Z"/><path class="cls-4" d="M134.78,625.92h3.15l4,10.17,4-10.17H149l-5.54,13.57h-3.18Z"/><path class="cls-4" d="M156.93,625.59c4.07,0,6.69,3.11,6.69,7.38v.71H153.13a4.11,4.11,0,0,0,4.33,3.73,5.71,5.71,0,0,0,3.85-1.49l1.35,1.94a7.92,7.92,0,0,1-5.51,2,7.12,7.12,0,0,1-.22-14.24Zm-3.82,6h7.64a3.63,3.63,0,0,0-3.82-3.6A3.74,3.74,0,0,0,153.11,631.6Z"/><path class="cls-4" d="M172.73,625.59a6.1,6.1,0,0,1,5.2,2.41L176,629.8a3.62,3.62,0,0,0-3.12-1.6c-2.47,0-4.1,1.85-4.1,4.49s1.63,4.53,4.1,4.53a3.7,3.7,0,0,0,3.12-1.61l1.94,1.8a6.11,6.11,0,0,1-5.2,2.42,7.12,7.12,0,0,1,0-14.24Z"/><g id="Layer_2-2" data-name="Layer 2"><g id="Layer_1-2" data-name="Layer 1-2"><path class="cls-13" d="M285.47,624.19v15.7h4a7.76,7.76,0,0,0,7.68-7.83v0a7.63,7.63,0,0,0-7.4-7.85h-4.3Zm4-4.93a12.79,12.79,0,1,1,0,25.56h-8.84a.63.63,0,0,1-.63-.63V619.92a.64.64,0,0,1,.63-.64Z"/><path class="cls-13" d="M322,640.44a8.4,8.4,0,1,0-8.41-8.4,8.41,8.41,0,0,0,8.41,8.4m0-21.73a13.36,13.36,0,1,1-13.89,13.34A13.54,13.54,0,0,1,322,618.71"/><path class="cls-13" d="M355,640.44a8.4,8.4,0,1,0-8.4-8.4h0a8.41,8.41,0,0,0,8.4,8.4m0-21.73a13.36,13.36,0,1,1-13.89,13.34A13.53,13.53,0,0,1,355,618.71"/><path class="cls-13" d="M387.31,624.19h-5.67v6.75h5.67a3.32,3.32,0,0,0,3.47-3.16v-.12a3.36,3.36,0,0,0-3.25-3.47.81.81,0,0,0-.22,0m-11.15-4.27a.64.64,0,0,1,.64-.64h10.66a8.43,8.43,0,0,1,8.78,8.4,8.26,8.26,0,0,1-4.57,7.49l4.94,8.67a.64.64,0,0,1-.18.88.69.69,0,0,1-.39.1h-4.33a.64.64,0,0,1-.58-.34l-4.74-8.61h-4.75v8.26a.63.63,0,0,1-.63.64h-4.16a.64.64,0,0,1-.64-.64Z"/><path class="cls-13" d="M410.53,624.3V640h4a7.76,7.76,0,0,0,7.67-7.85h0a7.63,7.63,0,0,0-7.39-7.86h-4.3Zm4-4.92a12.79,12.79,0,1,1,0,25.56h-8.84a.64.64,0,0,1-.64-.63V620a.64.64,0,0,1,.64-.64Z"/><path class="cls-13" d="M444.42,625.62l-3.1,8.4h6.21Zm-4.94,13.14-2,5.6a.65.65,0,0,1-.64.44H432.4a.64.64,0,0,1-.64-.91l9.54-24.24a.66.66,0,0,1,.64-.43h4.94a.66.66,0,0,1,.64.43l9.54,24.24a.64.64,0,0,1-.3.85.66.66,0,0,1-.34.06H452a.65.65,0,0,1-.64-.44l-2-5.6Z"/><path class="cls-13" d="M462.18,626.15c0-4,3.47-7.49,9-7.49a11.4,11.4,0,0,1,7.95,3,.66.66,0,0,1,0,.94l-2.47,2.46a.63.63,0,0,1-.89,0h0a6.4,6.4,0,0,0-4.24-1.67c-2.19,0-3.82,1.27-3.82,2.74,0,4.75,13,2,13,11.14,0,4.56-3.47,8-9.68,8a13,13,0,0,1-9.25-3.71.64.64,0,0,1,0-.9l0,0,2.37-2.37a.64.64,0,0,1,.9,0l0,0a8.14,8.14,0,0,0,5.58,2.28c2.75,0,4.56-1.46,4.56-3.29,0-4.75-13-2-13-11.14"/><path class="cls-13" d="M504.14,619.89v9.57h-11v-9.54a.62.62,0,0,0-.61-.66h-4.19a.63.63,0,0,0-.63.63v24.24a.62.62,0,0,0,.6.66h4.19a.64.64,0,0,0,.64-.64v-9.75h11v9.72a.64.64,0,0,0,.6.67H509a.65.65,0,0,0,.67-.61v-24.3a.64.64,0,0,0-.6-.67h-4.22a.65.65,0,0,0-.67.61Z"/><path class="cls-13" d="M258.38,622.58a16.07,16.07,0,0,0-14.23-8.5H199.1a1.54,1.54,0,0,0-1.54,1.56,1.51,1.51,0,0,0,.45,1.08l9.81,9.86a4.59,4.59,0,0,0,3.27,1.37h31.77a4.09,4.09,0,1,1,.09,8.18H221a1.55,1.55,0,0,0-1.53,1.57,1.53,1.53,0,0,0,.45,1.08l9.81,9.86a4.64,4.64,0,0,0,3.28,1.36H243c12.88,0,22.62-13.76,15.43-27.42"/></g></g><path class="cls-14" d="M334.16,26.38A31.61,31.61,0,0,0,322.86,24c-3.52,0-8.08,1.52-8.08,7,0,8.75,22.48,5.06,22.48,22,0,11.06-8.89,15.25-19.25,15.25-5.58,0-8.08-.72-13.15-2V57.21a29.07,29.07,0,0,0,12.58,3.11c3.89,0,9.11-2,9.11-6.51,0-9.61-22.49-5.63-22.49-22.33,0-11.28,8.89-15.4,17.93-15.4a39.26,39.26,0,0,1,12.27,1.81Z"/><path class="cls-14" d="M393.08,39A26.55,26.55,0,0,0,384,37.44c-2.57,0-5.64.91-5.64,4,0,5.76,16.63,2.11,16.63,15.16,0,8.43-7.64,11.8-15.42,11.8a43.59,43.59,0,0,1-10.84-1.55l.57-7.72a21.36,21.36,0,0,0,9.42,2.39c2.42,0,6.28-.92,6.28-4.43,0-7.08-16.63-2.24-16.63-15.3,0-7.79,6.92-11.23,14.42-11.23a44.68,44.68,0,0,1,10.41,1.34Z"/><path class="cls-14" d="M423.35,39.2a14.51,14.51,0,0,0-6.49-1.34c-5.92,0-9.7,4.64-9.7,11.44s3.21,11.79,9.91,11.79a20.59,20.59,0,0,0,7.35-1.68l.43,7.79a31.71,31.71,0,0,1-9.56,1.2c-12.06,0-18.12-8.08-18.12-19.1,0-10.45,6.28-18.74,17.76-18.74a31.69,31.69,0,0,1,9.28,1.2Z"/><path class="cls-14" d="M445.12,30.56c10.92,0,19.26,7.23,19.26,19.17,0,10.38-7.06,18.67-19.26,18.67s-19.19-8.29-19.19-18.67C425.93,37.79,434.28,30.56,445.12,30.56Zm0,30.53c7.35,0,9.27-6.45,9.27-12.49,0-5.54-3-10.74-9.27-10.74s-9.2,5.34-9.2,10.74C435.92,54.57,437.84,61.09,445.12,61.09Z"/><polygon class="cls-14" points="369.46 30.91 359.75 30.91 341.5 80.57 350.27 80.57 369.46 30.91"/><path class="cls-15" d="M329.79,30a59,59,0,0,1,11,15,56.33,56.33,0,0,1,4.89,15.51c0,.18.16.17.23,0,3.49-6.08,5.62-14.36,2.5-20.61-3.27-6.55-11.13-9.56-18.5-10.17C329.67,29.72,329.62,29.86,329.79,30Z"/><path class="cls-14" d="M464.2,31.35h-1.31v-.47h3.19v.47h-1.31v3.84h-.57Z"/><path class="cls-14" d="M470.19,33.3c0-.6-.07-1.33-.07-1.86h0c-.15.49-.32,1-.54,1.63l-.76,2.09h-.42l-.71-2c-.2-.61-.37-1.16-.49-1.67h0c0,.53-.05,1.25-.09,1.9L467,35.19h-.53l.3-4.31h.71l.73,2.08c.18.53.32,1,.44,1.46h0c.12-.43.27-.91.46-1.46l.77-2.08h.71l.27,4.31h-.55Z"/><path d="M266.35,42.88c4.09,0,6.72,3.13,6.72,7.42V51H262.54a4.13,4.13,0,0,0,4.35,3.75,5.72,5.72,0,0,0,3.86-1.49l1.36,1.94a8,8,0,0,1-5.53,2A6.85,6.85,0,0,1,259.44,50,6.89,6.89,0,0,1,266.35,42.88Zm-3.83,6h7.67a3.65,3.65,0,0,0-3.84-3.61A3.75,3.75,0,0,0,262.52,48.91Z"/><path d="M276.6,53.68V45.81h-2.26V43.22h2.26V39.5h3v3.72h2.76v2.59h-2.76V53c0,.93.45,1.6,1.3,1.6a1.87,1.87,0,0,0,1.32-.48l.71,2.23a3.91,3.91,0,0,1-2.8.88A3.14,3.14,0,0,1,276.6,53.68Z"/><path d="M210.8,120.42V103.16h2.72v1.7a5,5,0,0,1,4-2c3.24,0,5.55,2.43,5.55,6.54s-2.31,6.58-5.55,6.58a4.9,4.9,0,0,1-4-2v6.5Zm5.93-15.17a4,4,0,0,0-3.21,1.68v4.95a4.14,4.14,0,0,0,3.21,1.68c2.15,0,3.52-1.74,3.52-4.17S218.88,105.25,216.73,105.25Z"/><path d="M225.82,103.16h2.72V105a5.35,5.35,0,0,1,4.07-2.12v2.69a4.19,4.19,0,0,0-.86-.08,4.31,4.31,0,0,0-3.21,1.66v8.51h-2.72Z"/><path d="M240.38,102.85c3.75,0,6.16,2.87,6.16,6.8v.65h-9.66a3.79,3.79,0,0,0,4,3.44,5.29,5.29,0,0,0,3.55-1.37l1.24,1.78a7.3,7.3,0,0,1-5.08,1.82,6.56,6.56,0,0,1-.2-13.12Zm-3.53,5.53h7.05a3.34,3.34,0,0,0-3.52-3.31A3.46,3.46,0,0,0,236.85,108.38Zm2.46-7.11,3.63-3.73h2.59l-4.27,3.73Z"/><path d="M249.39,112.06a6.5,6.5,0,0,0,4.25,1.76c1.63,0,2.46-.6,2.46-1.53,0-1.09-1.32-1.47-2.85-1.81-2.15-.47-4.72-1-4.72-3.83,0-2,1.77-3.8,4.93-3.8a7.16,7.16,0,0,1,4.87,1.76l-1.14,1.91a5.07,5.07,0,0,0-3.71-1.5c-1.42,0-2.33.52-2.33,1.4s1.25,1.29,2.72,1.63c2.18.46,4.85,1.08,4.85,4,0,2.2-1.84,3.89-5.21,3.89a7.63,7.63,0,0,1-5.36-1.94Z"/><path d="M267,102.85c3.76,0,6.17,2.87,6.17,6.8v.65h-9.67a3.79,3.79,0,0,0,4,3.44,5.29,5.29,0,0,0,3.55-1.37l1.24,1.78a7.29,7.29,0,0,1-5.07,1.82,6.56,6.56,0,0,1-.21-13.12Zm-3.52,5.53h7a3.34,3.34,0,0,0-3.52-3.31A3.45,3.45,0,0,0,263.51,108.38Z"/><path d="M284.33,107.84c0-1.94-1-2.59-2.51-2.59a4.12,4.12,0,0,0-3.21,1.68v8.72h-2.72V103.16h2.72v1.7a5.92,5.92,0,0,1,4.4-2c2.7,0,4,1.44,4,4v8.79h-2.72Z"/><path d="M291.12,112.76v-7.22H289v-2.38h2.08V99.74h2.72v3.42h2.54v2.38h-2.54v6.54c0,.86.41,1.48,1.19,1.48a1.78,1.78,0,0,0,1.22-.44l.64,2a3.55,3.55,0,0,1-2.56.81A2.88,2.88,0,0,1,291.12,112.76Z"/><path d="M304.4,102.85c3.76,0,6.17,2.87,6.17,6.8v.65h-9.66a3.78,3.78,0,0,0,4,3.44,5.31,5.31,0,0,0,3.55-1.37l1.24,1.78a7.3,7.3,0,0,1-5.08,1.82,6.56,6.56,0,0,1-.21-13.12Zm-3.52,5.53h7.05a3.35,3.35,0,0,0-3.53-3.31A3.45,3.45,0,0,0,300.88,108.38Z"/><path d="M321.71,107.84c0-1.94-1-2.59-2.52-2.59a4.14,4.14,0,0,0-3.21,1.68v8.72h-2.72V103.16H316v1.7a5.94,5.94,0,0,1,4.41-2c2.69,0,4,1.44,4,4v8.79h-2.72Z"/><path d="M328.49,112.76v-7.22h-2.07v-2.38h2.07V99.74h2.72v3.42h2.54v2.38h-2.54v6.54c0,.86.42,1.48,1.19,1.48a1.78,1.78,0,0,0,1.22-.44l.65,2a3.58,3.58,0,0,1-2.57.81A2.89,2.89,0,0,1,328.49,112.76Z"/><line class="cls-16" x1="352.61" y1="111.99" x2="472.92" y2="111.99"/><line class="cls-16" x1="193.04" y1="111.99" x2="72.73" y2="111.99"/></g></g></g></svg>