<svg width="109" height="109" viewBox="0 0 109 109" fill="none" xmlns="http://www.w3.org/2000/svg">
<path d="M60.8197 18.4377C60.8197 21.7129 58.1596 24.373 54.8844 24.373C51.6092 24.373 48.9492 21.7129 48.9492 18.4377C48.9492 15.1625 51.6092 12.5024 54.8844 12.5024C58.1596 12.5191 60.8197 15.1625 60.8197 18.4377Z" fill="#C7C1BD"/>
<path d="M50.8943 27.5988C55.1338 31.8383 54.8844 37.2249 54.8844 37.2249C54.8678 37.6738 54.4688 38.0728 54.0199 38.0894C54.0199 38.0894 48.6333 38.3388 44.3938 34.0993C40.1543 29.8599 40.4037 24.4732 40.4037 24.4732C40.4203 24.0244 40.8193 23.6253 41.2682 23.6087C41.2516 23.6087 46.6548 23.3593 50.8943 27.5988Z" fill="#96CB64"/>
<path d="M50.0797 34.996C55.1837 40.1 54.8844 46.7834 54.8844 46.7834C54.8678 47.2489 54.4688 47.6313 54.0199 47.6479C54.0199 47.6479 47.3531 47.9472 42.2325 42.8432C37.1285 37.7392 37.4278 31.0558 37.4278 31.0558C37.4444 30.6069 37.8434 30.2079 38.2923 30.1913C38.2923 30.1913 44.9591 29.892 50.0797 34.996Z" fill="#59BDD2"/>
<path d="M49.4313 43.0765C55.2336 48.8788 54.8844 56.5763 54.8844 56.5763C54.8678 57.0252 54.4688 57.4242 54.0199 57.4408C54.0199 57.4408 46.3223 57.79 40.5201 51.9877C34.7178 46.1855 35.067 38.4879 35.067 38.4879C35.0836 38.039 35.4826 37.64 35.9315 37.6234C35.9315 37.6068 43.6124 37.2576 49.4313 43.0765Z" fill="#FFD485"/>
<path d="M58.8744 27.5988C54.635 31.8383 54.8844 37.2249 54.8844 37.2249C54.901 37.6738 55.3 38.0728 55.7489 38.0894C55.7489 38.0894 61.1355 38.3388 65.375 34.0993C69.6144 29.8599 69.3651 24.4732 69.3651 24.4732C69.3484 24.0244 68.9494 23.6253 68.5005 23.6087C68.5172 23.6087 63.1139 23.3593 58.8744 27.5988Z" fill="#C16BAB"/>
<path d="M59.6891 34.996C54.5851 40.1 54.8844 46.7834 54.8844 46.7834C54.901 47.2489 55.3 47.6313 55.7489 47.6479C55.7489 47.6479 62.4157 47.9472 67.5363 42.8432C72.6569 37.7392 72.341 31.0558 72.341 31.0558C72.3244 30.6069 71.9254 30.2079 71.4765 30.1913C71.4765 30.1913 64.8097 29.892 59.6891 34.996Z" fill="#D7DF23"/>
<path d="M60.3542 43.0765C54.5519 48.8788 54.901 56.5763 54.901 56.5763C54.9177 57.0252 55.3167 57.4242 55.7655 57.4408C55.7655 57.4408 63.4631 57.79 69.2654 51.9877C75.0676 46.1855 74.7185 38.4879 74.7185 38.4879C74.7019 38.039 74.3028 37.64 73.854 37.6234C73.854 37.6068 66.1564 37.2576 60.3542 43.0765Z" fill="#F0BB72"/>
<path d="M22.9471 79.6027L24.7094 67.9316H28.3004V84.3742H25.8565V72.5868L24.0776 84.3742H21.6337L19.7051 72.753V84.3742H17.4607V67.9316H21.0518L22.9471 79.6027Z" fill="#474B4F"/>
<path d="M32.2406 71.8717C32.2406 69.2448 33.6205 67.7319 36.1642 67.7319C38.7079 67.7319 40.0878 69.2282 40.0878 71.8717V80.4171C40.0878 83.0439 38.7079 84.5568 36.1642 84.5568C33.6205 84.5568 32.2406 83.0605 32.2406 80.4171V71.8717ZM34.8176 80.5834C34.8176 81.7638 35.3329 82.2126 36.1642 82.2126C36.9789 82.2126 37.4942 81.7638 37.4942 80.5834V71.7054C37.4942 70.525 36.9789 70.0927 36.1642 70.0927C35.3496 70.0927 34.8176 70.5416 34.8176 71.7054V80.5834Z" fill="#474B4F"/>
<path d="M46.5884 67.9316H44.0114V84.3742H46.5884V67.9316Z" fill="#474B4F"/>
<path d="M54.2526 67.7485C56.7631 67.7485 58.0599 69.2448 58.0599 71.8883V72.4036H55.6159V71.722C55.6159 70.5416 55.1504 70.0927 54.3191 70.0927C53.5045 70.0927 53.0224 70.5416 53.0224 71.722C53.0224 75.097 58.0765 75.7453 58.0765 80.4337C58.0765 83.0605 56.7631 84.5734 54.2194 84.5734C51.6757 84.5734 50.3623 83.0771 50.3623 80.4337V79.4196H52.8062V80.6C52.8062 81.7804 53.3216 82.196 54.1529 82.196C54.9675 82.196 55.4829 81.7804 55.4829 80.6C55.4829 77.225 50.4288 76.5766 50.4288 71.8883C50.4454 69.2448 51.7422 67.7485 54.2526 67.7485Z" fill="#474B4F"/>
<path d="M65.2254 67.7485C67.7358 67.7485 69.0326 69.2448 69.0326 71.8883V72.4036H66.5886V71.722C66.5886 70.5416 66.1231 70.0927 65.2919 70.0927C64.4772 70.0927 63.9951 70.5416 63.9951 71.722C63.9951 75.097 69.0492 75.7453 69.0492 80.4337C69.0492 83.0605 67.7358 84.5734 65.1921 84.5734C62.6484 84.5734 61.335 83.0771 61.335 80.4337V79.4196H63.779V80.6C63.779 81.7804 64.2943 82.196 65.1256 82.196C65.9403 82.196 66.4556 81.7804 66.4556 80.6C66.4556 77.225 61.4015 76.5766 61.4015 71.8883C61.4182 69.2448 62.7149 67.7485 65.2254 67.7485Z" fill="#474B4F"/>
<path d="M72.4574 71.8717C72.4574 69.2448 73.8373 67.7319 76.381 67.7319C78.9247 67.7319 80.3046 69.2282 80.3046 71.8717V80.4171C80.3046 83.0439 78.9247 84.5568 76.381 84.5568C73.8373 84.5568 72.4574 83.0605 72.4574 80.4171V71.8717ZM75.0344 80.5834C75.0344 81.7638 75.5497 82.2126 76.381 82.2126C77.1956 82.2126 77.7277 81.7638 77.7277 80.5834V71.7054C77.7277 70.525 77.2123 70.0927 76.381 70.0927C75.5664 70.0927 75.0344 70.5416 75.0344 71.7054V80.5834Z" fill="#474B4F"/>
<path d="M86.456 72.4704V84.3742H84.1284V67.9316H87.3704L90.0138 77.7739V67.9316H92.3248V84.3742H89.6647L86.456 72.4704Z" fill="#474B4F"/>
<path d="M39.456 95.4795H35.8151C34.0195 95.4795 32.5399 94.1328 32.5399 92.2542C32.5399 90.3921 33.953 88.9956 35.8151 88.9956C37.594 88.9956 39.0404 90.3589 39.0404 92.1544C39.0404 93.2184 38.525 94.2825 37.594 94.7147V94.7313H39.4727V95.4795H39.456ZM38.1094 92.1877C38.1094 90.841 37.1119 89.7936 35.7652 89.7936C34.4518 89.7936 33.4377 90.8576 33.4377 92.171C33.4377 93.5509 34.4019 94.6648 35.7652 94.6648C37.1617 94.6648 38.1094 93.5676 38.1094 92.1877Z" fill="#474B4F"/>
<path d="M42.8975 89.1455V93.0192C42.8975 93.8006 43.2965 94.8314 44.4935 94.8314C45.6906 94.8314 46.0896 93.8172 46.0896 93.0192V89.1455H46.9541V93.1522C46.9541 94.6153 45.8901 95.6294 44.5102 95.6294C43.1303 95.6294 42.0662 94.6153 42.0662 93.1522V89.1455H42.8975Z" fill="#474B4F"/>
<path d="M50.2626 89.1454H54.3524V89.9434H51.1271V91.8221H54.1363V92.6201H51.1271V94.6484H54.5187V95.4464H50.2792V89.1454H50.2626ZM52.5236 87.5161H53.6708L52.3407 88.7963H51.5926L52.5236 87.5161Z" fill="#474B4F"/>
<path d="M57.4447 89.1455H59.6393C60.7366 89.1455 61.5678 89.6609 61.5678 90.7249C61.5678 91.4564 61.1189 91.9053 60.4705 92.1214V92.1381C61.2353 92.1879 61.8338 92.8696 61.8338 93.7175C61.8338 94.848 60.8363 95.4798 59.606 95.4798H57.4281V89.1455H57.4447ZM58.3092 91.7723H59.473C60.1214 91.7723 60.6534 91.5063 60.6534 90.8247C60.6534 90.3259 60.3375 89.8936 59.6559 89.8936H58.3092V91.7723ZM58.3092 94.7316H59.5728C60.0882 94.7316 60.9361 94.5488 60.9361 93.6676C60.9361 92.9195 60.404 92.5371 59.5728 92.5371H58.3092V94.7316Z" fill="#474B4F"/>
<path d="M64.8929 89.1455H68.9827V89.9601H65.7574V91.8388H68.75V92.6535H65.7574V94.6651H69.1323V95.4798H64.8929V89.1455Z" fill="#474B4F"/>
<path d="M76.3977 90.5251C76.0485 90.0596 75.45 89.7936 74.8681 89.7936C73.455 89.7936 72.5073 90.9241 72.5073 92.3705C72.5073 93.7006 73.3885 94.8311 74.8681 94.8311C75.5996 94.8311 76.1483 94.5152 76.514 93.9832L77.2289 94.5318C77.046 94.7978 76.2813 95.6457 74.8349 95.6457C72.8232 95.6457 71.5763 93.9666 71.5763 92.3705C71.5763 90.4088 72.923 88.9956 74.8681 88.9956C75.6994 88.9956 76.5805 89.3115 77.0793 89.9765L76.3977 90.5251Z" fill="#474B4F"/>
</svg>
