<svg xmlns="http://www.w3.org/2000/svg" viewBox="0 0 490.81 565.32"><defs><style>.cls-1{isolation:isolate;}.cls-2{fill:none;}.cls-3{fill:#edb458;}.cls-4{fill:#fff;}.cls-5{fill:#7f5b49;}.cls-6{fill:#d19d50;}.cls-7{fill:#b68400;}.cls-8{fill:#4197cb;stroke-miterlimit:10;stroke-width:28.18px;}.cls-11,.cls-8{stroke:#fff;}.cls-10,.cls-9{fill:#009ade;}.cls-10{mix-blend-mode:multiply;opacity:0.3;}.cls-11{stroke-linecap:round;stroke-linejoin:round;stroke-width:25.63px;}.cls-12{fill:#ff3008;}.cls-13{fill:#0075bf;}.cls-14{fill:#5f9e43;}.cls-15{fill:#ff141e;}</style></defs><g class="cls-1"><g id="Layer_2" data-name="Layer 2"><g id="logo_fr" data-name="logo fr"><path class="cls-2" d="M391.62,511.85c0-1.81-.43-3-1.8-3-3.69,0-7.23,7.72-8.67,14.87C386.71,523.4,391.62,517.84,391.62,511.85Z"/><path class="cls-2" d="M419.35,511.85c0-1.81-.43-3-1.81-3-3.68,0-7.22,7.72-8.66,14.87C414.44,523.4,419.35,517.84,419.35,511.85Z"/><polygon class="cls-2" points="204.6 310.93 205.39 311.51 205.59 311.3 204.6 310.93"/><polygon class="cls-3" points="278.05 133.78 272.31 114.18 235.62 119.83 245.76 140.23 278.05 133.78"/><path class="cls-3" d="M226.9,162.35l7.62-9.41,4.93,1.21L242,142.32l-8.65-17.39-7.18,36.73C226.41,161.88,226.66,162.11,226.9,162.35Z"/><polygon class="cls-3" points="208.58 297.17 208.97 295.35 208.34 295.1 208.58 297.17"/><polygon class="cls-3" points="206.45 307.01 206.96 304.68 201.68 305.24 206.45 307.01"/><polygon class="cls-3" points="199.19 99.93 162.41 92.28 159.41 111.09 191.98 119.25 199.19 99.93"/><path class="cls-3" d="M210.45,162.83c2.35.09,4.75.53,6.21-1.23a7.1,7.1,0,0,1,3.35-2.47L202.11,105,196,121.51Z"/><polygon class="cls-3" points="379.56 113.48 364.61 106.17 341.22 119.42 356.39 129.94 379.56 113.48"/><polygon class="cls-3" points="379.48 209.95 391.34 168.21 382.53 115.99 358.97 134.08 379.48 209.95"/><polygon class="cls-3" points="441.22 160.31 437.45 141.96 402.16 148.73 410.02 167.65 441.22 160.31"/><path class="cls-3" d="M392.33,215.53l13.94-45.75-6.71-16.15-16.69,58.64a20.12,20.12,0,0,0,7.56,2.89C391.1,215.25,391.71,215.39,392.33,215.53Z"/><path class="cls-4" d="M375.29,337.41,380.73,324l110.08-92L472,185.81l-31,7-4.71,5A18.86,18.86,0,0,0,433,195l12.85-31.74-5.07-25.86-43,8.2-4.06,14.28-7.82-46.42-22.3-11.12-28.33,15.45,14.82,50.7-5.62,1.15c.85-5.88.18-9.63-4-13-2.35-1.9-4.47-4.14-6.84-5.42l1.28-16.8L317,120.54l-29.8,14.6.75,28.24a8.29,8.29,0,0,0-6.1,4.68,9.85,9.85,0,0,0-1.05,3.53c2.46-.05,5-.06,7.38.06l.36,13.71c-1.39-.66-3-.54-5.24,1.94s-7.42-.19-9.14,3.63,2.73,4.48,3.75,6.79a3.45,3.45,0,0,1,.23,1.19l-6.43,3.79-6.13-28.78-3-14.07-19.1-4.7,2.3-10.63L278.55,138l-11.23,35.24a23.86,23.86,0,0,1,4.81-1.36l11.08-34.81-7.85-27.63-44.68,6.85L223,155.61,203.56,96.74l-44.79-9.27-4,26.52,9.4,20.89-.9-.29L149.33,149l1.51,6.87c-3.22.34-6.11,1.4-7.87,5-1.38,2.79-1.33,4.91-.54,6.67l-8.13,3.82L148.05,137l-10.89-15.46-28.1,5.49L94.91,175.83,78.62,151.41l-22.52.35L41.71,181.88l18.5,22.32-8.29-6.13-29.48-1.3-6,47.84,50.15,28.88-2,6.95,18.21,4.19L110,427.82l32.14-2.6-6.3-83.53L144.29,394l38.83,2.31-1.84-44.84,14.12,16.26,36.78-30.86,13.45,33.44,24.12,1.61,10.66,23.93-7.57,18.73,30.69,17,42.82-78.92,21.38-17.87Zm-2-5.18-1.75-.6,3-2.52Zm95.9-141,15.39,37.93-25.33,1L447.13,196Zm-26.39,6.52,12.3,34.64L372.66,304.2l27.61-50.89-.83-9.53,16-17c.42.83,1.24,1.28,2.81,1.06,5.92-.83,5.47-6.54,10.65-7.37s8.87.39,10.35-7.06c1.14-5.72,1.67-9.27.18-12.11Zm-82.09,53.15-6.42-22.54,39.25-.25,2,21.06Zm-7,67.66-7.49,11.66L190.35,265.36l1.09-34.18Zm-47.22,69.12L299.05,390l-23.88-68.7,11,4.31Zm-8-36.71-.36-1.09,4-18,3.53,1.39Zm-2.8-8.54-4.91-15,7.56,3Zm4.91,15,9.13-22.56,9.78,3.82L305.4,371.85ZM167.83,274.45l19.44-5.63,156.61,65.11L339,341.57Zm12.74,59.62-.45-11,9.07,5.47-6.47,6.79Zm-.67-16.24-.83-20.4,23.31,17.24-10.11,10.61Zm12.54-28.95-9.19,3.88-4.54-4.09-.15-3.65,1.88-.85ZM205,293.79l.83,7.34-6.45.68L198,291.27l.28-.11Zm-8.75,8.36-3.09.32-7.89-5.83,9.71-4.1Zm12.33-5-.24-2.07.63.25ZM207,304.68l-.51,2.33-4.77-1.77Zm-2.36,6.25,1,.37-.2.21Zm8.31-14,3.79,1.49.36.89-6,6.32Zm-25.55-86.27L181,162l7.65-12.11,6.82,59.88c2.64-.11,5.26-.09,7.81.05l-1.45,9.53,7.28,16.34-14-7.55a10.34,10.34,0,0,0,.06-2.28c-.6-5.58-6.09-14.24-15.21-7a4.34,4.34,0,0,1-4,.91l-.22-5.45a51,51,0,0,1,8.64-3.15C185.3,210.94,186.33,210.79,187.36,210.62Zm64.18-30.74,2.15,9.29c-3.31-1.7-7.16-1.46-12.88,4.31a10,10,0,0,1-6.3,2.66L226,169.51Zm15.36,87-13.11-7.06L242.6,227.61l6.11-16.2Zm-52.43-28.22-8-18,32.74,8.83,9.61,27.65Zm-5.1-40.6,36.46,8.27-7.17,19-32.29-8.7Zm18.73-11.94,3.29,10.23c-2.85.05-5.73,0-8.21.81l-17.42-3.94L203.51,208l-5.4-3.05-1.22-10.75Zm-58.45,54.63,17.4-8.56-2.26,32.69-20.4,6.5ZM305,232.57l1.21-18.92,19.3,9c-.74,5.31,4.67,7.74,7.8,11.13l.92,9Zm13.89-49L327.16,200l-3.71,16.81-10.22-4.94Zm39.72,22.65c-2.59-.07-5.61,1.28-9.51,5.22-5.85,5.89-17-.53-21.92,6.94L330.82,202l31.73-8ZM335,250.62c.42,1.27,1.37,2.08,3.24,2.13l-17.42,43.11-9.57-5.15L316.71,266ZM324.73,298l26.19-64.72,5.47,19.23-21.71,50.84ZM437.45,142l3.77,18.35L410,167.65l-7.86-18.92Zm-46.11,26.25L379.48,210,359,134.08,382.53,116Zm-26.73-62,14.95,7.31-23.17,16.46-15.17-10.52ZM341,123.52,355,133.84,374.8,207c2.72,1.55,5.26,3.58,8.07,5.26l16.69-58.64,6.71,16.15-13.94,45.75A22.42,22.42,0,0,1,396,216.7l13.71-45,31.62-7.44-12.25,30.25a11.74,11.74,0,0,0-4.59,3.51c-4,4.45-11.79-.84-14.76,5.77s4.08,8.07,5.56,12.2a9.52,9.52,0,0,1,.24,3.91l-6.87,7.3-9.75,10.35-1.21-13.91-24.44.14c.42-4.8-.52-8.1-4.23-11.1-2.27-1.83-4.32-4-6.6-5.29l.69-2.17c.54-.13,1.07-.27,1.58-.35l-.7-2.39,3.09-9.64-7.4-26.38-5.85,1.2Zm15.74,47.71,5.42,18.71-31.3,7.87-9.66-19.26Zm-28.25,1.65-12.05,2.47-6.94,34.72-3.85-1.86-.46-53.45,26.05-17.85Zm-11.41-48,12,9.11-25.3,16.11L292.3,137.44Zm-26,17,10.48,12.33.49,55.88-8.93,9.36Zm-16.36,89.87a14.55,14.55,0,0,1,3.74,2.52l-5.73-26.9,16.18-9.52.68,25.32-10.85,11.38a32.3,32.3,0,0,1,2.71,3l20.72-21.74-1.67,17.89-11.95,12.06a18.63,18.63,0,0,0,3.24,2.32l10.79-10.89,31,9.57-18.65,15.65a18.81,18.81,0,0,1,.73,6.5c-.1,2-1.89,3.63-4.78,4.91l-3.29,15L298.77,284l.72-3.58,5.74-4.82a75.57,75.57,0,0,1-7.67,1.36l-4.64,3.89-5.46-2.94-15.58-8.38-11.82-36.09-3.31-10.1a7.62,7.62,0,0,0,4.22-2.76l2.52,10.9a14.44,14.44,0,0,1,3-.69L263.06,216c.11-.39.22-.77.31-1.2,2.27-10.28,3-15.5-2.65-20.06-1.12-.9-2.17-1.88-3.23-2.8l-3.05-13.16,6.3-12.44Zm-15.91-69-7.06,12.88-24.6-9,8.26-10Zm13.51-48.57,5.74,19.6-32.29,6.45-10.14-20.39Zm-39,10.75L242,142.32l-2.55,11.83-4.93-1.21-7.62,9.41c-.24-.24-.49-.47-.73-.69ZM220,159.13a7.1,7.1,0,0,0-3.35,2.47c-1.46,1.76-3.86,1.32-6.21,1.23L196,121.51,202.11,105Zm-57.6-66.85,36.78,7.65L192,119.25l-32.57-8.16Zm-2.92,22.89,33,8.26,14.06,40.09a5.87,5.87,0,0,0-2.47,3.7c-1,3.66,2.41,6.22,2.08,8.94a4.79,4.79,0,0,1-1,2.08c-1.65,2.29-4.79,5.15-5.26,9.94,0,.24,0,.47,0,.71l-3.55.92-1.89-16.69-3.35-29.58-22.09-7.09Zm4.32,23.18L187,146.2l-8.46,12.48L154.4,147.84ZM152.9,150.7l25,12.26,5.76,43.65a9.85,9.85,0,0,0-1.14-.42c-3.35-.92-1.83-6.78-7.43-6.32l-.5-12.07-19.2-26.44-.12.06Zm1,16.6L167.75,186l-32.19,17-18.84-18.14Zm-23.56,5.8-17,8a15.32,15.32,0,0,0-4.36-3.34l9.41-30.42,25.91-9Zm5.64-48,7.38,10.24-24.84,7.74-6-13Zm-25.61,8.36,5.27,12.57-9.75,31.56a7.48,7.48,0,0,0-3.09,2.4c-1.06,1.27-2.59,1.4-4.25,1.33l-1.45-2.17Zm-16,47.87c-1.73.31-3.25,1.34-4.09,4.28-1.06,3.66,2.4,6.23,2.07,9s-5.63,5.69-6.25,12a10.14,10.14,0,0,0,.06,2.4L67.83,186l9.44-30.31ZM58.74,155.13l15-.38-9.94,28.47L47.1,180.5Zm-9.87,29.61,15.8,3.11,23.9,29.93c3.9-4.74,8.2-9.43,14.74-11.19a35.73,35.73,0,0,1,10.41-1.15L116.56,223l-5.35-6.9L93,228.4l-8.17-6L72.5,213.29Zm47.39,71.39L80.08,242l30.14-20.37,12,15.25ZM89.15,231l-14.67,9.89,2.89,15.2L61,246.18c-.28-3.44-4.43-5.31-3.81-8.73.7-3.84,2.84-5.87-3.56-9.74-1.46-.89-2.75-1.65-3.93-2.3l1.81-22.27Zm-62.9-29.48,21,.74-1.74,21.26a8.81,8.81,0,0,0-5.64-.18c-4.06,1.24-9.28,1.28-4.45,8.5,1.7,2.55.1,4.71-.58,6.95l-13.45,2Zm-.52,43.33,10.06-1.52a6.5,6.5,0,0,0,.74.75c5.23,4.56,8.52.33,12.72.92a10.45,10.45,0,0,1,2.88,1L78.46,261.8l2.86,15.05Zm42.81,32.86L69.3,275l5.53,3.19-.25.83Zm44.65,145.62L79.91,247.53l13.8,12,27.66,163.05Zm12.17-1L97.83,260l26.37-19.52,13.65,180.83Zm23-32.77L131.59,285.72l-3.63-48-5.23-6.74-6.47-40.05,16.07,15.48,25.92,183.75Zm29.8,1.78-15.08-.9-25.81-183,32.65-17.21L171,216.73c-3.87-3.29-7.68-7.26-11.53-2.14-2.59,3.43-10.25-2.33-11.57,5.08-.6,3.41,3,5.85,3,8.4s-4.82,5.24-4.7,11.15S152.57,251.1,158,251a10.58,10.58,0,0,0,5.41-1.36l-4.88,25.92,15.11,5.92,2.49,60.68-1.53,1.6,1.67,1.92Zm2-47.6,41.42-43.43,9.32,3.65-45.45,45.88Zm16,18.37L188,352.79l46.85-47.3,6.41,2.51,5.25,11.77Zm54.64,4.73-13.66-34,11.05-9.27,16.26,44.23ZM246.24,310l24.24,9.49L295.4,391.1,284,394.61Zm32.17,102.46,5.29-13.07,11.47-3.53-8.95,20.95ZM302,425.49,290,418.87l10.56-24.73,11-3.38-4.15-12.67,16.17-37.84,17,6.67,19.28-30-21.43-11.53,21.39-50.07,35.33-1.75Zm50.45-84,13.88-25.59,93.09-81.1L481,234Z"/><polygon class="cls-3" points="484.58 229.14 469.2 191.21 447.13 196 459.26 230.16 484.58 229.14"/><path class="cls-3" d="M439.24,213.43c-1.48,7.45-5.16,6.23-10.35,7.06s-4.73,6.54-10.65,7.37c-1.57.22-2.39-.23-2.81-1.06l-16,17,.83,9.53L372.66,304.2l82.45-71.83-12.3-34.64-3.39,3.59C440.91,204.16,440.38,207.71,439.24,213.43Z"/><polygon class="cls-3" points="143.4 135.37 136.02 125.13 112.58 130.09 118.56 143.11 143.4 135.37"/><path class="cls-3" d="M109,177.75a15.32,15.32,0,0,1,4.36,3.34l17-8,14-34.8-25.91,9Z"/><polygon class="cls-3" points="73.78 154.75 58.74 155.13 47.1 180.5 63.84 183.22 73.78 154.75"/><path class="cls-3" d="M86.16,209a10.14,10.14,0,0,1-.06-2.4c.62-6.33,5.93-9.3,6.25-12s-3.13-5.29-2.07-9c.84-2.94,2.36-4,4.09-4.28l-17.1-25.63L67.83,186Z"/><path class="cls-3" d="M196.89,194.19l1.22,10.75,5.4,3.05,2.25-14.81,17.42,3.94c2.48-.83,5.36-.76,8.21-.81l-3.29-10.23Z"/><polygon class="cls-3" points="178.52 158.68 186.98 146.2 163.81 138.35 154.4 147.84 178.52 158.68"/><polygon class="cls-3" points="193.16 302.47 196.25 302.15 194.98 292.55 185.27 296.64 193.16 302.47"/><path class="cls-3" d="M155.37,161.36l19.2,26.44.5,12.07c5.6-.46,4.08,5.4,7.43,6.32a9.85,9.85,0,0,1,1.14.42L177.88,163l-25-12.26,2.35,10.72Z"/><path class="cls-3" d="M289.58,223.16l-.68-25.32-16.18,9.52,5.73,26.9c.09.09.18.19.28.28Z"/><polygon class="cls-3" points="329.05 133.95 317.02 124.84 292.3 137.44 303.75 150.06 329.05 133.95"/><polygon class="cls-3" points="305.6 208.21 309.45 210.07 316.39 175.35 328.44 172.88 331.19 136.91 305.14 154.76 305.6 208.21"/><polygon class="cls-3" points="235.4 156.61 227.14 166.6 251.75 175.63 258.8 162.75 235.4 156.61"/><path class="cls-3" d="M226,169.51l8.56,26.63a10,10,0,0,0,6.3-2.66c5.72-5.77,9.57-6,12.88-4.31l-2.15-9.29Z"/><path class="cls-3" d="M261,220.57a7.62,7.62,0,0,1-4.22,2.76l3.31,10.1a10.65,10.65,0,0,1,3.43-2Z"/><path class="cls-3" d="M35.39,231.8c-4.83-7.22.39-7.26,4.45-8.5a8.81,8.81,0,0,1,5.64.18l1.74-21.26-21-.74-4.89,39.3,13.45-2C35.49,236.51,37.09,234.35,35.39,231.8Z"/><polygon class="cls-3" points="179.07 297.43 179.9 317.83 192.27 325.28 202.38 314.67 179.07 297.43"/><path class="cls-3" d="M53.62,227.71c6.4,3.87,4.26,5.9,3.56,9.74-.62,3.42,3.53,5.29,3.81,8.73l16.38,9.87-2.89-15.2L89.15,231,51.5,203.14l-1.81,22.27C50.87,226.06,52.16,226.82,53.62,227.71Z"/><polygon class="cls-3" points="116.72 184.84 135.56 202.98 167.75 186.01 153.94 167.3 116.72 184.84"/><path class="cls-3" d="M176.15,342.2l-2.49-60.68-15.11-5.92,4.88-25.92A10.58,10.58,0,0,1,158,251c-5.45.06-11.67-5.91-11.78-11.82s4.69-8.61,4.7-11.15-3.64-5-3-8.4c1.32-7.41,9-1.65,11.57-5.08,3.85-5.12,7.66-1.15,11.53,2.14l-1.08-26.48-32.65,17.21,25.81,183,15.08.9-1.87-45.59-1.67-1.92Z"/><polygon class="cls-3" points="110.22 221.63 80.08 242 96.26 256.13 122.27 236.88 110.22 221.63"/><polygon class="cls-3" points="124.2 240.46 97.83 259.98 125.36 422.3 137.85 421.29 124.2 240.46"/><polygon class="cls-3" points="321.15 178.56 330.81 197.81 362.11 189.94 356.69 171.23 321.15 178.56"/><polygon class="cls-3" points="295.76 342.41 298.41 330.38 290.85 327.41 295.76 342.41"/><polygon class="cls-3" points="313.24 211.91 323.45 216.85 327.15 200.04 318.91 183.61 313.24 211.91"/><path class="cls-3" d="M305.23,275.59l-5.74,4.82-.72,3.58,8.83,4.75,3.29-15A32.57,32.57,0,0,1,305.23,275.59Z"/><path class="cls-3" d="M334.25,242.76l-.92-9c-3.13-3.39-8.54-5.82-7.8-11.13l-19.3-9L305,232.57Z"/><polygon class="cls-3" points="246.51 319.77 241.27 308 234.87 305.49 188.01 352.79 196.09 362.08 246.51 319.77"/><path class="cls-3" d="M287.46,277.9l5.46,2.94,4.64-3.89C294.37,277.37,291,277.68,287.46,277.9Z"/><path class="cls-3" d="M294.87,249.44c4.91,1.6,17,2.68,20.07,12.93l18.65-15.65-31-9.57L291.78,248A15.55,15.55,0,0,0,294.87,249.44Z"/><path class="cls-5" d="M194.5,173.12l1.89,16.69,3.55-.92c0-.24,0-.47,0-.71.47-4.79,3.61-7.65,5.26-9.94-.92-.66-1.84-1.31-2.77-1.94A27,27,0,0,0,194.5,173.12Z"/><path class="cls-5" d="M364.69,204.88c-.51.08-1,.22-1.58.35l-.69,2.17c2.28,1.3,4.33,3.46,6.6,5.29,3.71,3,4.65,6.3,4.23,11.1l24.44-.14,1.21,13.91,9.75-10.35C404.78,223,401.35,219,396,216.7a22.42,22.42,0,0,0-3.66-1.17c-.62-.14-1.23-.28-1.9-.37a20.12,20.12,0,0,1-7.56-2.89c-2.81-1.68-5.35-3.71-8.07-5.26A14.86,14.86,0,0,0,364.69,204.88Z"/><path class="cls-5" d="M265.6,173.92l6.13,28.78,6.43-3.79a3.45,3.45,0,0,0-.23-1.19c-1-2.31-5.47-3-3.75-6.79s6.73-1,9.14-3.63,3.85-2.6,5.24-1.94l-.36-13.71c-2.42-.12-4.92-.11-7.38-.06s-4.89.14-7.05.14a10.79,10.79,0,0,0-1.64.14,23.86,23.86,0,0,0-4.81,1.36C266.76,173.44,266.19,173.67,265.6,173.92Z"/><path class="cls-5" d="M175.66,214.31l.22,5.45a4.34,4.34,0,0,0,4-.91c9.12-7.21,14.61,1.45,15.21,7a10.34,10.34,0,0,1-.06,2.28l14,7.55-7.28-16.34,1.45-9.53c-2.55-.14-5.17-.16-7.81-.05a70.33,70.33,0,0,0-8.06.83c-1,.17-2.06.32-3.06.54A51,51,0,0,0,175.66,214.31Z"/><path class="cls-5" d="M93,228.4l18.26-12.31,5.35,6.9-2.84-17.55a35.73,35.73,0,0,0-10.41,1.15c-6.54,1.76-10.84,6.45-14.74,11.19-1.28,1.56-2.53,3.12-3.79,4.58Z"/><path class="cls-5" d="M269.38,230.59a22.85,22.85,0,0,0-2.89.19,14.44,14.44,0,0,0-3,.69,10.65,10.65,0,0,0-3.43,2l11.82,36.09,15.58,8.38c3.49-.22,6.91-.53,10.1-.95a75.57,75.57,0,0,0,7.67-1.36,32.57,32.57,0,0,0,5.66-1.81c2.89-1.28,4.68-2.88,4.78-4.91a18.81,18.81,0,0,0-.73-6.5c-3.08-10.25-15.16-11.33-20.07-12.93a15.55,15.55,0,0,1-3.09-1.4,18.63,18.63,0,0,1-3.24-2.32c-2.76-2.45-4.88-5.49-7.1-8.21a32.3,32.3,0,0,0-2.71-3c-.1-.09-.19-.19-.28-.28a14.55,14.55,0,0,0-3.74-2.52A12.45,12.45,0,0,0,269.38,230.59Z"/><polygon class="cls-3" points="393.55 228.09 354.3 228.34 360.72 250.88 395.57 249.15 393.55 228.09"/><polygon class="cls-3" points="350.92 233.24 324.73 297.96 334.68 303.31 356.39 252.47 350.92 233.24"/><polygon class="cls-3" points="283.7 399.34 278.41 412.41 286.22 416.76 295.17 395.81 283.7 399.34"/><polygon class="cls-3" points="319.58 338.67 309.8 334.84 300.67 357.4 305.4 371.85 319.58 338.67"/><polygon class="cls-3" points="206.37 216.59 238.66 225.29 245.83 206.29 209.37 198.02 206.37 216.59"/><polygon class="cls-3" points="248.72 211.41 242.6 227.61 253.79 259.78 266.9 266.84 248.72 211.41"/><polygon class="cls-3" points="286.18 325.58 275.17 321.27 299.05 389.97 306.54 387.66 286.18 325.58"/><polygon class="cls-3" points="164.39 271.34 184.79 264.84 187.05 232.15 169.65 240.71 164.39 271.34"/><path class="cls-6" d="M278.55,138l-32.74,6.53-2.3,10.63,19.1,4.7,3,14.07c.59-.25,1.16-.48,1.72-.69Z"/><polygon class="cls-6" points="216.7 298.38 212.91 296.89 211.03 305.59 217.06 299.27 216.7 298.38"/><path class="cls-6" d="M194.5,173.12a27,27,0,0,1,7.92,3.18c.93.63,1.85,1.28,2.77,1.94a4.79,4.79,0,0,0,1-2.08c.33-2.72-3.13-5.28-2.08-8.94a5.87,5.87,0,0,1,2.47-3.7l-14.06-40.09-33-8.26,9.57,21.28,22.09,7.09Z"/><path class="cls-6" d="M367.08,192.85,364,202.49l.7,2.39A14.86,14.86,0,0,1,374.8,207L355,133.84,341,123.52l12.88,44.15,5.85-1.2Z"/><polygon class="cls-6" points="373.3 332.23 374.57 329.11 371.55 331.63 373.3 332.23"/><path class="cls-6" d="M408.65,227.21l6.87-7.3a9.52,9.52,0,0,0-.24-3.91c-1.48-4.13-8.52-5.58-5.56-12.2s10.77-1.32,14.76-5.77a11.74,11.74,0,0,1,4.59-3.51l12.25-30.25-31.62,7.44L396,216.7C401.35,219,404.78,223,408.65,227.21Z"/><polygon class="cls-6" points="480.99 233.97 459.38 234.84 366.29 315.94 352.4 341.53 480.99 233.97"/><path class="cls-6" d="M102.84,180a7.48,7.48,0,0,1,3.09-2.4l9.75-31.56-5.27-12.57L97.14,179.18l1.45,2.17C100.25,181.42,101.78,181.29,102.84,180Z"/><polygon class="cls-6" points="69.3 275.05 68.53 277.67 74.58 279.06 74.83 278.23 69.3 275.05"/><path class="cls-6" d="M84.78,222.36c1.26-1.46,2.51-3,3.79-4.58l-23.9-29.93-15.8-3.11L72.5,213.29Z"/><polygon class="cls-6" points="237.07 332.77 250.73 366.81 264.38 367.73 248.12 323.5 237.07 332.77"/><polygon class="cls-6" points="199.38 301.81 205.83 301.13 205 293.79 198.27 291.16 197.99 291.27 199.38 301.81"/><path class="cls-6" d="M195.42,209.79l-6.82-59.88L181,162l6.41,48.6A70.33,70.33,0,0,1,195.42,209.79Z"/><polygon class="cls-6" points="178.56 285.02 178.71 288.67 183.25 292.76 192.44 288.88 180.44 284.17 178.56 285.02"/><polygon class="cls-6" points="293.12 219.44 302.04 210.08 301.55 154.2 291.07 141.87 293.12 219.44"/><path class="cls-6" d="M257.49,191.9c1.06.92,2.11,1.9,3.23,2.8,5.66,4.56,4.92,9.78,2.65,20.06-.09.43-.2.81-.31,1.2l3.43,14.82a22.85,22.85,0,0,1,2.89-.19,12.45,12.45,0,0,1,5.33,1.15l-14-65.44-6.3,12.44Z"/><polygon class="cls-6" points="180.12 323.05 180.57 334.07 182.72 335.31 189.19 328.52 180.12 323.05"/><path class="cls-6" d="M81.32,276.85,78.46,261.8,52.13,245.94a10.45,10.45,0,0,0-2.88-1c-4.2-.59-7.49,3.64-12.72-.92a6.5,6.5,0,0,1-.74-.75l-10.06,1.52Z"/><polygon class="cls-6" points="132.33 206.37 116.26 190.89 122.73 230.94 127.96 237.68 131.59 285.72 148.36 389.53 158.25 390.12 132.33 206.37"/><polygon class="cls-6" points="93.71 259.58 79.91 247.53 113.19 423.29 121.37 422.63 93.71 259.58"/><polygon class="cls-6" points="298.2 349.86 298.56 350.95 305.71 333.24 302.18 331.85 298.2 349.86"/><path class="cls-6" d="M330.82,202l-3.62,16.45c4.91-7.47,16.07-1,21.92-6.94,3.9-3.94,6.92-5.29,9.51-5.22L362.55,194Z"/><path class="cls-6" d="M316.71,266l-5.46,24.74,9.57,5.15,17.42-43.11c-1.87-.05-2.82-.86-3.24-2.13Z"/><path class="cls-6" d="M288.54,245.72l11.95-12.06,1.67-17.89-20.72,21.74C283.66,240.23,285.78,243.27,288.54,245.72Z"/><polygon class="cls-6" points="230.88 303.93 221.56 300.28 180.14 343.71 185.43 349.81 230.88 303.93"/><polygon class="cls-6" points="395.23 253.56 359.9 255.31 338.51 305.38 359.94 316.91 340.66 346.92 323.62 340.25 307.45 378.1 311.6 390.76 300.59 394.14 290.03 418.87 301.95 425.49 395.23 253.56"/><polygon class="cls-6" points="239.19 229.45 206.45 220.62 214.47 238.62 248.8 257.1 239.19 229.45"/><polygon class="cls-6" points="295.4 391.1 270.48 319.44 246.25 309.95 283.96 394.61 295.4 391.1"/><polygon class="cls-6" points="338.97 341.57 343.88 333.93 187.27 268.82 167.83 274.45 338.97 341.57"/><polygon class="cls-6" points="191.44 231.18 190.35 265.37 346.27 330.2 353.76 318.54 191.44 231.18"/><path class="cls-7" d="M374.55,248.2c3.56,0,21.93,6.44,34.34,8.16,5.89.82,10.35,2.15,17.79,9,4,3.7-51.35,5.78-51.35,5.78Z"/><path class="cls-7" d="M82.25,252.71c-3.87,0-16.21,3.94-18.41,6.23s-6.21,6.88-6.76,9.17,23.17,2.28,23.17,2.28Z"/><path class="cls-7" d="M94.45,268.39c22.76-2.57,46.34-34.37,66.2-19.76,30.39,22.36,11.59,27.5,11.59,27.5l-77.79-7.74"/><path class="cls-4" d="M236.82,252.73c2.33,2-6.28,5.33-2.86,7.11s4.86-.59,7.14-.3,3.71,4.74,8,3,7.52-3,5.14-7.41c-2.86-5.33-7.68-.23-9.71-3.86C241.39,245.62,231.69,248.28,236.82,252.73Z"/><path class="cls-8" d="M361.52,270.12c-44.58-.82-95.74-1.27-123.24-1.28h-.86c-27.54,0-78.71.46-123.23,1.28-38.63.72-78.65,1.7-83.92,3.53-.45.55-2.49,4,.08,18.31h.52a5.87,5.87,0,0,1,5.72,5.12L68.3,486.66A5.83,5.83,0,0,0,74,491.77H401.67a5.83,5.83,0,0,0,5.73-5.11l31.71-189.58a5.87,5.87,0,0,1,5.73-5.12h.51c2.58-14.34.53-17.76.09-18.31C440.17,271.82,400.15,270.84,361.52,270.12Z"/><path class="cls-9" d="M361.52,270.12c-44.58-.82-95.74-1.27-123.24-1.28h-.86c-27.54,0-78.71.46-123.23,1.28-38.63.72-78.65,1.7-83.92,3.53-.45.55-2.49,4,.08,18.31h.52a5.87,5.87,0,0,1,5.72,5.12L68.3,486.66A5.83,5.83,0,0,0,74,491.77H401.67a5.83,5.83,0,0,0,5.73-5.11l31.71-189.58a5.87,5.87,0,0,1,5.73-5.12h.51c2.58-14.34.53-17.76.09-18.31C440.17,271.82,400.15,270.84,361.52,270.12Z"/><path class="cls-10" d="M239.92,291h-4.14c-70.81.2-139.69,1.74-187,4,0,0,19.86,127.17,67.86,146.94,23,9.48,72.55,13.22,121.22,12.75,48.67.47,98.19-3.27,121.23-12.75C407.07,422.2,426.93,295,426.93,295,379.62,292.75,310.73,291.21,239.92,291Z"/><rect class="cls-4" x="302.8" y="451.17" width="117.82" height="34.96"/><path class="cls-11" d="M99.84,354.43,89,407.36c15.42-1.27,26.71-22,26.71-39,0-11.73-5.5-21.56-18.93-21.56-24.72,0-39.52,14.42-39.52,38.51,0,8.08,2,9.35,2.13,10.78-10.53,0-16.33-4-16.33-15.38,0-21.07,28.09-41.2,53.57-41.2,25,0,36,14.9,36,31.22,0,20.13-16.63,42.47-44.1,42.47h-.76l-9.31,45.17h-22L77.25,357.6Z"/><path class="cls-11" d="M174.35,405.67a3.31,3.31,0,0,0,1.6.3c6.67,0,16.1-4.52,22.34-9l1.3,4.06c-5.51,6.19-15.09,10.7-25.68,12.51-2.32,27.88-16.83,45.35-34.68,45.35-13.49,0-23.21-6.63-23.21-23.8,0-17.33,9.86-53.49,39.75-53.49C168.26,381.56,174.35,389.85,174.35,405.67ZM161.87,414c-3.05-.76-3.92-3.32-3.92-6.34,0-4.22,1.89-6.92,4.5-8.13-.29-6.33-1.74-8.74-5.51-8.74-10.3,0-19.3,27.57-19.3,42.34,0,9.94,1.88,12.21,7.4,12.21C152.15,445.3,159.55,431.73,161.87,414Z"/><path class="cls-11" d="M248.35,382.91,237.9,434.14a21.51,21.51,0,0,0-.58,4.83c0,4.22,1.89,5.57,6,5.57,5.66,0,9.58-5.72,11.75-13.26h6.1c-8.27,24.56-21.33,27.88-29.16,27.88-8.28,0-13.5-5-14.37-14.32-7.26,12.36-15.38,14.32-21.48,14.32-8.7,0-15.52-5.43-15.52-18.09a50.8,50.8,0,0,1,1.16-9.79l9.86-48.37h20.9l-10.45,51.23a22,22,0,0,0-.43,4.22c0,3.47,1.16,6.18,4.35,6.18,5.66,0,9.43-5.72,11.61-13.26l9.86-48.37Z"/><path class="cls-11" d="M290.72,359.11l-4.94,23.8h8.71l-1.16,6h-8.71l-9.28,45.2a21.6,21.6,0,0,0-.59,4.83c0,4.22,1.89,5.57,5.95,5.57,5.66,0,10.89-5.72,13.07-13.26h6.09c-8.27,24.56-22.64,27.88-30.47,27.88-8.71,0-15.53-5.43-15.53-18.09a50.8,50.8,0,0,1,1.16-9.79l8.71-42.34h-4.79l1.16-6h4.79l4.35-20.79Z"/><path class="cls-11" d="M324.53,382.91l-10.46,51.23a22.11,22.11,0,0,0-.58,4.83c0,4.22,1.89,5.57,6,5.57,5.65,0,10.87-5.72,13.05-13.26h6.1c-8.28,24.56-22.64,27.88-30.47,27.88-8.71,0-15.53-5.43-15.53-18.09a50.88,50.88,0,0,1,1.17-9.79l9.86-48.37ZM318,350.82a11.87,11.87,0,0,1,11.6,12.06,11.54,11.54,0,1,1-23.07,0C306.53,356.24,311.61,350.82,318,350.82Z"/><path class="cls-11" d="M369.06,396c-5.22,0-9.14,6.33-11.32,13.86l-9.86,48.37H327l15.39-75.34h20.89l-1.6,7.84c6.1-7.23,12.48-8.44,17-8.44,9.29,0,16.11,5,16.11,17,0,12.21-7,30.45-7,38.88,0,3.77,1.45,6.33,5.8,6.33,6.38,0,9-5.42,12.19-13.26h6.1c-8.13,24.71-19.3,27.88-27,27.88-12.62,0-17.12-8.44-17.12-17,0-10.25,6.53-28.78,6.53-38.42C374.29,398.74,372.54,396,369.06,396Z"/><path class="cls-11" d="M434.21,444.84c5.51,0,12.48-3.77,17.12-8-3,17.17-13.49,22.3-25.1,22.3-13.49,0-22.49-6.94-22.49-24,0-17.33,9.43-53.64,39.18-53.64,12.91,0,16,6.93,16,14.46,0,17.48-16,30.74-33.38,31.8-.14,1.51-.29,3.16-.29,4.52C425.21,441.83,429.13,444.84,434.21,444.84Zm9.87-55.3c-7.26,0-14.51,16.73-17.56,31,11.32-.6,21.18-12.2,21.18-24.86C447.7,392,446.83,389.54,444.08,389.54Z"/><path d="M99.84,354.43,89,407.36c15.42-1.27,26.71-22,26.71-39,0-11.73-5.5-21.56-18.93-21.56-24.72,0-39.52,14.42-39.52,38.51,0,8.08,2,9.35,2.13,10.78-10.53,0-16.33-4-16.33-15.38,0-21.07,28.09-41.2,53.57-41.2,25,0,36,14.9,36,31.22,0,20.13-16.63,42.47-44.1,42.47h-.76l-9.31,45.17h-22L77.25,357.6Z"/><path d="M174.35,405.67a3.31,3.31,0,0,0,1.6.3c6.67,0,16.1-4.52,22.34-9l1.3,4.06c-5.51,6.19-15.09,10.7-25.68,12.51-2.32,27.88-16.83,45.35-34.68,45.35-13.49,0-23.21-6.63-23.21-23.8,0-17.33,9.86-53.49,39.75-53.49C168.26,381.56,174.35,389.85,174.35,405.67ZM161.87,414c-3.05-.76-3.92-3.32-3.92-6.34,0-4.22,1.89-6.92,4.5-8.13-.29-6.33-1.74-8.74-5.51-8.74-10.3,0-19.3,27.57-19.3,42.34,0,9.94,1.88,12.21,7.4,12.21C152.15,445.3,159.55,431.73,161.87,414Z"/><path d="M248.35,382.91,237.9,434.14a21.51,21.51,0,0,0-.58,4.83c0,4.22,1.89,5.57,6,5.57,5.66,0,9.58-5.72,11.75-13.26h6.1c-8.27,24.56-21.33,27.88-29.16,27.88-8.28,0-13.5-5-14.37-14.32-7.26,12.36-15.38,14.32-21.48,14.32-8.7,0-15.52-5.43-15.52-18.09a50.8,50.8,0,0,1,1.16-9.79l9.86-48.37h20.9l-10.45,51.23a22,22,0,0,0-.43,4.22c0,3.47,1.16,6.18,4.35,6.18,5.66,0,9.43-5.72,11.61-13.26l9.86-48.37Z"/><path d="M290.72,359.11l-4.94,23.8h8.71l-1.16,6h-8.71l-9.28,45.2a21.6,21.6,0,0,0-.59,4.83c0,4.22,1.89,5.57,5.95,5.57,5.66,0,10.89-5.72,13.07-13.26h6.09c-8.27,24.56-22.64,27.88-30.47,27.88-8.71,0-15.53-5.43-15.53-18.09a50.8,50.8,0,0,1,1.16-9.79l8.71-42.34h-4.79l1.16-6h4.79l4.35-20.79Z"/><path d="M324.53,382.91l-10.46,51.23a22.11,22.11,0,0,0-.58,4.83c0,4.22,1.89,5.57,6,5.57,5.65,0,10.87-5.72,13.05-13.26h6.1c-8.28,24.56-22.64,27.88-30.47,27.88-8.71,0-15.53-5.43-15.53-18.09a50.88,50.88,0,0,1,1.17-9.79l9.86-48.37ZM318,350.82a11.87,11.87,0,0,1,11.6,12.06,11.54,11.54,0,1,1-23.07,0C306.53,356.24,311.61,350.82,318,350.82Z"/><path d="M369.06,396c-5.22,0-9.14,6.33-11.32,13.86l-9.86,48.37H327l15.39-75.34h20.89l-1.6,7.84c6.1-7.23,12.48-8.44,17-8.44,9.29,0,16.11,5,16.11,17,0,12.21-7,30.45-7,38.88,0,3.77,1.45,6.33,5.8,6.33,6.38,0,9-5.42,12.19-13.26h6.1c-8.13,24.71-19.3,27.88-27,27.88-12.62,0-17.12-8.44-17.12-17,0-10.25,6.53-28.78,6.53-38.42C374.29,398.74,372.54,396,369.06,396Z"/><path d="M434.21,444.84c5.51,0,12.48-3.77,17.12-8-3,17.17-13.49,22.3-25.1,22.3-13.49,0-22.49-6.94-22.49-24,0-17.33,9.43-53.64,39.18-53.64,12.91,0,16,6.93,16,14.46,0,17.48-16,30.74-33.38,31.8-.14,1.51-.29,3.16-.29,4.52C425.21,441.83,429.13,444.84,434.21,444.84Zm9.87-55.3c-7.26,0-14.51,16.73-17.56,31,11.32-.6,21.18-12.2,21.18-24.86C447.7,392,446.83,389.54,444.08,389.54Z"/><path d="M333.21,513.24a2.86,2.86,0,0,1-2.86-2.86V494.21l-6.69,17.2a2.86,2.86,0,0,1-2.66,1.83h-9.07a2.86,2.86,0,0,1-2.86-2.86V472.72c-2.87,2-4.27,5-4.27,9.22a5,5,0,0,0,.39,2.46,4.15,4.15,0,0,1,.45,1.42A2.85,2.85,0,0,1,302.8,489c-7.82,0-9.46-4.81-9.46-8.84,0-10.47,13.41-18.9,24.51-18.9,1,0,1.84.07,2.69.13a2.87,2.87,0,0,1,2.64,2.81l.31,21.55,7.64-22.25a2.84,2.84,0,0,1,2.7-1.93h8.08a2.86,2.86,0,0,1,2.86,2.86v21l7.71-21.94a2.86,2.86,0,0,1,2.69-1.91h4.32a2.86,2.86,0,0,1,2.68,3.86l-17.15,46a2.87,2.87,0,0,1-2.68,1.86Z"/><path class="cls-4" d="M317.85,464.11c.87,0,1.67.06,2.47.12l.56,37.94,12.95-37.75h8.08v37.75l13.26-37.75h4.32l-17.15,46h-9.13V479L321,510.38h-9.07V468.24c-6.72,2.1-10,6.91-10,13.7a8.62,8.62,0,0,0,.86,4.19c-4.26,0-6.6-1.54-6.6-6,0-8.21,11.35-16,21.65-16m0-5.72a31.58,31.58,0,0,0-18,6c-5.93,4.29-9.33,10-9.33,15.73,0,7.33,4.61,11.7,12.32,11.7a5.7,5.7,0,0,0,3.41-1.13v19.66a5.72,5.72,0,0,0,5.72,5.71H321a5.71,5.71,0,0,0,5.33-3.64l1.17-3v.94a5.71,5.71,0,0,0,5.71,5.71h9.13a5.72,5.72,0,0,0,5.36-3.71l17.15-46a5.72,5.72,0,0,0-5.36-7.72h-4.32a5.71,5.71,0,0,0-5.39,3.82l-2.15,6.13v-4.23a5.72,5.72,0,0,0-5.72-5.72h-8.08a5.73,5.73,0,0,0-5.41,3.86l-2.31,6.74-.07-5.15a5.73,5.73,0,0,0-5.29-5.62c-.87-.06-1.83-.14-2.9-.14Z"/><path d="M425.75,513.61c-6.56,0-10.63-3.79-10.63-9.9a18.27,18.27,0,0,1,.43-3.79l.49-2.39a8.05,8.05,0,0,0,.19-1.63,7.88,7.88,0,0,0-1.35.84l-3,14.23a2.87,2.87,0,0,1-2.8,2.27h-8.88a2.83,2.83,0,0,1-2.22-1.07,2.78,2.78,0,0,1-.58-1.21,18.86,18.86,0,0,1-9.72,2.65c-4.87,0-8.53-1.82-10.59-5.11a19.46,19.46,0,0,1-13.1,5.11c-7.93,0-12.48-4.62-12.48-12.67s4.77-24.82,19.51-24.82c5.64,0,9.07,2.71,9.58,7.49a16.84,16.84,0,0,1,14.11-7.49c4.44,0,7.51,1.68,8.86,4.73l2.78-13a2.85,2.85,0,0,1,2.41-2.23l9.13-1.24.38,0a2.85,2.85,0,0,1,2.1.91,2.88,2.88,0,0,1,.7,2.54l-3,14,5.7-4.48a2.82,2.82,0,0,1,1.76-.62h6.11a2.86,2.86,0,0,1,1.63,5.21l-6.58,4.57c2.69,1.69,4.29,4.75,4.29,8.63a12.85,12.85,0,0,1-.32,3s-.81,3.7-.83,3.83a2.29,2.29,0,0,0,.3,0l.2-.1a3,3,0,0,1,1.13-.22,2.77,2.77,0,0,1,1.65.53,2.82,2.82,0,0,1,1.2,2.52C433.93,510.4,429,513.61,425.75,513.61Zm-35.38-11a3.69,3.69,0,0,0,1.26.14c3.34,0,5.48-1.59,8.3-4.72l.77-3.63a18.75,18.75,0,0,1-10.65,6.09,4.22,4.22,0,0,0,.32,2.12Zm-23.69,0a3.73,3.73,0,0,0,1.27.14c3,0,5.06-1.35,7.33-3.7.07-.84.2-2,.44-3.29a19,19,0,0,1-9.36,4.73,4.22,4.22,0,0,0,.32,2.12Z"/><path class="cls-4" d="M418.28,467.2l-4.62,21.71,11.9-9.38h6.11l-12.34,8.58a10.94,10.94,0,0,1,2-.25c4.56,0,6.78,3.27,6.78,7.22a10.69,10.69,0,0,1-.24,2.34l-.68,3.09a10.26,10.26,0,0,0-.31,2c0,1.23.49,2.28,2.41,2.28a4,4,0,0,0,2.16-.37c-.31,4.38-4.14,6.36-5.74,6.36-5.06,0-7.77-2.53-7.77-7a15.27,15.27,0,0,1,.37-3.2l.49-2.41a10.58,10.58,0,0,0,.25-2.28c0-1.79-.62-3-2.22-3-1.42,0-2.84.86-4.57,2.28l-3.21,15.24h-8.88l1.46-6.87c-3.34,4-7.83,7.24-14,7.24-5.12,0-8.7-2.22-9.47-7.54-3.37,4.15-7.92,7.54-14.22,7.54-5.8,0-9.63-2.84-9.63-9.81s4-22,16.66-22c5.49,0,6.79,2.84,6.79,5.92,0,7.09-6.79,12.58-14.19,13-.06.86-.13,1.72-.13,2.46,0,4.2,1.49,5.19,4.45,5.19,4.45,0,7.31-2.28,10.13-5.36.26-7.33,4.41-21.23,16.64-21.23,5.49,0,6.79,2.84,6.79,5.92,0,7.09-6.79,12.58-14.19,13-.07.86-.13,1.72-.13,2.46,0,4.2,1.48,5.19,4.44,5.19,4.88,0,7.84-2.72,10.92-6.24h0l6.59-30.9,9.13-1.23M387.81,495c4.75-.3,8.94-5.05,8.94-10.17,0-1.55-.37-2.53-1.54-2.53-3.14,0-6.17,6.6-7.4,12.7m-23.69,0c4.75-.3,8.95-5.05,8.95-10.17,0-1.55-.37-2.53-1.55-2.53-3.14,0-6.16,6.6-7.4,12.7m54.16-33.47a6.47,6.47,0,0,0-.76,0l-9.13,1.23a5.75,5.75,0,0,0-4.83,4.48L401.92,475a14.55,14.55,0,0,0-7.2-1.7,19.35,19.35,0,0,0-13,4.91c-2.07-3.13-5.78-4.91-10.66-4.91-15.43,0-22.37,16.19-22.37,27.68,0,9.57,5.88,15.52,15.34,15.52a21.72,21.72,0,0,0,12.65-4c2.66,2.57,6.44,4,11,4a21.78,21.78,0,0,0,8.75-1.79,5.69,5.69,0,0,0,3.77,1.42h8.88a5.72,5.72,0,0,0,5.59-4.5c2.31,3.09,6.17,4.87,11.07,4.87,4.45,0,10.9-4.05,11.44-11.67a5.69,5.69,0,0,0-3.78-5.78l.08-.34a16.54,16.54,0,0,0,.38-3.59,13.54,13.54,0,0,0-2.61-8.3l3.67-2.55a5.71,5.71,0,0,0-3.26-10.41h-6.11a5.71,5.71,0,0,0-3,.87l1.35-6.3a5.72,5.72,0,0,0-5.6-6.91Z"/><path d="M20.34,429.57c6.41,1.42,12.89,8,20.72,8a13.33,13.33,0,0,0,5.19-1c-.62,5.92-3.09,9.69-6.42,9.69-8.82,0-16.59-14-27.51-14a11.16,11.16,0,0,0-1.42.06l9.19-42.74c-5.37,2.22-8.64,6.84-8.64,13.44a8.62,8.62,0,0,0,.87,4.2c-4.26,0-6.6-1.54-6.6-6,0-8.2,11.35-16,21.65-16,.86,0,1.67.07,2.47.13Z"/><path d="M58.34,400l-4.44,21a8.39,8.39,0,0,0-.25,2c0,1.73.8,2.28,2.53,2.28a3.12,3.12,0,0,0,1.36-.25c-1.67,4.32-2.84,6.23-6.17,6.23s-5.55-2.15-6-5.73c-1.85,2.83-4.81,5.73-9.19,5.73-4.19,0-8.2-2.59-8.2-9.93,0-8.33,5.12-21.59,15.85-21.59,3.52,0,5,1.36,5,3.15v.43l.68-3.27ZM37.06,420.38c0,4.75,2,4.81,3.08,4.81,1.79,0,4.38-1.85,5.12-5.43l3-13.94a2.39,2.39,0,0,0-2.53-2.34C40.45,403.48,37.06,414.58,37.06,420.38Z"/><path d="M20.34,429.57c6.41,1.42,12.89,8,20.72,8a13.33,13.33,0,0,0,5.19-1c-.62,5.92-3.09,9.69-6.42,9.69-8.82,0-16.59-14-27.51-14a11.16,11.16,0,0,0-1.42.06l9.19-42.74c-5.37,2.22-8.64,6.84-8.64,13.44a8.62,8.62,0,0,0,.87,4.2c-4.26,0-6.6-1.54-6.6-6,0-8.2,11.35-16,21.65-16,.86,0,1.67.07,2.47.13Z"/><path d="M58.34,400l-4.44,21a8.39,8.39,0,0,0-.25,2c0,1.73.8,2.28,2.53,2.28a3.12,3.12,0,0,0,1.36-.25c-1.67,4.32-2.84,6.23-6.17,6.23s-5.55-2.15-6-5.73c-1.85,2.83-4.81,5.73-9.19,5.73-4.19,0-8.2-2.59-8.2-9.93,0-8.33,5.12-21.59,15.85-21.59,3.52,0,5,1.36,5,3.15v.43l.68-3.27ZM37.06,420.38c0,4.75,2,4.81,3.08,4.81,1.79,0,4.38-1.85,5.12-5.43l3-13.94a2.39,2.39,0,0,0-2.53-2.34C40.45,403.48,37.06,414.58,37.06,420.38Z"/><path class="cls-4" d="M27.37,385.15c.86,0,1.67.07,2.47.13l-9.5,44.29c6.41,1.42,12.89,8,20.72,8a13.33,13.33,0,0,0,5.19-1c-.62,5.92-3.09,9.69-6.42,9.69-8.82,0-16.59-14-27.51-14a11.16,11.16,0,0,0-1.42.06l9.19-42.74c-5.37,2.22-8.64,6.84-8.64,13.44a8.62,8.62,0,0,0,.87,4.2c-4.26,0-6.6-1.54-6.6-6,0-8.2,11.35-16,21.65-16m0-5.71a31.56,31.56,0,0,0-18,6C3.4,389.75,0,395.49,0,401.19c0,6.31,3.41,10.43,9.27,11.45l-4,18.44a5.74,5.74,0,0,0,6.3,6.88,6,6,0,0,1,.71,0c3.75,0,7.6,3.07,11.68,6.32,4.75,3.78,9.66,7.68,15.83,7.68,5.11,0,11-3.89,12.1-14.81a5.71,5.71,0,0,0-7.87-5.87,7.53,7.53,0,0,1-3,.55c-3.15,0-6.45-1.8-9.94-3.72-1.36-.74-2.74-1.49-4.15-2.17l8.46-39.44a5.72,5.72,0,0,0-5.15-6.9c-.85-.07-1.81-.14-2.91-.14Z"/><path class="cls-4" d="M43.78,399.65c3.52,0,5,1.36,5,3.15v.43l.68-3.27h8.88l-4.44,21a8.39,8.39,0,0,0-.25,2c0,1.73.8,2.28,2.53,2.28a3.12,3.12,0,0,0,1.36-.25c-1.67,4.32-2.84,6.23-6.17,6.23s-5.55-2.15-6-5.73c-1.85,2.83-4.81,5.73-9.19,5.73-4.19,0-8.2-2.59-8.2-9.93,0-8.33,5.12-21.59,15.85-21.59m-3.64,25.54c1.79,0,4.38-1.85,5.12-5.43l3-13.94a2.39,2.39,0,0,0-2.53-2.34c-5.24,0-8.63,11.1-8.63,16.9,0,4.75,2,4.81,3.08,4.81m3.64-31.25c-6.81,0-12.8,3.7-16.85,10.44a34.07,34.07,0,0,0-4.72,16.86c0,6.16,2.26,9.77,4.15,11.71a13.48,13.48,0,0,0,9.77,3.94,15.07,15.07,0,0,0,8.06-2.34,11.58,11.58,0,0,0,7.18,2.34c7.69,0,10.07-6.19,11.5-9.89a5.7,5.7,0,0,0-1.37-6.17A5.54,5.54,0,0,0,60,419.78l3.94-18.64a5.72,5.72,0,0,0-5.59-6.9H49.46a5.68,5.68,0,0,0-1.6.23,14.84,14.84,0,0,0-4.08-.53Z"/><path class="cls-4" d="M123.84,343.81c-9.78,0-16.1-5.63-16.1-14.35s6-13.56,11.81-13.86c-2.47-2.94-4.69-6.35-4.69-11,0-8.42,7.39-14.77,17.18-14.77,8.14,0,13.2,4.32,13.2,11.28,0,5.16-2.81,9.08-6.9,10a19.32,19.32,0,0,1,5.53,13.77C143.87,336,135.63,343.81,123.84,343.81Zm1.31-16c-.62,0-2.65.1-2.65,1.39,0,1.51.91,1.51,1.45,1.51,1.52,0,2.38-1,2.56-2.9ZM132.27,301c-1.18,0-1.22.23-1.22,1.21a3.48,3.48,0,0,0,0,.57l.79-.48a2.42,2.42,0,0,0,.58-1.3Z"/><path d="M136.55,307.09a3.22,3.22,0,0,1-2.62-1.24,6.29,6.29,0,0,0,2.56-5.09c0-2.08-1.08-4-4.22-4s-5.24,1.83-5.24,5.38c0,8.71,12.82,9.89,12.82,22.67,0,10-7.75,14.8-16,14.8-6.5,0-12.09-3-12.09-10.18,0-6.39,4.39-9.71,8.38-9.71,2,0,4.85.83,5,3.91-3.08,0-6.67,1.48-6.67,5.56,0,3,1.82,5.69,5.47,5.69,3.82,0,6.61-2.9,6.61-7.88,0-10.12-11.68-13.73-11.68-22.43,0-6.15,5.81-10.59,13.16-10.59,2.68,0,9.18.59,9.18,7.1C141.22,304.54,139.4,307.09,136.55,307.09Z"/><path class="cls-4" d="M150.86,342.93c-8.09,0-12.91-5.08-12.91-13.59,0-10.48,6-25.24,19.4-25.24,6.45,0,10.29,3.68,10.29,9.85a15.66,15.66,0,0,1-3.46,9.68h9.57L170,330C164.83,338.58,158.4,342.93,150.86,342.93Z"/><path d="M154.5,333.78c4.51,0,7.24-2.6,10.09-6h1.94c-3.25,5.45-8.09,10.95-15.67,10.95-5.36,0-8.89-2.72-8.89-9.41s3.7-21.07,15.38-21.07c5.08,0,6.27,2.72,6.27,5.68,0,6.81-6.27,12.08-13.11,12.49,0,.83-.11,1.66-.11,2.37C150.4,332.84,151.77,333.78,154.5,333.78Zm3.31-22.37c-2.91,0-5.7,6.33-6.84,12.19,4.39-.3,8.27-4.85,8.27-9.77C159.24,312.36,158.89,311.41,157.81,311.41Z"/><path class="cls-4" d="M199.25,342.93c-5.42,0-8.66-2.92-10-6.6L188,342.57h-30.5l7.75-37.94h15a12.88,12.88,0,0,1,2.81-.29,9.69,9.69,0,0,1,6.65,2.36,11.81,11.81,0,0,1,7.14-2.31c6.28,0,10.34,4.27,10.34,10.86a38.14,38.14,0,0,1-1.28,8.38h9.61l-1.82,5.52C210.65,338.29,205.8,342.93,199.25,342.93Z"/><path d="M193,314c-2.06,0-3.59,2.49-4.45,5.45l-3.88,19h-8.2L180.67,318a6.39,6.39,0,0,0,.17-1.48c0-1.3-.46-2.61-1.71-2.61-2.22,0-3.76,2.55-4.62,5.51l-3.87,19h-8.21l6-29.6h8.21l-.63,3.08a8.64,8.64,0,0,1,7-3.37c3,0,5.24,1.42,5.87,5.09,2.73-4.38,5.81-5,7.92-5,3.65,0,6.32,1.95,6.32,6.68s-2.73,12-2.73,15.28c0,1.48.57,2.48,2.28,2.48,2.51,0,3.53-2.13,4.79-5.21h2.39c-3.19,9.71-7.58,10.95-10.6,10.95-5,0-6.73-3.31-6.73-6.68,0-4,2.57-11.31,2.57-15.1C195.09,315,194.41,314,193,314Z"/><path class="cls-4" d="M228.38,342.93a9.29,9.29,0,0,1-6.59-2.53,12.42,12.42,0,0,1-7.49,2.53c-5.35,0-11.6-3.59-11.6-13.71s5.94-24.88,18.67-24.88a12.73,12.73,0,0,1,2.82.29h15.59l-3.88,19h9.6l-1.87,5.55C239.81,340.54,233.23,342.93,228.38,342.93Z"/><path d="M234.82,308.8l-4.1,20.13a8.58,8.58,0,0,0-.23,1.89c0,1.66.74,2.55,2.34,2.55,2.22,0,3.76-2.61,4.61-5.57h2.4c-3.25,9.65-8.38,10.95-11.46,10.95s-5.24-1.89-5.58-5.44c-1.77,2.72-4.45,5.44-8.5,5.44-3.87,0-7.58-2.48-7.58-9.53,0-8,4.73-20.71,14.65-20.71,3.25,0,4.62,1.3,4.62,3v.41l.62-3.14Zm-19.66,19.6C215.16,333,217,333,218,333c1.65,0,4-1.77,4.73-5.21l2.73-13.37a2.25,2.25,0,0,0-2.33-2.25C218.29,312.18,215.16,322.83,215.16,328.4Z"/><path class="cls-4" d="M243.09,342.93c-6.05,0-10.12-4.54-10.12-11.28a24.35,24.35,0,0,1,.54-4.7l4.56-22.32h1.16a9,9,0,0,1-.79-3.7,8.56,8.56,0,1,1,17.1,0,9,9,0,0,1-1.23,4.57l-3.7,18.13h10.11l-1.87,5.55C254.83,341.14,247.25,342.93,243.09,342.93Z"/><path d="M249.53,308.8l-4.1,20.13a8,8,0,0,0-.23,1.89c0,1.66.74,2.19,2.33,2.19,2.23,0,4.28-2.25,5.13-5.21h2.4c-3.25,9.65-8.89,10.95-12,10.95-3.42,0-6.1-2.13-6.1-7.1a19.82,19.82,0,0,1,.46-3.85l3.87-19ZM247,296.2a4.67,4.67,0,0,1,4.56,4.73,4.62,4.62,0,0,1-4.56,4.68,4.57,4.57,0,0,1-4.51-4.68A4.62,4.62,0,0,1,247,296.2Z"/><path class="cls-4" d="M273.24,342.93c-5.42,0-8.65-2.92-10-6.59L262,342.57H245.54l7.75-37.94h15.06a12.24,12.24,0,0,1,2.44-.24c6.29,0,10.35,4.27,10.35,10.86a38.17,38.17,0,0,1-1.29,8.38h9.61l-1.81,5.52C284.64,338.29,279.79,342.93,273.24,342.93Z"/><path d="M267,314c-2,0-3.59,2.49-4.45,5.45l-3.87,19H250.5l6-29.6h8.21l-.63,3.08a8.35,8.35,0,0,1,6.67-3.31c3.65,0,6.33,1.95,6.33,6.68s-2.74,12-2.74,15.28c0,1.48.57,2.48,2.28,2.48,2.51,0,3.54-2.13,4.79-5.21h2.39c-3.19,9.71-7.58,10.95-10.6,10.95-5,0-6.72-3.31-6.72-6.68,0-4,2.56-11.31,2.56-15.1C269.08,315,268.4,314,267,314Z"/><path class="cls-4" d="M289.49,342.93c-8.05,0-12.85-5.08-12.85-13.59,0-10.48,6-25.24,19.4-25.24,6.45,0,10.29,3.68,10.29,9.85a15.42,15.42,0,0,1-1,5.56l-2,11.24C301.91,338.6,297,342.93,289.49,342.93Z"/><path d="M292.62,333.13c2.17,0,4.91-1.48,6.73-3.14-1.2,6.75-5.3,8.76-9.86,8.76-5.3,0-8.83-2.72-8.83-9.41s3.7-21.07,15.38-21.07c5.08,0,6.27,2.72,6.27,5.68,0,6.87-6.27,12.08-13.1,12.49-.06.59-.12,1.24-.12,1.78C289.09,332,290.63,333.13,292.62,333.13Zm3.88-21.72c-2.85,0-5.7,6.57-6.9,12.19,4.45-.24,8.33-4.79,8.33-9.77C297.93,312.36,297.58,311.41,296.5,311.41Z"/><path class="cls-4" d="M321.53,342.93c-5.35,0-11.6-3.59-11.6-13.71s5.93-24.88,18.66-24.88a12.69,12.69,0,0,1,2,.14l2.06-10.07,16.9-2.37-6.48,31.59h9.59l-1.87,5.55c-3,8.89-8.13,13.39-15.25,13.39a9.4,9.4,0,0,1-6.39-2.28A12.33,12.33,0,0,1,321.53,342.93Z"/><path d="M344.44,297l-6.56,32a8.49,8.49,0,0,0-.22,1.89c0,1.66.74,2.19,2.33,2.19,2.22,0,3.76-2.25,4.62-5.21H347c-3.25,9.65-8.37,10.6-11.45,10.6s-5.13-1.78-5.59-5.09c-1.71,2.72-4.39,5.44-8.43,5.44-3.88,0-7.59-2.48-7.59-9.53,0-8,4.73-20.71,14.65-20.71,3.25,0,4.62,1.3,4.62,3v.23L336,298.15ZM329.9,327.8l2.8-13.55a2.3,2.3,0,0,0-2.34-2.07c-4.85,0-8,10.65-8,16.22,0,4.55,1.82,4.61,2.85,4.61,1.6,0,3.93-1.66,4.67-4.91Z"/><path class="cls-4" d="M352.65,342.93c-8,0-12.85-5.08-12.85-13.59,0-10.48,6-25.24,19.4-25.24,6.45,0,10.29,3.68,10.29,9.85a15.42,15.42,0,0,1-1,5.56l-2,11.24C365.07,338.6,360.16,342.93,352.65,342.93Z"/><path d="M355.79,333.13c2.16,0,4.9-1.48,6.72-3.14-1.2,6.75-5.3,8.76-9.86,8.76-5.3,0-8.83-2.72-8.83-9.41s3.7-21.07,15.38-21.07c5.08,0,6.27,2.72,6.27,5.68,0,6.87-6.27,12.08-13.11,12.49-.05.59-.11,1.24-.11,1.78C352.25,332,353.79,333.13,355.79,333.13Zm3.87-21.72c-2.85,0-5.7,6.57-6.9,12.19,4.45-.24,8.32-4.79,8.32-9.77C361.08,312.36,360.74,311.41,359.66,311.41Z"/><g id="Layer_2-2" data-name="Layer 2"><g id="Layer_1-2" data-name="Layer 1-2"><path class="cls-12" d="M185.37,541.47V556h3.72a7.17,7.17,0,0,0,7.08-7.24h0a7,7,0,0,0-6.83-7.26h-4Zm3.72-4.56a11.81,11.81,0,1,1,0,23.62h-8.17a.58.58,0,0,1-.58-.59V537.52a.58.58,0,0,1,.58-.58Z"/><path class="cls-12" d="M219.09,556.49a7.77,7.77,0,1,0-7.77-7.76,7.77,7.77,0,0,0,7.77,7.76m0-20.08a12.34,12.34,0,1,1-12.83,12.33,12.5,12.5,0,0,1,12.83-12.33"/><path class="cls-12" d="M249.57,556.49a7.77,7.77,0,1,0-7.76-7.77h0a7.78,7.78,0,0,0,7.76,7.76m0-20.08a12.34,12.34,0,1,1-12.83,12.33,12.5,12.5,0,0,1,12.83-12.33"/><path class="cls-12" d="M279.38,541.47h-5.23v6.24h5.23a3.07,3.07,0,0,0,3.21-2.92v-.12a3.1,3.1,0,0,0-3-3.2h-.21m-10.29-4a.59.59,0,0,1,.59-.58h9.85a7.78,7.78,0,0,1,8.1,7.76,7.64,7.64,0,0,1-4.22,6.91l4.56,8a.6.6,0,0,1-.17.82.56.56,0,0,1-.36.09h-4a.59.59,0,0,1-.54-.32l-4.37-7.94h-4.39v7.63a.58.58,0,0,1-.58.58h-3.84a.58.58,0,0,1-.59-.58Z"/><path class="cls-12" d="M300.82,541.57v14.52h3.71a7.18,7.18,0,0,0,7.09-7.25h0a7,7,0,0,0-6.83-7.25h-4Zm3.71-4.55a11.81,11.81,0,1,1,0,23.62h-8.16a.58.58,0,0,1-.59-.58V537.64a.58.58,0,0,1,.59-.59Z"/><path class="cls-12" d="M332.11,542.79l-2.87,7.76H335Zm-4.56,12.15-1.88,5.16a.59.59,0,0,1-.59.41H321a.59.59,0,0,1-.64-.53.55.55,0,0,1,.05-.31l8.81-22.39a.59.59,0,0,1,.59-.4h4.56a.58.58,0,0,1,.58.4l8.81,22.39a.58.58,0,0,1-.27.78.59.59,0,0,1-.32.06h-4.07a.59.59,0,0,1-.59-.41l-1.88-5.16Z"/><path class="cls-12" d="M348.5,543.28c0-3.71,3.2-6.91,8.27-6.91a10.44,10.44,0,0,1,7.34,2.8.62.62,0,0,1,0,.87l-2.27,2.27a.59.59,0,0,1-.83,0h0a5.9,5.9,0,0,0-3.91-1.55c-2,0-3.53,1.18-3.53,2.53,0,4.4,12,1.87,12,10.3,0,4.22-3.21,7.42-8.94,7.42a12,12,0,0,1-8.54-3.43.59.59,0,0,1,0-.83l0,0,2.18-2.18a.58.58,0,0,1,.83,0l0,0a7.54,7.54,0,0,0,5.15,2.1c2.54,0,4.2-1.35,4.2-3,0-4.39-12-1.86-12-10.29"/><path class="cls-12" d="M387.24,537.5v8.84H377.12v-8.81a.61.61,0,0,0-.56-.62h-3.87a.6.6,0,0,0-.59.59v22.39a.6.6,0,0,0,.56.62h3.87a.59.59,0,0,0,.59-.59v-9h10.12v9a.58.58,0,0,0,.55.62h3.9a.58.58,0,0,0,.61-.56.06.06,0,0,0,0-.06V537.5a.59.59,0,0,0-.55-.62h-3.9a.59.59,0,0,0-.61.56Z"/><path class="cls-12" d="M160.36,540a14.81,14.81,0,0,0-13.13-7.85H105.64a1.43,1.43,0,0,0-1.42,1.44,1.41,1.41,0,0,0,.41,1l9.06,9.11a4.2,4.2,0,0,0,3,1.26H146a3.79,3.79,0,1,1,.09,7.57H125.9a1.42,1.42,0,0,0-1.42,1.44,1.45,1.45,0,0,0,.41,1l9.06,9.11a4.29,4.29,0,0,0,3,1.26h9.14C158,565.32,167,552.6,160.36,540"/></g></g><path class="cls-13" d="M294.88,20.4a29,29,0,0,0-10.43-2.17c-3.25,0-7.46,1.4-7.46,6.48,0,8.08,20.76,4.67,20.76,20.3,0,10.22-8.21,14.09-17.77,14.09-5.16,0-7.46-.67-12.15-1.8V48.88a26.8,26.8,0,0,0,11.61,2.87c3.6,0,8.42-1.8,8.42-6,0-8.88-20.76-5.21-20.76-20.63,0-10.42,8.21-14.23,16.55-14.23A36.13,36.13,0,0,1,295,12.55Z"/><path class="cls-13" d="M349.27,32a24.77,24.77,0,0,0-8.37-1.42c-2.37,0-5.2.84-5.2,3.69,0,5.32,15.34,1.95,15.34,14,0,7.78-7,10.89-14.22,10.89a40.18,40.18,0,0,1-10-1.42l.52-7.14a19.56,19.56,0,0,0,8.7,2.21c2.24,0,5.79-.84,5.79-4.09,0-6.54-15.34-2.07-15.34-14.13,0-7.2,6.38-10.38,13.3-10.38a41.51,41.51,0,0,1,9.62,1.23Z"/><path class="cls-13" d="M377.22,32.24a13.53,13.53,0,0,0-6-1.23c-5.47,0-9,4.28-9,10.57s3,10.89,9.15,10.89a18.93,18.93,0,0,0,6.79-1.56l.39,7.2a29.12,29.12,0,0,1-8.82,1.1c-11.13,0-16.73-7.45-16.73-17.63,0-9.67,5.8-17.32,16.4-17.32A28.93,28.93,0,0,1,378,25.37Z"/><path class="cls-13" d="M397.32,24.26c10.07,0,17.78,6.68,17.78,17.71,0,9.59-6.52,17.24-17.78,17.24S379.6,51.56,379.6,42C379.6,30.94,387.31,24.26,397.32,24.26Zm0,28.21c6.78,0,8.56-6,8.56-11.54,0-5.13-2.77-9.92-8.56-9.92s-8.5,4.92-8.5,9.92C388.82,46.44,390.6,52.47,397.32,52.47Z"/><polygon class="cls-13" points="327.47 24.59 318.51 24.59 301.66 70.47 309.75 70.47 327.47 24.59"/><path class="cls-14" d="M290.85,23.76A54.64,54.64,0,0,1,301,37.58a52.44,52.44,0,0,1,4.52,14.33c0,.17.15.15.21,0,3.22-5.62,5.19-13.27,2.31-19-3-6.05-10.27-8.83-17.09-9.39C290.74,23.49,290.7,23.61,290.85,23.76Z"/><path class="cls-13" d="M414.93,25h-1.21v-.44h2.95V25h-1.22v3.54h-.52Z"/><path class="cls-13" d="M420.46,26.79c0-.55-.06-1.23-.06-1.72h0c-.14.46-.3,1-.5,1.51l-.71,1.93h-.39l-.65-1.89c-.19-.57-.34-1.08-.45-1.55h0c0,.49,0,1.16-.08,1.76l-.11,1.7H417l.28-4h.66l.68,1.93c.16.49.29.93.4,1.35h0c.11-.41.25-.85.42-1.35l.71-1.93h.66l.25,4h-.51Z"/><path d="M247.51,45.46h-2.37V38.84h-5.92V36.67h5.92v-6.4h2.37v6.4h5.92v2.17h-5.92Z"/><path class="cls-2" d="M221.27,17.17a1,1,0,0,0,.34.23,1,1,0,0,0,.43.09,1.08,1.08,0,0,0,.44-.09,1,1,0,0,0,.34-.23,1.11,1.11,0,0,0,.23-.36,1.16,1.16,0,0,0,.08-.42,1.22,1.22,0,0,0-.08-.43,1.07,1.07,0,0,0-.23-.35,1,1,0,0,0-.34-.24,1.08,1.08,0,0,0-.44-.09,1,1,0,0,0-.43.09,1,1,0,0,0-.34.24A1.07,1.07,0,0,0,221,16a1.22,1.22,0,0,0-.08.43,1.16,1.16,0,0,0,.08.42A1.11,1.11,0,0,0,221.27,17.17Zm.17-1.62h.65a.82.82,0,0,1,.49.13.5.5,0,0,1,.15.39.45.45,0,0,1-.12.33.46.46,0,0,1-.29.13l.41.69h-.4l-.39-.67h-.13v.67h-.37Z"/><path class="cls-2" d="M218.11,17.2a1.17,1.17,0,0,0,.07-.33c0-.14,0-.31,0-.51s0-.32,0-.45a1,1,0,0,0-.07-.32.4.4,0,0,0-.15-.19.54.54,0,0,0-.27-.06h-.26v2.09h.27a.47.47,0,0,0,.25-.05A.4.4,0,0,0,218.11,17.2Z"/><path class="cls-2" d="M222.29,16.22a.18.18,0,0,0,.08-.17.16.16,0,0,0,0-.11.16.16,0,0,0-.08-.06.19.19,0,0,0-.1,0h-.35v.42h.28A.59.59,0,0,0,222.29,16.22Z"/><path class="cls-15" d="M194.31,46.21c-1.92,6.73,3.48,6.61,6.88,1.89,2.37-3.23,4.42-8,3.89-10.68a4.3,4.3,0,0,0-.66-1.58C197.07,36.51,194.61,45.14,194.31,46.21Z"/><path class="cls-15" d="M224.16,41.74c0-22.6-32.95-41-73.45-41s-73.45,18.39-73.45,41,32.95,41,73.45,41S224.16,64.34,224.16,41.74ZM161.23,30.26c12.11,2.43,18.76.93,24.37.68l2.08-4.37a7.31,7.31,0,0,1,5.23,0L191,30.89c8.47.2,13.31,1.78,16.07,3.67,4.71.23,8.76,1.41,9.76,2.39a5.58,5.58,0,0,1-2.92,2.8,10.89,10.89,0,0,0-4.66-3.14,6.38,6.38,0,0,1,1.25,5.07c-.69,5.6-7,11.27-14.14,11.27-4.27,0-7-2-7.58-5a8.7,8.7,0,0,1-.05-2.15,11.6,11.6,0,0,1,2.83-6.3c2.75-3.19,7.15-4.54,11.56-4.89-3.05-1.84-8.83-1.2-13.46-.74L185,44.16A23.12,23.12,0,0,0,183.12,49c-.08.63,0,1.31,1,1.31a3.46,3.46,0,0,0,1.89-.76,14.18,14.18,0,0,0,1.17-1,5.4,5.4,0,0,0,.53,1.2v.06c-1.71,1.6-4,3.16-6.62,3.16-2.32,0-4-1.37-3.77-3.24a9.46,9.46,0,0,1,1-3.14c.44-1.12,1-2.24,1.36-3.1l4.41-9.28c-6.08,0-16.4-.59-23.15-3.38Zm-2,6.57a6,6,0,0,0-1.33.36,4.17,4.17,0,0,0-.44-1,10.86,10.86,0,0,1,5.37-1.81c2,0,3.37,1,3.17,2.67a17.61,17.61,0,0,1-2,4.83s-3.41,6.31-3.53,7.23c-.09.75.48,1.09,1.37,1.09,4.2,0,8.8-9,10.21-11.68l1.5-2.7s1.83.18,2.59.23l2.78.18-3.12,6c-.76,1.67-2.25,5-2.46,6.63-.06.5,0,1.3.77,1.3a3.13,3.13,0,0,0,1.51-.64,1,1,0,0,0,0,.17,2.49,2.49,0,0,0,.15,1.25v0a8.74,8.74,0,0,1-5.16,1.9,2.69,2.69,0,0,1-3-3,10.55,10.55,0,0,1,.75-2.74l-.09-.09c-2.33,3.19-5.6,5.85-9.71,5.87-2.36,0-4.06-1.24-3.81-3.28a18.27,18.27,0,0,1,2-5s3.09-6.19,3.17-6.85A.71.71,0,0,0,159.25,36.83Zm-50.77,8.24c-1.2,5.06-6.27,8-12.24,8-3.29,0-6.55-1-8.37-3-3.52-4.07.51-6.18,2.48-6.15-1,3.9.53,7.36,5.5,7.36,2.78,0,5.21-1.61,5.78-4,.61-2.61-.84-4.16-2.56-5.9l-1.62-1.68c-2.11-2.17-3.73-4.12-3-7.35,1.1-4.64,6-7.53,11.51-7.53a10.22,10.22,0,0,1,7,2.39c3.67,3.7-.87,6.06-1.88,5.84a1.2,1.2,0,0,1-.34-.11c1-3-.07-6.31-4.22-6.31-2.33,0-5.2,1.24-5.71,3.36-.58,2.41,1.16,4.07,2.71,5.64l1.47,1.45C107.41,39.4,109.32,41.55,108.48,45.07Zm14.7,5a11.1,11.1,0,0,1,.34-1.51l-.1-.08a10.76,10.76,0,0,1-8.25,4.38c-4.31,0-6-2.79-5.62-6,.65-5.38,6.72-12.48,14.12-12.48,2.41,0,4,1,4.75,2.72l1.3-2.28a7.64,7.64,0,0,1,5.35,0l-5.3,11.25a15.57,15.57,0,0,0-1.19,3.08c-.07.5.07,1.46.79,1.46a2.06,2.06,0,0,0,.91-.24v0L129.54,52a8,8,0,0,1-3.42.84C124.17,52.87,123,51.61,123.18,50.08Zm14.5.08h-.1L131.79,63a6.86,6.86,0,0,1-3.94-3.4L140,32.43a6.43,6.43,0,0,1,3.75,3.16L143.14,37l.1.08a9.88,9.88,0,0,1,6.81-2.74c3.71,0,5.44,1.88,5.67,4.45a7.21,7.21,0,0,1,0,1.54c-.65,5.3-5.84,12.51-13.3,12.51C140,52.87,138.39,51.88,137.68,50.16Z"/><path class="cls-15" d="M147.41,36.65c-4.57,0-8,8.68-8.37,11.22a2.17,2.17,0,0,0,2.23,2.71c4.63,0,8.27-8.34,8.65-11.34A2.23,2.23,0,0,0,147.41,36.65Z"/><path class="cls-15" d="M124.52,36.65c-4.53,0-8.55,8.05-8.9,11a2.18,2.18,0,0,0,2.12,2.71c4.68,0,8.84-8.34,9.21-11.34C127.11,37.7,126.31,36.65,124.52,36.65Z"/><path class="cls-4" d="M203.09,12.16C189.09,4.32,170.49,0,150.71,0S112.33,4.32,98.33,12.16,76.52,30.55,76.52,41.74s7.74,21.69,21.81,29.57,32.6,12.17,52.38,12.17,38.38-4.32,52.38-12.17S224.9,52.93,224.9,41.74,217.16,20,203.09,12.16ZM77.26,41.74c0-22.6,32.95-41,73.45-41s73.45,18.39,73.45,41-32.95,41-73.45,41S77.26,64.34,77.26,41.74Z"/><path class="cls-4" d="M105.06,37.12l-1.47-1.45C102,34.1,100.3,32.44,100.88,30c.51-2.12,3.38-3.36,5.71-3.36,4.15,0,5.18,3.32,4.22,6.31a1.2,1.2,0,0,0,.34.11c1,.22,5.55-2.14,1.88-5.84a10.22,10.22,0,0,0-7-2.39c-5.52,0-10.41,2.89-11.51,7.53-.78,3.23.84,5.18,3,7.35l1.62,1.68c1.72,1.74,3.17,3.29,2.56,5.9-.57,2.35-3,4-5.78,4-5,0-6.53-3.46-5.5-7.36-2,0-6,2.08-2.48,6.15,1.82,2.06,5.08,3,8.37,3,6,0,11-3,12.24-8C109.32,41.55,107.41,39.4,105.06,37.12Z"/><path class="cls-4" d="M155.68,40.36a7.21,7.21,0,0,0,0-1.54c-.23-2.57-2-4.45-5.67-4.45a9.88,9.88,0,0,0-6.81,2.74l-.1-.08.62-1.44A6.43,6.43,0,0,0,140,32.43L127.85,59.58a6.86,6.86,0,0,0,3.94,3.4l5.79-12.82h.1c.71,1.72,2.35,2.71,4.7,2.71C149.84,52.87,155,45.66,155.68,40.36Zm-5.76-1.12c-.38,3-4,11.34-8.65,11.34A2.17,2.17,0,0,1,139,47.87c.32-2.54,3.8-11.22,8.37-11.22A2.23,2.23,0,0,1,149.92,39.24Z"/><path class="cls-4" d="M130.29,50.37v0a2.06,2.06,0,0,1-.91.24c-.72,0-.86-1-.79-1.46a15.57,15.57,0,0,1,1.19-3.08l5.3-11.25a7.64,7.64,0,0,0-5.35,0l-1.3,2.28c-.71-1.76-2.34-2.72-4.75-2.72-7.4,0-13.47,7.1-14.12,12.48-.4,3.25,1.31,6,5.62,6a10.76,10.76,0,0,0,8.25-4.38l.1.08a11.1,11.1,0,0,0-.34,1.51c-.2,1.53,1,2.79,2.94,2.79a8,8,0,0,0,3.42-.84ZM127,39c-.37,3-4.53,11.34-9.21,11.34a2.18,2.18,0,0,1-2.12-2.71c.35-3,4.37-11,8.9-11C126.31,36.65,127.11,37.7,127,39Z"/><path class="cls-4" d="M156.85,44.57a18.27,18.27,0,0,0-2,5c-.25,2,1.45,3.29,3.81,3.28,4.11,0,7.38-2.68,9.71-5.87l.09.09a10.55,10.55,0,0,0-.75,2.74,2.69,2.69,0,0,0,3,3,8.74,8.74,0,0,0,5.16-1.9v0a2.49,2.49,0,0,1-.15-1.25,1,1,0,0,1,0-.17,3.13,3.13,0,0,1-1.51.64c-.81,0-.83-.8-.77-1.3.21-1.63,1.7-5,2.46-6.63l3.12-6L176.18,36c-.76,0-2.59-.23-2.59-.23l-1.5,2.7c-1.41,2.71-6,11.68-10.21,11.68-.89,0-1.46-.34-1.37-1.09.12-.92,3.53-7.23,3.53-7.23A17.61,17.61,0,0,0,166,37c.2-1.63-1.22-2.67-3.17-2.67a10.86,10.86,0,0,0-5.37,1.81,4.17,4.17,0,0,1,.44,1,6,6,0,0,1,1.33-.36.71.71,0,0,1,.77.89C159.94,38.38,156.85,44.57,156.85,44.57Z"/><path class="cls-4" d="M179.65,43.45c-.39.86-.92,2-1.36,3.1a9.46,9.46,0,0,0-1,3.14c-.22,1.87,1.45,3.24,3.77,3.24,2.66,0,4.91-1.56,6.62-3.16v-.06a5.4,5.4,0,0,1-.53-1.2,14.18,14.18,0,0,1-1.17,1,3.46,3.46,0,0,1-1.89.76c-1,0-1.08-.68-1-1.31A23.12,23.12,0,0,1,185,44.16l4.63-10.3c4.63-.46,10.41-1.1,13.46.74-4.41.35-8.81,1.7-11.56,4.89a11.6,11.6,0,0,0-2.83,6.3,8.7,8.7,0,0,0,.05,2.15c.58,3,3.31,5,7.58,5,7.17,0,13.45-5.67,14.14-11.27a6.38,6.38,0,0,0-1.25-5.07,10.89,10.89,0,0,1,4.66,3.14A5.58,5.58,0,0,0,216.8,37c-1-1-5.05-2.16-9.76-2.39-2.76-1.89-7.6-3.47-16.07-3.67l1.94-4.3a7.31,7.31,0,0,0-5.23,0l-2.08,4.37c-5.61.25-12.26,1.75-24.37-.68l-.32.53c6.75,2.79,17.07,3.38,23.15,3.38Zm25.43-6c.53,2.65-1.52,7.45-3.89,10.68-3.4,4.72-8.8,4.84-6.88-1.89.3-1.07,2.76-9.7,10.11-10.37A4.3,4.3,0,0,1,205.08,37.42Z"/><polygon class="cls-15" points="214.27 15.5 214.28 15.5 214.81 17.88 215.28 17.88 215.81 15.5 215.82 15.5 215.82 17.88 216.37 17.88 216.37 14.89 215.48 14.89 215.05 17 215.04 17 214.62 14.89 213.72 14.89 213.72 17.88 214.27 17.88 214.27 15.5"/><path class="cls-15" d="M218.27,17.78a.71.71,0,0,0,.32-.27,1.29,1.29,0,0,0,.16-.48,4.54,4.54,0,0,0,.05-.69,3.57,3.57,0,0,0,0-.59,1.24,1.24,0,0,0-.14-.46.7.7,0,0,0-.3-.29,1.08,1.08,0,0,0-.51-.1h-1v3h.95A1,1,0,0,0,218.27,17.78Zm-.84-.35V15.34h.26a.54.54,0,0,1,.27.06.4.4,0,0,1,.15.19,1,1,0,0,1,.07.32c0,.13,0,.28,0,.45s0,.37,0,.51a1.17,1.17,0,0,1-.07.33.4.4,0,0,1-.16.18.47.47,0,0,1-.25.05Z"/><polygon class="cls-15" points="220.39 14.84 219.92 14.84 218.99 17.92 219.44 17.92 220.39 14.84"/><path class="cls-15" d="M221,17.48a1.51,1.51,0,0,0,.49.33,1.72,1.72,0,0,0,1.21,0,1.54,1.54,0,0,0,.82-.82,1.59,1.59,0,0,0,0-1.21,1.54,1.54,0,0,0-.82-.82,1.59,1.59,0,0,0-1.21,0,1.54,1.54,0,0,0-.82.82,1.59,1.59,0,0,0,0,1.21A1.51,1.51,0,0,0,221,17.48ZM221,16a1.07,1.07,0,0,1,.23-.35,1,1,0,0,1,.34-.24,1,1,0,0,1,.43-.09,1.08,1.08,0,0,1,.44.09,1,1,0,0,1,.34.24,1.07,1.07,0,0,1,.23.35,1.22,1.22,0,0,1,.08.43,1.16,1.16,0,0,1-.08.42,1.11,1.11,0,0,1-.23.36,1,1,0,0,1-.34.23,1.08,1.08,0,0,1-.44.09,1,1,0,0,1-.43-.09,1,1,0,0,1-.34-.23,1.11,1.11,0,0,1-.23-.36,1.16,1.16,0,0,1-.08-.42A1.22,1.22,0,0,1,221,16Z"/><path class="cls-15" d="M221.81,16.55h.13l.39.67h.4l-.41-.69a.46.46,0,0,0,.29-.13.45.45,0,0,0,.12-.33.5.5,0,0,0-.15-.39.82.82,0,0,0-.49-.13h-.65v1.67h.37Zm0-.71h.35a.19.19,0,0,1,.1,0,.16.16,0,0,1,.08.06.16.16,0,0,1,0,.11.18.18,0,0,1-.08.17.59.59,0,0,1-.2,0h-.28Z"/></g></g></g></svg>