<svg xmlns="http://www.w3.org/2000/svg" width="38" height="22" fill="none" viewBox="0 0 38 22"><path fill="#EB4628" d="M36.1299 5.08624C34.5514 1.92927 31.219 0 27.7113 0H0.876939C0.350775 0 0 0.350775 0 0.876939C0 1.05233 0.175388 1.4031 0.350775 1.57849L6.13857 7.36628C6.66473 7.89245 7.36628 8.24322 8.06784 8.24322H27.0097C28.4128 8.24322 29.4651 9.29555 29.4651 10.6987C29.4651 12.1018 28.4128 13.1541 27.0097 13.1541H14.031C13.5049 13.1541 12.9787 13.5049 12.9787 14.031C12.9787 14.2064 13.1541 14.5572 13.3295 14.7326L19.1173 20.5204C19.6434 21.0465 20.345 21.3973 21.0465 21.3973H27.0097C34.5514 21.3973 40.5146 13.1541 36.1299 5.08624Z"/></svg>