<svg width="109" height="54" viewBox="0 0 109 54" fill="none" xmlns="http://www.w3.org/2000/svg">
<g clip-path="url(#clip0_202_3225)">
<path d="M13.7978 44.1952C6.85239 44.1934 1.22905 38.5745 1.22905 31.6299C1.22905 24.6916 6.85239 19.0674 13.7978 19.0674C20.7344 19.0692 26.3577 24.6925 26.3595 31.6299V43.2516C26.3595 43.503 26.2609 43.7394 26.0832 43.9197C25.9046 44.0965 25.6665 44.196 25.4159 44.196H13.7978V44.1952ZM25.415 43.2516V42.3071V43.2516ZM3.11801 31.6299C3.12778 37.5305 7.89549 42.2955 13.7978 42.308H24.4705V31.6299C24.4581 25.7365 19.6913 20.9688 13.7978 20.959C7.89549 20.9688 3.12778 25.7365 3.11801 31.6299Z" fill="#009DDC"/>
<path d="M67.9157 44.1935C60.9827 44.1935 55.3602 38.5746 55.3602 31.6291C55.3602 24.6908 60.9827 19.0684 67.9157 19.0684C74.8362 19.0684 80.4596 24.6917 80.4596 31.6291V33.9579C80.4596 34.2094 80.361 34.4475 80.1833 34.6261C80.002 34.8011 79.771 34.9024 79.5178 34.9024H57.7645C59.1479 39.1956 63.1666 42.2965 67.9166 42.3036L72.5528 42.309C73.0761 42.309 73.5008 42.7292 73.5008 43.2517C73.5008 43.7705 73.0752 44.1944 72.5528 44.1944H67.9157V44.1935ZM57.2483 31.63C57.2483 32.0983 57.2794 32.5621 57.3398 33.0152L78.5742 33.0116V31.63C78.5635 25.7366 73.794 20.9689 67.9157 20.9591C62.024 20.9689 57.259 25.7366 57.2483 31.63Z" fill="#009DDC"/>
<path d="M50.5277 43.2515V31.6316C50.5188 25.7364 45.7484 20.9678 39.8479 20.9571H31.4995V43.2515C31.4995 43.7739 31.0766 44.1951 30.5532 44.1951C30.0335 44.1951 29.6105 43.773 29.6105 43.2515V20.0127C29.6105 19.763 29.7109 19.5187 29.8869 19.3427C30.0637 19.1677 30.3053 19.0664 30.5532 19.0664H39.8479C46.7906 19.0664 52.4166 24.6915 52.4166 31.6307L52.4184 43.2506C52.4184 43.773 51.9928 44.1942 51.4713 44.1942C50.9515 44.1951 50.5277 43.7739 50.5277 43.2515Z" fill="#009DDC"/>
<path d="M24.4705 43.2516V20.0128C24.4705 19.4894 24.8926 19.0674 25.415 19.0674C25.9348 19.0674 26.3586 19.4903 26.3586 20.0128V43.2516C26.3586 43.774 25.9348 44.1952 25.415 44.1952C24.8917 44.1952 24.4705 43.774 24.4705 43.2516Z" fill="#009DDC"/>
<path d="M83.9923 44.1932C83.7444 44.1932 83.5009 44.0928 83.3259 43.9169C83.1482 43.7419 83.0487 43.4966 83.0487 43.2505V31.6316V1.4091C83.0487 0.888436 83.4734 0.467285 83.9923 0.467285C84.5147 0.467285 84.9359 0.888436 84.9359 1.4091V25.006C87.1545 21.4395 91.1101 19.069 95.613 19.0672C102.554 19.0672 108.177 24.6923 108.177 31.6316C108.177 38.5743 102.554 44.1941 95.613 44.1941H83.9923V44.1932ZM84.9367 42.3069H95.6139C101.51 42.2945 106.278 37.5277 106.29 31.6307C106.278 25.7337 101.51 20.9668 95.6139 20.9553C89.7249 20.9668 84.9474 25.7372 84.9403 31.6307C84.9403 31.6529 84.9403 31.6742 84.9367 31.6964V42.3069Z" fill="#009DDC"/>
<path d="M5.2664 53.8774C5.18821 53.8774 5.10203 53.8304 5.06204 53.7477L4.5556 52.542L1.73104 52.5509L1.23259 53.7584C1.20238 53.8437 1.10909 53.8917 1.03712 53.8917C0.91984 53.8908 0.808777 53.8064 0.808777 53.6811C0.808777 53.6429 0.808777 53.6207 0.82477 53.5789L2.92697 48.4336C2.96518 48.3403 3.06025 48.2825 3.15354 48.2808C3.23261 48.2808 3.30281 48.3296 3.3419 48.4336L5.47786 53.5629C5.49297 53.6047 5.49297 53.6287 5.49297 53.6669C5.49386 53.7922 5.38368 53.8774 5.2664 53.8774ZM3.13221 49.1088L1.90963 52.1004L4.38145 52.0916L3.13221 49.1088Z" fill="#009DDC"/>
<path d="M9.71159 53.8631C9.60142 53.8631 9.48413 53.7867 9.48324 53.6463L9.47614 51.354C9.47436 50.6094 8.87551 50.0141 8.13005 50.0159C7.3926 50.0176 6.79019 50.6165 6.79197 51.3628L6.79907 53.6552C6.79907 53.7938 6.68357 53.8737 6.5805 53.8737C6.46944 53.8737 6.35305 53.7956 6.35216 53.657L6.34061 49.9297C6.34061 49.7893 6.45611 49.7076 6.56718 49.7076C6.66935 49.7076 6.78664 49.7875 6.78752 49.9279V50.1794C7.13937 49.7937 7.60228 49.5716 8.12828 49.5698C9.1003 49.5663 9.9195 50.3713 9.92305 51.3522L9.93016 53.6445C9.93105 53.7849 9.81377 53.8631 9.71159 53.8631Z" fill="#009DDC"/>
<path d="M12.9395 53.9883C11.677 53.9937 10.967 52.9594 10.9635 51.7724C10.9599 50.5978 11.6627 49.56 12.9262 49.5547C14.1888 49.5511 14.8987 50.5854 14.9031 51.76C14.9067 52.947 14.2039 53.9848 12.9395 53.9883ZM12.928 50.0007C12.0021 50.0043 11.4086 50.7524 11.4113 51.7706C11.4148 52.7906 12.0128 53.5423 12.9386 53.5387C13.8724 53.537 14.458 52.7817 14.4553 51.7617C14.4526 50.7417 13.8618 49.9989 12.928 50.0007Z" fill="#009DDC"/>
<path d="M17.7961 50.0559C17.0586 50.0577 16.4571 50.6583 16.4589 51.4029L16.466 53.6259C16.4669 53.7645 16.3496 53.8427 16.2465 53.8427C16.1372 53.8445 16.0191 53.7663 16.0191 53.6259L16.0066 49.8986C16.0066 49.7583 16.1239 49.6783 16.2332 49.6765C16.3363 49.6765 16.4535 49.7583 16.4544 49.8986L16.4553 50.2194C16.8072 49.8338 17.2701 49.6117 17.7952 49.6099C17.9365 49.6081 18.0226 49.7263 18.0226 49.8302C18.0235 49.9377 17.9373 50.0559 17.7961 50.0559Z" fill="#009DDC"/>
<path d="M22.1346 51.9662L18.8774 51.9769C18.9511 52.8707 19.534 53.5194 20.3887 53.5158C20.8126 53.514 21.3146 53.3265 21.5402 52.9729C21.5953 52.8858 21.6575 52.8619 21.7286 52.8619C21.8459 52.8601 21.9712 52.9552 21.972 53.0715C21.972 53.1426 21.972 53.1586 21.8237 53.3319C21.4638 53.7575 20.9387 53.9636 20.3887 53.9654C19.1262 53.9689 18.4171 52.9365 18.4127 51.7495C18.4091 50.5748 19.112 49.5353 20.3754 49.5317C21.638 49.5282 22.3479 50.5677 22.3514 51.7352C22.3532 51.857 22.2439 51.9662 22.1346 51.9662ZM20.3781 49.9778C19.4363 49.9813 18.944 50.7046 18.8774 51.5309L21.8983 51.5202C21.8237 50.6255 21.2417 49.9742 20.3781 49.9778Z" fill="#009DDC"/>
<path d="M26.459 53.8197C26.3968 53.8197 26.3408 53.7957 26.2937 53.7326L24.8988 51.9796L23.5163 53.7406C23.4683 53.8028 23.415 53.8277 23.3528 53.8277C23.2257 53.8277 23.1164 53.7353 23.1156 53.6109C23.1156 53.5558 23.1236 53.507 23.1626 53.451L24.6082 51.6198L23.3323 50.0214C23.2924 49.9672 23.2773 49.9121 23.2773 49.8668C23.2764 49.7415 23.3937 49.6446 23.5189 49.6446C23.582 49.6446 23.6371 49.6668 23.6851 49.7317L24.8979 51.2573L26.1089 49.7228C26.1489 49.6606 26.2031 49.6357 26.2653 49.6357C26.3915 49.6357 26.5096 49.729 26.5096 49.8561C26.5096 49.9014 26.4945 49.9485 26.4546 49.9965L25.1813 51.6171L26.6456 53.4394C26.6936 53.4945 26.7096 53.5416 26.7096 53.5994C26.7096 53.7264 26.5843 53.8179 26.459 53.8197Z" fill="#009DDC"/>
<path d="M27.8433 48.8887C27.5927 48.8887 27.3955 48.6958 27.3946 48.4426C27.3937 48.1912 27.59 47.9966 27.8406 47.9966C28.0921 47.9948 28.2884 48.1894 28.2893 48.4408C28.2902 48.6923 28.0947 48.8869 27.8433 48.8887ZM27.8584 53.8083C27.7482 53.8083 27.6309 53.7372 27.63 53.5897L27.6185 49.8625C27.6176 49.7185 27.7278 49.6421 27.8451 49.6421C27.9472 49.6403 28.0654 49.7096 28.0654 49.8625L28.0778 53.5879C28.0778 53.7283 27.9765 53.8065 27.8584 53.8083Z" fill="#009DDC"/>
<path d="M32.8998 51.9318L29.6434 51.9424C29.7171 52.8363 30.2991 53.4849 31.1547 53.4831C31.5786 53.4813 32.0806 53.2921 32.3071 52.9402C32.3622 52.8496 32.4244 52.8274 32.4955 52.8274C32.6128 52.8256 32.7381 52.9224 32.7389 53.0388C32.7389 53.1081 32.7389 53.1241 32.5906 53.2992C32.2307 53.723 31.7056 53.9291 31.1556 53.9309C29.8931 53.9345 29.184 52.902 29.1796 51.715C29.176 50.5404 29.8788 49.5026 31.1423 49.499C32.4058 49.4937 33.1157 50.535 33.1192 51.7025C33.1192 51.8207 33.0099 51.9318 32.8998 51.9318ZM31.1432 49.9451C30.2023 49.9469 29.71 50.6701 29.6425 51.4964L32.6634 51.4857C32.5897 50.5928 32.0068 49.9415 31.1432 49.9451Z" fill="#009DDC"/>
<path d="M39.8647 51.9111L36.6084 51.9217C36.683 52.8138 37.2641 53.4642 38.1197 53.4606C38.5444 53.4588 39.0447 53.2714 39.2712 52.9177C39.3263 52.8289 39.3885 52.8049 39.4596 52.8049C39.5778 52.8049 39.703 52.9 39.703 53.0164C39.7039 53.0875 39.7039 53.1034 39.5547 53.2767C39.1966 53.7023 38.6697 53.9067 38.1197 53.9084C36.8581 53.912 36.1481 52.8795 36.1446 51.6943C36.1401 50.5197 36.8438 49.4801 38.1073 49.4766C39.3707 49.473 40.0789 50.5143 40.0824 51.6818C40.0833 51.7982 39.9749 51.9111 39.8647 51.9111ZM38.1073 49.9226C37.1664 49.9262 36.6759 50.6494 36.6066 51.4721L39.6275 51.4633C39.5538 50.5694 38.9709 49.9208 38.1073 49.9226Z" fill="#009DDC"/>
<path d="M42.636 53.761H42.3943C41.7733 53.7646 41.4658 53.4589 41.4641 52.845L41.4552 50.0444L41.0562 50.0462C40.9141 50.0462 40.8341 49.9298 40.8341 49.8223C40.8332 49.7165 40.9123 49.6001 41.0545 49.6001L41.4534 49.5984L41.4498 48.3989C41.449 48.2567 41.5671 48.1768 41.6782 48.1768C41.7866 48.1768 41.8959 48.2549 41.8968 48.3971L41.9003 49.5966L42.6227 49.5948C42.7639 49.5948 42.8421 49.7112 42.843 49.8152C42.843 49.9244 42.7657 50.0408 42.6244 50.0408L41.9021 50.0426L41.911 52.8432C41.9119 53.2306 42.0238 53.3168 42.3925 53.315H42.6342C42.7755 53.315 42.8546 53.4314 42.8546 53.5389C42.8555 53.6446 42.7773 53.761 42.636 53.761Z" fill="#009DDC"/>
<path d="M47.8097 53.8775C47.1265 53.8792 46.6165 53.6011 46.286 53.1364L46.2868 53.5283C46.2877 53.6704 46.1704 53.7504 46.0674 53.7504C45.9581 53.7504 45.8408 53.6722 45.8399 53.53L45.8239 48.3847C45.823 48.2426 45.9403 48.1626 46.0487 48.1626C46.1518 48.1626 46.27 48.2408 46.2708 48.3829L46.2762 50.1875C46.6049 49.7308 47.1132 49.4483 47.7964 49.4465C49.0599 49.4412 49.7689 50.4754 49.7724 51.65C49.7769 52.8343 49.0732 53.8721 47.8097 53.8775ZM47.7982 49.8925C46.8644 49.8943 46.2788 50.6424 46.2815 51.6606C46.2851 52.6806 46.8768 53.4323 47.8097 53.4305C48.7436 53.427 49.33 52.6718 49.3264 51.6518C49.3237 50.6317 48.732 49.8898 47.7982 49.8925Z" fill="#009DDC"/>
<path d="M52.6787 53.8612C51.4162 53.8648 50.7072 52.8306 50.7018 51.6471C50.6983 50.4725 51.4029 49.4347 52.6645 49.4312C53.9289 49.4276 54.6379 50.46 54.6415 51.6347C54.6459 52.8181 53.9422 53.8577 52.6787 53.8612ZM52.6663 49.8772C51.7405 49.8807 51.147 50.6271 51.1496 51.6471C51.1532 52.6671 51.7529 53.4188 52.6779 53.4152C53.6117 53.4117 54.1981 52.6564 54.1945 51.6364C54.191 50.6182 53.6001 49.8736 52.6663 49.8772Z" fill="#009DDC"/>
<path d="M59.0431 53.7087C58.9338 53.7105 58.8139 53.6323 58.8139 53.4883L58.8121 53.2404C58.4842 53.626 58.0062 53.8446 57.474 53.8464C56.5029 53.8499 55.6854 53.0379 55.6819 52.0641L55.6748 49.7753C55.6739 49.6313 55.7912 49.5531 55.9013 49.5531C56.0026 49.5531 56.1199 49.6296 56.1217 49.7735L56.1288 52.0623C56.1306 52.8068 56.7303 53.4039 57.474 53.4004C58.2168 53.3986 58.8121 52.798 58.8085 52.0534L58.8014 49.7646C58.8014 49.6207 58.9196 49.5443 59.0289 49.5425C59.1284 49.5425 59.2483 49.6207 59.2501 49.7646L59.2608 53.4883C59.2626 53.6305 59.1426 53.7087 59.0431 53.7087Z" fill="#009DDC"/>
<path d="M61.3265 53.7485C60.9027 53.7503 60.5482 53.3594 60.5464 52.9204L60.5322 48.3375C60.5322 48.1954 60.6504 48.1172 60.7588 48.1172C60.861 48.1172 60.9791 48.1936 60.9791 48.3358L60.9934 52.9187C60.9951 53.4198 61.5522 53.1266 61.554 53.4793C61.554 53.617 61.4589 53.7485 61.3265 53.7485Z" fill="#009DDC"/>
<path d="M62.6513 48.7794C62.4034 48.7794 62.2035 48.5831 62.2035 48.3334C62.2017 48.0837 62.3981 47.8838 62.6478 47.8838C62.8983 47.882 63.0982 48.0802 63.1 48.3298C63.0991 48.5813 62.9019 48.7776 62.6513 48.7794ZM62.6664 53.6991C62.5571 53.6991 62.4407 53.6298 62.4407 53.4787L62.4283 49.755C62.4283 49.6111 62.5358 49.5329 62.6522 49.5329C62.7562 49.5329 62.8725 49.6022 62.8743 49.7532L62.885 53.4769C62.8868 53.6209 62.7864 53.6991 62.6664 53.6991Z" fill="#009DDC"/>
<path d="M69.2751 53.6773C69.164 53.6773 69.0565 53.5991 69.0547 53.4569L69.0476 50.8225C69.0459 50.2796 68.5874 49.8265 68.0472 49.8283C67.507 49.8301 67.0458 50.2868 67.0476 50.8207L67.0538 53.464C67.0556 53.6062 66.9472 53.6844 66.8362 53.6844C66.7278 53.6862 66.6114 53.608 66.6114 53.464L66.6025 50.8296C66.6007 50.2867 66.1422 49.8354 65.6109 49.8372C65.0618 49.8389 64.6087 50.2939 64.6105 50.8278L64.6193 53.4711C64.6193 53.6133 64.5029 53.6933 64.3999 53.6933C64.2906 53.6933 64.1751 53.6151 64.1733 53.4729L64.1626 49.7492C64.1609 49.6053 64.2764 49.5271 64.3874 49.5271C64.4914 49.5271 64.6069 49.6035 64.6069 49.7474V49.7927C64.8655 49.5413 65.2191 49.392 65.602 49.3902C66.1023 49.3885 66.5501 49.6364 66.8255 50.0513C67.0814 49.6506 67.5292 49.3849 68.0401 49.3814C68.8531 49.3778 69.491 50.0202 69.4928 50.8145L69.5017 53.456C69.5008 53.5991 69.3853 53.6773 69.2751 53.6773Z" fill="#009DDC"/>
<path d="M70.9322 48.7525C70.6816 48.7525 70.4861 48.5562 70.4861 48.3047C70.4843 48.0568 70.6798 47.8569 70.9286 47.8569C71.18 47.8569 71.3782 48.0533 71.3782 48.3012C71.38 48.5553 71.1836 48.7525 70.9322 48.7525ZM70.9473 53.6722C70.8389 53.6722 70.7207 53.6029 70.7189 53.4518L70.7083 49.7246C70.7065 49.5842 70.8175 49.506 70.933 49.506C71.0352 49.506 71.1534 49.5753 71.1552 49.7246L71.1658 53.4501C71.1676 53.594 71.0637 53.6722 70.9473 53.6722Z" fill="#009DDC"/>
<path d="M75.9824 51.7944L72.7296 51.805C72.8042 52.7006 73.3862 53.351 74.2409 53.3475C74.6639 53.3457 75.1623 53.1547 75.3898 52.801C75.4449 52.7158 75.5079 52.6918 75.5772 52.6918C75.6963 52.6918 75.8207 52.7842 75.8207 52.9032C75.8207 52.9743 75.8207 52.9903 75.6741 53.16C75.3151 53.5865 74.7891 53.7917 74.2427 53.7935C72.9793 53.7971 72.2711 52.7646 72.2658 51.5811C72.2622 50.403 72.9668 49.3634 74.2267 49.3599C75.4902 49.3563 76.1965 50.3976 76.2001 51.5687C76.201 51.6851 76.0908 51.7944 75.9824 51.7944ZM74.2294 49.8095C73.2876 49.813 72.798 50.5363 72.7296 51.359L75.7469 51.3483C75.6732 50.4563 75.0903 49.8077 74.2294 49.8095Z" fill="#009DDC"/>
<path d="M84.0038 53.7779C83.9496 53.7796 83.8945 53.7556 83.8546 53.7103L83.2024 53.0511C82.8328 53.4918 82.3086 53.7699 81.556 53.7716C79.8723 53.777 79.2725 52.382 79.269 50.8529C79.2637 49.314 79.8536 47.9146 81.5391 47.9102C83.2166 47.9048 83.8252 49.2998 83.8306 50.8396C83.8323 51.5237 83.7248 52.1483 83.445 52.6752L84.1753 53.3869C84.2224 53.434 84.2446 53.4891 84.2464 53.5433C84.2464 53.6703 84.13 53.7779 84.0038 53.7779ZM81.54 48.3589C80.2383 48.3642 79.7097 49.3842 79.7132 50.8529C79.7186 52.3109 80.2534 53.3292 81.5551 53.3256C82.1495 53.3238 82.5795 53.1177 82.8763 52.7321L82.2641 52.1279C82.209 52.0897 82.1913 52.0275 82.1913 51.9733C82.1913 51.8569 82.3094 51.7352 82.4356 51.7352C82.4827 51.7352 82.536 51.7663 82.5831 51.8045L83.1127 52.3394C83.2895 51.9298 83.3854 51.4331 83.3836 50.8396C83.3792 49.3709 82.8319 48.3553 81.54 48.3589Z" fill="#009DDC"/>
<path d="M88.417 53.6189C88.3095 53.6189 88.1896 53.5371 88.1878 53.3967V53.1453C87.8599 53.5327 87.3828 53.753 86.8497 53.7548C85.8741 53.7584 85.0567 52.9463 85.054 51.9725L85.0469 49.6801C85.0469 49.5397 85.1633 49.4615 85.2744 49.4615C85.3748 49.4615 85.4947 49.538 85.4947 49.6783L85.5019 51.9707C85.5054 52.7153 86.1025 53.3123 86.8488 53.3088C87.5952 53.307 88.1869 52.7064 88.1851 51.9618L88.178 49.6695C88.1762 49.5291 88.2962 49.4527 88.4055 49.4527C88.5077 49.4509 88.6258 49.5291 88.6258 49.6695L88.6383 53.3967C88.6374 53.5353 88.5192 53.6171 88.417 53.6189Z" fill="#009DDC"/>
<path d="M93.4593 51.7396L90.2038 51.7503C90.2767 52.6477 90.8595 53.2963 91.7151 53.2945C92.139 53.2927 92.6401 53.0999 92.8658 52.7481C92.9226 52.661 92.9839 52.6388 93.055 52.6388C93.1732 52.637 93.2976 52.7312 93.2976 52.8467C93.2993 52.9196 93.2993 52.9356 93.1501 53.107C92.7911 53.5308 92.2651 53.7388 91.7169 53.7405C90.4535 53.7441 89.7436 52.7099 89.74 51.5264C89.7364 50.3482 90.4392 49.3105 91.7009 49.3069C92.9662 49.3016 93.6743 50.3429 93.6779 51.5139C93.6796 51.6312 93.5686 51.7396 93.4593 51.7396ZM91.7036 49.7556C90.7627 49.7574 90.2704 50.4806 90.2029 51.3034L93.2238 51.2945C93.151 50.3998 92.5672 49.752 91.7036 49.7556ZM92.3486 48.0346L91.3091 48.8227C91.2549 48.8609 91.198 48.8769 91.1438 48.8769C91.0186 48.8769 90.9235 48.7782 90.9235 48.6654C90.9235 48.6112 90.9457 48.5472 90.9999 48.4939L91.9008 47.5326C91.963 47.4721 92.0341 47.4473 92.1212 47.4473C92.2865 47.4473 92.4668 47.593 92.4668 47.784C92.4668 47.8746 92.4286 47.9679 92.3486 48.0346Z" fill="#009DDC"/>
<path d="M96.7654 53.7246C96.0812 53.7264 95.5712 53.4456 95.2416 52.9836V53.3754C95.2434 53.514 95.1252 53.5958 95.023 53.5976C94.9138 53.5976 94.7956 53.5158 94.7956 53.3772L94.7796 48.2283C94.7778 48.0897 94.896 48.0098 95.0053 48.0098C95.1074 48.0098 95.2256 48.088 95.2256 48.2266L95.231 50.0311C95.5588 49.5762 96.0688 49.2919 96.7512 49.2901C98.0146 49.2848 98.7245 50.319 98.7281 51.4971C98.7317 52.6815 98.0289 53.7193 96.7654 53.7246ZM96.753 49.7388C95.8191 49.7423 95.2327 50.4905 95.2363 51.5087C95.2398 52.5269 95.8298 53.2804 96.7636 53.2786C97.6974 53.275 98.2839 52.5171 98.2803 51.4998C98.2785 50.4798 97.685 49.7352 96.753 49.7388Z" fill="#009DDC"/>
<path d="M103.379 51.7094L100.121 51.7183C100.196 52.6157 100.777 53.2643 101.633 53.2625C102.058 53.2607 102.558 53.0697 102.785 52.7161C102.839 52.6308 102.903 52.6068 102.974 52.6068C103.092 52.6068 103.217 52.6992 103.217 52.8147C103.217 52.8876 103.217 52.9036 103.068 53.0751C102.71 53.4989 102.183 53.7068 101.634 53.7086C100.371 53.7121 99.6628 52.6779 99.6575 51.4944C99.6539 50.3163 100.359 49.2785 101.62 49.2749C102.884 49.2696 103.592 50.3109 103.597 51.4802C103.598 51.6001 103.488 51.7076 103.379 51.7094ZM101.623 49.721C100.68 49.7245 100.19 50.4495 100.122 51.2723L103.143 51.2634C103.067 50.3687 102.486 49.7174 101.623 49.721Z" fill="#009DDC"/>
<path d="M107.906 53.091C107.562 53.4766 107.082 53.6916 106.503 53.6934C105.241 53.697 104.531 52.6645 104.527 51.4793C104.524 50.3029 105.227 49.2633 106.49 49.2598C107.069 49.258 107.55 49.4695 107.896 49.8515C107.943 49.8986 107.96 49.9537 107.96 49.999C107.96 50.1207 107.849 50.2371 107.73 50.2371C107.676 50.2371 107.621 50.2149 107.567 50.1607C107.307 49.8711 106.944 49.704 106.489 49.7058C105.564 49.7094 104.969 50.4593 104.971 51.4775C104.974 52.4957 105.575 53.2509 106.502 53.2474C106.957 53.2456 107.317 53.0706 107.576 52.7871C107.63 52.732 107.683 52.7072 107.739 52.7072C107.857 52.7072 107.969 52.8076 107.969 52.9364C107.969 52.9906 107.953 53.0377 107.906 53.091Z" fill="#009DDC"/>
</g>
<defs>
<clipPath id="clip0_202_3225">
<rect width="107.369" height="53.463" fill="white" transform="translate(0.808777 0.467285)"/>
</clipPath>
</defs>
</svg>
