<svg xmlns="http://www.w3.org/2000/svg" width="177" height="21" fill="none" viewBox="0 0 177 21"><path fill="#EB4628" d="M50.0683 6.15504V15.0162H52.409C54.9168 15.0162 56.7559 13.0099 56.7559 10.502C56.7559 8.16133 54.9168 6.15504 52.5761 5.98785H52.409L50.0683 6.15504ZM52.409 3.47998C56.5887 3.47998 59.9325 6.65661 59.9325 10.6692C59.9325 14.6818 56.7559 17.8584 52.409 17.8584H47.3932C47.226 17.8584 47.0588 17.6912 47.0588 17.524V3.81436C47.0588 3.64717 47.226 3.47998 47.3932 3.47998H52.409Z"/><path fill="#EB4628" d="M70.8 15.3505C73.4751 15.3505 75.4814 13.177 75.4814 10.6691C75.4814 8.16124 73.3079 5.98775 70.8 5.98775C68.125 5.98775 66.1187 8.16124 66.1187 10.6691C65.9515 13.3442 68.125 15.3505 70.8 15.3505ZM70.8 3.14551C75.3142 3.14551 78.658 6.48933 78.658 10.6691C78.658 14.8489 75.3142 18.1927 70.8 18.1927C66.2859 18.1927 62.942 14.8489 62.942 10.6691C62.942 6.48933 66.2859 3.14551 70.8 3.14551Z"/><path fill="#EB4628" d="M89.5253 15.3505C92.2004 15.3505 94.3738 13.177 94.3738 10.6691C94.3738 8.16124 92.2004 5.82056 89.6925 5.82056C87.0174 5.82056 84.844 7.99405 84.844 10.5019C84.6768 13.3442 86.8502 15.3505 89.5253 15.3505ZM89.5253 3.14551C94.0395 3.14551 97.3833 6.48933 97.3833 10.6691C97.3833 14.8489 94.0395 18.1927 89.5253 18.1927C85.0111 18.1927 81.6673 14.8489 81.6673 10.6691C81.6673 6.48933 85.0111 3.14551 89.5253 3.14551Z"/><path fill="#EB4628" d="M107.749 6.15504H104.573V10.0004H107.749C108.752 10.0004 109.588 9.16448 109.756 8.16133C109.756 7.15818 108.92 6.32223 107.749 6.15504C107.749 6.15504 107.916 6.15504 107.749 6.15504ZM101.396 3.81436C101.396 3.64717 101.563 3.47998 101.73 3.47998H107.749C110.591 3.47998 112.765 5.65346 112.765 8.16133C112.765 10.0004 111.762 11.6723 110.257 12.3411L113.099 17.1896C113.267 17.3568 113.099 17.524 112.932 17.6912H112.765H110.257C110.09 17.6912 109.923 17.6912 109.923 17.524L107.248 12.8427H104.573V17.524C104.573 17.6912 104.405 17.8584 104.238 17.8584H101.898C101.73 17.8584 101.563 17.6912 101.563 17.524L101.396 3.81436Z"/><path fill="#EB4628" d="M120.957 6.32223V15.1834H123.298C125.806 15.1834 127.645 13.1771 127.645 10.6692C127.645 8.32852 125.806 6.32223 123.465 6.15504H123.298H120.957V6.32223ZM123.298 3.47998C127.478 3.47998 130.822 6.65661 130.822 10.6692C130.822 14.6818 127.645 17.8584 123.298 17.8584H118.282C118.115 17.8584 117.948 17.6912 117.948 17.524V3.81436C117.948 3.64717 118.115 3.47998 118.282 3.47998H123.298Z"/><path fill="#EB4628" d="M140.184 6.99099L138.345 11.6723H141.856L140.184 6.99099ZM137.342 14.5146L136.172 17.6912C136.172 17.8584 136.004 18.0256 135.837 17.8584H133.329C133.162 17.8584 132.995 17.6912 132.995 17.524V17.3568L138.345 3.64717C138.345 3.47998 138.512 3.47998 138.679 3.47998H141.522C141.689 3.47998 141.856 3.64717 141.856 3.64717L147.206 17.3568C147.373 17.524 147.206 17.6912 147.039 17.8584H146.872H144.364C144.197 17.8584 144.03 17.6912 144.03 17.6912L142.859 14.5146H137.342V14.5146Z"/><path fill="#EB4628" d="M150.216 7.32528C150.216 4.98461 152.222 3.14551 155.231 3.14551C156.903 3.14551 158.575 3.64708 159.746 4.81742C159.913 4.98461 159.913 5.1518 159.746 5.31899L158.408 6.65652C158.241 6.82371 158.074 6.82371 157.906 6.65652C157.238 5.98775 156.402 5.65337 155.566 5.65337C154.395 5.65337 153.392 6.32214 153.392 7.15809C153.392 9.83315 160.749 8.32843 160.749 13.5114C160.749 16.0192 158.742 18.0255 155.231 18.0255C153.225 18.0255 151.386 17.3567 150.048 15.852C149.881 15.6848 149.881 15.5176 150.048 15.3505L151.386 14.0129C151.553 13.8457 151.72 13.8457 151.888 14.0129C152.724 15.0161 153.727 15.5176 154.897 15.5176C156.402 15.5176 157.405 14.6817 157.405 13.6785C157.572 11.0035 150.216 12.5082 150.216 7.32528Z"/><path fill="#EB4628" d="M173.957 3.81452V9.16464H167.771V3.81452C167.771 3.64733 167.604 3.48014 167.436 3.48014H165.096C164.928 3.48014 164.761 3.64733 164.761 3.81452V17.5242C164.761 17.6914 164.928 17.8586 165.096 17.8586H167.436C167.604 17.8586 167.771 17.6914 167.771 17.5242V12.0069H173.957V17.5242C173.957 17.6914 174.124 17.8586 174.291 17.8586H176.632C176.799 17.8586 176.966 17.6914 176.966 17.5242V3.81452C176.966 3.64733 176.799 3.48014 176.632 3.48014H174.291C174.124 3.31295 173.957 3.48014 173.957 3.81452Z"/><path fill="#EB4628" d="M34.6867 5.31924C33.182 2.3098 30.0054 0.470703 26.6616 0.470703H1.08135C0.579774 0.470703 0.245392 0.805085 0.245392 1.30666C0.245392 1.47385 0.412583 1.80823 0.579774 1.97542L6.09708 7.49273C6.59865 7.9943 7.26741 8.32868 7.93618 8.32868H25.9928C27.3303 8.32868 28.3335 9.33183 28.3335 10.6694C28.3335 12.0069 27.3303 13.01 25.9928 13.01H13.6207C13.1191 13.01 12.6175 13.3444 12.6175 13.846C12.6175 14.0132 12.7847 14.3476 12.9519 14.5147L18.4692 20.0321C18.9708 20.5336 19.6396 20.868 20.3083 20.868H25.9928C33.182 20.868 38.8665 13.01 34.6867 5.31924Z"/></svg>