<svg xmlns="http://www.w3.org/2000/svg" width="497.5" height="279.87" viewBox="0 0 497.5 279.87">
  <g>
    <g>
      <ellipse cx="248.75" cy="139.935" rx="247.5" ry="138.685" fill="#e31b23" stroke="#fff" stroke-miterlimit="10" stroke-width="2.5"/>
      <g>
        <path d="M46.389,147.262c-3.446,13.077,1.788,24.671,18.422,24.671,9.33,0,17.489-5.394,19.38-13.29,2.065-8.761-2.808-13.937-8.559-19.772L70.2,133.218c-7.094-7.242-12.514-13.781-9.912-24.617,3.682-15.554,20.1-25.268,38.607-25.268,9.814,0,17.486,2.769,23.538,8.041,12.286,12.381-2.925,20.3-6.307,19.551a3.427,3.427,0,0,1-1.145-.365c3.226-10.027-.232-21.149-14.157-21.149-7.813,0-17.444,4.177-19.144,11.282-1.929,8.068,3.876,13.617,9.091,18.9l4.933,4.846c7.859,7.65,14.272,14.854,11.461,26.676-4.025,16.953-21.012,26.96-41.031,26.96-11.027,0-21.97-3.309-28.083-10.2C26.275,154.219,39.786,147.14,46.389,147.262Z" fill="#fff"/>
        <path d="M185.327,211.137l19.4-42.959h.335c2.4,5.748,7.866,9.091,15.77,9.091,24.987,0,42.416-24.176,44.591-41.951a25.164,25.164,0,0,0,.114-5.181c-.749-8.6-6.572-14.922-19-14.922a33.032,33.032,0,0,0-22.838,9.209l-.316-.262,2.062-4.842a21.523,21.523,0,0,0-12.564-10.609l-40.791,91.042A22.859,22.859,0,0,0,185.327,211.137Zm60.765-79.573c-1.252,10.057-13.461,38.026-28.981,38.026-6.181,0-8.014-4.744-7.493-9.091,1.065-8.513,12.731-37.623,28.071-37.623C244.03,122.876,246.643,126.946,246.092,131.564Z" fill="#fff"/>
        <path d="M180.261,168.81a7.163,7.163,0,0,1-3.058.814c-2.416,0-2.868-3.23-2.651-4.919.254-2.217,2.849-7.945,4.009-10.327l17.759-37.691a25.467,25.467,0,0,0-17.931-.034l-4.355,7.63c-2.381-5.9-7.87-9.109-15.956-9.109-24.8,0-45.135,23.784-47.338,41.818-1.331,10.92,4.4,20.262,18.871,20.262,11.734,0,21.514-6.862,27.645-14.675l.32.263a39.716,39.716,0,0,0-1.13,5.07c-.67,5.127,3.328,9.342,9.851,9.342a26.843,26.843,0,0,0,11.461-2.8l2.522-5.584ZM169.1,130.856c-1.251,10.046-15.2,38.011-30.871,38.011-5.858,0-7.664-5.04-7.136-9.095,1.2-9.92,14.679-36.9,29.856-36.9C166.955,122.876,169.637,126.383,169.1,130.856Z" fill="#fff"/>
        <path d="M333.015,141.59l10.449-20.247s-5.843-.407-9.327-.616c-2.548-.16-8.691-.757-8.691-.757L320.425,129c-4.717,9.079-20.141,39.174-34.238,39.174-2.96,0-4.873-1.145-4.572-3.666.38-3.081,11.814-24.245,11.814-24.245,2.457-4.6,6.079-11.579,6.646-16.174.685-5.485-4.09-8.954-10.61-8.954-5.675,0-12.308,2.522-18,6.06a14.407,14.407,0,0,1,1.473,3.488,18.553,18.553,0,0,1,4.458-1.195,2.357,2.357,0,0,1,2.556,2.956c-.255,2.24-10.605,22.982-10.605,22.982-2.48,4.754-6.284,11.871-6.893,16.789-.817,6.84,4.865,11.05,12.792,11,13.762-.046,24.726-8.988,32.542-19.68l.312.3a35.6,35.6,0,0,0-2.518,9.2c-.632,5.322,2.9,10.183,9.958,10.183,6.356,0,12.305-2.636,17.3-6.36v-.072a8.491,8.491,0,0,1-.5-4.192c.008-.2.042-.373.05-.567-1.628,1.092-3.454,2.1-5.052,2.153-2.727,0-2.773-2.7-2.567-4.351C325.446,158.346,330.44,147.174,333.015,141.59Z" fill="#fff"/>
        <path d="M437.617,115.858c-9.265-6.341-25.492-11.628-53.891-12.3l6.5-14.4a24.306,24.306,0,0,0-17.543-.069l-6.972,14.626c-18.8.848-41.076,5.884-81.69-2.267l-1.076,1.761c22.633,9.353,57.232,11.361,77.6,11.361L345.765,145.66c-1.308,2.91-3.069,6.638-4.545,10.392-2.328,4.987-3.085,8.551-3.211,10.54-.753,6.257,4.862,10.856,12.617,10.856,8.935,0,16.467-5.238,22.218-10.578l-.061-.206a18.347,18.347,0,0,1-1.75-4.035,47.29,47.29,0,0,1-3.94,3.4c-2.127,1.514-4.283,2.56-6.341,2.56-3.256,0-3.6-2.309-3.351-4.389.5-3.9,4.431-12.282,6.3-16.158l15.523-34.5c15.527-1.552,34.9-3.72,45.135,2.48-14.766,1.145-29.54,5.7-38.753,16.39a39.01,39.01,0,0,0-9.5,21.107,30.066,30.066,0,0,0,.186,7.208c1.951,10.061,11.084,16.79,25.4,16.79,24.063,0,45.113-18.988,47.417-37.786a21.329,21.329,0,0,0-4.191-16.992c7.988,3.085,14.058,8,15.61,10.533a18.8,18.8,0,0,0,9.822-9.388C466.974,120.582,453.4,116.638,437.617,115.858Zm-19.634,45.394c-11.381,15.842-29.479,16.23-23.043-6.341.989-3.56,9.235-32.51,33.9-34.751a14.785,14.785,0,0,1,2.207,5.306C432.809,134.329,425.948,150.449,417.983,161.252Z" fill="#fff"/>
      </g>
    </g>
    <g>
      <path d="M463.007,49.939,464.435,57h.028l1.441-7.056h2.983v10h-1.849v-7.98h-.027l-1.778,7.98h-1.568l-1.778-7.98h-.028v7.98h-1.848v-10Z" fill="#e31b23"/>
      <path d="M473.731,49.939a3.6,3.6,0,0,1,1.694.343,2.436,2.436,0,0,1,1,.98,4.361,4.361,0,0,1,.483,1.533,14.461,14.461,0,0,1,.126,2,14.135,14.135,0,0,1-.161,2.289,4.37,4.37,0,0,1-.553,1.6,2.421,2.421,0,0,1-1.05.938,3.94,3.94,0,0,1-1.666.308h-3.178v-10Zm-.392,8.512a1.739,1.739,0,0,0,.855-.182,1.254,1.254,0,0,0,.51-.6,3.525,3.525,0,0,0,.252-1.106q.063-.685.063-1.708,0-.854-.056-1.5a3.68,3.68,0,0,0-.231-1.071,1.328,1.328,0,0,0-.518-.644,1.693,1.693,0,0,0-.917-.217h-.853v7.028Z" fill="#e31b23"/>
      <path d="M482.355,49.743l-3.164,10.346h-1.527l3.122-10.346Z" fill="#e31b23"/>
      <path d="M483.124,52.914a5.2,5.2,0,0,1,2.766-2.765,5.243,5.243,0,0,1,4.046,0,5.2,5.2,0,0,1,2.764,2.765,5.231,5.231,0,0,1,0,4.046,5.087,5.087,0,0,1-2.764,2.737,5.416,5.416,0,0,1-4.046,0,5.1,5.1,0,0,1-1.653-1.092,5.181,5.181,0,0,1-1.113-1.645,5.255,5.255,0,0,1,0-4.046Zm1.436,3.458a3.631,3.631,0,0,0,.756,1.183,3.575,3.575,0,0,0,1.148.8,3.615,3.615,0,0,0,4.046-.8,3.681,3.681,0,0,0,.756-1.183,3.921,3.921,0,0,0,0-2.87,3.681,3.681,0,0,0-.756-1.183,3.613,3.613,0,0,0-5.194,0,3.631,3.631,0,0,0-.756,1.183,3.895,3.895,0,0,0,0,2.87Zm3.507-4.235a2.479,2.479,0,0,1,1.624.448,1.592,1.592,0,0,1,.532,1.288,1.454,1.454,0,0,1-.4,1.1,1.657,1.657,0,0,1-.986.455l1.386,2.31h-1.344l-1.316-2.254h-.449v2.254h-1.231v-5.6Zm-.014,2.366a1.574,1.574,0,0,0,.672-.126q.265-.126.265-.574a.617.617,0,0,0-.1-.371.636.636,0,0,0-.259-.2,1.2,1.2,0,0,0-.351-.091,3.237,3.237,0,0,0-.356-.021h-.813V54.5Z" fill="#e31b23"/>
    </g>
  </g>
</svg>
