<svg width="384" height="57" viewBox="0 0 384 57" fill="none" xmlns="http://www.w3.org/2000/svg">
<path d="M50.2587 56.2036C77.4636 56.2036 99.5175 43.8459 99.5175 28.6018C99.5175 13.3578 77.4636 1 50.2587 1C23.0539 1 1 13.3578 1 28.6018C1 43.8459 23.0539 56.2036 50.2587 56.2036Z" fill="#E31B23" stroke="white" stroke-width="0.210012" stroke-miterlimit="10"/>
<path d="M9.98389 30.0604C9.29805 32.663 10.3397 34.9705 13.6503 34.9705C15.5072 34.9705 17.1311 33.897 17.5074 32.3255C17.9184 30.5818 16.9486 29.5517 15.804 28.3904L14.7229 27.2653C13.311 25.8239 12.2323 24.5225 12.7501 22.3659C13.483 19.2702 16.7506 17.3369 20.4339 17.3369C22.3871 17.3369 23.9141 17.888 25.1186 18.9373C27.5638 21.4014 24.5364 22.9775 23.8633 22.8284C23.7837 22.8178 23.7065 22.7932 23.6354 22.7558C24.2775 20.7601 23.5893 18.5466 20.8178 18.5466C19.2628 18.5466 17.346 19.3779 17.0077 20.792C16.6238 22.3977 17.7791 23.5021 18.817 24.5536L19.7988 25.518C21.363 27.0406 22.6393 28.4744 22.0798 30.8272C21.2788 34.2013 17.8979 36.193 13.9136 36.193C11.719 36.193 9.54106 35.5344 8.32442 34.1629C5.9807 31.445 8.66973 30.0361 9.98389 30.0604Z" fill="white"/>
<path d="M37.6359 42.7731L41.497 34.2231H41.5637C42.0413 35.3671 43.1292 36.0325 44.7023 36.0325C49.6753 36.0325 53.1441 31.2208 53.577 27.6832C53.6201 27.3411 53.6277 26.9956 53.5997 26.652C53.4506 24.9404 52.2917 23.6822 49.8182 23.6822C48.1235 23.6844 46.4951 24.341 45.2729 25.515L45.21 25.4628L45.6204 24.4992C45.0992 23.4921 44.2 22.7328 43.1198 22.3877L35.0014 40.5074C35.5452 41.5814 36.4926 42.3961 37.6359 42.7731ZM49.7297 26.936C49.4805 28.9376 47.0506 34.5042 43.9617 34.5042C42.7315 34.5042 42.3667 33.56 42.4704 32.6948C42.6824 31.0005 45.0042 25.2069 48.0573 25.2069C49.3193 25.2069 49.8393 26.0169 49.7297 26.936Z" fill="white"/>
<path d="M36.6275 34.3491C36.4393 34.4478 36.2313 34.5032 36.0189 34.5111C35.5381 34.5111 35.4481 33.8683 35.4913 33.5321C35.5419 33.0909 36.0583 31.9509 36.2892 31.4768L39.8237 23.9753C38.6743 23.5405 37.406 23.5381 36.255 23.9686L35.3882 25.4871C34.9143 24.3129 33.8219 23.6742 32.2126 23.6742C27.2767 23.6742 23.2296 28.4078 22.7911 31.997C22.5262 34.1704 23.6668 36.0297 26.5469 36.0297C28.8823 36.0297 30.8287 34.664 32.049 33.109L32.1127 33.1613C32.0157 33.4924 31.9406 33.8295 31.8878 34.1704C31.7544 35.1908 32.5501 36.0297 33.8484 36.0297C34.6406 36.0154 35.4198 35.825 36.1294 35.4724L36.6313 34.3611L36.6275 34.3491ZM34.4062 26.7953C34.1572 28.7947 31.381 34.3605 28.2621 34.3605C27.0962 34.3605 26.7368 33.3574 26.8419 32.5503C27.0807 30.576 29.7634 25.2063 32.784 25.2063C33.9793 25.2071 34.5131 25.9051 34.4062 26.7953Z" fill="white"/>
<path d="M67.0295 28.9312L69.1091 24.9016C69.1091 24.9016 67.9462 24.8206 67.2528 24.779C66.7456 24.7471 65.523 24.6283 65.523 24.6283L64.5237 26.4255C63.5849 28.2325 60.5152 34.2221 57.7095 34.2221C57.1204 34.2221 56.7396 33.9942 56.7996 33.4925C56.8752 32.8793 59.1508 28.6671 59.1508 28.6671C59.6398 27.7516 60.3607 26.3626 60.4736 25.4481C60.6099 24.3564 59.6595 23.666 58.3619 23.666C57.2324 23.666 55.9123 24.168 54.7795 24.8721C54.9073 25.0896 55.0059 25.323 55.0726 25.5663C55.3573 25.4504 55.6554 25.3705 55.9599 25.3285C56.0361 25.3193 56.1134 25.329 56.1851 25.3567C56.2567 25.3845 56.3204 25.4293 56.3706 25.4874C56.4208 25.5455 56.456 25.615 56.4731 25.6899C56.4902 25.7648 56.4886 25.8427 56.4686 25.9168C56.4178 26.3626 54.3579 30.4908 54.3579 30.4908C53.8643 31.437 53.1072 32.8534 52.986 33.8322C52.8234 35.1936 53.9543 36.0315 55.532 36.0215C58.271 36.0123 60.4531 34.2327 62.0086 32.1047L62.0707 32.1644C61.8223 32.7495 61.6538 33.3654 61.5696 33.9954C61.4438 35.0546 62.1468 36.0221 63.5515 36.0221C64.8165 36.0221 66.0005 35.4975 66.9946 34.7563V34.742C66.8917 34.4767 66.8575 34.1897 66.8951 33.9077C66.8967 33.8678 66.9035 33.8334 66.9051 33.7948C66.5811 34.0121 66.2176 34.2128 65.8996 34.2233C65.3568 34.2233 65.3477 33.6859 65.3887 33.3573C65.523 32.2661 66.517 30.0426 67.0295 28.9312Z" fill="white"/>
<path d="M87.848 23.81C86.0041 22.5479 82.7745 21.4957 77.1224 21.3619L78.416 18.496C77.2945 18.0569 76.0495 18.052 74.9245 18.4822L73.5369 21.3932C69.7953 21.562 65.3618 22.5643 57.2786 20.942L57.0644 21.2925C61.569 23.154 68.455 23.5536 72.5088 23.5536L69.5672 29.7413C69.3069 30.3205 68.9564 31.0624 68.6626 31.8096C68.1993 32.8021 68.0486 33.5114 68.0235 33.9073C67.8737 35.1526 68.9912 36.0679 70.5346 36.0679C72.3129 36.0679 73.812 35.0254 74.9566 33.9626L74.9444 33.9216C74.7966 33.6689 74.6796 33.3992 74.5962 33.1186C74.3474 33.3583 74.0856 33.5842 73.812 33.7952C73.3887 34.0966 72.9596 34.3047 72.55 34.3047C71.902 34.3047 71.8335 33.8452 71.883 33.4312C71.9826 32.655 72.7649 30.9868 73.1369 30.2154L76.2264 23.349C79.3166 23.0401 83.1723 22.6086 85.2094 23.8426C82.2706 24.0705 79.3302 24.977 77.4965 27.1046C76.4558 28.2814 75.7965 29.7461 75.6058 31.3054C75.5606 31.7834 75.573 32.265 75.6428 32.74C76.0311 34.7424 77.8488 36.0816 80.6981 36.0816C85.4872 36.0816 89.6767 32.3026 90.1352 28.5613C90.2433 27.9707 90.2248 27.3638 90.081 26.7809C89.9372 26.1979 89.6714 25.6521 89.3011 25.1794C90.8909 25.7934 92.099 26.7716 92.4079 27.2758C93.2697 26.9184 93.9668 26.2521 94.3627 25.4073C93.6908 24.7501 90.9893 23.9652 87.848 23.81ZM83.9404 32.8445C81.6753 35.9975 78.0733 36.0747 79.3542 31.5825C79.5511 30.874 81.1922 25.1122 86.1012 24.6662C86.3153 24.986 86.4645 25.3448 86.5405 25.7222C86.8911 27.4861 85.5256 30.6944 83.9404 32.8445Z" fill="white"/>
<path d="M92.9012 10.6899L93.1854 12.0953H93.1909L93.4777 10.6909H94.0714V12.6812H93.7034V11.093H93.698L93.3442 12.6812H93.0321L92.6782 11.093H92.6727V12.6812H92.3049V10.6909L92.9012 10.6899Z" fill="#E31B23"/>
<path d="M95.0354 10.6908C95.1517 10.6858 95.2674 10.7092 95.3726 10.759C95.4565 10.8032 95.5257 10.871 95.5716 10.9541C95.6222 11.0489 95.6548 11.1524 95.6677 11.2592C95.6853 11.3911 95.6936 11.5241 95.6928 11.6572C95.6945 11.8097 95.6837 11.9621 95.6607 12.1128C95.6452 12.2251 95.6078 12.3333 95.5507 12.4312C95.5011 12.5128 95.4283 12.5778 95.3417 12.6179C95.2369 12.6622 95.1238 12.6831 95.0101 12.6792H94.3776V10.689L95.0354 10.6908ZM94.9574 12.3849C95.0163 12.3875 95.0748 12.375 95.1276 12.3486C95.1733 12.3208 95.2089 12.2789 95.2291 12.2292C95.2575 12.159 95.2745 12.0847 95.2792 12.0091C95.2876 11.9182 95.2918 11.8049 95.2918 11.6692C95.2918 11.5559 95.288 11.4563 95.2806 11.3706C95.276 11.2977 95.2605 11.2258 95.2346 11.1575C95.2148 11.1049 95.1787 11.06 95.1315 11.0293C95.076 10.9979 95.0127 10.9829 94.949 10.9861H94.7793V12.3849H94.9574Z" fill="#E31B23"/>
<path d="M96.7519 10.6519L96.1222 12.711H95.8182L96.4396 10.6519H96.7519Z" fill="#E31B23"/>
<path d="M96.9048 11.283C97.0097 11.0349 97.2072 10.8375 97.4553 10.7327C97.5828 10.6793 97.7197 10.6519 97.8579 10.6519C97.9962 10.6519 98.133 10.6793 98.2606 10.7327C98.5085 10.8376 98.7059 11.035 98.8107 11.283C98.8641 11.4105 98.8917 11.5473 98.8917 11.6856C98.8917 11.8239 98.8641 11.9607 98.8107 12.0882C98.7067 12.3355 98.5088 12.5314 98.2606 12.633C98.0022 12.737 97.7136 12.737 97.4553 12.633C97.3325 12.5827 97.2207 12.5089 97.1263 12.4156C97.032 12.3218 96.9568 12.2106 96.9048 12.0882C96.8516 11.9607 96.8242 11.8238 96.8242 11.6856C96.8242 11.5474 96.8516 11.4105 96.9048 11.283ZM97.1906 11.9712C97.225 12.0587 97.2761 12.1387 97.3411 12.2066C97.406 12.2742 97.4836 12.3284 97.5695 12.3659C97.704 12.4246 97.8532 12.4408 97.9971 12.4124C98.141 12.3839 98.2728 12.3121 98.3748 12.2066C98.4396 12.1385 98.4907 12.0586 98.5253 11.9712C98.5974 11.7876 98.5974 11.5836 98.5253 11.4C98.4907 11.3126 98.4396 11.2326 98.3748 11.1645C98.3077 11.0952 98.2274 11.0401 98.1386 11.0024C98.0498 10.9648 97.9544 10.9454 97.8579 10.9454C97.7615 10.9454 97.666 10.9648 97.5772 11.0024C97.4884 11.0401 97.4081 11.0952 97.3411 11.1645C97.2761 11.2325 97.225 11.3125 97.1906 11.4C97.1179 11.5835 97.1179 11.7877 97.1906 11.9712ZM97.8886 11.1283C98.0034 11.1194 98.1178 11.1509 98.2118 11.2175C98.2477 11.2494 98.2759 11.289 98.2943 11.3335C98.3126 11.3779 98.3206 11.4259 98.3177 11.4738C98.3203 11.5138 98.3146 11.554 98.3009 11.5917C98.2872 11.6293 98.2658 11.6638 98.2381 11.6928C98.1847 11.7441 98.1156 11.776 98.0418 11.7833L98.3177 12.2431H98.0502L97.7883 11.7945H97.6989V12.2431H97.4539V11.1285L97.8886 11.1283ZM97.8858 11.5992C97.9317 11.6008 97.9773 11.5922 98.0195 11.5741C98.0547 11.5574 98.0723 11.5193 98.0723 11.4599C98.0737 11.4338 98.0667 11.4079 98.0524 11.3861C98.039 11.3685 98.0212 11.3548 98.0008 11.3463C97.9786 11.3367 97.955 11.3306 97.931 11.3281C97.9074 11.3254 97.8838 11.3241 97.8601 11.324H97.6983V11.5986L97.8858 11.5992Z" fill="#E31B23"/>
<g clip-path="url(#clip0_202_3129)">
<path d="M148.497 16.9285C146.853 16.1021 144.387 15.6889 142.537 15.6889C140.688 15.6889 138.222 16.5153 138.222 19.4078C138.222 24.1598 150.141 22.0937 150.141 31.1845C150.141 37.1761 145.415 39.2422 139.866 39.2422C136.989 39.2422 135.55 38.829 132.879 38.2092V33.2506C134.728 34.2836 137.4 34.9034 139.66 34.9034C141.715 34.9034 144.592 33.8704 144.592 31.3911C144.387 26.4325 132.468 28.4986 132.468 19.6144C132.468 13.6228 137.194 11.3501 141.921 11.3501C144.181 11.3501 146.442 11.5567 148.497 12.3831V16.9285Z" fill="#0075BF"/>
<path d="M179.734 23.5395C178.09 22.9197 176.857 22.7131 175.007 22.7131C173.569 22.7131 171.925 23.1263 171.925 24.7792C171.925 27.8783 180.762 25.8122 180.762 32.8369C180.762 37.3823 176.652 39.2418 172.541 39.2418C170.692 39.2418 168.637 38.8285 166.787 38.4153L166.993 34.2832C168.637 35.1096 170.281 35.5228 171.925 35.5228C173.158 35.5228 175.213 35.1096 175.213 33.2501C175.213 29.5312 166.376 32.0105 166.376 24.9858C166.376 20.8536 170.075 18.9941 173.98 18.9941C176.446 18.9941 177.885 19.4074 179.529 19.614L179.734 23.5395Z" fill="#0075BF"/>
<path d="M195.969 23.747C195.147 23.3338 194.12 23.1272 192.476 23.1272C189.393 23.1272 187.338 25.6065 187.338 29.3254C187.338 32.8377 188.982 35.7303 192.681 35.7303C194.12 35.7303 195.764 35.1104 196.586 34.9038L196.791 39.036C195.353 39.4492 193.709 39.6558 191.653 39.6558C185.283 39.6558 181.995 35.3171 181.995 29.532C181.995 23.9536 185.283 19.4082 191.448 19.4082C193.503 19.4082 194.942 19.6148 196.38 20.028L195.969 23.747Z" fill="#0075BF"/>
<path d="M207.478 19.2007C213.232 19.2007 217.753 23.1262 217.753 29.5311C217.753 35.1095 214.054 39.4483 207.478 39.4483C201.107 39.4483 197.202 35.1095 197.202 29.5311C197.202 22.9196 201.723 19.2007 207.478 19.2007ZM207.478 35.5227C211.382 35.5227 212.41 32.0104 212.41 28.9113C212.41 26.0188 210.766 23.1262 207.478 23.1262C204.189 23.1262 202.545 26.0188 202.545 28.9113C202.545 32.0104 203.573 35.5227 207.478 35.5227Z" fill="#0075BF"/>
<path d="M167.198 19.2007H162.06L152.402 45.8532H157.128L167.198 19.2007Z" fill="#0075BF"/>
<path d="M146.236 18.7876C148.292 21.0603 150.552 23.7462 152.196 26.8454C153.635 29.7379 154.251 32.4238 154.868 35.1097C154.868 35.1097 154.868 35.1097 155.073 35.1097C156.923 31.804 158.156 27.4652 156.306 24.1594C154.251 20.6471 150.141 18.9942 146.236 18.7876C146.031 18.581 146.031 18.7876 146.236 18.7876Z" fill="#5F9E43"/>
</g>
<path d="M290.678 25.2966V31.785H292.392C294.228 31.785 295.575 30.3159 295.575 28.4796C295.575 26.7657 294.228 25.2966 292.515 25.1742H292.392L290.678 25.2966ZM292.392 23.3379C295.453 23.3379 297.901 25.6639 297.901 28.602C297.901 31.5401 295.575 33.8661 292.392 33.8661H288.719C288.597 33.8661 288.475 33.7437 288.475 33.6213V23.5827C288.475 23.4603 288.597 23.3379 288.719 23.3379H292.392Z" fill="#EB4628"/>
<path d="M305.859 32.0295C307.817 32.0295 309.286 30.4381 309.286 28.6017C309.286 26.7654 307.695 25.1739 305.859 25.1739C303.9 25.1739 302.431 26.7654 302.431 28.6017C302.308 30.5605 303.9 32.0295 305.859 32.0295ZM305.859 23.0928C309.164 23.0928 311.612 25.5412 311.612 28.6017C311.612 31.6623 309.164 34.1107 305.859 34.1107C302.553 34.1107 300.105 31.6623 300.105 28.6017C300.105 25.5412 302.553 23.0928 305.859 23.0928Z" fill="#EB4628"/>
<path d="M319.57 32.0295C321.528 32.0295 323.12 30.4381 323.12 28.6017C323.12 26.7654 321.528 25.0515 319.692 25.0515C317.733 25.0515 316.142 26.643 316.142 28.4793C316.019 30.5605 317.611 32.0295 319.57 32.0295ZM319.57 23.0928C322.875 23.0928 325.323 25.5412 325.323 28.6017C325.323 31.6623 322.875 34.1107 319.57 34.1107C316.264 34.1107 313.816 31.6623 313.816 28.6017C313.816 25.5412 316.264 23.0928 319.57 23.0928Z" fill="#EB4628"/>
<path d="M332.914 25.2966H330.588V28.1123H332.914C333.648 28.1123 334.26 27.5002 334.383 26.7657C334.383 26.0312 333.771 25.4191 332.914 25.2966C333.036 25.2966 332.914 25.2966 332.914 25.2966ZM328.262 23.5827C328.262 23.4603 328.384 23.3379 328.506 23.3379H332.914C334.995 23.3379 336.586 24.9294 336.586 26.7657C336.586 28.1123 335.852 29.3365 334.75 29.8262L336.831 33.3764C336.954 33.4989 336.831 33.6213 336.709 33.7437H336.586H334.75C334.628 33.7437 334.505 33.7437 334.505 33.6213L332.546 30.1935H330.588V33.6213C330.588 33.7437 330.465 33.8661 330.343 33.8661H328.629C328.506 33.8661 328.384 33.7437 328.384 33.6213L328.262 23.5827Z" fill="#EB4628"/>
<path d="M342.585 25.4191V31.9074H344.299C346.135 31.9074 347.482 30.4383 347.482 28.602C347.482 26.8881 346.135 25.4191 344.421 25.2966H344.299H342.585V25.4191ZM344.299 23.3379C347.359 23.3379 349.808 25.6639 349.808 28.602C349.808 31.5401 347.482 33.8661 344.299 33.8661H340.626C340.504 33.8661 340.381 33.7437 340.381 33.6213V23.5827C340.381 23.4603 340.504 23.3379 340.626 23.3379H344.299Z" fill="#EB4628"/>
<path d="M356.663 25.9087L355.317 29.3365H357.888L356.663 25.9087ZM354.582 31.4177L353.725 33.7437C353.725 33.8661 353.603 33.9886 353.48 33.8661H351.644C351.522 33.8661 351.399 33.7437 351.399 33.6213V33.4989L355.317 23.4603C355.317 23.3379 355.439 23.3379 355.562 23.3379H357.643C357.765 23.3379 357.888 23.4603 357.888 23.4603L361.805 33.4989C361.927 33.6213 361.805 33.7437 361.683 33.8661H361.56H359.724C359.601 33.8661 359.479 33.7437 359.479 33.7437L358.622 31.4177H354.582Z" fill="#EB4628"/>
<path d="M364.009 26.1533C364.009 24.4394 365.478 23.0928 367.681 23.0928C368.905 23.0928 370.13 23.46 370.987 24.317C371.109 24.4394 371.109 24.5618 370.987 24.6843L370.007 25.6636C369.885 25.786 369.762 25.786 369.64 25.6636C369.15 25.1739 368.538 24.9291 367.926 24.9291C367.069 24.9291 366.335 25.4188 366.335 26.0309C366.335 27.9896 371.721 26.8878 371.721 30.6829C371.721 32.5192 370.252 33.9883 367.681 33.9883C366.212 33.9883 364.866 33.4986 363.886 32.3968C363.764 32.2744 363.764 32.152 363.886 32.0295L364.866 31.0502C364.988 30.9277 365.11 30.9277 365.233 31.0502C365.845 31.7847 366.579 32.152 367.436 32.152C368.538 32.152 369.273 31.5399 369.273 30.8053C369.395 28.8466 364.009 29.9484 364.009 26.1533Z" fill="#EB4628"/>
<path d="M381.392 23.5829V27.5004H376.863V23.5829C376.863 23.4605 376.74 23.3381 376.618 23.3381H374.904C374.782 23.3381 374.659 23.4605 374.659 23.5829V33.6215C374.659 33.7439 374.782 33.8663 374.904 33.8663H376.618C376.74 33.8663 376.863 33.7439 376.863 33.6215V29.5816H381.392V33.6215C381.392 33.7439 381.515 33.8663 381.637 33.8663H383.351C383.474 33.8663 383.596 33.7439 383.596 33.6215V23.5829C383.596 23.4605 383.474 23.3381 383.351 23.3381H381.637C381.515 23.2156 381.392 23.3381 381.392 23.5829Z" fill="#EB4628"/>
<path d="M279.415 24.6845C278.314 22.4809 275.988 21.1343 273.539 21.1343H254.809C254.441 21.1343 254.197 21.3791 254.197 21.7464C254.197 21.8688 254.319 22.1136 254.441 22.2361L258.481 26.276C258.849 26.6432 259.338 26.8881 259.828 26.8881H273.05C274.029 26.8881 274.763 27.6226 274.763 28.602C274.763 29.5814 274.029 30.3159 273.05 30.3159H263.99C263.623 30.3159 263.256 30.5607 263.256 30.928C263.256 31.0504 263.378 31.2953 263.501 31.4177L267.541 35.4576C267.908 35.8249 268.398 36.0697 268.887 36.0697H273.05C278.314 36.0697 282.476 30.3159 279.415 24.6845Z" fill="#EB4628"/>
<defs>
<clipPath id="clip0_202_3129">
<rect width="88.7789" height="34.5036" fill="white" transform="translate(132.468 11.3501)"/>
</clipPath>
</defs>
</svg>
