<svg xmlns="http://www.w3.org/2000/svg" xmlns:xlink="http://www.w3.org/1999/xlink" viewBox="0 0 2141.39 1311.95"><defs><style>.cls-1,.cls-12,.cls-13,.cls-15,.cls-2,.cls-4,.cls-5,.cls-6,.cls-7,.cls-8,.cls-9{fill:none;}.cls-12,.cls-13,.cls-15,.cls-2,.cls-4,.cls-5,.cls-6,.cls-7,.cls-8,.cls-9{stroke:#ccc;}.cls-12,.cls-13,.cls-15,.cls-2,.cls-4,.cls-5,.cls-7,.cls-9{stroke-linejoin:round;}.cls-15,.cls-2,.cls-4,.cls-6{stroke-width:8px;}.cls-3{opacity:0.3;}.cls-13,.cls-4{stroke-linecap:round;}.cls-5{stroke-width:6px;}.cls-6,.cls-8{stroke-miterlimit:10;}.cls-7{stroke-width:7.12px;}.cls-13,.cls-8,.cls-9{stroke-width:4px;}.cls-10{clip-path:url(#clip-path);}.cls-11{clip-path:url(#clip-path-2);}.cls-12{stroke-width:3px;}.cls-14{clip-path:url(#clip-path-3);}.cls-15{stroke-dasharray:12;}</style><clipPath id="clip-path"><rect class="cls-1" x="1249.45" y="923.67" width="527.82" height="51.53"/></clipPath><clipPath id="clip-path-2"><rect class="cls-2" x="1585.4" y="502.95" width="55.21" height="89.69"/></clipPath><clipPath id="clip-path-3"><polygon class="cls-1" points="845.15 1147.71 565.15 1147.71 605.15 1249.7 805.15 1249.7 845.15 1147.71"/></clipPath></defs><title>partners-section-illustration</title><g id="Layer_2" data-name="Layer 2"><g id="Layer_1-2" data-name="Layer 1"><g class="cls-3"><line class="cls-4" x1="1777.27" y1="1180.39" x2="1859.93" y2="1180.39"/><line class="cls-2" x1="1777.27" y1="1133.98" x2="1777.27" y2="1283.05"/><line class="cls-5" x1="1822.24" y1="232.22" x2="1822.24" y2="371.11"/><polygon class="cls-5" points="1822.24 177.47 1831.14 204.84 1859.92 204.84 1836.63 221.76 1845.53 249.14 1822.24 232.22 1798.96 249.14 1807.85 221.76 1784.57 204.84 1813.35 204.84 1822.24 177.47"/><polyline class="cls-2" points="1416.49 344.35 1416.49 598.71 1231.92 598.71"/><line class="cls-2" x1="1472.66" y1="430.26" x2="1472.66" y2="530.02"/><line class="cls-2" x1="1360.32" y1="430.26" x2="1360.32" y2="556.22"/><path class="cls-2" d="M1444.58,402.25V657H1336.31a51.17,51.17,0,0,0-51.17,51.17V817.63"/><line class="cls-2" x1="1388.41" y1="402.25" x2="1388.41" y2="582.43"/><line class="cls-6" x1="171.6" y1="1124.71" x2="171.6" y2="929.28"/><line class="cls-6" x1="120.49" y1="1124.71" x2="120.49" y2="957.74"/><line class="cls-6" x1="146.04" y1="1124.71" x2="146.04" y2="957.03"/><line class="cls-6" x1="93.94" y1="1124.71" x2="93.94" y2="929.28"/><path class="cls-2" d="M132.77,907.47c1.49-9.28,10.77-19.74,22.72-19.74s20.27,11.37,20.27,23.93c0,23.8-21.49,41-43,54.17-21.49-13.16-43-30.37-43-54.17,0-12.56,8.33-23.93,20.28-23.93S131.28,898.19,132.77,907.47Z"/><line class="cls-2" x1="770.78" y1="295.25" x2="715.7" y2="240.17"/><polygon class="cls-2" points="662.32 186.78 697.68 204.81 725.75 176.74 719.54 215.94 754.9 233.96 715.7 240.17 709.49 279.37 691.47 244.01 652.27 250.22 680.34 222.15 662.32 186.78"/><rect class="cls-2" x="1946.49" y="592.3" width="18.54" height="77.56"/><circle class="cls-2" cx="1955.76" cy="525.59" r="67.35"/><line class="cls-2" x1="1955.76" y1="592.94" x2="1955.76" y2="458.25"/><line class="cls-2" x1="1955.76" y1="501.17" x2="2004.21" y2="478.83"/><line class="cls-2" x1="1955.76" y1="539.55" x2="2019.43" y2="510.19"/><line class="cls-2" x1="1955.76" y1="570.95" x2="2019.5" y2="541.56"/><line class="cls-2" x1="1955.76" y1="501.17" x2="1907.3" y2="478.83"/><line class="cls-2" x1="1955.76" y1="539.55" x2="1892.08" y2="510.19"/><line class="cls-2" x1="1955.76" y1="570.95" x2="1892.01" y2="541.56"/><line class="cls-2" x1="1249.45" y1="1133.98" x2="1113.98" y2="1133.98"/><polygon class="cls-2" points="1777.27 1180.39 1727.65 1131.77 1727.65 975.2 1777.27 975.2 1777.27 1180.39"/><line class="cls-2" x1="1249.45" y1="1133.98" x2="1249.45" y2="1282.05"/><line class="cls-2" x1="1299.08" y1="1133.98" x2="1299.08" y2="1282.05"/><rect class="cls-2" x="326.15" y="1140.53" width="17.58" height="51.96" transform="translate(-253.07 2228.19) rotate(-135)"/><rect class="cls-2" x="278.39" y="1139.31" width="17.58" height="48.58" rx="3.79" ry="3.79"/><rect class="cls-2" x="242.75" y="1187.27" width="17.58" height="54.45"/><rect class="cls-2" x="357.97" y="1170.31" width="17.58" height="17.58" transform="translate(-812.34 1545.86) rotate(-90)"/><rect class="cls-2" x="225.17" y="1135.77" width="17.58" height="52.74" transform="translate(-928.18 1396.1) rotate(-90)"/><rect class="cls-2" x="318.18" y="1165.68" width="17.58" height="97.16" transform="translate(-887.29 1541.24) rotate(-90)"/><rect class="cls-2" x="242.75" y="1118.19" width="17.58" height="17.58" rx="3.79" ry="3.79"/><rect class="cls-2" x="207.58" y="1205.7" width="17.58" height="17.58" rx="3.79" ry="3.79"/><rect class="cls-2" x="295.98" y="1118.19" width="17.58" height="45.42" rx="3.79" ry="3.79"/><line class="cls-6" x1="930.8" y1="185.18" x2="1229.8" y2="185.18"/><line class="cls-6" x1="930.8" y1="134.07" x2="1335.14" y2="134.07"/><line class="cls-6" x1="930.8" y1="159.62" x2="1249.01" y2="159.62"/><line class="cls-6" x1="930.8" y1="107.52" x2="1416.49" y2="107.52"/><line class="cls-2" x1="222.78" y1="1122.74" y2="1122.74"/><polyline class="cls-2" points="524.14 883.77 417.41 991.18 417.41 1122.74 334.94 1122.74"/><line class="cls-4" x1="2031.1" y1="1090.08" x2="1826.89" y2="1090.08"/><line class="cls-4" x1="2048.35" y1="1064.52" x2="1826.89" y2="1064.52"/><path class="cls-6" d="M2077.67,1039h-178a38.73,38.73,0,0,1-38.73-38.73V1000"/><path class="cls-4" d="M2014.45,1116.62h-122.4a31.13,31.13,0,0,0-31.12,31.12v135.31"/><path class="cls-4" d="M1987.63,1149.82H1925a24.14,24.14,0,0,0-24.14,24.14v108.09"/><path class="cls-6" d="M1868.25,739.82h55.63v-70h80.57l73.22,73.23v363.54a74.16,74.16,0,0,1-73.22,74.16H1962a23.86,23.86,0,0,0-23.86,23.86v77.4"/><line class="cls-6" x1="1860.93" y1="1000.24" x2="1860.93" y2="975.2"/><rect class="cls-2" x="870.95" y="884.09" width="18.54" height="77.56"/><circle class="cls-7" cx="880.22" cy="817.38" r="67.35"/><line class="cls-7" x1="880.22" y1="884.73" x2="880.22" y2="750.04"/><line class="cls-7" x1="880.22" y1="792.96" x2="928.68" y2="770.61"/><line class="cls-7" x1="880.22" y1="831.34" x2="943.9" y2="801.98"/><line class="cls-7" x1="880.22" y1="862.74" x2="943.97" y2="833.35"/><line class="cls-7" x1="880.22" y1="792.96" x2="831.77" y2="770.61"/><line class="cls-7" x1="880.22" y1="831.34" x2="816.54" y2="801.98"/><line class="cls-7" x1="880.22" y1="862.74" x2="816.48" y2="833.35"/><path class="cls-2" d="M1822.11,488.94v39.91a24,24,0,0,1-24,24H1701.4a24,24,0,0,0-24,24V811.3a24,24,0,0,1-24,24H1230.19a56.77,56.77,0,0,0-56.76,56.77v182.45A59.45,59.45,0,0,1,1114,1134h-8.63"/><line class="cls-2" x1="552.96" y1="1133.97" x2="1083.3" y2="1133.97"/><path class="cls-2" d="M526.55,1118.13h10.57a15.85,15.85,0,0,1,0,31.69H526.55Z"/><line class="cls-2" x1="526.55" y1="1118.13" x2="477.96" y2="1118.13"/><line class="cls-2" x1="526.55" y1="1133.98" x2="477.96" y2="1133.98"/><line class="cls-2" x1="526.55" y1="1149.82" x2="477.96" y2="1149.82"/><line class="cls-2" x1="661.45" y1="1078.07" x2="1074.3" y2="1078.07"/><ellipse class="cls-2" cx="623.95" cy="1078.07" rx="37.5" ry="22.51"/><path class="cls-8" d="M643.2,1070.66a7.54,7.54,0,0,1,0,15.08"/><path class="cls-2" d="M879.3,842.64h0a11.09,11.09,0,0,1,11.09,11.09v335.35a22.18,22.18,0,0,1-22.18,22.18h0a0,0,0,0,1,0,0V853.73a11.09,11.09,0,0,1,11.09-11.09Z" transform="translate(1906.25 147.66) rotate(90)"/><line class="cls-2" x1="800.68" y1="1015.87" x2="800.68" y2="1038.05"/><rect class="cls-2" x="1299.08" y="975.2" width="49.62" height="205.19"/><line class="cls-9" x1="1299.08" y1="975.2" x2="1348.7" y2="1024.82"/><line class="cls-9" x1="1299.08" y1="1070.82" x2="1348.7" y2="1120.44"/><line class="cls-9" x1="1299.08" y1="1120.44" x2="1348.7" y2="1170.06"/><line class="cls-9" x1="1299.08" y1="1023.01" x2="1348.7" y2="1072.63"/><g class="cls-10"><line class="cls-9" x1="1514.13" y1="551.19" x2="1163.8" y2="901.52"/><line class="cls-9" x1="1542.84" y1="579.9" x2="1192.51" y2="930.23"/><line class="cls-9" x1="1571.55" y1="608.61" x2="1221.22" y2="958.94"/><line class="cls-9" x1="1600.26" y1="637.32" x2="1249.93" y2="987.65"/><line class="cls-9" x1="1628.97" y1="666.03" x2="1278.64" y2="1016.36"/><line class="cls-9" x1="1657.68" y1="694.74" x2="1307.35" y2="1045.07"/><line class="cls-9" x1="1686.39" y1="723.44" x2="1336.06" y2="1073.78"/><line class="cls-9" x1="1715.1" y1="752.15" x2="1364.77" y2="1102.49"/><line class="cls-9" x1="1743.81" y1="780.86" x2="1393.48" y2="1131.19"/><line class="cls-9" x1="1772.52" y1="809.57" x2="1422.18" y2="1159.9"/><line class="cls-9" x1="1801.23" y1="838.28" x2="1450.89" y2="1188.61"/><line class="cls-9" x1="1829.93" y1="866.99" x2="1479.6" y2="1217.32"/><line class="cls-9" x1="1858.64" y1="895.7" x2="1508.31" y2="1246.03"/><line class="cls-9" x1="1887.35" y1="924.41" x2="1537.02" y2="1274.74"/></g><path class="cls-6" d="M926.73,552.85H695.63a46.5,46.5,0,0,1-46.5-46.5h0a46.5,46.5,0,0,1,46.5-46.51h64.81a27.49,27.49,0,0,1,27.49,27.49v47.85"/><ellipse class="cls-6" cx="964.23" cy="552.85" rx="37.5" ry="22.51"/><path class="cls-8" d="M945,545.44a7.54,7.54,0,0,0,0,15.08"/><rect class="cls-2" x="979.41" y="287.27" width="18.55" height="54.83" transform="translate(1465.28 1236.31) rotate(-135)"/><rect class="cls-2" x="785.06" y="280.28" width="18.55" height="102.52" transform="translate(-1.78 658.79) rotate(-45)"/><rect class="cls-2" x="854.3" y="285.99" width="18.55" height="108.06"/><rect class="cls-2" x="929.02" y="285.99" width="18.55" height="51.26" rx="4" ry="4"/><rect class="cls-2" x="833.55" y="228.79" width="18.55" height="51.26" rx="4" ry="4" transform="translate(1097.24 -588.4) rotate(90)"/><rect class="cls-2" x="891.4" y="336.59" width="18.55" height="57.46"/><rect class="cls-2" x="779.72" y="355.8" width="18.55" height="18.55" rx="4" ry="4" transform="translate(423.92 1154.08) rotate(-90)"/><rect class="cls-2" x="705.15" y="355.8" width="18.55" height="18.55" rx="4" ry="4" transform="translate(349.35 1079.51) rotate(-90)"/><rect class="cls-2" x="1012.99" y="318.7" width="18.55" height="18.55" transform="translate(694.29 1350.24) rotate(-90)"/><rect class="cls-2" x="891.4" y="300.8" width="18.55" height="18.55" transform="translate(590.6 1210.75) rotate(-90)"/><rect class="cls-2" x="971" y="313.82" width="18.55" height="102.52" transform="translate(615.2 1345.36) rotate(-90)"/><rect class="cls-2" x="742.26" y="324.24" width="18.55" height="51.26"/><rect class="cls-2" x="817.19" y="285.33" width="18.55" height="51.26"/><rect class="cls-2" x="891.4" y="263.69" width="18.55" height="18.55" rx="4" ry="4"/><rect class="cls-2" x="947.57" y="263.69" width="18.55" height="47.92" rx="4" ry="4"/><rect class="cls-2" x="798.64" y="263.69" width="18.55" height="18.55" rx="4" ry="4"/><rect class="cls-2" x="714.43" y="314.96" width="18.55" height="18.55" transform="translate(441.24 -416.77) rotate(45)"/><polygon class="cls-2" points="1008.35 394.05 728.35 394.05 768.35 486.04 968.35 486.04 1008.35 394.05"/><line class="cls-2" x1="738.03" y1="416.32" x2="998.67" y2="416.32"/><line class="cls-9" x1="990.35" y1="430.2" x2="965.35" y2="430.2"/><line class="cls-9" x1="984.8" y1="448.2" x2="945.35" y2="448.2"/><line class="cls-9" x1="986.68" y1="439.2" x2="955.35" y2="439.2"/><line class="cls-9" x1="976.98" y1="466.2" x2="925.35" y2="466.2"/><line class="cls-9" x1="980.89" y1="457.2" x2="935.35" y2="457.2"/><line class="cls-9" x1="973.06" y1="475.2" x2="915.35" y2="475.2"/><rect class="cls-2" x="1347.55" y="708.83" width="18.55" height="54.83" transform="translate(-123.2 1175.06) rotate(-45)"/><rect class="cls-2" x="1541.89" y="701.85" width="18.55" height="102.52" transform="translate(2115.48 2382.48) rotate(-135)"/><rect class="cls-2" x="1472.66" y="707.55" width="18.55" height="108.06" transform="translate(2963.87 1523.16) rotate(180)"/><rect class="cls-2" x="1397.94" y="707.55" width="18.55" height="51.26" rx="4" ry="4" transform="translate(2814.43 1466.36) rotate(180)"/><rect class="cls-2" x="1493.41" y="650.35" width="18.55" height="51.26" rx="4" ry="4" transform="translate(2178.67 -826.71) rotate(90)"/><rect class="cls-2" x="1435.56" y="758.16" width="18.55" height="57.46" transform="translate(2889.66 1573.77) rotate(180)"/><rect class="cls-2" x="1547.23" y="777.36" width="18.55" height="18.55" rx="4" ry="4" transform="translate(769.87 2343.15) rotate(-90)"/><rect class="cls-2" x="1621.8" y="777.36" width="18.55" height="18.55" rx="4" ry="4" transform="translate(844.44 2417.72) rotate(-90)"/><rect class="cls-2" x="1313.97" y="740.26" width="18.55" height="18.55" transform="translate(573.71 2072.78) rotate(-90)"/><rect class="cls-2" x="1435.56" y="722.36" width="18.55" height="18.55" transform="translate(713.19 2176.47) rotate(-90)"/><rect class="cls-2" x="1355.95" y="735.38" width="18.55" height="102.52" transform="translate(578.59 2151.87) rotate(-90)"/><rect class="cls-2" x="1584.7" y="745.8" width="18.55" height="51.26" transform="translate(3187.95 1542.86) rotate(180)"/><rect class="cls-2" x="1509.77" y="706.89" width="18.55" height="51.26" transform="translate(3038.08 1465.05) rotate(180)"/><rect class="cls-2" x="1435.56" y="685.26" width="18.55" height="18.55" rx="4" ry="4" transform="translate(2889.66 1389.07) rotate(180)"/><rect class="cls-2" x="1379.39" y="685.26" width="18.55" height="47.92" rx="4" ry="4" transform="translate(2777.33 1418.44) rotate(180)"/><rect class="cls-2" x="1528.32" y="685.26" width="18.55" height="18.55" rx="4" ry="4" transform="translate(3075.19 1389.07) rotate(180)"/><rect class="cls-2" x="1612.53" y="736.52" width="18.55" height="18.55" transform="translate(3295.95 126.37) rotate(135)"/><rect class="cls-2" x="1834.84" y="616.67" width="17.58" height="51.96" transform="translate(2692.85 2400.7) rotate(-135)"/><rect class="cls-2" x="1787.08" y="615.45" width="17.58" height="48.58" rx="3.79" ry="3.79"/><rect class="cls-2" x="1751.43" y="663.41" width="17.58" height="54.45"/><rect class="cls-2" x="1866.66" y="646.45" width="17.58" height="17.58" transform="translate(1220.21 2530.69) rotate(-90)"/><rect class="cls-2" x="1733.85" y="611.91" width="17.58" height="52.74" transform="translate(1104.36 2380.92) rotate(-90)"/><rect class="cls-2" x="1826.87" y="641.82" width="17.58" height="97.16" transform="translate(1145.26 2526.06) rotate(-90)"/><rect class="cls-2" x="1751.43" y="594.32" width="17.58" height="17.58" rx="3.79" ry="3.79"/><rect class="cls-2" x="1716.27" y="681.84" width="17.58" height="17.58" rx="3.79" ry="3.79"/><rect class="cls-2" x="1804.66" y="594.32" width="17.58" height="45.42" rx="3.79" ry="3.79"/><path class="cls-2" d="M1867.72,848.05v10.52a29.86,29.86,0,0,1-29.85,29.86h-75.23a29.85,29.85,0,0,1-29.85-29.86V717.86h134.93v46.57"/><rect class="cls-2" x="1732.79" y="717.86" width="135.47" height="22.74"/><line class="cls-4" x1="1094.08" y1="580.22" x2="1094.08" y2="396.23"/><path class="cls-4" d="M1078.24,369.82v10.57a15.85,15.85,0,0,0,31.69,0V369.82Z"/><line class="cls-4" x1="1078.24" y1="369.82" x2="1078.24" y2="321.22"/><line class="cls-4" x1="1094.09" y1="369.82" x2="1094.09" y2="321.22"/><line class="cls-4" x1="1109.93" y1="369.82" x2="1109.93" y2="321.22"/><path class="cls-6" d="M1137.62,249.85h0A22.18,22.18,0,0,1,1159.81,272V484.38a11.09,11.09,0,0,1-11.09,11.09h0a11.09,11.09,0,0,1-11.09-11.09V249.85a0,0,0,0,1,0,0Z"/><line class="cls-6" x1="1137.62" y1="425.55" x2="1159.81" y2="425.55"/><rect class="cls-2" x="1249.45" y="923.67" width="527.82" height="51.53"/><polygon class="cls-2" points="1299.08 1180.39 1249.45 1133.97 1249.45 975.2 1299.08 975.2 1299.08 1180.39"/><rect class="cls-2" x="1777.27" y="975.2" width="49.62" height="205.19"/><line class="cls-9" x1="1826.89" y1="975.2" x2="1777.27" y2="1024.82"/><line class="cls-9" x1="1826.89" y1="1070.82" x2="1777.27" y2="1120.44"/><line class="cls-9" x1="1826.89" y1="1120.44" x2="1777.27" y2="1170.06"/><line class="cls-9" x1="1826.89" y1="1023.01" x2="1777.27" y2="1072.63"/><rect class="cls-2" x="1777.27" y="924.15" width="275" height="51.05" transform="translate(3829.54 1899.35) rotate(180)"/><rect class="cls-2" x="1780.06" y="388.68" width="84.09" height="84.09" transform="translate(838.25 -1162.27) rotate(45)"/><path class="cls-2" d="M1881.73,329.06h0a42,42,0,0,1,42,42v42a0,0,0,0,1,0,0h-84.09a0,0,0,0,1,0,0v-42a42,42,0,0,1,42-42Z" transform="translate(813.56 -1221.89) rotate(45)"/><path class="cls-2" d="M1720.76,329.06h84.09a0,0,0,0,1,0,0v42a42,42,0,0,1-42,42h0a42,42,0,0,1-42-42v-42A0,0,0,0,1,1720.76,329.06Z" transform="translate(3271.72 -612.97) rotate(135)"/><path class="cls-2" d="M550.1,873h0a36.71,36.71,0,0,1,36.71,36.71v36.71a0,0,0,0,1,0,0H513.38a0,0,0,0,1,0,0V909.73A36.71,36.71,0,0,1,550.1,873Z" transform="translate(-482.16 655.43) rotate(-45)"/><path class="cls-2" d="M513.38,976.86h73.43a0,0,0,0,1,0,0v36.71a36.71,36.71,0,0,1-36.71,36.71h0a36.71,36.71,0,0,1-36.71-36.71V976.86A0,0,0,0,1,513.38,976.86Z" transform="translate(877.82 -92.11) rotate(45)"/><rect class="cls-2" x="565.44" y="925.08" width="73.43" height="73.43" transform="translate(-503.72 707.49) rotate(-45)"/><path class="cls-2" d="M1502.69,561V366.26a24,24,0,0,0-24-24H1356.52a24,24,0,0,0-24,24v166a24,24,0,0,1-24,24H1118.08a24,24,0,0,0-24,24v702.4"/><path class="cls-2" d="M1518.53,587.35V576.79a15.85,15.85,0,0,0-31.69,0v10.56Z"/><line class="cls-2" x1="1518.53" y1="587.35" x2="1518.53" y2="635.95"/><line class="cls-2" x1="1502.69" y1="587.35" x2="1502.69" y2="635.95"/><line class="cls-2" x1="1486.84" y1="587.35" x2="1486.84" y2="635.95"/><g class="cls-11"><circle class="cls-12" cx="1553.89" cy="517.16" r="3.63"/><circle class="cls-12" cx="1593.25" cy="517.16" r="3.63"/><circle class="cls-12" cx="1563.73" cy="536.84" r="3.63"/><circle class="cls-12" cx="1603.09" cy="536.84" r="3.63"/><circle class="cls-12" cx="1583.41" cy="536.84" r="3.63"/><circle class="cls-12" cx="1573.57" cy="517.16" r="3.63"/><circle class="cls-12" cx="1553.89" cy="595.88" r="3.63"/><circle class="cls-12" cx="1593.25" cy="595.88" r="3.63"/><circle class="cls-12" cx="1563.73" cy="576.2" r="3.63"/><circle class="cls-12" cx="1603.09" cy="576.2" r="3.63"/><circle class="cls-12" cx="1583.41" cy="576.2" r="3.63"/><circle class="cls-12" cx="1573.57" cy="595.88" r="3.63"/><circle class="cls-12" cx="1553.89" cy="556.52" r="3.63"/><circle class="cls-12" cx="1593.25" cy="556.52" r="3.63"/><circle class="cls-12" cx="1573.57" cy="556.52" r="3.63"/><circle class="cls-12" cx="1652.29" cy="517.16" r="3.63"/><circle class="cls-12" cx="1612.93" cy="517.16" r="3.63"/><circle class="cls-12" cx="1642.45" cy="536.84" r="3.63"/><circle class="cls-12" cx="1622.77" cy="536.84" r="3.63"/><circle class="cls-12" cx="1632.61" cy="517.16" r="3.63"/><circle class="cls-12" cx="1652.29" cy="595.88" r="3.63"/><circle class="cls-12" cx="1612.93" cy="595.88" r="3.63"/><circle class="cls-12" cx="1642.45" cy="576.2" r="3.63"/><circle class="cls-12" cx="1622.77" cy="576.2" r="3.63"/><circle class="cls-12" cx="1632.61" cy="595.88" r="3.63"/><circle class="cls-12" cx="1652.29" cy="556.52" r="3.63"/><circle class="cls-12" cx="1612.93" cy="556.52" r="3.63"/><circle class="cls-12" cx="1632.61" cy="556.52" r="3.63"/><circle class="cls-12" cx="1662.13" cy="536.84" r="3.63"/><circle class="cls-12" cx="1662.13" cy="576.2" r="3.63"/></g><rect class="cls-2" x="1585.4" y="502.95" width="55.21" height="89.69"/><path class="cls-2" d="M1573.4,467.78l12-92.88h26.77l12,92.89a39.7,39.7,0,0,1,16.13,32V631h-83.14V499.77A39.71,39.71,0,0,1,1573.4,467.78Z"/><rect class="cls-2" x="1585.4" y="502.95" width="55.21" height="89.69"/><path class="cls-2" d="M1580.82,350.69a9,9,0,0,0,18,0"/><path class="cls-2" d="M1598.83,350.69a9,9,0,0,0,18,0"/><line class="cls-4" x1="1584.66" y1="332.65" x2="1613.01" y2="332.65"/><line class="cls-2" x1="1416.49" y1="342.26" x2="1416.49" y2="165.27"/><rect class="cls-4" x="1276.57" y="164.27" width="139.92" height="41.74"/><polyline class="cls-4" points="1276.57 185.14 1195.22 185.14 1224.87 206.01 1195.22 226.88 1335.14 226.88 1335.14 208.71"/><polyline class="cls-2" points="907.49 101.84 818.47 101.84 818.47 190.86 907.49 190.86 907.49 135.1"/><rect class="cls-2" x="819.84" y="138.78" width="59.82" height="23.52" transform="translate(355.34 -556.77) rotate(45)"/><rect class="cls-2" x="841.52" y="129.16" width="87.03" height="23.52" transform="translate(1610.5 -385.24) rotate(135)"/><polyline class="cls-2" points="1678.49 1015.54 1561.88 1015.54 1561.88 1132.15 1678.49 1132.15 1678.49 1059.11"/><rect class="cls-4" x="1563.68" y="1063.93" width="78.36" height="30.81" transform="translate(1232.67 -817.26) rotate(45)"/><rect class="cls-4" x="1592.08" y="1051.33" width="114" height="30.81" transform="translate(3569.45 654.96) rotate(135)"/><path class="cls-2" d="M1493.23,237.09a22.78,22.78,0,1,0,0,45.56H1582a22.78,22.78,0,0,0,0-45.56q-.9,0-1.77.06a29.55,29.55,0,0,0,.22-3.55,28.1,28.1,0,0,0-51.62-15.38,22.78,22.78,0,0,0-35.56,18.87Z"/><line class="cls-2" x1="654.08" y1="961.79" x2="705.15" y2="961.79"/><circle class="cls-12" cx="686.14" cy="842.83" r="5.48"/><circle class="cls-12" cx="686.14" cy="902.24" r="5.48"/><circle class="cls-12" cx="686.14" cy="872.53" r="5.48"/><circle class="cls-12" cx="597.02" cy="827.98" r="5.48"/><circle class="cls-12" cx="626.73" cy="842.83" r="5.48"/><circle class="cls-12" cx="626.73" cy="872.53" r="5.48"/><circle class="cls-12" cx="597.02" cy="857.68" r="5.48"/><circle class="cls-12" cx="656.44" cy="827.98" r="5.48"/><circle class="cls-12" cx="656.44" cy="887.39" r="5.48"/><circle class="cls-12" cx="656.44" cy="857.68" r="5.48"/><path class="cls-2" d="M581.78,750.1a28.92,28.92,0,1,0,0,57.84H694.42a28.92,28.92,0,1,0,0-57.84c-.76,0-1.52,0-2.26.08a35.08,35.08,0,0,0,.28-4.5,35.66,35.66,0,0,0-65.51-19.52,28.92,28.92,0,0,0-45.15,23.94Z"/><rect class="cls-2" x="1133.75" y="598.71" width="58.33" height="58.33"/><rect class="cls-2" x="1192.08" y="598.71" width="58.33" height="58.33"/><rect class="cls-2" x="1133.75" y="657.03" width="58.33" height="58.33"/><line class="cls-2" x1="1133.75" y1="598.71" x2="1192.08" y2="657.03"/><line class="cls-2" x1="1192.08" y1="598.71" x2="1133.75" y2="657.03"/><rect class="cls-2" x="1192.08" y="657.03" width="58.33" height="58.33"/><line class="cls-2" x1="1192.08" y1="657.03" x2="1250.41" y2="715.36"/><line class="cls-2" x1="1250.41" y1="657.03" x2="1192.08" y2="715.36"/><line class="cls-2" x1="1133.75" y1="742.54" x2="1250.41" y2="742.54"/><line class="cls-7" x1="1133.75" y1="769.71" x2="1250.41" y2="769.71"/><line class="cls-2" x1="1133.75" y1="792.83" x2="1250.41" y2="792.83"/><path class="cls-4" d="M1355.27,319.69a99.21,99.21,0,1,0-47.12,174.87"/><circle class="cls-13" cx="1233.88" cy="423.46" r="18.52"/><circle class="cls-13" cx="1279.25" cy="382.36" r="26.85"/><path class="cls-13" d="M1303.23,485.61a26.85,26.85,0,1,0-52.81-9.72"/><circle class="cls-13" cx="1257.32" cy="334.99" r="9.26"/><path class="cls-2" d="M1835.38,795.43c1.49-9.28,10.77-19.74,22.71-19.74s20.28,11.37,20.28,23.93c0,23.8-21.49,41-43,54.17-21.5-13.16-43-30.37-43-54.17,0-12.56,8.33-23.93,20.27-23.93S1833.89,786.15,1835.38,795.43Z"/><line class="cls-2" x1="1454.11" y1="1085.74" x2="1454.11" y2="1284.05"/><path class="cls-2" d="M1484.94,1086.41v64.53a29.44,29.44,0,0,0,29.45,29.45h81.48a29.46,29.46,0,0,1,29.45,29.45v72.78"/><path class="cls-2" d="M1498.48,1040.84a22.79,22.79,0,0,1,0,45.57h-88.74a22.79,22.79,0,0,1,0-45.57c.59,0,1.19,0,1.77.07a29.81,29.81,0,0,1-.22-3.55A28.1,28.1,0,0,1,1462.9,1022a22.8,22.8,0,0,1,35.58,18.86Z"/><line class="cls-2" x1="1299.08" y1="1180.39" x2="1422.35" y2="1180.39"/><line class="cls-2" x1="1422.35" y1="1085.74" x2="1422.35" y2="1284.05"/><line class="cls-4" x1="1360.32" y1="416.32" x2="1360.32" y2="374.35"/><line class="cls-4" x1="1388.41" y1="389.62" x2="1388.41" y2="374.35"/><line class="cls-4" x1="1472.66" y1="416.32" x2="1472.66" y2="374.35"/><line class="cls-4" x1="1444.58" y1="389.62" x2="1444.58" y2="374.35"/><line class="cls-4" x1="1416.49" y1="627.87" x2="1280.15" y2="627.87"/><path class="cls-6" d="M787.93,569.45v32.36a27.67,27.67,0,0,0,27.67,27.68h36.95a27.67,27.67,0,0,1,27.67,27.67v21.39a27.68,27.68,0,0,0,27.68,27.68h21.27a27.68,27.68,0,0,1,27.68,27.68h0a27.67,27.67,0,0,0,27.67,27.67h4.17"/><line class="cls-2" x1="1042.94" y1="706.23" x2="1042.94" y2="496.37"/><circle class="cls-2" cx="1042.94" cy="486.04" r="10.32"/><circle class="cls-6" cx="1435.56" cy="106.93" r="18.55"/><circle class="cls-2" cx="1491.21" cy="106.93" r="18.55"/><circle class="cls-2" cx="1546.87" cy="106.93" r="18.55"/><circle class="cls-6" cx="1135.3" cy="840.29" r="16.23"/><circle class="cls-2" cx="1135.3" cy="888.99" r="16.23"/><circle class="cls-2" cx="1135.3" cy="937.69" r="16.23"/><path class="cls-2" d="M1135.3,953.92v72.44a33.73,33.73,0,0,1-9.88,23.86l-28.94,28.94"/><line class="cls-4" x1="1066.61" y1="731.57" x2="1025.27" y2="731.57"/><line class="cls-4" x1="1066.61" y1="754.58" x2="1025.27" y2="754.58"/><line class="cls-4" x1="1066.61" y1="777.6" x2="1025.27" y2="777.6"/><line class="cls-4" x1="1066.61" y1="800.61" x2="1025.27" y2="800.61"/><line class="cls-4" x1="1066.61" y1="823.62" x2="1025.27" y2="823.62"/><line class="cls-4" x1="1066.61" y1="846.64" x2="1025.27" y2="846.64"/><line class="cls-4" x1="1066.61" y1="869.65" x2="1025.27" y2="869.65"/><line class="cls-4" x1="1066.61" y1="892.67" x2="1025.27" y2="892.67"/><line class="cls-4" x1="1066.61" y1="915.68" x2="1025.27" y2="915.68"/><line class="cls-4" x1="1045.94" y1="934.87" x2="1045.94" y2="987.72"/><line class="cls-4" x1="1025.27" y1="934.87" x2="1025.27" y2="987.72"/><line class="cls-4" x1="1066.61" y1="934.87" x2="1066.61" y2="987.72"/><rect class="cls-4" x="1649.08" y="73.33" width="49.87" height="49.87" rx="5.32" ry="5.32"/><rect class="cls-4" x="1698.95" y="120.9" width="28.97" height="28.97" rx="3.09" ry="3.09"/><rect class="cls-4" x="1652.93" y="222.31" width="28.97" height="28.97" rx="3.09" ry="3.09" transform="translate(3013.9 -774.81) rotate(135)"/><line class="cls-4" x1="1667.42" y1="218.49" x2="1667.42" y2="123.2"/><rect class="cls-2" x="1609.57" y="154.8" width="28.97" height="28.97" rx="3.09" ry="3.09" transform="translate(3248.1 338.57) rotate(-180)"/><line class="cls-2" x1="1624.05" y1="150.99" x2="1624.05" y2="75.24"/><path class="cls-4" d="M1727.91,149.86h25a0,0,0,0,1,0,0v81.75a12.51,12.51,0,0,1-12.51,12.51h0a12.51,12.51,0,0,1-12.51-12.51V149.86a0,0,0,0,1,0,0Z"/><path class="cls-2" d="M1649.08,4V85.75a12.52,12.52,0,1,1-25,0V53.9h-10.63a39.23,39.23,0,0,1-39.23-39.23V4h49.86V4Z"/><path class="cls-2" d="M1236.24,873.48h412.18a0,0,0,0,1,0,0v0a16.86,16.86,0,0,1-16.86,16.86H1219.38a0,0,0,0,1,0,0v0a16.86,16.86,0,0,1,16.86-16.86Z"/><g class="cls-14"><circle class="cls-13" cx="547.46" cy="1096.55" r="6.37"/><circle class="cls-13" cx="616.47" cy="1096.55" r="6.37"/><circle class="cls-13" cx="564.71" cy="1131.06" r="6.37"/><circle class="cls-13" cx="633.72" cy="1131.06" r="6.37"/><circle class="cls-13" cx="599.22" cy="1131.06" r="6.37"/><circle class="cls-13" cx="581.96" cy="1096.55" r="6.37"/><circle class="cls-13" cx="547.46" cy="1234.58" r="6.37"/><circle class="cls-13" cx="616.47" cy="1234.58" r="6.37"/><circle class="cls-13" cx="564.71" cy="1200.07" r="6.37"/><circle class="cls-13" cx="633.72" cy="1200.07" r="6.37"/><circle class="cls-13" cx="599.22" cy="1200.07" r="6.37"/><circle class="cls-13" cx="581.96" cy="1234.58" r="6.37"/><circle class="cls-13" cx="547.46" cy="1165.56" r="6.37"/><circle class="cls-13" cx="616.47" cy="1165.56" r="6.37"/><circle class="cls-13" cx="581.96" cy="1165.56" r="6.37"/><circle class="cls-13" cx="719.99" cy="1096.55" r="6.37"/><circle class="cls-13" cx="650.98" cy="1096.55" r="6.37"/><circle class="cls-13" cx="702.73" cy="1131.06" r="6.37"/><circle class="cls-13" cx="668.23" cy="1131.06" r="6.37"/><circle class="cls-13" cx="685.48" cy="1096.55" r="6.37"/><circle class="cls-13" cx="719.99" cy="1234.58" r="6.37"/><circle class="cls-13" cx="650.98" cy="1234.58" r="6.37"/><circle class="cls-13" cx="702.73" cy="1200.07" r="6.37"/><circle class="cls-13" cx="668.23" cy="1200.07" r="6.37"/><circle class="cls-13" cx="685.48" cy="1234.58" r="6.37"/><circle class="cls-13" cx="719.99" cy="1165.56" r="6.37"/><circle class="cls-13" cx="650.98" cy="1165.56" r="6.37"/><circle class="cls-13" cx="685.48" cy="1165.56" r="6.37"/><circle class="cls-13" cx="737.24" cy="1131.06" r="6.37"/><circle class="cls-13" cx="737.24" cy="1200.07" r="6.37"/><circle class="cls-13" cx="564.71" cy="1269.08" r="6.37"/><circle class="cls-13" cx="633.72" cy="1269.08" r="6.37"/><circle class="cls-13" cx="599.22" cy="1269.08" r="6.37"/><circle class="cls-13" cx="547.46" cy="1303.59" r="6.37"/><circle class="cls-13" cx="616.47" cy="1303.59" r="6.37"/><circle class="cls-13" cx="581.96" cy="1303.59" r="6.37"/><circle class="cls-13" cx="702.73" cy="1269.08" r="6.37"/><circle class="cls-13" cx="668.23" cy="1269.08" r="6.37"/><circle class="cls-13" cx="719.99" cy="1303.59" r="6.37"/><circle class="cls-13" cx="650.98" cy="1303.59" r="6.37"/><circle class="cls-13" cx="685.48" cy="1303.59" r="6.37"/><circle class="cls-13" cx="840.76" cy="1131.06" r="6.37"/><circle class="cls-13" cx="840.76" cy="1200.07" r="6.37"/><circle class="cls-13" cx="754.49" cy="1096.55" r="6.37"/><circle class="cls-13" cx="823.5" cy="1096.55" r="6.37"/><circle class="cls-13" cx="771.75" cy="1131.06" r="6.37"/><circle class="cls-13" cx="806.25" cy="1131.06" r="6.37"/><circle class="cls-13" cx="789" cy="1096.55" r="6.37"/><circle class="cls-13" cx="754.49" cy="1234.58" r="6.37"/><circle class="cls-13" cx="823.5" cy="1234.58" r="6.37"/><circle class="cls-13" cx="771.75" cy="1200.07" r="6.37"/><circle class="cls-13" cx="806.25" cy="1200.07" r="6.37"/><circle class="cls-13" cx="789" cy="1234.58" r="6.37"/><circle class="cls-13" cx="754.49" cy="1165.56" r="6.37"/><circle class="cls-13" cx="823.5" cy="1165.56" r="6.37"/><circle class="cls-13" cx="789" cy="1165.56" r="6.37"/><circle class="cls-13" cx="840.76" cy="1269.08" r="6.37"/><circle class="cls-13" cx="771.75" cy="1269.08" r="6.37"/><circle class="cls-13" cx="806.25" cy="1269.08" r="6.37"/><circle class="cls-13" cx="754.49" cy="1303.59" r="6.37"/><circle class="cls-13" cx="823.5" cy="1303.59" r="6.37"/><circle class="cls-13" cx="789" cy="1303.59" r="6.37"/><circle class="cls-13" cx="737.24" cy="1269.08" r="6.37"/></g><rect class="cls-9" x="453.7" y="1002.77" width="17.7" height="17.7"/><rect class="cls-9" x="453.7" y="1038.98" width="17.7" height="17.7"/><rect class="cls-9" x="453.7" y="1075.19" width="17.7" height="17.7"/><rect class="cls-2" x="1969.11" y="710.27" width="18.55" height="147.78" transform="translate(2762.55 -1194.22) rotate(90)"/><rect class="cls-2" x="1969.11" y="748.83" width="18.55" height="147.78" transform="translate(2801.11 -1155.66) rotate(90)"/><rect class="cls-2" x="1969.11" y="787.01" width="18.55" height="147.78" transform="translate(2839.28 -1117.49) rotate(90)"/><circle class="cls-4" cx="1667.42" cy="312.39" r="15.43"/><circle class="cls-4" cx="1667.42" cy="425.55" r="14.57"/><line class="cls-15" x1="1667.42" y1="410.97" x2="1667.42" y2="327.82"/><circle class="cls-4" cx="2026.11" cy="283.21" r="15.43"/><circle class="cls-4" cx="1912.95" cy="283.21" r="14.57"/><line class="cls-15" x1="1927.53" y1="283.21" x2="2010.68" y2="283.21"/><rect class="cls-5" x="1942.53" y="89.98" width="12.35" height="36.49" transform="translate(494.23 1409.64) rotate(-45)"/><rect class="cls-5" x="2071.86" y="85.33" width="12.35" height="68.23" transform="translate(3462.97 1673.3) rotate(-135)"/><rect class="cls-5" x="2025.79" y="89.13" width="12.35" height="71.92" transform="translate(4063.93 250.17) rotate(180)"/><rect class="cls-5" x="1976.06" y="89.13" width="12.35" height="34.11" rx="2.66" ry="2.66" transform="translate(3964.48 212.37) rotate(180)"/><rect class="cls-5" x="2039.6" y="51.06" width="12.35" height="34.11" rx="2.66" ry="2.66" transform="translate(2113.89 -1977.65) rotate(90)"/><rect class="cls-5" x="2001.1" y="122.81" width="12.35" height="38.24" transform="translate(4014.54 283.85) rotate(180)"/><rect class="cls-5" x="2075.42" y="135.59" width="12.35" height="12.35" rx="2.66" ry="2.66" transform="translate(1939.83 2223.35) rotate(-90)"/><rect class="cls-5" x="2125.05" y="135.59" width="12.35" height="12.35" rx="2.66" ry="2.66" transform="translate(1989.46 2272.98) rotate(-90)"/><rect class="cls-5" x="1920.18" y="110.9" width="12.35" height="12.35" transform="translate(1809.29 2043.42) rotate(-90)"/><rect class="cls-5" x="2001.1" y="98.99" width="12.35" height="12.35" transform="translate(1902.11 2112.43) rotate(-90)"/><rect class="cls-5" x="1948.12" y="107.65" width="12.35" height="68.23" transform="translate(1812.53 2096.06) rotate(-90)"/><rect class="cls-5" x="2100.35" y="114.58" width="12.35" height="34.11" transform="translate(4213.05 263.28) rotate(180)"/><rect class="cls-5" x="2050.48" y="88.69" width="12.35" height="34.11" transform="translate(4113.32 211.5) rotate(180)"/><rect class="cls-5" x="2001.1" y="74.29" width="12.35" height="12.35" rx="2.66" ry="2.66" transform="translate(4014.54 160.93) rotate(180)"/><rect class="cls-5" x="1963.72" y="74.29" width="12.35" height="31.89" rx="2.66" ry="2.66" transform="translate(3939.78 180.48) rotate(180)"/><rect class="cls-5" x="2062.83" y="74.29" width="12.35" height="12.35" rx="2.66" ry="2.66" transform="translate(4138.01 160.93) rotate(180)"/><rect class="cls-5" x="2118.87" y="108.41" width="12.35" height="12.35" transform="translate(3708.7 -1307.03) rotate(135)"/><polygon class="cls-2" points="1938.82 234.02 1918.82 177.16 2137.39 177.16 2117.39 234.02 1938.82 234.02"/><polygon class="cls-2" points="1956.66 234.02 1940.66 177.16 2115.55 177.16 2099.55 234.02 1956.66 234.02"/><polygon class="cls-2" points="1978.45 234.02 1967.33 177.16 2088.88 177.16 2077.76 234.02 1978.45 234.02"/><polygon class="cls-2" points="2002.23 234.02 1996.43 177.16 2059.78 177.16 2053.98 234.02 2002.23 234.02"/><circle class="cls-12" cx="180.21" cy="843.94" r="7.94"/><circle class="cls-12" cx="222.39" cy="896.76" r="7.94"/><circle class="cls-12" cx="57.27" cy="929.28" r="7.94"/><circle class="cls-12" cx="49.33" cy="860.9" r="7.94"/><circle class="cls-12" cx="57.27" cy="774.89" r="7.94"/><circle class="cls-12" cx="158.14" cy="806.42" r="7.94"/><circle class="cls-12" cx="136.41" cy="840.29" r="7.94"/><polyline class="cls-2" points="795.05 961.58 998.67 961.58 998.67 706.23 1094.08 706.23"/><path class="cls-2" d="M768.64,945.74H779.2a15.85,15.85,0,1,1,0,31.69H768.64Z"/><line class="cls-2" x1="768.64" y1="945.74" x2="720.04" y2="945.74"/><line class="cls-2" x1="768.64" y1="961.58" x2="720.04" y2="961.58"/><line class="cls-2" x1="768.64" y1="977.43" x2="720.04" y2="977.43"/><line class="cls-2" x1="1727.65" y1="1101.2" x2="1727.65" y2="1282.05"/></g></g></g></svg>