<svg xmlns="http://www.w3.org/2000/svg" viewBox="0 0 212.94 171.85"><defs><style>.cls-1{fill:#fff;}.cls-2{fill:#cf3339;}</style></defs><title>logo-saputo</title><g id="Layer_2" data-name="Layer 2"><g id="logo_saputo" data-name="logo saputo"><rect class="cls-1" width="212.94" height="171.85" rx="24.06" ry="24.06"/><path d="M20.87,33.12v3.46h-2V26.76h3.83a4.73,4.73,0,0,1,1.56.24,3.42,3.42,0,0,1,1.16.68,3,3,0,0,1,.72,1,3.27,3.27,0,0,1,.25,1.3,3.13,3.13,0,0,1-.25,1.29,2.8,2.8,0,0,1-.72,1,3.31,3.31,0,0,1-1.16.62,5,5,0,0,1-1.56.22Zm0-1.64h1.81a2.12,2.12,0,0,0,.75-.11,1.35,1.35,0,0,0,.51-.3,1.1,1.1,0,0,0,.29-.46,1.82,1.82,0,0,0,.1-.59,2.11,2.11,0,0,0-.1-.61,1.57,1.57,0,0,0-.29-.52,1.47,1.47,0,0,0-.51-.36,1.9,1.9,0,0,0-.75-.13H20.87Z"/><path d="M31.74,31.11l-.35,0H31a1.88,1.88,0,0,0-.92.19,1.2,1.2,0,0,0-.53.56v4.77H27.63v-7.3h1.85l.05.87a2.21,2.21,0,0,1,.68-.74,1.76,1.76,0,0,1,.95-.26l.32,0a1.26,1.26,0,0,1,.28.07Z"/><path d="M35.91,36.72a3.9,3.9,0,0,1-1.53-.28,3.43,3.43,0,0,1-1.14-.75,3.23,3.23,0,0,1-.71-1.13,3.72,3.72,0,0,1-.25-1.38v-.26a4.61,4.61,0,0,1,.24-1.52,3.56,3.56,0,0,1,.68-1.19,3,3,0,0,1,1.08-.78,3.77,3.77,0,0,1,2.8,0,2.65,2.65,0,0,1,1,.73,3,3,0,0,1,.61,1.13,4.83,4.83,0,0,1,.21,1.47v.83H34.26a2.23,2.23,0,0,0,.19.65,1.81,1.81,0,0,0,.37.49,1.51,1.51,0,0,0,.53.32,1.87,1.87,0,0,0,.68.12,2.47,2.47,0,0,0,1-.2,2,2,0,0,0,.78-.62l1,1.07a2.47,2.47,0,0,1-.44.49,2.59,2.59,0,0,1-.62.42,3.93,3.93,0,0,1-.8.3A4.32,4.32,0,0,1,35.91,36.72Zm-.23-6a1.2,1.2,0,0,0-.55.11,1.27,1.27,0,0,0-.42.31,1.65,1.65,0,0,0-.27.47,2.35,2.35,0,0,0-.16.62H37v-.16a1.91,1.91,0,0,0-.08-.54,1.14,1.14,0,0,0-.24-.43,1.07,1.07,0,0,0-.4-.28A1.52,1.52,0,0,0,35.68,30.73Zm.18-4.51H38l-1.86,2.09H34.53Z"/><path d="M44,34.57a.68.68,0,0,0-.06-.29.73.73,0,0,0-.23-.24,2.54,2.54,0,0,0-.46-.21,5,5,0,0,0-.75-.19,8.38,8.38,0,0,1-1-.31,3.12,3.12,0,0,1-.83-.45,2,2,0,0,1-.54-.63,1.7,1.7,0,0,1-.2-.83,2,2,0,0,1,.2-.87,2.33,2.33,0,0,1,.58-.72,2.75,2.75,0,0,1,.91-.5,3.93,3.93,0,0,1,1.23-.18,4.49,4.49,0,0,1,1.27.17,3,3,0,0,1,1,.49,2.17,2.17,0,0,1,.6.75,2.13,2.13,0,0,1,.22.94h-2a.93.93,0,0,0-.27-.69,1.17,1.17,0,0,0-.85-.27,1.15,1.15,0,0,0-.76.22.71.71,0,0,0-.27.57.51.51,0,0,0,.07.28.63.63,0,0,0,.23.23,1.83,1.83,0,0,0,.42.2,6.58,6.58,0,0,0,.64.16,8.41,8.41,0,0,1,1.1.28,3.23,3.23,0,0,1,.87.44,2,2,0,0,1,.58.64,2,2,0,0,1,0,1.82,2,2,0,0,1-.62.7,3,3,0,0,1-1,.47,4.47,4.47,0,0,1-1.26.17,3.77,3.77,0,0,1-1.36-.22,3.16,3.16,0,0,1-1-.56,2.34,2.34,0,0,1-.6-.79,2.07,2.07,0,0,1-.21-.89h1.85a1.08,1.08,0,0,0,.13.49,1,1,0,0,0,.29.34,1.33,1.33,0,0,0,.42.18,1.7,1.7,0,0,0,.51.07,1.4,1.4,0,0,0,.84-.22A.65.65,0,0,0,44,34.57Z"/><path d="M50.48,36.72A3.85,3.85,0,0,1,49,36.44a3.24,3.24,0,0,1-1.14-.75,3.41,3.41,0,0,1-.72-1.13,3.93,3.93,0,0,1-.24-1.38v-.26a4.61,4.61,0,0,1,.24-1.52,3.4,3.4,0,0,1,.68-1.19,2.88,2.88,0,0,1,1.07-.78,3.79,3.79,0,0,1,2.81,0,2.62,2.62,0,0,1,1,.73,3,3,0,0,1,.62,1.13,4.84,4.84,0,0,1,.2,1.47v.83H48.83a2.24,2.24,0,0,0,.2.65,1.63,1.63,0,0,0,.37.49,1.51,1.51,0,0,0,.53.32,1.83,1.83,0,0,0,.68.12,2.45,2.45,0,0,0,1-.2,1.94,1.94,0,0,0,.78-.62l1,1.07a2.89,2.89,0,0,1-1.06.91,3.82,3.82,0,0,1-1.79.41Zm-.22-6a1.25,1.25,0,0,0-.56.11,1.14,1.14,0,0,0-.41.31,1.67,1.67,0,0,0-.28.47,2.81,2.81,0,0,0-.15.62h2.71v-.16a2.34,2.34,0,0,0-.09-.54,1.27,1.27,0,0,0-.23-.43,1.11,1.11,0,0,0-.41-.28A1.47,1.47,0,0,0,50.26,30.73Z"/><path d="M56.39,29.28l.06.85a2.48,2.48,0,0,1,.91-.73,2.68,2.68,0,0,1,1.18-.25,3.11,3.11,0,0,1,1,.14,1.79,1.79,0,0,1,.73.48,2.29,2.29,0,0,1,.47.86,4.51,4.51,0,0,1,.16,1.31v4.64h-2V31.93a1.87,1.87,0,0,0-.07-.58A.9.9,0,0,0,58.6,31a.87.87,0,0,0-.37-.19,1.83,1.83,0,0,0-.49-.06,1.43,1.43,0,0,0-.74.19,1.47,1.47,0,0,0-.5.52v5.14h-2v-7.3Z"/><path d="M64.67,27.49v1.79h1.24v1.43H64.67v3.65a1.26,1.26,0,0,0,0,.37.57.57,0,0,0,.14.24.59.59,0,0,0,.24.11,1.51,1.51,0,0,0,.32,0h.32l.26,0v1.47c-.16.05-.34.09-.53.13a4.19,4.19,0,0,1-.65,0,3,3,0,0,1-.87-.12,1.67,1.67,0,0,1-.65-.37,1.65,1.65,0,0,1-.43-.67,3,3,0,0,1-.14-1V30.71H61.65V29.28h1.07V27.49Z"/><path d="M70.36,36.72a3.85,3.85,0,0,1-1.52-.28,3.24,3.24,0,0,1-1.14-.75A3.41,3.41,0,0,1,67,34.56a3.93,3.93,0,0,1-.24-1.38v-.26A4.61,4.61,0,0,1,67,31.4a3.4,3.4,0,0,1,.68-1.19,2.88,2.88,0,0,1,1.07-.78,3.77,3.77,0,0,1,2.8,0,2.58,2.58,0,0,1,1,.73,3,3,0,0,1,.62,1.13,5.17,5.17,0,0,1,.2,1.47v.83H68.71a2.24,2.24,0,0,0,.2.65,1.63,1.63,0,0,0,.37.49,1.42,1.42,0,0,0,.53.32,1.83,1.83,0,0,0,.68.12,2.45,2.45,0,0,0,1-.2,1.94,1.94,0,0,0,.78-.62l1,1.07a3.3,3.3,0,0,1-.44.49,2.81,2.81,0,0,1-.62.42,3.82,3.82,0,0,1-1.79.41Zm-.22-6a1.25,1.25,0,0,0-.56.11,1.14,1.14,0,0,0-.41.31,1.47,1.47,0,0,0-.28.47,3.5,3.5,0,0,0-.16.62h2.72v-.16a2.34,2.34,0,0,0-.09-.54,1.27,1.27,0,0,0-.23-.43,1.11,1.11,0,0,0-.41-.28A1.47,1.47,0,0,0,70.14,30.73Zm.17-4.51h2.13l-1.87,2.09H69Z"/><path d="M84.48,33a5.83,5.83,0,0,1-.18,1.48,4,4,0,0,1-.54,1.18,2.49,2.49,0,0,1-2.11,1.06,2.47,2.47,0,0,1-1-.2,2.41,2.41,0,0,1-.77-.57v3.44h-2V29.28h1.81l.07.72a2.22,2.22,0,0,1,1.85-.85,2.77,2.77,0,0,1,1.22.26,2.44,2.44,0,0,1,.9.76,3.94,3.94,0,0,1,.54,1.17,6,6,0,0,1,.18,1.52Zm-2-.14a4.46,4.46,0,0,0-.07-.84,2.6,2.6,0,0,0-.25-.68,1.16,1.16,0,0,0-.44-.44,1.18,1.18,0,0,0-.65-.17,1.5,1.5,0,0,0-.78.18,1.18,1.18,0,0,0-.48.53v3a1.18,1.18,0,0,0,.48.53,1.46,1.46,0,0,0,.8.2,1.23,1.23,0,0,0,.65-.17,1.27,1.27,0,0,0,.43-.46,2.34,2.34,0,0,0,.24-.69,4.43,4.43,0,0,0,.07-.83Z"/><path d="M89.92,36.58a2.09,2.09,0,0,1-.19-.65,2.54,2.54,0,0,1-.75.56,2.42,2.42,0,0,1-1.1.23,2.88,2.88,0,0,1-1-.16,2.66,2.66,0,0,1-.79-.45,2.24,2.24,0,0,1-.52-.7,2,2,0,0,1-.19-.88,2.38,2.38,0,0,1,.21-1,2.09,2.09,0,0,1,.64-.75,3,3,0,0,1,1.06-.47,5.82,5.82,0,0,1,1.47-.17h.87v-.41a1.21,1.21,0,0,0-.26-.81,1,1,0,0,0-.82-.31,1.17,1.17,0,0,0-.78.24.82.82,0,0,0-.28.65h-2a2,2,0,0,1,.22-.9,2.22,2.22,0,0,1,.63-.74,3,3,0,0,1,1-.51,4.26,4.26,0,0,1,1.28-.18,4,4,0,0,1,1.17.16,2.73,2.73,0,0,1,.93.48,2.15,2.15,0,0,1,.61.81,2.6,2.6,0,0,1,.22,1.12v3.09c0,.21,0,.39,0,.56s0,.31.06.44a1.9,1.9,0,0,0,.09.36,1.57,1.57,0,0,0,.12.3v.11Zm-1.61-1.35a1.65,1.65,0,0,0,.46-.06,1.89,1.89,0,0,0,.38-.16,1.4,1.4,0,0,0,.3-.23,1.21,1.21,0,0,0,.2-.26V33.26h-.81a2.15,2.15,0,0,0-.66.09,1.22,1.22,0,0,0-.47.23,1,1,0,0,0-.36.81.79.79,0,0,0,.26.6A1,1,0,0,0,88.31,35.23Z"/><path d="M97.2,31.11l-.34,0H96.5a2,2,0,0,0-.93.19,1.18,1.18,0,0,0-.52.56v4.77h-2v-7.3h1.84l.06.87a2.21,2.21,0,0,1,.68-.74,1.72,1.72,0,0,1,.94-.26l.33,0a1.26,1.26,0,0,1,.28.07Z"/><path d="M102.2,37.43h-1.45l3.61-10.67h1.45Z"/><path d="M116.76,33a5.41,5.41,0,0,1-.19,1.48,3.56,3.56,0,0,1-.54,1.18,2.57,2.57,0,0,1-.89.78,2.63,2.63,0,0,1-1.21.28,2.56,2.56,0,0,1-1-.2,2.37,2.37,0,0,1-.76-.57v3.44h-2V29.28H112l.06.72a2.5,2.5,0,0,1,.79-.63,2.33,2.33,0,0,1,1.06-.22,2.82,2.82,0,0,1,1.23.26,2.41,2.41,0,0,1,.89.76,3.5,3.5,0,0,1,.54,1.17,5.6,5.6,0,0,1,.19,1.52Zm-2-.14a4.44,4.44,0,0,0-.08-.84,2.28,2.28,0,0,0-.24-.68,1.24,1.24,0,0,0-.44-.44,1.21,1.21,0,0,0-.65-.17,1.57,1.57,0,0,0-.79.18,1.22,1.22,0,0,0-.47.53v3a1.22,1.22,0,0,0,.47.53,1.48,1.48,0,0,0,.8.2,1.18,1.18,0,0,0,.65-.17,1.3,1.3,0,0,0,.44-.46,2.34,2.34,0,0,0,.24-.69,5.46,5.46,0,0,0,.07-.83Z"/><path d="M122.07,31.11l-.35,0h-.35a2,2,0,0,0-.93.19,1.13,1.13,0,0,0-.52.56v4.77h-2v-7.3h1.84l0,.87a2.32,2.32,0,0,1,.68-.74,1.76,1.76,0,0,1,.95-.26l.33,0,.28.07Z"/><path d="M126.24,36.72a3.85,3.85,0,0,1-1.52-.28,3.24,3.24,0,0,1-1.14-.75,3.41,3.41,0,0,1-.72-1.13,3.93,3.93,0,0,1-.24-1.38v-.26a4.61,4.61,0,0,1,.24-1.52,3.4,3.4,0,0,1,.68-1.19,2.88,2.88,0,0,1,1.07-.78,3.77,3.77,0,0,1,2.8,0,2.65,2.65,0,0,1,1,.73,3.17,3.17,0,0,1,.62,1.13,5.17,5.17,0,0,1,.2,1.47v.83h-4.65a2.24,2.24,0,0,0,.2.65,1.63,1.63,0,0,0,.37.49,1.42,1.42,0,0,0,.53.32,1.83,1.83,0,0,0,.68.12,2.45,2.45,0,0,0,1-.2,2,2,0,0,0,.78-.62l1,1.07a3.3,3.3,0,0,1-.44.49,2.81,2.81,0,0,1-.62.42,3.82,3.82,0,0,1-1.79.41Zm-.22-6a1.25,1.25,0,0,0-.56.11,1.14,1.14,0,0,0-.41.31,1.47,1.47,0,0,0-.28.47,3.5,3.5,0,0,0-.16.62h2.72v-.16a2.34,2.34,0,0,0-.09-.54,1.27,1.27,0,0,0-.23-.43,1.11,1.11,0,0,0-.41-.28A1.47,1.47,0,0,0,126,30.73Z"/><path d="M134.3,34.57a.68.68,0,0,0-.06-.29A.64.64,0,0,0,134,34a2.25,2.25,0,0,0-.46-.21,5.2,5.2,0,0,0-.74-.19,8.55,8.55,0,0,1-1-.31,3.05,3.05,0,0,1-.82-.45,1.93,1.93,0,0,1-.55-.63,1.7,1.7,0,0,1-.19-.83,1.91,1.91,0,0,1,.2-.87,2.16,2.16,0,0,1,.57-.72,2.8,2.8,0,0,1,.92-.5,3.86,3.86,0,0,1,1.22-.18,4.56,4.56,0,0,1,1.28.17,2.89,2.89,0,0,1,1,.49,2.2,2.2,0,0,1,.61.75,2.12,2.12,0,0,1,.21.94h-2a.93.93,0,0,0-.27-.69,1.15,1.15,0,0,0-.84-.27,1.18,1.18,0,0,0-.77.22.71.71,0,0,0-.27.57.61.61,0,0,0,.07.28.72.72,0,0,0,.23.23,2.06,2.06,0,0,0,.42.2c.18.05.39.11.64.16a8,8,0,0,1,1.1.28,3,3,0,0,1,.87.44,1.86,1.86,0,0,1,.58.64,1.94,1.94,0,0,1,.21.93,1.81,1.81,0,0,1-.22.89,2,2,0,0,1-.61.7,3,3,0,0,1-1,.47,4.54,4.54,0,0,1-1.27.17,3.84,3.84,0,0,1-1.36-.22,3.16,3.16,0,0,1-1-.56,2.63,2.63,0,0,1-.6-.79,2.21,2.21,0,0,1-.2-.89h1.85a1.22,1.22,0,0,0,.12.49,1,1,0,0,0,.3.34,1.33,1.33,0,0,0,.42.18,1.63,1.63,0,0,0,.5.07,1.44,1.44,0,0,0,.85-.22A.64.64,0,0,0,134.3,34.57Z"/><path d="M140.82,36.72a3.9,3.9,0,0,1-1.53-.28,3.43,3.43,0,0,1-1.14-.75,3.23,3.23,0,0,1-.71-1.13,3.72,3.72,0,0,1-.25-1.38v-.26a4.61,4.61,0,0,1,.24-1.52,3.56,3.56,0,0,1,.68-1.19,3,3,0,0,1,1.08-.78,3.77,3.77,0,0,1,2.8,0,2.65,2.65,0,0,1,1,.73,3,3,0,0,1,.61,1.13,4.83,4.83,0,0,1,.21,1.47v.83h-4.65a2,2,0,0,0,.19.65,1.81,1.81,0,0,0,.37.49,1.51,1.51,0,0,0,.53.32,1.83,1.83,0,0,0,.68.12,2.47,2.47,0,0,0,1-.2,2,2,0,0,0,.78-.62l.95,1.07a2.47,2.47,0,0,1-.44.49,2.59,2.59,0,0,1-.62.42,3.93,3.93,0,0,1-.8.3A4.32,4.32,0,0,1,140.82,36.72Zm-.23-6a1.2,1.2,0,0,0-.55.11,1.27,1.27,0,0,0-.42.31,2,2,0,0,0-.28.47,2.81,2.81,0,0,0-.15.62h2.71v-.16a1.91,1.91,0,0,0-.08-.54,1.14,1.14,0,0,0-.24-.43,1.07,1.07,0,0,0-.4-.28A1.52,1.52,0,0,0,140.59,30.73Z"/><path d="M146.72,29.28l.06.85a2.56,2.56,0,0,1,.91-.73,2.73,2.73,0,0,1,1.19-.25,3,3,0,0,1,.94.14,1.73,1.73,0,0,1,.73.48,2.16,2.16,0,0,1,.47.86,4.48,4.48,0,0,1,.17,1.31v4.64h-1.95V31.93a1.84,1.84,0,0,0-.08-.58.81.81,0,0,0-.23-.37.89.89,0,0,0-.36-.19,1.85,1.85,0,0,0-.5-.06,1.45,1.45,0,0,0-.74.19,1.56,1.56,0,0,0-.5.52v5.14h-2v-7.3Z"/><path d="M155,27.49v1.79h1.25v1.43H155v3.65a1.22,1.22,0,0,0,.05.37.57.57,0,0,0,.14.24.55.55,0,0,0,.23.11,1.55,1.55,0,0,0,.33,0h.32l.25,0v1.47c-.16.05-.34.09-.53.13a4.19,4.19,0,0,1-.65,0,2.84,2.84,0,0,1-.86-.12,1.64,1.64,0,0,1-.66-.37,1.74,1.74,0,0,1-.42-.67,3,3,0,0,1-.15-1V30.71H152V29.28h1.07V27.49Z"/><path d="M160.69,36.72a3.88,3.88,0,0,1-1.52-.28,3.43,3.43,0,0,1-1.14-.75,3.23,3.23,0,0,1-.71-1.13,3.72,3.72,0,0,1-.25-1.38v-.26a4.61,4.61,0,0,1,.24-1.52,3.56,3.56,0,0,1,.68-1.19,2.91,2.91,0,0,1,1.08-.78,3.77,3.77,0,0,1,2.8,0,2.65,2.65,0,0,1,1,.73,3.15,3.15,0,0,1,.61,1.13,4.83,4.83,0,0,1,.21,1.47v.83h-4.65a2,2,0,0,0,.19.65,1.81,1.81,0,0,0,.37.49,1.51,1.51,0,0,0,.53.32,1.83,1.83,0,0,0,.68.12,2.47,2.47,0,0,0,1-.2,1.91,1.91,0,0,0,.77-.62l1,1.07a2.47,2.47,0,0,1-.44.49,2.59,2.59,0,0,1-.62.42,4.16,4.16,0,0,1-.8.3A4.35,4.35,0,0,1,160.69,36.72Zm-.22-6a1.2,1.2,0,0,0-.55.11,1.27,1.27,0,0,0-.42.31,2,2,0,0,0-.28.47,2.81,2.81,0,0,0-.15.62h2.71v-.16a1.91,1.91,0,0,0-.08-.54,1.14,1.14,0,0,0-.24-.43,1.07,1.07,0,0,0-.4-.28A1.52,1.52,0,0,0,160.47,30.73Z"/><path d="M164.5,32.88a5.6,5.6,0,0,1,.19-1.52,3.69,3.69,0,0,1,.56-1.18,2.44,2.44,0,0,1,.9-.76,2.63,2.63,0,0,1,1.21-.27,2.29,2.29,0,0,1,1,.21,2.37,2.37,0,0,1,.76.58V26.22h2V36.58h-1.76l-.1-.77a2.43,2.43,0,0,1-.8.67,2.25,2.25,0,0,1-1.07.24,2.54,2.54,0,0,1-1.21-.28,2.74,2.74,0,0,1-.89-.77,3.74,3.74,0,0,1-.56-1.17A5.41,5.41,0,0,1,164.5,33Zm1.95.14a5.35,5.35,0,0,0,.07.83,2.12,2.12,0,0,0,.24.67,1.27,1.27,0,0,0,.44.45,1.11,1.11,0,0,0,.65.17,1.46,1.46,0,0,0,.78-.2,1.33,1.33,0,0,0,.49-.56V31.5a1.3,1.3,0,0,0-.49-.57,1.42,1.42,0,0,0-.77-.2,1.21,1.21,0,0,0-.65.17,1.27,1.27,0,0,0-.44.45,2.24,2.24,0,0,0-.24.69,4.44,4.44,0,0,0-.08.84Z"/><path d="M182.61,33a6.46,6.46,0,0,1-.17,1.51,3.7,3.7,0,0,1-.53,1.17,2.63,2.63,0,0,1-.89.77,2.74,2.74,0,0,1-1.25.27,2.23,2.23,0,0,1-1.89-.91l-.09.77H176V26.22H178v3.72a2.4,2.4,0,0,1,.76-.59,2.47,2.47,0,0,1,1-.2,2.77,2.77,0,0,1,1.25.27,2.55,2.55,0,0,1,.89.77,3.46,3.46,0,0,1,.54,1.18,6.29,6.29,0,0,1,.17,1.49Zm-2-.14a5.36,5.36,0,0,0-.06-.82,1.94,1.94,0,0,0-.22-.68,1.19,1.19,0,0,0-.43-.46,1.29,1.29,0,0,0-.68-.17,1.52,1.52,0,0,0-.81.2,1.35,1.35,0,0,0-.48.57v2.88a1.32,1.32,0,0,0,.48.56,1.45,1.45,0,0,0,.82.21A1.29,1.29,0,0,0,180,35a1.11,1.11,0,0,0,.42-.44,1.94,1.94,0,0,0,.22-.68,5.71,5.71,0,0,0,.06-.86Z"/><path d="M186.47,33.82l1.34-4.54h2.1L187,37.68c-.06.18-.15.38-.25.6a2.66,2.66,0,0,1-.43.6,2.13,2.13,0,0,1-1.65.65h-.24l-.21,0-.2,0-.21-.06V37.93h.29a2.41,2.41,0,0,0,.5,0,1.11,1.11,0,0,0,.35-.14.85.85,0,0,0,.25-.25,1.43,1.43,0,0,0,.18-.35l.21-.55L183,29.28h2.1Z"/><path class="cls-2" d="M177,66.15h1.22L179.56,70h0l1.33-3.89h1.21v5h-.83V67.29h0l-1.38,3.83h-.71l-1.38-3.83h0v3.83H177Z"/><path class="cls-2" d="M183.16,66.15h2.06a2.33,2.33,0,0,1,1,.2,2,2,0,0,1,.68.53,2.54,2.54,0,0,1,.39.79,3.65,3.65,0,0,1,0,1.93,2.54,2.54,0,0,1-.39.79,2,2,0,0,1-.68.53,2.33,2.33,0,0,1-1,.2h-2.06Zm.87,4.26h.85a2.23,2.23,0,0,0,.84-.14,1.19,1.19,0,0,0,.5-.37,1.23,1.23,0,0,0,.25-.57,3,3,0,0,0,.07-.7,3,3,0,0,0-.07-.69,1.23,1.23,0,0,0-.25-.57,1.19,1.19,0,0,0-.5-.37,2.23,2.23,0,0,0-.84-.14H184Z"/><path class="cls-2" d="M189.49,66h.76l-2,5.19h-.75Z"/><path class="cls-2" d="M195.42,68.63a2.65,2.65,0,0,1-.2,1.07,2.49,2.49,0,0,1-.56.82,2.68,2.68,0,0,1-2.81.52,2.7,2.7,0,0,1-.81-.55,2.49,2.49,0,0,1-.52-.82,2.71,2.71,0,0,1-.2-1,2.64,2.64,0,0,1,.21-1.06,2.49,2.49,0,0,1,.56-.82,2.64,2.64,0,0,1,.81-.53,2.7,2.7,0,0,1,1-.18,2.48,2.48,0,0,1,1.78.71,2.49,2.49,0,0,1,.56.82A2.63,2.63,0,0,1,195.42,68.63Zm-.55,0a2.39,2.39,0,0,0-.15-.86,2.13,2.13,0,0,0-.43-.68,1.84,1.84,0,0,0-1.41-.6,2.09,2.09,0,0,0-.79.15,2,2,0,0,0-.63.45,2.13,2.13,0,0,0-.43.68,2.39,2.39,0,0,0-.15.86,2.55,2.55,0,0,0,.14.84,2,2,0,0,0,.4.68,1.91,1.91,0,0,0,1.46.63,1.84,1.84,0,0,0,1.41-.6,2.2,2.2,0,0,0,.43-.67A2.46,2.46,0,0,0,194.87,68.63Zm-2.5,1.49h-.47V67.25H193a1.3,1.3,0,0,1,.78.19.72.72,0,0,1,.27.63.72.72,0,0,1-.22.57,1,1,0,0,1-.54.22l.81,1.26h-.53l-.75-1.23h-.44Zm.53-1.63h.25a.65.65,0,0,0,.21-.06.4.4,0,0,0,.15-.14.51.51,0,0,0,.05-.24.33.33,0,0,0-.06-.21.44.44,0,0,0-.15-.12.59.59,0,0,0-.2,0h-.78v.84Z"/><ellipse class="cls-2" cx="103.5" cy="98.91" rx="85.98" ry="48.18"/><path class="cls-1" d="M33.2,101.45C32,106,33.82,110,39.6,110c3.24,0,6.07-1.87,6.73-4.61.72-3-1-4.84-3-6.87l-1.89-2C39,94.06,37.12,91.79,38,88c1.28-5.4,7-8.78,13.41-8.78A12,12,0,0,1,59.62,82c4.26,4.3-1,7-2.2,6.79A1,1,0,0,1,57,88.7c1.12-3.48-.08-7.34-4.92-7.34-2.72,0-6.06,1.45-6.65,3.91-.67,2.81,1.34,4.74,3.16,6.57l1.71,1.69c2.73,2.65,5,5.16,4,9.26-1.4,5.89-7.3,9.37-14.25,9.37-3.83,0-7.63-1.15-9.76-3.54C26.21,103.87,30.9,101.41,33.2,101.45Z"/><path class="cls-1" d="M81.46,123.64l6.74-14.92h.12c.83,2,2.73,3.16,5.48,3.16,8.68,0,14.73-8.4,15.49-14.58a8.88,8.88,0,0,0,0-1.8c-.26-3-2.28-5.18-6.6-5.18a11.45,11.45,0,0,0-7.93,3.2l-.11-.09.71-1.68A7.46,7.46,0,0,0,91,88.06L76.87,119.69A7.9,7.9,0,0,0,81.46,123.64ZM102.57,96c-.43,3.49-4.67,13.21-10.06,13.21-2.15,0-2.79-1.65-2.61-3.16.37-3,4.43-13.07,9.75-13.07C101.86,93,102.77,94.4,102.57,96Z"/><path class="cls-1" d="M79.7,108.94a2.47,2.47,0,0,1-1.06.28c-.84,0-1-1.12-.92-1.71a18.18,18.18,0,0,1,1.39-3.58l6.17-13.1a8.85,8.85,0,0,0-6.23,0l-1.51,2.65c-.83-2-2.73-3.16-5.54-3.16-8.62,0-15.68,8.26-16.45,14.52-.46,3.8,1.53,7,6.56,7a12.5,12.5,0,0,0,9.6-5.1l.11.1a14.53,14.53,0,0,0-.39,1.76c-.23,1.78,1.16,3.24,3.42,3.24a9.3,9.3,0,0,0,4-1l.88-1.94ZM75.83,95.75C75.39,99.24,70.54,109,65.1,109c-2,0-2.66-1.75-2.48-3.16C63,102.35,67.72,93,73,93,75.08,93,76,94.2,75.83,95.75Z"/><path class="cls-1" d="M132.77,99.48l3.63-7-3.24-.22c-.88,0-3-.26-3-.26l-1.74,3.14c-1.64,3.15-7,13.61-11.9,13.61-1,0-1.69-.4-1.59-1.27C115.05,106.38,119,99,119,99a20.44,20.44,0,0,0,2.31-5.62c.24-1.9-1.42-3.11-3.69-3.11a12.67,12.67,0,0,0-6.25,2.11,5,5,0,0,1,.51,1.21,6.31,6.31,0,0,1,1.55-.41.82.82,0,0,1,.89,1c-.09.78-3.69,8-3.69,8-.86,1.65-2.18,4.12-2.39,5.83-.29,2.37,1.69,3.84,4.44,3.82,4.78,0,8.59-3.12,11.31-6.84l.1.11a12.2,12.2,0,0,0-.87,3.19c-.22,1.85,1,3.54,3.46,3.54a10.21,10.21,0,0,0,6-2.21v0a2.93,2.93,0,0,1-.17-1.45c0-.07,0-.13,0-.2a3.74,3.74,0,0,1-1.75.75c-1,0-1-.94-.89-1.51C130.14,105.3,131.88,101.42,132.77,99.48Z"/><path class="cls-1" d="M169.11,90.54c-3.22-2.2-8.86-4-18.72-4.27l2.26-5a8.44,8.44,0,0,0-6.1,0l-2.42,5.08c-6.53.29-14.27,2-28.38-.79l-.37.61c7.86,3.25,19.88,3.95,27,3.95l-5.14,10.8c-.45,1-1.07,2.3-1.58,3.61a10.66,10.66,0,0,0-1.11,3.66c-.27,2.17,1.69,3.77,4.38,3.77,3.1,0,5.72-1.82,7.72-3.68l0-.07a5.88,5.88,0,0,1-.61-1.4,15,15,0,0,1-1.37,1.18,4,4,0,0,1-2.2.89c-1.13,0-1.25-.8-1.17-1.52a27.54,27.54,0,0,1,2.19-5.62l5.39-12c5.4-.54,12.13-1.3,15.68.86-5.13.4-10.26,2-13.46,5.69a13.61,13.61,0,0,0-3.3,7.34,9.78,9.78,0,0,0,.07,2.5c.67,3.49,3.85,5.83,8.82,5.83,8.36,0,15.67-6.59,16.47-13.12a7.4,7.4,0,0,0-1.46-5.91,12.63,12.63,0,0,1,5.43,3.66,6.5,6.5,0,0,0,3.41-3.26C179.31,92.18,174.59,90.81,169.11,90.54Zm-6.82,15.77c-3.95,5.51-10.24,5.64-8-2.2.35-1.24,3.21-11.29,11.78-12.07a5.24,5.24,0,0,1,.77,1.84C167.44,97,165.06,102.56,162.29,106.31Z"/></g></g></svg>