<svg xmlns="http://www.w3.org/2000/svg" viewBox="0 0 296.03 149.72"><defs><style>.cls-1{fill:#545456;}.cls-2{fill:#fff;}.cls-3{fill:#ec1c24;}.cls-4{fill:#008642;}</style></defs><title>logo-heineken</title><g id="Layer_2" data-name="Layer 2"><g id="logo_golo" data-name="logo golo"><path class="cls-1" d="M121,90a.6.6,0,0,1-.73,0,.61.61,0,0,1-.23-.68l9.77-31L104.26,39.19a.64.64,0,0,1-.22-.7.6.6,0,0,1,.58-.44h31.61L146,7.1a.62.62,0,0,1,.59-.44.64.64,0,0,1,.59.44L156.93,38h31.61a.59.59,0,0,1,.58.44.63.63,0,0,1-.22.7L163.32,58.32l9.77,31a.61.61,0,0,1-.23.69.59.59,0,0,1-.72,0L146.58,70.84Z"/><path class="cls-2" d="M190.71,32.06a3.1,3.1,0,0,0-2.92-2.14H158.55l-9-27.8a3.1,3.1,0,0,0-5.88,0l-9,27.8H105.37a3.1,3.1,0,0,0-1.82,5.6L127.2,52.7l-9,27.8A3.09,3.09,0,0,0,119.3,84,7.06,7.06,0,0,0,121.41,85l25.17-18.23L171.73,85a6.67,6.67,0,0,0,2.13-1A3.12,3.12,0,0,0,175,80.5l-9-27.8L189.6,35.52a3.09,3.09,0,0,0,1.11-3.46"/><path class="cls-3" d="M122,81.84a.58.58,0,0,1-.7,0,.55.55,0,0,1-.22-.63l9.39-28.93L105.88,34.41a.6.6,0,0,1,.35-1.07h30.39L146,4.44a.59.59,0,0,1,1.13,0l9.39,28.9h30.4a.6.6,0,0,1,.35,1.07l-24.6,17.87,9.4,28.92a.57.57,0,0,1-.22.64.58.58,0,0,1-.7,0L146.58,64Z"/><polygon class="cls-1" points="76.61 78.77 76.61 73.07 75.49 73.07 75.49 71.23 79.82 71.23 79.82 73.07 78.65 73.07 78.65 78.77 76.61 78.77"/><path class="cls-1" d="M85.3,78.77l-1.13-3.14,0,0c0,.37,0,.74,0,1.11v2h-2V71.23h2c1.77,0,3,.52,3,2.51A1.9,1.9,0,0,1,86,75.63l1.52,3.14Zm-1-4a.87.87,0,0,0,.83-1,.82.82,0,0,0-1-.91v1.86Z"/><path class="cls-1" d="M92.65,78.77l-.15-1H91.13l-.17,1h-2.1l1.81-7.54h2.49l1.6,7.54Zm-.39-2.57L92,74.45c-.06-.47-.1-1-.15-1.42h0c-.06.47-.11,1-.19,1.42L91.4,76.2Z"/><path class="cls-1" d="M96.63,71.23h1.64c2.32,0,3.57,1.46,3.57,3.74,0,3.48-2.19,3.8-3.43,3.8H96.63Zm2,5.72c.93,0,1.09-1.17,1.09-1.88s-.16-2-1.09-2Z"/><polygon class="cls-1" points="104.12 71.23 107.91 71.23 107.91 73.01 106.16 73.01 106.16 74.06 107.73 74.06 107.73 75.84 106.16 75.84 106.16 76.99 107.91 76.99 107.91 78.77 104.12 78.77 104.12 71.23"/><path class="cls-1" d="M190,78.77,189.78,74h0c-.09.55-.16,1.1-.26,1.65l-.58,3.09h-1.66L186.55,74h0c0,.56,0,1.11,0,1.67l-.17,3.07h-2.19l.88-7.54h2.54l.58,4h0c.06-.47.11-.93.2-1.4l.49-2.61h2.51l.73,7.54Z"/><path class="cls-1" d="M197.21,78.77l-.15-1h-1.37l-.17,1h-2.1l1.81-7.54h2.49l1.6,7.54Zm-.39-2.57-.22-1.75c-.06-.47-.1-1-.15-1.42h0c-.06.47-.11,1-.19,1.42L196,76.2Z"/><path class="cls-1" d="M204.25,78.77l-1.13-3.14,0,0c0,.37,0,.74,0,1.11v2h-2V71.23h2c1.77,0,3.05.52,3.05,2.51a1.9,1.9,0,0,1-1.17,1.89l1.52,3.14Zm-1-4a.87.87,0,0,0,.83-1,.82.82,0,0,0-1-.91v1.86Z"/><polygon class="cls-1" points="213.85 71.23 212.22 74.87 214.04 78.77 211.85 78.77 210.58 75.31 210.57 75.31 210.57 78.77 208.53 78.77 208.53 71.23 210.57 71.23 210.57 74.44 210.58 74.44 211.7 71.23 213.85 71.23"/><path class="cls-4" d="M75.75,137.5a18.89,18.89,0,0,1-7,4.69c-2.35.75-9.05,1.34-11-4.19-.42-1.2-.08-1.57,1-1.89,1.61-.48,5.78-1.71,10.17-3.35a53.71,53.71,0,0,0,8.66-4.06A3.76,3.76,0,0,0,79,123.56c-2.8-6.29-9.13-12.87-19.65-10.87A17.94,17.94,0,0,0,45,130.43c0,10.67,6.43,16.9,14.61,18.84,7.56,1.79,16.45-1.87,20.26-8,1.5-2.38-2.74-5.19-4.12-3.74m-18.94-8.39c-.82-2.27-.17-9.19,3.65-10.49,4-1.38,6.47.69,7.67,4.73.45,1.5.35,3.08-.14,3.68a6.91,6.91,0,0,1-3.12,1.76l-3,1c-3,1-4.37,1.21-5.06-.67"/><path class="cls-4" d="M173.73,137.5a19,19,0,0,1-7,4.69c-2.35.75-9,1.34-11-4.19-.43-1.2-.08-1.57,1-1.89,1.62-.48,5.78-1.71,10.18-3.35a53.47,53.47,0,0,0,8.65-4.06,3.77,3.77,0,0,0,1.42-5.14c-2.8-6.29-9.13-12.87-19.66-10.87A18,18,0,0,0,143,130.43c0,10.67,6.42,16.9,14.6,18.84,7.56,1.79,16.46-1.87,20.26-8,1.51-2.38-2.74-5.19-4.11-3.74m-18.95-8.39a12,12,0,0,1,.47-6.86,5.72,5.72,0,0,1,3.18-3.63,5.1,5.1,0,0,1,4.63.17,7.39,7.39,0,0,1,3.05,4.56c.44,1.5.34,3.08-.15,3.68a6.88,6.88,0,0,1-3.12,1.76c-1.3.46-2.45.84-3,1-3,.93-4.36,1.19-5.06-.69"/><path class="cls-4" d="M248.41,137.5a18.89,18.89,0,0,1-7,4.69c-2.34.75-9,1.34-11-4.19-.43-1.2-.08-1.57,1-1.89,1.62-.48,5.78-1.71,10.17-3.35a53.27,53.27,0,0,0,8.66-4.06,3.76,3.76,0,0,0,1.41-5.14c-2.79-6.29-9.13-12.87-19.65-10.87a17.94,17.94,0,0,0-14.36,17.74c0,10.67,6.43,16.9,14.61,18.84,7.56,1.79,16.45-1.87,20.26-8,1.51-2.38-2.74-5.19-4.12-3.74m-18.94-8.39a11.9,11.9,0,0,1,.47-6.86,5.72,5.72,0,0,1,3.18-3.63,5.11,5.11,0,0,1,4.63.17,7.42,7.42,0,0,1,3,4.56c.45,1.5.35,3.08-.14,3.68a6.88,6.88,0,0,1-3.12,1.76c-1.3.46-2.46.84-3,1-3,.93-4.35,1.19-5.05-.69"/><path class="cls-4" d="M17.69,126.31a1.05,1.05,0,0,0-1.06,1.06v12.08c0,1.88.58,3.13,1.6,3.58l2.44,1.11c.47.22.48.69.41,1.3s-.21,2.11-.27,2.68-.55.89-1.5.89H1.82c-.88,0-1.43-.16-1.51-.89-.06-.57-.22-2.22-.28-2.76-.08-.7.06-1.05.49-1.25.59-.28,1.86-.84,2.42-1.1,1.08-.5,1.54-2,1.54-3.52V109.62c0-1.67-.47-3-1.68-3.58-.56-.26-1.71-.78-2.27-1.05s-.59-.65-.5-1.26.2-1.48.28-2c.1-.73.63-.88,1.51-.88H18.5c.88,0,1.39.15,1.49.88.08.57.21,1.51.29,2A1.1,1.1,0,0,1,19.8,105l-2,1.08c-.72.39-1.19,1.2-1.2,3.13v8.71A1.05,1.05,0,0,0,17.69,119H27a1.06,1.06,0,0,0,1.07-1.06v-8.71c0-1.93-.48-2.74-1.2-3.13l-2-1.08a1.12,1.12,0,0,1-.49-1.28c.08-.54.21-1.48.29-2,.1-.73.61-.88,1.5-.88H42.9c.89,0,1.41.15,1.51.88.08.57.21,1.51.29,2s0,1-.5,1.26L41.93,106c-1.21.56-1.68,1.91-1.68,3.58v29.87c0,1.55.46,3,1.55,3.52.55.26,1.83.82,2.41,1.1.43.2.57.55.5,1.25-.06.54-.23,2.19-.29,2.76-.07.73-.62.89-1.51.89H25.41c-.94,0-1.43-.27-1.49-.89s-.22-2.13-.28-2.68-.05-1.08.42-1.3L26.5,143c1-.45,1.58-1.7,1.59-3.58V127.37A1.06,1.06,0,0,0,27,126.31Z"/><path class="cls-4" d="M205.13,125.34s6.34,11.46,8.07,14.6c1.31,2.4,2.79,3.06,4.79,4.2.51.29.67.48.58,1.45-.07.75-.19,1.89-.25,2.49-.08.82-.67.93-1.49.93h-9.34c-1.18,0-1.64-.25-2.06-1l-8.25-15-3,2.81v3.92a3.83,3.83,0,0,0,1.65,3.41l2,1.08c.49.27.53.61.46,1.38,0,.55-.19,2-.25,2.54s-.5.89-1.5.89H181c-.89,0-1.45-.16-1.52-.89-.06-.57-.21-2.1-.27-2.64s0-1,.5-1.29l2-1.09c.77-.43,1.39-1.57,1.39-3.45V109.31c0-2.1-.8-3.06-1.42-3.4l-2-1.11c-.43-.25-.51-.72-.43-1.3s.18-1.24.26-1.82c.1-.76.6-.88,1.51-.88h11.22a2,2,0,0,1,2,2V126l7.23-6.51c.66-.6.47-1.23.1-1.4-.64-.31-1.36-.62-1.77-.81s-.68-.44-.6-1.18.2-1.83.25-2.36c.07-.7.3-1,1.45-1h13.72c.86,0,1.15.29,1.2.86s.22,2,.28,2.61-.31.81-1.06,1.09c-2,.73-2.85,1.24-5.53,3.83-1.68,1.62-4.37,4.17-4.37,4.17"/><path class="cls-4" d="M96.58,139.76c0,1.8.61,2.91,1.42,3.36l2,1.08c.49.27.52.61.46,1.38,0,.55-.2,2-.26,2.54s-.5.89-1.49.89H83.11c-.88,0-1.43-.16-1.51-.89-.06-.57-.21-2.1-.27-2.64s0-1,.5-1.29l2-1.09c.76-.43,1.39-1.57,1.39-3.45v-17c0-2.28-.67-3.35-1.41-3.76l-1.34-.77c-.46-.26-.54-.7-.45-1.28s.2-1.45.27-2c.11-.73.63-.89,1.52-.89H95.53a1,1,0,0,1,1,1Z"/><path class="cls-4" d="M90,99.82a6,6,0,1,0,6.24,6,6.12,6.12,0,0,0-6.24-6"/><path class="cls-4" d="M137.11,122.66c0-6.24-2.83-8.63-6.11-9.67-3.78-1.21-8.35.77-10.69,1.86-1,.44-1.84.89-1.84.89-.61-1.42-.93-1.82-1.83-1.82H105.56c-.88,0-1.41.16-1.51.89-.08.57-.2,1.48-.27,2s0,1,.44,1.28l1.35.77c.74.41,1.41,1.48,1.41,3.76v17c0,1.88-.63,3-1.39,3.45l-2,1.09c-.45.26-.57.61-.49,1.29s.21,2.07.27,2.64c.08.73.63.89,1.51.89h15.54c1,0,1.44-.25,1.5-.89s.21-2,.26-2.54c.06-.77,0-1.11-.46-1.38-.64-.35-1.43-.78-2-1.08-1-.57-1.43-2.05-1.43-3.4V126.2c0-3.53,1.72-5.51,4.08-5.8,1.58-.2,3.59.77,3.59,3.55v18.21c0,5.18,4.41,7.17,7.87,7.17,3.66,0,6.79-1.68,8.19-4.61a1.83,1.83,0,0,0-.56-2.13c-.51-.58-1-1.09-1.83-.65s-1.71,1.25-2.21,1-.41-.53-.41-1.34Z"/><path class="cls-4" d="M288,122.66c0-6.24-2.82-8.63-6.1-9.67-3.78-1.21-8.35.77-10.7,1.86-.95.44-1.83.89-1.83.89-.61-1.42-.93-1.82-1.83-1.82H256.47c-.88,0-1.41.16-1.51.89-.08.57-.2,1.48-.28,2s0,1,.45,1.28l1.35.77c.74.41,1.41,1.48,1.41,3.76v17c0,1.88-.62,3-1.39,3.45l-2,1.09c-.45.26-.57.61-.49,1.29s.21,2.07.27,2.64c.07.73.62.89,1.51.89h15.54c1,0,1.43-.25,1.5-.89s.21-2,.25-2.54c.07-.77,0-1.11-.46-1.38l-2-1.08c-1-.57-1.42-2.05-1.42-3.4V126.2c0-3.53,1.72-5.51,4.08-5.8,1.57-.2,3.59.77,3.59,3.55v18.21c0,5.18,4.41,7.17,7.87,7.17,3.66,0,6.79-1.68,8.19-4.61a1.83,1.83,0,0,0-.56-2.13c-.52-.58-1-1.09-1.83-.65s-1.71,1.25-2.22,1-.41-.53-.41-1.34Z"/><path class="cls-4" d="M296,103.4a6.88,6.88,0,1,1-6.86-6.88A6.87,6.87,0,0,1,296,103.4m-1.39,0a5.49,5.49,0,1,0-5.47,5.48,5.48,5.48,0,0,0,5.47-5.48M292,105a5.85,5.85,0,0,0,.68,1.8h-1.85a13,13,0,0,1-.6-1.87c-.24-.79-.74-1-1.6-1H288v2.89h-1.7V99.43h3.54a2.12,2.12,0,0,1,2.26,2.07,2,2,0,0,1-1.11,1.88,2.1,2.1,0,0,1,1,1.66m-1.65-3.45c0-.59-.62-.8-1.14-.8H288v1.7h1.36a.91.91,0,0,0,1-.9"/></g></g></svg>